<svg width="16" height="16" viewBox="0 0 16 16" fill="none" xmlns="http://www.w3.org/2000/svg">
<g clip-path="url(#clip0_25_2690)">
<path fill-rule="evenodd" clip-rule="evenodd" d="M4.17946 1.65399C5.1927 0.640761 6.56693 0.0715332 7.99986 0.0715332C9.43279 0.0715332 10.807 0.640761 11.8203 1.65399C12.8335 2.66723 13.4027 4.04146 13.4027 5.47439C13.4027 8.14553 13.8908 9.67901 14.394 10.5262C14.645 10.9487 14.8983 11.1986 15.0965 11.3393C15.2934 11.479 15.4156 11.4981 15.4275 11.4999C15.4278 11.4999 15.4283 11.5001 15.4275 11.4999C15.7037 11.4999 15.9284 11.724 15.9284 12.0001C15.9284 12.2762 15.7046 12.5001 15.4284 12.5001H0.571289C0.295147 12.5001 0.0712891 12.2762 0.0712891 12.0001C0.0712891 11.724 0.295147 11.5001 0.571289 11.5001C0.575789 11.4996 0.701468 11.4847 0.907476 11.3381C1.10607 11.1968 1.35912 10.9459 1.60953 10.5227C2.11166 9.67387 2.597 8.14008 2.597 5.47439C2.597 4.04146 3.16623 2.66723 4.17946 1.65399ZM4.88657 2.3611C5.71227 1.5354 6.83215 1.07153 7.99986 1.07153C9.16757 1.07153 10.2875 1.5354 11.1132 2.3611C11.9388 3.1868 12.4027 4.30668 12.4027 5.47439C12.4027 8.25468 12.9089 9.98406 13.5343 11.0369C13.6363 11.2087 13.7416 11.3626 13.8486 11.5001H2.15329C2.26118 11.3612 2.3674 11.2056 2.4702 11.0318C3.09377 9.97777 3.597 8.2487 3.597 5.47439C3.597 4.30668 4.06087 3.1868 4.88657 2.3611Z" fill="#20604F"/>
<path d="M6.76964 13.9655C6.70007 13.6982 6.42703 13.538 6.15979 13.6076C5.89256 13.6771 5.73232 13.9502 5.8019 14.2174C5.92857 14.704 6.2131 15.1348 6.6109 15.4422C7.00869 15.7497 7.49727 15.9166 8.00005 15.9166C8.50284 15.9166 8.99141 15.7497 9.38921 15.4422C9.787 15.1348 10.0715 14.704 10.1982 14.2174C10.2678 13.9502 10.1075 13.6771 9.84031 13.6076C9.57308 13.538 9.30004 13.6982 9.23047 13.9655C9.15956 14.2378 9.0003 14.4789 8.77763 14.6511C8.55497 14.8232 8.28148 14.9166 8.00005 14.9166C7.71862 14.9166 7.44514 14.8232 7.22247 14.6511C6.99981 14.4789 6.84054 14.2378 6.76964 13.9655Z" fill="#20604F"/>
</g>
<defs>
<clipPath id="clip0_25_2690">
<rect width="16" height="16" fill="white"/>
</clipPath>
</defs>
</svg>
