<svg width="18" height="18" viewBox="0 0 18 18" fill="none" xmlns="http://www.w3.org/2000/svg">
<path fill-rule="evenodd" clip-rule="evenodd" d="M5.28581 3.4001C5.02285 3.4001 4.78499 3.48215 4.62225 3.60873C4.46184 3.73349 4.4001 3.87806 4.4001 4.0001V15.1822L8.89738 11.6844C9.04182 11.572 9.24409 11.572 9.38853 11.6844L13.8858 15.1822V4.0001C13.8858 3.87806 13.8241 3.73349 13.6637 3.60873C13.5009 3.48215 13.2631 3.4001 13.0001 3.4001H5.28581ZM4.1311 2.97725C4.45059 2.72876 4.86679 2.6001 5.28581 2.6001H13.0001C13.4191 2.6001 13.8353 2.72876 14.1548 2.97725C14.4766 3.22756 14.6858 3.5917 14.6858 4.0001V16.0001C14.6858 16.1529 14.5988 16.2923 14.4616 16.3594C14.3243 16.4265 14.1608 16.4096 14.0402 16.3158L9.14295 12.5068L4.24567 16.3158C4.12508 16.4096 3.9616 16.4265 3.82436 16.3594C3.68712 16.2923 3.6001 16.1529 3.6001 16.0001V4.0001C3.6001 3.5917 3.80927 3.22756 4.1311 2.97725Z" fill="#20604F"/>
</svg>
