<svg width="32" height="32" viewBox="0 0 32 32" fill="none" xmlns="http://www.w3.org/2000/svg">
<path fill-rule="evenodd" clip-rule="evenodd" d="M4.75165 14.1629C6.70078 17.0728 9.73533 18.8225 12.9669 19.1523C12.957 19.2334 12.9519 19.3161 12.9519 19.3999L12.9519 29.457C12.9519 30.5759 13.859 31.483 14.9779 31.483C16.0968 31.483 17.0039 30.5759 17.0039 29.457L17.0039 19.3999C17.0039 19.3369 17.001 19.2746 16.9954 19.2131L17.3801 19.2085C20.9734 19.1654 24.437 17.3679 26.5838 14.1629C28.7186 10.9757 29.097 7.0897 27.9794 3.72418L27.0461 0.914062L24.0853 0.949547C20.9028 0.987688 17.822 2.40208 15.6677 4.95171C13.5134 2.40208 10.4326 0.987688 7.25013 0.949547L4.28932 0.914062L3.35609 3.72418C2.23841 7.0897 2.61681 10.9757 4.75165 14.1629ZM18.2103 15.0907C18.6307 13.0646 18.5327 10.9161 17.8649 8.88581C17.9815 8.66972 18.1092 8.45758 18.2482 8.25017C19.6491 6.15871 21.8691 5.02839 24.1339 5.00125C24.8786 7.24357 24.6182 9.8164 23.2173 11.9079C21.9984 13.7276 20.1593 14.8197 18.2103 15.0907ZM13.4705 8.88581C13.3539 8.66972 13.2262 8.45758 13.0873 8.25017C11.6864 6.15871 9.46633 5.02839 7.20157 5.00125C6.4569 7.24357 6.71728 9.8164 8.1182 11.9079C9.3371 13.7276 11.1761 14.8197 13.1252 15.0907C12.7047 13.0646 12.8027 10.9161 13.4705 8.88581Z" fill="#20604F"/>
<path d="M13.0873 8.25088C14.4882 10.3424 14.7486 12.9152 14.0039 15.1575C11.7392 15.1304 9.51914 14.0001 8.11823 11.9086C6.71731 9.81711 6.45693 7.24428 7.2016 5.00195C9.46636 5.0291 11.6864 6.15942 13.0873 8.25088Z" fill="#70D767"/>
<path d="M18.2482 8.25088C16.8473 10.3424 16.5869 12.9152 17.3316 15.1575C19.5963 15.1304 21.8164 14.0001 23.2173 11.9086C24.6182 9.81711 24.8786 7.24428 24.1339 5.00195C21.8692 5.0291 19.6491 6.15942 18.2482 8.25088Z" fill="#70D767"/>
</svg>
