<svg width="18" height="18" viewBox="0 0 18 18" fill="none" xmlns="http://www.w3.org/2000/svg">
<g clip-path="url(#clip0_1_10017)">
<path d="M13.5002 0.643066H4.50021C2.36997 0.643066 0.643066 2.36997 0.643066 4.50021V13.5002C0.643066 15.6305 2.36997 17.3574 4.50021 17.3574H13.5002C15.6305 17.3574 17.3574 15.6305 17.3574 13.5002V4.50021C17.3574 2.36997 15.6305 0.643066 13.5002 0.643066Z" fill="#20604F"/>
<path fill-rule="evenodd" clip-rule="evenodd" d="M13.1094 4.71132C13.3479 4.85051 13.4284 5.15669 13.2892 5.39518L9.16241 12.466C9.16235 12.4661 9.16247 12.4659 9.16241 12.466C9.07989 12.6078 8.96764 12.7304 8.83363 12.825C8.70045 12.919 8.54871 12.9834 8.38861 13.0139C8.22693 13.046 8.06012 13.042 7.90017 13.002C7.74044 12.962 7.59154 12.8873 7.4641 12.7831L4.83074 10.6764C4.61511 10.5039 4.58015 10.1893 4.75265 9.97366C4.92516 9.75803 5.2398 9.72307 5.45543 9.89557L8.09668 12.0086C8.11012 12.0196 8.12582 12.0276 8.1427 12.0318C8.15958 12.036 8.1772 12.0365 8.19426 12.033L8.20089 12.0317C8.22106 12.0279 8.24018 12.0199 8.25694 12.008C8.27371 11.9962 8.28772 11.9809 8.29804 11.9631L12.4255 4.89111C12.5647 4.65262 12.8709 4.57212 13.1094 4.71132Z" fill="white"/>
</g>
<defs>
<clipPath id="clip0_1_10017">
<rect width="18" height="18" fill="white"/>
</clipPath>
</defs>
</svg>
