<svg width="18" height="18" viewBox="0 0 18 18" fill="none" xmlns="http://www.w3.org/2000/svg">
<g clip-path="url(#clip0_1_10016)">
<path d="M13.2892 5.39518C13.4284 5.15669 13.3479 4.85051 13.1094 4.71132C12.8709 4.57212 12.5647 4.65262 12.4255 4.89111L8.29804 11.9631C8.28772 11.9809 8.27371 11.9962 8.25694 12.008C8.24018 12.0199 8.22106 12.0279 8.20089 12.0317L8.19426 12.033C8.1772 12.0365 8.15958 12.036 8.1427 12.0318C8.12582 12.0276 8.11012 12.0196 8.09668 12.0086L5.45543 9.89557C5.2398 9.72307 4.92516 9.75803 4.75265 9.97366C4.58015 10.1893 4.61511 10.5039 4.83074 10.6764L7.4641 12.7831C7.59154 12.8873 7.74045 12.962 7.90017 13.002C8.06012 13.042 8.22692 13.046 8.38861 13.0139C8.54871 12.9834 8.70045 12.919 8.83363 12.825C8.96764 12.7304 9.07989 12.6078 9.16241 12.466L13.2892 5.39518Z" fill="#20604F"/>
<path fill-rule="evenodd" clip-rule="evenodd" d="M4.50021 0.143066C2.09383 0.143066 0.143066 2.09383 0.143066 4.50021V13.5002C0.143066 15.9066 2.09383 17.8574 4.50021 17.8574H13.5002C15.9066 17.8574 17.8574 15.9066 17.8574 13.5002V4.50021C17.8574 2.09383 15.9066 0.143066 13.5002 0.143066H4.50021ZM1.14307 4.50021C1.14307 2.64611 2.64611 1.14307 4.50021 1.14307H13.5002C15.3543 1.14307 16.8574 2.64611 16.8574 4.50021V13.5002C16.8574 15.3543 15.3543 16.8574 13.5002 16.8574H4.50021C2.64611 16.8574 1.14307 15.3543 1.14307 13.5002V4.50021Z" fill="#20604F"/>
</g>
<defs>
<clipPath id="clip0_1_10016">
<rect width="18" height="18" fill="white"/>
</clipPath>
</defs>
</svg>
