<svg width="18" height="18" viewBox="0 0 18 18" fill="none" xmlns="http://www.w3.org/2000/svg">
<g clip-path="url(#clip0_69_2697)">
<path fill-rule="evenodd" clip-rule="evenodd" d="M16.3437 0.174464C15.9836 0.0959219 15.6088 0.121551 15.2629 0.248255L1.47456 4.84863L1.4712 4.84978C1.14426 4.96145 0.85307 5.1584 0.627729 5.42029C0.403669 5.68068 0.252793 5.99587 0.190474 6.33362C0.127895 6.64245 0.142514 6.96198 0.233076 7.26386C0.324179 7.56753 0.489463 7.84401 0.713732 8.0681L4.08456 11.4389L3.97441 15.6857C3.96983 15.8624 4.05893 16.0285 4.20876 16.1223C4.35858 16.2162 4.54685 16.224 4.7039 16.1428L7.38854 14.7546L9.93049 17.2849C10.1628 17.522 10.4528 17.6947 10.7721 17.7859C11.0915 17.8772 11.4293 17.8837 11.752 17.8049C12.075 17.7293 12.3732 17.5721 12.6181 17.3483C12.8636 17.124 13.0476 16.8397 13.1519 16.5239L17.7518 2.73716C17.8785 2.39128 17.9041 2.0164 17.8256 1.65638C17.7464 1.2934 17.5646 0.960796 17.3019 0.698096C17.0392 0.435396 16.7066 0.253651 16.3437 0.174464ZM15.9352 1.1299C15.8222 1.12929 15.7096 1.14904 15.6027 1.18876L15.5868 1.19438L1.79443 5.79609L1.79292 5.79661C1.63512 5.85081 1.49458 5.94604 1.38574 6.07253C1.27655 6.19942 1.20323 6.35317 1.17336 6.51788L1.17125 6.52949C1.14072 6.67784 1.14738 6.83143 1.1909 6.97651C1.23443 7.12159 1.31331 7.25358 1.42047 7.36063L4.62057 10.5607L15.9352 1.1299ZM5.08392 11.4763L4.99601 14.866L7.25316 13.6988C7.44617 13.599 7.68155 13.6353 7.83556 13.7886L10.6436 16.5837C10.7548 16.6977 10.8937 16.7806 11.0468 16.8244C11.1999 16.8681 11.3617 16.8711 11.5163 16.8331L11.5224 16.8316C11.6795 16.7951 11.8246 16.7188 11.9436 16.61C12.0627 16.5013 12.1518 16.3637 12.2023 16.2106L12.2028 16.209L16.8057 2.41326L16.8113 2.39733C16.874 2.22859 16.8869 2.0454 16.8486 1.86953C16.8367 1.81529 16.8202 1.76245 16.7992 1.71157L5.08392 11.4763Z" fill="white"/>
</g>
<defs>
<clipPath id="clip0_69_2697">
<rect width="18" height="18" fill="white"/>
</clipPath>
</defs>
</svg>
