<svg width="18" height="18" viewBox="0 0 18 18" fill="none" xmlns="http://www.w3.org/2000/svg">
<path fill-rule="evenodd" clip-rule="evenodd" d="M4.47848 2.9378C4.33635 2.9378 4.20005 2.99426 4.09955 3.09476C3.99905 3.19525 3.94259 3.33156 3.94259 3.47368V12.5167C3.94259 12.5671 3.93447 12.6172 3.91853 12.665L3.18386 14.869L6.37432 14.0714C6.41151 14.0621 6.44971 14.0574 6.48805 14.0574H14.5263C14.6684 14.0574 14.8047 14.0009 14.9052 13.9004C15.0057 13.8 15.0622 13.6636 15.0622 13.5215V3.47368C15.0622 3.33156 15.0057 3.19525 14.9052 3.09476C14.8047 2.99426 14.6684 2.9378 14.5263 2.9378H4.47848ZM3.43643 2.43163C3.71279 2.15526 4.08763 2 4.47848 2H14.5263C14.9172 2 15.292 2.15526 15.5684 2.43163C15.8447 2.708 16 3.08284 16 3.47368V13.5215C16 13.9124 15.8447 14.2872 15.5684 14.5636C15.292 14.8399 14.9172 14.9952 14.5263 14.9952H6.54577L2.58263 15.986C2.4166 16.0275 2.24115 15.9753 2.12487 15.8497C2.00859 15.7241 1.96995 15.5452 2.02407 15.3828L3.00479 12.4406V3.47368C3.00479 3.08284 3.16006 2.708 3.43643 2.43163Z" fill="#20604F"/>
</svg>
