<svg width="18" height="18" viewBox="0 0 18 18" fill="none" xmlns="http://www.w3.org/2000/svg">
<g clip-path="url(#clip0_1_10031)">
<path d="M7.07141 6.57153C7.34755 6.57153 7.57141 6.79539 7.57141 7.07153V14.143C7.57141 14.4191 7.34755 14.643 7.07141 14.643C6.79527 14.643 6.57141 14.4191 6.57141 14.143V7.07153C6.57141 6.79539 6.79527 6.57153 7.07141 6.57153Z" fill="#20604F"/>
<path d="M11.4285 7.07153C11.4285 6.79539 11.2046 6.57153 10.9285 6.57153C10.6523 6.57153 10.4285 6.79539 10.4285 7.07153V14.143C10.4285 14.4191 10.6523 14.643 10.9285 14.643C11.2046 14.643 11.4285 14.4191 11.4285 14.143V7.07153Z" fill="#20604F"/>
<path fill-rule="evenodd" clip-rule="evenodd" d="M5.28564 4.00024V3.85735C5.28564 2.87226 5.67697 1.92752 6.37353 1.23096C7.0701 0.534392 8.01484 0.143066 8.99993 0.143066C9.98502 0.143066 10.9298 0.534392 11.6263 1.23096C12.3229 1.92752 12.7142 2.87226 12.7142 3.85735V4.00024H16.7142C16.9904 4.00024 17.2142 4.2241 17.2142 4.50024C17.2142 4.77639 16.9904 5.00024 16.7142 5.00024H15.2857V16.0717C15.2857 16.5453 15.0975 16.9995 14.7626 17.3344C14.4278 17.6693 13.9735 17.8574 13.4999 17.8574H4.49995C4.02635 17.8574 3.57214 17.6693 3.23726 17.3344C2.90237 16.9995 2.71423 16.5453 2.71423 16.0717V5.00024H1.28564C1.0095 5.00024 0.785645 4.77639 0.785645 4.50024C0.785645 4.2241 1.0095 4.00024 1.28564 4.00024H5.28564ZM7.08064 1.93806C7.58967 1.42903 8.28006 1.14307 8.99993 1.14307C9.7198 1.14307 10.4102 1.42903 10.9192 1.93806C11.4282 2.44709 11.7142 3.13748 11.7142 3.85735V4.00024H6.28564V3.85735C6.28564 3.13748 6.57161 2.44709 7.08064 1.93806ZM3.71423 5.00024H14.2857V16.0717C14.2857 16.2801 14.2029 16.4799 14.0555 16.6273C13.9082 16.7746 13.7083 16.8574 13.4999 16.8574H4.49995C4.29156 16.8574 4.09171 16.7746 3.94436 16.6273C3.79701 16.4799 3.71423 16.2801 3.71423 16.0717V5.00024Z" fill="#20604F"/>
</g>
<defs>
<clipPath id="clip0_1_10031">
<rect width="18" height="18" fill="white"/>
</clipPath>
</defs>
</svg>
