<svg width="18" height="18" viewBox="0 0 18 18" fill="none" xmlns="http://www.w3.org/2000/svg">
<path fill-rule="evenodd" clip-rule="evenodd" d="M9.37126 8.51923C9.16053 8.11731 8.93939 7.59177 8.82975 7.00138C8.66621 6.1208 8.74971 5.08004 9.49465 4.11397C10.1749 3.2291 11.2939 2.56033 12.3755 2.07184C13.4615 1.58134 14.5646 1.24877 15.2805 1.05843C15.4363 1.00699 15.6018 0.989329 15.7649 1.00618C15.9339 1.02364 16.0979 1.07788 16.2434 1.16647C16.389 1.25511 16.5132 1.37645 16.603 1.52296C16.6913 1.66709 16.7432 1.83059 16.7522 2.00027C16.8089 2.68758 16.8509 3.75544 16.7173 4.86315C16.5846 5.96416 16.2724 7.15785 15.5793 8.04749C14.8592 9.00783 13.8379 9.42694 12.9044 9.58958C11.9748 9.75152 11.0975 9.66638 10.5982 9.58751C10.41 9.5611 10.2285 9.49728 10.0663 9.39884C9.99238 9.35397 9.92307 9.30226 9.85948 9.2444C9.01014 10.2745 8.43254 11.5132 8.43254 12.9356C8.43254 13.1681 8.24402 13.3566 8.01148 13.3566C7.77894 13.3566 7.59043 13.1681 7.59043 12.9356C7.59043 11.178 8.33965 9.69936 9.37126 8.51923ZM15.5401 1.85957C15.5832 1.84458 15.6309 1.83892 15.6784 1.84383C15.7259 1.84873 15.7694 1.8638 15.8056 1.88578C15.8415 1.90769 15.8679 1.93499 15.885 1.96298C15.902 1.99072 15.9102 2.01926 15.9114 2.04641C15.9116 2.05186 15.912 2.0573 15.9124 2.06274C15.9668 2.71879 16.0059 3.72826 15.8813 4.76235C15.7555 5.80556 15.4689 6.82059 14.9129 7.53265L14.9076 7.53951C14.3572 8.27513 13.5624 8.62016 12.7598 8.75997C11.9546 8.90024 11.1771 8.82667 10.726 8.75516L10.7172 8.75376C10.6389 8.74304 10.5659 8.71701 10.5032 8.67895C10.4756 8.66218 10.4504 8.6434 10.4279 8.62307C10.9675 8.08841 11.574 7.62275 12.1914 7.23066C12.3877 7.106 12.4458 6.84581 12.3212 6.64951C12.1965 6.45321 11.9363 6.39513 11.74 6.51979C11.1478 6.89588 10.5464 7.34805 9.99204 7.87392C9.85429 7.57412 9.72757 7.22382 9.6577 6.84762C9.52652 6.14127 9.59691 5.36025 10.1617 4.62797C10.7128 3.9109 11.6768 3.31141 12.7221 2.8393C13.7562 2.37228 14.8172 2.05248 15.5099 1.86879C15.5201 1.8661 15.5301 1.86302 15.5401 1.85957Z" fill="#828282"/>
<path d="M2.73913 3.06126C2.49036 3.06126 2.25815 3.15246 2.09211 3.30514C1.92726 3.45674 1.84211 3.65441 1.84211 3.85227V15.3669C1.84211 15.5647 1.92726 15.7624 2.09211 15.914C2.25815 16.0667 2.49036 16.1579 2.73913 16.1579H15.2609C15.5096 16.1579 15.7418 16.0667 15.9079 15.914C16.0727 15.7624 16.1579 15.5647 16.1579 15.3669V11.7307C16.1579 11.4982 16.3464 11.3096 16.5789 11.3096C16.8115 11.3096 17 11.4982 17 11.7307V15.3669C17 15.8119 16.8074 16.2309 16.4779 16.5339C16.1496 16.8358 15.7113 17 15.2609 17H2.73913C2.28875 17 1.85044 16.8358 1.5221 16.5339C1.19258 16.2309 1 15.8119 1 15.3669V3.85227C1 3.40721 1.19258 2.9883 1.5221 2.68528C1.85044 2.38335 2.28875 2.21915 2.73913 2.21915H6.69336C6.9259 2.21915 7.11442 2.40767 7.11442 2.6402C7.11442 2.87274 6.9259 3.06126 6.69336 3.06126H2.73913Z" fill="#828282"/>
</svg>
