<svg width="18" height="18" viewBox="0 0 18 18" fill="none" xmlns="http://www.w3.org/2000/svg">
<path fill-rule="evenodd" clip-rule="evenodd" d="M16.8428 13.0757C16.5499 13.3686 16.0751 13.3686 15.7822 13.0757L9 6.29357L2.21783 13.0757C1.92494 13.3686 1.45006 13.3686 1.15717 13.0757C0.864277 12.7828 0.864277 12.308 1.15717 12.0151L8.06931 5.10295C8.18798 4.97929 8.33014 4.8805 8.48751 4.81237C8.64929 4.74234 8.82371 4.7062 9 4.7062C9.1763 4.7062 9.35072 4.74234 9.51249 4.81237C9.66985 4.8805 9.81201 4.97929 9.93069 5.10294L16.8428 12.0151C17.1357 12.308 17.1357 12.7828 16.8428 13.0757Z" fill="#AAAAAA"/>
</svg>
