<svg width="18" height="18" viewBox="0 0 18 18" fill="none" xmlns="http://www.w3.org/2000/svg">
<path fill-rule="evenodd" clip-rule="evenodd" d="M1.15717 4.92572C1.45006 4.63283 1.92494 4.63283 2.21783 4.92572L9 11.7079L15.7822 4.92572C16.0751 4.63283 16.5499 4.63283 16.8428 4.92572C17.1357 5.21862 17.1357 5.69349 16.8428 5.98638L9.9307 12.8985C9.81202 13.0222 9.66986 13.121 9.51249 13.1891C9.35071 13.2591 9.1763 13.2953 9 13.2953C8.8237 13.2953 8.64929 13.2591 8.48751 13.1891C8.33015 13.121 8.18799 13.0222 8.06931 12.8985L1.15717 5.98638C0.864277 5.69349 0.864277 5.21862 1.15717 4.92572Z" fill="#AAAAAA"/>
</svg>
