<svg width="453" height="469" viewBox="0 0 453 469" fill="none" xmlns="http://www.w3.org/2000/svg">
<g clip-path="url(#clip0_1986_5642)">
<path opacity="0.58" d="M333.65 31.8501H118.46L10.8601 218.21L118.46 404.58H333.65L441.25 218.21L333.65 31.8501Z" fill="#E9D7B1"/>
<path d="M333.65 31.8501L441.25 218.21L333.65 404.57H118.46L10.86 218.21L118.46 31.8501H333.65ZM334.23 30.8501H333.65H118.46H117.88L117.59 31.3501L9.99996 217.71L9.70996 218.21L9.99996 218.71L117.6 405.07L117.89 405.57H118.47H333.66H334.24L334.53 405.07L442.13 218.71L442.42 218.21L442.13 217.71L334.52 31.3501L334.23 30.8501Z" fill="white"/>
<path d="M347.89 332.14C366.71 335.53 364.45 313.69 371.61 308.8C378.77 303.91 386.67 311.06 394.95 304.66C403.23 298.26 405.11 291.86 417.16 294.5C429.21 297.14 439 283.21 439.56 275.3C440.12 267.39 450.85 253.28 446.9 244.24C442.95 235.2 428.83 232.38 420.36 245.93C411.89 259.48 411.32 264.57 390.71 265.69C370.1 266.82 360.22 276.98 357.11 288.84C354 300.7 339.32 301.26 337.35 312.56C335.37 323.86 347.89 332.14 347.89 332.14Z" fill="#76815B"/>
<path d="M433.34 255.81C425.15 273.88 412.26 279.25 392.45 280.37C372.64 281.5 364.45 290.53 359.08 307.48C353.72 324.42 339.32 328.66 339.32 328.66" stroke="#21261F" stroke-width="0.5" stroke-miterlimit="10" stroke-linecap="round" stroke-linejoin="round"/>
<path d="M374.05 249.03C387.89 254.39 398.33 248.75 401.16 239.43C403.98 230.11 416.69 226.72 426.01 223.05C435.33 219.38 437.3 208.93 441.25 197.92C445.21 186.91 461.3 164.04 446.62 154.72C431.94 145.4 419.15 155.04 416.51 175.35C413.87 195.66 408.22 199.33 396.65 203.85C385.07 208.37 383.38 219.38 381.69 230.39C379.98 241.41 374.05 249.03 374.05 249.03Z" fill="#76815B"/>
<path d="M431.37 142.3C432.24 149.24 450.57 137.5 446.62 131.29C442.66 125.08 430.52 135.53 431.37 142.3Z" fill="#76815B"/>
<path d="M434.83 168.38C434.48 188.33 428.45 203.02 411.14 212.43C393.82 221.84 385.17 227.75 379.61 238.4C374.05 249.04 359.35 245.56 359.35 245.56" stroke="#21261F" stroke-width="0.5" stroke-miterlimit="10" stroke-linecap="round" stroke-linejoin="round"/>
<path d="M369.82 191.15C390.15 191.15 400.93 179.1 402.57 166.59C404.22 154.08 413.58 147.67 419.23 142.31C424.88 136.95 418.38 126.5 425.16 118.31C431.94 110.12 440.69 92.9 429.4 77.65C418.11 62.4 399.75 65.23 396.65 88.38C393.54 111.53 393.26 113.79 382.53 123.67C371.8 133.55 374.06 140.33 372.08 154.73C370.1 169.13 358.81 167.44 359.37 180.42C359.93 193.41 369.82 191.15 369.82 191.15Z" fill="#76815B"/>
<path d="M416.03 79.8999C418.67 98.7199 405.87 105.88 404.36 121.31C402.85 136.75 397.58 138.63 389.68 149.55C381.77 160.47 380.27 176.28 374.06 185.69C367.85 195.1 363.71 205.27 363.71 205.27" stroke="#21261F" stroke-width="0.5" stroke-miterlimit="10" stroke-linecap="round" stroke-linejoin="round"/>
<path d="M337.13 146.92C348.64 136 354.28 119.44 341.86 104C329.44 88.56 342.28 75.56 347.53 55.9C352.78 36.24 346.38 17.04 327.18 21.55C307.98 26.07 294.43 49.79 300.83 70.11C307.23 90.43 299.32 95.33 302.34 111.9C305.35 128.46 314.01 131.42 320.79 136.91C327.56 142.4 337.13 146.92 337.13 146.92Z" fill="#76815B"/>
<path d="M329.82 29.0801C319.28 59.2001 314.38 69.7401 321.54 92.7001C328.7 115.66 337.3 129.22 337.14 146.91C336.98 164.6 337.14 172.89 337.14 172.89" stroke="#21261F" stroke-width="0.5" stroke-miterlimit="10" stroke-linecap="round" stroke-linejoin="round"/>
<path d="M242.85 92.3299C223.19 100.68 225.53 123.58 242.85 134.87C260.17 146.16 252.64 160.47 261.67 177.41C270.71 194.35 285.39 192.09 294.42 205.27C303.46 218.45 298.56 232.38 310.61 244.05C322.66 255.72 343.69 231.17 337.13 218.22C330.57 205.27 321.53 204.14 318.89 185.7C316.25 167.25 296.68 159.72 290.65 142.59C284.64 125.46 270.33 80.6599 242.85 92.3299Z" fill="#76815B"/>
<path d="M250.76 108.89C264.31 121.69 269.58 140.14 277.49 161.6C285.4 183.06 307.23 185.49 316.27 207.24C325.31 228.99 320.41 239.91 329.82 248.94" stroke="#21261F" stroke-width="0.5" stroke-miterlimit="10" stroke-linecap="round" stroke-linejoin="round"/>
<path d="M263.93 77.27C258.48 81.17 275.98 100.99 279.74 96.09C283.51 91.2 271.84 71.62 263.93 77.27Z" fill="#76815B"/>
<path d="M393.81 68.16C384.1 64.27 374.23 94.52 382.89 90.41C391.56 86.3 400.21 70.72 393.81 68.16Z" fill="#76815B"/>
<path d="M91.95 358.56C90.82 334.84 126.4 294.75 120.75 289.1C115.1 283.45 95.34 308.3 95.34 308.3C95.34 308.3 124.79 262.56 121.36 257.48C117.93 252.4 98.16 278.37 98.16 278.37C98.16 278.37 125.91 240.53 121.63 230.93C117.36 221.33 95.9 248.44 95.9 248.44C95.9 248.44 123.46 207.82 117.92 200.44C113.97 195.17 95.9 216.25 95.9 216.25C95.9 216.25 126.39 173.9 125.26 164.86C124.13 155.82 103.8 175.59 103.8 175.59C103.8 175.59 130.34 129.88 130.34 125.33C130.35 115.73 106.62 145.66 106.62 145.66C106.62 145.66 133.16 98.7899 128.08 92.0099C123 85.2299 104.93 119.12 104.93 119.12C104.93 119.12 129.5 59.1099 125.26 53.8199C121.02 48.5299 109.73 69.9899 109.73 69.9899C109.73 69.9899 119.31 19.7299 111.13 22.2699C102.95 24.8099 100.97 85.2299 100.97 85.2299C100.97 85.2299 96.17 55.8699 88.55 63.4899C80.93 71.1099 94.2 155.25 94.2 155.25C94.2 155.25 82.62 110.64 75.28 116.85C67.94 123.06 88.74 200.05 88.74 200.05C88.74 200.05 72.18 148.1 64.65 153.37C57.12 158.64 77.07 221.51 77.07 221.51C77.07 221.51 59.38 188 54.11 193.65C48.84 199.3 71.8 252.76 71.8 252.76C71.8 252.76 54.48 232.81 51.47 238.45C48.46 244.1 71.42 285.13 71.42 285.13C71.42 285.13 46.24 255.62 46.95 271.58C47.46 282.8 86.13 347.98 91.95 358.56Z" fill="#4A8171"/>
<path d="M108.38 70.98C95.21 169.11 82.85 292.8 92.01 349.51" stroke="#21261F" stroke-width="0.5" stroke-miterlimit="10" stroke-linecap="round" stroke-linejoin="round"/>
<path d="M113.58 349.82C113.58 349.82 150.13 312.1 147.95 300.36C145.77 288.62 123.87 315.09 123.87 315.09C123.87 315.09 153.11 264.2 145.17 254.95C137.23 245.71 111.4 305.62 111.4 305.62C111.4 305.62 110.64 285.5 106.9 290.14C103.15 294.78 94.0802 347.66 94.0802 347.66C94.0802 347.66 90.7702 325.52 87.4402 324.84C85.6302 324.47 85.1002 333.46 86.1302 347.98L105.37 381.82C116.18 371.22 130.26 356.29 133.59 347.44C139.18 332.61 113.58 349.82 113.58 349.82Z" fill="#4A8171"/>
<path d="M136.25 271.99C116.04 316.36 106.85 340.04 98.5503 369.84" stroke="#21261F" stroke-width="0.5" stroke-miterlimit="10" stroke-linecap="round" stroke-linejoin="round"/>
<path d="M74.81 328.98C75.88 299.01 77.96 255.03 74.81 252.14C71.66 249.25 62.33 273.6 62.33 273.6C62.33 273.6 71.55 212.8 67.41 207.15C63.27 201.5 55.36 228.23 55.36 228.23C55.36 228.23 61.72 174.24 56.87 172.14C52.02 170.03 46.71 206.4 46.71 206.4C46.71 206.4 48.59 144.28 44.45 139.01C40.31 133.74 35.79 164.61 35.79 164.61C35.79 164.61 33.15 108.52 29.39 106.26C25.63 104 24.12 129.6 24.12 129.6C24.12 129.6 16.05 83.2899 10.86 85.1799C5.67001 87.0599 15.84 125.46 15.84 125.46C15.84 125.46 4.55001 101.36 6.80001 116.8C9.06001 132.24 22.24 158.21 22.24 158.21C22.24 158.21 8.15001 142.02 10.86 154.45C13.58 166.87 35.04 197.37 35.04 197.37C35.04 197.37 15.46 172.9 15.84 186.08C16.22 199.26 35.79 222.6 35.79 222.6C35.79 222.6 24.87 213.1 22.99 218.23C21.11 223.35 41.49 253.1 41.49 253.1C36.14 246.4 30.98 243.26 26.04 244.53L51.7 291.56L74.81 328.98Z" fill="#4A8171"/>
<path d="M20.3601 134.49C45.9601 212.04 64.2901 310.74 64.2901 310.74" stroke="#21261F" stroke-width="0.5" stroke-miterlimit="10" stroke-linecap="round" stroke-linejoin="round"/>
<path d="M74.8102 328.98C71.9302 300.9 66.4302 279.44 64.2902 280.57C62.1502 281.7 64.2902 297.51 64.2902 297.51C64.2902 297.51 47.5502 263.13 44.0602 260.7C40.5702 258.27 44.0602 272.19 44.0602 272.19C44.0602 272.19 14.4502 236.33 10.8602 244.24C7.27024 252.15 37.4102 281.15 37.4102 281.15C37.4102 281.15 17.1602 267.39 18.0002 275.86C18.8502 284.33 51.3702 302.86 51.3702 302.86C51.3702 302.86 30.4302 296.19 37.2002 305.22C43.9802 314.26 74.8102 328.98 74.8102 328.98Z" fill="#4A8171"/>
<path d="M20.3604 254.12C48.7804 287.16 58.8803 301.37 74.8103 328.98" stroke="#21261F" stroke-width="0.5" stroke-miterlimit="10" stroke-linecap="round" stroke-linejoin="round"/>
<path d="M62.5201 54.6798C55.7401 54.2998 52.3401 76.6898 62.5201 74.2598C68.8301 72.7498 69.3001 55.0598 62.5201 54.6798Z" fill="#4A8171"/>
<path d="M1.16012 168.76C-3.86988 175.29 9.06012 186.26 10.5701 180.52C12.0701 174.77 4.92012 163.87 1.16012 168.76Z" fill="#4A8171"/>
<path d="M47.16 316.05C44.83 332.56 36.76 339.4 24.95 339.93C38.13 341.53 45.53 349.49 47.16 363.81C48.7899 349.49 56.2 341.53 69.37 339.93C57.56 339.4 49.5 332.56 47.16 316.05Z" fill="#EB997C"/>
<path d="M25.8199 374.64C24.2299 385.9 18.7299 390.57 10.6699 390.93C19.6599 392.02 24.6999 397.45 25.8199 407.22C26.9299 397.45 31.9799 392.03 40.9699 390.93C32.9199 390.57 27.4199 385.9 25.8199 374.64Z" fill="#EB997C"/>
<path d="M387.8 0C386.21 11.26 380.71 15.93 372.65 16.29C381.64 17.38 386.69 22.81 387.8 32.58C388.91 22.81 393.96 17.39 402.95 16.29C394.89 15.93 389.39 11.26 387.8 0Z" fill="#4A8171"/>
<path d="M187.83 18.78C186.24 30.04 180.74 34.71 172.68 35.07C181.67 36.16 186.72 41.59 187.83 51.36C188.94 41.59 193.99 36.17 202.98 35.07C194.92 34.71 189.42 30.04 187.83 18.78Z" fill="#4A8171"/>
<path d="M401.87 371.55C400.28 382.81 394.78 387.48 386.72 387.84C395.71 388.93 400.76 394.36 401.87 404.13C402.98 394.36 408.03 388.94 417.02 387.84C408.96 387.48 403.46 382.81 401.87 371.55Z" fill="#4A8171"/>
<path d="M189.96 247.11C189.96 247.11 219.32 328.94 240.22 325.55C261.11 322.16 290.29 284.55 290.29 284.55C290.29 284.55 325.47 238.19 313.07 225.03C294.43 205.27 242.48 267.95 242.48 267.95C242.48 267.95 209.11 218.51 196.99 222.62C184.87 226.73 189.96 247.11 189.96 247.11Z" fill="#707B97"/>
<path d="M189.96 247.11C189.96 247.11 219.32 328.94 240.22 325.55C261.11 322.16 290.29 284.55 290.29 284.55C290.29 284.55 325.47 238.19 313.07 225.03C294.43 205.27 242.48 267.95 242.48 267.95C242.48 267.95 209.11 218.51 196.99 222.62C184.87 226.73 189.96 247.11 189.96 247.11Z" fill="#707B97"/>
<path d="M190.58 187.18L136.31 404.58H147.6L196.99 206.88L190.58 187.18Z" fill="#D39F3F"/>
<path d="M151.18 383.15C151 383.27 150.62 383.49 149.97 383.81C146.92 385.32 143.82 386.33 140.75 386.8L136.31 404.58H147.6L153.15 382.35C152.51 382.6 151.83 382.86 151.18 383.15Z" fill="#21261F"/>
<path d="M271.68 404.58L172.73 100.99H162.57L261.25 404.58H271.68Z" fill="#D39F3F"/>
<path d="M251.85 343.72C250.34 347.5 247.81 350.94 244.69 353.63L261.25 404.57H271.68L251.85 343.72Z" fill="#21261F"/>
<path d="M122.89 108.89H172.54L172.73 100.99H114.44L122.89 108.89Z" fill="#D39F3F"/>
<path d="M114.44 336.08H238.99L245.45 324.09H114.44V336.08Z" fill="#D39F3F"/>
<path d="M193.91 140.82C166.05 178.66 166.65 265.62 166.65 265.62C166.65 265.62 150.51 221.28 122.89 214.28" stroke="#76815B" stroke-miterlimit="10" stroke-linecap="round" stroke-linejoin="round"/>
<path d="M122.89 214.27C142.71 249.34 54.6201 251.01 54.6201 251.01L122.89 214.27Z" fill="#7A9954"/>
<path d="M116.54 217.69L103.01 243.89" stroke="#7A9954" stroke-width="0.5" stroke-miterlimit="10" stroke-linecap="round" stroke-linejoin="round"/>
<path d="M93.4402 230.12L77.9202 249.13" stroke="#7A9954" stroke-width="0.5" stroke-miterlimit="10" stroke-linecap="round" stroke-linejoin="round"/>
<path d="M172.54 261.3H122.89L135.18 324.09H172.54H209.9L222.19 261.3H172.54Z" fill="#EDE7E2"/>
<path d="M198.69 468.21L124.61 100.99H114.44L188.26 468.21H198.69Z" fill="#D39F3F"/>
<path d="M159.58 274.38L132.58 140.53C130.94 141 129.24 141.27 127.51 141.27C125.76 141.27 124.07 141.1 122.44 140.79L145.67 256.37C150.21 262.45 154.86 268.44 159.58 274.38Z" fill="#21261F"/>
<path d="M137.93 217.82L63.3101 468.21H74.6101L142.71 242.32L137.93 217.82Z" fill="#D39F3F"/>
<path d="M193.91 140.82C190.59 185.41 271.68 166.61 271.68 166.61L193.91 140.82Z" fill="#7A9954"/>
<path d="M203.4 143.96L232.75 170.48" stroke="#7A9954" stroke-width="0.5" stroke-miterlimit="10" stroke-linecap="round" stroke-linejoin="round"/>
<path d="M252.3 169.68L232.75 153.7" stroke="#7A9954" stroke-width="0.5" stroke-miterlimit="10" stroke-linecap="round" stroke-linejoin="round"/>
<path d="M148.36 142.89C166.05 177.53 168.61 228.38 168.61 228.38" stroke="#21261F" stroke-miterlimit="10" stroke-linecap="round" stroke-linejoin="round"/>
<path d="M148.36 142.89C178.48 136.87 175.47 162.1 148.36 185.81C121.25 209.52 99.0402 214.27 99.0402 214.27C99.0402 214.27 92.2602 183.54 108.08 145.14C123.89 106.75 148.36 142.89 148.36 142.89Z" fill="#7A9954"/>
<path d="M99.0403 214.27C114.48 182.04 148.36 142.89 148.36 142.89" stroke="#7A9954" stroke-width="0.5" stroke-miterlimit="10" stroke-linecap="round" stroke-linejoin="round"/>
<path d="M148.36 185.81L145.45 146.33L105.46 151.98" stroke="#7A9954" stroke-width="0.5" stroke-miterlimit="10" stroke-linecap="round" stroke-linejoin="round"/>
<path d="M100.49 169.68L133.15 161.69L130.62 199.34" stroke="#7A9954" stroke-width="0.5" stroke-miterlimit="10" stroke-linecap="round" stroke-linejoin="round"/>
<path d="M97.7402 191.07L120.68 178.58L116.82 207.34" stroke="#7A9954" stroke-width="0.5" stroke-miterlimit="10" stroke-linecap="round" stroke-linejoin="round"/>
<path d="M166.02 197.31C130.58 186.33 125.97 218.28 147.45 247.55C168.93 276.82 187.74 286 187.74 286C187.74 286 201.71 262.38 204.8 224.07C208.56 177.35 182.96 177.35 166.02 197.31Z" fill="#7A9954"/>
<path d="M187.73 286C182.88 258.7 166.01 197.31 166.01 197.31" stroke="#7A9954" stroke-width="0.5" stroke-miterlimit="10" stroke-linecap="round" stroke-linejoin="round"/>
<path d="M137.87 230.4L167.44 202.56L205.03 210.56" stroke="#7A9954" stroke-width="0.5" stroke-miterlimit="10" stroke-linecap="round" stroke-linejoin="round"/>
<path d="M151.09 252.35L171.43 217.49L203.45 235.86" stroke="#7A9954" stroke-width="0.5" stroke-miterlimit="10" stroke-linecap="round" stroke-linejoin="round"/>
<path d="M165.71 268.84L176.87 238.55L197.49 262.28" stroke="#7A9954" stroke-width="0.5" stroke-miterlimit="10" stroke-linecap="round" stroke-linejoin="round"/>
<path d="M377.63 214.3C376.12 193.97 389.66 181.17 390.04 157.83C390.42 134.49 371.14 121.94 352.31 136.91C327.97 156.26 345.25 178.91 345.25 178.91C345.25 178.91 341.81 207.92 359.35 214.3C370.1 218.21 377.63 214.3 377.63 214.3Z" fill="#21261F"/>
<path d="M356.92 135.06C372.17 121.88 384.95 129.79 390.04 142.59C395.13 155.39 390.43 166.5 385.91 175.91" stroke="#21261F" stroke-miterlimit="10" stroke-linecap="round" stroke-linejoin="round"/>
<path d="M311.06 223.31C330.54 213.99 360 205.03 372.36 210.78C384.72 216.53 390.05 226.76 378.76 263.08C367.47 299.4 379.51 332.15 379.51 369.04C379.51 405.93 359.35 423.25 359.35 423.25C359.35 423.25 278.45 408.01 270.44 400.76C262.43 393.51 262.81 363.02 262.81 363.02C262.81 363.02 262.06 348.9 269.21 328.67C276.36 308.43 285.4 276.81 286.15 275.31C286.9 273.79 311.06 223.31 311.06 223.31Z" fill="#707B97"/>
<path d="M363.58 209C349.1 208.47 326.82 215.77 311.06 223.31C311.06 223.31 286.9 273.79 286.14 275.3C285.55 276.49 279.8 296.4 273.89 314.69C295.71 369.05 351.12 330.04 363.02 285.97C371.87 253.2 367.06 223.37 363.58 209Z" fill="#707B97"/>
<path d="M315.14 221.42C306.66 241.41 311.74 250.38 322.33 246.09C331.81 242.25 342.41 228.4 349.28 210.34" stroke="#707B97" stroke-width="0.5" stroke-miterlimit="10" stroke-linecap="round" stroke-linejoin="round"/>
<path d="M264.2 347.49C266.84 376.02 280.9 398.4 318.16 370.16C355.42 341.92 368.06 305.78 368.06 305.78C368.06 305.78 372.53 281.46 373.2 269.71" stroke="#707B97" stroke-width="0.5" stroke-miterlimit="10" stroke-linecap="round" stroke-linejoin="round" stroke-dasharray="3 3"/>
<path d="M368.06 305.79C370.86 328 382.58 375.6 368.06 404.13" stroke="#707B97" stroke-width="0.5" stroke-miterlimit="10" stroke-linecap="round" stroke-linejoin="round" stroke-dasharray="3 3"/>
<path d="M262.78 357.36C263.73 380.18 275.33 395.95 300.83 386.72C339.32 372.79 366.29 318.23 366.29 318.23L369.35 468.21H305.35L302.34 430.77L285.78 468.21H217.14L262.78 357.36Z" fill="#D67055"/>
<path opacity="0.78" d="M275.94 386.51L269.37 468.22H285.76L302.32 430.78L299.48 387.18C289.5 390.51 281.72 389.91 275.94 386.51Z" fill="#D67055"/>
<path d="M341.11 361.13C343.75 382.21 357.3 388.55 364.83 386.51" stroke="#D67055" stroke-width="0.5" stroke-miterlimit="10" stroke-linecap="round" stroke-linejoin="round"/>
<path d="M350.521 468.21L352.971 383.88" stroke="#D67055" stroke-width="0.5" stroke-miterlimit="10" stroke-linecap="round" stroke-linejoin="round"/>
<path opacity="0.62" d="M253.77 207.24L256.03 187.58C240.73 181.87 226.44 181.83 213.11 187.18L214.41 192.57C218.34 191.88 222.49 192.12 227.23 194.74C228.15 206.67 223.02 214.3 214.41 219.46L218.08 222.5C224.11 221.06 229.67 217.42 234.58 210.64C234.58 210.64 235.71 215.52 235.71 232.56C235.71 249.6 228.98 289.41 228.98 289.41C242.54 298.16 263.72 292.85 276.93 279.25L253.77 207.24Z" fill="white"/>
<path opacity="0.49" d="M276.92 279.25L267.27 249.25L233.6 257.75C231.63 273.67 228.97 289.41 228.97 289.41C242.53 298.16 263.71 292.85 276.92 279.25Z" fill="#707B97"/>
<path d="M252.95 288C247 275.86 246.15 266.54 247.28 244.24C248.41 221.93 240.79 207.24 240.79 207.24" stroke="#21261F" stroke-width="0.5" stroke-miterlimit="10" stroke-linecap="round" stroke-linejoin="round"/>
<path d="M280.31 223.53C266 202.64 252.95 194.14 231.37 194.17C221 194.18 220.64 196.62 221.21 198.31C221.77 200 223.66 201.89 223.66 201.89C223.66 201.89 221.42 204.84 222.91 207.24C224.4 209.64 230.63 210.78 230.63 210.78C227.88 213.04 228.36 217.35 231.34 218.22C230.06 222.17 232 225.78 235.67 226.92L235.6 223.72C235.6 223.72 253.6 233.25 257.93 238.46C262.24 243.67 280.31 223.53 280.31 223.53Z" fill="#EB997C"/>
<path d="M252.7 234.04C254.95 235.64 256.84 237.18 257.91 238.46C262.24 243.67 280.31 223.53 280.31 223.53C279.24 221.96 278.17 220.47 277.1 219.04C270.26 225.69 261.59 230.58 252.7 234.04Z" fill="#21261F"/>
<path d="M223.65 201.88C230.19 200.33 235.13 201.88 235.13 201.88" stroke="#D67055" stroke-width="0.5" stroke-miterlimit="10" stroke-linecap="round" stroke-linejoin="round"/>
<path d="M230.62 210.77C232.67 210.42 234.57 210.63 234.57 210.63" stroke="#D67055" stroke-width="0.5" stroke-miterlimit="10" stroke-linecap="round" stroke-linejoin="round"/>
<path d="M280.31 214.1C269.58 219.87 257.91 238.46 257.91 238.46L262.78 246.1C262.78 246.1 274.63 333.81 309.45 330.09C344.27 326.36 369.73 279.55 382.17 250.9C394.61 222.26 379.48 207.88 364.68 209.06C349.88 210.24 322.88 269.29 315.72 273.42C308.55 277.55 284.84 225.88 284.84 225.88L280.31 214.1Z" fill="#707B97"/>
<path d="M337.13 187.18C345.23 190.31 350.89 174.32 351.18 168.76C351.18 168.76 362.37 150.49 349.29 133.83C336.21 117.17 315.71 125.36 315.71 125.36C315.71 125.36 294.14 121.41 286.8 137.22C279.46 153.03 283.98 168.56 296.4 171.1C308.83 173.65 337.13 187.18 337.13 187.18Z" fill="#21261F"/>
<path d="M319.45 125.83C301.2 115.85 279.88 128.67 283.67 151.15" stroke="#21261F" stroke-miterlimit="10" stroke-linecap="round" stroke-linejoin="round"/>
<path d="M318.16 204.33C321.9 213.84 318.16 220.12 315.71 226.17C315.71 226.17 309.88 242.69 317.41 244.07C323.8 245.24 337.53 233.23 347.13 210.78C342.98 201.99 338.92 188.52 334.89 173.24L318.16 204.33Z" fill="#EB997C"/>
<path d="M331.82 185.24L322.91 195.5L318.16 204.32C318.87 206.12 319.31 207.8 319.54 209.39C331.8 204.12 331.82 185.24 331.82 185.24Z" fill="#21261F"/>
<path d="M307.48 206.25C324.15 209.78 332.49 190.84 333.96 180.13C335.44 169.42 328.59 168.76 328.59 168.76C328.59 168.76 317.24 173.7 308.31 167.29C300.63 161.78 295.7 160.09 295.7 160.09C295.7 160.09 291.09 162.77 291.13 175.51C291.17 191.4 300.01 204.67 307.48 206.25Z" fill="#EB997C"/>
<path d="M334.9 173.23L330.79 180.87C332.72 180.38 334.8 179.32 336.3 178.47C335.83 176.75 335.36 175 334.9 173.23Z" fill="#21261F"/>
<path d="M304 193.63C309.02 194.11 309.88 189.45 309.88 189.45" stroke="#D67055" stroke-width="0.5" stroke-miterlimit="10" stroke-linecap="round" stroke-linejoin="round"/>
<path d="M300.71 173.23C301.27 178.94 301.35 183.95 299.86 185.79C298.38 187.63 300.42 188.14 301.91 188.73" stroke="#D67055" stroke-width="0.5" stroke-miterlimit="10" stroke-linecap="round" stroke-linejoin="round"/>
<path d="M307.11 177.84C307.11 177.42 307.47 177.08 307.96 176.96C307.66 176.08 307.18 175.54 306.56 175.93C304.77 177.03 305.61 182.65 307.31 181.99C308.08 181.69 308.36 180.21 308.28 178.78C307.64 178.76 307.11 178.35 307.11 177.84Z" fill="#21261F"/>
<path d="M296.6 175.8C296.6 175.39 296.95 175.05 297.43 174.92C297.13 174.08 296.66 173.58 296.05 173.95C294.26 175.05 295.1 180.67 296.8 180.01C297.58 179.71 297.86 178.19 297.77 176.73C297.12 176.72 296.6 176.31 296.6 175.8Z" fill="#21261F"/>
<path d="M295.7 160.09C314.34 178.91 323.79 170.02 323.79 170.02" stroke="#21261F" stroke-miterlimit="10" stroke-linecap="round" stroke-linejoin="round"/>
<path d="M324.67 179.08C327.7 186.63 342.72 171.28 339.35 165.67C335.99 160.05 319.9 167.2 324.67 179.08Z" fill="#EB997C"/>
<path d="M328.06 175.8C331.97 170.06 337.13 167.36 337.13 167.36" stroke="#D67055" stroke-width="0.5" stroke-miterlimit="10" stroke-linecap="round" stroke-linejoin="round"/>
</g>
<defs>
<clipPath id="clip0_1986_5642">
<rect width="452.68" height="468.46" fill="white"/>
</clipPath>
</defs>
</svg>
