<svg width="500" height="501" viewBox="0 0 500 501" fill="none" xmlns="http://www.w3.org/2000/svg">
<g clip-path="url(#clip0_1988_6286)">
<path d="M500 0.5H0V500.51H500V0.5Z" fill="#BAECFF"/>
<path opacity="0.3" d="M500 286.61V375.98C463.27 419.48 424.33 460.88 383.46 500.5H275.3C317.91 464 359.31 426.09 398.79 386.24C432.09 352.64 464.27 317.43 500 286.61Z" fill="white"/>
<path opacity="0.3" d="M500 0.5V82.16C482.19 102.88 463.84 123.23 447.83 144.7C431.09 167.18 416.73 191.34 400.22 213.99C382.94 237.69 363.37 259.63 343.84 281.52C277.17 356.25 210.26 431.22 138.09 500.51H0V483.62C13.28 469.49 26.53 455.35 39.76 441.18C42.19 438.6 44.61 436.01 47.02 433.42C48.81 431.51 50.6 429.6 52.38 427.68C55.46 424.39 58.53 421.1 61.6 417.8C61.63 417.77 61.66 417.73 61.69 417.7C69.18 409.67 76.66 401.63 84.14 393.59C87.89 389.56 91.63 385.52 95.37 381.48C96.94 379.8 98.5 378.12 100.05 376.44C143.51 329.6 186.75 282.58 229.8 235.37C244.44 219.31 259.09 203.2 271.93 185.68C280.08 174.55 287.48 162.89 295.35 151.55C325.21 108.55 361.66 70.6 397.94 32.85C408.3 22.07 418.67 11.28 429.03 0.5H500Z" fill="white"/>
<path opacity="0.3" d="M342.51 0.5C321.73 25.38 300.5 49.89 278.84 74.02C262.47 92.25 245.82 110.3 227.63 126.73C209.28 143.3 189.45 158.15 170.59 174.13C141.44 198.83 114.68 226.18 87.96 253.48C58.64 283.45 29.32 313.4 0 343.38V66.96C22.71 44.44 45.62 22.17 68.99 0.5H342.51Z" fill="white"/>
<path opacity="0.5" d="M377.32 0.5H373.87V500.5H377.32V0.5Z" fill="white"/>
<path opacity="0.5" d="M285.74 0.5H282.29V500.5H285.74V0.5Z" fill="white"/>
<path opacity="0.5" d="M114.32 0.5H110.87V500.5H114.32V0.5Z" fill="white"/>
<path opacity="0.5" d="M500.003 142.993V139.543L0.00341797 139.543V142.993L500.003 142.993Z" fill="white"/>
<path opacity="0.5" d="M499.996 354.396V350.946L-0.00439453 350.946V354.396L499.996 354.396Z" fill="white"/>
<path d="M251.75 500.51C251.75 500.51 241 489.1 243.89 478.02C246.78 466.94 258.43 478.02 258.43 478.02C258.43 478.02 253.3 463.84 258.43 459.46C263.56 455.08 271.38 466.08 271.38 466.08C271.38 466.08 262.95 420.52 277.01 414.85C291.07 409.18 303.87 448.97 303.87 448.97C303.87 448.97 306.37 416.24 316.13 414.29C325.88 412.34 320.28 460.97 320.28 460.97C320.28 460.97 329.65 449.52 344.38 443.98C359.11 438.44 348 470.21 348 470.21C348 470.21 355.12 464.55 360.67 465.34C366.23 466.13 360.67 479.58 360.67 479.58C360.67 479.58 387.51 446.87 398.27 454.16C409.03 461.46 387.56 491.44 387.56 491.44C387.56 491.44 406.02 489.2 401.29 500.47L251.75 500.51Z" fill="#80C7A7"/>
<path d="M318.63 475.49C316.35 474.13 313.49 476.15 311.7 478.3C311.81 475.32 311.79 472.21 311.2 469.39C310.86 467.77 309.89 465.6 307.92 465.75C305.55 465.93 304.34 469.56 303.57 471.36C302.74 473.31 302.16 475.33 301.79 477.39C301.07 474.78 299.81 472.15 297.58 473.22C296.1 473.93 295.42 476.03 294.91 477.46C294.03 479.92 293.71 482.49 293.89 485.09C293.93 485.71 294.86 485.73 294.87 485.09C294.91 481.91 295.4 478.4 297.06 475.62C297.49 474.9 298.4 474.1 299.3 474.83C299.67 475.13 300.04 476.63 300.23 477.2C300.72 478.66 301.07 480.14 301.36 481.65C301.5 482.41 302.61 482.18 302.64 481.48C302.77 479.01 303.17 476.6 303.93 474.25C304.34 472.97 304.84 471.73 305.43 470.53C305.84 469.69 306.44 468.09 307.22 467.54C310.12 465.49 310.19 472.59 310.24 473.74C310.34 476.15 310.28 478.56 310.13 480.97C310.09 481.66 311.2 482 311.49 481.34C312.08 479.99 312.92 478.79 314.14 477.93C314.82 477.45 315.61 477.06 316.41 476.85C317.86 476.47 318.06 477.28 318.23 478.8C318.58 481.82 317.69 485.17 316.74 488.02C316.47 488.84 317.7 489.34 318.12 488.6C318.24 488.38 318.37 488.16 318.49 487.94C318.6 487.74 318.59 487.54 318.51 487.37C319.14 485.25 319.55 483.09 319.67 480.88C319.74 479.38 320.18 476.42 318.63 475.49Z" fill="#8EDEBA"/>
<path d="M278.47 483.15C276.83 480.72 276.27 477.97 274.83 475.47C273.84 473.74 272.22 472.14 270.1 472.12C264.73 472.06 264.75 478.37 264.7 482.68C263.45 480.82 262.21 478.89 260.77 477.24C260.02 476.38 259.05 475.95 258.12 476.87C256.72 478.26 257.06 481.39 257.12 483.13C257.21 486.05 257.78 488.95 258.87 491.65C259.08 492.17 259.88 491.98 259.73 491.41C258.78 487.86 258.12 484.24 258.43 480.55C258.55 479.17 258.17 476.98 260.22 478.76C260.82 479.28 261.27 480.28 261.72 480.92C262.72 482.36 263.72 483.8 264.72 485.24C265.14 485.85 265.99 485.6 266.06 484.88C266.3 482.38 265.77 479.68 266.43 477.23C267.24 474.23 270.32 472.27 272.75 475.03C275.04 477.63 274.71 481.87 277.62 484C278.12 484.37 278.81 483.65 278.47 483.15Z" fill="#8EDEBA"/>
<path d="M349.34 469.67C349.13 468.36 348.57 467.2 347.28 466.67C344.92 465.71 343.16 467.11 341.94 468.94C341.99 466.68 342.06 464.39 341.75 462.22C341.6 461.12 341.06 460.02 339.77 460.09C337.78 460.2 336.49 463.11 335.74 464.56C334.45 467.07 333.63 469.74 333.19 472.53C333.09 473.17 334.06 473.45 334.17 472.8C334.46 471.17 334.85 469.57 335.43 468.01C336.05 466.34 337.02 463.7 338.36 462.45C338.74 461.65 339.44 461.44 340.46 461.82C340.53 462.29 340.55 462.76 340.53 463.23C340.55 464.15 340.51 465.08 340.5 466C340.48 468 340.48 470 340.44 472C340.42 472.89 341.59 472.92 341.88 472.2C342.33 471.09 342.8 469.85 343.65 468.98C345.33 467.25 347.7 468.25 347.88 470.58C348.08 473.09 347.95 475.66 347.88 478.18C347.85 479.16 349.37 479.16 349.4 478.18C349.49 475.42 349.78 472.41 349.34 469.67Z" fill="#8EDEBA"/>
<path d="M374.81 484.73C373.54 485.42 372.99 487 372.79 488.71C372.18 487.45 371.38 486.28 370.36 485.21C370.08 484.91 369.53 485.05 369.43 485.45C368.34 489.96 368.03 494.49 368.63 499.09C368.71 499.69 369.66 499.71 369.59 499.09C369.15 494.95 369.34 490.85 370.25 486.81C371.74 488.75 372.64 490.96 372.9 493.44C372.91 493.49 372.91 493.55 372.92 493.61C373.01 494.3 374.22 494.14 374.14 493.44C373.92 491.68 373.93 489.97 374.32 488.22C374.51 487.38 374.94 485.26 376.41 485.77C377.41 486.12 378.26 487.74 378.82 488.59C378.97 488.82 379.43 488.76 379.39 488.43C379.18 486.33 377.32 483.36 374.81 484.73Z" fill="#8EDEBA"/>
<path d="M298.33 446.13C294.54 446.19 292.81 449.54 291.96 452.86C290.86 448.88 288.72 443.39 284.67 445.33C279.98 447.57 280.07 455.65 281.17 459.8C281.31 460.33 282.09 460.1 281.99 459.58C281.25 455.8 281.11 450.48 283.89 447.4C288.38 442.44 290.8 453.31 291.4 456.06C291.53 456.67 292.57 456.71 292.67 456.06C293.17 452.85 294.17 447.64 298.33 447.51C303.65 447.34 305.1 453.84 305.82 457.83C305.97 458.68 307.27 458.32 307.11 457.47C306.27 452.75 304.34 446.02 298.33 446.13Z" fill="#8EDEBA"/>
<path d="M223.64 413.21C225.12 411.45 227.14 409.89 227.48 407.62C227.7 406.17 227.15 404.71 226.5 403.39C224.96 400.26 222.8 397.46 221.36 394.29C219.91 391.12 219.25 387.31 220.82 384.2C222.52 380.84 226.49 378.92 227.68 375.35C228.24 373.65 228.09 371.82 228.23 370.04C228.89 361.59 237.26 354.52 245.7 355.31C248.43 355.56 251.35 356.77 252.44 359.28C253.18 360.98 252.93 362.93 253.26 364.76C254.65 372.54 265.47 375.59 267.34 383.27C269.05 390.3 262.28 397.34 263.98 404.38C265.14 409.2 269.83 413.8 269.06 419.07C268.43 423.42 264.32 423.9 261.53 426.64C259.64 428.51 259.53 431.49 258.41 433.9C257.17 436.57 254.64 438.48 251.89 439.52C242.86 442.96 233.51 441.83 226.73 434.71C221.34 429.03 218.03 419.89 223.64 413.21Z" fill="#4AB3B0"/>
<path d="M259.55 420.7L258.23 419.02L245.65 428.78L244.61 396.21H241.52L240.26 479.57H247.28L245.86 435.22L259.55 420.7Z" fill="#844653"/>
<path d="M275.09 496.61C275.09 497.87 274.79 499.18 274.27 500.5H214.79C214.27 499.18 213.97 497.87 213.97 496.61C213.97 490.12 219.64 479.29 223.7 472.37C225.56 469.19 227.09 466.84 227.57 466.11L227.68 465.94L227.72 465.88H261.34L261.38 465.94L261.49 466.11C263.01 468.42 275.09 487.14 275.09 496.61Z" fill="white"/>
<path d="M265.36 472.38H223.7L227.72 465.88H261.34L265.36 472.38Z" fill="#C7D3CF"/>
<path d="M467.15 371.13C464.13 367.97 453.18 387.24 453.18 387.24C453.18 387.24 459.26 325.38 449.93 324.66C440.59 323.94 438.84 376.09 438.84 376.09C438.84 376.09 427.75 331.8 423.96 338.22C420.17 344.64 429.5 390.74 429.5 390.74C429.5 390.74 413.74 369.15 413.74 380.43C413.74 391.71 434.17 425.4 434.17 425.4H460.59C462.38 415.46 469.96 374.07 467.15 371.13Z" fill="#3F9896"/>
<path d="M442.68 405.39C442.39 403.85 442.07 401.49 440.06 401.3C438.28 401.13 437.59 402.77 437.43 404.87C437.15 403.92 436.88 402.97 436.6 402.02C435.84 399.42 435.25 396.67 434.05 394.23C433.3 392.71 431.8 390.36 429.86 390.33C428.3 390.3 427.98 391.56 427.94 392.86C427.79 398.51 429.38 404.73 431.06 410.07C432.9 415.94 435.51 421.48 438.82 426.66C439.1 427.1 439.79 426.7 439.52 426.25C434.8 418.16 431.5 409.28 430.02 400.01C429.82 398.78 429.66 397.55 429.53 396.31C429.46 395.69 428.91 393.35 429.26 392.85C431.29 389.87 433.67 396.83 433.99 397.89C435.51 402.83 436.86 407.82 438.3 412.79C438.55 413.65 439.85 413.29 439.64 412.42C439.19 410.61 438.92 408.79 438.92 406.93C438.92 406.46 438.73 405.14 439.03 404.72C440.35 403.61 441.05 403.53 441.13 404.48C441.22 404.91 441.3 405.33 441.38 405.76C442.04 409.2 442.64 412.64 443.36 416.06C443.53 416.84 444.67 416.5 444.54 415.73C443.97 412.28 443.33 408.84 442.68 405.39Z" fill="#4AB3B0"/>
<path d="M457 393.21C456.95 391.33 457.48 387.87 456.04 386.27C453.97 383.95 452.11 387.21 451.11 390.04C450.92 388.83 450.71 387.63 450.49 386.42C450.18 384.8 450.03 382.68 449.33 381.19C448.7 379.87 447.49 379.42 446.42 380.58C445.46 381.62 445.26 383.56 444.95 384.86C444.55 386.55 444.27 388.26 444.1 389.99C443.7 394.01 444.03 398.04 444.9 401.98C445.01 402.49 445.78 402.27 445.68 401.76C444.66 396.25 444.7 390.61 446.03 385.15C446.18 384.55 446.34 383.96 446.51 383.38C446.78 382.48 446.62 382.05 447.67 382.1C448.72 382.15 448.52 382.59 448.71 383.51C448.84 384.12 448.96 384.73 449.08 385.34C449.59 387.94 450 390.56 450.36 393.18C450.46 393.89 451.5 393.65 451.55 393.02C451.65 391.65 452.34 387.73 453.97 387.18C456.34 386.38 455.79 391.59 455.82 392.7C455.93 396.66 455.75 400.64 455.93 404.6C455.96 405.23 456.84 405.22 456.9 404.6C457.26 400.84 457.1 396.99 457 393.21Z" fill="#4AB3B0"/>
<path d="M442.33 383.37C441.49 380.14 440.31 377.05 438.88 374.04C438.7 373.65 438.16 373.66 437.89 373.91C436.1 375.52 436.27 378 436.25 380.23C436.22 383.76 436.34 387.33 436.94 390.82C437.02 391.3 437.79 391.18 437.78 390.71C437.72 388.01 437.53 385.32 437.5 382.62C437.47 380.61 437.03 377.46 438.18 375.56C439.37 378.21 440.31 380.93 441.05 383.74C441.26 384.55 442.54 384.2 442.33 383.37Z" fill="#4AB3B0"/>
<path d="M479.81 423.94H445.47H411.13C411.13 423.94 410.54 469.27 422.22 484.42H445.46H468.7C480.4 469.27 479.81 423.94 479.81 423.94Z" fill="white"/>
<path d="M411.24 431.27H479.72" stroke="#1C2649" stroke-miterlimit="10" stroke-linecap="round" stroke-linejoin="round"/>
<path d="M411.13 438.5L405.51 500.51" stroke="#1C2649" stroke-miterlimit="10" stroke-linecap="round" stroke-linejoin="round"/>
<path d="M454.05 438.5L459.68 500.51" stroke="#1C2649" stroke-miterlimit="10" stroke-linecap="round" stroke-linejoin="round"/>
<path d="M479.82 438.5L485.44 500.51" stroke="#1C2649" stroke-miterlimit="10" stroke-linecap="round" stroke-linejoin="round"/>
<path d="M483.98 484.42H406.97" stroke="#1C2649" stroke-miterlimit="10" stroke-linecap="round" stroke-linejoin="round"/>
<path d="M74.5701 185.63C75.2201 178.97 73.5201 172.06 69.8501 166.78C66.6601 162.19 61.9501 158.51 60.7201 152.86C60.4301 156.81 59.8401 161.5 59.5601 165.45C59.3901 167.81 59.2201 170.23 59.7501 172.52C60.7301 176.73 63.8901 179.81 67.0501 182.37C69.2301 184.13 71.4501 184.68 73.7601 185.99C74.9701 191.29 75.3701 196.72 75.1801 202.17C74.9701 208.24 73.8701 214.23 73.5801 220.29C73.5701 220.52 73.9201 220.56 73.9701 220.34C76.5801 209.36 77.5301 196.72 74.5701 185.63Z" fill="#1C2649"/>
<path d="M111.44 149.06C109.97 144.06 108.02 138.07 106.55 133.06C104.22 142.27 99.7002 150.93 93.4802 158.11C88.5202 163.83 82.3002 168.95 80.0402 176.18C78.4102 181.41 79.1102 187.04 80.3202 192.41C79.5202 195.13 79.0402 198.01 78.2202 200.52C77.3502 203.16 76.3502 205.71 75.9902 208.48C75.5702 211.8 75.8502 215.14 76.2102 218.45C76.2502 218.83 76.8402 218.85 76.8202 218.45C76.6702 215.8 76.4602 213.12 76.6302 210.46C76.8302 207.19 77.8002 204.29 78.8402 201.22C79.8402 198.26 80.5602 195.33 81.4902 192.46C88.9802 185.96 97.5602 180.19 104.96 173.62C108.06 170.87 111.28 167.94 112.65 164.03C114.31 159.23 112.88 153.95 111.44 149.06Z" fill="#1C2649"/>
<path d="M72.5501 209.26C72.3701 207.85 72.3901 206.95 72.4001 206.16C72.4201 204.88 72.4401 203.86 71.5601 201.55C70.2101 198 66.5401 193.83 62.9901 189.8C60.6501 187.14 58.2701 184.43 56.5601 181.9C57.3301 178.67 57.4901 174.88 56.9601 171.19C56.3301 166.81 55.3801 162.22 53.2701 158.57C51.0501 154.73 47.8701 152.49 44.8201 150.63C41.2701 148.47 37.2201 147.27 33.6001 145.72C37.1901 152.83 34.1801 162.2 37.3601 169.63C39.1101 173.72 42.2901 176.08 45.2701 177.8C48.7701 179.82 52.3401 181.35 55.9001 182.4C57.6501 184.96 60.0301 187.68 62.3701 190.34C65.8701 194.32 69.4901 198.43 70.7901 201.84C71.6101 204 71.6001 204.9 71.5701 206.14C71.5601 206.92 71.5401 207.88 71.7201 209.36L74.2301 229.27C74.2601 229.48 74.4401 229.64 74.6501 229.64C74.6701 229.64 74.6801 229.64 74.7001 229.64C74.9301 229.61 75.0901 229.4 75.0601 229.17L72.5501 209.26Z" fill="#1C2649"/>
<path d="M106.13 213.57C102.51 210.71 97.81 209.24 93.2 209.52C89.65 209.73 86.15 210.94 82.61 210.58C79.49 210.26 76.6 208.74 73.48 208.39C67.7 207.75 62.27 211.18 56.5 211.86C53.77 212.18 50.99 211.88 48.26 212.14C45.52 212.4 42.65 213.35 41.02 215.56C49.92 218.16 58.99 216.33 68.25 215.7C72.63 215.4 77.02 215.29 81.4 215.19C89.59 214.98 97.95 213.78 106.13 213.57Z" fill="#A35666"/>
<path d="M135.89 197.61C132.99 194.86 128.76 193.55 125.58 191.06C123.88 189.73 122.51 188.09 120.81 186.75C116.79 183.59 109.26 184.98 103.95 186.5C102.73 185.9 101.38 185.6 99.9699 185.81C97.5499 186.18 95.5199 187.95 93.7499 191.23C91.9599 194.54 90.6199 198.04 89.7499 201.63C88.9099 205.13 88.5199 208.76 88.1899 212.17C87.7899 216.35 87.2298 218.39 86.7398 220.19C86.1298 222.42 85.6099 224.36 85.4599 229.39C85.4499 229.62 85.6399 229.81 85.8699 229.82H85.8798C86.1098 229.82 86.2899 229.64 86.2999 229.41C86.4399 224.48 86.9499 222.59 87.5499 220.41C88.0499 218.58 88.6198 216.5 89.0198 212.25C89.3398 208.87 89.7298 205.27 90.5598 201.83C91.4098 198.31 92.7299 194.88 94.4799 191.64C96.1399 188.57 97.9198 186.98 100.09 186.65C101.11 186.5 102.1 186.67 103.02 187.03C100.32 191.42 101.61 197.47 106 200.62C109.16 202.89 113.35 203.6 117.01 205.15C124.89 208.5 130.14 216.24 129.82 224C133.03 220.03 137.84 216.16 139.14 211.4C140.43 206.65 139.65 201.18 135.89 197.61Z" fill="#80C7A7"/>
<path d="M136.66 210.22C134.93 208.73 132.84 207.6 130.79 206.61C130.76 206.52 130.71 206.44 130.63 206.38C129.75 203.59 128.49 201 126.83 198.9C126.64 198.66 126.43 198.44 126.23 198.21C127.57 198.31 128.92 198.32 130.26 198.43C131.78 198.55 133.32 198.99 134.83 198.93C135.12 198.92 135.23 198.54 134.98 198.39C132.55 196.9 128.34 197.05 125.6 197.24C125.5 197.25 125.43 197.28 125.36 197.32C123.14 195.21 120.4 193.79 117.6 192.48C116.96 192.18 116.3 191.89 115.65 191.61C118.38 191.51 121.13 191.48 123.84 191.25C124.13 191.23 124.25 190.76 123.91 190.7C120.82 190.11 117.39 190.3 114.3 190.81C114.21 190.82 114.15 190.87 114.1 190.93C111.2 189.71 108.23 188.64 105.18 187.91C104.68 187.79 104.5 188.5 104.97 188.67C107.68 189.64 110.7 190.56 113.67 191.68C114.33 193.23 114.86 194.82 115.25 196.46C115.6 197.96 115.68 199.53 116.11 200.99C116.15 201.11 116.35 201.13 116.38 200.99C116.95 198.11 115.89 194.78 114.67 192.06C118.33 193.5 121.85 195.28 124.53 197.86C123.17 200.39 122.08 203.21 121.85 206.09C121.82 206.41 122.33 206.47 122.4 206.16C123.06 203.43 123.76 200.89 125.05 198.4C125.23 198.58 125.41 198.76 125.58 198.95C127.58 201.24 128.86 204.06 129.67 206.99C128.59 208.74 127.44 210.76 127.13 212.76C127.08 213.07 127.48 213.28 127.66 212.98C128.55 211.48 129.2 209.85 130 208.28C130.04 208.47 130.09 208.66 130.13 208.85C130.93 212.69 130.54 216.63 131.26 220.44C131.32 220.74 131.83 220.75 131.87 220.44C132.42 216.49 132.11 211.84 130.93 207.54C132.67 208.65 134.34 209.86 136.11 210.91C136.55 211.16 137.05 210.55 136.66 210.22Z" fill="#9FE0C3"/>
<path d="M79.4799 228.77C79.4499 228.77 79.4098 228.77 79.3798 228.76C79.1598 228.7 79.0199 228.47 79.0799 228.25C79.3099 227.34 79.3099 222.93 79.2999 218.67C79.2899 211.64 79.3298 208.25 79.6998 207.6C80.7398 205.8 81.9299 203.98 84.0299 203.29C85.7999 202.71 87.9998 203.13 89.7698 204.37C91.3698 205.49 92.4699 207.09 93.3699 208.5C93.4899 208.69 93.4398 208.95 93.2398 209.08C93.0498 209.21 92.7899 209.15 92.6599 208.95C91.7599 207.54 90.7499 206.08 89.2799 205.05C88.0499 204.19 86.0999 203.49 84.2799 204.08C82.4599 204.67 81.3698 206.35 80.4198 208.01C80.1098 208.63 80.1198 214.43 80.1298 218.66C80.1398 223.37 80.1398 227.44 79.8798 228.45C79.8398 228.64 79.6699 228.77 79.4799 228.77Z" fill="#80C7A7"/>
<path d="M132.92 159.68C129.09 163.23 123.66 165.37 118.13 165.51C110.42 165.71 102.24 162.28 95.3099 165.3C91.6399 166.9 84.2199 174.18 86.4999 177.89C82.0499 181.63 78.3799 186.08 75.7699 191.04C71.4699 199.19 70.7999 206.49 70.1399 213.55C69.5499 219.9 68.9499 226.47 65.7699 233.86C65.6799 234.07 65.7799 234.32 65.9899 234.41C66.0399 234.43 66.0999 234.44 66.1599 234.44C66.3199 234.44 66.4799 234.35 66.5499 234.19C69.7799 226.68 70.3899 220.04 70.9799 213.63C71.6499 206.33 72.2899 199.44 76.5099 191.43C79.0799 186.57 82.6699 182.2 87.0399 178.53C87.0999 178.59 87.1599 178.64 87.2199 178.7C91.5099 182.1 109.78 178.18 114.85 177.18C119.79 176.21 124.81 174.8 128.6 171.81C132.4 168.81 134.65 163.91 132.92 159.68Z" fill="#3F9896"/>
<path d="M129.07 163.84C125.99 166.01 122.86 167.59 119.58 168.7C119.92 167.96 120.17 167.19 120.21 166.35C120.23 165.92 119.56 165.71 119.37 166.12C118.93 167.11 118.58 168.12 118.03 169.06C118.01 169.1 118.01 169.14 117.99 169.18C115.19 169.99 112.28 170.5 109.2 170.72C109.53 170.2 110.09 169.6 110.28 169.27C110.65 168.61 110.83 167.98 110.84 167.21C110.85 166.73 110.1 166.61 109.99 167.1C109.67 168.6 108.43 169.37 107.81 170.68C107.79 170.73 107.78 170.77 107.76 170.81C107.38 170.83 107 170.85 106.62 170.86C103.58 170.94 100.24 170.95 97.14 171.6C97.3201 171.31 97.7101 170.89 97.8001 170.76C98.5701 169.71 99.4 168.7 100.2 167.68C100.47 167.34 100 166.85 99.71 167.19C98.72 168.38 97.7301 169.58 96.6901 170.73C96.3901 171.06 95.9501 171.44 95.8301 171.91C93.1401 172.66 90.7101 173.99 88.9101 176.39C88.5601 176.86 89.3201 177.42 89.7101 177.01C91.6601 174.96 93.9301 173.79 96.3701 173.11C96.9301 173.58 97.7601 173.95 98.1801 174.24C99.5701 175.16 100.94 176.21 102.44 176.93C102.93 177.17 103.55 176.52 103.07 176.11C101.58 174.83 99.7801 173.95 98.1801 172.81C98.1401 172.78 98.0901 172.75 98.0401 172.72C101.18 172.12 104.53 172.14 107.82 172.04C107.83 172.05 107.83 172.07 107.84 172.08C108.39 172.8 109.81 173.27 110.6 173.68C112.1 174.46 113.62 175.19 115.16 175.9C115.73 176.16 116.22 175.37 115.66 175.05C114.57 174.41 113.47 173.78 112.36 173.19C111.8 172.89 111.24 172.6 110.68 172.31C110.6 172.27 110.25 172.12 109.89 171.95C110.64 171.91 111.39 171.85 112.12 171.77C114.54 171.5 117.08 171.05 119.55 170.33C121.46 170.96 123.42 171.63 125.39 171.87C125.79 171.92 125.94 171.29 125.59 171.11C124.36 170.48 123.02 170.04 121.67 169.63C124.7 168.52 127.53 166.95 129.76 164.71C130.18 164.28 129.6 163.47 129.07 163.84Z" fill="#4AB3B0"/>
<path d="M113.95 215.4C113.95 215.4 113.92 215.65 113.83 216.09C113.68 216.83 113.41 218.14 112.93 219.83C112.35 221.85 111.48 224.4 110.23 227.18C109.68 228.41 109.06 229.67 108.34 230.96C106.26 234.69 103.48 238.57 99.7602 241.92C98.4902 243.07 97.1002 244.15 95.5902 245.16C95.5902 245.16 95.5902 245.16 95.5802 245.16C90.4302 248.59 83.8902 250.98 75.5902 251.27C67.5402 251.55 61.0902 249.34 55.9702 245.9C54.8002 245.11 53.6902 244.26 52.6502 243.35C50.5802 241.57 48.7902 239.6 47.2002 237.54C46.1802 236.21 45.2702 234.85 44.4202 233.49C41.8702 229.32 40.1402 225.16 39.0102 221.87C38.6502 220.84 38.3602 219.89 38.1202 219.07C37.4602 216.81 37.2002 215.41 37.2002 215.41C37.2002 215.41 78.8602 210.4 113.95 215.4Z" fill="#C7D3CF"/>
<path d="M113.83 216.09C113.68 216.83 113.41 218.14 112.93 219.83C105.42 220.65 98.1201 222.28 90.5401 223.11C85.9301 223.61 82.2201 222.55 77.7701 221.52C71.4501 220.07 66.9701 221.91 60.9601 223.27C53.5001 224.96 46.3201 221.86 39.0101 221.85C38.6501 220.82 38.3601 219.87 38.1201 219.05C44.7901 218.38 51.7101 221.41 58.4901 220.3C62.7601 219.6 66.7401 217.66 71.0901 217.32C75.2901 217 79.0401 218.53 83.0901 219.34C89.3201 220.59 95.2401 218.57 101.35 217.54C105.47 216.85 109.65 216.36 113.83 216.09Z" fill="white"/>
<path d="M110.22 227.18C109.67 228.41 109.05 229.67 108.33 230.96C105.17 232.27 102 233.65 98.6604 234.42C89.7104 236.49 80.6204 233.35 71.5904 235.05C63.1404 236.62 55.8604 238.88 47.2004 237.54C46.1804 236.21 45.2704 234.85 44.4204 233.49C50.0404 234.34 55.1104 234.99 60.9104 233.9C65.3204 233.08 69.6304 231.77 74.1004 231.24C79.0304 230.67 83.7604 231.44 88.6604 231.82C94.6404 232.29 99.7204 231.18 105.26 229.04C106.9 228.4 108.56 227.75 110.22 227.18Z" fill="white"/>
<path d="M99.7504 241.91C98.4804 243.06 97.0904 244.14 95.5804 245.15C95.5804 245.15 95.5804 245.15 95.5704 245.15C92.0404 244.78 88.6704 244.55 85.6404 244.83C77.5004 245.57 69.7604 246.36 61.5604 246C59.6904 245.92 57.8204 245.87 55.9504 245.89C54.7804 245.1 53.6704 244.25 52.6304 243.34C60.8504 242.64 69.3604 243.26 77.5304 242.39C85.2404 241.57 92.2204 241.32 99.7504 241.91Z" fill="white"/>
<path d="M75.5901 251.26C75.5901 251.26 54.7101 233.97 51.8001 214.21C48.8901 194.45 75.5901 116.65 75.5901 116.65C75.5901 116.65 40.5201 198.31 37.2001 215.4C33.8801 232.5 50.2901 252.03 75.5901 251.26Z" stroke="#844653" stroke-miterlimit="10" stroke-linecap="round" stroke-linejoin="round"/>
<path d="M75.5601 251.26C75.5601 251.26 96.4401 233.97 99.3501 214.21C102.26 194.45 75.5901 116.65 75.5901 116.65C75.5901 116.65 110.63 198.3 113.95 215.4C117.27 232.5 100.86 252.03 75.5601 251.26Z" stroke="#844653" stroke-miterlimit="10" stroke-linecap="round" stroke-linejoin="round"/>
<path d="M75.5903 116.65V0.5" stroke="#844653" stroke-miterlimit="10" stroke-linecap="round" stroke-linejoin="round"/>
<path d="M86.64 125.32C82.55 131.57 78.47 137.81 74.38 144.06C72.71 146.62 71.03 149.18 69.81 151.94C66.6 159.18 70.25 172.78 71.42 175.87C69.78 179.85 67.94 183.23 66.53 185.78C65.62 187.44 64.9 188.75 64.49 189.74C63.47 192.23 63.46 196.55 63.65 199.88C63.07 199.11 62.33 198.46 61.52 197.86C61.57 197.88 61.62 197.89 61.67 197.92C58.64 194.46 54.65 191.56 49.98 190.15C45.3 188.75 39.91 188.98 35.7 191.28C30.9 193.91 28.29 198.69 25.11 202.83C22.61 206.09 19.64 209.06 16.29 211.65C21.44 213.12 28.08 211.86 32.56 209.17C37.04 206.48 40.85 202.95 45.47 200.46C49.31 198.38 54.6 196.56 59.06 197.2C59.12 197.24 59.19 197.28 59.25 197.32C61.09 198.52 62.82 199.64 63.59 201.38C64.26 202.9 63.95 211.64 63.33 213.3C63.25 213.52 63.36 213.76 63.58 213.84C63.63 213.86 63.68 213.87 63.73 213.87C63.9 213.87 64.06 213.77 64.12 213.6C64.54 212.47 64.87 208.06 64.8 204.71C64.89 204.62 64.93 204.49 64.91 204.36C64.74 203.41 63.69 193.94 65.27 190.06C65.66 189.12 66.37 187.82 67.26 186.19C68.78 183.43 70.81 179.72 72.54 175.33C79.18 165.7 91.07 158.68 93.88 147.67C95.9 139.83 93.84 130.16 86.64 125.32Z" fill="#3F9896"/>
<path d="M55.25 192.81C52.78 190.91 49.74 190.44 46.83 190.99C44.99 190.74 43.16 190.29 41.33 189.98C40.76 189.88 40.5 190.72 41.09 190.86C42.22 191.15 43.37 191.39 44.52 191.65C42.59 192.4 40.82 193.58 39.45 195.07C38.98 195.59 38.53 196.11 38.08 196.64C37.25 196.3 36 196.29 35.17 196.23C33.85 196.13 32.69 196.21 31.4 196.44C30.99 196.51 31.13 197.09 31.49 197.13C33.34 197.29 35.26 197.34 37.08 197.69C37.12 197.7 37.14 197.71 37.17 197.72C35.67 199.55 34.19 201.37 32.32 202.91C31.59 203.51 30.83 204.06 30.05 204.58C28.17 204.37 26.29 204.14 24.41 203.91C23.92 203.85 23.8 204.71 24.29 204.78C25.73 205 27.17 205.24 28.61 205.47C26.21 206.87 23.61 207.92 20.9 208.63C19.95 208.88 20.35 210.38 21.31 210.11C24.35 209.26 27.23 207.99 29.87 206.32C29.77 207.16 29.68 208.01 29.81 208.82C29.88 209.27 30.53 209.29 30.74 208.94C31.32 207.95 31.34 206.61 31.19 205.45C33.1 204.1 34.86 202.54 36.42 200.76C36.86 200.26 37.27 199.74 37.68 199.21C37.67 200.09 37.62 200.97 37.7 201.85C37.77 202.66 38.89 202.66 38.97 201.85C39.08 200.59 39.15 199.12 38.97 197.87C38.96 197.77 38.94 197.69 38.92 197.61C40.21 195.94 41.57 194.33 43.44 193.27C44.43 192.71 45.44 192.35 46.45 192.14C46.47 192.15 46.49 192.15 46.51 192.16C46.49 192.85 46.47 193.55 46.39 194.24C46.32 194.87 46.26 195.28 46.51 195.87C46.62 196.13 47.02 196.14 47.2 195.96C48.09 195.04 47.96 193.23 47.84 191.96C50.19 191.82 52.55 192.46 54.83 193.5C55.32 193.73 55.66 193.13 55.25 192.81Z" fill="#4AB3B0"/>
<path d="M81.3399 152.12C84.5999 149.42 88.0299 147.01 91.4399 144.51C91.9699 144.12 91.5099 143.27 90.9199 143.61C88.0399 145.27 85.3699 147.31 82.8099 149.43C82.4899 149.69 82.2399 149.89 82.0199 150.05C82.0699 149.95 82.1199 149.86 82.1599 149.76C83.1199 147.75 84.0899 145.59 84.9399 143.36C85.0499 143.32 85.1599 143.26 85.2399 143.14C86.7899 140.92 88.7299 139.13 90.9699 137.63C91.4499 137.31 91.0299 136.56 90.5099 136.85C88.7099 137.86 87.1899 139.14 85.8699 140.65C87.1299 136.62 87.8099 132.43 87.0899 128.42C87.0099 127.96 86.3099 128.09 86.2999 128.53C86.1799 132.79 85.9399 136.73 84.6699 140.84C84.5699 141.18 84.4399 141.5 84.3299 141.84C82.9099 140.66 81.4799 139.48 80.0399 138.33C79.5799 137.96 78.9099 138.59 79.3699 139C80.8899 140.31 82.4299 141.6 83.9699 142.89C83.0499 145.45 81.9299 147.93 80.7399 150.38C80.4099 150.2 80.0299 149.79 79.3999 149.15C78.2199 147.94 76.9299 146.91 75.5499 145.94C75.1399 145.65 74.6099 146.33 75.0099 146.64C76.9099 148.12 78.5999 149.77 80.1199 151.63C79.9899 151.88 79.8699 152.14 79.7399 152.4C78.3399 155.17 76.8199 157.98 75.4299 160.86C73.9199 158.47 72.4499 156.15 70.5099 154.05C70.2299 153.74 69.7999 154.19 70.0599 154.5C71.8999 156.75 73.6799 159.17 74.7399 161.9C74.7699 161.96 74.8099 162.02 74.8499 162.07C73.3399 165.34 72.0599 168.7 71.4399 172.2C71.3499 172.71 72.0699 172.93 72.2299 172.42C73.3599 168.71 74.7999 165.2 76.3799 161.75C80.5099 159.15 84.4699 156.34 88.7799 154.01C89.4199 153.66 88.8599 152.72 88.2099 153.04C84.5799 154.86 80.8699 156.83 77.5399 159.24C78.6399 156.93 79.7799 154.62 80.9099 152.3C81.0799 152.27 81.2299 152.21 81.3399 152.12Z" fill="#4AB3B0"/>
<path d="M93.3202 204.27C89.4302 206.05 85.4802 208.08 82.9802 211.27C80.4802 214.47 79.8402 219.14 82.6302 222.14C84.0602 223.69 86.1702 224.6 88.1402 225.57C93.7602 228.34 98.8202 232.01 103 236.35C105.06 231.49 106.24 226.57 108.3 221.71C110.05 217.57 111.79 212.89 109.7 208.88C107.26 204.22 98.4702 201.92 93.3202 204.27Z" fill="#80C7A7"/>
<path d="M107.55 211.81C107.94 212.01 108.29 211.43 107.9 211.21C103.65 208.89 98.9404 208.99 94.2304 209.25C94.1504 209.25 94.1104 209.29 94.0604 209.33C94.0104 209.28 93.9704 209.22 93.9304 209.17C93.8804 209.05 93.7904 208.95 93.6704 208.9C93.0504 208.25 92.3904 207.63 91.6504 207.06C91.3004 206.79 90.8304 207.39 91.1704 207.68C91.7904 208.2 92.3504 208.76 92.8804 209.33C91.3404 211.01 90.2504 212.98 89.2004 215.01C88.0004 217.32 86.5604 219.63 86.0504 222.21C85.9804 222.59 86.5004 222.74 86.6304 222.37C88.0204 218.36 90.3704 213.1 93.4804 210.02C95.2104 212.06 96.4504 214.37 97.3904 216.81C95.4204 219.38 93.5704 222.28 92.4504 225.3C92.3504 225.57 92.7504 225.7 92.8904 225.48C94.5404 222.93 96.0704 220.34 97.7504 217.81C98.5904 220.22 99.1804 222.75 99.6904 225.3C98.3604 226.15 97.1704 227.18 96.4404 228.61C96.2504 228.99 96.7704 229.47 97.0604 229.09C97.9104 227.99 98.7804 226.88 99.8204 225.96C100.38 228.8 100.86 231.65 101.51 234.39C101.64 234.93 102.47 234.7 102.34 234.16C101.69 231.49 101.21 228.67 100.67 225.85C101.99 226.14 103.34 226.47 104.67 226.55C105.17 226.58 105.24 225.84 104.78 225.7C103.4 225.29 101.91 225.15 100.48 224.94C99.9504 222.3 99.3504 219.67 98.4804 217.18C101.49 217.6 104.46 217.99 107.35 219.02C107.88 219.21 108.07 218.4 107.58 218.2C104.67 216.98 101.61 216.09 98.4204 216.25C98.3304 216.15 98.2004 216.07 98.0604 216.08C97.1704 213.82 96.0204 211.7 94.4404 209.83C98.9504 209.72 103.47 209.72 107.55 211.81Z" fill="#9FE0C3"/>
<path d="M293.85 425.38L294.93 500.5H288.25C287.94 480 287.64 433.6 287.5 424.37C287.45 420.93 287.42 418.89 287.42 418.73L293.7 418.42L293.85 425.38Z" fill="#A35666"/>
<path d="M397.07 418.57V500.5H391.65L392.07 424.6L392.13 418.57H397.07Z" fill="#844653"/>
<path d="M268.8 420.29L268.96 500.5H263.39L263.71 418.81L263.72 415.61H268.79L268.8 420.29Z" fill="#844653"/>
<path d="M429.41 397.45C429.41 397.76 429.23 404.4 428.96 414.44C428.54 429.68 427.9 479.83 427.33 500.5H422.6L424.02 416.49L424.48 397.71L429.41 397.45Z" fill="#A35666"/>
<path d="M344.18 432.06C402.49 432.06 449.76 418.127 449.76 400.94C449.76 383.753 402.49 369.82 344.18 369.82C285.87 369.82 238.6 383.753 238.6 400.94C238.6 418.127 285.87 432.06 344.18 432.06Z" fill="#C7D3CF"/>
<path d="M344.18 428.56C402.49 428.56 449.76 414.627 449.76 397.44C449.76 380.253 402.49 366.32 344.18 366.32C285.87 366.32 238.6 380.253 238.6 397.44C238.6 414.627 285.87 428.56 344.18 428.56Z" fill="white"/>
<path d="M62.49 474.92C62.42 479.13 63.83 483.37 63.48 487.56C63.43 488.09 63.37 488.62 63.27 489.14C62.56 493.04 60.59 496.75 59.44 500.5H44.53C44.29 498.91 44.13 497.3 44.06 495.69C43.92 492.67 44.09 489.65 44.55 486.68C44.84 484.84 45.23 483.03 45.74 481.25C46.22 479.58 46.8 477.94 47.47 476.34C49.54 471.42 52.51 466.93 54.38 461.93C56.25 456.92 56.91 451.04 54.35 446.13C52.75 443.05 50.07 440.7 47.64 438.15C46.38 436.84 45.19 435.48 44.25 433.94C44.14 433.76 44.04 433.59 43.94 433.41C39.96 426.3 42.01 417.55 44.4 409.96C44.42 409.9 44.43 409.84 44.45 409.78C46.9 402.05 49.47 393.46 45.93 385.9C52.55 390.96 56.8 397.9 57.54 406.05C57.89 409.91 57.5 413.94 57.79 417.79C57.81 418.19 57.85 418.58 57.89 418.97C58.16 421.36 58.76 423.66 60.02 425.79C63.04 430.88 69.26 433.59 71.98 438.84C74.99 444.65 72.74 451.55 69.71 457.07C66.67 462.58 62.78 467.99 62.48 474.38C62.49 474.57 62.49 474.74 62.49 474.92Z" fill="#1C2649"/>
<path d="M110.26 415.15C109.16 426.25 93.6902 430.53 92.8702 441.68C92.3102 449.15 98.7202 456.07 100.03 463.63C101.57 472.56 95.8802 480.21 91.1302 487.31C88.5102 491.21 86.1002 495.8 85.2102 500.5H68.8402C68.3902 497.64 68.4102 494.74 68.9002 491.98C69.0702 491.01 69.3002 490.06 69.5902 489.13C70.0202 487.76 70.5602 486.44 71.2202 485.2C73.7502 480.48 77.8602 476.82 80.2302 472.01C82.8202 466.74 83.0702 460.21 80.9702 454.28C80.8202 453.85 80.6602 453.42 80.4702 452.99C78.0502 447.23 73.3702 441.81 73.6502 435.82C73.7102 434.58 73.9702 433.43 74.3802 432.35C76.1902 427.58 80.9402 424.12 84.2002 420C88.9702 413.95 90.7002 405.52 88.8302 397.51C87.5602 392.08 84.7302 386.92 83.7102 381.47C83.6802 381.32 83.6502 381.16 83.6202 381.01C82.6602 375.38 84.5702 368.82 89.8902 367.43C87.9602 369.53 87.4702 372.93 87.8902 376.43C88.2802 379.72 89.4702 383.09 91.0202 385.59C94.2102 390.75 99.0502 394.7 103.16 399.22C107.26 403.73 110.82 409.45 110.26 415.15Z" fill="#1C2649"/>
<path d="M52.7601 500.51H36.1501C35.8101 499.91 35.4901 499.29 35.1701 498.66C35.0201 498.4 34.9001 498.14 34.7701 497.87C34.5101 497.33 34.2601 496.77 34.0301 496.21C34.0101 496.16 33.9901 496.11 33.9701 496.06C32.8901 493.59 32.0101 491 31.3701 488.52C31.2401 488.01 31.1101 487.51 31.0001 487.01C31.0001 486.99 31.0001 486.99 31.0001 486.98C30.9401 486.73 30.8901 486.47 30.8501 486.22C30.5301 484.6 30.3501 482.96 30.3001 481.33C30.2901 481.04 30.2901 480.78 30.2901 480.49C30.2601 477.38 30.6301 474.26 31.2501 471.18C31.3901 470.46 31.5501 469.75 31.7101 469.04C32.0901 467.34 32.5501 465.65 33.0201 463.98C33.0901 463.73 33.1801 463.46 33.2401 463.21C33.4501 462.49 33.6601 461.78 33.8801 461.07C34.0701 460.39 34.2701 459.72 34.4901 459.05C34.5201 458.94 34.5501 458.84 34.5801 458.74C34.6501 458.5 34.7301 458.27 34.8001 458.02C34.8601 457.78 34.9501 457.53 35.0201 457.28C36.4001 452.58 37.6801 447.6 38.0801 442.67C38.0901 442.58 38.1001 442.49 38.1001 442.4C38.1301 442.13 38.1501 441.87 38.1501 441.6C38.1601 441.46 38.1601 441.32 38.1701 441.18C38.2701 439.28 38.2501 437.41 38.0301 435.56C37.9501 434.96 37.8701 434.36 37.7601 433.76C37.7101 433.51 37.6701 433.26 37.6101 432.99C37.6101 432.97 37.6001 432.96 37.6001 432.94C37.4301 432.09 37.2101 431.25 36.9401 430.42C36.6101 429.39 36.2301 428.4 35.7901 427.44C35.2601 426.27 34.6701 425.15 34.0301 424.06C33.8901 423.84 33.7601 423.61 33.6101 423.39C31.9101 420.6 29.9401 418 28.1601 415.3C28.0001 415.09 27.8801 414.87 27.7301 414.67C27.7001 414.62 27.6801 414.59 27.6501 414.54C26.8101 413.24 26.0201 411.84 25.3201 410.37C23.8901 407.4 22.8501 404.16 22.7101 400.91C22.6701 400.08 22.6901 399.25 22.7801 398.43C22.8301 397.9 22.9101 397.37 23.0201 396.85C23.3701 395.18 24.0001 393.68 24.7801 392.26C25.3001 391.26 25.8901 390.31 26.4901 389.36C26.6101 389.15 26.7401 388.95 26.8701 388.74C28.1501 386.71 29.4401 384.68 30.2701 382.32C30.6701 381.16 30.9501 379.95 31.1301 378.7C31.1701 378.45 31.2201 378.18 31.2301 377.93C31.5001 375.71 31.4701 373.4 31.3401 371.1C31.3201 370.8 31.2901 370.5 31.2801 370.2C31.2001 368.93 31.0601 367.65 30.9401 366.39C32.0901 367.27 33.1601 368.25 34.1701 369.29C34.4801 369.6 34.7701 369.93 35.0701 370.31H35.0801C37.1301 372.64 38.8101 375.35 40.0101 378.32C40.1101 378.56 40.1901 378.81 40.3001 379.05C41.6601 382.7 42.3501 386.74 42.2201 391.09C42.1701 392.85 41.9901 394.65 41.9101 396.41C41.8901 396.68 41.8801 396.94 41.8801 397.2V397.29C41.8601 398.25 41.8801 399.2 41.9801 400.13C42.0801 401.07 42.2601 402 42.5501 402.91C42.7501 403.54 42.9901 404.12 43.2901 404.7C43.4001 404.92 43.5001 405.16 43.6301 405.38C43.8401 405.76 44.0501 406.14 44.2801 406.52C44.5001 406.89 44.7301 407.26 44.9501 407.63C45.2001 408.03 45.4501 408.43 45.6801 408.84C45.8601 409.15 46.0401 409.47 46.2101 409.79C47.4501 412.1 48.4501 414.62 49.1401 417.26C49.2301 417.53 49.2901 417.78 49.3501 418.05C49.9401 420.43 50.2901 422.9 50.4101 425.36C50.4401 426.02 50.4601 426.68 50.4501 427.34C50.4501 427.45 50.4601 427.57 50.4501 427.68C50.4501 427.85 50.4501 428.02 50.4301 428.19C50.4001 429.07 50.3601 429.95 50.2601 430.82C50.1501 431.91 50.0001 432.99 49.8101 434.05C49.6401 434.95 49.4501 435.84 49.2301 436.72C49.1101 437.2 48.9901 437.68 48.8601 438.16C48.3901 439.92 47.8401 441.65 47.2501 443.37C46.9501 444.3 46.6201 445.22 46.3001 446.15C46.2301 446.38 46.1301 446.64 46.0501 446.87C45.4301 448.65 44.8001 450.44 44.2301 452.24C43.4801 454.57 42.8201 457.02 42.3701 459.53C42.3201 459.79 42.2701 460.06 42.2301 460.31C42.1301 460.83 42.0601 461.34 41.9901 461.86C41.9801 461.92 41.9701 461.98 41.9601 462.04C41.7001 464.1 41.6001 466.16 41.7301 468.2C41.7501 468.5 41.7701 468.78 41.7801 469.06C41.7901 469.21 41.8101 469.36 41.8301 469.51C41.8901 470.21 41.9901 470.91 42.1301 471.6C42.3101 472.6 42.5601 473.59 42.8901 474.57C43.0001 474.92 43.1301 475.25 43.2601 475.58C43.3501 475.82 43.4301 476.05 43.5401 476.27C43.8601 477.05 44.2101 477.77 44.5901 478.49C44.7101 478.71 44.8201 478.93 44.9301 479.15C45.3201 479.86 45.7301 480.56 46.1501 481.26C46.4101 481.7 46.6801 482.13 46.9501 482.57C47.5901 483.61 48.2201 484.67 48.8201 485.75C49.0001 486.09 49.1801 486.43 49.3601 486.77C49.5101 487.04 49.6501 487.34 49.7901 487.62C49.8301 487.73 49.8901 487.83 49.9401 487.94C50.5001 489.15 50.9801 490.41 51.3701 491.71C51.6701 492.66 51.9201 493.63 52.1201 494.62C52.4701 496.55 52.7101 498.52 52.7601 500.51Z" fill="#3F9896"/>
<path d="M44.9103 407.62C40.8403 408.55 36.7403 408.61 33.5703 406.31C30.3503 403.98 29.0603 400.34 25.0403 398.98C24.2803 398.72 23.5303 398.54 22.7603 398.42C22.8103 397.89 22.8903 397.36 23.0003 396.84C23.3503 395.17 23.9803 393.67 24.7603 392.25C26.9103 392.62 28.9803 393.28 30.8603 394.26C34.2203 396 36.3903 400.08 40.0103 400.23C40.6203 400.26 41.2703 400.22 41.9403 400.12C42.0403 401.06 42.2203 401.99 42.5103 402.9C42.7103 403.53 42.9503 404.11 43.2503 404.69C43.3603 404.91 43.4603 405.15 43.5903 405.37C43.8003 405.75 44.0103 406.13 44.2403 406.51C44.4603 406.89 44.6903 407.26 44.9103 407.62Z" fill="#4AB3B0"/>
<path d="M50.37 425.36C50.4 426.02 50.42 426.68 50.41 427.34C50.42 427.62 50.42 427.9 50.39 428.19C50.36 429.07 50.32 429.95 50.22 430.82C50.11 431.91 49.96 432.99 49.77 434.05C49.6 434.95 49.41 435.84 49.19 436.72C47.96 437.06 46.72 437.08 45.4 436.91C42.86 436.59 40.57 435.29 38.01 435.56C37.93 434.96 37.85 434.36 37.74 433.76C37.69 433.51 37.65 433.26 37.59 432.99C37.59 432.97 37.58 432.96 37.58 432.94C37.41 432.09 37.19 431.25 36.92 430.42C36.59 429.39 36.21 428.4 35.77 427.44C37.2 427 38.67 426.75 40.21 426.84C41.68 426.92 43.04 427.53 44.48 427.71C46.34 427.94 45.82 427.91 47.23 427.18C48.46 426.54 49.36 425.85 50.37 425.36Z" fill="#4AB3B0"/>
<path d="M41.9202 462.04C41.6602 464.1 41.5602 466.16 41.6902 468.2C41.7102 468.5 41.7302 468.78 41.7402 469.06C41.7502 469.21 41.7702 469.36 41.7902 469.51C40.1402 469.25 38.5102 469.19 36.7702 469.64C34.9302 470.12 33.1702 471.17 31.2202 471.18C31.3602 470.46 31.5202 469.75 31.6802 469.04C32.0602 467.34 32.5202 465.65 32.9902 463.98C33.0602 463.73 33.1502 463.46 33.2102 463.21C33.4202 462.49 33.6302 461.78 33.8502 461.07C34.3502 460.99 34.8502 460.97 35.3602 461C36.9802 460.96 38.6802 461.13 40.2702 461.45C40.8302 461.56 41.3902 461.7 41.9302 461.86C41.9402 461.92 41.9302 461.98 41.9202 462.04Z" fill="#4AB3B0"/>
<path d="M52.0601 494.61C51.4901 494.85 50.9001 495.05 50.3001 495.22C45.7301 496.48 41.1301 494.99 36.5401 495.58C35.6201 495.7 34.7901 495.9 34.0301 496.2C34.0101 496.15 33.9901 496.1 33.9701 496.05C32.8901 493.58 32.0101 490.99 31.3701 488.51C34.2201 487.36 37.2901 486.77 39.9701 486.72C43.0901 486.65 45.9401 487.05 48.7701 485.74C48.9501 486.08 49.1301 486.42 49.3101 486.76C49.4601 487.03 49.6001 487.33 49.7401 487.61C49.7801 487.72 49.8401 487.82 49.8901 487.93C50.4501 489.14 50.9301 490.4 51.3201 491.7C51.6101 492.65 51.8601 493.62 52.0601 494.61Z" fill="#4AB3B0"/>
<path d="M85.3302 451.07C85.0502 452.18 84.6802 453.25 84.2502 454.29C83.5302 456 82.6202 457.6 81.6402 459.05C80.5002 460.75 79.2302 462.33 77.9902 463.93C76.1802 466.23 74.4202 468.56 73.0602 471.28C73.0502 471.32 73.0302 471.35 73.0102 471.38C72.9202 471.58 72.8102 471.79 72.7302 471.99C71.8602 473.9 71.2302 476.11 70.8302 478.49C70.7002 479.25 70.5902 480.03 70.5002 480.82C70.4802 481.07 70.4402 481.33 70.4202 481.59C70.2202 483.83 70.1902 486.14 70.3502 488.46C70.3602 488.67 70.3702 488.89 70.4002 489.11V489.14C70.4002 489.18 70.4102 489.22 70.4102 489.26C70.5002 490.39 70.6302 491.51 70.8102 492.6C70.9502 493.54 71.1302 494.46 71.3302 495.35C71.3902 495.62 71.4402 495.89 71.5102 496.14C71.8902 497.67 72.3602 499.14 72.9302 500.51H57.7602C56.9602 498.97 56.3002 497.16 55.7902 495.24C55.7302 494.99 55.6702 494.74 55.6002 494.47C54.8102 491.15 54.4602 487.57 54.5502 484.49C54.5702 483.6 54.6202 482.75 54.7202 481.96C55.0502 479.28 55.6902 476.75 56.5002 474.27C56.5702 474.04 56.6602 473.8 56.7402 473.57C56.8402 473.27 56.9402 472.97 57.0602 472.67C58.0402 469.93 59.1902 467.28 60.3502 464.63C60.4402 464.39 60.5402 464.17 60.6502 463.93C61.0002 463.12 61.3402 462.31 61.6702 461.49C62.8402 458.67 63.9202 455.67 64.6502 452.58C64.9002 451.52 65.1102 450.44 65.2702 449.36C65.3302 449.04 65.3702 448.74 65.4002 448.45C65.7502 445.63 65.7302 442.78 65.1602 439.96C65.1002 439.69 65.0602 439.44 64.9902 439.17C64.9302 438.92 64.8802 438.67 64.8102 438.42C64.7502 438.22 64.7002 438.02 64.6402 437.83C63.8602 435.12 62.7002 432.56 61.7002 429.94C61.6002 429.7 61.5102 429.46 61.4302 429.21C61.0402 428.17 60.6802 427.13 60.3902 426.05C59.9802 424.52 59.7102 422.94 59.5502 421.35C59.4802 420.56 59.4402 419.78 59.4402 418.98L59.4302 418.79C59.4202 418.52 59.4302 418.26 59.4302 417.99C59.4302 417.89 59.4302 417.8 59.4402 417.7C59.4902 415.66 59.7802 413.65 60.2702 411.71C60.4602 410.97 60.6902 410.24 60.9202 409.51C61.7102 407.03 62.6202 404.57 62.8302 402C62.8602 401.75 62.8902 401.48 62.8802 401.23C62.9002 400.75 62.8802 400.28 62.8402 399.81C62.6602 397.78 61.9302 395.87 61.0602 394.1C60.9402 393.86 60.8302 393.62 60.7102 393.4C60.5402 393.06 60.3502 392.74 60.1802 392.41C60.1502 392.36 60.1202 392.3 60.1002 392.25C59.4002 390.98 58.6702 389.7 57.9402 388.4C57.8202 388.18 57.7002 387.96 57.5702 387.74C56.3702 385.61 55.1702 383.46 54.1002 381.27C54.0202 381.09 53.9302 380.91 53.8502 380.74C53.8302 380.68 53.8002 380.63 53.7802 380.57C51.2502 375.25 49.5002 369.71 50.2202 363.91C50.2502 363.69 50.2902 363.47 50.3102 363.25C50.3302 363.17 50.3402 363.1 50.3402 363.02C50.9502 359.36 52.5302 356.15 54.2602 353.03C54.3802 352.81 54.5202 352.59 54.6402 352.37C57.1402 347.88 59.8302 343.52 60.2302 338.11C62.7602 342.25 62.8302 347.51 62.9602 352.78L62.9802 353.55C63.0502 356.12 63.1702 358.66 63.6202 361.09C63.6802 361.37 63.7402 361.66 63.7902 361.92C64.0502 363.02 64.3702 364.11 64.8202 365.13C65.1202 365.84 65.4702 366.52 65.8402 367.16C65.9602 367.4 66.0902 367.62 66.2302 367.84C67.6402 370.12 69.4102 372.11 71.1202 374.09C71.1602 374.15 71.2102 374.2 71.2502 374.25C71.3602 374.37 71.4702 374.52 71.5802 374.64C72.1602 375.32 72.7302 376.01 73.2902 376.71C74.5702 378.34 75.8102 380.03 76.9102 381.85C77.0402 382.05 77.1702 382.27 77.2902 382.5C78.1902 384.02 78.9802 385.63 79.6402 387.34C79.9002 388 80.1302 388.69 80.3402 389.38C80.7502 390.75 81.0602 392.16 81.2402 393.59C81.6902 396.97 81.4802 400.43 80.3302 403.46C80.0002 404.31 79.6202 405.11 79.1902 405.88C79.0402 406.2 78.8602 406.5 78.6802 406.8C77.3002 409.11 75.6602 411.23 74.5002 413.59C73.7402 415.14 73.1902 416.8 73.0702 418.67C73.0302 419.17 73.0402 419.67 73.0702 420.16C73.0802 420.43 73.0902 420.7 73.1302 420.96C73.3102 422.41 73.7302 423.78 74.3402 425.07C74.4302 425.31 74.5502 425.54 74.6702 425.78C75.0302 426.48 75.4302 427.16 75.8702 427.84C76.8702 429.38 78.0302 430.87 79.2102 432.36C80.3702 433.82 81.5402 435.3 82.5702 436.85C82.7402 437.11 82.9102 437.4 83.0902 437.68C83.7002 438.66 84.2402 439.68 84.6802 440.75C84.7902 440.98 84.8702 441.22 84.9602 441.47C85.2402 442.26 85.4702 443.06 85.6402 443.91C86.0902 446.33 85.9202 448.76 85.3302 451.07Z" fill="#80C7A7"/>
<path d="M80.3503 389.38C78.7503 390.53 77.0504 391.51 75.1404 392.17C70.1203 393.92 65.4604 392.9 60.3004 392.27C60.2404 392.26 60.1704 392.25 60.1104 392.25C59.4104 390.98 58.6804 389.7 57.9504 388.4C57.8304 388.18 57.7104 387.96 57.5804 387.74C56.3804 385.61 55.1804 383.46 54.1104 381.27C54.0304 381.09 53.9404 380.91 53.8604 380.74C58.7204 380.03 64.3104 380.5 67.8904 379.71C69.9104 379.27 71.6803 378.12 73.3103 376.71C74.5903 378.34 75.8304 380.03 76.9304 381.85C77.0604 382.05 77.1903 382.27 77.3103 382.5C78.2103 384.02 79.0004 385.63 79.6604 387.34C79.9104 388 80.1404 388.69 80.3503 389.38Z" fill="#9FE0C3"/>
<path d="M75.8802 427.84C74.8302 427.77 73.7902 427.67 72.7702 427.54C70.3202 427.22 68.1002 426.73 65.8502 425.63C63.7702 424.62 62.3302 422.96 60.4102 421.79C60.0802 421.59 59.8102 421.45 59.5702 421.35C59.5002 420.5 59.4502 419.65 59.4502 418.79C59.4402 418.52 59.4502 418.26 59.4502 417.99C59.4902 415.85 59.7802 413.74 60.2902 411.71C60.4802 410.97 60.7102 410.24 60.9402 409.51C64.2502 409.84 66.7202 411.82 69.9302 412.78C71.4502 413.23 72.9902 413.49 74.5202 413.59C73.7602 415.14 73.2102 416.8 73.0902 418.67C73.0502 419.17 73.0602 419.67 73.0902 420.16C73.1002 420.43 73.1102 420.7 73.1502 420.96C73.3302 422.41 73.7502 423.78 74.3602 425.07C74.4502 425.31 74.5702 425.54 74.6902 425.78C75.0402 426.48 75.4402 427.16 75.8802 427.84Z" fill="#9FE0C3"/>
<path d="M85.3301 451.07C84.6001 453.99 83.2101 456.72 81.6401 459.05C80.5001 460.75 79.2301 462.33 77.9901 463.93C77.8601 463.89 77.7401 463.83 77.6101 463.78C72.8001 461.75 69.0401 458.95 66.0301 454.63C65.5401 453.93 65.1201 453.23 64.6501 452.58C64.9001 451.52 65.1101 450.44 65.2701 449.36C65.3301 449.04 65.3701 448.74 65.4001 448.45C65.7501 445.63 65.7301 442.78 65.1601 439.96C65.1001 439.69 65.0601 439.44 64.9901 439.17C64.9301 438.92 64.8801 438.67 64.8101 438.42C64.7501 438.22 64.7001 438.02 64.6401 437.83C65.5701 437.97 66.4901 438.2 67.3601 438.49C72.1801 440.09 74.7001 443.57 78.0901 447.05C80.0501 449.06 82.6301 450.2 85.3301 451.07Z" fill="#9FE0C3"/>
<path d="M70.4203 481.59C70.2203 483.83 70.1903 486.14 70.3503 488.46C70.3603 488.72 70.3703 488.99 70.4103 489.26C70.5003 490.39 70.6303 491.51 70.8103 492.6C65.5503 490.09 59.8103 487.59 54.5503 484.49C54.5703 483.6 54.6203 482.75 54.7203 481.96C55.0503 479.28 55.6903 476.75 56.5003 474.27C56.5703 474.04 56.6603 473.8 56.7403 473.57C56.8403 473.27 56.9403 472.97 57.0603 472.67C61.7603 474.24 66.3503 476.4 70.8303 478.49C70.7003 479.25 70.5903 480.03 70.5003 480.82C70.4803 481.07 70.4403 481.33 70.4203 481.59Z" fill="#9FE0C3"/>
<path d="M267.37 307.99L348.22 309.79L352.97 335.08C352.97 335.08 277.53 351.44 260.73 352.01C260.74 352 252.42 316.49 267.37 307.99Z" fill="#FE9E76"/>
<path d="M278.34 350.08C278.34 350.08 273.4 351.48 266.75 352.71C258.34 354.26 247.18 355.54 239.74 353.39C209.15 344.55 203.09 326.39 192.05 314.46C189.74 311.97 187.77 307.25 186.26 301.28C180.58 278.71 181.76 238.36 198.15 233.81C198.15 233.81 215.77 234.67 221.81 247.06C233.07 270.16 240.65 294.25 258.86 304.25C267.09 308.78 278.63 308.33 278.63 308.33C278.63 308.33 268.13 334.23 278.34 350.08Z" fill="#F9C164"/>
<path d="M269.56 307.67C269.56 307.67 258.21 334.92 270.75 351.9" stroke="#1C2649" stroke-miterlimit="10" stroke-linecap="round" stroke-linejoin="round"/>
<path d="M266.75 352.71C258.34 354.26 247.18 355.54 239.74 353.39C209.15 344.55 203.09 326.39 192.05 314.46C189.74 311.97 187.77 307.25 186.26 301.28L223.92 279.2C223.92 279.2 250.01 320.69 266.75 352.71Z" fill="#FFA147"/>
<path d="M347.26 324.64C347.26 324.64 316.57 325.04 296.23 320.68C296.23 320.68 299.44 352.72 302.65 366.97C305.86 381.21 311.21 389.12 314.78 393.08C318.35 397.04 334.41 399.01 347.26 399.01C360.11 399.01 376.17 397.03 379.74 393.08C383.31 389.12 388.66 381.21 391.87 366.97C395.08 352.73 398.29 320.68 398.29 320.68C377.95 325.04 347.26 324.64 347.26 324.64Z" fill="#61A3C5"/>
<path d="M296.23 320.68L296.16 336.3C296.16 336.3 314.54 342.33 346.67 342.32C378.19 342.31 398.31 334.41 398.31 334.41L398.29 320.68C398.29 320.68 334.61 330.3 296.23 320.68Z" fill="#70BCE3"/>
<path d="M390.1 369.87C383.4 371.72 377.16 374.56 370.28 375.95C362.97 377.42 355.52 378.06 348.08 378.22C341.06 378.37 334.02 378.05 327.02 377.54C319.38 376.98 312.35 375.39 304.92 373.74C304.05 373.55 303.46 374.76 304.29 375.23C310.49 378.73 318.29 379.26 325.26 379.83C332.84 380.46 340.46 380.81 348.07 380.72C355.18 380.63 362.28 380.11 369.29 378.9C376.45 377.66 384.81 375.96 390.95 371.9C391.97 371.22 391.36 369.52 390.1 369.87Z" fill="#70BCE3"/>
<path d="M386.21 382.19C374.02 386.29 361.46 388.88 348.6 389.51C335.66 390.15 323.06 388.38 310.31 386.41C309.46 386.28 309.1 387.44 309.95 387.72C334.27 395.82 363.04 393.01 386.81 384.37C388.16 383.89 387.6 381.73 386.21 382.19Z" fill="#70BCE3"/>
<path d="M398.29 320.68C398.1 322.4 396.04 323.9 392.62 325.15C384.19 328.25 367.52 329.91 350.38 330.1C350.03 330.11 349.69 330.11 349.34 330.11H348.84C348.57 330.12 348.3 330.12 348.02 330.11C347.99 330.12 347.96 330.12 347.93 330.11C347.85 330.12 347.76 330.12 347.67 330.12H347.5C328.37 330.15 309.19 328.34 300.71 324.63C300.5 324.54 300.3 324.45 300.11 324.35C297.86 323.28 296.49 322.06 296.23 320.68C295.78 318.28 297.46 316.3 300.68 314.72C308.48 310.88 325.33 309.32 342.88 309.49C343.61 309.5 344.35 309.51 345.09 309.52C345.13 309.52 345.17 309.52 345.21 309.53H345.65C345.97 309.54 346.3 309.55 346.62 309.56C347.19 309.57 347.76 309.58 348.33 309.6C348.7 309.61 349.06 309.62 349.42 309.63C350.02 309.66 350.63 309.68 351.23 309.7C375.7 310.68 398.93 314.86 398.29 320.68Z" fill="#1C2649"/>
<path d="M345.83 320.84C344.84 286.66 343.26 252.5 341.09 218.38C340.72 212.56 340.24 206.44 337.03 201.57C333.24 195.82 325.96 192.28 324.33 185.59C321.83 175.3 334.47 166.59 333.84 156.02C333.66 153.04 332.42 150.22 332.06 147.25C331.22 140.27 335.38 133.64 340.22 128.54C345.95 122.5 352.89 117.62 360.51 114.28C369.03 110.54 378.52 108.61 385.92 102.98C385.53 112.64 386.59 124.42 392.5 132.07C394.1 134.15 396.17 136.06 396.7 138.63C397.57 142.89 393.82 146.69 390.02 148.79C386.22 150.89 381.78 152.44 379.37 156.06C375.87 161.33 378.19 168.64 375.8 174.5C372.03 183.76 358.03 186.38 355.99 196.16C355.15 200.19 356.69 204.52 355.45 208.44C354.5 211.45 352.08 213.72 350.28 216.32C345.37 223.38 345.15 232.58 345.2 241.18C345.36 269.46 346.45 297.73 348.49 325.94C348.69 324.77 345.87 322.03 345.83 320.84Z" fill="#1C2649"/>
<path d="M352.14 323.74C349.75 296.48 362.86 270.41 363.52 243.11C363.69 236.1 363.1 228.71 366.15 222.47C369.84 214.91 378.09 210.66 382.44 203.48C387.74 194.73 386.77 182.52 393.89 175.22C397.31 171.72 402.11 169.95 406.89 168.84C414.87 167 423.16 166.73 431.16 165.01C439.16 163.28 447.22 159.79 451.94 153.09C454.91 157.18 457.67 162.42 459.12 167.26C460.57 172.09 460.16 177.78 456.82 181.43C454.34 184.15 450.55 185.46 448.33 188.41C444.62 193.34 446.72 200.61 444.78 206.51C443.19 211.34 438.91 214.88 434.15 216.56C429.39 218.25 424.19 218.3 419.13 217.87C417.38 217.72 415.49 217.54 413.99 218.42C413.01 218.99 412.33 219.94 411.66 220.85C409.72 223.54 407.73 226.24 405.24 228.43C396.61 236.03 383.39 236.41 374.59 243.8C366.6 250.51 363.86 261.52 361.54 271.8C357.49 289.8 353.42 307.89 352.37 326.38C352.46 325.52 352.21 324.62 352.14 323.74Z" fill="#1C2649"/>
<path d="M354.64 324.29C356.91 316.68 359.19 309.07 361.46 301.46C362.65 297.46 363.92 293.33 366.6 290.09C368 288.4 369.74 287.01 370.99 285.21C375.51 278.68 372.14 269.14 376.73 262.66C382.08 255.1 393.91 256.96 401.52 251.69C408.58 246.8 410.65 236.73 417.76 231.93C420.9 229.81 424.68 228.98 428.13 227.46C435.96 224.01 441.81 217.18 447.36 210.59C446.46 218.03 447.41 225.66 448.93 232.9C449.5 235.62 450.23 238.48 449.37 241.18C447.55 246.84 440.19 248.47 436.28 253.01C432.73 257.14 432.22 263.5 427.93 266.83C420.85 272.32 408.95 265.65 402.72 272.11C401.27 273.61 400.44 275.6 399.14 277.23C395.85 281.32 390.25 282.44 385.19 283.53C378.44 284.98 371.19 287.26 367.17 292.97C365.27 295.68 364.31 298.89 363.37 302.04C360.86 310.5 358.36 318.95 355.85 327.41C354.7 327.6 354.97 325.39 354.64 324.29Z" fill="#1C2649"/>
<path d="M343.6 322.69C339.81 302.13 336.01 281.57 332.22 261.02C330.55 252 328.61 242.39 322.48 235.95C320.82 234.2 318.82 232.71 316.54 232.2C314.71 231.79 312.81 232.02 310.96 231.76C305.26 230.95 301.16 225.76 297.16 221.34C293.16 216.92 287.66 212.65 282.14 214.35C279.18 215.26 276.88 217.74 274.09 219.14C268.95 221.71 262.69 220.25 257.93 216.94C253.17 213.63 249.61 208.73 246.15 203.92C242.86 199.35 239.57 194.78 236.28 190.21C235.81 194.84 234.42 200.4 234.23 205.05C234.08 208.61 234.03 212.31 235.39 215.56C237.29 220.08 241.6 222.98 243.73 227.39C246.31 232.73 245.26 239.3 247.13 244.96C249.48 252.08 256.84 256.88 263.82 255.85C268.19 255.21 272.57 252.58 276.76 254.04C280.92 255.49 283.03 260.32 286.32 263.41C289.97 266.83 295.34 267.99 299.94 266.35C302.33 265.5 304.45 263.99 306.7 262.8C313.01 259.48 321.41 259.13 326.37 264.46C331 269.41 337.81 309.26 343.6 322.69Z" fill="#1C2649"/>
<path d="M347.67 330.12H347.5C346.16 323.18 344.59 316.32 342.88 309.49C339.64 296.62 335.86 283.89 332.01 271.14C331.23 268.54 330.4 265.9 328.81 263.71C327.22 261.52 326.16 259.1 323.49 259.52C319.25 260.18 317.22 265.15 316.97 269.43C316.72 273.7 317.37 278.29 315.25 282.01C312.77 286.36 307.32 288.09 304.09 291.91C300.02 296.74 300.28 303.74 300.56 310.05C300.63 311.58 300.67 313.14 300.68 314.72C300.68 317.92 300.53 321.18 300.11 324.35C299.01 332.7 296.06 340.48 289.32 345.16C278.75 352.5 263.89 347.06 251.75 342.76C267.39 323.77 276.32 299.37 276.63 274.78C276.76 264.66 275.58 254.03 279.87 244.88C284.16 235.72 296.87 229.59 304.6 236.11C306.27 237.52 307.62 239.43 309.65 240.23C311.9 241.13 314.45 240.46 316.86 240.67C323.8 241.28 327.85 248.63 330.39 255.12C336.82 271.55 341.59 288.63 344.62 306.01C344.62 306.03 344.63 306.06 344.63 306.08C344.83 307.23 345.02 308.38 345.21 309.53C346.06 314.86 346.75 320.22 347.27 325.59C347.28 325.63 347.28 325.66 347.29 325.7C347.43 327.17 347.56 328.65 347.67 330.12Z" fill="#80C7A7"/>
<path d="M305.83 266.71C303.79 262.52 301.2 258.74 298.16 255.22C298.14 255.2 298.11 255.19 298.09 255.17C300.17 250.57 303.03 246.26 307.08 242.39C308.18 241.34 306.57 239.83 305.44 240.75C291.66 252 290.52 271.73 289.46 288.09C289.25 291.4 288.94 294.88 288.46 298.38C288.18 298.33 287.88 298.43 287.67 298.77C285.69 302.09 284.31 305.38 281.57 308.23C278.87 311.04 275.71 312.84 272.33 314.69C271.5 315.14 272.07 316.45 272.97 316.2C278.5 314.67 284.58 309.78 287.52 304.15C284.48 319.92 277.29 334.88 259.29 337.15C258.3 337.28 258.23 338.71 259.29 338.74C272.79 339.16 281.79 328.59 286.67 316.77C286.84 318.91 287.05 321.04 287.29 323.18C287.57 325.7 287.5 328.42 288.76 330.67C289.04 331.18 289.82 331.05 289.97 330.51C290.77 327.76 289.93 324.69 289.6 321.88C289.26 318.96 288.87 316.06 288.35 313.17C288.32 312.99 288.24 312.87 288.14 312.76C289.23 309.46 290.01 306.15 290.48 303.04C292.78 287.84 291.64 271.24 297.23 257.14C299.57 260.32 301.7 263.66 303.45 267.21C305.29 270.93 305.97 275.59 308.34 278.96C308.69 279.45 309.35 279.24 309.42 278.67C309.91 274.68 307.55 270.25 305.83 266.71Z" fill="#8EDEBA"/>
<path d="M350.29 321.17C356.75 303 361.14 284.1 363.34 264.95C363.61 262.63 363.87 260.22 365.13 258.26C369.49 251.49 382.76 253.81 384.89 246.04C385.37 244.31 385.08 242.43 385.59 240.7C386.73 236.82 391.31 235.13 395.34 234.8C405.32 233.97 415.63 237.84 425.22 234.96C430.76 233.3 435.39 229.55 440.33 226.54C449.5 220.95 460.12 217.77 470.85 217.4C470.38 223.26 469.82 230.15 469.35 236.01C469.13 238.73 468.83 241.65 467.04 243.7C464.18 246.97 458.93 246.59 455.25 248.9C450.3 252.02 449.57 258.86 446.32 263.73C439.4 274.08 423.31 272.56 412.62 266.18C407.85 263.33 402.77 259.61 397.33 260.71C391.7 261.85 387.69 267.93 381.95 267.98C377.28 268.02 371.75 264.22 368.58 267.64C367.76 268.52 367.38 269.71 367.02 270.86C361.64 287.94 353.99 321.17 350.29 321.17Z" fill="#3F9896"/>
<path d="M463.6 235.87C460.32 236.06 457.04 237.07 453.77 237.46C450.81 237.81 447.84 237.86 444.88 238.09C450 232.43 456 228.38 463.08 225.36C463.71 225.09 463.26 224.05 462.62 224.26C456.42 226.27 450.63 230 445.97 234.54C440.81 239.57 437.13 245.89 429.99 248.4C428.79 248.82 427.57 249.15 426.34 249.39C429.54 244.68 432.34 239.7 435.6 235.01C436.12 234.26 434.9 233.55 434.38 234.3C431 239.16 427.4 244.19 424.88 249.57C424.87 249.6 424.87 249.62 424.86 249.65C419.87 250.41 414.68 250.06 409.68 249.91C405.49 249.78 401.35 249.84 397.25 250.35C399.19 249.39 401.08 247.76 402.43 246.61C404.36 244.96 408 241.98 408.18 239.24C408.21 238.81 407.71 238.61 407.37 238.78C406.13 239.42 405.57 240.66 404.68 241.72C403.69 242.92 402.6 244.04 401.43 245.07C400.13 246.23 398.72 247.26 397.25 248.19C396.12 248.91 394.82 249.42 393.97 250.47C393.87 250.59 393.85 250.75 393.89 250.88C392.47 251.15 391.06 251.47 389.65 251.87C382.5 253.93 375.12 257.51 369.76 262.75C369.03 263.46 370.02 264.84 370.88 264.2C376.65 259.84 382.38 256.11 389.37 253.95C394.72 252.3 400.11 251.78 405.61 251.73C409.79 254.1 414.17 256.06 418.29 258.56C420.35 259.81 422.37 261.13 424.35 262.5C426.27 263.84 428.14 265.65 430.26 266.61C430.87 266.89 431.37 266.22 430.96 265.7C429.57 263.93 427.36 262.65 425.53 261.36C423.43 259.89 421.28 258.5 419.09 257.19C415.82 255.23 412.41 253.25 408.86 251.74C409.27 251.75 409.68 251.75 410.09 251.76C416.51 251.94 423.17 252.32 429.4 250.43C435.7 248.52 439.68 244.14 443.82 239.27C443.82 239.27 443.82 239.27 443.83 239.26C447.42 239.65 451.17 239.28 454.74 238.83C457.77 238.45 461.1 238.14 463.91 236.91C464.4 236.69 464.13 235.83 463.6 235.87Z" fill="#4AB3B0"/>
<path d="M466 199.29C461.74 203.73 454.07 201.78 448.66 204.71C443.06 207.73 441.21 215.13 435.94 218.7C432.71 220.88 428.63 221.32 424.73 221.42C416.9 221.62 409.05 220.72 401.47 218.76C400.53 218.52 399.59 218.25 398.64 218.01C394.86 217.02 390.99 216.22 387.32 217.35C384.55 218.2 382.22 220.08 379.66 221.44C379.03 221.78 378.38 222.09 377.72 222.37C376.73 222.77 375.7 223.12 374.66 223.38C371.72 224.14 368.64 224.31 365.64 223.86C363.92 223.6 362.01 223.19 360.58 224.17C359.14 225.16 358.85 227.13 358.69 228.88C358.27 233.39 357.86 237.9 357.44 242.41C355.37 264.84 353.3 287.28 351.23 309.71C350.76 314.84 350.28 319.97 349.81 325.1C349.65 326.77 349.5 328.45 349.34 330.12H348.87C348.37 325.83 348.57 320.61 348.89 316.09C348.98 314.85 349.08 313.66 349.17 312.56C349.25 311.59 349.34 310.61 349.42 309.64C351.4 286.4 353.38 263.17 355.36 239.93C356.06 231.8 356.75 223.68 357.44 215.55C357.59 213.89 357.73 212.22 357.87 210.56C358.12 207.62 358.4 204.59 359.85 202.03C364.59 193.7 378.17 195.2 384.05 187.64C386.6 184.37 387.31 179.8 390.37 177.01C395.78 172.07 404.24 175.53 411.16 177.95C429.64 184.43 451.3 180.9 466.77 168.9C467.05 174.69 468.4 181.61 468.68 187.41C468.88 191.57 468.9 196.26 466 199.29Z" fill="#3F9896"/>
<path d="M463.04 178.21C456.93 186.26 447.96 190.61 438.41 193.05C440.04 191.51 441.46 189.76 442.67 187.87C444 185.79 445.83 182.95 445.83 180.41C445.83 179.81 445.1 179.71 444.79 180.13C443.29 182.17 442.68 184.89 441.31 187.08C439.81 189.49 437.99 191.6 436.01 193.62C436.01 193.62 436.01 193.63 436 193.63C431.54 194.62 426.99 195.23 422.58 195.63C415.9 196.23 409.11 196.53 402.41 197.24C406.71 192.98 410.89 188.9 416.02 185.52C416.94 184.91 416.08 183.43 415.15 184.04C409.68 187.62 404.18 192.05 400.43 197.47C392.59 198.42 384.89 200.04 377.64 203.54C371.08 206.71 365.25 211.29 361.51 217.61C361.08 218.34 362.17 218.95 362.64 218.27C367.9 210.65 374.7 206.12 382.35 203.3C382.37 203.49 382.49 203.67 382.74 203.75C387.64 205.42 392.47 207.01 397.17 209.21C399.34 210.23 401.47 211.31 403.59 212.43C405.55 213.46 407.61 215.02 409.79 215.44C410.33 215.54 410.75 214.93 410.34 214.5C408.81 212.91 406.37 212.02 404.42 211.01C402.03 209.76 399.62 208.56 397.17 207.44C392.9 205.49 388.37 203.61 383.71 202.82C395.36 198.88 408.85 198.65 421.85 197.49C421.89 197.55 421.95 197.6 422.01 197.64C425.5 199.93 430.19 200.95 434.24 201.7C438.51 202.5 442.85 202.77 447.19 202.59C448.43 202.54 448.44 200.6 447.19 200.65C442.86 200.82 438.55 200.59 434.28 199.82C431.02 199.23 427.94 198.08 424.78 197.2C432.72 196.38 440.41 195.08 447.3 192.22C454.15 189.37 460.22 185.15 464.73 179.21C465.52 178.19 463.8 177.21 463.04 178.21Z" fill="#4AB3B0"/>
<path d="M462.54 291.64C457.92 296.19 452.54 302.05 446.55 304.53C440.56 307.01 433.18 307.1 428.03 303.17C424.57 300.54 422.47 296.44 419.07 293.72C409.57 286.14 393.93 291.89 384.49 284.23C379.12 279.88 377.46 272.39 377.36 265.48C377.3 261.85 377.49 257.91 375.39 254.95C373.29 252.01 369.54 250.91 366.31 249.29C363.21 247.74 360.1 245.31 357.44 242.4C356.71 241.61 356.01 240.78 355.36 239.92C353.17 237.04 351.49 233.88 350.69 230.78C346.31 255.86 346.19 282.91 348.33 309.6C348.5 311.76 348.69 313.92 348.89 316.08C349.17 319.09 349.47 322.1 349.81 325.09C349.99 326.77 350.18 328.44 350.38 330.1C350.03 330.11 349.69 330.11 349.34 330.11H348.84C348.82 329.83 348.79 329.55 348.76 329.3C347.93 322.73 347.21 316.15 346.62 309.56C344.17 282.56 343.74 255.37 345.35 228.31C345.62 223.82 346.36 218.62 350.23 216.34C352.44 215.04 354.89 215.11 357.44 215.54C359 215.82 360.58 216.23 362.17 216.55C362.67 216.65 363.17 216.75 363.67 216.83C365.3 217.09 366.92 217.18 368.49 216.88C368.62 216.86 368.74 216.83 368.86 216.8C369.68 216.61 370.45 216.32 371.19 215.96C375.33 213.98 378.61 209.84 383.14 208.73C388.44 207.43 393.97 210.78 397.05 215.29C397.65 216.16 398.17 217.07 398.64 218C400.61 221.9 401.63 226.28 402.81 230.52C404.26 235.78 406.14 241.2 410.13 244.93C415.34 249.8 423.17 250.89 428.67 255.43C436.5 261.88 437.73 273.43 443.84 281.52C448.24 287.36 455.25 291.15 462.54 291.64Z" fill="#80C7A7"/>
<path d="M446.55 291.34C429.94 292.95 419.96 281.28 411.72 268.79C419.98 273.24 429.89 276.56 438.95 275.32C439.62 275.23 439.57 274.14 438.95 274.01C433.82 272.92 428.61 272.68 423.53 271.23C418.61 269.83 413.91 267.79 409.46 265.3C407.9 262.85 406.39 260.41 404.9 258.08C401.29 252.45 397.45 246.76 393.37 241.2C393.34 241.11 393.32 241.02 393.3 240.93C393.21 240.61 393 240.44 392.77 240.38C389.52 236 386.11 231.72 382.54 227.63C387.78 229.93 394 231.67 399.38 230.63C399.98 230.51 399.9 229.66 399.38 229.5C396.21 228.52 392.78 228.34 389.55 227.55C386.28 226.75 383.12 225.61 380.01 224.34C379.85 224.28 379.71 224.28 379.57 224.3C376.53 221 373.37 217.85 370.08 214.92C369.04 214 367.67 215.39 368.57 216.43C375.69 224.69 383.2 232.47 389.81 241.18C390.61 242.24 391.41 243.31 392.19 244.38C393.89 256.83 394.29 268.48 391.81 281.08C391.63 281.99 392.99 282.38 393.21 281.47C395.77 270.93 396.7 259.26 394.95 248.31C399.26 254.55 403.25 260.99 407.23 267.46C415.63 281.1 428.68 297.74 446.93 293.96C448.37 293.68 448.07 291.2 446.55 291.34Z" fill="#8EDEBA"/>
<path d="M348.02 330.11C347.99 330.12 347.96 330.12 347.93 330.11C347.71 328.69 347.5 327.21 347.29 325.7C346.57 320.69 345.84 315.24 345.09 309.52C344.93 308.36 344.77 307.19 344.62 306.01C342.15 287.3 339.4 266.15 336.16 248.03C334.74 240.08 329.85 232.4 322.88 228.3C315.81 224.15 305.39 226.18 300.29 219.77C298.87 218 298.11 215.8 296.77 213.97C291.3 206.53 279.18 208.14 272.3 201.98C266.25 196.56 266.33 187.32 265.02 179.3C263.04 167.17 256.75 155.78 247.53 147.64C257.22 144.78 268.82 147.56 274.49 155.93C277.9 160.97 279.56 167.48 284.54 170.98C288.22 173.56 292.96 173.93 297.23 175.37C304.67 177.88 310.79 184.03 313.28 191.48C314.53 195.23 315.03 199.49 317.82 202.29C320.22 204.7 323.78 205.47 326.7 207.21C334.32 211.75 336.23 221.74 337.39 230.53C341.06 258.32 342.85 283.14 345.65 309.53C346.36 316.27 347.13 323.11 348.02 330.11Z" fill="#3F9896"/>
<path d="M334.09 232.64C332.49 229.12 329.36 226.05 326.78 223.2C324.04 220.18 321.15 217.29 318.11 214.57C317.78 214.28 317.44 214 317.11 213.71C316.27 209.78 315.08 205.94 313.42 202.27C313.09 201.53 311.8 202.06 312.1 202.83C313.36 206.03 314.58 209.23 315.69 212.49C309.8 207.59 303.34 203.44 297.48 198.5C294.99 196.4 292.67 194.17 290.49 191.83C290.33 189.26 289.91 186.7 289.44 184.18C288.88 181.22 288.44 177.57 286.89 174.96C286.64 174.53 285.89 174.69 285.92 175.22C286.07 178.17 287.34 181.2 287.95 184.1C288.38 186.13 288.69 188.17 289.02 190.21C284.09 184.69 279.83 178.65 275.74 172.47C275.82 172.17 275.72 171.79 275.35 171.64C275.27 171.61 275.2 171.58 275.12 171.55C272.27 167.22 269.48 162.83 266.6 158.51C266.23 157.96 265.38 158.44 265.7 159.03C267.75 162.83 269.93 166.64 272.23 170.39C270.12 169.55 268 168.73 265.87 167.95C265.33 167.75 264.94 168.65 265.48 168.89C268.07 170.03 270.69 171.11 273.33 172.17C278.1 179.76 283.44 187.07 289.59 193.49C289.61 193.61 289.63 193.73 289.65 193.84C289.71 194.14 289.99 194.22 290.23 194.15C291.95 195.91 293.72 197.61 295.57 199.22C296.59 200.11 297.64 200.96 298.69 201.8C289.91 200.82 281.71 198.02 273.9 193.87C273.3 193.55 272.8 194.41 273.37 194.77C281.37 199.81 290.66 202.6 300.06 203.42C300.28 203.44 300.45 203.37 300.56 203.25C305.77 207.25 311.24 210.91 316.17 215.28C319.44 218.18 322.55 221.26 325.49 224.5C326.86 226.01 328.19 227.56 329.48 229.14C330.68 230.61 331.72 232.36 333.33 233.41C333.84 233.75 334.31 233.11 334.09 232.64Z" fill="#4AB3B0"/>
<path d="M392.62 325.15C374.33 331.87 317.23 331.86 300.71 324.63C303.53 321.38 308.23 320.23 312.6 320.12C317.21 320.01 321.85 320.79 326.41 320.13C333.14 319.14 339.41 315.04 346.19 315.58C350.64 315.94 354.66 318.27 358.97 319.4C364.95 320.97 371.26 320.18 377.44 320.35C382.85 320.52 388.65 321.65 392.62 325.15Z" fill="#844653"/>
<path d="M333.05 324.89C332.47 324.55 331.74 324.43 331.1 324.66C330.97 324.7 330.87 324.77 330.79 324.85C330.38 324.97 330.09 325.42 330.34 325.93C330.84 326.94 333.14 328.14 333.89 326.78C334.28 326.06 333.66 325.25 333.05 324.89Z" fill="#A35666"/>
<path d="M342.44 324.4C342.33 324.27 342.23 324.19 342.08 324.11C341.46 323.78 340.79 324.44 341.12 325.07C341.2 325.22 341.28 325.32 341.41 325.43C342.12 326.05 343.06 325.11 342.44 324.4Z" fill="#A35666"/>
<path d="M373.26 324.86C373.17 324.59 372.95 324.35 372.58 324.32C371.52 324.22 370.42 324.54 369.55 325.15C368.96 325.56 369 326.52 369.76 326.73C370.6 326.96 371.33 327.46 372.24 327.34C373 327.23 373.74 326.73 373.87 325.92C373.92 325.5 373.76 324.93 373.26 324.86Z" fill="#A35666"/>
<path d="M362.56 323.63C362.38 323.45 362.18 323.36 361.87 323.37C361.44 323.4 361.07 323.68 360.86 324.05C360.38 324.9 361.01 325.8 361.85 326.05C362.63 326.29 363.64 326.1 363.83 325.19C364.02 324.31 363.32 323.77 362.56 323.63Z" fill="#A35666"/>
<path d="M379.04 322.13C378.97 321.58 378.42 321.37 378.04 321.55C377.75 321.49 377.44 321.61 377.35 321.99C377.02 323.27 379.19 323.31 379.04 322.13Z" fill="#A35666"/>
<path d="M316.03 323.74C315.7 323.29 315.33 322.95 314.84 322.68C314.55 322.52 314.12 322.54 313.88 322.8C313.81 322.88 313.76 322.96 313.72 323.04C313.03 322.96 312.59 323.97 313.28 324.32C313.95 324.66 314.62 324.81 315.36 324.88C315.92 324.95 316.36 324.19 316.03 323.74Z" fill="#A35666"/>
<path d="M279.14 267.62C278.86 268.49 278.56 269.39 278.26 270.31C277.87 271.51 277.45 272.73 277.02 273.95C275.91 277.18 274.76 280.34 273.83 282.89C272.97 285.22 272.29 287.04 271.95 287.92C270.34 292.17 265.04 292.5 265.04 292.5C265.04 292.5 264.06 297.05 261.71 297.37C259.18 297.71 259.83 290.37 253.34 294.38C250.63 296.05 245.88 289.27 247.48 287.55L263.31 280.31C263.31 280.31 265.53 273.68 268.37 268.95C268.81 268.21 269.27 267.52 269.75 266.91C270.52 265.91 271.41 264.82 272.35 263.76C272.98 263.05 273.63 262.35 274.29 261.67C274.76 261.2 275.23 260.75 275.69 260.31C278.03 258.13 280.23 256.65 281.36 257.12C282.13 257.45 280.93 262.05 279.14 267.62Z" fill="#C7D3CF"/>
<path opacity="0.2" d="M277.02 273.95C275.91 277.18 274.76 280.34 273.83 282.89L268.38 268.96C268.82 268.22 269.28 267.53 269.76 266.92C270.53 265.92 271.42 264.83 272.36 263.77L277.02 273.95Z" fill="white"/>
<path opacity="0.2" d="M279.14 267.62C278.86 268.49 278.56 269.39 278.26 270.31L274.29 261.67C274.76 261.2 275.23 260.75 275.69 260.31L279.14 267.62Z" fill="white"/>
<path d="M281.36 257.12C281.36 257.12 269.91 264.59 264.65 280.51L263.31 280.31C263.31 280.31 266.28 271.45 269.75 266.91C273.23 262.38 279.21 256.22 281.36 257.12Z" fill="#1C2649"/>
<path d="M233.19 305.63C233.19 305.63 239.99 297.78 240.46 296.51C240.93 295.24 241.02 291.49 241.69 289.78C242.36 288.08 248.31 285.96 249.09 285.84C249.87 285.72 254 293.49 254.57 294.6C255.14 295.71 242.03 307.6 240.04 310.31L233.19 305.63Z" fill="#F75553"/>
<path d="M274.86 254.79C273.08 256.36 271.34 258.44 269.66 261.35C269.29 261.97 268.93 262.64 268.57 263.35C268.09 264.27 267.63 265.27 267.16 266.36C266.59 267.7 266.01 269.17 265.45 270.78C265.17 271.55 264.99 272.25 264.86 272.87C263.63 279.08 269.25 278.59 272.44 283.31C274.38 286.18 271.26 293.37 273.03 303.64C273.8 308.12 267.3 306.25 266.87 304.31C266.43 302.37 267.89 295.22 263.7 290.65C260.91 287.61 259.42 281.94 259.61 276.03C259.69 273.5 260.07 270.93 260.79 268.51C260.91 268.1 261.04 267.69 261.18 267.29C261.46 266.48 261.76 265.71 262.06 265C262.33 264.33 262.62 263.7 262.91 263.11C268.18 252.49 274.86 254.79 274.86 254.79Z" fill="#EDEBEC"/>
<path opacity="0.2" d="M267.16 266.36C266.59 267.7 266.01 269.17 265.45 270.78C265.17 271.55 264.99 272.25 264.86 272.87L259.61 276.03C259.69 273.5 260.07 270.93 260.79 268.51L267.16 266.36Z" fill="white"/>
<path opacity="0.2" d="M269.66 261.35C269.29 261.97 268.93 262.64 268.57 263.35L262.07 265.01C262.34 264.34 262.63 263.71 262.92 263.12L269.66 261.35Z" fill="white"/>
<path d="M271.06 284.64C271.39 286.81 269.91 288.84 267.74 289.17C265.57 289.5 263.54 288.02 263.21 285.85C262.88 283.68 264.36 281.65 266.53 281.32C268.7 280.98 270.73 282.47 271.06 284.64Z" fill="#C7D3CF"/>
<path d="M269.68 284.85C269.9 286.26 268.93 287.57 267.53 287.79C266.12 288.01 264.81 287.04 264.59 285.64C264.37 284.23 265.34 282.92 266.74 282.7C268.15 282.48 269.47 283.45 269.68 284.85Z" fill="#1C2649"/>
<path d="M264.19 286.62L269.84 283.45L270.08 283.84L264.48 287.03L264.19 286.62Z" fill="#C7D3CF"/>
<path d="M261.64 325.34C261.64 325.34 266.97 316.43 268.03 315.58C269.09 314.73 272.63 313.48 274.03 312.31C275.44 311.14 275.59 304.83 275.46 304.05C275.33 303.27 266.66 301.78 265.42 301.58C264.18 301.39 256.99 317.56 255.04 320.29L261.64 325.34Z" fill="#F75553"/>
<path d="M108.38 380.79C108.38 380.79 101.52 396.52 95.9801 425C90.4401 453.48 99.7301 480.26 101.41 500.5H190.82C190.82 500.5 182.65 397.79 180.29 383.39L108.38 380.79Z" fill="#61A3C5"/>
<path d="M117.67 382.13L108.38 415.61C108.38 415.61 128.86 420.41 137.65 387.98" stroke="#5190B1" stroke-miterlimit="10" stroke-linecap="round" stroke-linejoin="round"/>
<path d="M108.38 415.61C108.38 415.61 104.69 427.38 105.22 443.2C105.75 459.02 115.77 500.5 115.77 500.5" stroke="#5190B1" stroke-miterlimit="10" stroke-linecap="round" stroke-linejoin="round"/>
<path d="M148.599 234.849C148.673 234.812 148.734 234.782 148.779 234.759L198.113 234.332C198.19 234.458 198.298 234.633 198.433 234.853C198.738 235.349 199.185 236.079 199.752 237.011C200.885 238.876 202.497 241.552 204.412 244.796C208.243 251.283 213.285 260.037 218.131 269.108C222.98 278.183 227.626 287.562 230.671 295.303C232.194 299.175 233.308 302.619 233.851 305.401C234.122 306.791 234.247 308.001 234.214 309.006C234.181 310.016 233.99 310.783 233.663 311.32C230.545 316.439 225.873 325.001 221.986 332.273C220.042 335.911 218.292 339.23 217.028 341.64C216.396 342.845 215.886 343.822 215.533 344.498C215.357 344.836 215.22 345.099 215.128 345.278L215.022 345.481L214.995 345.532L214.988 345.545L214.987 345.549L214.986 345.55C214.986 345.55 214.986 345.55 215.43 345.78L214.986 345.55L214.916 345.684L214.933 345.834L219.323 386.14H101.978C103.172 375.149 104.098 358.567 105.075 341.058C105.48 333.808 105.894 326.398 106.339 319.161C106.814 311.45 107.069 303.34 107.312 295.621C107.491 289.941 107.664 284.473 107.912 279.531C108.205 273.683 108.605 268.558 109.244 264.635C109.564 262.673 109.941 261.029 110.389 259.751C110.841 258.459 111.343 257.608 111.872 257.163C117.833 252.145 127.074 246.535 134.85 242.169C138.733 239.988 142.242 238.122 144.78 236.802C146.049 236.142 147.075 235.618 147.783 235.26C148.138 235.08 148.412 234.942 148.599 234.849Z" fill="#F9C164" stroke="#DBAB5B"/>
<path d="M171.02 262.3C171.02 262.3 189.4 272.3 195.83 274.41C195.83 274.41 201.17 263.95 200.8 251.53" stroke="#DBAB5B" stroke-miterlimit="10" stroke-linecap="round" stroke-linejoin="round"/>
<path d="M159.186 316.707C169.491 328.174 186.807 340.909 214.887 346.178L210.957 386.13H101.978C103.172 375.139 104.098 358.557 105.075 341.048C105.475 333.885 105.884 326.566 106.323 319.412L145.761 295.507C145.871 295.807 146.027 296.215 146.234 296.718C146.703 297.864 147.436 299.506 148.492 301.507C150.603 305.508 154.008 310.945 159.186 316.707Z" fill="#FFA147" stroke="#DBAB5B"/>
<path d="M216.14 227.58C214.05 220.94 210.63 210.57 208.66 207.1C208.66 207.1 210.27 218.96 210.77 228.18C207.73 228.44 203.97 228.66 199.36 228.77C197.68 223.34 194.26 216.49 194.26 216.49C194.19 220.16 193.84 225.33 193.59 228.84C183.29 228.84 169.6 228.31 151.71 226.68C151.71 226.68 139.02 163.39 162.92 141.14C162.92 141.14 177.24 132.21 186.8 134.91C201.7 139.11 221.61 226.52 221.61 226.52C221.61 226.52 220.04 227.03 216.14 227.58Z" fill="#1C2649"/>
<path d="M146.55 237.09C146.55 237.09 154.76 272.47 157.13 287.51L168.13 286.15C168.13 286.15 160.54 259.25 157.34 237.1H146.55V237.09Z" fill="#80C7A5"/>
<path d="M188.07 236.57C188.07 236.57 199.11 271.18 202.68 285.97L213.54 283.73C213.54 283.73 203.8 257.53 198.83 235.71L188.07 236.57Z" fill="#80C7A5"/>
<path d="M136.34 392.54C140.49 432.92 132.65 500.5 132.65 500.5L232.61 500.51C232.61 500.51 230.24 469.58 228.15 443.74C226.06 417.89 227.6 357.23 223.78 349.24C221.72 344.93 216.92 336.58 216.4 324.09C215.87 311.6 214.29 275.47 214.29 275.47C214.29 275.47 198.51 283.64 190.64 284.81C181.3 286.2 153.23 279.16 153.23 279.16C153.23 279.16 155.25 309.98 152.7 329.27C148.67 359.85 101.43 357.75 101.43 357.75V386.63L136.34 392.54Z" fill="#3F9896"/>
<path d="M228.14 445.58L161.86 448.98L158.51 408.4C164.86 399.7 171.02 383.4 171.02 383.4L215.43 380.73C215.43 380.73 220.93 396.13 226.5 401.67" stroke="#347F7D" stroke-miterlimit="10" stroke-linecap="round" stroke-linejoin="round"/>
<path d="M168.2 390.26L217.78 386.64" stroke="#347F7D" stroke-miterlimit="10" stroke-linecap="round" stroke-linejoin="round"/>
<path d="M161.92 286.21C161.88 286.21 161.83 286.22 161.79 286.22C161.13 286.29 160.56 286.44 160.07 286.93C159.65 287.35 159.33 288.04 159.36 288.65C159.42 290.08 160.43 290.93 161.79 291.08C161.83 291.08 161.88 291.09 161.92 291.09C162.5 291.15 163.25 290.77 163.65 290.37C164.07 289.95 164.39 289.25 164.36 288.64C164.31 287.45 163.28 286.06 161.92 286.21Z" fill="#347F7D"/>
<path d="M209.03 282.62C208.99 282.62 208.94 282.63 208.9 282.63C208.24 282.7 207.67 282.85 207.18 283.34C206.76 283.76 206.44 284.45 206.47 285.06C206.53 286.49 207.54 287.34 208.9 287.49C208.94 287.49 208.99 287.5 209.03 287.5C209.61 287.56 210.36 287.18 210.76 286.78C211.18 286.36 211.5 285.66 211.47 285.05C211.42 283.86 210.39 282.47 209.03 282.62Z" fill="#347F7D"/>
<path d="M118.57 251.53C102.27 259.39 101.37 272.37 99.6599 284.41C97.9499 296.46 105.3 361.07 104.84 368.6C104.37 376.13 120.81 384.88 128.92 386.39C137.03 387.9 153.42 380.78 153.42 380.78C153.42 380.78 140.67 350.17 148.35 336.3C148.35 336.3 148.71 308.45 145.31 290.23C141.9 272.01 130.41 245.82 118.57 251.53Z" fill="#F9C164"/>
<path d="M132.65 347.47C132.65 347.47 139.16 338.96 148.34 336.31C148.34 336.31 138.45 340.7 138.45 355.12C138.45 363.56 146.56 383.4 146.56 383.4" stroke="#DBAB5B" stroke-miterlimit="10" stroke-linecap="round" stroke-linejoin="round"/>
<path d="M148.34 336.31L224.02 314.48L234.9 337.54C234.9 337.54 168.89 375.34 153.41 380.79C153.4 380.79 136.6 348.88 148.34 336.31Z" fill="#FF9A7B"/>
<path d="M217.18 349.33C217.18 349.33 230.63 340.96 234.89 337.54C234.89 337.54 241.15 340.33 248.48 333.82C248.48 333.82 246.11 334.98 247.44 336.92C248.77 338.86 252.71 340.03 255.49 338.82C258.27 337.62 258.73 333.84 258.73 333.84C261.89 333.32 260.52 329.56 260.52 329.56C260.52 329.56 263.33 328.66 263.85 326.54C264.37 324.42 263.54 321.29 263.54 321.29C266.06 322.7 271.53 320.01 271.38 318.47C271.23 316.93 258.73 304.79 252.79 304.2C250.35 303.96 244.52 304.24 244.52 304.24C244.29 302.92 241.48 300.71 239.54 301C237.6 301.29 233.37 301.4 231.7 302.29C230.03 303.18 222.61 309.91 220.67 311.14C218.72 312.37 205.81 316.63 204.94 317.23C204.07 317.83 204.02 320.24 204.02 320.24L206.62 319.49C206.62 319.49 212.56 331.64 215.71 348.37L214.01 349.32C214.01 349.33 214.84 350.8 217.18 349.33Z" fill="#61A3C5"/>
<path d="M204.95 317.23C204.95 317.23 210.2 317.24 212.59 323.03C217.67 335.29 219.71 346.67 217.18 349.32" stroke="#5190B1" stroke-miterlimit="10" stroke-linecap="round" stroke-linejoin="round"/>
<path d="M244.53 304.25C244.53 304.25 239.55 305.52 232.6 306.33" stroke="#5190B1" stroke-miterlimit="10" stroke-linecap="round" stroke-linejoin="round"/>
<path d="M142.214 229.154L142.215 229.152C142.297 229.069 142.491 228.928 142.814 228.734C143.125 228.547 143.521 228.332 143.974 228.099C144.881 227.633 145.997 227.107 147.087 226.611C148.176 226.116 149.233 225.654 150.018 225.314C150.41 225.145 150.734 225.006 150.96 224.91C151.073 224.862 151.162 224.825 151.222 224.8L151.25 224.788L182.7 220.96L182.966 221.048C183.205 221.126 183.548 221.24 183.968 221.38C184.808 221.659 185.952 222.043 187.17 222.459C189.616 223.296 192.327 224.253 193.488 224.767L193.488 224.767C193.487 224.767 193.487 224.767 193.488 224.768C193.494 224.771 193.525 224.79 193.584 224.848C193.648 224.913 193.728 225.007 193.822 225.135C194.01 225.392 194.232 225.754 194.483 226.216C194.984 227.137 195.578 228.407 196.23 229.917C197.534 232.933 199.052 236.863 200.499 240.767C201.945 244.67 203.317 248.541 204.327 251.437C204.833 252.884 205.247 254.088 205.536 254.93C205.601 255.119 205.66 255.29 205.711 255.442L195.922 253.618L195.391 253.52L195.333 254.056L193.777 268.399L178.727 261.565L178.408 261.42L178.163 261.67L171.504 268.453L171.482 268.434C171.236 268.219 170.875 267.904 170.416 267.503C169.499 266.699 168.188 265.549 166.618 264.163C163.476 261.391 159.293 257.676 155.127 253.903C150.96 250.13 146.814 246.303 143.745 243.305C142.209 241.805 140.949 240.52 140.093 239.556C139.663 239.073 139.346 238.682 139.146 238.391C139.046 238.245 138.986 238.14 138.956 238.071C138.956 238.071 138.956 238.071 138.956 238.07C139.231 237.11 139.805 235.139 140.438 233.266C140.764 232.299 141.103 231.367 141.423 230.615C141.583 230.239 141.735 229.915 141.875 229.659C142.02 229.393 142.135 229.232 142.214 229.154ZM138.939 238.023C138.939 238.023 138.94 238.026 138.941 238.032C138.939 238.026 138.938 238.023 138.939 238.023Z" fill="white" stroke="#E6E6E6"/>
<path d="M195.84 254.1L192.51 251.53L190.83 258.85L183.54 254.1L178.52 262.02" stroke="#E6E6E6" stroke-miterlimit="10" stroke-linecap="round" stroke-linejoin="round"/>
<path d="M148.66 234.25C148.66 234.25 195.03 263.99 190.52 243.4L183.54 223.53L176.33 194.91L149.49 186.6C150.24 200.67 151.14 223.53 148.66 234.25Z" fill="#FF9A7B"/>
<path d="M159.75 189.78C155.23 210.89 163.04 228.19 183.53 223.54L176.32 194.92L159.75 189.78Z" fill="#EE6A5E"/>
<path d="M173.75 215.16C179.56 215.77 194.07 213.12 191.85 199.81C190.37 190.96 191.97 173.54 188.82 169.88C188.82 169.88 159.87 140.33 144.74 174.87C142.17 180.69 151.62 212.83 173.75 215.16Z" fill="#FF9A7B"/>
<path d="M174.646 206.763C167.673 208.195 165.762 201.785 165.762 201.785" stroke="#F27153" stroke-width="0.5" stroke-miterlimit="10" stroke-linecap="round" stroke-linejoin="round"/>
<path d="M176.177 177.623C176.252 185.725 176.913 192.766 179.267 195.123C181.631 197.48 178.834 198.507 176.838 199.566" stroke="#F27153" stroke-width="0.5" stroke-miterlimit="10" stroke-linecap="round" stroke-linejoin="round"/>
<path d="M167.881 185.056C167.821 184.465 167.257 184.036 166.548 183.955C166.838 182.669 167.431 181.848 168.354 182.293C171.035 183.574 170.711 191.59 168.211 190.912C167.086 190.604 166.467 188.574 166.358 186.552C167.28 186.437 167.96 185.777 167.881 185.056Z" fill="#192119"/>
<path d="M182.332 180.599C182.271 180.018 181.728 179.589 181.029 179.498C181.328 178.273 181.91 177.492 182.814 177.926C185.494 179.207 185.17 187.223 182.67 186.545C181.535 186.237 180.907 184.147 180.819 182.085C181.741 181.97 182.411 181.32 182.332 180.599Z" fill="#192119"/>
<path d="M182.72 154.03C182.72 154.03 169.14 132.67 153.18 133.58C141.28 134.26 108.91 177.09 102.12 224.93L142.13 229.65L144.36 217.61L148.48 230.51L158.17 231.83C158.17 231.83 145.32 211.89 152.18 185.7C156.84 167.9 190.61 186.99 182.72 154.03Z" fill="#1C2649"/>
<path d="M153.01 202.07C149.98 209.62 134.97 194.27 138.33 188.66C141.69 183.04 157.77 190.19 153.01 202.07Z" fill="#FF9A7B"/>
<path d="M149.61 198.79C145.7 193.05 140.54 190.35 140.54 190.35" stroke="#F27153" stroke-width="0.5" stroke-miterlimit="10" stroke-linecap="round" stroke-linejoin="round"/>
</g>
<defs>
<clipPath id="clip0_1988_6286">
<rect width="500" height="501.01" fill="white"/>
</clipPath>
</defs>
</svg>
