<svg width="544" height="500" viewBox="0 0 544 500" fill="none" xmlns="http://www.w3.org/2000/svg">
<g clip-path="url(#clip0_1998_5465)">
<rect width="543.58" height="500" fill="#FFF2E5"/>
<path d="M537.09 118.14C537.09 118.14 520.11 112.65 511.62 130.63C511.62 130.63 502.63 128.88 500.13 137.37C500.13 137.37 491.89 137.37 490.14 142.86C490.14 142.86 472.66 133.12 464.67 153.35C464.67 153.35 454.18 151.85 449.94 158.34C445.69 164.83 447.44 169.08 447.44 169.08C447.44 169.08 439.7 165.08 433.7 169.58C427.71 174.08 428.96 185.56 428.96 185.56C428.96 185.56 417.47 181.06 412.73 186.31C407.99 191.55 411.73 199.05 411.73 199.05C411.73 199.05 391.75 199.3 391.5 220.28C391.5 220.28 381.26 224.28 380.76 230.27C380.26 236.26 380.51 238.01 380.51 238.01C380.51 238.01 365.03 239.01 362.28 248.25C359.53 257.49 360.78 264.48 360.78 264.48C360.78 264.48 347.04 266.23 344.05 271.97C341.05 277.71 341.05 286.74 341.05 286.74L543.58 289.24L537.09 118.14Z" fill="#D2E1D4"/>
<path d="M482.36 166.5C484.476 166.5 486.19 164.785 486.19 162.67C486.19 160.555 484.476 158.84 482.36 158.84C480.245 158.84 478.53 160.555 478.53 162.67C478.53 164.785 480.245 166.5 482.36 166.5Z" fill="#A7C4A0"/>
<path d="M453.14 209.91C455.664 209.91 457.71 207.864 457.71 205.34C457.71 202.816 455.664 200.77 453.14 200.77C450.616 200.77 448.57 202.816 448.57 205.34C448.57 207.864 450.616 209.91 453.14 209.91Z" fill="#A7C4A0"/>
<path d="M444.93 225.67C444.93 227.09 443.78 228.24 442.36 228.24C440.94 228.24 439.79 227.09 439.79 225.67C439.79 224.25 440.94 223.1 442.36 223.1C443.78 223.1 444.93 224.25 444.93 225.67Z" fill="#A7C4A0"/>
<path d="M523.27 250.62C523.27 253.16 521.21 255.22 518.67 255.22C516.13 255.22 514.07 253.16 514.07 250.62C514.07 248.08 516.13 246.02 518.67 246.02C521.21 246.02 523.27 248.08 523.27 250.62Z" fill="#A7C4A0"/>
<path d="M523.7 226.81C525.213 226.81 526.44 225.583 526.44 224.07C526.44 222.557 525.213 221.33 523.7 221.33C522.187 221.33 520.96 222.557 520.96 224.07C520.96 225.583 522.187 226.81 523.7 226.81Z" fill="#A7C4A0"/>
<path d="M351.29 276.97C351.29 276.97 351.96 259.32 342.97 255.33C333.98 251.33 333.98 251.33 333.98 251.33C333.98 251.33 335.31 235.01 330.32 231.68C325.33 228.35 320.33 230.35 320.33 230.35C320.33 230.35 316.33 214.37 311.67 212.04C307.01 209.71 302.68 212.04 302.68 212.04C302.68 212.04 296.69 204.05 292.36 202.72C288.03 201.39 285.7 201.72 285.7 201.72C285.7 201.72 279.37 191.73 273.05 189.07C266.72 186.41 261.73 191.07 261.73 191.07C261.73 191.07 258.4 185.58 255.65 183.83C252.9 182.08 248.66 185.08 248.66 185.08C248.66 185.08 243.42 175.34 235.42 173.84C227.43 172.34 220.19 176.59 220.19 176.59C220.19 176.59 218.69 167.35 211.45 165.1C204.21 162.85 200.71 166.35 200.71 166.35C200.71 166.35 198.46 158.36 188.47 155.36C178.48 152.36 174.24 158.86 174.24 158.86C174.24 158.86 168.25 153.87 164.75 153.62C161.25 153.37 157.51 155.87 157.51 155.87C157.51 155.87 153.76 149.63 146.27 151.37C138.78 153.12 139.53 158.86 139.53 158.86C139.53 158.86 133.29 157.61 131.04 160.61C128.79 163.61 127.54 167.1 127.54 167.1C127.54 167.1 122.8 167.1 120.55 168.6C118.3 170.1 118.05 174.84 118.05 174.84C118.05 174.84 108.56 174.59 104.81 178.84C101.06 183.09 100.81 187.08 100.81 187.08C100.81 187.08 89.0698 185.83 87.0698 193.57C87.0698 193.57 80.0798 190.82 78.0798 196.32C78.0798 196.32 71.0898 194.57 68.3398 197.32C65.5898 200.07 64.5898 203.31 64.5898 203.31C64.5898 203.31 53.3498 201.56 49.1098 206.31C44.8598 211.05 44.8598 218.05 44.8598 218.05C44.8598 218.05 30.1298 218.3 29.6298 233.78C29.6298 233.78 22.3898 234.78 21.1398 243.77C21.1398 243.77 11.1498 246.02 12.1498 254.51C12.1498 254.51 0.159785 261 2.90978 276.99C2.90978 276.99 -0.840215 280.99 0.159785 288.48H352.28C352.29 288.46 359.78 283.21 351.29 276.97Z" fill="#D2E1D4"/>
<path d="M150.7 192.41C152.213 192.41 153.44 191.183 153.44 189.67C153.44 188.157 152.213 186.93 150.7 186.93C149.187 186.93 147.96 188.157 147.96 189.67C147.96 191.183 149.187 192.41 150.7 192.41Z" fill="#A7C4A0"/>
<path d="M84.3604 238.06C87.7901 238.06 90.5704 235.28 90.5704 231.85C90.5704 228.42 87.7901 225.64 84.3604 225.64C80.9307 225.64 78.1504 228.42 78.1504 231.85C78.1504 235.28 80.9307 238.06 84.3604 238.06Z" fill="#A7C4A0"/>
<path d="M56.6097 238.82C56.6097 241.07 54.7897 242.89 52.5397 242.89C50.2897 242.89 48.4697 241.07 48.4697 238.82C48.4697 236.57 50.2897 234.75 52.5397 234.75C54.7897 234.75 56.6097 236.57 56.6097 238.82Z" fill="#A7C4A0"/>
<path d="M86.0298 261.27C87.2834 261.27 88.2998 260.254 88.2998 259C88.2998 257.746 87.2834 256.73 86.0298 256.73C84.7761 256.73 83.7598 257.746 83.7598 259C83.7598 260.254 84.7761 261.27 86.0298 261.27Z" fill="#A7C4A0"/>
<path d="M48.48 263.54C49.7336 263.54 50.75 262.523 50.75 261.27C50.75 260.016 49.7336 259 48.48 259C47.2263 259 46.21 260.016 46.21 261.27C46.21 262.523 47.2263 263.54 48.48 263.54Z" fill="#A7C4A0"/>
<path d="M199.12 187.7C201.843 187.7 204.05 185.493 204.05 182.77C204.05 180.047 201.843 177.84 199.12 177.84C196.398 177.84 194.19 180.047 194.19 182.77C194.19 185.493 196.398 187.7 199.12 187.7Z" fill="#A7C4A0"/>
<path d="M183.07 213C183.07 214.67 181.72 216.02 180.05 216.02C178.38 216.02 177.03 214.67 177.03 213C177.03 211.33 178.38 209.98 180.05 209.98C181.71 209.98 183.07 211.33 183.07 213Z" fill="#A7C4A0"/>
<path d="M289 265.2C291.463 265.2 293.46 263.203 293.46 260.74C293.46 258.277 291.463 256.28 289 256.28C286.537 256.28 284.54 258.277 284.54 260.74C284.54 263.203 286.537 265.2 289 265.2Z" fill="#A7C4A0"/>
<path d="M300.5 240.43C300.5 242.09 299.16 243.43 297.5 243.43C295.84 243.43 294.5 242.09 294.5 240.43C294.5 238.77 295.84 237.43 297.5 237.43C299.15 237.43 300.5 238.78 300.5 240.43Z" fill="#A7C4A0"/>
<path d="M527.68 345.8L521.06 387.08C521.06 388.91 511.59 390.4 499.89 390.4C488.19 390.4 478.72 388.91 478.72 387.08L472.1 345.8H527.68Z" fill="#D2E1D4"/>
<path d="M527.679 345.8C527.679 348.21 515.239 350.17 499.899 350.17C484.549 350.17 472.119 348.22 472.119 345.8C472.119 343.38 484.559 341.43 499.899 341.43C515.239 341.43 527.679 343.39 527.679 345.8Z" fill="#32584E"/>
<path d="M499.89 297.88C499.63 297.88 499.42 298.09 499.42 298.35V345.8C499.42 346.06 499.63 346.27 499.89 346.27C500.15 346.27 500.36 346.06 500.36 345.8V298.35C500.36 298.09 500.15 297.88 499.89 297.88Z" fill="#32584E"/>
<path d="M499.63 304.73C499.63 304.73 481.36 293.48 484.79 274.43C484.79 274.43 500.72 283.95 499.63 304.73Z" fill="#A7C4A0"/>
<path d="M499.63 330.5C499.63 330.5 498.29 312.69 475.3 303.17C475.29 303.17 483.38 329.09 499.63 330.5Z" fill="#32584E"/>
<path d="M499.63 304.73C499.63 304.73 501.19 280.21 516.5 272.24C516.49 272.24 517.28 298.48 499.63 304.73Z" fill="#32584E"/>
<path d="M499.63 330.5C499.63 330.5 506.66 302.85 528.84 299.26C528.83 299.26 524.93 323.47 499.63 330.5Z" fill="#A7C4A0"/>
<path d="M452.979 301.73C452.979 301.73 453.039 301.47 453.159 300.97C454.889 293.4 468.779 230.31 470.309 156.2C470.319 155.74 470.699 155.37 471.159 155.38C471.619 155.39 471.989 155.77 471.979 156.23C470.339 235.48 454.609 302.07 454.609 302.11C454.499 302.56 454.049 302.84 453.609 302.73C453.149 302.63 452.869 302.18 452.979 301.73Z" fill="#20604F"/>
<path d="M468.469 99.9299C468.469 99.9299 486.649 118.86 471.139 156.22C471.139 156.22 453.769 124.69 468.469 99.9299Z" fill="#A7C4A0"/>
<path d="M471.14 156.22C471.14 156.22 486 143.12 497.87 140.1C509.73 137.08 521.9 153.1 520.84 157.75C519.78 162.4 504 154.04 495.31 152.56C486.61 151.07 471.14 156.22 471.14 156.22Z" fill="#32584E"/>
<path d="M471.139 156.22C471.139 156.22 451.909 149.29 446.189 148.38C440.469 147.48 430.179 150.52 427.649 148.99C425.119 147.46 436.969 137.16 447.059 136.32C457.159 135.48 471.139 156.22 471.139 156.22Z" fill="#A7C4A0"/>
<path d="M470.279 179.12C470.279 179.12 487.479 168.18 499.509 168.95C511.539 169.72 524.659 185 524.489 187.15C524.319 189.3 503.539 181.68 494.489 180.92C485.429 180.15 470.279 179.12 470.279 179.12Z" fill="#A7C4A0"/>
<path d="M521.209 217.14C526.239 215.49 511.199 194.91 500.029 191.88C488.859 188.85 469.169 196.07 469.169 196.07C469.169 196.07 489.729 199.38 499.089 205.27C508.439 211.17 517.999 218.19 521.209 217.14Z" fill="#32584E"/>
<path d="M518.47 240.8C523.5 239.15 508.46 218.57 497.29 215.54C486.12 212.51 466.43 219.73 466.43 219.73C466.43 219.73 486.99 223.04 496.35 228.93C505.7 234.83 515.26 241.85 518.47 240.8Z" fill="#A7C4A0"/>
<path d="M511.549 263.78C516.359 262.59 503.739 242.32 493.519 238.72C483.299 235.12 464.399 240.49 464.399 240.49C464.399 240.49 483.379 245.01 491.709 251.16C500.039 257.31 508.489 264.54 511.549 263.78Z" fill="#32584E"/>
<path d="M469.169 196.07C469.169 196.07 455.119 186.36 444.069 186.67C433.019 186.98 421.399 192.19 421.399 196.19C421.409 200.18 437.069 195.27 451.069 196.1C465.069 196.92 469.169 196.07 469.169 196.07Z" fill="#A7C4A0"/>
<path d="M465.569 219.8C465.569 219.8 452.099 209.68 441.479 209.63C430.849 209.58 419.629 214.39 419.619 218.36C419.609 222.34 434.709 217.96 448.169 219.23C461.629 220.51 465.569 219.8 465.569 219.8Z" fill="#32584E"/>
<path d="M464.499 240.16C464.499 240.16 450.069 231.48 439.489 232.52C428.909 233.56 418.249 239.5 418.639 243.45C419.029 247.4 433.609 241.5 447.129 241.38C460.649 241.28 464.499 240.16 464.499 240.16Z" fill="#A7C4A0"/>
<path d="M470.279 179.12C470.279 179.12 454.679 165.63 445.089 164.2C435.489 162.77 424.559 172.47 424.079 174.63C423.599 176.79 430.709 173.75 445.859 175.37C461.009 176.98 470.279 179.12 470.279 179.12Z" fill="#32584E"/>
<path d="M469.7 304.89L463.46 343.85C463.46 345.58 454.52 346.99 443.48 346.99C432.44 346.99 423.5 345.58 423.5 343.85L417.26 304.89H469.7Z" fill="#D2E1D4"/>
<path d="M469.7 304.89C469.7 307.17 457.96 309.01 443.48 309.01C429 309.01 417.26 307.17 417.26 304.89C417.26 302.61 429 300.77 443.48 300.77C457.96 300.77 469.7 302.61 469.7 304.89Z" fill="#32584E"/>
<path d="M443.48 309.01C443.48 309.01 413.05 299.41 410.02 277.29C410.01 277.29 439.64 281.24 443.48 309.01Z" fill="#20604F"/>
<path d="M443.479 309.01C443.479 309.01 452.969 278.21 475.109 275.05C475.109 275.04 471.279 305.01 443.479 309.01Z" fill="#A7C4A0"/>
<path d="M443.48 309.01C443.48 309.01 433.98 273.67 452.97 257.69C452.97 257.69 467.3 288.91 443.48 309.01Z" fill="#20604F"/>
<path d="M443.48 309.01C443.48 309.01 418.79 282 428.3 259.08C428.29 259.08 455.38 280.21 443.48 309.01Z" fill="#A7C4A0"/>
<path d="M197.23 343.72C197.05 347.76 196.95 351.67 196.95 355.39C196.95 358.66 179.84 361.3 158.74 361.3C137.64 361.3 120.53 358.65 120.53 355.39C120.53 351.67 120.43 347.76 120.25 343.72C120.75 346.76 135.97 349.23 155.3 349.5C156.43 349.51 157.58 349.52 158.74 349.52C159.9 349.52 161.05 349.51 162.18 349.5C181.51 349.23 196.73 346.76 197.23 343.72Z" fill="#A7C4A0"/>
<path d="M204.69 274.47C204.69 274.47 204.67 274.62 204.62 274.9C204.62 274.91 204.62 274.92 204.62 274.92C204.11 276.52 200.91 277.99 195.82 279.2C187.46 281.18 173.96 282.47 158.74 282.47C143.52 282.47 130.02 281.18 121.66 279.2C116.57 277.99 113.37 276.52 112.86 274.92C112.86 274.92 112.86 274.91 112.86 274.9C112.81 274.62 112.79 274.47 112.79 274.47C112.79 270.05 133.36 266.48 158.74 266.48C184.13 266.48 204.69 270.06 204.69 274.47Z" fill="#20604F"/>
<path d="M204.62 274.92C204.45 276.02 203.98 279.08 203.34 283.5V283.54C203.32 283.64 203.31 283.75 203.29 283.85C203.29 283.87 203.29 283.88 203.28 283.9C202.09 288 182.6 291.25 158.74 291.25C134.88 291.25 115.39 287.99 114.2 283.9C114.19 283.88 114.19 283.87 114.19 283.85C114.17 283.75 114.16 283.64 114.14 283.54V283.5C113.5 279.07 113.03 276.02 112.86 274.92C113.37 276.52 116.57 277.99 121.66 279.2C130.02 281.18 143.52 282.47 158.74 282.47C173.96 282.47 187.46 281.18 195.82 279.2C200.92 277.99 204.12 276.52 204.62 274.92Z" fill="#A7C4A0"/>
<path d="M203.29 283.9C201.42 297.11 198.22 321.93 197.25 343.56V343.57C197.25 343.62 197.25 343.67 197.24 343.72C196.74 346.76 181.52 349.23 162.19 349.5C161.06 349.48 159.91 349.47 158.75 349.47C157.59 349.47 156.44 349.48 155.31 349.5C135.98 349.23 120.76 346.75 120.26 343.72C120.25 343.67 120.25 343.62 120.25 343.57V343.56C119.28 321.93 116.07 297.11 114.21 283.9C115.4 288 134.89 291.25 158.75 291.25C182.61 291.25 202.1 288 203.29 283.9Z" fill="#D2E1D4"/>
<path d="M127.67 172.57C143.82 203.2 150.46 263.78 152.17 282.38C153.67 282.42 155.2 282.44 156.75 282.45C146.76 186.06 127.67 172.57 127.67 172.57Z" fill="#A7C4A0"/>
<path d="M128.5 172.9C128.5 172.9 126.84 162.58 119.84 160.41C112.85 158.25 103.02 165.4 103.02 165.4C103.02 165.4 105.52 167.73 108.51 170.23C111.51 172.73 106.51 175.39 100.85 170.23C95.1898 165.07 87.5298 170.56 79.8698 176.89C79.8698 176.89 83.0298 178.22 86.3598 179.22C89.6898 180.22 83.6998 183.05 78.6998 181.72C73.7098 180.39 62.3798 200.7 62.3798 200.7L69.0398 201.03C69.0398 201.03 63.5498 206.02 62.5498 215.51C61.5498 225 60.5498 227.66 60.5498 227.66C60.5498 227.66 71.3698 222.67 76.0298 220C80.6898 217.34 81.3598 213.34 81.3598 213.34C81.3598 213.34 83.0198 215.34 82.0298 219.67C82.0298 219.67 92.1898 216.01 95.8498 213.34C99.5098 210.68 97.6798 205.35 99.1798 202.52C100.68 199.69 103.51 204.35 102.51 209.85C102.51 209.85 110.67 208.19 114.16 205.35C117.66 202.52 115.82 199.52 116.99 197.19C118.16 194.86 121.32 195.19 120.82 199.52C120.32 203.85 120.32 203.85 120.32 203.85C120.32 203.85 129.64 199.85 133.14 194.53C136.66 189.22 139.15 179.06 128.5 172.9Z" fill="#20604F"/>
<path d="M125.019 173.93C126.159 173.57 126.829 173.4 126.869 173.39C127.139 173.33 127.299 173.06 127.239 172.79C127.179 172.52 126.909 172.36 126.639 172.42C126.589 172.43 125.849 172.62 124.549 173.03C122.689 168.62 120.079 165.75 116.739 164.53C111.669 162.68 106.879 165.29 106.679 165.41C106.439 165.54 106.349 165.85 106.489 166.09C106.619 166.33 106.929 166.42 107.169 166.28C107.219 166.26 111.759 163.77 116.399 165.47C119.439 166.58 121.849 169.24 123.599 173.34C119.929 174.57 113.239 177.2 105.159 182C104.469 179.07 103.099 177.04 101.069 175.96C97.2495 173.94 92.5695 176.03 92.3695 176.12C92.1195 176.23 92.0095 176.53 92.1195 176.78C92.2295 177.03 92.5295 177.14 92.7795 177.03C92.8195 177.01 97.2195 175.05 100.599 176.84C102.429 177.81 103.649 179.73 104.249 182.53C99.3395 185.51 93.9495 189.3 88.4395 194.05C86.7295 190.72 84.5995 188.88 82.0995 188.61C77.1195 188.07 72.6195 193.88 72.4295 194.12C72.2595 194.34 72.2995 194.65 72.5195 194.82C72.7395 194.99 73.0495 194.95 73.2195 194.73C73.2595 194.67 77.5695 189.12 81.9895 189.6C84.1895 189.84 86.0895 191.57 87.6595 194.72C82.1395 199.57 76.5095 205.4 71.1395 212.39C70.9695 212.61 71.0095 212.92 71.2295 213.09C71.3195 213.16 71.4295 213.19 71.5295 213.19C71.6795 213.19 71.8295 213.12 71.9295 212.99C77.2595 206.06 82.8295 200.29 88.2995 195.48C91.6195 197.01 93.8495 200.27 93.9995 203.86C94.0995 206.34 93.2495 211.04 86.4595 214.69C86.2195 214.82 86.1295 215.12 86.2595 215.37C86.3495 215.54 86.5195 215.63 86.6995 215.63C86.7795 215.63 86.8595 215.61 86.9395 215.57C92.2495 212.72 95.1895 208.44 95.0095 203.82C94.8595 200 92.5595 196.53 89.1295 194.78C94.5195 190.13 99.7895 186.41 104.599 183.48C104.649 183.52 104.689 183.56 104.749 183.58C107.969 184.55 109.969 186.52 110.689 189.45C112.049 194.98 108.509 202.09 105.429 205.09C105.229 205.28 105.229 205.6 105.419 205.8C105.519 205.9 105.649 205.95 105.779 205.95C105.909 205.95 106.029 205.9 106.129 205.81C109.379 202.64 113.109 195.11 111.659 189.21C110.909 186.17 108.839 183.98 105.669 182.85C113.739 178.05 120.409 175.46 123.999 174.25C124.029 174.33 124.079 174.4 124.139 174.45C127.139 177.05 130.309 181.74 130.209 187.09C130.129 191.52 127.909 195.51 123.609 198.97C123.399 199.14 123.359 199.46 123.529 199.67C123.629 199.79 123.769 199.86 123.919 199.86C124.029 199.86 124.139 199.82 124.229 199.75C128.699 196.15 131.109 191.78 131.199 187.11C131.279 182.38 128.969 177.47 125.019 173.93Z" fill="#A7C4A0"/>
<path d="M162.82 282.43C163.65 258.37 167.1 162.14 170.29 128.45C170.29 128.45 161.87 152.1 157.48 282.45C157.9 282.45 158.32 282.46 158.74 282.46C160.12 282.46 161.47 282.45 162.82 282.43Z" fill="#A7C4A0"/>
<path d="M142.03 164.7C141.91 149.84 144.78 146.84 144.78 146.84C144.78 146.84 147.03 152.46 149.77 151.09C152.52 149.72 150.27 145.72 147.9 139.6C145.53 133.48 153.89 123.12 153.89 123.12C153.89 123.12 153.89 129.11 156.64 128.36C159.39 127.61 158.89 126.49 158.76 120.24C158.64 114 174.74 102.51 174.74 102.51C174.74 102.51 180.23 112.37 183.36 117.87C186.48 123.36 180.99 132.73 182.36 134.48C183.73 136.23 187.85 128.74 187.85 128.74C187.85 128.74 192.47 138.23 193.34 141.6C194.21 144.97 182.85 154.59 183.6 157.71C184.35 160.83 191.09 154.84 191.09 154.84C191.09 154.84 192.34 166.2 189.97 172.57C187.6 178.94 168.49 185.43 165 186.43C165 186.43 142.15 179.56 142.03 164.7Z" fill="#20604F"/>
<path d="M187.081 160.93C186.801 160.9 186.571 161.12 186.551 161.4C186.281 165.96 184.741 169.12 181.971 170.8C176.621 174.04 168.18 170.91 166.43 170.2C166.9 163.3 167.571 154.8 168.491 145.9C169.701 146.3 172.491 147.11 175.611 147.11C177.751 147.11 180.041 146.73 182.071 145.58C185.001 143.92 186.851 140.93 187.551 136.71C187.601 136.44 187.411 136.18 187.141 136.14C186.871 136.1 186.611 136.28 186.571 136.55C185.921 140.45 184.25 143.2 181.59 144.71C176.83 147.41 170.221 145.43 168.611 144.88C169.251 138.81 170 132.59 170.87 126.57C171.54 126.86 172.651 127.25 173.851 127.25C174.641 127.25 175.461 127.08 176.211 126.61C178.231 125.35 179.111 122.33 178.811 117.62C178.791 117.34 178.561 117.13 178.281 117.15C178.001 117.17 177.801 117.4 177.811 117.68C178.081 121.93 177.34 124.72 175.68 125.76C174.03 126.79 171.81 125.92 171.01 125.54C171.83 120.07 172.75 114.8 173.79 110.02C173.85 109.75 173.681 109.48 173.411 109.43C173.141 109.37 172.871 109.54 172.821 109.81C171.781 114.61 170.851 119.88 170.031 125.35C167.351 125.56 165.53 125.03 164.65 123.74C162.77 121 165.421 115.68 165.451 115.63C165.571 115.38 165.48 115.08 165.23 114.96C164.98 114.83 164.681 114.93 164.561 115.18C164.441 115.42 161.611 121.08 163.831 124.31C164.901 125.87 166.951 126.55 169.891 126.36C169.011 132.41 168.251 138.67 167.611 144.77C162.211 145.67 158.361 144.96 156.201 142.63C153.111 139.31 154.481 133.73 154.501 133.67C154.571 133.4 154.411 133.13 154.141 133.06C153.871 132.99 153.601 133.15 153.531 133.42C153.471 133.67 152.011 139.58 155.471 143.3C157.841 145.85 161.9 146.68 167.51 145.79C166.59 154.7 165.921 163.21 165.451 170.11C159.831 171.63 155.461 171.26 152.471 169C148.331 165.86 148.271 160.06 148.271 160C148.271 159.72 148.051 159.5 147.771 159.5C147.491 159.5 147.271 159.72 147.271 160C147.271 160.26 147.321 166.34 151.861 169.79C155.041 172.2 159.601 172.65 165.381 171.15C164.781 180.18 164.521 186.23 164.521 186.4C164.511 186.68 164.721 186.91 165.001 186.92C165.011 186.92 165.011 186.92 165.021 186.92C165.291 186.92 165.511 186.71 165.521 186.44C165.531 186.27 165.781 180.24 166.381 171.23C167.921 171.84 171.901 173.24 176.021 173.24C178.271 173.24 180.55 172.82 182.51 171.64C185.57 169.78 187.281 166.35 187.571 161.45C187.561 161.18 187.351 160.95 187.081 160.93Z" fill="#A7C4A0"/>
<path d="M162.859 282.43C164.549 282.4 166.209 282.36 167.849 282.3C171.389 271.77 190.119 225.66 200.119 200.75C201.699 196.8 201.369 197.75 199.259 196.71C199.259 196.71 170.499 250.12 162.859 282.43Z" fill="#A7C4A0"/>
<path d="M199.26 196.71C199.26 196.71 197.76 216.02 200.26 220.52C202.76 225.02 212.41 232.84 212.41 232.84C212.41 232.84 210.58 227.68 212.24 223.52C213.9 219.36 214.57 233.01 216.24 235.01C217.9 237.01 227.73 243 227.73 243C227.73 243 224.57 235.84 226.07 232.18C227.57 228.52 230.57 240.84 233.23 243.83C235.89 246.83 255.37 248.66 256.04 248.66C256.71 248.66 257.37 231.35 256.54 225.35C255.71 219.36 250.71 214.53 250.71 214.53L252.71 215.03C252.71 215.03 248.05 204.71 244.89 201.05C241.73 197.39 237.4 197.05 236.23 196.22C235.06 195.39 238.89 194.89 240.73 195.72C240.73 195.72 237.9 190.73 230.24 188.56C222.56 186.39 209.91 190.55 199.26 196.71Z" fill="#20604F"/>
<path d="M257.38 246.56C253.29 236.68 247.12 228.45 240.34 221.71C241.34 220.91 243.93 219.17 246.65 219.93C249.61 220.76 251.93 224.22 253.53 230.23C253.6 230.5 253.88 230.65 254.14 230.58C254.41 230.51 254.56 230.23 254.49 229.97C252.79 223.59 250.24 219.89 246.91 218.97C243.64 218.06 240.68 220.13 239.61 221.01C236.04 217.54 232.32 214.48 228.65 211.8C228.9 210.74 229.81 207.83 232.46 206.57C235.2 205.26 239 206.03 243.76 208.85C244 208.99 244.3 208.91 244.44 208.68C244.58 208.44 244.5 208.14 244.27 208C239.21 205 235.09 204.22 232.03 205.68C229.26 207 228.17 209.77 227.78 211.19C223.82 208.36 219.95 205.98 216.43 204.02C216.3 202.84 216.1 198.84 218.81 196.14C221.38 193.57 225.84 192.84 232.06 193.95C232.33 194 232.59 193.82 232.64 193.55C232.69 193.28 232.51 193.02 232.24 192.97C225.68 191.79 220.92 192.62 218.11 195.43C215.48 198.05 215.29 201.65 215.39 203.44C207.05 198.9 200.93 196.81 200.77 196.75C200.51 196.66 200.23 196.8 200.14 197.07C200.05 197.33 200.19 197.61 200.46 197.7C200.61 197.75 206.37 199.72 214.29 203.97C211.53 204.16 209.49 205.17 208.15 207.01C204.08 212.58 208.18 223.64 208.35 224.11C208.43 224.31 208.62 224.43 208.82 224.43C208.88 224.43 208.94 224.42 209 224.4C209.26 224.3 209.39 224.01 209.29 223.76C209.25 223.65 205.21 212.74 208.96 207.6C210.36 205.68 212.72 204.79 215.98 204.96C216.01 204.96 216.03 204.95 216.06 204.95C219.4 206.81 223.05 209.05 226.79 211.7C222.79 211.92 220.12 213.2 218.87 215.54C215.83 221.26 222.36 231.03 222.64 231.45C222.74 231.59 222.89 231.67 223.05 231.67C223.15 231.67 223.24 231.64 223.33 231.58C223.56 231.43 223.62 231.11 223.46 230.89C223.39 230.79 216.98 221.2 219.74 216.01C220.93 213.78 223.71 212.65 228.01 212.65C228.03 212.65 228.05 212.64 228.07 212.65H228.08C231.6 215.22 235.17 218.15 238.6 221.46C235.58 222.17 233.8 223.51 233.31 225.46C231.75 231.79 244.8 242.12 245.36 242.56C245.45 242.63 245.56 242.67 245.67 242.67C245.82 242.67 245.96 242.6 246.06 242.48C246.23 242.26 246.19 241.95 245.98 241.78C245.85 241.68 232.88 231.42 234.29 225.71C234.71 224.03 236.45 222.88 239.46 222.3C246.22 228.98 252.37 237.16 256.44 246.99C256.52 247.18 256.71 247.3 256.9 247.3C256.96 247.3 257.03 247.29 257.09 247.26C257.36 247.11 257.48 246.82 257.38 246.56Z" fill="#A7C4A0"/>
<path d="M182.609 234.75C175.899 243.83 164.969 271.33 160.689 282.45C162.569 282.44 164.419 282.41 166.229 282.35C170.799 266.64 182.609 234.75 182.609 234.75Z" fill="#A7C4A0"/>
<path d="M230.429 269.47C229.679 265.97 226.309 262.48 223.559 261.35C220.809 260.23 223.559 257.98 226.929 260.6C226.929 260.6 226.429 254.86 223.309 250.36C220.979 247.01 217.689 247.74 215.189 245.99C212.689 244.24 217.189 243.49 220.179 245.12C220.179 245.12 213.559 236.25 208.819 233.01C204.079 229.76 189.969 231.01 182.599 234.76C182.599 234.76 179.849 249.87 180.599 255.61C181.349 261.35 189.089 267.47 189.089 267.47C189.089 267.47 187.969 260.6 190.459 258.85C192.959 257.1 191.579 266.34 192.959 270.09C194.329 273.84 207.069 280.2 207.069 280.2C207.069 280.2 205.069 270.84 207.069 269.84C209.069 268.84 209.569 278.96 210.939 280.83C212.309 282.7 230.419 282.58 230.419 282.58C230.419 282.58 231.179 272.96 230.429 269.47Z" fill="#20604F"/>
<path d="M228.309 280C226.259 275.74 223.459 271.54 220.249 267.5C221.099 267.07 222.939 266.34 224.499 267.14C226.219 268.02 227.179 270.49 227.359 274.49C227.369 274.77 227.609 275 227.879 274.97C228.159 274.96 228.369 274.72 228.359 274.45C228.159 270.07 227.009 267.31 224.949 266.25C222.849 265.18 220.499 266.22 219.609 266.71C215.879 262.13 211.669 257.79 207.469 253.89C207.919 253.12 209.309 251.05 211.539 250.81C213.819 250.56 216.369 252.24 219.119 255.8C219.289 256.02 219.599 256.06 219.819 255.89C220.039 255.72 220.079 255.41 219.909 255.19C216.939 251.34 214.089 249.53 211.439 249.82C208.899 250.09 207.339 252.19 206.719 253.2C202.129 248.99 197.609 245.3 193.839 242.41C194.349 241.46 196.069 238.72 199.259 237.75C202.139 236.88 205.479 237.63 209.209 240C209.439 240.15 209.749 240.08 209.899 239.85C210.049 239.62 209.979 239.31 209.749 239.16C205.759 236.63 202.129 235.83 198.959 236.8C195.519 237.85 193.679 240.63 193.039 241.8C187.929 237.92 184.379 235.59 184.269 235.52C184.039 235.37 183.729 235.44 183.579 235.67C183.429 235.9 183.499 236.21 183.729 236.36C183.829 236.43 187.019 238.52 191.699 242.04C189.859 242.17 188.389 242.88 187.339 244.16C183.599 248.72 186.479 258.88 186.609 259.31C186.669 259.53 186.869 259.67 187.089 259.67C187.139 259.67 187.179 259.66 187.229 259.65C187.489 259.57 187.649 259.3 187.569 259.03C187.539 258.93 184.709 248.94 188.119 244.79C189.199 243.47 190.849 242.88 193.019 243.04C196.619 245.8 200.929 249.28 205.339 253.28C202.929 253.12 201.139 253.76 200.019 255.19C196.189 260.08 201.769 272.48 202.009 273.01C202.089 273.19 202.279 273.3 202.459 273.3C202.529 273.3 202.599 273.29 202.669 273.26C202.919 273.15 203.029 272.85 202.919 272.6C202.859 272.48 197.349 260.23 200.809 255.81C201.899 254.42 203.849 253.96 206.599 254.44C210.749 258.28 214.919 262.55 218.609 267.06C216.249 267.66 214.869 268.71 214.529 270.2C213.569 274.4 221.519 280.37 221.859 280.63C221.949 280.7 222.049 280.73 222.159 280.73C222.309 280.73 222.459 280.66 222.559 280.53C222.719 280.31 222.679 280 222.459 279.83C220.299 278.22 214.829 273.39 215.499 270.43C215.769 269.25 217.059 268.4 219.309 267.92C222.539 271.96 225.369 276.18 227.419 280.45C227.509 280.63 227.679 280.73 227.869 280.73C227.939 280.73 228.019 280.71 228.089 280.68C228.329 280.55 228.429 280.25 228.309 280Z" fill="#A7C4A0"/>
<path d="M162.3 282.44C162.61 237.92 153.38 215.15 153.38 215.15C155.19 230.14 156.62 268.21 157.11 282.45C157.65 282.45 158.19 282.46 158.73 282.46C159.94 282.46 161.13 282.45 162.3 282.44Z" fill="#32584E"/>
<path d="M150.79 212.06C150.79 212.06 150.67 208 147.77 203.12C144.87 198.24 132.51 198.08 125.31 202.89C125.31 202.89 130.24 203.66 131.38 206.87C132.52 210.08 127.65 209.7 122.28 208.48C116.91 207.26 110.79 215.65 106.23 221.39C101.67 227.12 100.89 229.65 100.89 229.65C100.89 229.65 108.09 226.48 109.85 228.91C111.62 231.34 106.53 233.95 101.79 234.35C97.0496 234.75 95.9896 241.53 94.3796 249.37C92.7696 257.21 94.9896 268.04 94.9896 268.04C94.9896 268.04 111.27 268.19 119.75 266.48C128.23 264.78 127.45 262.5 128.29 257.96C129.13 253.41 133.65 251.97 133.19 255.69C132.73 259.41 131.48 261.74 131.48 261.74C131.48 261.74 144.38 256.05 147.28 252.84C150.18 249.63 149.56 242.33 151.26 240.32C152.96 238.31 156.57 241.91 155.27 247.77C155.27 247.77 162.71 242.24 165.71 236.77C168.72 231.3 167.27 220.33 165.06 216.7C162.89 213.07 150.79 212.06 150.79 212.06Z" fill="#20604F"/>
<path d="M159.3 218.94C156.16 215.37 150.83 214.91 148.3 214.91C149.57 213.79 150.33 213.13 150.38 213.08C150.59 212.9 150.61 212.58 150.43 212.38C150.25 212.17 149.93 212.15 149.73 212.33C149.68 212.38 148.85 213.1 147.47 214.31C147.49 211.16 146.6 208.58 144.79 206.65C141.3 202.93 135.75 202.95 135.52 202.96C135.24 202.96 135.02 203.19 135.03 203.47C135.03 203.75 135.24 203.97 135.54 203.96C135.6 203.95 140.88 203.94 144.07 207.33C145.87 209.24 146.66 211.9 146.45 215.21C143.52 217.81 138.9 221.96 133.67 226.81C131.81 222.36 129.05 219.61 125.46 218.66C117.4 216.55 108.13 224.14 107.74 224.46C107.53 224.64 107.5 224.95 107.67 225.16C107.85 225.37 108.16 225.4 108.37 225.23C108.46 225.15 117.64 217.64 125.2 219.63C128.56 220.51 131.14 223.18 132.88 227.53C127.83 232.23 122.3 237.52 117.25 242.66C114.16 240.83 111.26 240.35 108.63 241.26C103.68 242.98 101.51 248.92 101.42 249.17C101.33 249.43 101.46 249.71 101.72 249.81C101.98 249.9 102.27 249.77 102.36 249.51C102.38 249.45 104.47 243.77 108.96 242.21C111.25 241.42 113.81 241.83 116.52 243.4C110.89 249.16 105.93 254.67 103.03 258.86C102.87 259.09 102.93 259.4 103.16 259.56C103.25 259.62 103.35 259.65 103.44 259.65C103.6 259.65 103.75 259.58 103.85 259.43C106.75 255.24 111.72 249.73 117.36 243.97C118.46 244.94 121.96 248.35 121.96 252.46C121.96 255.1 120.51 257.59 117.64 259.84C117.42 260.01 117.39 260.33 117.56 260.54C117.66 260.67 117.8 260.73 117.95 260.73C118.06 260.73 118.17 260.69 118.26 260.62C121.38 258.17 122.96 255.42 122.96 252.45C122.96 247.97 119.37 244.4 118.06 243.25C123.08 238.15 128.57 232.9 133.58 228.24C134.93 228.78 141.33 231.64 143.1 237.57C144.44 242.06 142.87 247.28 138.45 253.1C138.28 253.32 138.33 253.63 138.55 253.8C138.64 253.87 138.75 253.9 138.85 253.9C139 253.9 139.15 253.83 139.25 253.7C143.88 247.61 145.5 242.08 144.06 237.27C142.29 231.35 136.46 228.38 134.39 227.49C139.6 222.65 144.21 218.52 147.13 215.93C148.19 215.86 155.03 215.58 158.56 219.58C160.66 221.97 161.22 225.47 160.21 229.98C160.15 230.25 160.32 230.52 160.59 230.58C160.63 230.59 160.66 230.59 160.7 230.59C160.93 230.59 161.14 230.43 161.19 230.2C162.26 225.37 161.63 221.58 159.3 218.94Z" fill="#A7C4A0"/>
<path d="M181.099 280.09C181.099 280.09 198.049 291.66 203.259 322.36C203.259 322.36 170.239 315.18 181.099 280.09Z" fill="#20604F"/>
<path d="M203.259 322.36C203.259 322.36 179.299 327.92 180.329 354.14C180.319 354.14 202.059 352.6 203.259 322.36Z" fill="#20604F"/>
<path d="M203.26 322.36C203.26 322.36 176.91 300.27 157.39 330.57C157.39 330.57 187.58 347.52 203.26 322.36Z" fill="#A7C4A0"/>
<path d="M203.26 322.36C203.26 322.36 229.02 299.59 201.96 275.78C201.96 275.78 180.71 303.12 203.26 322.36Z" fill="#A7C4A0"/>
<path d="M203.74 322.47C203.75 322.43 204.87 317.39 204.87 307.06C204.87 306.03 204.86 304.96 204.83 303.83C204.82 303.55 204.6 303.34 204.32 303.34C204.04 303.35 203.83 303.57 203.83 303.85C203.85 304.97 203.87 306.04 203.87 307.06C203.87 312.19 203.59 316 203.32 318.52C203.18 319.78 203.04 320.72 202.94 321.34C202.91 321.55 202.88 321.71 202.85 321.85C202.58 321.84 202.21 321.83 201.7 321.83C199.13 321.83 193.45 322.05 184.69 323.56C184.42 323.61 184.24 323.87 184.28 324.14C184.33 324.41 184.59 324.59 184.86 324.55C193.56 323.05 199.18 322.83 201.7 322.83C202.21 322.83 202.6 322.84 202.85 322.85C203.1 322.86 203.22 322.87 203.22 322.87C203.24 322.87 203.26 322.86 203.28 322.86C203.31 322.86 203.35 322.86 203.38 322.85C203.41 322.84 203.44 322.83 203.47 322.82C203.5 322.81 203.53 322.79 203.55 322.77C203.58 322.75 203.6 322.73 203.62 322.71C203.64 322.69 203.66 322.66 203.68 322.64C203.7 322.61 203.71 322.58 203.72 322.55C203.73 322.51 203.74 322.49 203.74 322.47Z" fill="#32584E"/>
<path d="M86.4801 445.43C86.4801 445.43 44.6101 435.86 55.2601 422.33C65.8801 408.85 86.4801 445.43 86.4801 445.43Z" fill="#32584E"/>
<path d="M86.4805 445.43C86.4805 445.43 105.08 404.97 114.08 413.09C123.06 421.21 99.5905 441.56 86.4805 445.43Z" fill="#32584E"/>
<path d="M87.4799 444.41C87.4799 444.41 87.4698 444.03 87.4598 443.33C87.4198 441.24 87.3298 436.35 87.3298 430.59C87.3298 422.91 87.4898 413.68 88.1098 407.57C88.1698 407.02 87.7698 406.53 87.2198 406.48C86.6698 406.42 86.1798 406.82 86.1298 407.37C85.4998 413.63 85.3498 422.87 85.3398 430.59C85.3398 438.3 85.4998 444.45 85.4998 444.46C85.5098 445.01 85.9698 445.45 86.5198 445.43C87.0598 445.42 87.4899 444.96 87.4799 444.41Z" fill="#32584E"/>
<path d="M87.7695 399.03C87.7695 399.03 81.9795 402.11 81.1095 409.98C80.2395 417.85 94.5295 418.38 94.5995 409.98C94.6495 402.86 87.7695 399.03 87.7695 399.03Z" fill="#A7C4A0"/>
<path d="M87.7695 399.03C87.7695 399.03 90.8495 404.82 98.7195 405.69C106.59 406.56 107.12 392.27 98.7195 392.2C91.5995 392.15 87.7695 399.03 87.7695 399.03Z" fill="#32584E"/>
<path d="M87.7697 399.03C87.7697 399.03 93.5597 395.95 94.4297 388.08C95.2997 380.21 81.0097 379.68 80.9397 388.08C80.8897 395.2 87.7697 399.03 87.7697 399.03Z" fill="#A7C4A0"/>
<path d="M87.7697 399.03C87.7697 399.03 84.6897 393.24 76.8197 392.37C68.9497 391.5 68.4197 405.79 76.8197 405.86C83.9397 405.9 87.7697 399.03 87.7697 399.03Z" fill="#32584E"/>
<path d="M87.7694 402.44C89.6527 402.44 91.1794 400.913 91.1794 399.03C91.1794 397.147 89.6527 395.62 87.7694 395.62C85.8861 395.62 84.3594 397.147 84.3594 399.03C84.3594 400.913 85.8861 402.44 87.7694 402.44Z" fill="white"/>
<path d="M96.9595 340.04C96.9595 340.04 95.2995 356.23 88.9695 369.98C88.9695 372.8 81.1895 375.07 71.5795 375.07C61.9695 375.07 54.1795 372.8 54.1795 369.98C47.8595 356.23 46.1895 340.04 46.1895 340.04H96.9595Z" fill="#D2E1D4"/>
<path d="M71.5795 347.47C85.602 347.47 96.9695 344.143 96.9695 340.04C96.9695 335.936 85.602 332.61 71.5795 332.61C57.5569 332.61 46.1895 335.936 46.1895 340.04C46.1895 344.143 57.5569 347.47 71.5795 347.47Z" fill="#A7C4A0"/>
<path d="M73.4101 282.19C73.4201 281.91 73.2101 281.68 72.9301 281.67C72.6501 281.66 72.4201 281.87 72.4101 282.15C71.4101 306.89 71.0801 340.04 71.0801 340.04C71.0801 340.32 71.3001 340.54 71.5701 340.54C71.8501 340.54 72.0701 340.32 72.0701 340.05C72.0701 340.04 72.0901 337.98 72.1401 334.49C72.2801 324 72.6601 300.72 73.4101 282.19Z" fill="#32584E"/>
<path d="M71.7997 328.54C71.7997 328.54 49.6296 332.66 36.8896 318.55C36.8996 318.55 56.2697 308.06 71.7997 328.54Z" fill="#32584E"/>
<path d="M72.0295 312.31C72.0295 312.31 51.4695 312.31 39.5195 300.07C39.5195 300.07 59.8995 289.08 72.0295 312.31Z" fill="#A7C4A0"/>
<path d="M72.3192 295.28C72.3192 295.28 48.6892 289.66 40.4492 275.92C40.4392 275.92 62.8592 271.08 72.3192 295.28Z" fill="#32584E"/>
<path d="M71.5801 328.54C71.5801 328.54 93.7501 332.66 106.49 318.55C106.48 318.55 87.1201 308.06 71.5801 328.54Z" fill="#A7C4A0"/>
<path d="M72.0293 312.31C72.0293 312.31 92.5393 312.31 104.449 300.07C104.449 300.07 84.1193 289.08 72.0293 312.31Z" fill="#32584E"/>
<path d="M72.3701 295.28C72.3701 295.28 96.0001 289.66 104.24 275.92C104.24 275.92 81.8301 271.08 72.3701 295.28Z" fill="#A7C4A0"/>
<path d="M72.88 282.8C72.88 282.8 66.54 276.67 65.66 265.93C64.79 255.19 72.9 244.95 72.9 244.95C72.9 244.95 87.72 262.08 72.88 282.8Z" fill="#A7C4A0"/>
<path d="M335 336.25L327.17 381.25H329.5L338.57 378.58L346.67 336.25H335Z" fill="#A7C4A0"/>
<path d="M335 336.25L327.17 381.25H329.5C329.5 381.25 329.68 380.48 330.08 379.15L337.34 342.9C337.39 342.63 337.66 342.45 337.93 342.51C338.2 342.56 338.38 342.83 338.32 343.1L332.45 372.4C334.62 366.98 338.13 359.84 343.42 353.2L346.66 336.25H335Z" fill="#32584E"/>
<path d="M394 336.25L403.67 394.08L406.83 394.92L415.83 390.42L406.66 333.75L394 336.25Z" fill="#A7C4A0"/>
<path d="M394 336.25L403.67 394.08L406.83 394.92L397.06 335.64L394 336.25Z" fill="#32584E"/>
<path d="M375.08 344.08L384.17 402.75L373.83 405.58L370.33 404.42L361.41 340.08L375.08 344.08Z" fill="#A7C4A0"/>
<path d="M361.41 340.08L370.33 404.42L373.83 405.58L364.59 341.01L361.41 340.08Z" fill="#32584E"/>
<path d="M303.33 333.08L295.17 390.42H298.17L307.17 387.75L316 333.08H303.33Z" fill="#A7C4A0"/>
<path d="M303.33 333.08L295.16 390.41H298.16L302.66 357.91C302.66 357.91 302.76 357.52 302.99 356.85L305.06 342.13C305.1 341.86 305.36 341.67 305.62 341.7C305.89 341.74 306.08 341.99 306.05 342.26L304.54 352.97C306.34 349.07 309.61 343.56 315.02 339.04L315.99 333.06H303.33V333.08Z" fill="#32584E"/>
<path d="M300.58 320.25V333L375.08 345.92L406.66 333.75L406.83 320.25L343.83 312.6L300.58 320.25Z" fill="#D2E1D4"/>
<path d="M350 315.48C352.97 315.48 355.96 315.21 358.86 314.95C359.71 314.87 360.56 314.81 361.41 314.74L356.56 314.15C354.2 314.35 351.8 314.5 349.43 314.48C346.06 314.44 343.12 314.01 340.54 313.19L338.57 313.54C341.64 314.79 345.21 315.43 349.42 315.48C349.61 315.47 349.81 315.48 350 315.48Z" fill="#32584E"/>
<path d="M406.8 322.87L406.83 320.25L399.53 322.72C397.18 322.55 394.7 322.26 392.07 321.85C388.65 321.32 385.19 320.63 381.85 319.97C376.77 318.97 371.51 317.93 366.26 317.39C361.5 316.89 356.6 316.79 351.86 316.68C344.83 316.52 337.62 316.36 330.71 314.92L328.21 315.36C335.89 317.32 343.97 317.5 351.83 317.68C356.55 317.78 361.42 317.89 366.14 318.38C371.34 318.92 376.58 319.95 381.64 320.95C384.99 321.61 388.46 322.3 391.9 322.83C393.73 323.12 395.48 323.33 397.18 323.5L389.05 326.25C380.68 325.21 372.38 323.6 364.25 321.43L363.12 321.13C360.35 320.38 357.48 319.6 354.55 319.33C352.28 319.12 349.98 319.21 347.76 319.3C346.72 319.34 345.68 319.38 344.64 319.39C337.68 319.46 330.69 318.18 323.92 316.93C323.16 316.79 322.4 316.65 321.64 316.51L318.77 317.02C320.44 317.31 322.1 317.61 323.74 317.92C330.55 319.18 337.6 320.48 344.65 320.4C345.7 320.39 346.75 320.35 347.8 320.3C349.99 320.21 352.25 320.12 354.46 320.33C357.3 320.59 360.13 321.36 362.86 322.1L363.99 322.4C371.51 324.41 379.16 325.93 386.88 326.98L378.49 329.82C374.38 328.8 370.32 327.54 366.37 326.04L365.72 325.79C363.11 324.79 360.41 323.76 357.58 323.86C355.37 323.93 353.28 324.68 351.25 325.4C350.72 325.59 350.19 325.78 349.66 325.95C348.59 326.31 347.51 326.59 346.42 326.85L337.2 325.52C337.71 325.05 338.05 324.34 337.83 323.62C337.48 322.44 336.03 322.17 335.48 322.07C330.92 321.22 326.26 320.55 321.68 319.9L311.09 318.38L307.94 318.94L321.61 320.9C326.11 321.55 330.76 322.21 335.31 323.06C336.26 323.24 336.76 323.51 336.88 323.91C337 324.32 336.65 324.79 336.26 324.99C335.95 325.15 335.58 325.21 335.21 325.24L300.57 320.25V320.48V321.65V333L375.07 345.92C386.79 341.76 397.68 337.68 406.65 333.75L406.79 323.37L406.8 322.87ZM348.94 327.22C349.29 327.11 349.65 327.02 350 326.91C350.54 326.73 351.07 326.54 351.61 326.35C353.56 325.65 355.58 324.93 357.64 324.87C360.28 324.77 362.88 325.78 365.39 326.74L366.05 326.99C369.56 328.32 373.15 329.46 376.79 330.42L375.09 330.99L348.94 327.22Z" fill="#32584E"/>
<path d="M300.58 320.25V333L375.08 345.92V330.99L300.58 320.25Z" fill="#A7C4A0"/>
<path d="M206.37 333.47C206.37 333.47 229.66 333.94 243.28 347.18C243.28 347.18 219.08 346.55 206.37 333.47Z" fill="#A7C4A0"/>
<path d="M342.511 330.51C363.371 328.87 366.671 318.38 359.891 307.24C353.091 296.07 336.171 284.25 316.641 280.05C316.641 280.05 268.081 257.62 247.211 252.95C226.341 248.28 208.641 344.53 208.641 344.53L226.471 350.65L235.871 353.87L263.101 305.75C263.101 305.75 300.761 333.78 342.511 330.51Z" fill="#EF8E58"/>
<path d="M342.51 330.51C363.36 328.88 366.67 318.38 359.89 307.24L343.23 304.95C343.23 304.95 332.98 305.75 314.98 298.11C296.98 290.48 268.76 264.14 267.03 266.81C265.3 269.47 267.64 280.83 265.21 280.98C262.79 281.14 251.6 269.14 253.11 275.06C254.62 280.98 261.88 286.58 256.1 287.67C250.32 288.76 240.55 297.01 241.97 305.58C243.39 314.15 245.09 314.46 241.97 320.32C239.51 324.95 230.25 343.16 226.46 350.63L235.86 353.86L263.09 305.74C263.1 305.75 300.76 333.78 342.51 330.51Z" fill="#D57952"/>
<path d="M273.04 293.06L263.14 290.14C263.07 289.11 262.82 285.72 262.57 282.42C262.55 282.16 262.33 281.98 262.08 281.99C261.83 282.01 261.64 282.24 261.66 282.49C261.84 284.9 262.03 287.36 262.14 288.91C258.35 283.31 253.84 273.35 253.79 273.24C253.68 273.01 253.41 272.91 253.19 273.01C252.96 273.12 252.86 273.4 252.97 273.63C253.18 274.1 258.06 284.86 262.01 290.3C260.12 291.2 253.84 294.75 250.67 303.15C247.13 312.54 243.44 315.62 243.41 315.65C243.36 315.69 243.32 315.75 243.29 315.8L229.49 343.69C229.38 343.92 229.47 344.2 229.69 344.32C229.76 344.35 229.83 344.37 229.9 344.37C230.07 344.37 230.22 344.28 230.3 344.11L244.06 316.3C244.65 315.79 248.13 312.48 251.53 303.47C254.8 294.81 261.71 291.44 262.76 290.97L272.77 293.92C283.28 298.13 306.39 304.47 317.87 307.53V306.57C306.31 303.51 283.47 297.24 273.04 293.06Z" fill="#955735"/>
<path d="M243.28 347.17L224.52 377.7C224.52 377.7 224.07 392.49 223 394.68C221.95 396.86 162.8 396.55 161.28 396.39C161.06 396.37 160.86 396.17 160.69 395.85C159.71 394.06 159.86 388.29 163.86 387.36C168.54 386.28 199.4 371.47 202.12 369.61C204.84 367.74 206.36 333.48 206.36 333.48C206.36 333.48 213.28 337.55 222.79 341.35C228.94 343.8 236.15 346.14 243.28 347.17Z" fill="#A7C4A0"/>
<path d="M222.8 341.35C224.16 343.89 227.74 350.38 229.41 351.66C231.49 353.26 223.62 353.42 223.17 357.31C222.72 361.2 223.47 371.01 222.26 374.75C221.05 378.49 216.97 376.46 216.97 379.27C216.97 382.07 185.96 392.98 162.82 395.62C162.1 395.7 161.39 395.78 160.71 395.86C160.88 396.17 161.08 396.38 161.3 396.4C162.81 396.56 221.96 396.87 223.02 394.69C224.08 392.51 224.53 377.71 224.53 377.71L243.29 347.18C236.15 346.14 228.94 343.8 222.8 341.35Z" fill="#20604F"/>
<path d="M160.25 394.13C160.25 394.13 190.74 393.14 201.99 393.14C213.24 393.14 223.69 391.1 223.69 391.1C223.69 391.1 224.18 394.87 223.54 396.5C222.94 398.01 196.74 398.13 191.29 398.13H161.73C161.15 398.13 160.66 397.68 160.59 397.09L160.25 394.13Z" fill="#955735"/>
<path d="M317.721 335.46C317.721 335.46 317.191 340.7 316.181 348.63C316.091 349.36 315.991 350.1 315.891 350.87C312.451 365.98 308.341 384.56 305.051 400.84C302.701 402.56 299.041 404.04 294.501 405.15C289.101 406.46 282.451 407.24 275.261 407.24C257.191 407.24 242.551 402.37 242.551 396.34C236.311 370.21 232.811 335.48 232.811 335.48H317.721V335.46Z" fill="#D2E1D4"/>
<path d="M294.501 405.13C299.041 404.03 302.711 402.55 305.061 400.82C308.341 384.55 312.461 365.97 315.901 350.86C316.001 350.09 316.101 349.35 316.191 348.62C311.161 357.09 301.381 376.09 294.501 405.13Z" fill="#6BB0CE"/>
<path d="M317.72 335.46C317.72 327.65 298.71 321.32 275.27 321.32C251.83 321.32 232.82 327.65 232.82 335.46C232.82 339.51 237.92 343.15 246.1 345.73C253.71 348.14 263.98 349.61 275.28 349.61C291.27 349.61 305.21 346.66 312.44 342.31C315.8 340.27 317.72 337.94 317.72 335.46Z" fill="#A7C4A0"/>
<path d="M311.091 340.65C309.201 339.34 307.091 340.65 307.091 340.65C307.091 340.65 306.721 335.46 301.861 335.46C296.991 335.46 296.111 340.65 296.111 340.65C296.111 340.65 296.371 337.17 292.491 337.2C288.611 337.24 285.621 339.54 285.621 339.54C285.621 339.54 284.881 337.79 280.261 337.2C275.631 336.61 270.401 339.04 270.401 339.04C270.401 339.04 269.641 337.04 267.401 336.67C265.141 336.29 262.151 338.67 262.151 338.67C262.151 338.67 262.031 333.92 257.421 334.41C252.791 334.91 252.501 340.72 252.501 340.72C252.501 340.72 249.171 338.53 246.441 341.16C244.741 342.77 245.371 344.57 246.101 345.72C253.711 348.13 263.981 349.6 275.281 349.6C291.271 349.6 305.211 346.65 312.441 342.3C312.101 341.63 311.661 341.04 311.091 340.65Z" fill="#FFB871"/>
<path d="M393.19 377.08C393.19 377.08 386.95 395.06 393.19 415.54C393.19 415.54 399.43 397.68 393.19 377.08Z" fill="#A7C4A0"/>
<path d="M400.18 381.83L397.68 410.3C397.68 410.3 300.29 422.29 299.29 407.8C299.13 405.51 299.61 401.02 300.53 395.08C305.42 363.48 322.77 290.92 322.77 290.92H395.64C394.2 325.93 376.18 327.17 369.68 341.21C360.51 361 349.24 374.83 349.24 374.83C358.08 373.81 378.5 377.42 390.64 379.82C396.31 380.96 400.18 381.83 400.18 381.83Z" fill="#EF8E58"/>
<path d="M390.63 379.83C387.88 396.83 374.94 399.34 352.48 400.05C330.7 400.74 305.78 399.53 300.53 395.07C299.61 401 299.13 405.5 299.29 407.79C300.29 422.27 397.68 410.29 397.68 410.29L400.18 381.82C400.18 381.83 396.31 380.96 390.63 379.83Z" fill="#D57952"/>
<path d="M330.26 377.08L349.24 374.83C349.24 374.83 362.36 360.85 372.49 336.6C359.18 354.14 330.26 377.08 330.26 377.08Z" fill="#D57952"/>
<path d="M338.04 311.6C338.04 311.6 328.68 321.3 329.84 324.38C331.01 327.46 343.16 325.55 343.16 325.55C343.16 325.55 337.92 328.38 338.04 329.55C338.16 330.72 361.31 328.22 367.05 326.97C372.79 325.72 379.49 311.87 379.49 311.87L378.62 296.42L357.14 299.25L338.04 311.6Z" fill="#D57952"/>
<path d="M394.441 390.82C394.011 390.82 352.611 391.28 341.501 389.19C342.321 388.1 343.771 386.11 343.981 385.28C344.241 384.25 342.611 382.96 341.471 382.2C346.701 378.76 349.471 375.35 349.631 375.15C349.761 374.98 349.781 374.75 349.661 374.57C349.541 374.39 349.321 374.31 349.111 374.36C349.081 374.37 347.651 374.74 345.031 375.17C358.431 351.65 364.161 317.7 364.221 317.36C364.271 317.09 364.081 316.83 363.811 316.79C363.531 316.75 363.281 316.93 363.241 317.2C363.181 317.54 357.411 351.8 343.891 375.18C343.861 375.24 343.831 375.31 343.831 375.37C340.611 375.86 336.001 376.39 330.261 376.59C329.981 376.6 329.771 376.83 329.781 377.11C329.791 377.39 330.021 377.63 330.301 377.59C334.731 377.44 338.491 377.09 341.481 376.71C342.011 377.09 342.881 377.87 342.931 378.43C342.941 378.53 342.931 378.66 342.761 378.81C341.751 379.76 340.791 381.13 340.411 381.71C338.461 382.96 336.181 384.19 333.591 385.25C333.331 385.35 333.211 385.65 333.321 385.9C333.401 386.09 333.591 386.21 333.781 386.21C333.841 386.21 333.911 386.2 333.971 386.17C336.461 385.15 338.671 383.99 340.571 382.8C341.891 383.64 343.061 384.7 343.031 385.05C342.871 385.7 341.241 387.96 340.251 389.22C340.151 389.36 340.121 389.53 340.171 389.69C340.231 389.85 340.361 389.97 340.531 390.01C347.491 391.63 370.301 391.88 383.951 391.88C389.781 391.88 393.951 391.83 394.481 391.83C394.761 391.83 394.981 391.6 394.971 391.32C394.941 391.04 394.691 390.81 394.441 390.82ZM342.791 376.52C345.001 376.21 346.701 375.9 347.811 375.67C346.891 376.63 345.351 378.1 343.241 379.7C343.301 379.65 343.351 379.58 343.401 379.53C343.751 379.2 343.921 378.79 343.881 378.34C343.841 377.65 343.301 377 342.791 376.52Z" fill="#955735"/>
<path d="M474.85 428.78C467.86 428.78 435.14 403.81 435.14 403.81L393.19 415.55C394.75 407.99 394.81 398.82 394.45 391.33C394.07 383.24 393.19 377.1 393.19 377.1C407.17 379.6 433.9 381.35 433.9 381.35C433.9 381.35 444.14 373.86 446.89 377.1C449.64 380.35 467.37 407.82 474.36 415.56C475.15 416.43 475.84 417.27 476.46 418.07C481.35 424.44 481.05 428.78 474.85 428.78Z" fill="#A7C4A0"/>
<path d="M476.44 418.05C454.32 414.81 436.39 387.65 435.06 389.62C433.73 391.58 434.56 396.9 433.89 395.38C433.22 393.86 432.06 387.41 431.14 390.4C430.22 393.4 432.06 395.81 426.15 395.31C421 394.88 399.84 392.04 394.45 391.32C394.81 398.81 394.75 407.98 393.19 415.54L435.14 403.8C435.14 403.8 467.85 428.77 474.85 428.77C481.06 428.78 481.35 424.44 476.44 418.05Z" fill="#20604F"/>
<path d="M444.04 376.27C444.04 376.27 450.25 380.17 462.25 401C465.89 407.32 483.13 424.98 477.94 428.24C477.94 428.24 481.9 426.43 481.9 424.28C481.9 422.13 473.37 411.88 470.87 407.5C468.37 403.12 456.74 385 453.87 380.12C451 375.24 448.1 375.31 444.04 376.27Z" fill="#955735"/>
<path d="M434.09 224.25C421.85 237.99 400.13 243.98 400.13 243.98L394.8 237.07L393.39 235.24C396.14 253.47 395.64 290.93 395.64 290.93C395.64 290.93 382.15 300.92 349.19 298.42C330.32 296.99 318.41 290.74 311.68 285.64C306.65 281.84 304.49 278.69 304.49 278.69C305.49 256.96 313.73 222.25 313.73 222.25L288.26 225.75C273.78 207.27 277.77 184.79 277.77 184.79C277.77 184.79 293.75 184.54 310.48 180.79C327.21 177.04 337.2 176.05 337.2 176.05C337.2 176.05 360.92 172.55 380.65 180.79C400.38 189.03 434.09 224.25 434.09 224.25Z" fill="#A7C4A0"/>
<path d="M289 225.64L290.65 219.67C290.65 219.67 313.09 209.49 321.6 197.47C321.6 197.47 315.49 214.48 313.73 222.25C313.72 222.25 293.65 224.96 289 225.64Z" fill="#20604F"/>
<path d="M354.101 184.2C354.101 184.2 350.681 191 361.341 193.06C372.001 195.11 371.751 185.49 371.751 185.49C371.751 185.49 377.131 188.38 381.311 186.79C385.491 185.21 383.781 182.26 383.781 182.26C383.781 182.26 374.161 178.46 367.671 177.63C361.171 176.8 356.691 180.61 354.101 184.2Z" fill="#20604F"/>
<path d="M383.651 221.17C383.651 221.17 381.701 253.3 363.071 263.29C344.441 273.28 363.831 278.61 372.871 275.69C380.961 273.08 343.901 297.7 311.681 285.64C318.421 290.73 330.321 296.99 349.191 298.41C382.151 300.91 395.641 290.92 395.641 290.92C395.641 290.92 396.141 253.46 393.391 235.23L394.801 237.06L383.651 221.17Z" fill="#20604F"/>
<path d="M335.711 197.36C335.011 197.36 334.411 197.28 333.921 197.12C329.711 195.76 330.331 189.61 330.361 189.34C330.391 189.07 330.631 188.87 330.911 188.9C331.181 188.93 331.381 189.18 331.351 189.45C331.341 189.51 330.791 195.06 334.231 196.17C337.651 197.27 349.991 193.34 359.061 183.85C359.251 183.65 359.571 183.64 359.771 183.83C359.971 184.02 359.981 184.34 359.791 184.54C351.931 192.75 341.061 197.36 335.711 197.36Z" fill="#20604F"/>
<path d="M385.241 292.03C385.231 292.03 385.221 292.03 385.221 292.03C384.941 292.02 384.731 291.78 384.741 291.51C386.321 258.08 382.811 229.8 382.771 229.52C382.741 229.25 382.931 229 383.201 228.96C383.471 228.93 383.721 229.12 383.761 229.39C383.801 229.67 387.311 258.04 385.731 291.55C385.731 291.82 385.511 292.03 385.241 292.03Z" fill="#20604F"/>
<path d="M393.311 234.94C391.941 233.13 388.741 228.17 385.651 223.39C377.961 210.09 384.251 200.23 384.311 200.13C384.461 199.9 384.401 199.59 384.171 199.44C383.941 199.29 383.631 199.35 383.481 199.58C383.421 199.67 378.791 206.9 381.921 217.35C381.581 216.77 381.231 216.18 380.891 215.58C380.751 215.34 380.451 215.26 380.211 215.39C379.971 215.53 379.891 215.83 380.021 216.07C381.611 218.88 383.241 221.52 384.781 223.9C384.791 223.91 384.791 223.92 384.801 223.94L384.811 223.95C387.531 228.16 389.771 231.55 391.231 233.56C391.861 234.42 393.311 234.94 393.311 234.94Z" fill="#20604F"/>
<path d="M314.111 221.67C314.071 221.67 314.031 221.67 313.991 221.66C313.721 221.59 313.561 221.32 313.631 221.05C313.681 220.84 318.871 200.19 326.111 185.82C326.231 185.57 326.531 185.47 326.781 185.6C327.031 185.72 327.131 186.02 327.001 186.27C319.821 200.54 314.651 221.09 314.601 221.29C314.531 221.51 314.331 221.67 314.111 221.67Z" fill="#20604F"/>
<path d="M383.59 107.92C383.22 110.79 382.62 116.08 382.23 122.26C381.96 126.61 381.79 131.38 381.9 136.09L328.96 108.45C328.96 108.45 331.24 105.85 334.24 102.39C337.75 98.3299 342.24 93.1099 345.24 89.4699C346.66 87.7699 348.77 86.8099 350.97 86.8899C354.82 87.0199 361.26 87.8199 368.41 91.1399C376.2 94.7599 380.55 100.13 382.53 103.22C383.44 104.61 383.8 106.27 383.59 107.92Z" fill="#D2E1D4"/>
<path d="M382.23 122.27C363.02 108.3 341.8 103.66 334.24 102.39C331.24 105.86 328.96 108.46 328.96 108.46L381.9 136.1C381.79 131.39 381.96 126.61 382.23 122.27Z" fill="white"/>
<path d="M363.09 115.78C334.45 102.63 298.99 95.9698 293.83 106.29C288.67 116.61 309.02 127.72 341.78 141.42C350.94 145.25 400.55 161.73 404.21 151.24C407.87 140.75 391.72 128.93 363.09 115.78Z" fill="#A7C4A0"/>
<path d="M327.041 156.07C327.041 156.07 324.541 157.9 324.541 160.9C324.541 160.9 318.881 163.31 318.881 170.14C318.881 170.14 313.141 174.97 317.801 181.88C322.461 188.79 348.181 185.42 354.801 174.8C361.421 164.19 346.231 151.2 327.041 156.07Z" fill="#EF8E58"/>
<path d="M332.04 111.95C332.04 111.95 324.13 108.45 321.88 115.36C321.88 115.36 314.39 117.61 316.3 124.6C318.21 131.59 326.87 129.18 326.87 129.18L340.61 116.36L339.03 114.94C339.03 114.95 336.53 110.87 332.04 111.95Z" fill="#EF8E58"/>
<path d="M359.42 129.93C359.42 140.26 358.67 153.24 358.67 153.24V177.04C358.06 179.63 356.35 182.04 354.09 184.19C348.96 189.07 340.98 192.5 336.82 193.02C330.83 193.77 333.82 178.29 333.82 178.29V161.44C332.31 161.35 330.98 161.03 329.8 160.53C319.87 156.35 321.19 139.03 324.2 126.98C325.63 121.25 329.56 118.66 333.62 117.57C339.1 116.09 344.81 117.36 344.81 117.36C344.81 117.36 359.42 119.61 359.42 129.93Z" fill="#E76E60"/>
<path d="M352 143.984C354.562 144.211 355 142 355 142" stroke="#C95B51" stroke-width="0.5" stroke-miterlimit="10" stroke-linecap="round" stroke-linejoin="round"/>
<path d="M357.44 147.39C356.07 149.26 351.52 152.71 350.12 149.26C348.72 145.82 349.68 140.33 349.68 140.33C351.07 134.15 356.22 133.03 359.37 134.89C359.4 133.21 359.42 131.54 359.42 129.93C359.42 119.61 344.82 117.36 344.82 117.36C344.82 117.36 339.12 116.09 333.63 117.57C333.47 118.37 332.9 122.68 338.32 125.17C338.32 125.17 336.45 131.85 343.06 134.72C343.06 134.72 345.18 141.79 345.18 151.68C345.18 161.44 333.04 161.61 329.8 160.54C330.98 161.04 332.31 161.36 333.82 161.45V167.96C336.06 169.05 339.42 168.21 344.43 162.32C344.43 162.32 347.62 163.63 348.87 169.13C350.11 174.62 353.26 175.32 353.26 175.32C353.26 175.32 351.55 180.41 354.09 184.21C356.34 182.07 358.05 179.65 358.66 177.06V153.26C358.66 153.26 358.83 150.22 359.02 145.92C358.27 147.24 357.85 146.83 357.44 147.39Z" fill="#C95B51"/>
<path d="M335.84 162.02C334.73 162.02 333.86 161.94 333.78 161.93C330.04 161.7 327.09 160.15 325.03 157.34C318.86 148.92 322.48 131.87 323.73 126.85C323.74 126.79 325.5 116.61 337.82 116.4C338.13 116.39 338.32 116.61 338.33 116.89C338.33 117.17 338.12 117.39 337.84 117.4C326.35 117.6 324.72 126.96 324.71 127.05C323.47 132.01 319.92 148.67 325.84 156.75C327.72 159.32 330.42 160.73 333.87 160.94C333.92 160.95 337.74 161.29 339.51 160.52C339.76 160.41 340.06 160.53 340.17 160.78C340.28 161.03 340.16 161.33 339.91 161.44C338.8 161.91 337.15 162.02 335.84 162.02Z" fill="#C95B51"/>
<path d="M331.04 154.95C338.7 155.68 340.01 148.58 340.01 148.58" stroke="#C95B51" stroke-width="0.5" stroke-miterlimit="10" stroke-linecap="round" stroke-linejoin="round"/>
<path d="M331.7 133.6C331.7 132.96 332.25 132.44 333 132.26C332.54 130.92 331.81 130.1 330.86 130.68C328.13 132.36 329.41 140.94 332.01 139.92C333.18 139.46 333.61 137.21 333.49 135.02C332.5 135.01 331.7 134.38 331.7 133.6Z" fill="#192119"/>
<path d="M322.65 137.65C322.65 137.65 321.34 141.83 318.72 146.08C317.05 148.79 323.71 147.91 323.71 147.91L322.65 137.65Z" fill="#E76E60"/>
<path d="M321.58 148.55C320.22 148.55 318.68 148.36 318.15 147.54C317.93 147.21 317.79 146.64 318.29 145.82C320.85 141.68 322.16 137.55 322.17 137.5C322.25 137.24 322.53 137.09 322.8 137.17C323.06 137.25 323.21 137.53 323.13 137.8C323.08 137.97 321.77 142.09 319.14 146.34C319.01 146.55 318.88 146.83 318.99 147C319.37 147.58 321.7 147.67 323.65 147.42C323.92 147.38 324.17 147.58 324.21 147.85C324.25 148.12 324.05 148.37 323.78 148.41C323.45 148.45 322.56 148.55 321.58 148.55Z" fill="#C95B51"/>
<path d="M351.351 150.99C351.081 150.99 350.861 150.78 350.851 150.51C350.841 150.23 351.05 150 351.33 149.99C355.89 149.8 356.8 145.27 356.93 142.59L356.941 142.46C356.991 141.68 356.861 139.2 355.701 138.01C355.251 137.55 354.71 137.33 354.03 137.36C351.12 137.45 350.191 142.13 350.191 142.18C350.141 142.45 349.88 142.63 349.61 142.58C349.34 142.53 349.16 142.27 349.21 142C349.25 141.78 350.31 136.49 354 136.37C354.96 136.34 355.781 136.66 356.421 137.32C357.841 138.78 358.001 141.57 357.941 142.53L357.93 142.65C357.67 147.86 355.34 150.83 351.37 151C351.36 150.99 351.351 150.99 351.351 150.99Z" fill="#C95B51"/>
<path d="M385.72 171.13C385.72 171.13 387.72 179.54 383.31 182.62C378.89 185.71 373.23 183.29 373.23 183.29C372.32 189.11 364.41 191.95 358.92 186.46C353.43 180.97 358.34 173.22 358.34 173.22C358.34 173.22 353.1 172.97 353.1 167.31C353.1 161.65 350.43 162.32 350.43 157.4C350.43 155.12 351.04 153.49 351.69 152.41C352.45 151.14 353.26 150.58 353.26 150.58C359.67 145.84 357.6 136.84 354.35 136.84C351.1 136.84 350.1 140.42 350.1 140.42H348.54C347.88 140.42 347.33 139.92 347.27 139.26C346.9 135.47 345.51 133.27 345.51 133.27C337.69 131.68 341.1 124.69 341.1 124.69C333.44 121.69 339.01 114.95 339.01 114.95C353.58 115.29 364.73 123.94 364.73 123.94C373.31 124.03 375.31 132.85 375.31 132.85C383.63 134.35 381.13 143.92 381.13 143.92C390.2 145.59 385.95 157.9 385.95 157.9C385.95 157.9 387.57 158.72 388.9 160.37C389.83 161.52 390.62 163.08 390.62 165.06C390.64 169.89 385.72 171.13 385.72 171.13Z" fill="#FFB871"/>
<path d="M357.53 127.47C350.91 126.22 349.42 120.45 349.36 120.21C349.29 119.94 349.02 119.78 348.76 119.84C348.49 119.91 348.33 120.17 348.39 120.44C348.4 120.48 349.08 123.13 351.41 125.41C345.55 123.82 344.78 117.59 344.74 117.3C344.71 117.03 344.47 116.83 344.19 116.86C343.92 116.89 343.72 117.14 343.75 117.41C343.76 117.47 344.32 122.18 348.03 124.9C346.18 124.62 344.7 123.91 343.63 122.77C341.55 120.55 341.68 117.41 341.69 117.38C341.7 117.1 341.49 116.87 341.22 116.86C340.96 116.85 340.71 117.06 340.7 117.33C340.69 117.48 340.53 120.91 342.9 123.45C344.47 125.13 346.75 126 349.68 126.04C349.68 126.04 349.68 126.04 349.69 126.04C349.78 126.04 349.87 126.01 349.94 125.96C350.82 126.33 351.81 126.6 352.95 126.72C352.97 126.72 352.98 126.72 353 126.72C353.01 126.72 353.02 126.71 353.03 126.71C354.19 127.48 355.6 128.11 357.35 128.44C357.38 128.45 357.41 128.45 357.44 128.45C357.68 128.45 357.89 128.28 357.93 128.04C357.98 127.78 357.8 127.52 357.53 127.47Z" fill="#EF8E58"/>
<path d="M390.64 165.06C390.64 163.07 389.85 161.52 388.92 160.37C389.31 162.78 387.96 165.69 384.73 166.48C380.32 167.56 378.99 165.4 378.99 165.4C377.01 168.6 373.31 168.49 370.72 167.92C370.68 167.72 370.53 167.55 370.32 167.51C368.97 167.28 367.93 166.64 367.25 165.61C365.52 163.04 366.41 158.85 366.42 158.81C366.45 158.67 366.42 158.52 366.33 158.4C363.71 154.93 365.59 151.79 365.67 151.66C365.81 151.43 365.74 151.12 365.51 150.97C365.28 150.82 364.97 150.9 364.82 151.13C364.8 151.17 362.56 154.85 365.4 158.82C365.22 159.79 364.68 163.58 366.42 166.17C366.5 166.29 366.6 166.38 366.69 166.49C364.42 165.87 363.14 164.74 362.43 163.64C362.42 163.47 362.33 163.32 362.19 163.23C361.52 161.97 361.52 160.85 361.53 160.76C361.54 160.48 361.32 160.25 361.05 160.24C360.78 160.24 360.54 160.45 360.53 160.72C360.53 160.74 360.52 161.67 360.96 162.84C354.15 160.5 355.63 152.89 355.7 152.55C355.76 152.28 355.58 152.02 355.31 151.96C355.04 151.9 354.78 152.08 354.72 152.35C354.71 152.41 353.86 156.72 356 160.2C353.72 158.5 352.24 154.13 351.73 152.4C351.08 153.5 350.47 155.12 350.47 157.4C350.47 162.31 353.13 161.65 353.13 167.31C353.13 172.97 358.37 173.22 358.37 173.22C358.37 173.22 353.46 180.96 358.95 186.46C364.44 191.95 372.35 189.12 373.27 183.3C373.27 183.3 378.93 185.71 383.34 182.63C387.75 179.55 385.75 171.14 385.75 171.14C385.75 171.14 390.64 169.89 390.64 165.06Z" fill="#EF8E58"/>
<path d="M279.18 249.3C276.51 263.28 278.18 271.28 278.18 271.28C278.18 271.28 282.18 277.44 284.5 281.11C285.51 282.7 285.58 285.07 285.28 287.32C284.9 290.27 283.88 293.02 283.5 293.59C282.83 294.59 279.33 295.75 279.33 295.75C279.33 295.75 271.01 299.54 267.63 298.3C264.26 297.04 260.02 290.55 259.64 289.55C259.53 289.26 259.5 287.22 259.5 284.51C259.52 277.98 259.77 267.46 259.77 267.46C259.77 267.46 254.03 239.99 253.41 222.39C253.12 214.36 253.59 208.18 254.18 203.82C254.82 199.15 257.96 195.21 262.38 193.57C266.8 191.94 272.49 189.88 276.45 188.59C278.39 187.96 279.92 187.51 280.67 187.38C280.67 187.38 294.65 198.37 289.49 222.01L285.14 222.14L283.99 222.18C284 222.17 281.84 235.31 279.18 249.3Z" fill="#E76E60"/>
<path d="M280.67 187.37C279.92 187.49 278.39 187.94 276.46 188.58C279.48 191.94 287.03 202.48 285.15 222.13L289.5 222C294.66 198.36 280.67 187.37 280.67 187.37Z" fill="#C95B51"/>
<path d="M280.22 289.51C279.22 284.6 270.86 284.85 269.69 290.09C268.52 295.33 268.27 294.17 264.36 291.42C262.27 289.95 260.61 286.97 259.52 284.5C259.51 287.22 259.55 289.25 259.66 289.54C260.04 290.54 264.29 297.03 267.65 298.29C271.03 299.53 279.35 295.74 279.35 295.74C279.35 295.74 282.85 294.58 283.52 293.58C283.9 293.01 284.91 290.26 285.3 287.31C284.29 289.96 280.94 293.07 280.22 289.51Z" fill="#C95B51"/>
<path d="M285.69 318.78C282.35 319.06 278.87 319.21 275.26 319.21C272.03 319.21 268.89 319.09 265.87 318.85C266.23 314.76 267.58 308.48 271.13 302.29L270.39 292.04C270.39 292.04 270.48 291.58 270.8 291C271.34 290 272.58 288.62 275.26 288.54C277.99 288.46 279.07 289.93 279.49 290.99C279.73 291.58 279.76 292.04 279.76 292.04V301.79C279.76 301.79 284.53 307.91 285.69 318.78Z" fill="#32584E"/>
<path d="M440.56 262.49C421.93 291.66 379.65 313.52 379.65 313.52C379.65 313.52 375.02 319.39 369.16 322.14C363.3 324.89 339.94 330.26 339.94 328.76C339.94 327.26 348.43 323.14 348.43 323.14C348.43 323.14 338.19 323.27 335.94 322.77C333.69 322.27 334.44 320.39 334.44 320.39C329.82 320.27 332.94 317.27 332.94 317.27C332.94 317.27 330.69 317.64 331.56 315.14C332.44 312.64 343.05 307.65 343.05 307.65C343.05 307.65 340.93 306.78 342.05 305.52C343.18 304.28 351.54 296.03 354.17 296.16C356.8 296.29 372.65 298.66 372.65 298.66L411.11 256.96L405.65 247.33L405.18 246.5L401.62 240.23C418.6 227.24 429.09 226.25 429.09 226.25C429.94 227.36 430.74 228.49 431.5 229.61C431.59 229.74 431.67 229.88 431.76 230.01C436.92 237.74 440.15 245.47 441.95 250.64C443.34 254.58 442.82 258.95 440.56 262.49Z" fill="#E76E60"/>
<path d="M431.51 229.6C430.75 228.48 429.95 227.35 429.1 226.24C429.1 226.24 418.61 227.24 401.63 240.22L405.19 246.49C411.24 236.55 426.61 231.12 431.51 229.6Z" fill="#C95B51"/>
<path d="M372.66 299.17C372.53 299.17 372.39 299.12 372.29 299.01C372.1 298.81 372.12 298.49 372.32 298.3C373.7 297.03 381.14 288.82 389.02 280.13C399.08 269.03 409.47 257.56 410.82 256.56C413.21 254.8 415.44 253.8 415.53 253.76C415.78 253.65 416.08 253.76 416.19 254.01C416.3 254.26 416.19 254.56 415.94 254.67C415.92 254.68 413.71 255.67 411.41 257.36C410.14 258.29 399.31 270.25 389.75 280.79C381.86 289.5 374.4 297.73 372.99 299.03C372.9 299.12 372.78 299.17 372.66 299.17Z" fill="#C95B51"/>
<path d="M333.86 320.93C332.89 320.93 331.68 320.63 331.49 319.52C331.23 317.98 332.59 316.92 332.65 316.87C332.87 316.7 333.18 316.75 333.35 316.96C333.52 317.18 333.48 317.49 333.26 317.66C333.25 317.67 332.32 318.4 332.48 319.35C332.59 320 334.02 319.94 334.39 319.89C334.51 319.88 342.83 319.35 350.48 318.71C350.76 318.7 351 318.89 351.02 319.17C351.04 319.45 350.84 319.69 350.56 319.71C342.9 320.36 334.57 320.88 334.48 320.89C334.3 320.92 334.08 320.93 333.86 320.93Z" fill="#C95B51"/>
<path d="M332.58 317.81C332.03 317.81 331.42 317.62 331.07 317.13C330.75 316.69 330.54 315.88 331.36 314.51C332.72 312.23 341.82 307.72 342.85 307.21L350.91 303.87C351.17 303.77 351.46 303.89 351.56 304.14C351.67 304.39 351.54 304.69 351.29 304.79L343.26 308.12C340.56 309.45 333.24 313.3 332.21 315.02C331.8 315.71 331.67 316.27 331.87 316.54C332.05 316.79 332.51 316.86 332.84 316.78C333.38 316.66 346.12 313.73 348.85 313.24C349.12 313.19 349.38 313.37 349.43 313.64C349.48 313.91 349.3 314.17 349.03 314.22C346.33 314.71 333.2 317.72 333.07 317.75C332.91 317.79 332.75 317.81 332.58 317.81Z" fill="#C95B51"/>
<path d="M345.71 323.65C342.66 323.65 337.91 323.6 336.09 323.3C335.02 323.12 334.31 322.7 333.97 322.04C333.52 321.15 333.99 320.2 334.01 320.16C334.13 319.91 334.44 319.82 334.68 319.94C334.93 320.06 335.02 320.37 334.9 320.61C334.9 320.61 334.64 321.15 334.87 321.59C335.1 322.03 335.75 322.22 336.25 322.31C338.89 322.75 348.34 322.64 348.43 322.64H351.1C351.38 322.64 351.6 322.86 351.6 323.14C351.6 323.42 351.38 323.64 351.1 323.64H348.44C348.31 323.64 347.21 323.65 345.71 323.65Z" fill="#C95B51"/>
</g>
<defs>
<clipPath id="clip0_1998_5465">
<rect width="543.58" height="500" fill="white"/>
</clipPath>
</defs>
</svg>
