<svg width="491" height="461" viewBox="0 0 491 461" fill="none" xmlns="http://www.w3.org/2000/svg">
<path d="M24.8899 200.41C77.3999 100.45 163.36 19.15 254.42 0.5C120.96 0.5 33.8199 60.53 24.8899 87.75" stroke="white" stroke-miterlimit="10" stroke-linecap="round" stroke-linejoin="round"/>
<path d="M82 394.91C89.94 238.55 152.84 68.31 254.42 0.5C254.42 0.5 201.06 100.45 197.17 278.8" stroke="white" stroke-miterlimit="10" stroke-linecap="round" stroke-linejoin="round"/>
<path d="M483.94 200.41C431.43 100.45 345.47 19.15 254.42 0.5C387.88 0.5 475.02 60.53 483.95 87.75" stroke="white" stroke-miterlimit="10" stroke-linecap="round" stroke-linejoin="round"/>
<path d="M428.14 406.34C413.6 240.16 355.99 68.31 254.42 0.5C254.42 0.5 307.78 100.45 311.67 278.8" stroke="white" stroke-miterlimit="10" stroke-linecap="round" stroke-linejoin="round"/>
<path d="M479.2 0.5C420.95 83.54 315.27 107.97 254.42 107.97C193.57 107.97 87.8899 83.54 29.6399 0.5" stroke="white" stroke-miterlimit="10" stroke-linecap="round" stroke-linejoin="round"/>
<path d="M347.44 0.5C323.33 34.87 279.6 44.98 254.42 44.98C229.24 44.98 185.5 34.87 161.4 0.5" stroke="white" stroke-miterlimit="10" stroke-linecap="round" stroke-linejoin="round"/>
<g opacity="0.46">
<path d="M483.94 122.996C456.268 93.7595 437.409 127.299 441.51 146.941C441.51 146.941 429.207 128.94 413.637 136.305C398.056 143.669 402.157 177.209 402.157 177.209C402.157 177.209 396.423 141.207 376.741 137.115C357.07 133.022 343.946 151.517 343.946 151.517C343.946 151.517 338.907 133.433 325.434 131.592C311.973 129.75 306.227 151.517 306.227 151.517C291.037 142.301 278.418 144.963 270.976 171.443C264.577 159.766 254.9 158.293 241.965 166.92C231.138 147.383 216.116 142.785 194.727 160.849C191.164 142.575 180.622 136.715 158.495 151.517C135.778 127.983 116.486 133.001 98.8078 151.517C98.8711 133.485 87.5914 131.823 70.9354 137.935C56.7884 111.518 40.4382 105.048 20.9254 127.299C22.6858 113.349 14.3789 111.697 0 117.483V459.55H483.919V122.996H483.94Z" fill="#7A9954"/>
</g>
<path opacity="0.46" d="M483.94 214.841C455.72 189.202 439.865 226.845 439.865 226.845C426.393 211.779 418.655 215.167 416.367 236.113C400.376 215.377 386.713 217.218 375.381 241.563C354.92 233.073 342.206 238.217 337.125 256.839C322.915 232.599 308.705 232.599 294.494 256.839L226.721 265.76L199.397 264.393C190.289 234.178 177.439 244.414 164.42 256.597C163.45 228.233 149.693 226.434 127.249 242.657C107.895 223.72 95.7085 228.802 87.3489 246.655C78.42 224.867 66.4024 216.829 48.5447 234.746C24.6149 211.222 8.4544 211.611 0.0209961 235.829V459.549H483.94V214.841Z" fill="#EBD9A5"/>
<path opacity="0.71" d="M483.94 241.942C450.259 231.758 442.237 279.763 442.237 279.763C442.237 279.763 425.117 263.404 413.089 264.13C401.061 264.856 391.953 294.671 391.953 294.671C391.953 294.671 377.742 278.669 367.538 282.667C357.334 286.665 359.885 311.756 359.885 311.756C359.885 311.756 344.831 291.041 337.157 302.309C329.493 313.576 334.922 359.32 334.922 359.32L378.101 431.565L451.703 459.56H483.93V241.942H483.94Z" fill="#7A9954"/>
<path opacity="0.71" d="M97.2687 362.666C108.116 349.578 88.6666 342.645 88.6666 342.645C84.7451 314.618 65.5064 308.169 38.6249 312.482C38.8885 294.555 30.7819 291.347 15.9075 300.047C15.2433 290.21 8.90773 289.011 0.010498 291.704V459.55H82.9741L97.2687 362.666Z" fill="#7A9954"/>
<mask id="mask0_1986_5057" style="mask-type:luminance" maskUnits="userSpaceOnUse" x="211" y="0" width="273" height="354">
<path d="M483.94 0H211.689V353.933H483.94V0Z" fill="white"/>
</mask>
<g mask="url(#mask0_1986_5057)">
<path d="M353.549 157.577C362.214 174.663 367.696 206.582 371.164 239.806" stroke="#21261F" stroke-miterlimit="10" stroke-linecap="round" stroke-linejoin="round"/>
<path d="M353.549 157.577C387.588 150.665 395.969 156.483 377.015 184.489C358.072 212.484 297.952 255.398 297.952 255.398C297.952 255.398 296.497 208.202 310.707 173.432C324.918 138.672 338.928 127.394 348.605 129.94C358.272 132.486 353.549 157.577 353.549 157.577Z" fill="#7A9954"/>
<path d="M353.549 157.577C353.549 157.577 317.623 201.574 297.952 255.398" stroke="#21261F" stroke-width="0.5" stroke-miterlimit="10" stroke-linecap="round" stroke-linejoin="round"/>
<path d="M320.807 152.391L354.688 146.121" stroke="#21261F" stroke-width="0.5" stroke-miterlimit="10" stroke-linecap="round" stroke-linejoin="round"/>
<path d="M367.412 155.326L368.519 195.188" stroke="#21261F" stroke-width="0.5" stroke-miterlimit="10" stroke-linecap="round" stroke-linejoin="round"/>
<path d="M307.419 182.522L346.065 167.414V217.124" stroke="#21261F" stroke-width="0.5" stroke-miterlimit="10" stroke-linecap="round" stroke-linejoin="round"/>
<path d="M300.44 214.525L325.751 198.166L324.686 235.04" stroke="#21261F" stroke-width="0.5" stroke-miterlimit="10" stroke-linecap="round" stroke-linejoin="round"/>
<path d="M351.082 302.814L360.823 246.865H359.611L350.06 302.151C350.408 302.362 350.756 302.572 351.082 302.814Z" fill="#21261F"/>
<path d="M346.549 226.708C347.424 225.362 379.324 230.569 380.399 231.148C381.474 231.726 376.941 252.662 375.56 253.399C374.179 254.135 344.431 250.453 343.64 248.854C342.891 247.318 346.128 227.224 346.549 226.708Z" fill="#EDE7E2"/>
<path d="M362.815 258.102C354.677 261.868 364.376 279.311 368.866 277.67C373.368 276.029 370.121 254.724 362.815 258.102Z" fill="#7A9954"/>
<path d="M383.783 228.633C384.247 192.485 376.752 137.115 393.07 89.7407" stroke="#21261F" stroke-miterlimit="10" stroke-linecap="round" stroke-linejoin="round"/>
<path d="M393.07 89.7512C395.411 119.041 416.452 114.096 431.927 93.7175C447.403 73.3391 474.938 12.4775 474.938 12.4775C474.938 12.4775 414.902 35.1494 381.474 61.4193C335.671 97.4207 393.07 89.7512 393.07 89.7512Z" fill="#7A9954"/>
<path d="M393.07 89.7512L474.938 12.4775" stroke="#21261F" stroke-width="0.5" stroke-miterlimit="10" stroke-linecap="round" stroke-linejoin="round"/>
<path d="M449.69 23.019L437.736 47.5951L464.206 35.3071" stroke="#21261F" stroke-width="0.5" stroke-miterlimit="10" stroke-linecap="round" stroke-linejoin="round"/>
<path d="M428.575 32.9612L414.976 69.0783L454.528 54.8019" stroke="#21261F" stroke-width="0.5" stroke-miterlimit="10" stroke-linecap="round" stroke-linejoin="round"/>
<path d="M401.778 47.5955L396.844 86.1849L440.266 80.9773" stroke="#21261F" stroke-width="0.5" stroke-miterlimit="10" stroke-linecap="round" stroke-linejoin="round"/>
<path d="M377.331 64.7859L378.733 90.3509" stroke="#21261F" stroke-width="0.5" stroke-miterlimit="10" stroke-linecap="round" stroke-linejoin="round"/>
<path d="M395.684 101.629L426.319 100.167" stroke="#21261F" stroke-width="0.5" stroke-miterlimit="10" stroke-linecap="round" stroke-linejoin="round"/>
<path d="M382.813 37.3901C387.04 47.1742 413.3 28.3319 411.002 24.6286C408.714 20.9149 379.608 29.9836 382.813 37.3901Z" fill="#7A9954"/>
<path d="M431.937 150.181C390.15 147.036 388.695 165.668 422.039 191.369C455.382 217.071 490.94 232.116 490.94 232.116C483.497 180.649 454.275 119.419 436.196 121.418C425.033 122.649 431.937 150.181 431.937 150.181Z" fill="#7A9954"/>
<path d="M431.938 150.182C456.753 178.934 481.874 214.389 490.94 232.105" stroke="#21261F" stroke-width="0.5" stroke-miterlimit="10" stroke-linecap="round" stroke-linejoin="round"/>
<path d="M414.681 185.32L415.566 150.213" stroke="#21261F" stroke-width="0.5" stroke-miterlimit="10" stroke-linecap="round" stroke-linejoin="round"/>
<path d="M429.84 133.275L458.482 140.387" stroke="#21261F" stroke-width="0.5" stroke-miterlimit="10" stroke-linecap="round" stroke-linejoin="round"/>
<path d="M437.472 202.469L437.071 156.21L475.812 175.746" stroke="#21261F" stroke-width="0.5" stroke-miterlimit="10" stroke-linecap="round" stroke-linejoin="round"/>
<path d="M465.344 219.396L457.312 181.659L484.33 201.396" stroke="#21261F" stroke-width="0.5" stroke-miterlimit="10" stroke-linecap="round" stroke-linejoin="round"/>
<path d="M454.529 115.243C447.719 120.061 462.593 141.586 467.759 138.935C472.924 136.284 460.548 110.982 454.529 115.243Z" fill="#7A9954"/>
<path d="M431.938 150.182C418.76 160.797 409.789 228.739 409.789 228.739" stroke="#21261F" stroke-miterlimit="10" stroke-linecap="round" stroke-linejoin="round"/>
<path d="M402.863 334.681C439.022 280.5 460.864 208.613 441.752 196.199C422.629 183.774 409.188 223.058 409.188 223.058C409.188 223.058 388.39 189.402 369.436 203.679C350.481 217.955 402.863 334.681 402.863 334.681Z" fill="#7A9954"/>
<path d="M409.178 223.047C409.874 259.764 402.864 334.67 402.864 334.67" stroke="#21261F" stroke-width="0.5" stroke-miterlimit="10" stroke-linecap="round" stroke-linejoin="round"/>
<path d="M367.38 233.999L395.284 207.056" stroke="#21261F" stroke-width="0.5" stroke-miterlimit="10" stroke-linecap="round" stroke-linejoin="round"/>
<path d="M420.237 202.364L445.98 238.281" stroke="#21261F" stroke-width="0.5" stroke-miterlimit="10" stroke-linecap="round" stroke-linejoin="round"/>
<path d="M376.14 265.919L409.146 236.146L434.12 275.345" stroke="#21261F" stroke-width="0.5" stroke-miterlimit="10" stroke-linecap="round" stroke-linejoin="round"/>
<path d="M386.039 292.136L407.881 267.76L419.551 306.591" stroke="#21261F" stroke-width="0.5" stroke-miterlimit="10" stroke-linecap="round" stroke-linejoin="round"/>
<path d="M409.178 223.047C390.14 243.836 386.218 289.211 386.218 289.211" stroke="#21261F" stroke-miterlimit="10" stroke-linecap="round" stroke-linejoin="round"/>
</g>
<path d="M269.542 275.387L241.986 280.163L214.419 275.387L110.941 459.549H241.986H373.02L269.542 275.387Z" fill="#42353B"/>
<path d="M378.164 349.841C425.117 341.593 442.058 419.592 442.058 419.592" stroke="#7A9954" stroke-miterlimit="10" stroke-linecap="round" stroke-linejoin="round"/>
<path d="M373.969 292.009C417.791 309.883 415.566 391.502 415.566 391.502" stroke="#7A9954" stroke-miterlimit="10" stroke-linecap="round" stroke-linejoin="round"/>
<path d="M195.191 317.416L116.739 459.549H43.8325L69.702 403.022L119.512 350.746L150.895 305.938L179.168 285.539L195.191 317.416Z" fill="#EBD9A5"/>
<path d="M288.612 317.416L367.064 459.549H439.97L414.101 403.022L364.291 350.746L332.908 305.938L304.635 285.539L288.612 317.416Z" fill="#EBD9A5"/>
<path d="M195.191 317.416L116.739 459.549H43.8325L69.702 403.022L119.512 350.746L150.895 305.938L179.168 285.539L195.191 317.416Z" fill="#EBD9A5"/>
<path d="M288.612 317.416L367.064 459.549H439.97L414.101 403.022L364.291 350.746L332.908 305.938L304.635 285.539L288.612 317.416Z" fill="#EBD9A5"/>
<path d="M82.9846 459.549V403.569" stroke="#D39F3F" stroke-width="0.5" stroke-miterlimit="10" stroke-linecap="round" stroke-linejoin="round"/>
<path d="M110.941 367.473V459.549" stroke="#D39F3F" stroke-width="0.5" stroke-miterlimit="10" stroke-linecap="round" stroke-linejoin="round"/>
<path d="M130.254 342.645V435.068" stroke="#D39F3F" stroke-width="0.5" stroke-miterlimit="10" stroke-linecap="round" stroke-linejoin="round"/>
<path d="M143.821 320.351V410.471" stroke="#D39F3F" stroke-width="0.5" stroke-miterlimit="10" stroke-linecap="round" stroke-linejoin="round"/>
<path d="M154.3 306.759V391.492" stroke="#D39F3F" stroke-width="0.5" stroke-miterlimit="10" stroke-linecap="round" stroke-linejoin="round"/>
<path d="M164.683 299.121V372.681" stroke="#D39F3F" stroke-width="0.5" stroke-miterlimit="10" stroke-linecap="round" stroke-linejoin="round"/>
<path d="M400.818 459.549V403.569" stroke="#D39F3F" stroke-width="0.5" stroke-miterlimit="10" stroke-linecap="round" stroke-linejoin="round"/>
<path d="M372.862 367.473V459.549" stroke="#D39F3F" stroke-width="0.5" stroke-miterlimit="10" stroke-linecap="round" stroke-linejoin="round"/>
<path d="M353.549 342.645V435.068" stroke="#D39F3F" stroke-width="0.5" stroke-miterlimit="10" stroke-linecap="round" stroke-linejoin="round"/>
<path d="M339.982 320.351V410.471" stroke="#D39F3F" stroke-width="0.5" stroke-miterlimit="10" stroke-linecap="round" stroke-linejoin="round"/>
<path d="M329.504 306.759V391.492" stroke="#D39F3F" stroke-width="0.5" stroke-miterlimit="10" stroke-linecap="round" stroke-linejoin="round"/>
<path d="M319.12 299.121V372.681" stroke="#D39F3F" stroke-width="0.5" stroke-miterlimit="10" stroke-linecap="round" stroke-linejoin="round"/>
<path d="M190.099 264.403C185.176 278.669 178.851 282.488 158.516 293.934C138.181 305.391 130.602 321.751 120.998 339.204C111.395 356.658 96.0881 355.659 78.5993 377.699C61.1105 399.74 39.521 406.294 27.767 425.378C16.0129 444.473 8.35962 459.539 8.35962 459.539H56.7252C56.7252 459.539 54.2162 452.048 64.7369 437.34C75.247 422.633 88.1501 424.484 100.558 387.189C105.86 371.261 121.778 364.822 130.254 348.462C138.729 332.103 144.433 317.921 157.156 308.369C169.88 298.826 189.003 282.277 193.747 266.644C198.48 251.031 190.099 264.403 190.099 264.403Z" fill="#52593F"/>
<path d="M293.704 264.403C298.627 278.669 304.952 282.488 325.287 293.934C345.622 305.391 353.201 321.751 362.805 339.204C372.408 356.658 387.715 355.659 405.204 377.699C422.692 399.74 444.282 406.294 456.036 425.378C467.79 444.473 475.443 459.539 475.443 459.539H427.078C427.078 459.539 429.587 452.048 419.066 437.34C408.556 422.633 395.653 424.484 383.245 387.189C377.943 371.261 362.025 364.822 353.549 348.462C345.073 332.103 339.37 317.921 326.647 308.369C313.923 298.826 294.8 282.277 290.056 266.644C285.323 251.031 293.704 264.403 293.704 264.403Z" fill="#52593F"/>
<mask id="mask1_1986_5057" style="mask-type:luminance" maskUnits="userSpaceOnUse" x="0" y="0" width="273" height="354">
<path d="M272.272 0H0.0209961V353.933H272.272V0Z" fill="white"/>
</mask>
<g mask="url(#mask1_1986_5057)">
<path d="M123.539 61.1143C118.257 55.8435 99.3033 58.5683 82.1835 68.2051C65.0531 77.842 53.2147 94.2015 53.2147 94.2015C53.2147 94.2015 68.3316 72.9289 71.9791 51.1092C75.6265 29.2895 73.982 9.83696 63.2294 16.5596C52.4768 23.2823 40.4592 62.1979 46.0991 90.9191C46.0991 90.9191 39.5421 70.0147 30.2443 55.5594C20.9675 41.1147 13.0401 31.8355 11.4062 45.4702C9.76164 59.1048 16.0972 75.6958 25.3634 86.9002C34.6296 98.1046 44.9816 99.2093 44.9816 99.2093C44.9816 99.2093 30.2653 105.195 18.2372 126.468C6.20907 147.741 9.48756 164.647 16.0551 163.017C22.612 161.375 49.3986 104.354 49.3986 104.354C49.3986 104.364 49.3986 104.364 49.3986 104.375C34.7667 161.123 34.9986 248.044 42.4094 311.946L45.2768 311.63C45.2768 311.63 33.0695 191.454 48.9559 118.22C51.2329 142.186 68.0259 165.3 78.5571 170.023C91.1229 175.662 87.5598 115.842 57.9691 100.209C57.9691 100.209 78.6098 102.955 101.201 95.7796C123.781 88.594 128.82 66.3851 123.539 61.1143Z" fill="#7A9954"/>
<path d="M67.8153 15.2654C53.0358 63.8389 50.7588 99.2091 50.7588 99.2091C50.7588 99.2091 101.728 80.5771 125.3 65.1119" stroke="#21261F" stroke-width="0.5" stroke-miterlimit="10" stroke-linecap="round" stroke-linejoin="round"/>
<path d="M14.0205 39.0837C18.954 66.9317 40.4592 93.6856 50.748 99.2194C50.748 99.2194 19.829 127.046 14.0205 162.9" stroke="#21261F" stroke-width="0.5" stroke-miterlimit="10" stroke-linecap="round" stroke-linejoin="round"/>
<path d="M81.098 170.223C79.8119 140.934 50.7588 99.2197 50.7588 99.2197" stroke="#21261F" stroke-width="0.5" stroke-miterlimit="10" stroke-linecap="round" stroke-linejoin="round"/>
<path d="M206.84 102.607C205.195 99.8827 146.446 128.246 146.446 128.246C146.446 128.246 160.382 113.244 167.762 88.4257C175.141 63.6077 167.487 45.0599 157.104 48.0583C146.72 51.0566 138.245 77.8105 137.696 93.0758C137.148 108.331 141.523 127.699 141.523 127.699C141.523 127.699 133.596 106.458 118.3 93.0758C102.993 79.6937 85.5043 76.2534 85.5043 83.9755C85.5043 91.6976 90.9649 107.363 107.642 119.714C124.308 132.065 139.341 132.738 139.341 132.738C139.341 132.738 117.751 137.241 106.272 148.688C94.7916 160.145 88.5087 179.776 95.3397 182.774C102.171 185.773 119.934 174.589 127.587 165.868C133.185 159.482 138.824 146.973 141.46 140.713C130.265 201.943 90.7752 264.782 57.5581 311.452L60.3833 311.767C60.3833 311.767 128.694 227.992 143.473 144.332C146.899 171.223 167.972 191.18 173.043 191.506C183.142 192.159 175.352 151.023 146.994 133.959C146.994 133.959 168.584 132.865 185.25 124.69C201.927 116.516 208.484 105.332 206.84 102.607Z" fill="#7A9954"/>
<path d="M161.468 48.0898C160.931 84.0597 143.442 131.518 143.442 131.518C143.442 131.518 103.984 96.0532 86.4109 81.4717" stroke="#21261F" stroke-width="0.5" stroke-miterlimit="10" stroke-linecap="round" stroke-linejoin="round"/>
<path d="M206.84 102.607C175.689 123.606 143.442 131.518 143.442 131.518C143.442 131.518 157.905 162.417 175.773 190.244" stroke="#21261F" stroke-width="0.5" stroke-miterlimit="10" stroke-linecap="round" stroke-linejoin="round"/>
<path d="M95.3503 182.785C116.023 154.243 143.442 131.508 143.442 131.508" stroke="#21261F" stroke-width="0.5" stroke-miterlimit="10" stroke-linecap="round" stroke-linejoin="round"/>
<path d="M130.517 74.77C124.066 73.5391 119.038 90.9822 123.961 91.2452C128.873 91.5293 137.074 76.0219 130.517 74.77Z" fill="#7A9954"/>
<path d="M47.6172 223.289C42.3674 261.868 72.0741 284.424 76.7335 281.552C81.393 278.68 82.3101 261.731 76.2908 244.961C70.2714 228.191 59.6664 213.631 59.6664 213.631C59.6664 213.631 77.872 218.818 99.9148 216.64C121.947 214.452 138.698 199.018 130.539 195.104C122.379 191.191 83.6806 188.182 59.7719 204.531C59.7719 204.531 63.9253 179.292 53.4574 153.969C42.9894 128.635 37.5499 131.16 32.1946 138.051C26.8394 144.942 24.847 174.852 47.1956 207.066C47.1956 207.066 32.5109 190.128 12.8189 183.226C-6.87308 176.325 -32.0468 178.377 -24.8046 193.179C-17.573 207.971 23.6031 218.144 43.1581 214.883C43.1581 214.883 31.1088 216.808 14.7481 232.863C-1.61274 248.917 -6.15624 272.304 12.1653 267.149C30.4869 261.994 47.6172 223.289 47.6172 223.289Z" fill="#7A9954"/>
<path d="M48.9667 273.777C42.8209 279.911 58.3805 293.43 60.1726 288.748C61.9647 284.056 53.468 269.274 48.9667 273.777Z" fill="#7A9954"/>
<path d="M130.528 195.094C95.3187 205.478 53.8369 210.801 53.8369 210.801C53.8369 210.801 37.3074 163.343 37.1177 133.675" stroke="#21261F" stroke-width="0.5" stroke-miterlimit="10" stroke-linecap="round" stroke-linejoin="round"/>
<path d="M-25.9536 187.066C5.75597 205.509 53.8474 210.79 53.8474 210.79C53.8474 210.79 24.5203 236.629 3.71087 267.012" stroke="#21261F" stroke-width="0.5" stroke-miterlimit="10" stroke-linecap="round" stroke-linejoin="round"/>
<path d="M76.7336 281.552C60.8261 253.525 53.8369 210.801 53.8369 210.801" stroke="#21261F" stroke-width="0.5" stroke-miterlimit="10" stroke-linecap="round" stroke-linejoin="round"/>
<path d="M197.11 234.567C193.325 223.973 163.429 217.755 142.777 242.573C142.777 242.573 150.526 221.942 150.167 199.659C149.798 177.377 143.948 161.27 138.951 162.974C133.954 164.679 117.087 188.55 120.239 211.306C123.391 234.051 127.545 245.508 127.545 245.508C127.545 245.508 111.574 229.98 91.924 225.803C72.2636 221.626 58.2537 227.949 57.579 236.261C56.8938 244.572 94.7597 263.519 129.21 256.734C129.21 256.734 109.518 267.465 92.6725 282.898C75.8162 298.332 63.63 315.659 77.4502 313.829C88.6244 312.356 116.444 296.596 129.916 278.522C123.96 308.684 115.791 334.375 109.17 352.408C110.562 351.377 111.911 350.304 113.197 349.136C117.878 335.775 123.887 314.67 133.416 273.177C134.861 270.621 135.989 268.033 136.674 265.466C136.674 265.466 139.994 280.226 140.564 305.633C141.133 331.04 145.708 350.483 151.601 341.603C169.227 315.039 159.602 273.724 141.808 258.932C163.112 270.8 200.894 245.161 197.11 234.567Z" fill="#7A9954"/>
<path d="M138.94 162.974C135.662 193.747 137.412 252.904 137.412 252.904C137.412 252.904 82.4471 242.857 57.5686 236.26" stroke="#21261F" stroke-width="0.5" stroke-miterlimit="10" stroke-linecap="round" stroke-linejoin="round"/>
<path d="M197.11 234.567C174.002 244.961 137.412 252.894 137.412 252.894C137.412 252.894 155.248 285.676 151.569 341.582" stroke="#21261F" stroke-width="0.5" stroke-miterlimit="10" stroke-linecap="round" stroke-linejoin="round"/>
<path d="M71.7156 312.198C113.672 290.557 137.412 252.894 137.412 252.894" stroke="#21261F" stroke-width="0.5" stroke-miterlimit="10" stroke-linecap="round" stroke-linejoin="round"/>
</g>
<path d="M194.14 238.35L191.03 278.8L210.03 283.82L217.3 240.95L194.14 238.35Z" fill="#D3976E"/>
<path d="M208.96 240.02C209.16 252.42 207.26 264.78 205.9 277.08C205.7 278.9 205.21 280.67 204.51 282.37L210.02 283.83L217.28 240.96L208.96 240.02Z" fill="#21261F"/>
<path d="M314.59 238.35L317.7 278.8L298.69 283.82L291.43 240.95L314.59 238.35Z" fill="#D3976E"/>
<path d="M300.3 274.24C299.28 262.94 298.87 251.6 297.19 240.37C297.19 240.35 297.19 240.33 297.18 240.31L291.42 240.96L298.68 283.83L302.33 282.86C301.27 280.09 300.57 277.19 300.3 274.24Z" fill="#21261F"/>
<path d="M217.3 151.15C206.24 147.63 193.8 154.93 193.8 176.68C193.8 198.44 194.14 238.35 194.14 238.35C194.14 238.35 202.44 243.04 219.03 246.15C235.62 249.25 254.42 204.49 254.42 204.49V158.76C247.71 159.73 228.36 154.66 217.3 151.15Z" fill="#707B97"/>
<path d="M291.53 151.15C280.47 154.67 261.11 159.73 254.41 158.76V204.49C254.41 204.49 273.21 249.26 289.8 246.15C306.39 243.05 314.69 238.35 314.69 238.35C314.69 238.35 315.03 198.44 315.03 176.68C315.04 154.92 302.59 147.63 291.53 151.15Z" fill="#707B97"/>
<path d="M217.3 151.15C206.24 147.63 193.8 154.93 193.8 176.68C193.8 198.44 194.14 238.35 194.14 238.35C194.14 238.35 202.44 243.04 219.03 246.15C235.62 249.25 254.42 204.49 254.42 204.49V158.76C247.71 159.73 228.36 154.66 217.3 151.15Z" fill="#707B97"/>
<path d="M291.53 151.15C280.47 154.67 261.11 159.73 254.41 158.76V204.49C254.41 204.49 273.21 249.26 289.8 246.15C306.39 243.05 314.69 238.35 314.69 238.35C314.69 238.35 315.03 198.44 315.03 176.68C315.04 154.92 302.59 147.63 291.53 151.15Z" fill="#707B97"/>
<path d="M217.3 228.62C202.41 231.32 193.8 223.32 193.8 223.32C193.8 223.32 187.84 228.41 187.06 234.16C186.28 239.91 194.58 245.87 201.32 249.5C208.06 253.13 215.01 254.5 215.01 254.5L217.3 228.62Z" fill="#707B97"/>
<path d="M291.43 228.62C306.32 231.32 314.93 223.32 314.93 223.32C314.93 223.32 320.89 228.41 321.67 234.16C322.45 239.91 314.15 245.87 307.41 249.5C300.67 253.13 293.72 254.5 293.72 254.5L291.43 228.62Z" fill="#707B97"/>
<path d="M187 265.49C197.44 268.59 212.28 276.2 212.28 276.2L202.14 327.23C202.14 327.23 191.71 341.98 188.25 342.01C184.79 342.04 180.32 336.49 178.74 324.93C175.24 299.19 187 265.49 187 265.49Z" fill="#D67055"/>
<path d="M204.38 272.39C204.68 276.56 204.9 280.73 204.7 284.92C204.19 295.92 201.52 306.15 198.38 316.63C195.69 325.59 189.17 331.78 180.61 333.01C182.69 339.08 185.75 342.04 188.27 342.02C191.73 341.99 202.16 327.24 202.16 327.24L212.3 276.21C212.29 276.21 208.97 274.51 204.38 272.39Z" fill="#D67055"/>
<path d="M172.24 334.57C182.26 340.74 191.1 358.8 191.1 358.8C191.1 358.8 142.38 391.28 137.03 385.56C131.69 379.85 172.24 334.57 172.24 334.57Z" fill="#21261F"/>
<path d="M205.33 323.52C201.7 321.45 177.98 345.17 172.02 350.74C166.06 356.31 178.76 353.92 178.76 353.92C178.76 353.92 194.1 342.96 201.29 336.81C208.48 330.65 205.33 323.52 205.33 323.52Z" fill="#42353B"/>
<path d="M151.2 373.18C152.92 377.99 183.03 352.42 183.03 352.42L176.89 344.97C176.89 344.97 149.67 368.88 151.2 373.18Z" fill="#D39F3F"/>
<path d="M179.3 328.15C181.09 339.72 188.66 348.57 190.94 347.78C193.22 346.99 193.1 344.77 193.1 344.77C195.31 344.7 196.58 343.76 196.99 342.02C198.42 341.45 199.5 340.51 200 338.91C200 338.91 201.78 337.81 203.3 335.86C204.82 333.91 204.68 322.78 203.3 322.7C201.92 322.61 198.98 325.03 198.98 325.03C197.99 324.86 196.9 325.85 195.78 327.24L195.19 323.04L179.3 328.15Z" fill="#D67055"/>
<path d="M195.78 327.24C196.13 332.72 192.7 336.04 192.6 339.01C192.5 341.97 193.11 344.78 193.11 344.78" stroke="#D67055" stroke-width="0.5" stroke-miterlimit="10" stroke-linecap="round" stroke-linejoin="round"/>
<path d="M198.98 325.03C200.42 329.61 196.99 342.02 196.99 342.02" stroke="#D67055" stroke-width="0.5" stroke-miterlimit="10" stroke-linecap="round" stroke-linejoin="round"/>
<path d="M318.06 265.49C307.62 268.59 292.78 276.2 292.78 276.2L302.92 327.23C302.92 327.23 313.35 341.98 316.81 342.01C320.27 342.04 324.74 336.49 326.32 324.93C329.82 299.19 318.06 265.49 318.06 265.49Z" fill="#D67055"/>
<path d="M312.44 329.19C301.35 311.8 301.55 291.61 302.06 271.77C296.77 274.17 292.78 276.22 292.78 276.22L302.92 327.25C302.92 327.25 313.35 342 316.81 342.03C318.64 342.05 320.76 340.47 322.58 337.28C318.46 335.68 314.81 332.9 312.44 329.19Z" fill="#D67055"/>
<path d="M298.65 341.02C308.79 342.86 319.96 347.59 323.41 350.35C323.41 350.35 320.13 341.19 313.56 337.73C306.99 334.27 299.39 333.58 299.39 333.58L298.65 324.44C298.65 324.44 319.26 330.32 325.49 337.39C331.71 344.46 338.8 366.76 338.8 366.76L351.24 334.1L358.9 337.21C358.9 337.21 357.63 404.26 336.2 418.44C314.77 432.61 295.59 415.79 295.59 415.79L298.65 341.02Z" fill="#D39F3F"/>
<path opacity="0.7" d="M313.56 337.73C314.19 338.06 314.79 338.44 315.35 338.87C315.51 336.24 316.03 333.75 316.91 331.47C308.72 327.32 298.64 324.45 298.64 324.45L299.38 333.59C299.39 333.58 306.99 334.28 313.56 337.73Z" fill="#D39F3F"/>
<path opacity="0.7" d="M326.04 412.89C315.18 402.08 311.96 387.22 312.48 372.34C312.74 365.05 313.47 357.78 314.3 350.54C314.48 348.98 314.66 347.43 314.84 345.87C310.1 343.92 304.22 342.03 298.64 341.02L295.58 415.8C295.58 415.8 314.76 432.62 336.19 418.45C336.37 418.33 336.55 418.19 336.74 418.06C332.7 417.42 328.86 415.69 326.04 412.89Z" fill="#D39F3F"/>
<path d="M296.45 348.43C305.96 361.24 331.14 360.42 323.41 350.35C318.57 344.05 298.65 339.01 298.65 339.01L296.45 348.43Z" fill="#21261F"/>
<path d="M335.08 356.31C332.72 366.05 330.15 389.23 330.15 389.23L338.79 366.76C338.79 366.77 337.3 362.07 335.08 356.31Z" fill="#21261F"/>
<path d="M358.89 337.21C359.05 335.01 352.44 330.93 351.23 334.1C350.03 337.27 358.69 339.98 358.89 337.21Z" fill="#21261F"/>
<path d="M325.76 328.15C323.97 339.72 316.4 348.57 314.12 347.78C311.84 346.99 311.96 344.77 311.96 344.77C309.75 344.7 308.48 343.76 308.07 342.02C306.64 341.45 305.56 340.51 305.06 338.91C305.06 338.91 303.28 337.81 301.76 335.86C300.24 333.91 300.38 322.78 301.76 322.7C303.14 322.61 306.08 325.03 306.08 325.03C307.07 324.86 308.16 325.85 309.28 327.24L309.87 323.04L325.76 328.15Z" fill="#D67055"/>
<path d="M309.28 327.24C308.93 332.72 312.36 336.04 312.46 339.01C312.56 341.97 311.95 344.78 311.95 344.78" stroke="#D67055" stroke-width="0.5" stroke-miterlimit="10" stroke-linecap="round" stroke-linejoin="round"/>
<path d="M306.08 325.03C304.64 329.61 308.07 342.02 308.07 342.02" stroke="#D67055" stroke-width="0.5" stroke-miterlimit="10" stroke-linecap="round" stroke-linejoin="round"/>
<path d="M238.57 156.87C238.46 168.67 245.88 178.66 249.78 183.61C252.7 187.32 251.8 187.45 254.41 187.58C260.5 187.89 268.83 170.24 266.48 157.64L238.57 156.87Z" fill="#EDE7E2"/>
<path d="M244.95 139.65L242.01 157.83C242.35 167.6 259.98 169.93 263.96 157.58L260.59 137.64L244.95 139.65Z" fill="#D3976E"/>
<path d="M261.45 142.71L260.59 137.64L244.95 139.65L244.31 143.6C245.05 145.23 248.04 147.63 252.23 147.63C257.93 147.63 260.33 145.14 261.45 142.71Z" fill="#21261F"/>
<path d="M253.64 141.02C259.41 139.31 263.5 141.31 265.98 144.1C268.46 146.89 276.62 146.53 278.8 142.62C280.99 138.71 283.22 135.89 288.78 134.37C294.34 132.85 297.31 125.25 293.26 118.45C289.22 111.65 292.74 105.11 289.38 99.1201C286.03 93.1301 279.09 96.3101 275.29 88.4901C271.49 80.6701 262.61 81.0701 257.46 83.4801C252.3 85.8901 243.94 77.4301 237.11 83.1501C230.28 88.8701 230.8 92.3001 225.81 94.3301C220.82 96.3701 215.37 100.42 217.15 107.79C218.93 115.15 213.79 117.93 213.69 123.74C213.59 129.55 220.31 129.8 223.14 132.03C225.96 134.26 223.18 141.04 232.02 143.95C240.86 146.86 245.15 141.22 247.5 140.93C249.85 140.64 253.64 141.02 253.64 141.02Z" fill="#21261F"/>
<path d="M239.42 128.46C242.64 122.01 230.17 117.98 228.54 122.34C226.9 126.68 237.11 133.08 239.42 128.46Z" fill="#D3976E"/>
<path d="M233.81 120.71C235.16 123.23 236.07 126.1 236.4 129.26C236.43 129.52 236.44 129.79 236.46 130.05C237.74 130.08 238.84 129.62 239.43 128.45C241.39 124.52 237.5 121.48 233.81 120.71Z" fill="#21261F"/>
<path d="M230.44 123.1C235.7 125.46 237.7 127.73 237.7 127.73" stroke="#D67055" stroke-width="0.5" stroke-miterlimit="10" stroke-linecap="round" stroke-linejoin="round"/>
<path d="M265.73 127.95C262.51 121.5 274.98 117.47 276.61 121.83C278.24 126.17 268.04 132.57 265.73 127.95Z" fill="#D3976E"/>
<path d="M272.73 120.01C268.73 120.21 263.5 123.5 265.72 127.94C266.48 129.46 268.09 129.78 269.85 129.39C269.98 126.14 271.02 122.9 272.73 120.01Z" fill="#21261F"/>
<path d="M274.62 122.47C269.36 124.83 267.37 127.1 267.37 127.1" stroke="#D67055" stroke-width="0.5" stroke-miterlimit="10" stroke-linecap="round" stroke-linejoin="round"/>
<path d="M252.12 145.15C265.18 144.97 270.89 130.28 268.35 119.03C268.35 119.03 268.62 114.9 265.09 113.52C261.55 112.14 261.96 107.79 258.83 106.97C255.7 106.15 255.49 111.38 251.85 111.62C248.22 111.86 246.99 109.28 244 110.5C241.01 111.72 242.5 115.67 238.15 116.89C238.15 116.89 236.25 126.28 238.15 133.62C240.05 140.98 245.41 145.24 252.12 145.15Z" fill="#D3976E"/>
<path d="M253.85 136.03C257.91 136.42 258.61 132.65 258.61 132.65" stroke="#D67055" stroke-width="0.5" stroke-miterlimit="10" stroke-linecap="round" stroke-linejoin="round"/>
<path d="M253.19 121.6C253.65 125.54 253.7 128.99 252.5 130.26C251.3 131.53 252.96 131.88 254.16 132.29" stroke="#D67055" stroke-width="0.5" stroke-miterlimit="10" stroke-linecap="round" stroke-linejoin="round"/>
<path d="M259.18 123.25C259.18 122.91 259.47 122.63 259.87 122.54C259.63 121.83 259.24 121.39 258.74 121.7C257.29 122.59 257.97 127.14 259.35 126.6C259.97 126.36 260.2 125.16 260.14 124C259.61 124 259.18 123.66 259.18 123.25Z" fill="#21261F"/>
<path d="M247.35 123.19C247.35 122.85 247.64 122.58 248.02 122.48C247.78 121.8 247.39 121.39 246.9 121.69C245.45 122.58 246.13 127.13 247.51 126.59C248.14 126.34 248.37 125.11 248.29 123.94C247.77 123.94 247.35 123.61 247.35 123.19Z" fill="#21261F"/>
<path d="M250.95 84.64C256.78 80.62 265.28 78.55 270.98 84.64" stroke="#21261F" stroke-width="0.75" stroke-miterlimit="10" stroke-linecap="round" stroke-linejoin="round"/>
<path d="M215.18 126.02C216.86 132.47 225.68 133.51 225.68 133.51" stroke="#21261F" stroke-width="0.75" stroke-miterlimit="10" stroke-linecap="round" stroke-linejoin="round"/>
<path d="M273.51 142.63C281.29 146.98 285.43 134.35 285.43 134.35" stroke="#21261F" stroke-width="0.75" stroke-miterlimit="10" stroke-linecap="round" stroke-linejoin="round"/>
<path d="M257.93 105.38C260.55 116.92 270.99 115.88 270.99 115.88" stroke="#21261F" stroke-width="0.75" stroke-miterlimit="10" stroke-linecap="round" stroke-linejoin="round"/>
<path d="M245.12 109.48C245.25 118.21 237.3 115.36 237.3 115.36" stroke="#21261F" stroke-width="0.75" stroke-miterlimit="10" stroke-linecap="round" stroke-linejoin="round"/>
<path d="M254.42 262.73L251.35 315.87L249.28 459.55H198.98L207.27 303.72L226.7 262.73H254.42Z" fill="#707B97"/>
<path d="M283.06 311.17C282.25 303.36 287.12 295.25 294.03 291.29L280.5 262.73H252.78L255.84 315.87L257.91 459.55H308.21L301.35 330.66C291.49 329.08 284.15 321.7 283.06 311.17Z" fill="#707B97"/>
<path d="M301.35 330.66C291.49 329.07 284.15 321.7 283.06 311.16C282.25 303.35 287.12 295.24 294.03 291.28L280.5 262.72H252.78L255.84 315.86L256.56 366.1C278.85 366.05 295.73 361.26 302.85 358.83L301.35 330.66Z" fill="#21261F"/>
<path d="M226.7 262.73L207.28 303.72L204.23 360.95C212.26 362.57 228.98 365.38 250.63 366.01L251.35 315.86L254.41 262.72H226.7V262.73Z" fill="#21261F"/>
<path d="M254.42 183.66C231.39 184.05 221.02 185.22 221.02 185.22L198.99 354.59C198.99 354.59 220.78 360.15 252.74 360.87C284.7 361.59 306.58 352.25 306.58 352.25L286.43 184.23C286.43 184.23 269.78 183.4 254.42 183.66Z" fill="#D39F3F"/>
<path d="M200 346.75C231.47 351.22 270.34 355.89 305.59 344.05" stroke="#D39F3F" stroke-width="0.5" stroke-miterlimit="10" stroke-linecap="round" stroke-linejoin="round" stroke-dasharray="3 3"/>
<path d="M210.53 265.83C239.14 268.22 267.7 268.21 296.21 265.83" stroke="#D39F3F" stroke-width="0.5" stroke-miterlimit="10" stroke-linecap="round" stroke-linejoin="round" stroke-dasharray="3 3"/>
<path opacity="0.7" d="M215.22 280.25H291.42C291.42 280.25 289.59 305.41 284.72 307.06C279.85 308.7 224.9 309.39 219.71 305.59C214.52 301.79 215.22 280.25 215.22 280.25Z" fill="#D39F3F"/>
<path d="M235.62 280.25L235.72 281.75" stroke="#D39F3F" stroke-width="0.5" stroke-linecap="round" stroke-linejoin="round"/>
<path d="M235.91 284.5L237.31 305.14" stroke="#D39F3F" stroke-width="0.5" stroke-linecap="round" stroke-linejoin="round" stroke-dasharray="2.76 2.76"/>
<path d="M237.41 306.51L237.51 308.01" stroke="#D39F3F" stroke-width="0.5" stroke-linecap="round" stroke-linejoin="round"/>
<path d="M237.51 280.25L237.62 281.75" stroke="#D39F3F" stroke-width="0.5" stroke-linecap="round" stroke-linejoin="round"/>
<path d="M237.83 284.5L239.38 305.14" stroke="#D39F3F" stroke-width="0.5" stroke-linecap="round" stroke-linejoin="round" stroke-dasharray="2.76 2.76"/>
<path d="M239.48 306.51L239.59 308.01" stroke="#D39F3F" stroke-width="0.5" stroke-linecap="round" stroke-linejoin="round"/>
<path d="M255.42 280.25V281.75" stroke="#D39F3F" stroke-width="0.5" stroke-linecap="round" stroke-linejoin="round"/>
<path d="M255.42 284.54V305.48" stroke="#D39F3F" stroke-width="0.5" stroke-linecap="round" stroke-linejoin="round" stroke-dasharray="2.79 2.79"/>
<path d="M255.42 306.87V308.37" stroke="#D39F3F" stroke-width="0.5" stroke-linecap="round" stroke-linejoin="round"/>
<path d="M274.16 280.25L273.99 281.74" stroke="#D39F3F" stroke-width="0.5" stroke-linecap="round" stroke-linejoin="round"/>
<path d="M273.68 284.51L271.36 305.26" stroke="#D39F3F" stroke-width="0.5" stroke-linecap="round" stroke-linejoin="round" stroke-dasharray="2.78 2.78"/>
<path d="M271.21 306.64L271.04 308.13" stroke="#D39F3F" stroke-width="0.5" stroke-linecap="round" stroke-linejoin="round"/>
<path d="M276.4 280.25L276.2 281.74" stroke="#D39F3F" stroke-width="0.5" stroke-linecap="round" stroke-linejoin="round"/>
<path d="M275.82 284.49L272.99 305.15" stroke="#D39F3F" stroke-width="0.5" stroke-linecap="round" stroke-linejoin="round" stroke-dasharray="2.78 2.78"/>
<path d="M272.8 306.52L272.6 308.01" stroke="#D39F3F" stroke-width="0.5" stroke-linecap="round" stroke-linejoin="round"/>
<path opacity="0.7" d="M236.56 246.15C238.04 247.06 273.12 247.76 274.15 246.3C275.19 244.84 278.82 209.67 278.82 209.67H232.33C232.33 209.67 233.19 244.08 236.56 246.15Z" fill="#D39F3F"/>
<path d="M232.45 213.32H278.44" stroke="#D39F3F" stroke-width="0.5" stroke-miterlimit="10" stroke-linecap="round" stroke-linejoin="round" stroke-dasharray="3 3"/>
<path d="M225.68 194.55C229.57 195.85 234.36 194.55 234.36 194.55L236.54 156.42L228.31 154.36L225.68 194.55Z" fill="#D39F3F"/>
<path opacity="0.7" d="M225.68 194.55C229.57 195.85 234.36 194.55 234.36 194.55L236.54 156.42L228.31 154.36L225.68 194.55Z" fill="#D39F3F"/>
<path d="M273.34 156.17L272.26 193.38C276.13 194.94 280 194.94 283.88 193.38L280.52 154.35L273.34 156.17Z" fill="#D39F3F"/>
<path opacity="0.7" d="M273.34 156.17L272.26 193.38C276.13 194.94 280 194.94 283.88 193.38L280.52 154.35L273.34 156.17Z" fill="#D39F3F"/>
<path d="M228.25 188.35L231.62 192.18" stroke="#D39F3F" stroke-width="0.5" stroke-miterlimit="10" stroke-linecap="round" stroke-linejoin="round"/>
<path d="M231.62 188.35L228.25 192.18" stroke="#D39F3F" stroke-width="0.5" stroke-miterlimit="10" stroke-linecap="round" stroke-linejoin="round"/>
<path d="M276.38 187.07L279.75 190.89" stroke="#D39F3F" stroke-width="0.5" stroke-miterlimit="10" stroke-linecap="round" stroke-linejoin="round"/>
<path d="M279.75 187.07L276.38 190.89" stroke="#D39F3F" stroke-width="0.5" stroke-miterlimit="10" stroke-linecap="round" stroke-linejoin="round"/>
<path d="M249.79 183.61C244.16 173.87 242.01 157.82 243.79 146.84C236.86 149.32 231.19 155.25 225.68 161.62C232.63 170.14 240.63 177.5 249.79 183.61Z" fill="#707B97"/>
<path d="M262.15 146.85C265.35 162.41 260.17 183.62 260.17 183.62L280.25 159.56C277 153.54 271 149.29 262.15 146.85Z" fill="#707B97"/>
<mask id="mask2_1986_5057" style="mask-type:luminance" maskUnits="userSpaceOnUse" x="24" y="262" width="460" height="198">
<path d="M483.94 262.73H24.8899V459.55H483.94V262.73Z" fill="white"/>
</mask>
<g mask="url(#mask2_1986_5057)">
<path d="M483.94 307.06C467.54 296.95 445.76 311.81 448.53 325.29C451.3 338.77 466.5 340.15 458.9 359.51C451.3 378.87 455.79 378.87 464.08 387.16C472.38 395.46 459.85 407.79 466.11 415.79C472.37 423.8 483.94 426.56 483.94 426.56V307.06Z" fill="#4A8171"/>
<path d="M467.54 315.96C475.49 334.62 482.71 381.49 483.94 394.87" stroke="#21261F" stroke-width="0.5" stroke-miterlimit="10" stroke-linecap="round" stroke-linejoin="round"/>
<path d="M415.35 350.87C405.41 358.07 409.47 373.68 420.19 379.21C430.9 384.74 430.61 389.4 428.14 406.34C425.67 423.28 433.17 428.27 442.23 432.95C451.3 437.62 452.68 450.76 452.68 453.52C452.68 456.28 458.56 459.55 458.56 459.55H483.95V426.56C483.95 426.56 471.7 422.99 472.04 415.79C472.39 408.59 466.51 401.53 459.94 394.86C453.37 388.19 464.43 375.26 460.98 364.27C457.52 353.29 439.2 333.58 415.35 350.87Z" fill="#4A8171"/>
<path d="M432.58 330.8C426.19 337.86 444.76 344.8 447.36 339.61C449.95 334.43 437.5 325.35 432.58 330.8Z" fill="#4A8171"/>
<path d="M428.14 358.82C443 374.03 443.22 383.01 448.29 406.35C453.37 429.68 476.84 451.77 483.94 459.56" stroke="#21261F" stroke-width="0.5" stroke-miterlimit="10" stroke-linecap="round" stroke-linejoin="round"/>
<path d="M388.75 338.94C404.08 342.36 400.72 385.37 382.26 378.19C363.8 371.01 370.85 334.94 388.75 338.94Z" fill="#D67055"/>
<path d="M383.6 355.27C386.87 355.99 385.63 362.16 383.39 361.9C381.15 361.64 380.33 354.55 383.6 355.27Z" fill="white"/>
<path d="M390.81 286.85C402.03 295.75 382.17 329.7 369.88 316.46C357.59 303.23 377.71 276.46 390.81 286.85Z" fill="#D67055"/>
<path d="M378.72 296.12C381.34 298.19 377.54 303.21 375.64 302C373.74 300.79 376.1 294.05 378.72 296.12Z" fill="white"/>
<path d="M66.5698 410.21C66.5698 410.21 82.5998 344.99 104.92 315.56" stroke="#7A9954" stroke-miterlimit="10" stroke-linecap="round" stroke-linejoin="round"/>
<path d="M114.15 304.07C110.2 301.34 104.44 311.16 106.9 312.37C109.36 313.59 116.67 305.81 114.15 304.07Z" fill="#D39F3F"/>
<path d="M99.9199 310C96.8999 309 92.2599 319.4 95.2799 320.4C98.2899 321.4 102.94 311 99.9199 310Z" fill="#D39F3F"/>
<path d="M107.74 320.73C106.02 319.01 97.2599 327.41 100.45 329.49C103.65 331.56 109.93 322.91 107.74 320.73Z" fill="#D39F3F"/>
<path d="M86.3499 319.15C83.6799 318.35 82.3999 327.15 84.6499 326.96C86.9099 326.76 88.4299 319.77 86.3499 319.15Z" fill="#D39F3F"/>
<path d="M90.9999 327.56C88.1299 326.23 83.1199 340.41 86.5099 341.16C89.8999 341.92 95.6399 329.72 90.9999 327.56Z" fill="#D39F3F"/>
<path d="M98.5999 338.83C94.6299 336.33 87.1999 348.97 90.9799 350.38C94.7599 351.79 101.89 340.91 98.5999 338.83Z" fill="#D39F3F"/>
<path d="M80.7399 344.4C75.4199 344 76.0499 352.47 79.1599 352.22C82.2899 351.98 83.8099 344.64 80.7399 344.4Z" fill="#D39F3F"/>
<path d="M52.2299 417.71C59.0999 399.25 71.6399 373.48 74.5999 354.16C77.5599 334.84 72.8399 318.52 52.2299 338.7C31.6199 358.88 24.8899 393.45 24.8899 393.45V459.56H34.7199L52.2299 417.71Z" fill="#4A8171"/>
<path d="M65.9698 341.19C45.7898 386.37 33.7698 422.86 30.3298 448.63" stroke="#21261F" stroke-width="0.5" stroke-miterlimit="10" stroke-linecap="round" stroke-linejoin="round"/>
<path d="M52.7699 446.61C58.2999 434.86 84.3699 419.65 93.7999 409.97C103.23 400.29 117.06 361.93 105.65 360.89C94.2399 359.85 57.9499 395.45 43.6099 423.11C29.2699 450.76 24.8799 459.56 24.8799 459.56H50.6999L52.7699 446.61Z" fill="#4A8171"/>
<path d="M79.2098 365.04C80.0198 368.99 95.2598 360.03 93.7998 356.05C92.3498 352.08 77.8298 358.3 79.2098 365.04Z" fill="#4A8171"/>
<path d="M102.28 369.81C79.3999 400.85 46.2099 430.67 37.9099 459.55" stroke="#21261F" stroke-width="0.5" stroke-miterlimit="10" stroke-linecap="round" stroke-linejoin="round"/>
<path d="M54.8499 459.55C58.6499 447.64 81.0899 431.69 80.4099 421C79.7299 410.31 51.2699 407.55 24.8899 443.49V459.55H54.8499Z" fill="#4A8171"/>
<path d="M72.58 420.69C43.59 433.8 29.98 458.37 29.98 458.37" stroke="#21261F" stroke-width="0.5" stroke-miterlimit="10" stroke-linecap="round" stroke-linejoin="round"/>
<path d="M49.0498 414.18L35.1898 333.82H33.9998L48.1998 415.54C48.4798 415.08 48.7498 414.62 49.0498 414.18Z" fill="#21261F"/>
<path d="M47.9499 314.09C47.0899 312.77 15.9399 317.87 14.8799 318.44C13.8299 319.01 18.2599 339.5 19.6099 340.22C20.9599 340.94 50.0199 337.34 50.7899 335.77C51.5199 334.27 48.3599 314.6 47.9499 314.09Z" fill="#EDE7E2"/>
</g>
</svg>
