<svg width="500" height="500" viewBox="0 0 500 500" fill="none" xmlns="http://www.w3.org/2000/svg">
<g clip-path="url(#clip0_1988_6490)">
<path d="M500 0H0V500H500V0Z" fill="#FADBB8"/>
<path d="M469.64 64.3501H353.89V342H469.64V64.3501Z" fill="#FAE6CF"/>
<path d="M414.63 59.52H409.46V342.02H414.63V59.52Z" fill="#FADBB8"/>
<path d="M472.18 127.53H351.9V130.81H472.18V127.53Z" fill="#FADBB8"/>
<path d="M472.18 199.13H351.9V202.41H472.18V199.13Z" fill="#FADBB8"/>
<path d="M472.18 270.74H351.9V274.02H472.18V270.74Z" fill="#FADBB8"/>
<path d="M312.87 64.3501H197.12V342H312.87V64.3501Z" fill="#FAE6CF"/>
<path d="M257.86 59.52H252.69V342.02H257.86V59.52Z" fill="#FADBB8"/>
<path d="M315.42 127.53H195.14V130.81H315.42V127.53Z" fill="#FADBB8"/>
<path d="M315.42 199.13H195.14V202.41H315.42V199.13Z" fill="#FADBB8"/>
<path d="M315.42 270.74H195.14V274.02H315.42V270.74Z" fill="#FADBB8"/>
<path d="M156.11 64.3501H40.3604V342H156.11V64.3501Z" fill="#FAE6CF"/>
<path d="M101.1 59.52H95.9302V342.02H101.1V59.52Z" fill="#FADBB8"/>
<path d="M158.65 127.53H38.3701V130.81H158.65V127.53Z" fill="#FADBB8"/>
<path d="M158.65 199.13H38.3701V202.41H158.65V199.13Z" fill="#FADBB8"/>
<path d="M158.65 270.74H38.3701V274.02H158.65V270.74Z" fill="#FADBB8"/>
<path d="M351.97 378.58H339.43V500H351.97V378.58Z" fill="#9B5533"/>
<path d="M467.99 378.58H455.45V500H467.99V378.58Z" fill="#9B5533"/>
<path d="M461.98 423.51H345.95V457.8H461.98V423.51Z" fill="#9B5533"/>
<path d="M484.72 372.31H334.2V384.85H484.72V372.31Z" fill="#E88E64"/>
<path d="M361.37 378.58H348.83V500H361.37V378.58Z" fill="#E88E64"/>
<path d="M477.4 378.58H464.86V500H477.4V378.58Z" fill="#E88E64"/>
<path d="M471.14 430.71H355.11V465H471.14V430.71Z" fill="#E88E64"/>
<path d="M414.63 456.43C424.041 456.43 431.67 452.897 431.67 448.54C431.67 444.182 424.041 440.65 414.63 440.65C405.219 440.65 397.59 444.182 397.59 448.54C397.59 452.897 405.219 456.43 414.63 456.43Z" fill="#9B5533"/>
<path d="M437.39 329.57C415.29 327.83 393.22 325.58 371.22 322.86L369.73 333.12C392.86 335.69 415.99 338.27 439.11 340.84L437.39 329.57Z" fill="#365650"/>
<path d="M432.961 300.71H374.421L372.391 314.72C393.481 315.95 414.581 317.17 435.671 318.4L432.961 300.71Z" fill="#365650"/>
<path d="M435.68 318.4C414.59 317.17 393.49 315.95 372.4 314.72L371.22 322.85C393.22 325.58 415.29 327.82 437.39 329.56L435.68 318.4Z" fill="white"/>
<path d="M439.11 340.84C415.98 338.27 392.85 335.69 369.73 333.12L367.51 348.46C392.99 351.28 418.2 356.52 442.68 364.1L439.11 340.84Z" fill="white"/>
<path d="M442.68 364.1C418.19 356.52 392.98 351.28 367.51 348.46L365.06 365.37C364.53 369.03 367.37 372.32 371.07 372.32H436.86C440.58 372.32 443.43 369 442.87 365.32L442.68 364.1Z" fill="#365650"/>
<path d="M326.68 296.72C331.79 279.55 339.67 263.19 349.84 248.38C354.93 240.98 360.59 233.96 366.77 227.42C368.31 225.78 369.86 224.15 371.5 222.61L373.92 220.26C374.74 219.49 375.59 218.75 376.42 217.99L378.93 215.73L381.52 213.56C383.26 212.13 384.91 210.63 386.92 209.35C387.91 208.72 388.99 208.15 390.18 207.77C391.37 207.39 392.67 207.22 393.97 207.39C396.59 207.74 398.8 209.34 400.28 211.3C401.81 213.25 402.66 215.7 402.92 218.08C403.2 220.47 403.01 222.79 402.98 224.95C402.96 227.1 403.17 229.29 403.35 231.54C403.52 233.81 403.65 236.02 403.79 238.27C404.07 242.75 404.3 247.23 404.5 251.71C405.28 269.64 405.25 287.72 402.96 305.68C402.81 306.83 401.77 307.64 400.62 307.49C399.47 307.34 398.66 306.3 398.81 305.15C398.81 305.14 398.81 305.12 398.82 305.11C401.41 287.55 401.79 269.66 401.37 251.82C401.26 247.35 401.11 242.89 400.92 238.42C400.82 236.19 400.74 233.93 400.61 231.74C400.48 229.52 400.3 227.24 400.37 224.91C400.45 222.61 400.66 220.44 400.45 218.36C400.26 216.29 399.61 214.35 398.4 212.73C397.23 211.11 395.53 209.89 393.67 209.61C391.8 209.31 389.83 210.04 388.03 211.14C386.22 212.23 384.51 213.71 382.77 215.09L380.17 217.18L377.65 219.37C376.81 220.1 375.96 220.82 375.13 221.57L372.69 223.85C371.04 225.35 369.48 226.94 367.91 228.53C361.66 234.89 355.91 241.74 350.71 249C340.3 263.5 332.12 279.65 326.68 296.72Z" fill="#4D775B"/>
<path d="M393.93 230.28C392.42 238.2 387.14 245.32 379.99 249.07C381.3 242.92 381.28 236.49 379.95 230.34C379.7 229.17 379.14 227.78 377.95 227.65C376.86 227.54 375.99 228.68 375.93 229.78C375.88 230.87 376.39 231.9 376.81 232.91C380.91 242.53 377.73 254.73 369.45 261.13C369.73 255.45 370.01 249.77 370.29 244.09C370.37 242.53 370.42 240.88 369.63 239.54C368.84 238.2 366.86 237.45 365.68 238.47C364.64 239.37 364.79 241 365.05 242.35C367.02 252.54 370.38 262.86 368.59 273.09C368.2 275.34 366.94 278.04 364.65 277.96C362.71 277.89 361.55 275.82 360.86 274C358.82 268.62 357.5 262.98 356.94 257.25C356.76 255.37 356.12 252.92 354.23 252.85C352.92 252.8 351.91 254.14 351.81 255.44C351.72 256.74 352.29 257.99 352.84 259.17C354.33 262.33 355.82 265.5 357.31 268.66C358.69 271.59 360.1 274.64 360.13 277.88C360.17 281.99 358.01 285.77 355.91 289.31C354.4 291.86 352.42 294.71 349.47 294.88C349.65 289.66 349.83 284.39 348.86 279.27C348.19 275.73 346.93 271.7 344.62 268.87C343.91 268 342.65 267.19 341.78 267.88C341.24 268.31 341.19 269.13 341.43 269.77C341.67 270.41 342.13 270.94 342.52 271.51C344.09 273.82 344.03 276.56 344.52 279.16C345.21 282.84 346.37 286.29 346.46 290.08C346.55 294.14 345.58 298.37 342.96 301.48C340.54 304.36 336.92 306.03 333.24 306.78C329.56 307.54 325.76 307.46 322 307.39C321.09 296.18 321.29 284.87 322.59 273.7C322.74 272.45 323.05 270.98 324.21 270.49C325 270.16 325.89 270.41 326.74 270.44C327.59 270.47 328.63 270.08 328.72 269.23C328.8 268.39 327.91 267.82 327.53 267.07C327.06 266.15 327.41 265 328.04 264.18C328.67 263.36 329.54 262.77 330.29 262.05C332.57 259.86 333.53 256.69 334.72 253.77C335.92 250.85 337.68 247.82 340.65 246.76C341.57 246.43 342.57 246.31 343.39 245.8C344.22 245.29 344.82 244.19 344.35 243.34C343.93 242.58 342.9 242.4 342.26 241.81C340.38 240.05 342.66 237.99 343.66 236.66C345.16 234.67 346.26 232.3 347.64 230.18C350.5 225.79 354.13 221.62 359.18 219.79C360.09 219.46 361.05 219.2 361.84 218.63C362.63 218.06 363.21 217.08 362.97 216.14C362.73 215.2 361.41 214.63 360.72 215.31C365.34 209.54 372.72 206.03 380.09 205.84C391.23 205.56 395.53 221.91 393.93 230.28Z" fill="#A7B964"/>
<path d="M322.51 307.86C324.88 298.16 327.56 288.51 331.25 279.19C333.11 274.55 335.18 269.97 337.63 265.59C340.05 261.19 342.83 257.01 345.79 252.96C348.75 248.91 351.87 245 355.02 241.12C358.17 237.24 361.34 233.36 364.67 229.61C371.31 222.11 378.62 215.06 387.01 209.4C387.49 209.08 388.14 209.2 388.46 209.68C388.78 210.16 388.66 210.81 388.18 211.13C388.18 211.13 388.17 211.14 388.16 211.14C379.86 216.52 372.54 223.32 365.83 230.65C362.46 234.31 359.23 238.11 356.02 241.94C352.81 245.76 349.63 249.6 346.62 253.57C343.62 257.54 340.78 261.64 338.31 265.96C335.81 270.26 333.67 274.77 331.73 279.37C327.89 288.6 325.05 298.21 322.51 307.86Z" fill="#4D775B"/>
<path d="M367.96 227.83C374.04 233.6 377.23 242.28 376.32 250.61" stroke="#4D775B" stroke-width="1.0453" stroke-miterlimit="10" stroke-linecap="round" stroke-linejoin="round"/>
<path d="M356.87 240.43C361.3 250.52 364.38 261.2 366 272.1" stroke="#4D775B" stroke-width="1.0453" stroke-miterlimit="10" stroke-linecap="round" stroke-linejoin="round"/>
<path d="M344.7 256.9C350.43 264.48 354.25 273.49 355.72 282.88" stroke="#4D775B" stroke-width="1.0453" stroke-miterlimit="10" stroke-linecap="round" stroke-linejoin="round"/>
<path d="M339.67 263.04C337.38 262.75 335.05 262.8 332.78 263.2" stroke="#4D775B" stroke-width="1.0453" stroke-miterlimit="10" stroke-linecap="round" stroke-linejoin="round"/>
<path d="M361.14 234.51C356.57 233.75 351.8 234.28 347.51 236.02" stroke="#4D775B" stroke-width="1.0453" stroke-miterlimit="10" stroke-linecap="round" stroke-linejoin="round"/>
<path d="M376.19 218.1C373.27 215.71 369.55 214.32 365.78 214.21" stroke="#4D775B" stroke-width="1.0453" stroke-miterlimit="10" stroke-linecap="round" stroke-linejoin="round"/>
<path d="M382.16 214.96C387.44 221.18 389.92 229.69 388.8 237.77" stroke="#4D775B" stroke-width="1.0453" stroke-miterlimit="10" stroke-linecap="round" stroke-linejoin="round"/>
<path d="M401.58 235.24C401.75 230.93 402.41 226.64 403.62 222.52C404.8 218.39 406.51 214.43 408.64 210.73C409.72 208.89 410.9 207.11 412.18 205.41C413.47 203.72 414.91 202.09 416.63 200.8C418.34 199.51 420.4 198.6 422.56 198.51C424.69 198.37 426.92 199.04 428.4 200.58C426.86 199.1 424.64 198.55 422.58 198.77C420.49 198.94 418.56 199.91 416.95 201.21C415.34 202.53 414.01 204.16 412.81 205.87C411.62 207.6 410.53 209.39 409.55 211.24C407.62 214.95 406.11 218.88 405.13 222.93C404.13 226.97 403.66 231.13 403.67 235.27V235.28C403.67 235.86 403.2 236.33 402.63 236.33C402.05 236.33 401.58 235.86 401.58 235.29C401.57 235.27 401.58 235.26 401.58 235.24Z" fill="#4D775B"/>
<path d="M487.04 270.67C486.23 263.84 478.17 262.31 476.37 257.07C478.88 258.43 481.4 259.79 483.91 261.15C481.65 252.29 478.01 243.17 468.65 240.46C468.8 237.1 472.95 241.66 474.07 239.49C472.16 231.64 466.4 224.83 458.98 221.63C458.32 221.35 457.51 220.86 457.65 220.15C458.55 218.01 461.22 221.64 462.49 220.46C455.75 206.8 439.19 196.49 423.73 196.26L423.98 196.62C412.48 194.85 409.49 211.44 408.79 219.93C408.89 226.24 414.62 234.71 421.41 232.03C424.43 228.77 425.81 224.13 428.15 220.35C428.85 218.34 431.54 217.65 431.8 220.21C430.84 225.62 426.91 230.36 426.16 235.83C428.7 246.05 436.36 231.93 438.87 228.59C440.42 225.78 444.01 226.49 442.57 229.78C440.77 234.46 436.25 238.2 436.19 243.21C435.87 250.4 447.74 260.26 450.62 249.44C451.66 247.31 451.5 241.3 455.07 242.27C456.19 251.52 447.5 259.45 456.51 268.05C464 276.74 463.98 263.71 468.21 261.51C472.64 262.8 467.41 270.53 468.62 274.03C468.52 281.57 476.6 285.36 483.19 284.28C487.58 281.79 488.12 275.18 487.04 270.67Z" fill="#A7B964"/>
<path d="M420.84 196.29C425.48 197.51 429.7 199.86 433.43 202.69C437.16 205.54 440.51 208.82 443.55 212.33C446.6 215.84 449.38 219.55 452.07 223.3C454.75 227.06 457.39 230.84 460 234.64C465.2 242.26 470.17 250.07 474.25 258.37C478.3 266.67 481.34 275.49 482.78 284.6C481.16 275.52 477.97 266.79 473.78 258.6C469.57 250.42 464.47 242.73 459.14 235.24C456.46 231.5 453.75 227.77 451.01 224.07C448.26 220.38 445.44 216.76 442.38 213.37C439.32 209.98 435.99 206.83 432.34 204.16C428.69 201.5 424.65 199.37 420.33 198.32C419.77 198.19 419.42 197.62 419.56 197.06C419.69 196.5 420.26 196.15 420.82 196.29H420.84Z" fill="#4D775B"/>
<path d="M427.63 199.64C420.19 206.76 415.74 216.91 415.54 227.2" stroke="#4D775B" stroke-width="1.0453" stroke-miterlimit="10" stroke-linecap="round" stroke-linejoin="round"/>
<path d="M442.87 212.53C437.05 218.97 432.64 226.67 430.04 234.95" stroke="#4D775B" stroke-width="1.0453" stroke-miterlimit="10" stroke-linecap="round" stroke-linejoin="round"/>
<path d="M453.61 227.53C448.58 232.55 444.79 238.8 442.67 245.58" stroke="#4D775B" stroke-width="1.0453" stroke-miterlimit="10" stroke-linecap="round" stroke-linejoin="round"/>
<path d="M465.88 244.81C462.77 250.18 460.32 255.94 458.61 261.9" stroke="#4D775B" stroke-width="1.0453" stroke-miterlimit="10" stroke-linecap="round" stroke-linejoin="round"/>
<path d="M468.53 247.75C471.79 248.24 474.93 249.56 477.55 251.57" stroke="#4D775B" stroke-width="1.0453" stroke-miterlimit="10" stroke-linecap="round" stroke-linejoin="round"/>
<path d="M456.08 229.68C459.52 230.29 462.88 231.33 466.06 232.77" stroke="#4D775B" stroke-width="1.0453" stroke-miterlimit="10" stroke-linecap="round" stroke-linejoin="round"/>
<path d="M435.71 205.1C441.26 205.65 446.66 207.61 451.27 210.74" stroke="#4D775B" stroke-width="1.0453" stroke-miterlimit="10" stroke-linecap="round" stroke-linejoin="round"/>
<path d="M421.28 307.77C422.89 309.36 424.37 311.09 425.71 312.92C426.12 313.48 427.52 316.85 428.67 315.86C431.11 313.75 431.82 310.11 431.05 306.98C430.28 303.85 428.24 301.17 425.92 298.93C423.6 296.69 420.97 294.79 418.61 292.6C418.26 292.28 417.89 291.87 417.95 291.4C418.02 290.85 418.67 290.54 419.21 290.64C419.75 290.73 420.2 291.1 420.62 291.46C422.66 293.2 424.7 294.95 426.74 296.69C427.76 297.56 428.83 298.46 430.13 298.77C431.43 299.08 433.03 298.61 433.54 297.37C434.05 296.14 433.34 294.77 432.6 293.66C430.75 290.9 428.59 288.35 426.16 286.08C423.89 283.96 420.44 282.42 418.82 279.8C418.58 279.41 418.36 278.92 418.54 278.5C418.74 278.05 419.34 277.89 419.82 278.03C420.29 278.17 420.67 278.53 421.02 278.88C422.11 279.95 423.17 281.13 424.38 282.04C425.53 282.91 427.02 283.55 428.05 284.58C429.64 285.72 431.82 286.88 433.41 285.74C434.27 285.13 434.63 284 434.56 282.95C434.49 281.9 434.04 280.92 433.56 279.98C431.16 275.38 427.56 271.41 423.21 268.58C422.67 268.23 422.11 267.88 421.75 267.36C421.39 266.83 421.28 266.07 421.69 265.57C422.45 264.65 423.92 265.45 424.79 266.27C427.58 268.88 430.23 272.03 433.87 273.43C434.92 273.83 436.24 274 437.06 273.22C437.76 272.55 437.79 271.44 437.68 270.48C437.05 264.85 433.15 259.72 427.9 257.59C427.42 257.39 426.91 257.21 426.53 256.84C426.16 256.47 425.98 255.85 426.27 255.42C426.58 254.97 427.23 254.93 427.76 255.06C429.23 255.43 430.28 256.68 431.51 257.56C432.75 258.43 434.68 258.83 435.63 257.65C436.19 256.95 436.17 255.91 435.81 255.09C435.45 254.27 434.81 253.61 434.18 252.96C430.02 248.73 425.71 244.41 420.27 242.06C414.83 239.71 407.9 239.8 403.55 243.83C401.78 242.74 400.24 241.41 398.1 241.38C396.14 241.35 394.18 241.86 392.48 242.86C389.18 244.82 386.95 248.17 385.23 251.6C381.98 258.08 380.13 265.26 379.84 272.51C379.81 273.34 379.82 274.26 380.38 274.88C381.15 275.73 382.61 275.55 383.51 274.83C384.41 274.11 384.9 273.02 385.46 272.02C386.78 269.64 388.56 267.65 390.55 265.83C390.81 265.59 391.1 265.34 391.46 265.32C392.14 265.28 392.55 266.18 392.31 266.82C391.61 268.69 388.46 270.35 387.18 271.94C383.61 276.4 383.93 282.73 384.42 288.42C384.45 288.76 384.48 289.12 384.66 289.42C385.04 290.05 385.96 290.16 386.63 289.85C387.3 289.54 387.77 288.92 388.2 288.33C390.43 285.26 392.31 282.49 395.65 280.53C396.11 280.26 396.69 280.02 397.13 280.3C397.51 280.55 397.58 281.09 397.42 281.51C397.26 281.93 396.92 282.25 396.59 282.55C393.73 285.18 389.44 288.24 387.77 291.86C386.45 294.73 387.8 298.05 389.15 300.9C389.54 301.73 389.99 302.63 390.83 303.01C392.17 303.63 393.73 302.59 394.49 301.33C395.26 300.07 395.59 298.57 396.48 297.4C396.85 296.92 397.36 296.48 397.96 296.44C398.96 296.38 399.71 297.46 399.7 298.46C399.69 299.46 399.17 300.37 398.7 301.25C396.87 304.69 395.68 308.65 396.38 312.48C396.89 315.25 399.05 318.66 401.34 320.32C402.08 320.86 403.2 320.99 403.88 320.37C404.29 319.99 404.46 319.43 404.6 318.89C405.44 315.86 405.5 311.14 408.34 309.14C409.64 310.7 409.49 313.01 408.92 314.95C408.35 316.9 407.43 318.79 407.4 320.82C407.36 323.4 408.81 325.82 410.72 327.55C412.63 329.28 414.99 330.42 417.31 331.55C419.53 328.69 421.75 325.83 423.98 322.97C424.53 322.26 425.11 321.48 425.14 320.57C425.17 319.43 424.31 318.48 423.55 317.63C421.45 315.29 419.65 312.69 418.2 309.9C417.68 308.9 417.28 307.49 418.16 306.79C419.1 306.1 420.44 306.93 421.28 307.77Z" fill="#59916F"/>
<path d="M404.86 243.85C411.83 272.45 415.69 301.76 416.38 331.1C415 301.78 410.44 272.64 402.84 244.37C402.69 243.81 403.02 243.24 403.58 243.09C404.14 242.94 404.71 243.27 404.86 243.83C404.86 243.83 404.86 243.84 404.86 243.85Z" fill="#4D775B"/>
<path d="M404.63 249.91C396.9 249.68 389.26 254.52 386.15 261.61" stroke="#4D775B" stroke-width="1.0453" stroke-miterlimit="10" stroke-linecap="round" stroke-linejoin="round"/>
<path d="M408.101 263.62C400.801 266.08 394.411 271.16 390.371 277.71" stroke="#4D775B" stroke-width="1.0453" stroke-miterlimit="10" stroke-linecap="round" stroke-linejoin="round"/>
<path d="M411.861 280.44C404.791 283.81 398.391 288.55 393.101 294.33" stroke="#4D775B" stroke-width="1.0453" stroke-miterlimit="10" stroke-linecap="round" stroke-linejoin="round"/>
<path d="M413.35 293.37C410.69 295.79 408.02 298.23 405.9 301.12C403.78 304.02 402.22 307.44 402.11 311.03" stroke="#4D775B" stroke-width="1.0453" stroke-miterlimit="10" stroke-linecap="round" stroke-linejoin="round"/>
<path d="M405.07 249.49C413.72 250.18 422.01 254.57 427.44 261.35" stroke="#4D775B" stroke-width="1.0453" stroke-miterlimit="10" stroke-linecap="round" stroke-linejoin="round"/>
<path d="M408.3 265.48C414.55 267.72 420.29 271.38 424.97 276.1" stroke="#4D775B" stroke-width="1.0453" stroke-miterlimit="10" stroke-linecap="round" stroke-linejoin="round"/>
<path d="M412.48 282.37C417.93 283.58 423.04 286.26 427.14 290.05" stroke="#4D775B" stroke-width="1.0453" stroke-miterlimit="10" stroke-linecap="round" stroke-linejoin="round"/>
<path d="M414.41 296.78C419.43 298.64 423.95 301.82 427.4 305.91" stroke="#4D775B" stroke-width="1.0453" stroke-miterlimit="10" stroke-linecap="round" stroke-linejoin="round"/>
<path d="M150.04 384.05L143.91 358.83C143.19 355.87 145.43 353.02 148.48 353.02H198.59C201.63 353.02 203.87 355.86 203.16 358.82L197.1 384.05H150.04Z" fill="#365650"/>
<path d="M199.15 375.52H147.97L145.74 366.36H201.35L199.15 375.52Z" fill="#FFFDFE"/>
<path d="M177.91 315.41C180.96 320.36 182.9 326.05 183.11 331.87C183.32 337.69 181.75 343.61 178.36 348.34C177.21 349.95 173.83 353.29 172.02 350.71C171.4 349.83 171.37 348.38 171.11 347.36C170.74 345.87 170.35 344.41 170.12 342.89C169.18 336.68 169.99 330.21 172.38 324.4C173.74 321.14 175.59 318.08 177.91 315.41Z" fill="#59916F"/>
<path d="M178.17 315.83C177.01 321.37 175.95 326.9 175.23 332.48C174.48 338.06 174.06 343.67 173.74 349.33C173.23 343.68 173.46 337.98 174.19 332.35C174.95 326.72 176.22 321.15 178.17 315.83Z" fill="#555555"/>
<path d="M173.63 341.21C171.84 336.67 168.41 332.89 164.38 330.14C160.35 327.39 155.73 325.61 151.02 324.32C149.52 329.12 150.48 334.63 153.52 338.63C153.93 337.5 155.23 336.73 156.41 337C157.59 337.27 158.43 338.59 158.12 339.76C157.8 340.92 156.32 341.63 155.25 341.08C156.52 344.92 158.96 348.36 162.18 350.81C164.97 352.94 168.41 354.4 171.9 354.79C173.66 354.99 173.92 354.07 174.36 352.46C174.85 350.69 175.03 348.83 174.92 347C174.79 345.03 174.36 343.06 173.63 341.21Z" fill="#A7B964"/>
<path d="M151.89 326.16C154.76 331.09 158.05 335.72 161.86 339.9C165.65 344.09 169.95 347.8 174.58 351.14C169.5 348.51 164.95 344.85 161.08 340.61C157.23 336.34 154.02 331.46 151.89 326.16Z" fill="#555555"/>
<path d="M184.35 331.61C190.64 326.03 198.87 322.76 207.26 322.12C205.89 330.26 201.78 337.9 195.75 343.53C190.86 348.1 184.72 351.31 178.19 352.79C177.08 353.04 174.91 353.85 173.85 353.17C172.65 352.41 173.4 350.58 173.66 349.47C174.4 346.25 175.64 343.14 177.29 340.28C179.16 337.04 181.55 334.1 184.35 331.61Z" fill="#A7B964"/>
<path d="M206.46 323.77C204.93 324.74 203.4 325.7 201.92 326.73C200.42 327.73 198.95 328.77 197.51 329.85C194.63 332.01 191.84 334.27 189.18 336.69C186.51 339.09 183.97 341.64 181.53 344.28C179.09 346.93 176.8 349.71 174.58 352.56C175.51 351.01 176.54 349.51 177.58 348.03C178.65 346.57 179.77 345.14 180.93 343.75C183.25 340.96 185.8 338.35 188.48 335.91C191.19 333.49 194.03 331.22 197.05 329.19C198.56 328.18 200.09 327.21 201.65 326.29C203.24 325.41 204.82 324.54 206.46 323.77Z" fill="#555555"/>
<path d="M188 339.18C193.65 336.67 200.04 335.85 206.13 336.85C204.52 337.91 203.21 338.8 201.42 339.56C201.11 339.69 200.77 339.86 200.68 340.18C200.59 340.5 200.81 340.83 201.1 340.98C201.39 341.13 201.74 341.13 202.06 341.09C203.95 340.88 205.87 339.5 206.83 337.89C206.96 337.67 207.09 337.44 207.31 337.32C207.67 337.13 208.11 337.33 208.47 337.52C209.85 338.27 211.22 339.01 212.59 339.76C213.06 340.01 213.54 340.28 213.88 340.68C214.66 341.6 214.53 342.98 214.14 344.13C213.43 346.22 212.04 348.02 210.4 349.49C206.46 353.06 201.18 354.88 195.89 355.4C190.6 355.92 185.27 355.24 180.04 354.33C178.45 354.05 176.78 353.72 175.4 352.84C173.5 351.64 174.32 350.61 175.45 349.12C177.53 346.37 180.05 343.97 182.89 342.02C184.51 340.93 186.21 339.97 188 339.18Z" fill="#59916F"/>
<path d="M214.34 341.47C212.63 341.71 210.93 341.93 209.24 342.22C207.54 342.48 205.86 342.77 204.18 343.11C200.82 343.78 197.49 344.55 194.19 345.48C190.89 346.38 187.64 347.45 184.42 348.61C182.81 349.19 181.21 349.8 179.62 350.46C178.02 351.08 176.45 351.78 174.86 352.45C176.34 351.57 177.87 350.78 179.41 349.99C180.96 349.24 182.53 348.53 184.12 347.86C187.3 346.52 190.58 345.41 193.91 344.48C197.24 343.57 200.62 342.82 204.04 342.33C205.75 342.08 207.46 341.88 209.18 341.72C210.9 341.59 212.62 341.48 214.34 341.47Z" fill="#555555"/>
<path d="M158.4 341.88C157.31 341.63 156.22 341.37 155.13 341.14C158.68 344.79 148.1 346.4 151.13 341.14C147.31 341.22 143.01 341.98 139.56 343.55C140.58 347.35 141.83 351.22 144.4 354.2C152.11 362.95 166.94 360.61 174.95 353.44C175.42 348.63 162.77 342.72 158.4 341.88Z" fill="#59916F"/>
<path d="M140.26 343.88C141.66 344.47 143.05 345.08 144.46 345.62C145.86 346.19 147.27 346.74 148.69 347.25C151.54 348.27 154.4 349.22 157.3 350.03C160.2 350.86 163.14 351.56 166.09 352.18C167.57 352.49 169.06 352.77 170.55 353.01C172.04 353.29 173.54 353.49 175.04 353.73C173.52 353.73 172 353.63 170.48 353.52C168.96 353.38 167.45 353.19 165.94 352.97C162.92 352.53 159.94 351.85 157.01 351.03C154.08 350.19 151.19 349.19 148.39 347.99C146.99 347.38 145.61 346.75 144.24 346.08C142.9 345.38 141.55 344.68 140.26 343.88Z" fill="#555555"/>
<path d="M216.47 229.61C216.6 230.52 216.94 231.37 217.54 232.13C218.9 233.84 221.32 234.43 223.49 234.13C225.66 233.83 227.65 232.78 229.56 231.71C241.65 224.91 252.8 216.36 263.14 207.15C268.62 202.28 274.04 196.8 276.14 189.77C277.67 184.63 277.05 175.43 271.41 172.76C266.06 170.23 259.94 176.08 256.18 179.15C248.68 185.27 242.55 192.45 235.61 199.01C228.52 205.71 222.6 213.65 218.22 222.37C217.1 224.59 216.13 227.27 216.47 229.61Z" fill="#FFFDFE"/>
<path d="M187.45 205.92C183.98 202.85 180.44 199.62 178.5 195.41C177.45 193.12 176.98 190.22 178.5 188.2C179.8 186.47 182.24 185.92 184.37 186.29C186.5 186.66 188.41 187.79 190.27 188.9C201.51 195.62 212.76 202.35 224 209.07C227.39 211.1 230.91 213.25 233 216.6C236.2 221.73 234.94 229.17 230.22 232.95C222.36 239.27 216.43 230.27 210.78 225.67C202.87 219.26 195.09 212.67 187.45 205.92Z" fill="#FFFDFE"/>
<path d="M226.1 209.79C227.66 212.17 228.69 214.89 229.12 217.7" stroke="#555555" stroke-width="1.0453" stroke-miterlimit="10" stroke-linecap="round" stroke-linejoin="round"/>
<path d="M184.56 202.37C186.95 201.75 189.11 200.3 190.6 198.33C192.08 196.36 192.88 193.88 192.82 191.42" stroke="#555555" stroke-width="1.0453" stroke-miterlimit="10" stroke-linecap="round" stroke-linejoin="round"/>
<path d="M166.53 191.67C162.1 188.68 158.22 184.63 156.33 179.63C154.44 174.63 154.81 168.61 158.08 164.39C159.52 162.52 161.71 160.99 164.06 161.18C165.95 161.34 167.56 162.56 169.03 163.76C176.56 169.95 183.55 177.31 186.9 186.47C187.91 189.23 188.56 192.33 187.51 195.08C186 199.03 182.4 199.36 179.06 197.92C174.75 196.07 170.45 194.31 166.53 191.67Z" fill="#E7986C"/>
<path d="M289.98 436.72C292.14 460.46 295.75 500 295.75 500H329.29C329.29 500 334.97 386.29 335.36 374.54C335.67 365.24 335.95 355.75 333.34 346.82C330.73 337.89 324.68 329.45 315.88 326.4C304.72 322.54 292.72 328.7 286.61 338.26C279.72 349.03 283.7 367.75 284.81 379.98C286.53 398.9 288.25 417.81 289.98 436.72Z" fill="#555555"/>
<path d="M312.15 358.98C314.74 366.39 321.43 372.21 329.13 373.74L312.15 358.98Z" fill="#555555"/>
<path d="M312.15 358.98C314.74 366.39 321.43 372.21 329.13 373.74" stroke="#FFFDFE" stroke-miterlimit="10"/>
<path d="M329.13 358.43C328.47 408.78 326.83 448.47 322.42 498.62L329.13 358.43Z" fill="#555555"/>
<path d="M329.13 358.43C328.47 408.78 326.83 448.47 322.42 498.62" stroke="#FFFDFE" stroke-miterlimit="10"/>
<path d="M310.5 434.41C312.34 440.26 312.29 446.68 310.36 452.5L310.5 434.41Z" fill="#555555"/>
<path d="M310.5 434.41C312.34 440.26 312.29 446.68 310.36 452.5" stroke="#FFFDFE" stroke-miterlimit="10"/>
<path d="M228.9 442.5C229.6 465.49 232.79 500 232.79 500H264.58C264.58 500 273.61 413.31 280.64 365.42C282.08 355.58 283.43 345.03 279.03 336.11C273.98 325.86 261.18 320.15 250.18 323.24C235.98 327.22 231.82 341.3 230.87 354.32C228.73 383.66 228.01 413.11 228.9 442.5Z" fill="#555555"/>
<path d="M272.12 367.85C265.25 415.05 258.86 450.65 258.39 498.63L272.12 367.85Z" fill="#555555"/>
<path d="M272.12 367.85C265.25 415.05 258.86 450.65 258.39 498.63" stroke="#FFFDFE" stroke-miterlimit="10"/>
<path d="M242.14 432.15C244.37 436.65 244.65 442.08 242.9 446.79L242.14 432.15Z" fill="#555555"/>
<path d="M242.14 432.15C244.37 436.65 244.65 442.08 242.9 446.79" stroke="#FFFDFE" stroke-miterlimit="10"/>
<path d="M272.83 138.87C285.69 128.98 264.41 108.59 256.83 115.79C249.25 123 263.61 145.96 272.83 138.87Z" fill="#E7986C"/>
<path d="M259.92 119.22C268.25 129.16 270.06 135.7 270.06 135.7" stroke="#C2654F" stroke-width="0.5" stroke-miterlimit="10" stroke-linecap="round" stroke-linejoin="round"/>
<path d="M226.432 357.928L226.432 357.929C226.207 359.179 226.059 360.332 226.573 361.229C226.941 361.859 227.567 362.246 228.368 362.48C229.174 362.716 230.104 362.78 231.001 362.8C248.993 363.17 267.005 363.12 284.997 362.66C294.113 362.42 303.23 362.08 312.346 361.641M226.432 357.928L312.37 362.14M226.432 357.928C228.684 345.411 230.017 333.122 231.383 320.536C231.451 319.909 231.519 319.282 231.587 318.654L231.09 318.6M226.432 357.928L231.09 318.6M312.346 361.641L312.37 362.14M312.346 361.641C312.346 361.641 312.346 361.641 312.346 361.641L312.37 362.14M312.346 361.641C314.88 361.517 317.471 361.461 320.08 361.404C326.469 361.265 332.965 361.124 338.992 359.992M312.37 362.14C314.874 362.018 317.446 361.962 320.045 361.906C326.621 361.762 333.363 361.616 339.57 360.39M338.992 359.992C339.02 360.156 339.048 360.319 339.078 360.481L339.57 360.39M338.992 359.992C338.558 357.416 338.423 354.665 338.348 351.921C338.328 351.217 338.313 350.514 338.298 349.814C338.249 347.601 338.202 345.418 338.032 343.331M338.992 359.992C339.153 359.962 339.313 359.931 339.473 359.899L339.57 360.39M339.57 360.39L338.032 343.331M338.032 343.331C337.532 337.223 337 331.107 336.468 324.985M338.032 343.331L336.468 324.985M231.09 318.6L231.587 318.654C236.604 272.444 246.506 224.865 264.461 181.893L264.462 181.892M231.09 318.6L264.462 181.892M264.462 181.892C265.918 178.397 267.541 174.899 270.521 172.874M264.462 181.892L270.521 172.874M335.726 198.372L335.726 198.372L335.767 198.113C336.399 194.141 337.031 190.169 335.979 186.446C334.712 181.981 330.826 179.178 326.12 177.241C322.325 175.679 318.093 174.717 314.444 173.887C313.569 173.688 312.728 173.496 311.934 173.306C301.372 170.778 290.432 169.822 279.602 170.519L335.726 198.372ZM335.726 198.372C329.115 240.451 332.804 282.865 336.468 324.985M335.726 198.372L336.468 324.985M270.521 172.874C273.087 171.138 276.351 170.729 279.602 170.519L270.521 172.874Z" fill="#FFFDFE" stroke="#555555"/>
<path d="M277.93 170.82C276.45 172.39 275.66 174.58 275.79 176.73C275.92 178.88 276.98 180.96 278.64 182.33C281.14 184.4 284.63 184.73 287.87 184.75C292.67 184.78 297.56 184.3 302.01 182.51C306.46 180.71 310.48 177.47 312.45 173.09" stroke="#555555" stroke-width="1.0453" stroke-miterlimit="10" stroke-linecap="round" stroke-linejoin="round"/>
<path d="M324.3 240.977L324.301 241.004L324.305 241.031C324.573 242.901 324.66 245.026 324.751 247.253C324.766 247.629 324.782 248.007 324.798 248.388C324.912 251.01 325.074 253.724 325.588 256.207C326.102 258.69 326.977 260.988 328.55 262.748C330.077 264.457 332.226 265.619 335.225 265.989C336.191 269.677 336.017 271.96 335.321 273.498C334.607 275.077 333.3 275.975 331.795 276.812C331.55 276.948 331.298 277.084 331.042 277.221C329.77 277.904 328.413 278.633 327.415 279.753C326.175 281.145 325.509 283.092 325.91 286.173C325.934 300.907 325.707 315.949 325.479 330.983L325.476 331.169C325.249 346.151 325.024 361.125 325.049 375.77C307.8 381.494 289.759 381.583 271.441 379.856C262.819 379.043 254.147 377.829 245.47 376.614C244.868 376.53 244.266 376.446 243.664 376.362C234.564 375.09 225.464 373.848 216.441 373.104C223.304 318.11 234.691 263.807 248.882 210.263C249.49 208.149 250.081 205.8 250.703 203.325C252.327 196.87 254.165 189.561 257.091 183.347C259.109 179.061 261.622 175.354 264.892 172.846C267.945 170.504 271.682 169.189 276.359 169.454C272.703 174.013 270.722 177.946 270.138 181.306C269.518 184.876 270.482 187.777 272.633 190.022C274.761 192.244 278.017 193.791 281.938 194.773C285.863 195.755 290.499 196.182 295.443 196.13C301.614 196.369 305.872 193.017 308.984 188.514C311.941 184.235 313.911 178.847 315.552 174.362C315.583 174.275 315.615 174.188 315.647 174.102C320.237 174.888 324.765 176.04 329.173 177.543C322.379 194.973 323.203 214.492 323.987 233.046C324.1 235.713 324.212 238.359 324.3 240.977Z" fill="#365650" stroke="#555555"/>
<path d="M335.81 272.31C332.31 275.09 327.59 275.05 325.51 279.52C324.23 282.28 324.14 285.43 324.08 288.48C323.49 317.5 322.9 346.52 322.3 375.54C311.59 377.08 299.14 378.07 285.3 377.72C260.28 377.08 239.27 372.26 223.63 367.27" stroke="#555555" stroke-width="1.0453" stroke-miterlimit="10" stroke-linecap="round" stroke-linejoin="round"/>
<path d="M268.89 170.68C260.29 176.9 256.13 187.54 253.59 197.85C251.05 208.16 235.13 271.09 234.09 282.59" stroke="#555555" stroke-width="1.0453" stroke-miterlimit="10" stroke-linecap="round" stroke-linejoin="round"/>
<path d="M327.97 176.52C320.87 186.3 320.87 202.21 320.47 213.99C320.21 221.75 320.4 229.51 320.82 237.26C321.2 244.18 321.32 251.97 324.32 258.36C326.49 262.99 330.8 266.97 335.91 267.24" stroke="#555555" stroke-width="1.0453" stroke-miterlimit="10" stroke-linecap="round" stroke-linejoin="round"/>
<path d="M273.68 169.04C271.48 172.58 269.24 176.21 268.32 180.28C267.4 184.35 268.03 189.01 270.97 191.97C272.82 193.84 274.69 194.64 278.1 195.84C279.35 196.28 282.29 197.24 290.53 197.92C297.1 198.46 300.43 198.72 302.68 197.84C306.24 196.45 308.2 193.91 310.9 190.29C313.23 187.18 316.52 181.99 318.76 174.53" stroke="#555555" stroke-width="1.0453" stroke-miterlimit="10" stroke-linecap="round" stroke-linejoin="round"/>
<path d="M294.712 312.35C306.146 312.522 314.167 307.008 317.188 304.584C316.868 315.657 316.54 326.722 316.211 337.796L316.18 338.835C315.875 349.015 315.559 359.195 315.244 369.365C296.831 370.723 273.561 368.015 254.812 364.946C245.367 363.4 237.079 361.764 231.153 360.515C228.19 359.89 225.818 359.362 224.186 358.991C223.371 358.805 222.741 358.658 222.315 358.558C222.25 358.542 222.19 358.528 222.134 358.515L222.322 357.575C222.506 356.652 222.775 355.296 223.118 353.564C223.804 350.101 224.784 345.136 225.959 339.125C228.221 327.563 231.207 312.133 234.221 296.091C234.527 296.553 234.933 297.034 235.421 297.523C236.679 298.783 238.539 300.148 240.832 301.423C245.419 303.974 251.81 306.201 258.75 306.479L258.75 306.479C264.654 306.716 269.494 305.326 272.675 304.066C275.111 306.128 282.989 312.173 294.712 312.35Z" fill="#59916F" stroke="#555555"/>
<path d="M272.77 303.49C270.88 313.53 269.12 323.99 267.54 334.85C265.81 346.76 264.44 355.14 263.36 366.21" stroke="#555555" stroke-width="1.0453" stroke-miterlimit="10" stroke-linecap="round" stroke-linejoin="round"/>
<path d="M233.04 303.49C236.23 305.9 242.29 309.85 250.91 311.77C259.56 313.7 266.75 312.69 270.67 311.85C274.43 314.26 281.26 317.92 290.53 319.17C303.4 320.9 313.47 316.95 317.71 314.99" stroke="#555555" stroke-width="1.0453" stroke-miterlimit="10" stroke-linecap="round" stroke-linejoin="round"/>
<path d="M264.28 224.8L264.28 224.8C262.858 219.924 263.038 214.6 264.747 209.819C264.931 210.055 265.156 210.338 265.41 210.655C266.049 211.451 266.882 212.473 267.755 213.544C267.886 213.705 268.018 213.868 268.151 214.031C269.166 215.276 270.202 216.55 271.026 217.586C271.867 218.642 272.451 219.406 272.597 219.659L272.597 219.659L272.598 219.662C273.544 221.28 275.751 225.232 277.215 229.206C277.947 231.196 278.482 233.161 278.591 234.825C278.701 236.505 278.372 237.756 277.533 238.482C276.981 238.958 276.413 239.158 275.831 239.162C275.237 239.165 274.59 238.966 273.899 238.574C272.507 237.786 271.049 236.285 269.683 234.495C268.324 232.715 267.088 230.69 266.131 228.902C265.17 227.106 264.508 225.581 264.28 224.8Z" fill="#59916F" stroke="#555555"/>
<path d="M294.43 214.31C295.26 223.725 290.279 233.95 281.81 238.346L281.81 238.346C280.012 239.28 278.204 239.805 276.895 239.553C276.265 239.431 275.761 239.132 275.403 238.606C275.036 238.066 274.79 237.24 274.79 236.01L274.79 236.009C274.785 233.85 275.656 231.802 276.916 229.876C278.138 228.008 279.698 226.298 281.114 224.746C281.159 224.696 281.204 224.646 281.25 224.597L281.25 224.597C283.28 222.368 285.499 220.317 287.876 218.475L287.876 218.475L287.884 218.469C288.022 218.358 288.527 218.031 289.257 217.573C289.697 217.297 290.203 216.983 290.73 216.655C291.058 216.452 291.394 216.243 291.727 216.035C292.594 215.495 293.445 214.96 294.077 214.545C294.203 214.462 294.321 214.383 294.43 214.31Z" fill="#A7B964" stroke="#555555"/>
<path d="M305.77 250.1C304.71 255.62 303.7 261.48 305.7 266.74C306.99 270.14 310.02 273.27 313.65 273.13C315.86 273.04 317.88 271.74 319.33 270.07C320.78 268.4 321.74 266.37 322.68 264.37C330.41 247.91 338.05 231.19 341.69 213.37C343.7 203.53 344.23 192.48 338.43 184.27C337.34 182.72 336 181.29 334.3 180.47C328.77 177.8 326.89 183.26 324.85 187.22C322.42 191.94 320.28 196.8 318.39 201.76C314.56 211.81 311.74 222.22 309.36 232.71C308.06 238.47 306.89 244.28 305.77 250.1Z" fill="#FFFDFE"/>
<path d="M262.99 261.34C258.22 259.78 253.45 258.21 248.71 256.57C246.7 255.88 244.64 255.13 243.08 253.68C241.53 252.23 240.61 249.88 241.45 247.93C242.67 245.08 246.5 244.71 249.6 244.84C267.94 245.57 286.16 248.14 304.18 251.64C307.83 252.35 311.61 253.16 314.52 255.47C317.18 257.58 318.86 260.87 319.01 264.26C319.43 273.58 310.99 273.95 304.23 272.75C295.21 271.15 286.37 268.74 277.62 266.05C272.73 264.53 267.86 262.93 262.99 261.34Z" fill="#FFFDFE"/>
<path d="M305.6 251.62C308.69 253.03 311.12 255.82 312.09 259.07" stroke="#555555" stroke-width="1.0453" stroke-miterlimit="10" stroke-linecap="round" stroke-linejoin="round"/>
<path d="M310.66 270.33C311.85 268.73 313.6 267.55 315.53 267.05" stroke="#555555" stroke-width="1.0453" stroke-miterlimit="10" stroke-linecap="round" stroke-linejoin="round"/>
<path d="M261.99 246.15C263.22 248.5 263.08 251.37 262.22 253.88C261.36 256.38 259.83 258.6 258.33 260.78" stroke="#555555" stroke-width="1.0453" stroke-miterlimit="10" stroke-linecap="round" stroke-linejoin="round"/>
<path d="M247.18 229.37C247.38 228.35 247.82 227.18 248.83 226.92C249.66 226.71 250.53 227.25 250.99 227.98C251.45 228.7 251.61 229.57 251.83 230.4C252.41 232.68 253.44 234.84 254.84 236.72C255.93 238.19 257.25 239.51 258.06 241.14C258.87 242.78 259.05 244.91 257.89 246.32C256.85 247.58 254.96 247.92 253.41 247.39C251.86 246.86 250.66 245.6 249.85 244.18C247.54 240.06 246.3 233.98 247.18 229.37Z" fill="#E7986C"/>
<path d="M223.52 275.91C222.35 277.83 221.18 280.31 222.43 282.18C223.26 283.43 224.87 283.85 226.33 284.19C232.92 285.69 239.5 287.18 246.09 288.68C247.98 289.11 250.23 289.45 251.62 288.1C252.81 286.95 252.82 285.07 252.75 283.41C252.37 275.08 251.99 266.7 250.15 258.57C249.43 255.38 248.1 251.81 245.02 250.72C243.02 250.01 240.72 250.6 239.03 251.87C235.89 254.21 233.95 258.82 231.96 262.08C229.13 266.7 226.32 271.31 223.52 275.91Z" fill="#E86264"/>
<path opacity="0.31" d="M239.3 255.11L225.81 277.8C225.16 278.89 225.74 280.3 226.96 280.63L247.53 286.09C248.8 286.43 250.02 285.41 249.93 284.11L247.96 256.47L239.3 255.11Z" fill="#FFFDFE"/>
<path d="M258.72 233.35L255.8 243.99L231.56 233.91L233.29 229.15L258.72 233.35Z" fill="#1860BC"/>
<path d="M237.59 229.86L235.62 235.47" stroke="#555555" stroke-width="1.0453" stroke-miterlimit="10" stroke-linecap="round" stroke-linejoin="round"/>
<path d="M231.56 228.08L230.1 226.59" stroke="#555555" stroke-width="1.0453" stroke-linecap="round" stroke-linejoin="round"/>
<path d="M227.469 223.88L207.709 203.6" stroke="#555555" stroke-width="1.0453" stroke-linecap="round" stroke-linejoin="round" stroke-dasharray="3.77 3.77"/>
<path d="M206.39 202.25L204.93 200.76" stroke="#555555" stroke-width="1.0453" stroke-linecap="round" stroke-linejoin="round"/>
<path d="M230.22 232.97L193.73 238.28" stroke="#555555" stroke-width="1.0453" stroke-miterlimit="10" stroke-linecap="round" stroke-linejoin="round" stroke-dasharray="4.18 4.18"/>
<path d="M230.92 230.34L186.9 217" stroke="#555555" stroke-width="1.0453" stroke-miterlimit="10" stroke-linecap="round" stroke-linejoin="round" stroke-dasharray="4.18 4.18"/>
<path d="M245.26 236.62C241.62 235.53 237.81 235.13 234.02 235.04C232.5 235 230.65 235.22 230.04 236.61C229.55 237.73 230.22 239.08 231.23 239.76C232.24 240.44 233.49 240.63 234.7 240.79C234.97 242.89 234.31 244.98 233.8 247.03C233.29 249.08 232.95 251.32 233.81 253.26C234.76 255.38 236.96 256.65 239.13 257.47C242.2 258.64 245.51 259.21 248.8 259.13C250.71 259.09 252.72 258.78 254.23 257.61C255.78 256.4 256.56 254.46 257.1 252.57C257.66 250.61 258.04 248.54 257.74 246.52C256.92 241.09 249.9 238 245.26 236.62Z" fill="#E7986C"/>
<path d="M235.06 240.68C238.23 241.27 241.37 242.03 244.45 242.98" stroke="#C2654F" stroke-width="0.3" stroke-miterlimit="10" stroke-linecap="round" stroke-linejoin="round"/>
<path d="M234.77 244.54C237.51 245.34 240.24 246.14 242.98 246.94" stroke="#C2654F" stroke-width="0.3" stroke-miterlimit="10" stroke-linecap="round" stroke-linejoin="round"/>
<path d="M233.6 249.55C236.41 250.48 239.23 251.41 242.04 252.33C241.9 252.3 241.76 252.27 241.62 252.23" stroke="#C2654F" stroke-width="0.3" stroke-miterlimit="10" stroke-linecap="round" stroke-linejoin="round"/>
<path d="M247.01 237.41C250.37 238.37 253.49 240.18 256 242.61" stroke="#C2654F" stroke-width="0.3" stroke-miterlimit="10" stroke-linecap="round" stroke-linejoin="round"/>
<path d="M278.71 173.77C278.5 174.84 278.29 175.97 278.66 177C279.18 178.46 280.7 179.29 282.16 179.82C286.37 181.35 291.02 181.43 295.41 180.56C299.8 179.69 303.97 177.9 307.91 175.76C308.76 175.3 309.64 174.78 310.07 173.92C310.44 173.16 310.4 172.28 310.36 171.44C310.08 165.54 310.55 159.6 311.76 153.82C312.39 150.77 313.23 147.63 312.54 144.6C311.45 139.82 306.51 136.51 301.61 136.44C296.71 136.37 292.06 139.08 288.88 142.82C281.71 151.23 280.76 163.38 278.71 173.77Z" fill="#E7986C"/>
<path d="M280.27 164.56C280.17 165.18 280.09 165.86 280.41 166.4C280.76 166.99 281.47 167.24 282.13 167.4C286.81 168.56 291.85 167.59 296.14 165.38C300.43 163.17 304.01 159.79 307.07 156.07C308.61 154.2 310.05 152.18 310.8 149.88C311.11 148.92 311.26 147.75 310.6 146.99C310.16 146.49 309.47 146.29 308.81 146.17C303.14 145.11 297.46 147.51 292.19 149.86C288.83 151.35 286 153.1 283.45 155.78C281.31 158.03 280.76 161.59 280.27 164.56Z" fill="#E88E64" fill-opacity="0.905882"/>
<path d="M263.15 113.37C262.24 110.9 261.45 108.33 261.43 105.7C261.39 101.69 263.13 97.84 265.46 94.57C269.73 88.6 275.96 84.28 282.5 80.93C283.6 80.37 284.82 79.81 286.03 80.08C287.27 80.35 288.18 81.44 288.71 82.6C290.11 85.7 289.32 89.4 287.69 92.38C286.06 95.36 283.67 97.84 281.61 100.55C278.28 104.94 275.81 109.99 274.4 115.32C273.74 117.81 272.17 123.81 268.28 122.58C266.96 122.16 266.29 120.59 265.74 119.46C264.76 117.48 263.92 115.44 263.15 113.37Z" fill="#333333"/>
<path d="M267.82 110.87C264.75 124.18 264.55 140.26 271.42 152.43C284.4 167.14 310.14 157.93 318.82 142.59C322.66 136.15 324.18 128.63 325.03 121.18C327.64 98.0799 304.65 78.2199 286.13 86.0299C276.47 90.1099 270.47 100.58 267.82 110.87Z" fill="#E7986C"/>
<path d="M318.75 127.71C321.03 128.44 321.71 126.66 323.5 125.93C324.34 125.59 325.43 125.68 326 126.39C326.54 127.06 326.56 128.18 327.35 128.51C327.96 128.77 328.64 128.37 329.17 127.96C335.18 123.35 339.04 116.04 339.44 108.48C339.53 106.84 339.45 105.19 339.22 103.56C338.7 99.86 337.39 96.27 335.41 93.1C333.36 89.82 330.65 87.56 327.63 85.23C321.29 80.35 314.1 76.57 306.47 74.16C303.19 73.12 299.8 72.33 296.37 72.36C292.94 72.39 289.43 73.28 286.69 75.35C284.44 77.05 282.01 80.32 282.22 83.32C282.43 86.27 284.19 89.68 285.96 91.99C288.41 95.19 291.74 97.6 295.16 99.73C297.64 101.27 300.26 102.7 303.14 103.13C303.07 101.42 302.39 99.73 301.26 98.45C302.55 103.32 305.71 107.68 309.95 110.42C310.63 110.86 311.4 111.27 312.2 111.15C313 111.03 313.69 110.11 313.29 109.41C313.4 114.01 314.1 118.59 315.37 123.01C315.92 124.93 316.83 127.09 318.75 127.71Z" fill="#333333"/>
<path d="M324.75 131.55C325.63 130.64 326.54 129.73 327.62 129.07C328.7 128.41 329.99 128.01 331.25 128.19C332.51 128.38 333.7 129.24 334.05 130.46C334.38 131.6 333.95 132.83 333.33 133.85C331.61 136.67 328.34 138.48 325.03 138.43" stroke="#555555" stroke-width="1.0453" stroke-miterlimit="10" stroke-linecap="round" stroke-linejoin="round"/>
<path d="M290.04 144.95C297.7 145.68 299.01 138.58 299.01 138.58" stroke="#C2654F" stroke-width="0.5" stroke-miterlimit="10" stroke-linecap="round" stroke-linejoin="round"/>
<path d="M288.8 117.74C289.66 125.16 289.77 131.68 287.51 134.07C285.25 136.46 288.37 137.13 290.63 137.89" stroke="#C2654F" stroke-width="0.5" stroke-miterlimit="10" stroke-linecap="round" stroke-linejoin="round"/>
<path d="M300.1 120.84C300.1 120.2 300.65 119.68 301.4 119.5C300.94 118.16 300.21 117.34 299.26 117.92C296.53 119.6 297.81 128.18 300.41 127.16C301.58 126.7 302.01 124.45 301.89 122.26C300.9 122.25 300.1 121.62 300.1 120.84Z" fill="#192119"/>
<path d="M277.79 120.74C277.79 120.11 278.33 119.59 279.06 119.4C278.6 118.11 277.88 117.35 276.96 117.92C274.23 119.6 275.51 128.18 278.11 127.16C279.3 126.7 279.72 124.38 279.58 122.16C278.59 122.15 277.79 121.52 277.79 120.74Z" fill="#192119"/>
<path d="M316.18 141.27C308.05 125 339.51 114.85 343.62 125.83C347.73 136.81 322.01 152.94 316.18 141.27Z" fill="#E7986C"/>
<path d="M338.61 127.45C325.35 133.4 320.31 139.11 320.31 139.11" stroke="#C2654F" stroke-width="0.5" stroke-miterlimit="10" stroke-linecap="round" stroke-linejoin="round"/>
<path d="M49.7044 116.996L48.7155 117.144C48.7155 117.144 48.7155 117.144 48.7155 117.144C48.6065 116.419 48.5206 115.679 48.4362 114.943L48.4243 114.839C48.3436 114.134 48.2633 113.433 48.1638 112.738C47.9548 111.279 47.6646 109.875 47.1286 108.593L47.1285 108.592C45.7711 105.338 42.7793 102.683 39.3658 102.449L39.3652 102.449C37.0113 102.285 34.8551 103.203 32.9237 104.709C30.9896 106.218 29.312 108.294 27.9374 110.375C18.6425 124.476 14.9735 141.531 12.7155 158.376C11.2472 169.364 10.303 180.47 11.3079 191.474C12.3408 202.718 15.8676 213.247 20.9461 223.284L20.9472 223.286C20.9667 223.325 20.9872 223.362 21.0081 223.395C21.0125 223.39 21.0171 223.386 21.022 223.381C21.3165 223.071 21.6133 222.762 21.9092 222.454L21.9096 222.453C22.2071 222.143 22.5037 221.834 22.7977 221.525L22.799 221.524C23.3233 220.977 23.6644 220.388 23.9923 219.747C24.059 219.617 24.1258 219.483 24.194 219.346C24.4545 218.823 24.7351 218.26 25.1054 217.71L25.1058 217.71C26.0342 216.337 27.0326 214.996 28.0704 213.707M49.7044 116.996L28.46 214.02M49.7044 116.996C49.7077 117.018 49.7065 117.03 49.7069 117.03C49.7076 117.03 49.7132 116.995 49.7546 116.912C49.8108 116.8 49.9059 116.654 50.0414 116.478C50.311 116.127 50.6962 115.712 51.1165 115.291C51.5344 114.871 51.9754 114.457 52.351 114.11C52.4478 114.02 52.5414 113.934 52.6296 113.852C52.876 113.625 53.0801 113.437 53.1935 113.324C54.5774 111.94 56.061 110.644 57.6146 109.446M49.7044 116.996L79.53 111.97C82.33 115.72 83.8699 120.25 84.95 124.79M28.0704 213.707L28.46 214.02M28.0704 213.707C28.0703 213.707 28.0701 213.707 28.07 213.707L28.46 214.02M28.0704 213.707C30.1572 211.106 32.4532 208.679 34.8664 206.397L34.8667 206.396C39.7444 201.79 45.1395 197.783 50.7136 194.093M28.46 214.02C30.53 211.44 32.81 209.03 35.21 206.76C40.06 202.18 45.43 198.19 50.99 194.51M50.7136 194.093L50.99 194.51M50.7136 194.093C50.7138 194.093 50.7139 194.093 50.714 194.093L50.99 194.51M50.7136 194.093C52.1577 193.136 53.6138 192.197 55.0677 191.259C61.2144 187.296 67.323 183.357 72.3287 178.134M50.99 194.51C52.4216 193.561 53.8693 192.627 55.3181 191.693C61.4689 187.727 67.6395 183.749 72.69 178.48M72.69 178.48L72.3287 178.134M72.69 178.48C85.92 164.65 89.3699 143.42 84.95 124.79M72.69 178.48L72.329 178.134C72.3289 178.134 72.3288 178.134 72.3287 178.134M72.3287 178.134C85.4124 164.457 88.8551 143.416 84.4635 124.906M84.95 124.79L84.4635 124.906M84.95 124.79L84.4635 124.905C84.4635 124.906 84.4635 124.906 84.4635 124.906M84.4635 124.906C83.3893 120.39 81.8688 115.938 79.1293 112.269L79.1283 112.268C76.4099 108.601 72.3307 105.815 67.8525 105.479M67.8525 105.479L67.89 104.98L67.8525 105.479ZM67.8525 105.479C63.7782 105.173 60.8573 106.96 57.6146 109.446M57.6146 109.446C57.6148 109.446 57.615 109.446 57.6152 109.446L57.31 109.05L57.6142 109.447C57.6144 109.447 57.6145 109.447 57.6146 109.446Z" fill="#59916F" stroke="#4D775B"/>
<path d="M44.6875 123.68C47.7163 119.37 53.0704 116.99 57.8188 114.84C62.5671 112.69 68.146 112.23 72.9627 114.2C77.7795 116.17 81.6583 120.72 82.3227 125.99" stroke="#4D775B" stroke-width="1.0453" stroke-miterlimit="10" stroke-linecap="round" stroke-linejoin="round"/>
<path d="M45.3325 123.26C53.4516 122.41 61.8248 124.26 68.8887 128.45C75.9526 132.64 81.678 139.15 84.9999 146.79" stroke="#4D775B" stroke-width="1.0453" stroke-miterlimit="10" stroke-linecap="round" stroke-linejoin="round"/>
<path d="M41 133C49.0965 136.248 57.0822 140.105 63.7368 145.802C70.3915 151.509 75.6413 159.262 77 168" stroke="#4D775B" stroke-width="1.0453" stroke-miterlimit="10" stroke-linecap="round" stroke-linejoin="round"/>
<path d="M37 145C50.4647 152.234 60.6537 166.189 64 182" stroke="#4D775B" stroke-width="1.0453" stroke-miterlimit="10" stroke-linecap="round" stroke-linejoin="round"/>
<path d="M31 163C40.4214 169.7 46.8234 181 48 193" stroke="#4D775B" stroke-width="1.0453" stroke-miterlimit="10" stroke-linecap="round" stroke-linejoin="round"/>
<path d="M26 181C32.513 185.438 37.0198 192.946 38 201" stroke="#4D775B" stroke-width="1.0453" stroke-miterlimit="10" stroke-linecap="round" stroke-linejoin="round"/>
<path d="M23 194C26.8689 197.051 30.4767 202.888 31 208" stroke="#4D775B" stroke-width="1.0453" stroke-miterlimit="10" stroke-linecap="round" stroke-linejoin="round"/>
<path d="M61.0579 102.692L61.0573 102.692C57.8008 105.1 54.9425 108.046 52.4848 111.207C47.5358 117.584 44.1268 124.824 40.8967 132.034C34.4694 146.505 29.4003 161.564 25.9479 176.979C25.5273 178.873 25.1308 180.772 24.7605 182.677C25.1768 180.781 25.6188 178.892 26.0847 177.01L26.0848 177.009C29.9032 161.685 35.3147 146.794 42.0582 132.566L42.0587 132.565C45.4391 125.474 49.0309 118.395 53.9425 112.374C56.396 109.365 59.1686 106.662 62.3224 104.451C65.4569 102.247 68.9209 100.445 72.5433 99.4964L72.5442 99.4961C74.3555 99.0254 76.208 98.7974 78.0185 98.9009L78.0194 98.9009C79.7815 99.0046 81.6505 99.4691 83.3904 100.1L83.392 100.101C86.8979 101.385 90.1614 103.45 92.9427 105.967C98.6507 110.982 101.512 118.278 102.862 125.811C103.895 131.54 104.299 137.55 104.702 143.53C104.828 145.403 104.954 147.273 105.098 149.131L105.099 149.144L105.099 149.144L105.719 160.924L105.72 160.932C105.766 162.238 105.818 163.545 105.87 164.854C105.975 167.477 106.08 170.105 106.14 172.729C106.57 188.458 106.51 204.206 106.12 219.952C105.34 251.435 103.249 282.905 101.139 314.413L101.135 314.477L101.13 314.491L101.13 314.5V314.511L101.13 314.521C101.031 316.846 102.827 318.802 105.151 318.901C107.475 318.999 109.432 317.203 109.53 314.879C109.53 314.879 109.53 314.879 109.53 314.879L110.03 314.9C111.35 283.35 112.66 251.71 112.65 220.03L61.0579 102.692ZM61.0579 102.692C64.3134 100.277 67.9101 98.2699 71.9083 97.1106L61.0579 102.692ZM100.64 314.38C100.63 314.41 100.63 314.47 100.63 314.5L100.64 314.38ZM100.64 314.38C102.75 282.87 104.84 251.41 105.62 219.94C106.01 204.2 106.07 188.46 105.64 172.74C105.58 170.12 105.476 167.5 105.371 164.88C105.319 163.57 105.267 162.26 105.22 160.95M100.64 314.38L105.22 160.95M105.22 160.95L104.6 149.17M105.22 160.95L104.6 149.17M104.6 149.17C104.454 147.3 104.328 145.422 104.201 143.544C103.799 137.57 103.397 131.599 102.37 125.9C101.03 118.42 98.2 111.25 92.61 106.34C89.87 103.86 86.66 101.83 83.22 100.57M104.6 149.17L83.22 100.57M83.22 100.57C81.51 99.9501 79.69 99.5001 77.99 99.4001M83.22 100.57L77.99 99.4001M77.99 99.4001C76.24 99.3001 74.44 99.5201 72.67 99.9801C69.12 100.91 65.71 102.68 62.61 104.86C59.5 107.04 56.76 109.71 54.33 112.69C49.46 118.66 45.89 125.69 42.51 132.78M77.99 99.4001L42.51 132.78M42.51 132.78C35.78 146.98 30.38 161.84 26.57 177.13L42.51 132.78Z" fill="#4D775B" stroke="#4D775B"/>
<path d="M67.8129 208.242L67.8144 208.241C70.5213 205.934 73.8947 204.337 77.3911 204.26L77.3915 204.26C82.8688 204.135 88.0578 207.908 90.4698 212.907C92.8807 217.914 92.7961 223.898 91.152 229.274C89.5074 234.651 86.4186 239.495 82.9906 244.049L82.9905 244.05C73.6659 256.452 61.9649 266.84 50.2889 277.165L50.2867 277.167C49.8914 277.521 49.5814 277.767 49.2415 277.828L49.3301 278.32L49.2415 277.828C48.782 277.911 48.3867 277.679 48.0359 277.109C47.6841 276.538 47.4615 275.737 47.3767 275.021L47.3719 274.981C46.5635 268.054 45.7551 261.128 44.9468 254.192L44.9467 254.192C43.4838 241.677 42.1942 228.527 47.6688 217.401L47.6688 217.401C48.5784 215.552 49.6661 213.818 51.2309 212.639L51.2316 212.639C52.4315 211.732 54.0139 211.147 55.4481 211.326L55.4493 211.326C56.3248 211.434 56.8729 211.817 57.4361 212.309C57.5316 212.392 57.6293 212.481 57.7304 212.573C58.2149 213.013 58.7771 213.523 59.545 213.866C60.5 214.298 61.3978 214.248 62.2186 213.895C63.0161 213.553 63.7262 212.932 64.3645 212.247C64.8979 211.675 65.4092 211.027 65.8932 210.413C65.9895 210.291 66.0846 210.17 66.1787 210.052C66.7577 209.323 67.2911 208.683 67.8129 208.242Z" fill="#59916F" stroke="#4D775B"/>
<path d="M60 218C67.8898 225.428 73.8729 235.651 77 247" stroke="#4D775B" stroke-width="1.0453" stroke-miterlimit="10" stroke-linecap="round" stroke-linejoin="round"/>
<path d="M58 227C63.4267 235.794 67.8244 245.603 71 256" stroke="#4D775B" stroke-width="1.0453" stroke-miterlimit="10" stroke-linecap="round" stroke-linejoin="round"/>
<path d="M54 240C58.6906 246.527 62.1433 254.473 64 263" stroke="#4D775B" stroke-width="1.0453" stroke-miterlimit="10" stroke-linecap="round" stroke-linejoin="round"/>
<path d="M52.4097 248C54.5926 253.33 55.8291 258.168 56.5417 264.122" stroke="#4D775B" stroke-width="1.0453" stroke-miterlimit="10" stroke-linecap="round" stroke-linejoin="round"/>
<path d="M61 215C56.3333 215.33 51.75 217.447 48 221" stroke="#4D775B" stroke-width="1.0453" stroke-miterlimit="10" stroke-linecap="round" stroke-linejoin="round"/>
<path d="M58 225C53.403 226.505 49.1774 229.667 46 234" stroke="#4D775B" stroke-width="1.0453" stroke-miterlimit="10" stroke-linecap="round" stroke-linejoin="round"/>
<path d="M55 241C51.4756 242.585 48.3291 245.388 46 249" stroke="#4D775B" stroke-width="1.0453" stroke-miterlimit="10" stroke-linecap="round" stroke-linejoin="round"/>
<path d="M52 250.5C49.6624 251.547 48.0856 255.33 47 258" stroke="#4D775B" stroke-width="1.0453" stroke-miterlimit="10" stroke-linecap="round" stroke-linejoin="round"/>
<path d="M66 211C74.587 213.128 82.0472 220.98 85 231" stroke="#4D775B" stroke-width="1.0453" stroke-miterlimit="10" stroke-linecap="round" stroke-linejoin="round"/>
<path d="M78.5653 190.991L78.568 190.99C81.1956 189.568 84.1347 188.604 87.1787 188.429L87.1787 188.429L87.185 188.429C90.2371 188.215 93.3181 188.817 96.1138 190.01L96.1144 190.01C98.9209 191.203 101.464 192.973 103.567 195.194L103.568 195.195C107.799 199.641 110.142 205.571 110.753 211.581L110.753 211.582C110.844 212.459 110.212 213.242 109.338 213.333C108.468 213.424 107.691 212.802 107.59 211.939C107.589 211.924 107.588 211.905 107.586 211.885C107.585 211.87 107.582 211.844 107.575 211.813C107.18 206.42 105.218 201.031 101.613 197.007C98.0392 193.003 92.6929 190.365 87.2834 190.57C81.8374 190.726 76.6445 193.659 72.6983 197.565L72.6983 197.565L72.6933 197.57C68.7681 201.566 65.799 206.552 63.4256 211.721L63.4249 211.723C61.0612 216.923 59.2236 222.378 57.6102 227.89L57.6096 227.891C56.0188 233.404 54.4852 238.967 53.2517 244.573L53.2516 244.573C53.1477 245.047 53.0459 245.522 52.9459 245.998C53.0324 245.512 53.1209 245.027 53.2114 244.542C54.2783 238.879 55.6351 233.291 57.074 227.715C58.5208 222.148 60.2037 216.613 62.441 211.264C64.6977 205.935 67.5294 200.784 71.5538 196.423C73.6057 194.293 75.9236 192.4 78.5653 190.991Z" fill="#4D775B" stroke="#4D775B"/>
<path d="M135.599 248.834L135.599 248.834C137.564 249.154 138.844 250.153 140.077 251.34C140.307 251.562 140.538 251.794 140.773 252.029C141.775 253.033 142.848 254.108 144.27 254.844L145.03 255.238L144.999 254.382C144.975 253.696 144.904 252.973 144.834 252.26C144.808 252.002 144.783 251.745 144.76 251.491C144.673 250.52 144.617 249.579 144.696 248.695C144.775 247.814 144.985 247.011 145.414 246.311C145.84 245.615 146.5 244.99 147.528 244.49L147.53 244.489C149.747 243.403 152.624 244.29 154.49 246.117C156.356 247.945 157.376 250.49 158.235 253.097L158.235 253.097C163.248 268.253 163.56 285.183 157.648 299.948C155.84 294.743 151.967 290.457 147.79 286.966C145.746 285.258 143.592 283.686 141.453 282.125C141.222 281.957 140.991 281.788 140.76 281.619C138.39 279.886 136.052 278.149 133.882 276.217C129.54 272.35 125.825 267.505 124.852 261.885L124.852 261.885C124.259 258.47 124.805 254.78 126.928 252.155L126.929 252.154C128.956 249.634 132.407 248.313 135.599 248.834Z" fill="#A7B964" stroke="#4D775B"/>
<path d="M146.869 258.34C146.279 255.49 147.799 252.34 150.389 251.03C152.979 249.72 156.419 250.35 158.369 252.51" stroke="#4D775B" stroke-width="1.0453" stroke-miterlimit="10" stroke-linecap="round" stroke-linejoin="round"/>
<path d="M149.069 262.32C150.009 260.18 151.929 258.49 154.169 257.82C156.409 257.15 158.939 257.52 160.899 258.8" stroke="#4D775B" stroke-width="1.0453" stroke-miterlimit="10" stroke-linecap="round" stroke-linejoin="round"/>
<path d="M151.08 267.56C151.88 266.37 152.94 265.36 154.17 264.62C155.25 263.97 156.48 263.53 157.74 263.48C159 263.43 160.3 263.81 161.26 264.63" stroke="#4D775B" stroke-width="1.0453" stroke-miterlimit="10" stroke-linecap="round" stroke-linejoin="round"/>
<path d="M153.159 274.91C153.519 273.27 154.699 271.84 156.229 271.16C157.759 270.49 159.619 270.59 161.069 271.43" stroke="#4D775B" stroke-width="1.0453" stroke-miterlimit="10" stroke-linecap="round" stroke-linejoin="round"/>
<path d="M154.279 279.29C155.139 277.97 156.559 277.02 158.119 276.73C159.679 276.44 161.339 276.81 162.619 277.73" stroke="#4D775B" stroke-width="1.0453" stroke-miterlimit="10" stroke-linecap="round" stroke-linejoin="round"/>
<path d="M155.689 285.25C156.449 284.4 157.549 283.87 158.679 283.81C159.809 283.75 160.969 284.15 161.809 284.91" stroke="#4D775B" stroke-width="1.0453" stroke-miterlimit="10" stroke-linecap="round" stroke-linejoin="round"/>
<path d="M156.279 291.31C157.409 290.09 159.579 290.07 160.729 291.26" stroke="#4D775B" stroke-width="1.0453" stroke-miterlimit="10" stroke-linecap="round" stroke-linejoin="round"/>
<path d="M139.674 245.163L139.673 245.161L155.893 288.263C154.986 283.046 153.699 277.901 152.05 272.88C150.47 268.07 148.56 263.38 146.33 258.85L146.781 258.634C146.78 258.633 146.78 258.632 146.779 258.631C145.901 256.802 144.945 255.06 143.971 253.284C143.718 252.823 143.464 252.361 143.21 251.894C142.787 251.092 142.372 250.281 141.957 249.47C141.212 248.011 140.467 246.555 139.674 245.163ZM152.58 272.72C152.725 273.218 152.866 273.718 153.004 274.218L134.93 239.51L135.285 239.159C135.285 239.158 135.285 239.158 135.284 239.158C133.55 237.403 131.486 235.995 129.264 235.059C127.032 234.119 124.588 233.74 122.273 234.116C119.941 234.463 117.795 235.605 116.045 237.198C114.276 238.772 112.889 240.801 111.896 242.97C111.38 244.075 111.021 245.176 110.706 246.373C110.393 247.565 110.12 248.777 109.898 250.001C109.013 254.866 108.608 259.923 108.97 264.769V264.79V264.81L108.971 264.829C109.04 265.703 108.378 266.471 107.505 266.531L107.501 266.532C106.633 266.6 105.869 265.946 105.8 265.082V265.081V265.081V265.081V265.081V265.081V265.081V265.081V265.08V265.08V265.08V265.08V265.08V265.08V265.08V265.079V265.079V265.079V265.079V265.079V265.079V265.079V265.078V265.078V265.078V265.078V265.078V265.078V265.078V265.077V265.077V265.077V265.077V265.077V265.077V265.077V265.076V265.076V265.076V265.076V265.076V265.076V265.076V265.075V265.075V265.075V265.075V265.075V265.075V265.075V265.074V265.074V265.074V265.074V265.074V265.074V265.074V265.073V265.073V265.073V265.073V265.073V265.073V265.073V265.072V265.072V265.072V265.072V265.072V265.072V265.071V265.071V265.071V265.071V265.071V265.071V265.071V265.07V265.07V265.07V265.07V265.07V265.07V265.07V265.069V265.069V265.069V265.069V265.069V265.069V265.069V265.068V265.068V265.068V265.068V265.068V265.068V265.068V265.067V265.067V265.067V265.067V265.067V265.067V265.067V265.066V265.066V265.066V265.066V265.066V265.066V265.065V265.065V265.065V265.065V265.065V265.065V265.065V265.064V265.064V265.064V265.064V265.064V265.064V265.064V265.063V265.063V265.063V265.063V265.063V265.063V265.063V265.062V265.062V265.062V265.062V265.062V265.062V265.062V265.061V265.061V265.061V265.061V265.061V265.061V265.061V265.06V265.06V265.06V265.06V265.06V265.06V265.059V265.059V265.059V265.059V265.059V265.059V265.059V265.058V265.058V265.058V265.058V265.058V265.058V265.058V265.057V265.057V265.057V265.057V265.057V265.057V265.057V265.056V265.056V265.056V265.056V265.056V265.056V265.056V265.055V265.055V265.055V265.055V265.055V265.055V265.055V265.054V265.054V265.054V265.054V265.054V265.054V265.054V265.053V265.053V265.053V265.053V265.053V265.053V265.053V265.052V265.052V265.052V265.052V265.052V265.052V265.052V265.051V265.051V265.051V265.051V265.051V265.051V265.051V265.05V265.05V265.05V265.05V265.05V265.05V265.05V265.049V265.049V265.049V265.049V265.049V265.049V265.049V265.048V265.048V265.048V265.048V265.048V265.048V265.048V265.047V265.047V265.047V265.047V265.047V265.047V265.047V265.046V265.046V265.046V265.046V265.046V265.046V265.046V265.046V265.045V265.045V265.045V265.045V265.045V265.045V265.045V265.044V265.044V265.044V265.044V265.044V265.044V265.044V265.043V265.043V265.043V265.043V265.043V265.043V265.043V265.042V265.042V265.042V265.042V265.042V265.042V265.042V265.042V265.041V265.041V265.041V265.041V265.041V265.041V265.041V265.04V265.04V265.04V265.04V265.04V265.04V265.04V265.04V265.039V265.039V265.039V265.039V265.039V265.039V265.039V265.039V265.038V265.038V265.038V265.038V265.038V265.038V265.038V265.037V265.037V265.037V265.037V265.037V265.037V265.037V265.037V265.036V265.036V265.036V265.036V265.036V265.036V265.036V265.036V265.035V265.035V265.035V265.035V265.035V265.035V265.035V265.035V265.034V265.034V265.034V265.034V265.034V265.034V265.034V265.034V265.033V265.033V265.033V265.033V265.033V265.033V265.033V265.033V265.032V265.032V265.032V265.032V265.032V265.032V265.032V265.032V265.031V265.031V265.031V265.031V265.031V265.031V265.031V265.031V265.031V265.03V265.03V265.03V265.03V265.02L105.799 265.011C105.591 259.692 106.195 254.565 107.298 249.466C107.576 248.199 107.902 246.943 108.288 245.687L108.288 245.687L108.29 245.681C108.653 244.444 109.142 243.134 109.746 241.947L109.746 241.947L109.747 241.944C110.952 239.534 112.572 237.332 114.661 235.583L114.661 235.583L114.663 235.581C116.721 233.835 119.3 232.574 122.026 232.267L122.026 232.267L122.033 232.266C124.755 231.92 127.511 232.477 129.921 233.584L129.922 233.585C132.348 234.696 134.495 236.295 136.273 238.219L136.274 238.22C138.071 240.155 139.448 242.372 140.648 244.644C141.434 246.132 142.135 247.631 142.836 249.131C143.209 249.931 143.583 250.73 143.97 251.528L143.972 251.533C144.218 252.026 144.467 252.521 144.718 253.02C145.607 254.787 146.511 256.585 147.302 258.391L147.304 258.395C149.394 263.044 151.156 267.832 152.58 272.72Z" fill="#4D775B" stroke="#4D775B"/>
<path d="M97.6058 350.25L97.6062 350.25C99.3989 350.19 100.96 349.426 102.349 348.408C103.612 347.482 104.768 346.318 105.843 345.236C105.944 345.134 106.044 345.033 106.144 344.933C107.299 343.773 108.622 342.641 110.03 341.903C111.435 341.167 112.886 340.841 114.331 341.223C115.791 341.613 116.909 342.642 118.056 343.882C118.252 344.094 118.45 344.313 118.65 344.536C119.591 345.579 120.593 346.692 121.809 347.471C125.22 349.663 129.8 348.895 133.09 346.781C135.332 345.345 137.128 343.381 138.733 341.304L135.943 356.015C134.762 357.381 133.509 358.64 132.061 359.662C129.39 361.546 125.965 362.529 122.965 361.555C121.27 361 119.765 359.879 118.205 358.716C117.828 358.435 117.448 358.152 117.062 357.874C115.125 356.481 113.026 355.228 110.519 355.534C107.84 355.857 105.893 357.877 104.108 359.728C104.071 359.766 104.034 359.805 103.997 359.843C102.116 361.793 100.392 363.526 98.0753 363.732L98.0751 363.732C96.8837 363.838 95.7526 363.515 94.6215 362.947C93.529 362.399 92.4707 361.641 91.3763 360.857C91.3298 360.824 91.2834 360.79 91.2368 360.757C89.0085 359.162 86.5707 357.436 83.7244 357.927L83.7242 357.927C81.844 358.253 80.3194 359.518 78.9814 360.628C78.9342 360.667 78.8873 360.706 78.8405 360.745L78.8389 360.746C77.4864 361.877 76.1298 362.906 74.5841 363.118L70.9918 345.383C71.2051 345.653 71.416 345.909 71.621 346.147L71.622 346.148C73.1627 347.922 75.9632 349.005 78.166 347.755C78.803 347.394 79.3059 346.883 79.7533 346.412C79.7947 346.368 79.8355 346.325 79.876 346.282C80.2887 345.846 80.6598 345.454 81.0958 345.15L81.0966 345.149C82.2024 344.374 83.5471 344.252 84.9677 344.552C86.3916 344.852 87.8448 345.568 89.0925 346.396C89.4436 346.63 89.802 346.878 90.1665 347.13C91.0914 347.769 92.0562 348.436 93.0439 348.978C94.4359 349.742 95.9452 350.304 97.6058 350.25Z" fill="#FFFDFE" stroke="#4D775B"/>
<path d="M64.6496 314.11L64.6498 314.111L68.2768 332.038C69.8711 332.993 71.7236 333.372 73.3757 332.798C74.8234 332.295 75.9681 331.183 77.2051 329.982C77.2737 329.915 77.3426 329.848 77.4118 329.781C78.6896 328.543 80.0912 327.239 81.9677 326.851L64.6496 314.11ZM64.6496 314.11C64.0832 311.341 66.1954 308.76 69.0198 308.76H139.53C142.325 308.76 144.441 311.304 143.928 314.068C143.928 314.068 143.928 314.068 143.928 314.069L141.596 326.353C138.85 329.25 135.992 331.982 132.495 333.648C128.371 335.608 123.148 335.738 119.75 332.906C119.291 332.523 118.858 332.085 118.421 331.62C118.288 331.478 118.152 331.332 118.016 331.185C117.713 330.859 117.404 330.526 117.092 330.211C116.18 329.293 115.146 328.433 113.801 328.067L113.8 328.067M64.6496 314.11L113.8 328.067M113.8 328.067C112.175 327.628 110.604 328.033 109.205 328.802C107.81 329.568 106.546 330.716 105.495 331.838C105.412 331.926 105.33 332.015 105.247 332.103M113.8 328.067L105.247 332.103M90.8086 331.504C89.7124 330.231 88.3993 328.894 86.9258 327.962C85.4486 327.028 83.7681 326.475 81.9684 326.85L90.8086 331.504ZM90.8086 331.504C91.9014 332.767 93.0571 334.068 94.3405 335.04C95.6189 336.009 96.982 336.619 98.4899 336.56L90.8086 331.504ZM105.247 332.103C104.282 333.136 103.306 334.181 102.235 335.008M105.247 332.103L102.235 335.008M102.235 335.008C101.079 335.902 99.8579 336.506 98.4903 336.56L102.235 335.008Z" fill="#FFFDFE" stroke="#4D775B"/>
<path d="M132.638 360.488L132.638 360.488C129.809 362.484 126.055 363.62 122.655 362.515C120.778 361.907 119.101 360.655 117.528 359.481C117.172 359.215 116.821 358.953 116.474 358.703C114.546 357.316 112.732 356.286 110.639 356.536C108.324 356.816 106.601 358.592 104.717 360.543L104.697 360.564C102.884 362.442 100.908 364.489 98.1649 364.738L98.1641 364.738C96.7232 364.866 95.4006 364.469 94.1689 363.851C93.0026 363.265 91.8854 362.465 90.8102 361.694C90.757 361.656 90.704 361.618 90.6511 361.58C88.3432 359.927 86.2586 358.514 83.895 358.923L132.638 360.488ZM132.638 360.488C133.722 359.723 134.699 358.839 135.608 357.895M132.638 360.488L135.608 357.895M135.608 357.895L129.446 390.34H80.0985L74.783 364.11C76.6281 363.832 78.1697 362.61 79.4787 361.525C79.4965 361.51 79.5144 361.495 79.5322 361.481C80.9408 360.313 82.2818 359.202 83.8948 358.923L135.608 357.895Z" fill="#365650" stroke="#4D775B"/>
<path d="M132.915 334.541L132.914 334.542C128.579 336.602 122.901 336.832 119.1 333.664L119.1 333.664C118.593 333.242 118.127 332.768 117.683 332.296C117.539 332.142 117.398 331.99 117.258 331.84C116.962 331.52 116.673 331.208 116.373 330.906C115.495 330.022 114.614 329.318 113.529 329.023L132.915 334.541ZM132.915 334.541C136.117 333.015 138.781 330.654 141.223 328.149M132.915 334.541L141.223 328.149M141.223 328.149L139.149 339.067C137.221 341.721 135.194 344.244 132.53 345.949L132.53 345.949C129.439 347.935 125.299 348.547 122.33 346.639C121.245 345.942 120.354 344.956 119.419 343.92C119.207 343.686 118.993 343.449 118.774 343.213C117.617 341.963 116.329 340.737 114.569 340.267L114.568 340.267C112.803 339.799 111.089 340.219 109.546 341.027C108.007 341.834 106.601 343.047 105.416 344.237C105.311 344.342 105.207 344.447 105.103 344.552C104.024 345.639 102.931 346.74 101.742 347.612C100.444 348.564 99.0756 349.21 97.5533 349.26L97.5519 349.26C96.1438 349.311 94.8214 348.838 93.5097 348.116C92.5844 347.607 91.7015 346.997 90.8062 346.378C90.4169 346.109 90.0253 345.838 89.6268 345.574C88.3191 344.702 86.7474 343.918 85.1579 343.583C83.565 343.248 81.9074 343.356 80.5032 344.34C79.9785 344.707 79.5367 345.174 79.1363 345.598C79.0932 345.644 79.0507 345.689 79.0085 345.733C78.5585 346.207 78.1464 346.616 77.6534 346.895L77.653 346.895C76.0152 347.825 73.7064 347.067 72.3585 345.504L72.3584 345.503C71.7587 344.809 71.0938 343.946 70.4911 343.018L68.5239 333.298C70.13 334.059 71.9677 334.332 73.693 333.733C75.3697 333.157 76.6698 331.891 77.8655 330.726C77.9447 330.649 78.0234 330.572 78.1017 330.496C79.4028 329.235 80.6087 328.146 82.1622 327.819L141.223 328.149ZM98.5213 337.55L98.5194 337.55C96.7022 337.621 95.1155 336.876 93.7305 335.827C92.3505 334.783 91.129 333.404 90.0417 332.147C88.9626 330.9 87.7231 329.651 86.3738 328.798C85.0283 327.947 83.6168 327.515 82.1623 327.819L98.5213 337.55ZM98.5213 337.55C100.172 337.479 101.59 336.748 102.837 335.786C103.981 334.902 105.017 333.794 105.975 332.769C106.055 332.682 106.135 332.597 106.215 332.512C107.234 331.424 108.415 330.362 109.677 329.668M98.5213 337.55L109.677 329.668M109.677 329.668C110.935 328.977 112.234 328.673 113.529 329.023L109.677 329.668Z" fill="#365650" stroke="#4D775B"/>
<path d="M189.538 163.218C187.703 154.381 183.335 146.169 177.668 139.175L177.668 139.175C171.637 131.744 164.164 125.602 156.259 120.275C154.636 119.181 152.989 118.112 151.341 117.042C148.048 114.905 144.754 112.768 141.654 110.428C137.015 106.928 132.868 103.016 129.93 98.084C126.544 92.3954 125.059 85.503 126.429 79.0642C127.799 72.6346 132.202 66.7899 138.224 64.2508C144.258 61.7108 151.798 62.8224 156.429 67.3861L157.197 66.7548C156.148 65.1627 156.118 63.1974 156.769 61.2498C157.421 59.3011 158.738 57.4304 160.276 56.1092C163.322 53.4916 167.793 52.8922 171.784 53.8364C175.777 54.7909 179.347 57.0963 182.606 59.7289L182.606 59.7291C198.202 72.3088 207.293 92.5653 206.341 112.576C205.715 125.626 201.136 138.124 196.571 150.477L196.571 150.477C195.562 153.209 194.186 155.354 192.779 157.543L192.765 157.565C191.637 159.321 190.49 161.106 189.538 163.218Z" fill="#59916F" stroke="#4D775B"/>
<path d="M163.212 73.3801C162.626 70.8101 163.303 67.9801 164.665 65.8901C166.019 63.8001 167.992 62.3801 170.056 61.4701C173.862 59.8001 178.138 59.7501 181.969 61.3401" stroke="#4D775B" stroke-width="1.0453" stroke-miterlimit="10" stroke-linecap="round" stroke-linejoin="round"/>
<path d="M168.198 81.6001C170.914 75.3001 176.066 70.6201 181.829 69.2301C184.116 68.6801 186.749 68.7401 188.458 70.6601" stroke="#4D775B" stroke-width="1.0453" stroke-miterlimit="10" stroke-linecap="round" stroke-linejoin="round"/>
<path d="M175 92C176.741 87.3186 179.814 83.5251 183.456 81.5678C187.106 79.6004 191.297 79.4793 195 81.2348" stroke="#4D775B" stroke-width="1.0453" stroke-miterlimit="10" stroke-linecap="round" stroke-linejoin="round"/>
<path d="M179 100C181.477 95.9241 185.061 93.3754 188.752 93.0384C192.442 92.7014 196.204 94.5971 199 98.1885" stroke="#4D775B" stroke-width="1.0453" stroke-miterlimit="10" stroke-linecap="round" stroke-linejoin="round"/>
<path d="M184 112C185.704 108.867 188.487 106.681 191.488 106.137C194.489 105.593 197.651 106.69 200 109.095" stroke="#4D775B" stroke-width="1.0453" stroke-miterlimit="10" stroke-linecap="round" stroke-linejoin="round"/>
<path d="M187 121.386C190.491 119.057 194.969 119.709 198 123" stroke="#4D775B" stroke-width="1.0453" stroke-miterlimit="10" stroke-linecap="round" stroke-linejoin="round"/>
<path d="M190 132.773C192.326 131.176 195.29 132.118 197 135" stroke="#4D775B" stroke-width="1.0453" stroke-miterlimit="10" stroke-linecap="round" stroke-linejoin="round"/>
<path d="M197.586 144.319C197.762 144.547 198.09 144.59 198.319 144.414C198.547 144.239 198.59 143.91 198.414 143.682L197.586 144.319ZM190.602 140.513C191.68 140.297 192.954 140.627 194.225 141.352C195.488 142.072 196.686 143.149 197.586 144.319L198.414 143.682C197.438 142.412 196.137 141.238 194.743 140.444C193.358 139.654 191.82 139.203 190.398 139.487L190.602 140.513Z" fill="#4D775B"/>
<path d="M172.745 89.2265L172.747 89.2297C177.325 96.7387 181.139 104.72 184.091 113.023C184.396 113.879 184.693 114.74 184.98 115.603C184.711 114.735 184.433 113.87 184.146 113.008C181.357 104.651 177.701 96.5731 173.249 88.9433C172.122 87.0389 170.965 85.1632 169.796 83.2952C168.628 81.4289 167.433 79.5762 166.169 77.7551L166.169 77.7548C163.648 74.118 160.913 70.6033 157.594 67.5902L157.593 67.5893C154.314 64.5966 150.329 62.0822 145.769 61.3234C141.252 60.5935 136.433 61.6079 132.644 64.2216L132.641 64.2236C128.815 66.823 126 70.3408 123.256 73.845C120.569 77.3981 118.094 81.1167 115.948 85.0208L115.948 85.0215C107.334 100.637 103.327 118.838 104.888 136.737L104.89 136.758V136.78V136.78V136.78V136.78V136.78V136.78V136.78V136.781V136.781V136.781V136.781V136.781V136.781V136.781V136.781V136.781V136.781V136.781V136.781V136.781V136.781V136.781V136.781V136.782V136.782V136.782V136.782V136.782V136.782V136.782V136.782V136.782V136.782V136.782V136.782V136.782V136.782V136.782V136.783V136.783V136.783V136.783V136.783V136.783V136.783V136.783V136.783V136.783V136.783V136.783V136.783V136.783V136.783V136.784V136.784V136.784V136.784V136.784V136.784V136.784V136.784V136.784V136.784V136.784V136.784V136.784V136.784V136.785V136.785V136.785V136.785V136.785V136.785V136.785V136.785V136.785V136.785V136.785V136.785V136.785V136.785V136.786V136.786V136.786V136.786V136.786V136.786V136.786V136.786V136.786V136.786V136.786V136.786V136.786V136.787V136.787V136.787V136.787V136.787V136.787V136.787V136.787V136.787V136.787V136.787V136.787V136.787V136.788V136.788V136.788V136.788V136.788V136.788V136.788V136.788V136.788V136.788V136.788V136.788V136.789V136.789V136.789V136.789V136.789V136.789V136.789V136.789V136.789V136.789V136.789V136.789V136.789V136.79V136.79V136.79V136.79V136.79V136.79V136.79V136.79V136.79V136.79V136.79V136.79V136.791V136.791V136.791V136.791V136.791V136.791V136.791V136.791V136.791V136.791V136.791V136.791V136.792V136.792V136.792V136.792V136.792V136.792C104.993 137.642 105.767 138.263 106.638 138.173L172.745 89.2265ZM172.745 89.2265C170.442 85.5114 168.025 81.781 165.476 78.2285L165.475 78.2265M172.745 89.2265L165.475 78.2265M165.475 78.2265C162.906 74.6842 160.121 71.26 156.85 68.4042C153.608 65.5474 149.751 63.2639 145.542 62.6551L145.538 62.6547M165.475 78.2265L145.538 62.6547M145.538 62.6547C141.37 62.0784 136.96 63.0741 133.53 65.5527C130.067 67.9846 127.325 71.4965 124.739 74.9609L124.739 74.9609M145.538 62.6547L124.739 74.9609M124.739 74.9609L124.735 74.9669M124.739 74.9609L124.735 74.9669M124.735 74.9669C122.184 78.4915 119.831 82.1621 117.817 86.0281M124.735 74.9669L117.817 86.0281M117.817 86.0281C109.713 101.433 106.192 119.212 108.043 136.423C108.134 137.301 107.5 138.082 106.638 138.173L117.817 86.0281Z" fill="#4D775B" stroke="#4D775B"/>
<path d="M151.244 156.925L151.249 156.905L151.253 156.884C151.862 153.324 154.175 151.251 156.943 150.617C159.73 149.979 163.009 150.797 165.504 153.121C175.919 163.383 178.688 179.368 177.93 196.114C177.173 212.843 172.901 230.203 169.377 243.078L169.364 243.126L169.361 243.175C169.306 243.969 168.666 244.753 167.952 245.064C167.606 245.215 167.303 245.227 167.08 245.139C166.882 245.06 166.661 244.87 166.512 244.423C167 230.373 159.016 220.72 149.692 211.889C147.736 210.037 145.733 208.231 143.732 206.427C140.923 203.894 138.12 201.367 135.466 198.728C130.942 194.23 126.939 189.485 124.279 184.04L124.279 184.04C118.414 172.069 120.818 161.138 126.628 156.378C129.521 154.007 133.29 153.129 137.417 154.401C141.561 155.678 146.108 159.139 150.466 165.541L151.373 165.177C150.913 162.447 150.563 159.572 151.244 156.925Z" fill="#A7B964" stroke="#4D775B"/>
<path d="M109.028 159.981C108.748 160.426 108.829 161.015 109.233 161.359C109.688 161.744 110.361 161.691 110.738 161.246L110.752 161.231L110.766 161.216L110.773 161.21C114.473 156.899 118.605 152.813 123.505 150.064L123.505 150.064C125.938 148.7 128.619 147.708 131.362 147.501L109.028 159.981ZM109.028 159.981L109.141 159.854C113.067 155.49 117.381 151.381 122.684 148.552C125.311 147.164 128.22 146.144 131.277 145.979L131.278 145.979C134.324 145.806 137.388 146.693 139.979 148.182C142.581 149.703 144.757 151.787 146.622 154.056C148.487 156.345 150.051 158.818 151.451 161.379C154.25 166.511 156.329 171.958 158.134 177.474C160.72 185.56 162.642 193.82 164.116 202.158C162.452 193.856 160.342 185.638 157.593 177.647L157.592 177.645C155.687 172.2 153.485 166.818 150.613 161.84C149.182 159.352 147.585 156.955 145.73 154.785C143.884 152.625 141.749 150.69 139.312 149.342L139.309 149.341C136.869 148.013 134.104 147.293 131.362 147.501L109.028 159.981Z" fill="#4D775B" stroke="#4D775B"/>
<path d="M122 166.187C124.67 161.064 131.022 158.494 136.825 159.083C142.628 159.672 147.863 162.943 152 167" stroke="#4D775B" stroke-width="1.0453" stroke-miterlimit="10" stroke-linecap="round" stroke-linejoin="round"/>
<path d="M156 170.857C150.859 168.224 144.188 167.341 138.165 168.501C132.133 169.661 126.847 172.834 124 177" stroke="#4D775B" stroke-width="1.0453" stroke-miterlimit="10" stroke-linecap="round" stroke-linejoin="round"/>
<path d="M131.171 188.172C133.838 183.111 138.338 179.213 143.407 177.57C148.477 175.927 154.068 176.562 158.63 179.283" stroke="#4D775B" stroke-width="1.0453" stroke-miterlimit="10" stroke-linecap="round" stroke-linejoin="round"/>
<path d="M135 196C138.15 191.862 141.683 187.905 146.108 185.671C150.534 183.437 156.021 183.236 160 186.342" stroke="#4D775B" stroke-width="1.0453" stroke-miterlimit="10" stroke-linecap="round" stroke-linejoin="round"/>
<path d="M143 204C143.972 199.425 146.767 195.433 150.395 193.447C154.023 191.461 158.415 191.523 162 193.611" stroke="#4D775B" stroke-width="1.0453" stroke-miterlimit="10" stroke-linecap="round" stroke-linejoin="round"/>
<path d="M149 210C150.275 207.138 152.501 204.762 155.207 203.384C157.913 202.006 161.072 201.638 164 202.365" stroke="#4D775B" stroke-width="1.0453" stroke-miterlimit="10" stroke-linecap="round" stroke-linejoin="round"/>
<path d="M158 217C158.697 214.785 159.99 213.058 161.487 212.363C162.985 211.657 164.66 211.994 166 213.254" stroke="#4D775B" stroke-width="1.0453" stroke-miterlimit="10" stroke-linecap="round" stroke-linejoin="round"/>
<path d="M163 226C163.34 223.112 165.153 220.859 167 221.007" stroke="#4D775B" stroke-width="1.0453" stroke-miterlimit="10" stroke-linecap="round" stroke-linejoin="round"/>
<path d="M168.96 167.79C168.47 165.15 168.48 162.37 169.42 159.86C169.7 159.12 170.15 158.33 170.92 158.16C171.65 158 172.4 158.48 172.79 159.12C173.18 159.76 173.29 160.52 173.41 161.26C173.76 163.4 174.28 165.55 175.32 167.45C176.81 170.17 179.26 172.21 181.21 174.62C184.25 178.37 186.04 182.95 187.78 187.45C188.27 188.72 188.77 190.08 188.51 191.42C188.09 193.51 185.81 194.86 183.68 194.78C181.55 194.7 179.6 193.52 178 192.1C174.61 189.1 172.39 184.87 171.69 180.42C171.39 178.5 171.63 176.52 171.05 174.64C170.36 172.35 169.4 170.18 168.96 167.79Z" fill="#E7986C"/>
<path d="M174.33 187.53C175.14 190.34 177.35 192.7 180.1 193.69" stroke="#C2654F" stroke-width="0.3" stroke-miterlimit="10" stroke-linecap="round" stroke-linejoin="round"/>
<path d="M61.6398 401.3H41.7798V500H61.6398V401.3Z" fill="#9B5533"/>
<path d="M222.61 401.3H202.75V500H222.61V401.3Z" fill="#9B5533"/>
<path d="M219.75 446.57H50.46V467.57H219.75V446.57Z" fill="#9B5533"/>
<path d="M247.18 384.05H29.7598V406H247.18V384.05Z" fill="#E88E64"/>
<path d="M74.1798 401.3H54.3198V500H74.1798V401.3Z" fill="#E88E64"/>
<path d="M235.15 401.3H215.29V500H235.15V401.3Z" fill="#E88E64"/>
<path d="M229.29 455.57H60V485.57H229.29V455.57Z" fill="#E88E64"/>
<path d="M143.19 478.46C152.601 478.46 160.23 474.927 160.23 470.57C160.23 466.212 152.601 462.68 143.19 462.68C133.779 462.68 126.15 466.212 126.15 470.57C126.15 474.927 133.779 478.46 143.19 478.46Z" fill="#9B5533"/>
<path d="M383.73 123.5C388.73 94.8701 395.46 66.5401 403.87 38.7201C405.89 32.0201 408.04 25.3001 411.48 19.2101C413.49 15.6501 416.93 11.9101 420.93 12.7601C424.44 13.5001 426.22 17.3401 427.44 20.7101C439.38 53.9601 446.55 88.9101 448.65 124.18" stroke="#555555" stroke-width="2" stroke-miterlimit="10" stroke-linecap="round" stroke-linejoin="round"/>
<path d="M418.2 8.51012C418.44 8.12012 418.73 7.70012 419.18 7.61012C419.98 7.44012 420.55 8.36012 420.83 9.13012C422.02 12.4201 422.79 15.8701 423.1 19.3601C423.17 20.1801 423.21 21.0601 422.83 21.7901C421.18 24.9501 416.07 23.0701 415.87 19.9201C415.62 16.0201 416.15 11.9101 418.2 8.51012Z" fill="#365650"/>
<path d="M374.14 93.1801C370.49 92.4201 366.28 94.1001 363.17 92.0301C361.38 90.8401 360.39 88.6001 358.44 87.7201C355.91 86.5801 353.01 88.1701 350.23 88.1601C347.02 88.1601 344.13 85.9501 342.45 83.2101C340.77 80.4701 340.08 77.2501 339.47 74.1001C345.55 73.6401 352.14 73.3101 357.24 76.6601C358.79 77.6801 360.23 79.0401 362.06 79.3001C364.96 79.7101 367.77 77.2001 370.61 77.8901C374.09 78.7301 374.86 83.4601 377.68 85.6601C380.92 88.1901 386.04 86.7801 389.31 89.2601C391.82 91.1601 392.42 94.7301 394.58 97.0101C397.27 99.8501 402.22 100.63 403.45 104.34C406.09 112.28 394.25 112.19 390.44 108.43C387.74 105.76 385.1 102.96 382.72 100.01C380.45 97.1601 377.93 93.9701 374.14 93.1801Z" fill="#A7B964"/>
<path d="M347.57 78.78C352.54 79.07 356.67 83.02 361.62 83.58C363.75 83.82 365.97 83.42 368 84.11C370.74 85.04 372.5 87.74 375.06 89.09C378.7 91.01 383.64 90.07 386.64 92.88C388.35 94.48 388.98 96.93 390.46 98.74C392.04 100.67 394.44 101.7 396.47 103.15C398.5 104.61 400.3 106.98 399.73 109.41" stroke="#4D775B" stroke-width="1.0453" stroke-miterlimit="10" stroke-linecap="round" stroke-linejoin="round"/>
<path d="M425.95 103.02C426.42 100.47 428.16 98.1801 430.5 97.0601C433.55 95.5901 437.33 96.0701 440.22 94.3101C445.28 91.2301 445.28 82.9001 450.61 80.3101C453.93 78.7001 458.28 79.9801 461.28 77.8201C464.54 75.4701 464.68 70.0701 468.24 68.2101C470.81 66.8701 474.12 68.0001 476.74 66.7601C478.29 66.0301 479.35 64.5801 480.54 63.3501C481.73 62.1201 483.32 61.0001 485.02 61.2501C487.3 61.5901 488.54 64.3601 488.06 66.6101C487.58 68.8601 485.92 70.6501 484.28 72.2701C482.64 73.8801 480.89 75.5401 480.14 77.7101C479.73 78.9101 479.63 80.2301 478.96 81.3101C477.91 82.9801 475.76 83.5701 473.79 83.7901C471.82 84.0101 469.74 84.0201 468.04 85.0401C463.94 87.5101 464.12 94.5101 459.68 96.3001C456.5 97.5801 452.6 95.3301 449.57 96.9301C446.88 98.3501 446.42 101.91 445.17 104.68C443.73 107.9 440.82 110.42 437.43 111.4C431.41 113.12 424.65 110.16 425.95 103.02Z" fill="#A7B964"/>
<path d="M482.771 66.6001C482.801 68.5501 481.361 70.2501 479.661 71.2001C477.961 72.1501 476.011 72.5001 474.131 73.0001C472.251 73.5001 470.331 74.2101 469.021 75.6501C467.331 77.5201 466.881 80.4101 464.841 81.8801C462.041 83.9001 457.891 82.1801 454.811 83.7301C451.561 85.3601 450.961 89.7101 448.661 92.5301C447.261 94.2601 445.241 95.3601 443.251 96.3601C441.261 97.3601 439.201 98.3201 437.591 99.8501C435.981 101.39 434.871 103.65 435.321 105.83" stroke="#4D775B" stroke-width="1.0453" stroke-miterlimit="10" stroke-linecap="round" stroke-linejoin="round"/>
<path d="M417.38 95.3002C418.94 94.0502 421.03 93.3002 421.96 91.5302C423.15 89.2702 421.86 86.4102 422.62 83.9702C423.75 80.3602 428.59 79.3702 430.63 76.1802C432.44 73.3402 431.66 69.3302 433.68 66.6302C435.25 64.5302 438.08 63.8202 440 62.0402C441.76 60.4102 442.61 58.0502 443.44 55.8002C444.27 53.5502 445.23 51.2102 447.12 49.7302C449.01 48.2502 452.11 48.0602 453.59 49.9502C455.02 51.7902 454.26 54.5002 453.01 56.4702C451.76 58.4402 450.05 60.2202 449.6 62.5102C448.99 65.5802 450.81 68.8802 449.72 71.8202C448.31 75.6402 442.74 76.8402 441.78 80.8002C441.03 83.8702 443.5 87.2602 442.16 90.1202C441 92.5702 437.72 93.1402 435.93 95.1802C433.73 97.6902 434.39 101.53 433.5 104.74C432.49 108.38 429.18 111.27 425.44 111.79C421.51 112.33 416.95 110.21 415.61 106.36C414.26 102.54 413.86 98.1402 417.38 95.3002Z" fill="#59916F"/>
<path d="M448.74 53.8601C448.21 58.0601 446.44 62.0901 443.71 65.3301C441.97 67.4001 439.82 69.1801 438.59 71.6001C436.87 74.9901 437.2 79.2001 435.21 82.4401C433.29 85.5601 429.48 87.3101 428.07 90.7001C426.96 93.3601 427.6 96.4801 426.65 99.2001C425.86 101.46 424.07 103.2 422.68 105.15C421.29 107.1 420.27 109.68 421.27 111.86" stroke="#4D775B" stroke-width="1.0453" stroke-miterlimit="10" stroke-linecap="round" stroke-linejoin="round"/>
<path d="M400.5 100.59C401.53 102.72 402.59 104.87 404.15 106.64C405.72 108.41 407.89 109.78 410.25 109.86C412.61 109.94 415.09 108.46 415.68 106.17C416.4 103.37 414.27 100.67 412.08 98.7802C409.89 96.8902 407.33 95.0002 406.73 92.1802C406.03 88.8802 408.27 85.2002 406.68 82.2302C404.57 78.2902 398.05 79.5302 395.11 76.1702C392.81 73.5502 393.57 69.0602 391.02 66.6802C389.29 65.0702 386.64 65.0102 384.3 65.3502C381.96 65.6902 379.56 66.3202 377.27 65.7302C374.85 65.1102 372.98 63.2402 371.12 61.5702C369.26 59.9002 367.06 58.2702 364.56 58.3202C362.06 58.3702 359.58 61.0102 360.64 63.2802C361.71 65.5902 365.2 65.6202 366.75 67.6502C369.12 70.7502 365.38 75.8702 367.8 78.9302C369.32 80.8502 372.24 80.6102 374.67 80.2702C377.09 79.9302 380.09 79.9102 381.36 82.0002C382.77 84.3202 380.95 87.6002 382.32 89.9402C383.52 92.0002 386.38 92.1402 388.77 92.1302C391.16 92.1202 394.08 92.5702 394.92 94.8002C395.54 96.4402 394.72 98.4502 395.63 99.9402C396.37 101.14 397.92 101.48 399.27 101.9C400.62 102.32 402.11 103.21 402.14 104.62" fill="#59916F"/>
<path d="M368.13 64.3901C369.93 64.6001 371.32 66.0401 372.41 67.4901C373.5 68.9401 374.53 70.5501 376.13 71.3901C377.79 72.2601 379.76 72.1501 381.59 72.5201C384.41 73.0801 386.96 74.8301 388.5 77.2601C389.41 78.6901 389.98 80.3501 391.15 81.5801C393.63 84.1901 398.16 84.2201 400.26 87.1501C402.08 89.6901 401.28 93.3201 402.65 96.1201C403.61 98.0801 405.51 99.3701 407.02 100.94C408.53 102.51 409.74 104.82 408.86 106.82" stroke="#4D775B" stroke-width="1.0453" stroke-miterlimit="10" stroke-linecap="round" stroke-linejoin="round"/>
<path d="M408.86 92.8302C408.73 88.9602 404.85 85.6202 405.72 81.8502C406.34 79.2102 409.16 77.4102 409.46 74.7102C409.98 69.9902 402.62 67.0002 403.49 62.3302C403.94 59.9202 406.47 58.4502 407.37 56.1802C408.59 53.1002 406.57 49.3502 408.07 46.4002C408.82 44.9302 410.43 43.9302 412.08 43.9302C413.73 43.9302 415.35 44.9102 416.1 46.3802C417.19 48.5202 416.46 51.2002 417.37 53.4202C418.69 56.6702 423.13 58.1102 423.79 61.5502C424.68 66.1702 418.02 69.9202 419.3 74.4402C420.02 76.9802 423.09 78.5702 423.14 81.2102C423.21 85.0502 416.86 86.9702 417.54 90.7402C417.9 92.7602 420.14 93.8102 421.26 95.5302C422.27 97.0802 422.28 99.1102 421.74 100.87C420.38 105.28 414.67 113.92 409.16 110.02C402.72 105.46 409.05 98.2802 408.86 92.8302Z" fill="#A7B964"/>
<path d="M412.82 51.2102C411.93 53.0502 412.37 55.2502 413.03 57.1902C413.69 59.1302 414.58 61.0502 414.55 63.1002C414.52 65.3402 413.39 67.4502 413.35 69.6902C413.3 72.8102 415.37 75.6202 415.55 78.7302C415.81 83.2602 412.06 87.4502 412.82 91.9202C413.24 94.3602 414.97 96.5102 414.96 98.9902C414.95 100.94 413.85 102.69 413.07 104.48C412.3 106.27 411.89 108.52 413.11 110.04" stroke="#4D775B" stroke-width="1.0453" stroke-miterlimit="10" stroke-linecap="round" stroke-linejoin="round"/>
<path d="M442.401 117.7C441.011 116.69 440.081 115.02 438.471 114.44C436.431 113.7 434.251 115.02 432.591 116.43C430.931 117.84 429.191 119.48 427.021 119.53C423.741 119.6 421.411 116 418.151 115.59C415.561 115.26 413.221 117.03 411.181 118.67C409.141 120.31 406.741 122.03 404.171 121.58C402.321 121.26 400.871 119.89 399.421 118.69C397.971 117.5 396.201 116.38 394.351 116.7C391.911 117.13 390.381 119.9 387.921 120.27C386.871 120.43 385.841 120.08 384.971 119.45L391.611 141.37C392.221 143.37 393.901 144.72 395.791 144.72H438.651C440.621 144.72 442.361 143.26 442.901 141.14L448.911 117.56C448.491 117.9 448.021 118.18 447.521 118.38C445.851 119.01 443.851 118.75 442.401 117.7Z" fill="#365650"/>
<path d="M446.44 104.32H386.56C383.54 104.32 381.41 107.64 382.38 110.84L384.99 119.45C385.86 120.07 386.89 120.42 387.94 120.27C390.39 119.9 391.92 117.13 394.37 116.7C396.22 116.38 397.99 117.5 399.44 118.69C400.89 119.88 402.34 121.25 404.19 121.58C406.76 122.03 409.17 120.32 411.2 118.67C413.23 117.02 415.57 115.26 418.17 115.59C421.42 116 423.76 119.6 427.04 119.53C429.21 119.48 430.95 117.84 432.61 116.43C434.27 115.02 436.45 113.71 438.49 114.44C440.1 115.02 441.03 116.69 442.42 117.7C443.88 118.76 445.87 119.02 447.55 118.37C448.06 118.17 448.52 117.89 448.94 117.55L450.71 110.61C451.5 107.46 449.38 104.32 446.44 104.32Z" fill="#FFFDFE"/>
<path d="M387.45 131.37C407 130 426.63 129.83 446.19 130.84" stroke="#555555" stroke-width="2" stroke-miterlimit="10" stroke-linecap="round" stroke-linejoin="round"/>
<path d="M385.49 122.96C406.6 121.58 427.78 121.21 448.92 121.87" stroke="#555555" stroke-width="2" stroke-miterlimit="10" stroke-linecap="round" stroke-linejoin="round"/>
</g>
<defs>
<clipPath id="clip0_1988_6490">
<rect width="500" height="500" fill="white"/>
</clipPath>
</defs>
</svg>
