<svg width="18" height="18" viewBox="0 0 18 18" fill="none" xmlns="http://www.w3.org/2000/svg">
<g clip-path="url(#clip0_54_1981)">
<path d="M9.00021 17.3574C13.6157 17.3574 17.3574 13.6157 17.3574 9.00021C17.3574 4.38469 13.6157 0.643066 9.00021 0.643066C4.38469 0.643066 0.643066 4.38469 0.643066 9.00021C0.643066 13.6157 4.38469 17.3574 9.00021 17.3574Z" stroke="#20604F" stroke-linecap="round" stroke-linejoin="round"/>
<path d="M12.6289 7.93447C14.0983 10.0063 12.9742 12.3794 12.4306 13.3051C12.3508 13.4346 12.2438 13.5451 12.1169 13.6288C11.99 13.7126 11.8463 13.7676 11.6959 13.79C10.6306 13.9737 7.97833 14.1794 6.55302 12.1075C5.14975 10.1532 5.20853 6.71488 5.33343 5.07651C5.33835 4.95445 5.3722 4.8353 5.43217 4.72887C5.49215 4.62245 5.57654 4.53179 5.67841 4.46435C5.78028 4.39692 5.8967 4.35464 6.0181 4.341C6.1395 4.32737 6.2624 4.34275 6.37669 4.3859C7.95629 4.84141 11.2477 5.98019 12.6289 7.93447Z" stroke="#20604F" stroke-linecap="round" stroke-linejoin="round"/>
<path d="M9.18457 8.93555C10.1662 10.5257 10.8434 11.3175 11.5716 13.1471" stroke="#20604F" stroke-linecap="round" stroke-linejoin="round"/>
</g>
<defs>
<clipPath id="clip0_54_1981">
<rect width="18" height="18" fill="white"/>
</clipPath>
</defs>
</svg>
