<svg width="18" height="18" viewBox="0 0 18 18" fill="none" xmlns="http://www.w3.org/2000/svg">
<g clip-path="url(#clip0_91_3249)">
<path d="M2.84615 4.69231C3.86576 4.69231 4.69231 3.86576 4.69231 2.84615C4.69231 1.82655 3.86576 1 2.84615 1C1.82655 1 1 1.82655 1 2.84615C1 3.86576 1.82655 4.69231 2.84615 4.69231Z" stroke="#20604F" stroke-linecap="round" stroke-linejoin="round"/>
<path d="M4.69238 2.84619H17.0001" stroke="#20604F" stroke-linecap="round" stroke-linejoin="round"/>
<path d="M8.99996 10.8461C10.0196 10.8461 10.8461 10.0196 10.8461 8.99996C10.8461 7.98036 10.0196 7.15381 8.99996 7.15381C7.98036 7.15381 7.15381 7.98036 7.15381 8.99996C7.15381 10.0196 7.98036 10.8461 8.99996 10.8461Z" stroke="#20604F" stroke-linecap="round" stroke-linejoin="round"/>
<path d="M1 9H7.15385" stroke="#20604F" stroke-linecap="round" stroke-linejoin="round"/>
<path d="M10.8462 9H17" stroke="#20604F" stroke-linecap="round" stroke-linejoin="round"/>
<path d="M15.1538 16.9999C16.1734 16.9999 16.9999 16.1734 16.9999 15.1538C16.9999 14.1342 16.1734 13.3076 15.1538 13.3076C14.1342 13.3076 13.3076 14.1342 13.3076 15.1538C13.3076 16.1734 14.1342 16.9999 15.1538 16.9999Z" stroke="#20604F" stroke-linecap="round" stroke-linejoin="round"/>
<path d="M13.3077 15.1538H1" stroke="#20604F" stroke-linecap="round" stroke-linejoin="round"/>
</g>
<defs>
<clipPath id="clip0_91_3249">
<rect width="18" height="18" fill="white"/>
</clipPath>
</defs>
</svg>
