<svg width="18" height="18" viewBox="0 0 18 18" fill="none" xmlns="http://www.w3.org/2000/svg">
<path fill-rule="evenodd" clip-rule="evenodd" d="M6.67712 1C4.98463 1 3.6126 2.37203 3.6126 4.06452C3.6126 5.757 4.98463 7.12903 6.67712 7.12903C8.3696 7.12903 9.74164 5.757 9.74164 4.06452C9.74164 2.37203 8.3696 1 6.67712 1ZM4.51583 4.06452C4.51583 2.87087 5.48347 1.90323 6.67712 1.90323C7.87077 1.90323 8.83841 2.87087 8.83841 4.06452C8.83841 5.25816 7.87077 6.22581 6.67712 6.22581C5.48347 6.22581 4.51583 5.25816 4.51583 4.06452Z" fill="white"/>
<path d="M6.46194 8.91939C7.2699 8.88114 8.07437 9.04829 8.80022 9.40524C9.02404 9.51531 9.2947 9.42309 9.40477 9.19927C9.51484 8.97546 9.42263 8.70479 9.19881 8.59472C8.33598 8.1704 7.37968 7.9717 6.41923 8.01717C5.45879 8.06264 4.52554 8.3508 3.70665 8.85473C2.88776 9.35866 2.20996 10.0619 1.73655 10.8988C1.26315 11.7357 1.00955 12.679 0.999512 13.6404V15.3871C0.999512 15.6365 1.20171 15.8387 1.45112 15.8387H6.09629C6.34571 15.8387 6.5479 15.6365 6.5479 15.3871C6.5479 15.1377 6.34571 14.9355 6.09629 14.9355H1.90274V13.6476C1.91157 12.8395 2.12485 12.0469 2.52272 11.3435C2.92096 10.6395 3.49115 10.0479 4.18003 9.62397C4.8689 9.20004 5.65399 8.95764 6.46194 8.91939Z" fill="white"/>
<path d="M13.0638 9.12903C13.3133 9.12903 13.5155 9.33123 13.5155 9.58064V12.6129H16.5479C16.7973 12.6129 16.9995 12.8151 16.9995 13.0645C16.9995 13.314 16.7973 13.5162 16.5479 13.5162H13.5155V16.5484C13.5155 16.7978 13.3133 17 13.0638 17C12.8144 17 12.6122 16.7978 12.6122 16.5484V13.5162H9.58016C9.33074 13.5162 9.12854 13.314 9.12854 13.0645C9.12854 12.8151 9.33074 12.6129 9.58016 12.6129H12.6122V9.58064C12.6122 9.33123 12.8144 9.12903 13.0638 9.12903Z" fill="white"/>
</svg>
