<svg width="18" height="18" viewBox="0 0 18 18" fill="none" xmlns="http://www.w3.org/2000/svg">
<g clip-path="url(#clip0_1_10039)">
<path d="M9.35376 0.289513C9.1585 0.0942509 8.84192 0.0942509 8.64666 0.289513L0.289513 8.64666C0.0942509 8.84192 0.0942509 9.1585 0.289513 9.35376C0.484775 9.54902 0.801358 9.54902 0.99662 9.35376L9.00021 1.35017L17.0038 9.35376C17.1991 9.54902 17.5156 9.54902 17.7109 9.35376C17.9062 9.1585 17.9062 8.84192 17.7109 8.64666L9.35376 0.289513Z" fill="#20604F"/>
<path d="M3.71448 10.9287C3.71448 10.6526 3.49062 10.4287 3.21448 10.4287C2.93834 10.4287 2.71448 10.6526 2.71448 10.9287V17.3573C2.71448 17.6334 2.93834 17.8573 3.21448 17.8573H14.7859C15.062 17.8573 15.2859 17.6334 15.2859 17.3573V10.9287C15.2859 10.6526 15.062 10.4287 14.7859 10.4287C14.5098 10.4287 14.2859 10.6526 14.2859 10.9287V16.8573H3.71448V10.9287Z" fill="#20604F"/>
</g>
<defs>
<clipPath id="clip0_1_10039">
<rect width="18" height="18" fill="white"/>
</clipPath>
</defs>
</svg>
