<svg width="500" height="500" viewBox="0 0 500 500" fill="none" xmlns="http://www.w3.org/2000/svg">
<g clip-path="url(#clip0_1988_9854)">
<path d="M500 0H0V500H500V0Z" fill="#FFD5C9"/>
<path d="M415.35 82.3401H301.93V275.3H415.35V82.3401Z" fill="#FDF8F1"/>
<path d="M428.12 83.8101H289.66V86.7601H428.12V83.8101Z" fill="#FFD5C9"/>
<path d="M428.12 89.21H289.66V92.16H428.12V89.21Z" fill="#FFD5C9"/>
<path d="M428.12 94.6101H289.66V97.5601H428.12V94.6101Z" fill="#FFD5C9"/>
<path d="M428.12 100.01H289.66V102.96H428.12V100.01Z" fill="#FFD5C9"/>
<path d="M428.12 105.41H289.66V108.36H428.12V105.41Z" fill="#FFD5C9"/>
<path d="M428.12 110.82H289.66V113.77H428.12V110.82Z" fill="#FFD5C9"/>
<path d="M428.12 116.22H289.66V119.17H428.12V116.22Z" fill="#FFD5C9"/>
<path d="M428.12 121.62H289.66V124.57H428.12V121.62Z" fill="#FFD5C9"/>
<path d="M357.417 82.3307V278.241H360.367V82.3307H357.417Z" fill="#FFD5C9"/>
<path d="M259.703 185.94L455.613 185.94V182.99L259.703 182.99V185.94Z" fill="#FFD5C9"/>
<path d="M178.738 86.1823L65.3179 85.1333L63.5332 278.093L176.953 279.142L178.738 86.1823Z" fill="#FDF8F1"/>
<path d="M191.489 87.7741L53.0293 86.4937L53.002 89.4437L191.462 90.7241L191.489 87.7741Z" fill="#FFD5C9"/>
<path d="M191.439 93.1743L52.979 91.8938L52.9517 94.8438L191.412 96.1243L191.439 93.1743Z" fill="#FFD5C9"/>
<path d="M191.389 98.5745L52.9292 97.2939L52.9019 100.244L191.362 101.525L191.389 98.5745Z" fill="#FFD5C9"/>
<path d="M191.339 103.975L52.8789 102.694L52.8516 105.644L191.312 106.925L191.339 103.975Z" fill="#FFD5C9"/>
<path d="M191.289 109.385L52.8291 108.104L52.8018 111.054L191.262 112.335L191.289 109.385Z" fill="#FFD5C9"/>
<path d="M191.239 114.785L52.7793 113.505L52.752 116.455L191.212 117.735L191.239 114.785Z" fill="#FFD5C9"/>
<path d="M191.189 120.185L52.729 118.905L52.7017 121.855L191.162 123.135L191.189 120.185Z" fill="#FFD5C9"/>
<path d="M191.139 125.586L52.6792 124.305L52.6519 127.255L191.112 128.536L191.139 125.586Z" fill="#FFD5C9"/>
<path d="M120.313 85.6298L118.501 281.54L121.451 281.567L123.263 85.6571L120.313 85.6298Z" fill="#FFD5C9"/>
<path d="M17.7063 188.287L191.236 189.892L191.261 187.182L17.7314 185.577L17.7063 188.287Z" fill="#FFD5C9"/>
<path d="M258.16 453.72C373.262 453.72 466.57 432.212 466.57 405.68C466.57 379.148 373.262 357.64 258.16 357.64C143.058 357.64 49.75 379.148 49.75 405.68C49.75 432.212 143.058 453.72 258.16 453.72Z" fill="#EFC88F"/>
<path d="M237.16 113.42C237.16 113.42 236.06 98.4499 229.34 96.4099C229.34 96.4099 238.65 98.4399 237.17 114.45" fill="#007E64"/>
<path d="M237.18 117.03C237.18 117.03 234.52 100 236.57 94.82C238.61 89.65 240.11 77.24 240.11 77.24C240.11 77.24 239.14 92.74 238.13 96.36C237.1 99.99 237.18 117.03 237.18 117.03Z" fill="#007E64"/>
<path d="M278.642 147.913L228.272 148.129L228.293 152.929L278.663 152.713L278.642 147.913Z" fill="#875350"/>
<path d="M248.934 127.379L242.758 129.059L248.006 148.347L254.181 146.667L248.934 127.379Z" fill="#B7BCE2"/>
<path d="M257.9 203.59H207.63V208.39H257.9V203.59Z" fill="#875350"/>
<path d="M215.21 183.6H208.83V203.59H215.21V183.6Z" fill="#444567"/>
<path d="M234.44 202.42L228.27 204.07L223.12 184.76L229.28 183.11L234.44 202.42Z" fill="#444567"/>
<path d="M223.19 179.2H215.21V203.58H223.19V179.2Z" fill="#B7BCE2"/>
<path d="M248.9 193.11C248.9 193.11 241.09 190.43 242.65 180.25C242.65 180.25 252.58 182.93 250.48 193.11" fill="#ACB559"/>
<path d="M249.65 191.79C249.65 191.79 245.1 183.45 253.92 176.16C253.92 176.16 260.24 186.16 250.97 193.02" fill="#ACB559"/>
<path d="M241.05 190.97H257.09C257.09 190.97 258.16 204.98 249.07 204.13C249.07 204.13 241.05 205.97 241.05 190.97Z" fill="#C9A077"/>
<path d="M270.45 135.35C270.45 135.35 276.07 133.4 274.92 126.08C274.92 126.08 267.77 128.04 269.31 135.36" fill="#ACB559"/>
<path d="M269.04 133.1C269.04 133.1 271.13 127.53 264.76 123.74C264.76 123.74 261.7 130.5 268.32 133.98" fill="#ACB559"/>
<path d="M279.7 132.86L261.33 132.94C261.33 132.94 260.17 148.95 270.58 147.95C270.58 147.95 279.77 150.01 279.7 132.86Z" fill="#AD8561"/>
<path d="M273.06 132.91C273.06 132.91 278.29 139.8 287.63 135.18C287.63 135.18 281.69 126.2 272.53 131.36" fill="#ACB559"/>
<path d="M273.83 132.59C273.83 132.59 268.17 134.43 269.18 141.77C269.18 141.77 276.37 139.96 274.98 132.61" fill="#ACB559"/>
<path d="M275.65 138.79C275.65 138.79 274.16 144.56 280.9 147.64C280.9 147.64 283.23 140.6 276.27 137.83" fill="#ACB559"/>
<path d="M271.58 148.3C271.58 148.3 275.33 146.37 273.79 141.35C273.79 141.35 268.96 143.44 270.78 148.42" fill="#ACB559"/>
<path d="M278.6 150.86C278.6 150.86 278.8 146.64 273.68 145.48C273.68 145.48 273.08 150.7 278.31 151.62" fill="#ACB559"/>
<path d="M272.54 149.2C272.54 149.2 276.68 154.66 284.08 151C284.08 151 279.37 143.88 272.11 147.97" fill="#ACB559"/>
<path d="M273.15 148.94C273.15 148.94 268.66 150.4 269.46 156.22C269.46 156.22 275.16 154.78 274.05 148.96" fill="#ACB559"/>
<path d="M274.59 153.86C274.59 153.86 273.41 158.43 278.75 160.88C278.75 160.88 280.59 155.3 275.08 153.11" fill="#ACB559"/>
<path d="M271.37 161.39C271.37 161.39 274.34 159.86 273.12 155.88C273.12 155.88 269.3 157.53 270.73 161.48" fill="#ACB559"/>
<path d="M276.93 163.42C276.93 163.42 277.09 160.08 273.03 159.15C273.03 159.15 272.56 163.29 276.7 164.01" fill="#ACB559"/>
<path d="M274.43 152.73C274.43 152.73 268.77 154.57 269.78 161.91C269.78 161.91 276.97 160.1 275.58 152.75" fill="#ACB559"/>
<path d="M276.25 158.93C276.25 158.93 274.76 164.7 281.5 167.78C281.5 167.78 283.83 160.74 276.87 157.97" fill="#ACB559"/>
<path d="M272.19 168.44C272.19 168.44 275.94 166.51 274.4 161.49C274.4 161.49 269.57 163.58 271.39 168.56" fill="#ACB559"/>
<path d="M279.21 171.01C279.21 171.01 279.41 166.79 274.29 165.63C274.29 165.63 273.69 170.85 278.92 171.77" fill="#ACB559"/>
<path d="M273.14 169.34C273.14 169.34 277.28 174.8 284.68 171.14C284.68 171.14 279.97 164.02 272.71 168.11" fill="#ACB559"/>
<path d="M273.75 169.09C273.75 169.09 269.26 170.55 270.06 176.37C270.06 176.37 275.76 174.93 274.65 169.11" fill="#ACB559"/>
<path d="M275.19 174C275.19 174 274.01 178.57 279.35 181.02C279.35 181.02 281.19 175.44 275.68 173.25" fill="#ACB559"/>
<path d="M271.97 181.53C271.97 181.53 274.94 180 273.72 176.02C273.72 176.02 269.9 177.67 271.33 181.62" fill="#ACB559"/>
<path d="M277.53 183.57C277.53 183.57 277.69 180.23 273.63 179.3C273.63 179.3 273.16 183.44 277.3 184.16" fill="#ACB559"/>
<path d="M335.71 322.18C335.71 322.18 333.3 334.25 338.93 335.05C338.93 335.05 341.34 354.36 342.95 357.57C344.56 360.79 363.06 361.59 367.08 357.57C367.08 357.57 371.1 343.09 371.1 333.44C371.1 333.44 374.32 334.24 374.32 331.83C374.32 329.42 375.12 321.37 373.52 319.76C371.9 318.16 350.99 311.72 335.71 322.18Z" fill="#BA807B"/>
<path d="M355.82 327C366.037 327 374.32 325.021 374.32 322.58C374.32 320.139 366.037 318.16 355.82 318.16C345.603 318.16 337.32 320.139 337.32 322.58C337.32 325.021 345.603 327 355.82 327Z" fill="#724846"/>
<path d="M346.97 323.79C346.97 323.79 358.23 321.38 361.45 323.79C364.66 326.2 350.99 329.42 346.97 323.79Z" fill="#724846"/>
<path d="M347.99 322.6C347.99 322.6 328.98 313.09 325.81 298.83C325.81 298.83 317.89 316.26 314.72 313.09C311.55 309.92 319.47 284.57 327.4 289.32C335.32 294.07 351.17 309.92 352.75 319.42C354.32 328.94 347.99 322.6 347.99 322.6Z" fill="#6F895D"/>
<path d="M352.74 319.44C352.74 319.44 313.13 287.75 327.39 238.64C327.39 238.64 328.97 267.16 338.48 278.25C347.99 289.33 357.49 308.34 352.74 319.44Z" fill="#526A43"/>
<path d="M354 322.21C354 322.21 330.55 283 338.48 246.56C338.48 246.56 347.99 271.91 352.74 278.25C357.49 284.58 364.78 312.31 354 322.21Z" fill="#526A43"/>
<path d="M357.49 322.6C357.49 322.6 351.15 290.91 362.24 273.48C373.33 256.05 376.5 240.21 376.5 240.21C376.5 240.21 381.26 308.34 357.49 322.6Z" fill="#6F895D"/>
<path d="M367.88 313.1C367.88 313.1 390.77 278.24 392.35 257.64C393.93 237.04 395.52 227.54 395.52 227.54C395.52 227.54 371.75 271.9 368.59 298.84" fill="#526A43"/>
<path d="M361.51 319.44C363.83 317.86 392.35 303.6 401.85 270.32C401.85 270.32 374.92 281.41 362.24 311.51" fill="#6F895D"/>
<path d="M346.42 322.15C346.42 322.15 357.68 319.74 360.9 322.15C364.12 324.57 350.45 327.78 346.42 322.15Z" fill="#724846"/>
<path d="M159.986 186.918L155.832 185.626L98.4769 370.094L102.631 371.385L159.986 186.918Z" fill="#875350"/>
<path d="M223.312 371.387L227.466 370.096L170.111 185.628L165.957 186.92L223.312 371.387Z" fill="#875350"/>
<path d="M191.26 226.54H132.49V230.89H191.26V226.54Z" fill="#875350"/>
<path d="M204.87 270.08H115.08V274.98H204.87V270.08Z" fill="#875350"/>
<path d="M217.39 315.24H101.48V320.14H217.39V315.24Z" fill="#875350"/>
<path d="M192.66 304.52C192.66 304.52 184.11 301.59 185.82 290.47C185.82 290.47 196.69 293.4 194.39 304.52" fill="#ACB559"/>
<path d="M193.48 303.08C193.48 303.08 188.5 293.97 198.15 286.01C198.15 286.01 205.07 296.93 194.92 304.43" fill="#ACB559"/>
<path d="M184.07 302.18H201.63C201.63 302.18 202.8 317.48 192.85 316.56C192.85 316.56 184.07 318.57 184.07 302.18Z" fill="#E2D6C7"/>
<path d="M142.05 214.19C142.05 214.19 136.67 212.35 137.74 205.34C137.74 205.34 144.59 207.18 143.14 214.19" fill="#ACB559"/>
<path d="M143.38 212.04C143.38 212.04 141.36 206.72 147.43 203.07C147.43 203.07 150.39 209.51 144.07 212.87" fill="#ACB559"/>
<path d="M133.19 211.85H150.75C150.75 211.85 151.92 227.15 141.97 226.23C141.97 226.23 133.19 228.24 133.19 211.85Z" fill="#FF5E48"/>
<path d="M139.54 211.87C139.54 211.87 134.57 218.48 125.62 214.1C125.62 214.1 131.26 205.49 140.04 210.38" fill="#ACB559"/>
<path d="M138.8 211.57C138.8 211.57 144.22 213.3 143.29 220.33C143.29 220.33 136.41 218.63 137.71 211.6" fill="#ACB559"/>
<path d="M137.09 217.5C137.09 217.5 138.53 223 132.11 225.98C132.11 225.98 129.86 219.26 136.49 216.59" fill="#ACB559"/>
<path d="M141.01 226.57C141.01 226.57 137.41 224.74 138.87 219.93C138.87 219.93 143.49 221.9 141.78 226.67" fill="#ACB559"/>
<path d="M134.31 229.05C134.31 229.05 134.1 225.02 138.99 223.88C138.99 223.88 139.58 228.87 134.59 229.76" fill="#ACB559"/>
<path d="M116.13 292.54C116.13 292.54 114.57 300.32 118.21 300.84C118.21 300.84 119.77 313.29 120.8 315.37C121.84 317.45 133.77 317.96 136.36 315.37C136.36 315.37 138.95 306.03 138.95 299.81C138.95 299.81 141.03 300.33 141.03 298.77C141.03 297.21 141.55 292.03 140.51 290.99C139.48 289.94 125.99 285.79 116.13 292.54Z" fill="#BA807B"/>
<path d="M141.03 292.8C141.03 294.38 135.69 295.65 129.1 295.65C122.51 295.65 117.17 294.37 117.17 292.8C117.17 291.22 122.51 289.95 129.1 289.95C135.69 289.94 141.03 291.22 141.03 292.8Z" fill="#724846"/>
<path d="M123.39 293.57C123.39 293.57 130.65 292.01 132.73 293.57C134.81 295.13 125.99 297.2 123.39 293.57Z" fill="#724846"/>
<path d="M131.39 293.48C131.39 293.48 136.1 239.28 123.13 230.87C115.62 226 131.39 270.18 129.19 293.48H131.39Z" fill="#5E754B"/>
<path d="M129.77 291.84C129.77 291.84 127.59 263.54 140.11 260.28C152.63 257.02 140.11 272.8 136.85 280.41C133.59 288.03 131.95 293.47 131.95 293.47L128.69 291.84" fill="#5E754B"/>
<path d="M128.68 294.56C128.68 294.56 126.5 268.44 118.88 259.73C111.26 251.02 110.72 245.04 118.88 245.04C127.04 245.04 131.03 275.51 130.67 293.47L128.68 294.56Z" fill="#5E754B"/>
<path d="M126.51 291.84C126.51 291.84 120.52 249.39 134.67 245.04C148.82 240.69 126.51 274.43 128.68 291.84H126.51Z" fill="#6F895D"/>
<path d="M134.13 292.39C134.13 293.29 131.94 294.02 129.23 294.02C126.53 294.02 124.33 293.29 124.33 292.39C124.33 291.49 126.52 290.76 129.23 290.76C131.93 290.75 134.13 291.49 134.13 292.39Z" fill="#724846"/>
<path d="M173.56 221.37C173.56 221.37 182.37 231.59 183.08 242.17C183.78 252.74 184.49 228.42 199.65 216.09" stroke="#6B782B" stroke-width="1.0575" stroke-miterlimit="10"/>
<path d="M195.95 209.91C195.95 209.91 182.91 232.47 184.67 246.22C186.39 259.62 180.44 219.78 180.44 219.78" stroke="#6B782B" stroke-width="1.0575" stroke-miterlimit="10"/>
<path d="M172.74 209.57C172.74 209.57 170.18 204.3 166.12 207.42C162.06 210.53 164.35 218.31 168.05 225.56C169.73 228.85 170.36 230.88 170.55 232.11C170.65 232.78 171.44 233.08 171.95 232.64C175.02 229.99 181.51 223.57 181.9 216.4C182.41 206.98 177.44 204.41 172.74 209.57Z" fill="#6B782B"/>
<path d="M182.25 206.01C182.25 206.01 178.9 200.57 174.84 204.39C170.77 208.21 174.1 216.39 178.89 223.86C181.06 227.25 181.97 229.38 182.31 230.7C182.49 231.41 183.38 231.65 183.89 231.12C186.94 227.91 193.28 220.25 192.93 212.43C192.46 202.16 186.79 199.91 182.25 206.01Z" fill="#A4A538"/>
<path d="M205.72 205.28C205.72 205.28 200.75 202.69 200.67 208.12C200.59 213.56 207.11 218.43 214.04 221.88C217.18 223.44 218.9 224.69 219.84 225.59C220.35 226.08 220.98 225.77 220.96 225.05C220.82 220.69 219.98 210.8 215.32 204.56C209.19 196.35 204.76 197.69 205.72 205.28Z" fill="#6B782B"/>
<path d="M172.18 196.16C172.18 196.16 177.28 192.47 178.26 198.5C179.24 204.53 172.77 211.01 165.63 215.97C162.39 218.22 160.68 219.89 159.78 221.03C159.29 221.65 158.54 221.42 158.45 220.61C157.89 215.74 157.23 204.61 161.4 196.91C166.86 186.79 172.01 187.56 172.18 196.16Z" fill="#A4A538"/>
<path d="M192.95 192.46C192.95 192.46 186.96 187.53 183.79 193.52C180.62 199.51 187.67 207.62 196.13 214.32C199.97 217.36 201.85 219.45 202.75 220.84C203.24 221.59 204.36 221.51 204.73 220.7C206.97 215.81 211.24 204.5 207.76 195.64C203.17 184 195.77 183.65 192.95 192.46Z" fill="#A4A538"/>
<path d="M173.39 242.87H197.36C197.36 242.87 193.84 268.25 191.37 270.01C188.9 271.77 176.92 270.01 176.92 270.01C176.92 270.01 171.63 252.38 173.39 242.87Z" fill="#E2D6C7"/>
<mask id="mask0_1988_9854" style="mask-type:luminance" maskUnits="userSpaceOnUse" x="173" y="242" width="25" height="29">
<path d="M173.39 242.87H197.36C197.36 242.87 193.84 268.25 191.37 270.01C188.9 271.77 176.92 270.01 176.92 270.01C176.92 270.01 171.63 252.38 173.39 242.87Z" fill="white"/>
</mask>
<g mask="url(#mask0_1988_9854)">
<path d="M168.98 252.44C172.05 252.26 174.26 249.49 177.28 249.37C180.47 249.24 182.68 252.51 185.95 252.27C187.49 252.16 188.85 251.39 190.21 250.74C191.96 249.89 193.64 249.57 195.58 249.67C198.79 249.83 202.08 250.7 205.09 249.13C205.69 248.82 205.16 247.9 204.56 248.22C201.47 249.83 197.9 248.56 194.61 248.59C193.06 248.6 191.63 248.93 190.22 249.58C188.6 250.32 186.97 251.42 185.11 251.21C182.22 250.89 180.17 248.13 177.12 248.34C174.12 248.55 171.98 251.23 168.99 251.4C168.31 251.42 168.3 252.48 168.98 252.44Z" fill="#EFB686"/>
</g>
<mask id="mask1_1988_9854" style="mask-type:luminance" maskUnits="userSpaceOnUse" x="173" y="242" width="25" height="29">
<path d="M173.39 242.87H197.36C197.36 242.87 193.84 268.25 191.37 270.01C188.9 271.77 176.92 270.01 176.92 270.01C176.92 270.01 171.63 252.38 173.39 242.87Z" fill="white"/>
</mask>
<g mask="url(#mask1_1988_9854)">
<path d="M171.06 256.78C174.21 254.83 177.63 254.71 181.1 255.79C182.65 256.28 184.21 256.85 185.86 256.9C187.24 256.95 188.54 256.55 189.78 255.98C191.24 255.32 192.6 254.39 194.12 253.87C194.84 253.62 195.29 253.47 196 253.99C196.26 254.18 196.45 254.47 196.7 254.67C197.1 255 197.52 255.21 198.04 255.31C199.4 255.57 200.9 255.05 202.2 254.71C204.03 254.23 205.82 253.63 207.58 252.95C208.21 252.71 207.93 251.68 207.3 251.93C205.54 252.61 203.75 253.21 201.92 253.69C201.01 253.93 200.05 254.24 199.1 254.3C198.01 254.37 197.51 253.91 196.74 253.24C194.67 251.44 191.55 253.96 189.6 254.9C187.88 255.73 186.2 256.04 184.31 255.63C182.6 255.26 181 254.53 179.28 254.2C176.25 253.61 173.15 254.24 170.54 255.86C169.95 256.23 170.48 257.14 171.06 256.78Z" fill="#EFB686"/>
</g>
<mask id="mask2_1988_9854" style="mask-type:luminance" maskUnits="userSpaceOnUse" x="173" y="242" width="25" height="29">
<path d="M173.39 242.87H197.36C197.36 242.87 193.84 268.25 191.37 270.01C188.9 271.77 176.92 270.01 176.92 270.01C176.92 270.01 171.63 252.38 173.39 242.87Z" fill="white"/>
</mask>
<g mask="url(#mask2_1988_9854)">
<path d="M171.62 262.2C174.77 261.33 178 260.14 181.24 259.63C183.21 259.32 184.48 260.09 186.19 260.89C187.18 261.35 188.2 261.53 189.27 261.23C190.44 260.89 191.42 260.13 192.48 259.54C193.86 258.77 195.35 258.55 196.91 258.53C199.61 258.49 202.29 258.84 204.84 257.74C205.46 257.47 204.93 256.56 204.31 256.83C201.53 258.02 198.44 257.25 195.52 257.54C194.39 257.65 193.3 257.93 192.28 258.45C191.07 259.06 189.94 260.13 188.56 260.3C187.07 260.48 185.93 259.42 184.62 258.9C183.45 258.43 182.22 258.42 180.98 258.62C177.74 259.16 174.53 260.32 171.36 261.19C170.69 261.36 170.96 262.38 171.62 262.2Z" fill="#EFB686"/>
</g>
<mask id="mask3_1988_9854" style="mask-type:luminance" maskUnits="userSpaceOnUse" x="173" y="242" width="25" height="29">
<path d="M173.39 242.87H197.36C197.36 242.87 193.84 268.25 191.37 270.01C188.9 271.77 176.92 270.01 176.92 270.01C176.92 270.01 171.63 252.38 173.39 242.87Z" fill="white"/>
</mask>
<g mask="url(#mask3_1988_9854)">
<path d="M170.86 266.56C173.09 265.69 175.4 265.04 177.78 264.68C178.96 264.5 180.19 264.38 181.39 264.52C182.78 264.68 183.72 265.32 184.88 266.03C186.64 267.12 188.38 266.7 190.2 265.94C192.6 264.94 194.91 264.25 197.53 264.18C198.21 264.16 198.21 263.1 197.53 263.12C195.25 263.18 193.02 263.62 190.91 264.49C189.79 264.95 188.65 265.57 187.42 265.65C185.86 265.75 184.94 264.6 183.62 264.01C181.84 263.23 179.83 263.32 177.95 263.58C175.42 263.93 172.96 264.59 170.59 265.52C169.95 265.79 170.23 266.81 170.86 266.56Z" fill="#EFB686"/>
</g>
<mask id="mask4_1988_9854" style="mask-type:luminance" maskUnits="userSpaceOnUse" x="173" y="242" width="25" height="29">
<path d="M173.39 242.87H197.36C197.36 242.87 193.84 268.25 191.37 270.01C188.9 271.77 176.92 270.01 176.92 270.01C176.92 270.01 171.63 252.38 173.39 242.87Z" fill="white"/>
</mask>
<g mask="url(#mask4_1988_9854)">
<path d="M170.2 247.12C175.97 248.25 181.44 245.71 187.16 245.51C192.81 245.31 198.59 247.47 204.08 245.32C204.71 245.08 204.43 244.05 203.8 244.3C198.41 246.4 192.7 244.26 187.16 244.45C181.56 244.64 176.11 247.2 170.48 246.09C169.82 245.97 169.53 246.99 170.2 247.12Z" fill="#EFB686"/>
</g>
<path d="M144.82 394.83C144.82 394.83 149.53 340.63 136.56 332.22C129.05 327.35 144.82 371.53 142.62 394.83H144.82Z" fill="#5E754B"/>
<path d="M144.36 391.6C144.36 391.6 151.6 368.23 162.66 369.59C173.73 370.95 158.69 379.62 153.65 384.69C148.61 389.76 145.58 393.6 145.58 393.6L143.48 391.26" fill="#5E754B"/>
<path d="M143.43 393C143.43 393 134.22 368.46 124.52 362.16C114.82 355.86 112.67 350.25 120.52 348.02C128.37 345.8 140.51 374.03 145.05 391.41L143.43 393Z" fill="#5E754B"/>
<path d="M143.47 391.53C143.47 391.53 144.35 348.67 159.01 346.64C173.67 344.61 146.25 374.34 145.62 391.88L143.47 391.53Z" fill="#6F895D"/>
<path d="M133.62 390.7H157.59C157.59 390.7 154.07 416.08 151.6 417.84C149.13 419.6 137.15 417.84 137.15 417.84C137.15 417.84 131.85 400.22 133.62 390.7Z" fill="#BA807B"/>
<mask id="mask5_1988_9854" style="mask-type:luminance" maskUnits="userSpaceOnUse" x="133" y="390" width="25" height="29">
<path d="M133.62 390.7H157.59C157.59 390.7 154.07 416.08 151.6 417.84C149.13 419.6 137.15 417.84 137.15 417.84C137.15 417.84 131.85 400.22 133.62 390.7Z" fill="white"/>
</mask>
<g mask="url(#mask5_1988_9854)">
<path d="M129.21 400.13C132.28 399.95 134.48 397.17 137.51 397.06C140.7 396.94 142.92 400.21 146.18 399.96C147.69 399.85 149.03 399.09 150.37 398.45C152.14 397.59 153.84 397.26 155.81 397.36C158.99 397.52 162.26 398.39 165.25 396.84C165.69 396.61 165.3 395.94 164.86 396.17C161.73 397.79 158.16 396.53 154.84 396.56C153.31 396.57 151.91 396.89 150.52 397.53C148.87 398.28 147.22 399.39 145.32 399.18C142.44 398.86 140.38 396.1 137.35 396.31C134.36 396.52 132.22 399.2 129.22 399.37C128.72 399.39 128.71 400.16 129.21 400.13Z" fill="#FFD5C9"/>
</g>
<mask id="mask6_1988_9854" style="mask-type:luminance" maskUnits="userSpaceOnUse" x="133" y="390" width="25" height="29">
<path d="M133.62 390.7H157.59C157.59 390.7 154.07 416.08 151.6 417.84C149.13 419.6 137.15 417.84 137.15 417.84C137.15 417.84 131.85 400.22 133.62 390.7Z" fill="white"/>
</mask>
<g mask="url(#mask6_1988_9854)">
<path d="M131.22 404.49C134.4 402.52 137.86 402.39 141.36 403.49C142.9 403.97 144.45 404.54 146.08 404.6C147.43 404.65 148.71 404.26 149.93 403.7C151.4 403.03 152.77 402.1 154.3 401.58C155.07 401.32 155.55 401.17 156.32 401.73C156.58 401.92 156.77 402.21 157.02 402.41C157.41 402.72 157.8 402.92 158.3 403.02C159.63 403.28 161.12 402.76 162.39 402.42C164.22 401.94 166.01 401.34 167.77 400.66C168.23 400.48 168.03 399.73 167.56 399.91C165.8 400.59 164.01 401.19 162.18 401.67C161.26 401.91 160.28 402.23 159.33 402.29C158.2 402.36 157.67 401.88 156.87 401.19C154.88 399.46 151.78 401.97 149.9 402.87C148.14 403.71 146.43 404.03 144.5 403.61C142.79 403.24 141.19 402.51 139.47 402.18C136.48 401.6 133.41 402.23 130.83 403.83C130.41 404.08 130.8 404.75 131.22 404.49Z" fill="#FFD5C9"/>
</g>
<mask id="mask7_1988_9854" style="mask-type:luminance" maskUnits="userSpaceOnUse" x="133" y="390" width="25" height="29">
<path d="M133.62 390.7H157.59C157.59 390.7 154.07 416.08 151.6 417.84C149.13 419.6 137.15 417.84 137.15 417.84C137.15 417.84 131.85 400.22 133.62 390.7Z" fill="white"/>
</mask>
<g mask="url(#mask7_1988_9854)">
<path d="M131.81 409.89C134.97 409.02 138.19 407.83 141.43 407.32C142.47 407.16 143.48 407.17 144.47 407.56C145.18 407.84 145.8 408.27 146.49 408.59C147.45 409.04 148.43 409.21 149.46 408.91C150.62 408.58 151.59 407.82 152.63 407.24C154.03 406.46 155.55 406.23 157.13 406.21C159.8 406.17 162.46 406.52 164.99 405.44C165.45 405.24 165.05 404.58 164.6 404.77C161.78 405.97 158.69 405.21 155.74 405.5C154.63 405.61 153.56 405.88 152.57 406.39C151.34 407.01 150.2 408.08 148.79 408.25C147.26 408.44 146.12 407.37 144.78 406.84C143.64 406.38 142.44 406.37 141.24 406.57C138 407.11 134.79 408.26 131.62 409.14C131.13 409.28 131.33 410.02 131.81 409.89Z" fill="#FFD5C9"/>
</g>
<mask id="mask8_1988_9854" style="mask-type:luminance" maskUnits="userSpaceOnUse" x="133" y="390" width="25" height="29">
<path d="M133.62 390.7H157.59C157.59 390.7 154.07 416.08 151.6 417.84C149.13 419.6 137.15 417.84 137.15 417.84C137.15 417.84 131.85 400.22 133.62 390.7Z" fill="white"/>
</mask>
<g mask="url(#mask8_1988_9854)">
<path d="M131.05 414.26C133.28 413.39 135.59 412.74 137.97 412.38C139.17 412.2 140.4 412.08 141.61 412.22C143.03 412.38 143.99 413.02 145.17 413.75C146.89 414.81 148.57 414.4 150.35 413.66C152.78 412.65 155.11 411.95 157.75 411.88C158.25 411.87 158.25 411.09 157.75 411.11C155.49 411.17 153.29 411.61 151.19 412.47C150.06 412.93 148.91 413.56 147.66 413.64C146.05 413.75 145.13 412.58 143.77 411.99C142.03 411.23 140.05 411.32 138.21 411.58C135.68 411.93 133.22 412.59 130.85 413.52C130.39 413.69 130.59 414.44 131.05 414.26Z" fill="#FFD5C9"/>
</g>
<mask id="mask9_1988_9854" style="mask-type:luminance" maskUnits="userSpaceOnUse" x="133" y="390" width="25" height="29">
<path d="M133.62 390.7H157.59C157.59 390.7 154.07 416.08 151.6 417.84C149.13 419.6 137.15 417.84 137.15 417.84C137.15 417.84 131.85 400.22 133.62 390.7Z" fill="white"/>
</mask>
<g mask="url(#mask9_1988_9854)">
<path d="M130.46 394.81C136.21 395.94 141.68 393.4 147.38 393.2C153.02 393 158.79 395.15 164.27 393.02C164.73 392.84 164.53 392.09 164.06 392.27C158.66 394.38 152.94 392.23 147.38 392.42C141.77 392.61 136.31 395.17 130.66 394.06C130.18 393.97 129.98 394.72 130.46 394.81Z" fill="#FFD5C9"/>
</g>
<path d="M147.11 258.86C147.11 258.86 146.64 263 147.73 263C147.73 263 150.36 268.99 151.29 270C152.22 271.01 162.89 271.27 165.21 270C165.21 270 168.41 265.49 168.41 262.45C168.41 262.45 169.38 262.65 169.38 261.89C169.38 261.13 169.84 258.6 168.92 258.09C167.99 257.59 155.93 255.56 147.11 258.86Z" fill="#BA807B"/>
<path d="M158.71 260.37C164.603 260.37 169.38 259.748 169.38 258.98C169.38 258.212 164.603 257.59 158.71 257.59C152.817 257.59 148.04 258.212 148.04 258.98C148.04 259.748 152.817 260.37 158.71 260.37Z" fill="#724846"/>
<path d="M153.61 259.36C153.61 259.36 160.1 258.6 161.96 259.36C163.81 260.12 155.93 261.14 153.61 259.36Z" fill="#724846"/>
<path d="M151.09 258.53C151.09 258.53 147.33 247.44 156.74 246.27C166.15 245.1 170.54 251.52 166.15 258.53C166.15 258.53 157.37 262.61 151.09 258.53Z" fill="#5A9B82"/>
<path d="M152.14 254.51C152.12 254.5 152.11 254.5 152.07 254.48C152.04 254.46 152.01 254.45 151.97 254.43C151.91 254.4 151.84 254.36 151.78 254.33C151.72 254.29 151.66 254.26 151.61 254.22C151.54 254.17 151.52 254.15 151.46 254.11C151.35 254.02 151.25 253.92 151.16 253.82C151.06 253.71 151 253.63 150.91 253.51C150.85 253.42 150.73 253.38 150.63 253.44C150.54 253.49 150.5 253.63 150.56 253.72C150.92 254.26 151.43 254.67 152.02 254.92C152.12 254.96 152.25 254.88 152.27 254.78C152.3 254.64 152.24 254.55 152.14 254.51Z" fill="#95C6B2"/>
<path d="M150.61 250.4C151.44 250.88 152.33 251.24 153.25 251.49C153.5 251.56 153.61 251.16 153.36 251.1C152.47 250.86 151.62 250.51 150.81 250.05C150.59 249.92 150.38 250.27 150.61 250.4Z" fill="#95C6B2"/>
<path d="M156.09 248.8C155.85 248.15 155.53 247.54 155.1 246.99C155.03 246.9 154.92 246.86 154.82 246.92C154.73 246.97 154.68 247.11 154.75 247.2C155.15 247.72 155.47 248.29 155.7 248.91C155.74 249.01 155.84 249.08 155.95 249.05C156.04 249.02 156.12 248.9 156.09 248.8Z" fill="#95C6B2"/>
<path d="M159.74 249.91C160.14 249.27 160.43 248.56 160.59 247.82C160.64 247.56 160.25 247.45 160.2 247.71C160.05 248.42 159.78 249.09 159.39 249.7C159.24 249.92 159.6 250.13 159.74 249.91Z" fill="#95C6B2"/>
<path d="M163.08 251.22C163.72 250.86 164.35 250.5 164.98 250.13C165.21 250 165 249.65 164.77 249.78C164.13 250.14 163.5 250.5 162.87 250.87C162.65 251 162.85 251.35 163.08 251.22Z" fill="#95C6B2"/>
<path d="M157.96 253.56C157.18 253.91 156.41 254.27 155.63 254.62C155.53 254.67 155.51 254.81 155.56 254.9C155.62 255 155.74 255.02 155.84 254.97C156.62 254.62 157.39 254.26 158.17 253.91C158.27 253.86 158.29 253.72 158.24 253.63C158.18 253.53 158.06 253.52 157.96 253.56Z" fill="#95C6B2"/>
<path d="M157.66 251.08C157.02 251.53 156.32 251.87 155.58 252.1C155.33 252.18 155.44 252.57 155.69 252.49C156.47 252.25 157.2 251.89 157.87 251.42C157.96 251.36 158 251.24 157.94 251.14C157.89 251.07 157.75 251.02 157.66 251.08Z" fill="#95C6B2"/>
<path d="M162.59 254.33C163.32 254.81 164.11 255.19 164.94 255.46C165.19 255.54 165.3 255.15 165.05 255.07C164.25 254.81 163.49 254.44 162.79 253.98C162.58 253.84 162.37 254.19 162.59 254.33Z" fill="#95C6B2"/>
<path d="M165.93 252.03C166.38 251.8 166.84 251.58 167.29 251.35C167.39 251.3 167.42 251.16 167.36 251.07C167.3 250.97 167.18 250.95 167.08 251C166.63 251.23 166.17 251.45 165.72 251.68C165.62 251.73 165.59 251.87 165.65 251.96C165.71 252.06 165.83 252.08 165.93 252.03Z" fill="#95C6B2"/>
<path d="M163.71 247.96C164 247.26 164.39 246.59 164.88 246.01C164.95 245.92 164.96 245.8 164.88 245.72C164.81 245.65 164.66 245.63 164.59 245.72C164.06 246.37 163.63 247.08 163.32 247.86C163.28 247.96 163.37 248.08 163.46 248.11C163.58 248.13 163.67 248.06 163.71 247.96Z" fill="#95C6B2"/>
<path d="M159.69 256.75C159.92 257.02 160.14 257.29 160.37 257.57C160.44 257.65 160.59 257.65 160.66 257.57C160.74 257.48 160.73 257.37 160.66 257.28C160.43 257.01 160.21 256.74 159.98 256.46C159.91 256.38 159.76 256.38 159.69 256.46C159.61 256.55 159.62 256.67 159.69 256.75Z" fill="#95C6B2"/>
<path d="M153.39 256.55C152.93 256.64 152.49 256.83 152.11 257.1C152.02 257.16 151.97 257.28 152.04 257.38C152.1 257.47 152.23 257.52 152.32 257.45C152.5 257.32 152.69 257.21 152.9 257.12C152.96 257.09 153.08 257.05 153.17 257.02C153.28 256.99 153.39 256.96 153.5 256.93C153.6 256.91 153.67 256.78 153.64 256.68C153.61 256.58 153.5 256.53 153.39 256.55Z" fill="#95C6B2"/>
<path d="M156.53 258.16C156.58 258.48 156.62 258.79 156.67 259.11C156.69 259.22 156.83 259.28 156.92 259.25C157.04 259.21 157.08 259.11 157.06 259C157.01 258.68 156.97 258.37 156.92 258.05C156.9 257.94 156.76 257.88 156.67 257.91C156.56 257.94 156.51 258.04 156.53 258.16Z" fill="#95C6B2"/>
<path d="M163.59 257.89C163.73 257.94 163.86 257.98 164 258.03C164.05 258.05 164.11 258.03 164.16 258.01C164.2 257.99 164.24 257.94 164.25 257.89C164.26 257.84 164.26 257.78 164.23 257.73C164.2 257.68 164.16 257.65 164.11 257.64C163.97 257.59 163.84 257.55 163.7 257.5C163.65 257.48 163.59 257.5 163.54 257.52C163.5 257.54 163.46 257.59 163.45 257.64C163.44 257.69 163.44 257.75 163.47 257.8C163.5 257.85 163.54 257.88 163.59 257.89Z" fill="#95C6B2"/>
<path d="M167.39 254.29C167.46 254.3 167.5 254.3 167.57 254.29C167.61 254.28 167.65 254.26 167.69 254.24C167.74 254.21 167.79 254.18 167.84 254.16C167.82 254.16 167.8 254.16 167.79 254.17C167.8 254.17 167.8 254.17 167.81 254.17C167.79 254.17 167.77 254.17 167.76 254.16C167.77 254.16 167.78 254.16 167.78 254.17C167.76 254.16 167.75 254.16 167.73 254.15C167.74 254.15 167.75 254.16 167.75 254.16C167.74 254.15 167.72 254.14 167.71 254.13C167.72 254.14 167.73 254.15 167.74 254.16C167.73 254.15 167.72 254.13 167.71 254.12C167.72 254.13 167.73 254.14 167.73 254.16C167.72 254.14 167.72 254.13 167.71 254.11C167.72 254.12 167.72 254.14 167.72 254.15C167.72 254.13 167.72 254.11 167.71 254.1C167.71 254.11 167.71 254.12 167.71 254.12C167.71 254.1 167.71 254.08 167.72 254.07C167.72 254.08 167.72 254.08 167.72 254.08C167.73 254.06 167.73 254.05 167.74 254.03V254.04C167.75 254.03 167.76 254.01 167.77 254C167.77 254 167.77 254 167.76 254.01C167.77 254 167.79 253.99 167.8 253.98C167.8 253.98 167.8 253.98 167.79 253.98C167.81 253.97 167.82 253.97 167.84 253.96H167.83C167.85 253.96 167.87 253.96 167.88 253.95C167.87 253.95 167.87 253.95 167.86 253.95C167.88 253.95 167.9 253.95 167.91 253.96H167.9C167.85 253.95 167.79 253.95 167.74 253.98C167.7 254 167.66 254.05 167.65 254.1C167.64 254.15 167.64 254.21 167.67 254.26C167.7 254.3 167.74 254.34 167.79 254.35C167.84 254.36 167.89 254.37 167.94 254.35C168.02 254.32 168.07 254.27 168.1 254.19C168.13 254.11 168.1 254.03 168.07 253.95C168.06 253.92 168.03 253.89 168.01 253.87C168 253.86 168 253.86 167.99 253.85C167.97 253.83 167.95 253.82 167.93 253.8C167.88 253.78 167.84 253.76 167.78 253.76C167.72 253.76 167.67 253.78 167.61 253.8C167.55 253.83 167.49 253.87 167.43 253.9C167.45 253.89 167.46 253.89 167.48 253.88C167.46 253.89 167.44 253.89 167.42 253.9C167.44 253.9 167.46 253.9 167.47 253.89C167.45 253.89 167.44 253.89 167.42 253.89C167.44 253.89 167.46 253.89 167.47 253.9C167.47 253.9 167.47 253.9 167.46 253.9C167.43 253.89 167.41 253.89 167.38 253.9C167.35 253.9 167.33 253.91 167.3 253.92C167.26 253.94 167.22 253.99 167.21 254.04C167.2 254.09 167.2 254.15 167.23 254.2C167.3 254.24 167.34 254.29 167.39 254.29Z" fill="#95C6B2"/>
<path d="M161.11 252.56C160.93 252.15 160.75 251.74 160.57 251.34C160.53 251.24 160.38 251.21 160.29 251.27C160.19 251.34 160.17 251.44 160.22 251.55C160.4 251.96 160.58 252.37 160.76 252.77C160.8 252.87 160.95 252.9 161.04 252.84C161.14 252.77 161.16 252.66 161.11 252.56Z" fill="#95C6B2"/>
<path d="M159.48 246.35C159.36 245.8 159.25 245.25 159.13 244.7C159.11 244.59 158.98 244.53 158.88 244.56C158.77 244.59 158.71 244.7 158.74 244.81C158.86 245.36 158.97 245.91 159.09 246.46C159.11 246.57 159.24 246.63 159.34 246.6C159.45 246.57 159.5 246.46 159.48 246.35Z" fill="#95C6B2"/>
<path d="M151.48 298.91C151.48 298.91 150.95 305.01 152.17 305.01C152.17 305.01 155.12 313.83 156.16 315.32C157.2 316.81 169.16 317.18 171.76 315.32C171.76 315.32 175.35 308.69 175.35 304.21C175.35 304.21 176.44 304.51 176.44 303.39C176.44 302.27 176.96 298.54 175.92 297.8C174.88 297.04 161.36 294.06 151.48 298.91Z" fill="#FF5E48"/>
<path d="M176.44 299.09C176.44 300.22 171.09 301.14 164.48 301.14C157.87 301.14 152.52 300.22 152.52 299.09C152.52 297.96 157.87 297.04 164.48 297.04C171.09 297.04 176.44 297.96 176.44 299.09Z" fill="#724846"/>
<path d="M158.76 299.65C158.76 299.65 166.04 298.53 168.12 299.65C170.2 300.77 161.36 302.26 158.76 299.65Z" fill="#724846"/>
<path d="M154.54 298.5C154.54 298.5 149.84 282.32 161.59 280.61C173.34 278.91 178.83 288.28 173.34 298.5C173.35 298.5 162.38 304.47 154.54 298.5Z" fill="#5A9B82"/>
<path d="M156.49 297.63C155.81 297.48 155.14 297.33 154.46 297.18C154.2 297.12 154.09 297.52 154.35 297.57C155.03 297.72 155.7 297.87 156.38 298.02C156.64 298.08 156.75 297.69 156.49 297.63Z" fill="#95C6B2"/>
<path d="M156.67 291.81C155.88 291.25 154.95 290.91 153.99 290.81C153.88 290.8 153.79 290.91 153.79 291.01C153.79 291.13 153.88 291.2 153.99 291.21C154.88 291.31 155.73 291.64 156.47 292.16C156.68 292.31 156.89 291.96 156.67 291.81Z" fill="#95C6B2"/>
<path d="M157.91 284.43C157.77 283.42 157.19 282.51 156.37 281.91C156.28 281.85 156.14 281.89 156.09 281.98C156.03 282.08 156.07 282.19 156.16 282.26C156.9 282.8 157.38 283.64 157.51 284.54C157.53 284.65 157.66 284.71 157.76 284.68C157.89 284.65 157.93 284.54 157.91 284.43Z" fill="#95C6B2"/>
<path d="M164.97 284.12C165.42 283.85 165.87 283.57 166.33 283.3C166.42 283.24 166.46 283.12 166.4 283.02C166.34 282.93 166.22 282.89 166.12 282.95C165.67 283.22 165.22 283.5 164.76 283.77C164.67 283.83 164.63 283.95 164.69 284.05C164.74 284.14 164.87 284.17 164.97 284.12Z" fill="#95C6B2"/>
<path d="M162.41 290.77C162.98 291.47 163.47 292.23 163.87 293.04C163.99 293.28 164.34 293.07 164.22 292.83C163.8 291.99 163.29 291.2 162.69 290.48C162.62 290.39 162.47 290.41 162.4 290.48C162.32 290.57 162.34 290.68 162.41 290.77Z" fill="#95C6B2"/>
<path d="M160.73 287.55C160.19 287.64 159.61 287.56 159.12 287.32C159.02 287.27 158.9 287.29 158.84 287.39C158.79 287.48 158.81 287.62 158.91 287.67C159.51 287.96 160.18 288.06 160.84 287.94C160.95 287.92 161.01 287.79 160.98 287.69C160.95 287.58 160.84 287.53 160.73 287.55Z" fill="#95C6B2"/>
<path d="M155.33 287.29C154.73 286.99 154.14 286.68 153.54 286.38C153.31 286.26 153.1 286.61 153.33 286.73C153.93 287.03 154.52 287.34 155.12 287.64C155.35 287.76 155.56 287.41 155.33 287.29Z" fill="#95C6B2"/>
<path d="M162.78 282.87C162.88 282.05 162.97 281.24 163.07 280.42C163.08 280.31 162.97 280.22 162.87 280.22C162.75 280.22 162.68 280.31 162.67 280.42C162.57 281.24 162.48 282.05 162.38 282.87C162.37 282.98 162.48 283.07 162.58 283.07C162.7 283.07 162.77 282.98 162.78 282.87Z" fill="#95C6B2"/>
<path d="M171.13 288.77C172.11 288.86 173.1 288.77 174.05 288.52C174.3 288.45 174.2 288.06 173.94 288.13C173.02 288.37 172.08 288.45 171.13 288.36C170.87 288.34 170.87 288.75 171.13 288.77Z" fill="#95C6B2"/>
<path d="M169.85 292.57C170.59 292.86 171.3 293.22 171.97 293.65C172.19 293.79 172.4 293.44 172.18 293.3C171.48 292.85 170.74 292.48 169.96 292.18C169.86 292.14 169.74 292.22 169.71 292.32C169.68 292.44 169.75 292.53 169.85 292.57Z" fill="#95C6B2"/>
<path d="M169.06 286.59C169.79 286.14 170.45 285.57 170.99 284.91C171.06 284.82 171.07 284.71 170.99 284.62C170.92 284.55 170.77 284.53 170.7 284.62C170.18 285.26 169.56 285.81 168.85 286.24C168.63 286.37 168.84 286.73 169.06 286.59Z" fill="#95C6B2"/>
<path d="M165.92 288.87C166.36 288.6 166.7 288.18 166.87 287.69C166.9 287.59 166.83 287.46 166.73 287.44C166.62 287.41 166.52 287.47 166.48 287.58C166.47 287.61 166.46 287.63 166.45 287.66C166.45 287.66 166.43 287.71 166.44 287.68C166.45 287.65 166.43 287.7 166.43 287.7C166.41 287.75 166.38 287.8 166.36 287.85C166.33 287.9 166.3 287.95 166.27 287.99C166.25 288.01 166.24 288.04 166.22 288.06C166.21 288.07 166.2 288.09 166.19 288.1C166.2 288.09 166.21 288.08 166.19 288.1C166.12 288.19 166.04 288.27 165.96 288.34C165.94 288.36 165.92 288.38 165.9 288.39C165.89 288.4 165.88 288.41 165.87 288.42C165.88 288.41 165.89 288.4 165.87 288.42C165.82 288.45 165.77 288.49 165.73 288.52C165.64 288.58 165.6 288.71 165.66 288.8C165.7 288.89 165.82 288.93 165.92 288.87Z" fill="#95C6B2"/>
<path d="M169.64 282.73C170.24 282.21 170.76 281.6 171.17 280.92C171.31 280.7 170.96 280.49 170.82 280.71C170.42 281.36 169.93 281.94 169.35 282.43C169.27 282.5 169.28 282.64 169.35 282.72C169.43 282.82 169.55 282.81 169.64 282.73Z" fill="#95C6B2"/>
<path d="M166.65 281.79C167.01 281.38 167.37 280.97 167.73 280.55C167.8 280.47 167.82 280.34 167.73 280.26C167.65 280.19 167.52 280.17 167.44 280.26C167.08 280.67 166.72 281.08 166.36 281.5C166.29 281.58 166.27 281.71 166.36 281.79C166.44 281.86 166.58 281.87 166.65 281.79Z" fill="#95C6B2"/>
<path d="M172.85 286.17C173.35 286.26 173.85 286.36 174.34 286.45C174.45 286.47 174.56 286.42 174.59 286.31C174.62 286.21 174.56 286.08 174.45 286.06C173.95 285.97 173.45 285.87 172.96 285.78C172.85 285.76 172.74 285.81 172.71 285.92C172.68 286.02 172.74 286.15 172.85 286.17Z" fill="#95C6B2"/>
<path d="M173.47 293.79C174.15 294.1 174.83 294.42 175.52 294.73C175.62 294.78 175.74 294.76 175.8 294.66C175.85 294.57 175.83 294.43 175.73 294.38C175.05 294.07 174.37 293.75 173.68 293.44C173.58 293.39 173.46 293.41 173.4 293.51C173.35 293.6 173.37 293.74 173.47 293.79Z" fill="#95C6B2"/>
<path d="M165.99 297.46C166.5 297.77 167 298.07 167.51 298.38C167.74 298.52 167.94 298.16 167.72 298.03C167.21 297.72 166.71 297.42 166.2 297.11C165.97 296.97 165.77 297.33 165.99 297.46Z" fill="#95C6B2"/>
<path d="M160.32 295.46C160.16 295.97 159.9 296.45 159.55 296.86C159.48 296.94 159.47 297.07 159.55 297.15C159.62 297.22 159.77 297.23 159.84 297.15C160.24 296.69 160.53 296.15 160.71 295.57C160.74 295.46 160.67 295.35 160.57 295.32C160.46 295.29 160.35 295.35 160.32 295.46Z" fill="#95C6B2"/>
<path d="M160.84 291.92C160.73 292.38 160.62 292.84 160.5 293.3C160.47 293.41 160.53 293.52 160.64 293.55C160.74 293.58 160.86 293.51 160.89 293.41C161 292.95 161.11 292.49 161.23 292.03C161.26 291.92 161.2 291.81 161.09 291.78C160.99 291.75 160.86 291.81 160.84 291.92Z" fill="#95C6B2"/>
<path d="M167.08 292.84C167.49 293.15 167.91 293.46 168.32 293.77C168.41 293.83 168.55 293.79 168.6 293.7C168.66 293.59 168.62 293.49 168.53 293.42C168.12 293.11 167.7 292.8 167.29 292.49C167.2 292.43 167.06 292.47 167.01 292.56C166.95 292.66 166.99 292.77 167.08 292.84Z" fill="#95C6B2"/>
<path d="M163.17 297.15C163.18 297.23 163.18 297.31 163.17 297.39C163.17 297.4 163.16 297.47 163.17 297.42C163.17 297.44 163.16 297.46 163.16 297.48C163.15 297.52 163.14 297.55 163.13 297.59C163.12 297.63 163.11 297.66 163.1 297.7C163.09 297.72 163.09 297.74 163.08 297.76C163.1 297.71 163.07 297.78 163.07 297.79C163.04 297.86 162.99 297.93 162.95 298C162.89 298.09 162.93 298.23 163.02 298.28C163.12 298.33 163.23 298.3 163.3 298.21C163.51 297.9 163.62 297.52 163.59 297.15C163.58 297.04 163.5 296.94 163.39 296.95C163.27 296.95 163.16 297.03 163.17 297.15Z" fill="#95C6B2"/>
<path d="M162.55 285.18C162.87 285.5 163.18 285.81 163.5 286.13C163.58 286.21 163.71 286.21 163.79 286.13C163.86 286.05 163.87 285.92 163.79 285.84C163.47 285.52 163.16 285.21 162.84 284.89C162.76 284.81 162.63 284.81 162.55 284.89C162.48 284.98 162.47 285.1 162.55 285.18Z" fill="#95C6B2"/>
<path d="M170.27 296.75C171.03 296.94 171.74 297.28 172.37 297.75C172.46 297.82 172.6 297.76 172.65 297.68C172.71 297.58 172.67 297.47 172.58 297.4C171.92 296.91 171.17 296.56 170.38 296.36C170.12 296.3 170.01 296.69 170.27 296.75Z" fill="#95C6B2"/>
<path d="M235.09 111.88L239.22 111.86C239.22 111.86 238.22 120.13 239.26 121.67C240.3 123.22 243.4 123.2 242.91 129.4C242.42 135.6 241.96 148 241.96 148C241.96 148 236.8 149.06 235.25 148.03C235.25 148.03 233.11 129.96 233.1 128.93C233.1 127.9 232.56 123.25 235.65 121.17L235.09 111.88Z" fill="#D9D9D9"/>
<path d="M262.52 343.48C262.52 343.48 247.97 358.96 243.36 361.47C238.75 363.98 236.45 365.23 236.45 365.23L240.47 369.25C240.47 369.25 276.69 356.45 279.45 350.13C282.22 343.8 264.96 340.78 262.52 343.48Z" fill="#C4765C"/>
<path d="M292.24 293.86C287.09 297.43 277.6 306.81 278.57 312.25C280.02 320.42 265.54 327.14 264.03 335.77C262.52 344.4 252.44 342.76 252.51 350.07C252.51 350.07 256.47 362.84 263.19 361.26C263.19 361.26 271.42 363.1 275.57 357.63C279.72 352.16 291.1 339.31 293.73 334.44C295.59 330.99 302.06 329.06 306.43 328.55C307.03 305.54 300.99 295.68 292.24 293.86Z" fill="#D390AB"/>
<path d="M239.75 361.14C239.75 361.14 247.46 364.76 246.27 369.76L238.7 372.73C238.7 372.73 229.29 379.91 227.05 380.44C224.81 380.97 218.09 374.52 219.08 371.69C219.08 371.69 224.74 373.66 227.11 371.69C229.48 369.71 229.81 366.09 229.81 366.09C229.81 366.09 233.43 366.42 234.09 367.21C234.74 367.99 239.75 361.14 239.75 361.14Z" fill="#FFB845"/>
<path d="M215.17 369.26C215.17 369.26 213.61 377.04 217.25 377.56C217.25 377.56 218.81 390.01 219.84 392.09C220.88 394.17 232.81 394.68 235.4 392.09C235.4 392.09 237.99 382.75 237.99 376.53C237.99 376.53 240.07 377.05 240.07 375.49C240.07 373.93 240.59 368.75 239.55 367.71C238.51 366.67 225.03 362.52 215.17 369.26Z" fill="#BA807B"/>
<path d="M228.14 372.37C234.729 372.37 240.07 371.094 240.07 369.52C240.07 367.946 234.729 366.67 228.14 366.67C221.551 366.67 216.21 367.946 216.21 369.52C216.21 371.094 221.551 372.37 228.14 372.37Z" fill="#724846"/>
<path d="M225.55 371.34C225.55 371.34 219.32 368.23 218.29 363.56C218.29 363.56 215.7 369.27 214.66 368.23C213.62 367.19 216.22 358.89 218.81 360.45C221.4 362.01 226.59 367.19 227.11 370.31C227.62 373.41 225.55 371.34 225.55 371.34Z" fill="#6F895D"/>
<path d="M227.1 370.3C227.1 370.3 214.13 359.92 218.8 343.84C218.8 343.84 219.32 353.18 222.43 356.81C225.55 360.44 228.66 366.67 227.1 370.3Z" fill="#526A43"/>
<path d="M227.52 371.21C227.52 371.21 219.84 358.37 222.44 346.44C222.44 346.44 225.55 354.74 227.11 356.82C228.66 358.89 231.04 367.97 227.52 371.21Z" fill="#526A43"/>
<path d="M228.66 371.34C228.66 371.34 226.58 360.96 230.22 355.26C233.86 349.56 234.89 344.37 234.89 344.37C234.89 344.37 236.44 366.67 228.66 371.34Z" fill="#6F895D"/>
<path d="M232.06 368.23C232.06 368.23 239.55 356.82 240.07 350.07C240.59 343.33 241.11 340.21 241.11 340.21C241.11 340.21 233.33 354.74 232.29 363.56" fill="#526A43"/>
<path d="M229.97 370.3C230.73 369.78 240.07 365.11 243.18 354.22C243.18 354.22 234.36 357.85 230.21 367.71" fill="#6F895D"/>
<path d="M222.43 370.3C222.43 370.3 229.69 368.74 231.77 370.3C233.85 371.86 225.03 373.93 222.43 370.3Z" fill="#724846"/>
<path d="M273.14 253.33C273.14 253.33 266.49 253.84 268.07 259.79C269.65 265.73 265.69 269.69 268.86 271.67C272.03 273.65 266.09 277.61 270.44 280.78C274.8 283.95 266.87 286.33 271.63 288.31C276.38 290.29 288.67 282.37 288.27 276.42C287.87 270.48 273.62 252.26 273.62 252.26" fill="#422928"/>
<path d="M303.51 279.2C303.51 279.2 307.83 284.9 311.93 285.82C316.03 286.74 319.28 290.98 315.59 296.15C311.91 301.31 301.88 307.68 298.93 299.7C295.98 291.72 292.8 286.71 290.52 285.34C290.52 285.34 284.32 290.3 279.96 284.76C275.34 278.88 268.91 264.59 273.01 257.76C277.12 250.93 289.66 242.98 299.66 259.84C299.66 259.84 302.16 265.99 301.24 270.09C300.33 274.18 303.51 279.2 303.51 279.2Z" fill="#C4765C"/>
<mask id="mask10_1988_9854" style="mask-type:luminance" maskUnits="userSpaceOnUse" x="271" y="249" width="47" height="55">
<path d="M303.51 279.2C303.51 279.2 307.83 284.9 311.93 285.82C316.03 286.74 319.28 290.98 315.59 296.15C311.91 301.31 301.88 307.68 298.93 299.7C295.98 291.72 292.8 286.71 290.52 285.34C290.52 285.34 284.32 290.3 279.96 284.76C275.34 278.88 268.91 264.59 273.01 257.76C277.12 250.93 289.66 242.98 299.66 259.84C299.66 259.84 302.16 265.99 301.24 270.09C300.33 274.18 303.51 279.2 303.51 279.2Z" fill="white"/>
</mask>
<g mask="url(#mask10_1988_9854)">
<path opacity="0.19" d="M288.29 286.62C288.29 286.62 291.85 285.93 292.24 280.39C292.24 280.39 294.22 286.33 289.86 288.71" fill="#C4765C"/>
</g>
<mask id="mask11_1988_9854" style="mask-type:luminance" maskUnits="userSpaceOnUse" x="271" y="249" width="47" height="55">
<path d="M303.51 279.2C303.51 279.2 307.83 284.9 311.93 285.82C316.03 286.74 319.28 290.98 315.59 296.15C311.91 301.31 301.88 307.68 298.93 299.7C295.98 291.72 292.8 286.71 290.52 285.34C290.52 285.34 284.32 290.3 279.96 284.76C275.34 278.88 268.91 264.59 273.01 257.76C277.12 250.93 289.66 242.98 299.66 259.84C299.66 259.84 302.16 265.99 301.24 270.09C300.33 274.18 303.51 279.2 303.51 279.2Z" fill="white"/>
</mask>
<g mask="url(#mask11_1988_9854)">
<path opacity="0.32" d="M276 258.6C275.68 258.83 284.34 260.13 282.55 265.7C280.76 271.27 290.66 268.1 290.27 270.48C289.87 272.86 294.63 274.05 293.84 276.42C293.05 278.8 295.03 286.32 305.72 279.59C316.41 272.86 281.94 254.24 276 258.6Z" fill="#C4765C"/>
</g>
<path d="M292.35 269.79C292.11 271.62 292.82 273.22 293.95 273.37C295.08 273.52 296.18 272.16 296.43 270.33C296.67 268.5 295.96 266.9 294.83 266.75C293.7 266.6 292.6 267.96 292.35 269.79Z" fill="#C4765C"/>
<path d="M267.64 353.87C267.64 353.87 254.55 370.6 250.18 373.51C245.82 376.42 243.63 377.87 243.63 377.87L247.99 381.51C247.99 381.51 282.91 365.51 285.09 358.96C287.28 352.41 269.82 350.96 267.64 353.87Z" fill="#C4765C"/>
<path d="M348.46 361.33C348.46 361.33 356.46 359.88 356.46 354.78C356.46 349.69 343.37 286.4 312.81 282.04C312.81 282.04 296.08 280.59 290.99 294.41C285.9 308.23 278.62 313.32 280.81 321.32C282.99 329.32 269.17 337.32 268.44 346.05C267.71 354.78 257.53 354.05 258.26 361.33C258.26 361.33 263.35 373.7 269.9 371.51C269.9 371.51 278.27 372.6 281.9 366.78C285.54 360.96 295.72 347.14 297.9 342.05C300.08 336.96 311.72 334.05 313.9 334.78C316.09 335.51 348.46 361.33 348.46 361.33Z" fill="#E8A7C0"/>
<path d="M338.28 404.25C338.28 404.25 350.65 404.25 354.28 402.8C357.92 401.35 371.74 403.53 374.65 404.25C377.56 404.98 374.65 399.89 371.01 400.61C371.01 400.61 358.64 392.61 355.01 394.06C351.37 395.51 349.92 396.97 349.92 396.97L332.46 396.24L338.28 404.25Z" fill="#C4765C"/>
<mask id="mask12_1988_9854" style="mask-type:luminance" maskUnits="userSpaceOnUse" x="332" y="393" width="44" height="12">
<path d="M338.28 404.25C338.28 404.25 350.65 404.25 354.28 402.8C357.92 401.35 371.74 403.53 374.65 404.25C377.56 404.98 374.65 399.89 371.01 400.61C371.01 400.61 358.64 392.61 355.01 394.06C351.37 395.51 349.92 396.97 349.92 396.97L332.46 396.24L338.28 404.25Z" fill="white"/>
</mask>
<g mask="url(#mask12_1988_9854)">
<path opacity="0.2" d="M343.74 393.69C344.13 393.63 348.76 399.49 346.25 404.32C343.74 409.14 338.99 402.81 338.99 402.81C338.99 402.81 340.97 394.09 343.74 393.69Z" fill="#C4765C"/>
</g>
<path d="M310.63 366.42C309.9 367.15 242.25 380.97 256.8 402.79C271.35 424.61 342.64 405.7 342.64 405.7C342.64 405.7 344.82 394.06 340.46 388.24L310.63 366.42Z" fill="#628BA0"/>
<mask id="mask13_1988_9854" style="mask-type:luminance" maskUnits="userSpaceOnUse" x="254" y="366" width="90" height="48">
<path d="M310.63 366.42C309.9 367.15 242.25 380.97 256.8 402.79C271.35 424.61 342.64 405.7 342.64 405.7C342.64 405.7 344.82 394.06 340.46 388.24L310.63 366.42Z" fill="white"/>
</mask>
<g mask="url(#mask13_1988_9854)">
<path opacity="0.17" d="M329.55 388.97C329.55 388.97 300.45 388.97 277.9 394.06C277.9 394.06 299 382.42 319.36 383.15C339.73 383.88 329.55 388.97 329.55 388.97Z" fill="#628BA0"/>
</g>
<path d="M312.09 394.06C312.09 394.06 318.64 412.25 317.91 414.43C317.18 416.61 305.54 420.98 302.63 421.7C299.72 422.43 301.18 426.06 304.08 425.34C306.99 424.61 312.08 423.89 317.9 423.89C323.72 423.89 330.99 423.16 329.54 418.8C328.09 414.44 322.99 401.34 325.18 392.61C327.36 383.88 312.09 394.06 312.09 394.06Z" fill="#C4765C"/>
<mask id="mask14_1988_9854" style="mask-type:luminance" maskUnits="userSpaceOnUse" x="301" y="389" width="29" height="37">
<path d="M312.09 394.06C312.09 394.06 318.64 412.25 317.91 414.43C317.18 416.61 305.54 420.98 302.63 421.7C299.72 422.43 301.18 426.06 304.08 425.34C306.99 424.61 312.08 423.89 317.9 423.89C323.72 423.89 330.99 423.16 329.54 418.8C328.09 414.44 322.99 401.34 325.18 392.61C327.36 383.88 312.09 394.06 312.09 394.06Z" fill="white"/>
</mask>
<g mask="url(#mask14_1988_9854)">
<path opacity="0.36" d="M311.66 405.58C311.64 405.98 327.51 407.96 328.3 402.01C329.09 396.07 312.05 396.07 311.66 405.58Z" fill="#C4765C"/>
</g>
<path d="M347.73 358.42C347.73 358.42 335.36 303.86 313.54 306.77C291.72 309.68 305.54 386.79 309.18 402.79C309.18 402.79 325.18 404.24 329.55 399.15L328.1 389.69C328.1 389.69 346.29 396.96 353.56 384.6C360.83 372.24 356.47 354.78 356.47 354.78C356.47 354.78 355.73 356.96 347.73 358.42Z" fill="#6C94AD"/>
<mask id="mask15_1988_9854" style="mask-type:luminance" maskUnits="userSpaceOnUse" x="301" y="306" width="57" height="97">
<path d="M347.73 358.42C347.73 358.42 335.36 303.86 313.54 306.77C291.72 309.68 305.54 386.79 309.18 402.79C309.18 402.79 325.18 404.24 329.55 399.15L328.1 389.69C328.1 389.69 346.29 396.96 353.56 384.6C360.83 372.24 356.47 354.78 356.47 354.78C356.47 354.78 355.73 356.96 347.73 358.42Z" fill="white"/>
</mask>
<g mask="url(#mask15_1988_9854)">
<path opacity="0.15" d="M320.09 330.78C320.09 330.78 326.64 370.79 328.09 389.7C328.09 389.7 338.32 397.71 347.75 390.07C357.19 382.42 333.18 407.89 320.09 330.78Z" fill="#6C94AD"/>
</g>
<path d="M246.54 373.51C246.54 373.51 254.54 376.42 253.81 381.51L246.54 385.15C246.54 385.15 237.81 393.15 235.63 393.88C233.45 394.61 226.17 388.79 226.9 385.88C226.9 385.88 232.72 387.33 234.9 385.15C237.08 382.97 237.97 379.04 237.97 379.04C237.97 379.04 240.72 379.33 241.45 380.06C242.18 380.78 246.54 373.51 246.54 373.51Z" fill="#FFB845"/>
<path d="M271.99 260.2C271.99 260.27 283.13 257.42 282.34 263.75C281.55 270.08 291.85 265.34 291.06 270.09C290.27 274.84 295.77 273.21 294.19 277.56C292.61 281.91 307.24 278.75 310.8 273.21C314.36 267.67 310.4 268.07 307.24 264.51C304.08 260.95 308.82 255.02 302.89 252.65C296.96 250.28 300.12 246.72 293 245.93C285.88 245.13 271.94 244.43 271.99 260.2Z" fill="#422928"/>
<mask id="mask16_1988_9854" style="mask-type:luminance" maskUnits="userSpaceOnUse" x="271" y="245" width="42" height="35">
<path d="M271.99 260.2C271.99 260.27 283.13 257.42 282.34 263.75C281.55 270.08 291.85 265.34 291.06 270.09C290.27 274.84 295.77 273.21 294.19 277.56C292.61 281.91 307.24 278.75 310.8 273.21C314.36 267.67 310.4 268.07 307.24 264.51C304.08 260.95 308.82 255.02 302.89 252.65C296.96 250.28 300.12 246.72 293 245.93C285.88 245.13 271.94 244.43 271.99 260.2Z" fill="white"/>
</mask>
<g mask="url(#mask16_1988_9854)">
<g opacity="0.21">
<path d="M275.25 256.13C277.49 255.8 279.74 255.57 282 255.44C283.75 255.34 288.63 254.57 287.72 257.7C287.38 258.85 285.45 260.28 285.84 261.61C286.1 262.52 287.82 262.22 288.52 262.25C289.55 262.31 290.59 262.36 291.62 262.42C292.1 262.45 292.58 262.46 293.05 262.5C293.25 262.52 293.7 262.48 293.86 262.59C294.06 263.04 294.26 263.5 294.45 263.95C294.31 264.12 294.17 264.3 294.03 264.47C293.58 265.09 293.19 265.91 294.02 266.39C294.65 266.75 295.6 266.71 296.29 266.87C297.84 267.22 299.06 268.27 298.35 269.97C297.98 270.85 296.91 272.05 297.66 273.02C298.73 274.39 301.52 273.15 301.43 275.61C301.38 276.93 300.66 278.15 301.29 279.44C301.37 279.61 301.63 279.46 301.55 279.29C300.84 277.84 302.03 276.38 301.69 274.91C301.4 273.67 300.22 273.64 299.18 273.42C298.3 273.24 298.351 273.28 298.141 272.3C297.881 271.12 297.91 271.74 298.12 271.1C298.24 270.75 298.5 270.43 298.65 270.09C298.89 269.51 299.04 268.91 298.82 268.3C298.37 267.03 296.9 266.66 295.74 266.46C295.54 266.42 295.08 266.41 294.87 266.31C294.3 266.04 294.54 266.55 294.25 265.57C293.98 264.67 293.94 265.14 294.49 264.39C294.56 264.3 294.66 264.19 294.72 264.09C294.94 263.7 295.09 263.3 294.86 262.88C294.27 261.79 291.86 262.12 290.91 262.07C289.83 262.01 288.64 262.08 287.57 261.89C287 261.79 287.21 261.97 286.641 261.45C286.121 260.97 286.15 260.96 286.45 260.37C286.68 259.9 287.02 259.5 287.31 259.07C287.94 258.15 288.63 256.74 287.78 255.73C286.73 254.48 284.11 255.03 282.74 255.09C280.21 255.21 277.69 255.46 275.18 255.83C274.98 255.87 275.06 256.15 275.25 256.13Z" fill="#8E6B6B"/>
</g>
</g>
<mask id="mask17_1988_9854" style="mask-type:luminance" maskUnits="userSpaceOnUse" x="271" y="245" width="42" height="35">
<path d="M271.99 260.2C271.99 260.27 283.13 257.42 282.34 263.75C281.55 270.08 291.85 265.34 291.06 270.09C290.27 274.84 295.77 273.21 294.19 277.56C292.61 281.91 307.24 278.75 310.8 273.21C314.36 267.67 310.4 268.07 307.24 264.51C304.08 260.95 308.82 255.02 302.89 252.65C296.96 250.28 300.12 246.72 293 245.93C285.88 245.13 271.94 244.43 271.99 260.2Z" fill="white"/>
</mask>
<g mask="url(#mask17_1988_9854)">
<g opacity="0.21">
<path d="M280.8 248.58C283.58 248.08 286.37 248.34 289.13 248.87C291.41 249.31 295.03 249.66 295.82 252.29C296.25 253.72 295.14 254.2 294.87 255.38C294.77 255.82 294.82 256.33 295.2 256.63C295.69 257.02 296.58 256.88 297.13 256.9C297.77 256.92 298.41 256.93 299.05 256.95C299.52 256.96 300.61 256.78 300.98 257.05C302.07 257.84 300.24 259.31 299.86 260.1C299.62 260.6 299.52 261.16 299.65 261.71C299.75 262.15 299.99 262.58 300.4 262.81C301.07 263.19 301.66 262.77 302.35 262.7C302.96 262.64 303.48 263.16 303.26 263.8C303.18 264.04 302.94 264.26 302.8 264.48C302.53 264.9 302.3 265.35 302.1 265.81C301.88 266.32 301.43 267.19 301.6 267.78C301.97 269.03 304.41 267.98 305.16 267.81C305.43 267.75 305.76 267.65 306.04 267.62C306.72 267.55 306.48 267.47 306.5 267.93C306.53 268.49 306 269.45 305.84 270C305.68 270.55 305.24 271.44 305.59 272.01C305.87 272.47 306.38 272.44 306.84 272.36C307.5 272.25 308.12 271.93 308.81 272.15C310.2 272.59 310.45 274.22 309.56 275.24C309.43 275.38 309.64 275.59 309.77 275.45C310.72 274.36 310.59 272.68 309.22 272C308.46 271.62 307.99 271.96 307.24 271.97C306.86 272.16 306.58 272.02 306.39 271.53C305.91 271.37 305.75 271.11 305.92 270.78C305.91 270.47 306.18 269.9 306.26 269.62C306.5 268.85 306.75 268.09 307.02 267.33C307.06 267.22 306.94 267.12 306.84 267.15C305.96 267.34 305.08 267.53 304.19 267.73C303.88 267.8 303.16 268.1 302.87 268.02C302.51 267.92 302.01 267.23 302 266.94C301.99 266.66 302.26 266.19 302.37 265.95C302.72 265.13 303.36 264.46 303.7 263.66C303.82 263.38 303.89 263.09 303.71 262.8C303.56 262.55 303.25 262.42 302.97 262.37C302.78 262.34 302.58 262.35 302.39 262.38C301.65 262.49 301.72 262.65 300.86 262.38C298.21 261.53 301.39 259.2 301.79 257.89C302.02 257.16 301.42 256.82 300.77 256.73C299.9 256.6 298.96 256.67 298.09 256.64C297.63 256.63 297.1 256.68 296.65 256.6C295.98 256.48 296.35 256.78 295.66 256.03C295.06 255.37 295.13 255.4 295.53 254.73C296.14 253.69 296.47 252.84 295.89 251.68C295.3 250.49 294.11 249.85 292.9 249.46C289.09 248.24 284.68 247.6 280.72 248.31C280.53 248.33 280.61 248.62 280.8 248.58Z" fill="#8E6B6B"/>
</g>
</g>
<path d="M274.02 272.86C274.02 272.86 274.81 279.2 274.81 279.99C274.81 280.78 277.58 280.39 277.58 279.2C277.58 278.01 274.02 272.86 274.02 272.86Z" fill="#C4765C"/>
<path d="M279.41 281.32C283.3 281.69 283.96 278.08 283.96 278.08" stroke="#D67055" stroke-width="0.5" stroke-miterlimit="10" stroke-linecap="round" stroke-linejoin="round"/>
<path d="M278 269.82C277.9 269.51 278.09 269.17 278.43 268.97C278.01 268.39 277.53 268.1 277.16 268.53C276.09 269.76 278 273.72 279.11 272.84C279.61 272.44 279.48 271.28 279.09 270.24C278.6 270.39 278.12 270.2 278 269.82Z" fill="#21261F"/>
<path d="M274.02 422.06C274.02 422.06 265.12 417.3 266.9 399.23C266.9 399.23 278.21 403.99 275.82 422.06" fill="#6F895D"/>
<path d="M274.88 419.71C274.88 419.71 269.7 404.9 279.74 391.97C279.74 391.97 286.94 409.72 276.38 421.9" fill="#5E754B"/>
<path d="M265.15 419.72H282.71C282.71 419.72 283.88 435.02 273.93 434.1C273.93 434.1 265.15 436.11 265.15 419.72Z" fill="#EFB686"/>
<path d="M399.1 383.41C399.1 383.41 397.54 391.19 401.18 391.71C401.18 391.71 402.74 404.16 403.77 406.24C404.81 408.32 416.74 408.83 419.33 406.24C419.33 406.24 421.92 396.9 421.92 390.68C421.92 390.68 424 391.2 424 389.64C424 388.08 424.52 382.9 423.48 381.86C422.44 380.82 408.96 376.67 399.1 383.41Z" fill="#BA807B"/>
<path d="M412.07 386.52C418.658 386.52 424 385.244 424 383.67C424 382.096 418.658 380.82 412.07 380.82C405.481 380.82 400.14 382.096 400.14 383.67C400.14 385.244 405.481 386.52 412.07 386.52Z" fill="#724846"/>
<path d="M406.36 384.45C406.36 384.45 413.62 382.89 415.7 384.45C417.77 386.01 408.96 388.08 406.36 384.45Z" fill="#724846"/>
<path d="M428.61 332.43C423.02 332.43 427.01 343.61 426.21 346.01C425.63 347.76 419.52 348.23 416.26 348.36C415.78 333.07 413.43 319.44 406.24 322.85C397.84 326.83 398.74 344.49 401.21 359.48C399.86 358.62 398.25 357.11 398.25 354.8C398.25 350.81 396.65 343.62 393.46 347.61C390.58 351.21 395.5 361.32 401.77 362.67C403.73 373.36 406.24 381.96 406.24 381.96L407.84 384.36H415.03C415.03 384.36 415.46 379.74 415.83 373.03C425.09 371.43 429.07 356.32 423.02 354.8C416.63 353.2 419.82 362.79 419.03 365.98C418.61 367.68 417.28 368.92 416.01 369.72C416.28 364.03 416.46 357.32 416.34 350.76C419.88 350.64 426.86 350.17 428.62 348.41C431.01 346.01 434.2 332.43 428.61 332.43Z" fill="#5A9B82"/>
<mask id="mask18_1988_9854" style="mask-type:luminance" maskUnits="userSpaceOnUse" x="392" y="322" width="40" height="63">
<path d="M428.61 332.43C423.02 332.43 427.01 343.61 426.21 346.01C425.63 347.76 419.52 348.23 416.26 348.36C415.78 333.07 413.43 319.44 406.24 322.85C397.84 326.83 398.74 344.49 401.21 359.48C399.86 358.62 398.25 357.11 398.25 354.8C398.25 350.81 396.65 343.62 393.46 347.61C390.58 351.21 395.5 361.32 401.77 362.67C403.73 373.36 406.24 381.96 406.24 381.96L407.84 384.36H415.03C415.03 384.36 415.46 379.74 415.83 373.03C425.09 371.43 429.07 356.32 423.02 354.8C416.63 353.2 419.82 362.79 419.03 365.98C418.61 367.68 417.28 368.92 416.01 369.72C416.28 364.03 416.46 357.32 416.34 350.76C419.88 350.64 426.86 350.17 428.62 348.41C431.01 346.01 434.2 332.43 428.61 332.43Z" fill="white"/>
</mask>
<g mask="url(#mask18_1988_9854)">
<path d="M393.28 364.92C393.64 365.15 394.01 365.37 394.37 365.6C394.46 365.66 394.56 365.69 394.67 365.7C394.78 365.72 394.89 365.72 395 365.69C395.11 365.66 395.2 365.62 395.28 365.54C395.37 365.48 395.44 365.41 395.49 365.31C395.59 365.12 395.64 364.89 395.57 364.68C395.5 364.47 395.38 364.31 395.19 364.19C394.83 363.96 394.46 363.74 394.1 363.51C394.01 363.45 393.91 363.42 393.8 363.41C393.69 363.39 393.58 363.39 393.47 363.42C393.36 363.45 393.27 363.49 393.19 363.57C393.1 363.63 393.03 363.7 392.98 363.8C392.88 363.99 392.83 364.22 392.9 364.43C392.97 364.64 393.1 364.81 393.28 364.92Z" fill="#5A9B82"/>
</g>
<mask id="mask19_1988_9854" style="mask-type:luminance" maskUnits="userSpaceOnUse" x="392" y="322" width="40" height="63">
<path d="M428.61 332.43C423.02 332.43 427.01 343.61 426.21 346.01C425.63 347.76 419.52 348.23 416.26 348.36C415.78 333.07 413.43 319.44 406.24 322.85C397.84 326.83 398.74 344.49 401.21 359.48C399.86 358.62 398.25 357.11 398.25 354.8C398.25 350.81 396.65 343.62 393.46 347.61C390.58 351.21 395.5 361.32 401.77 362.67C403.73 373.36 406.24 381.96 406.24 381.96L407.84 384.36H415.03C415.03 384.36 415.46 379.74 415.83 373.03C425.09 371.43 429.07 356.32 423.02 354.8C416.63 353.2 419.82 362.79 419.03 365.98C418.61 367.68 417.28 368.92 416.01 369.72C416.28 364.03 416.46 357.32 416.34 350.76C419.88 350.64 426.86 350.17 428.62 348.41C431.01 346.01 434.2 332.43 428.61 332.43Z" fill="white"/>
</mask>
<g mask="url(#mask19_1988_9854)">
<path d="M408.05 321.28C405.49 323.51 404.2 326.69 403.41 329.92C402.43 333.97 402.11 338.13 402.29 342.29C402.48 346.74 403.06 351.17 403.46 355.6C403.86 360.02 404.22 364.44 404.56 368.86C404.95 373.94 405.31 379.02 405.67 384.09C405.69 384.35 406.1 384.35 406.08 384.09C405.48 375.57 404.87 367.05 404.13 358.54C403.39 350.09 401.81 341.42 403.21 332.97C403.89 328.84 405.05 324.41 408.34 321.56C408.54 321.4 408.25 321.11 408.05 321.28Z" fill="#86C4AB"/>
</g>
<mask id="mask20_1988_9854" style="mask-type:luminance" maskUnits="userSpaceOnUse" x="392" y="322" width="40" height="63">
<path d="M428.61 332.43C423.02 332.43 427.01 343.61 426.21 346.01C425.63 347.76 419.52 348.23 416.26 348.36C415.78 333.07 413.43 319.44 406.24 322.85C397.84 326.83 398.74 344.49 401.21 359.48C399.86 358.62 398.25 357.11 398.25 354.8C398.25 350.81 396.65 343.62 393.46 347.61C390.58 351.21 395.5 361.32 401.77 362.67C403.73 373.36 406.24 381.96 406.24 381.96L407.84 384.36H415.03C415.03 384.36 415.46 379.74 415.83 373.03C425.09 371.43 429.07 356.32 423.02 354.8C416.63 353.2 419.82 362.79 419.03 365.98C418.61 367.68 417.28 368.92 416.01 369.72C416.28 364.03 416.46 357.32 416.34 350.76C419.88 350.64 426.86 350.17 428.62 348.41C431.01 346.01 434.2 332.43 428.61 332.43Z" fill="white"/>
</mask>
<g mask="url(#mask20_1988_9854)">
<path d="M406.96 321.63C411.92 328.39 410.51 337.6 410.17 345.44C409.8 353.82 409.03 362.29 409.6 370.67C409.92 375.52 410.45 380.38 409.58 385.21C409.53 385.47 409.93 385.58 409.97 385.32C410.71 381.18 410.46 377.01 410.15 372.84C409.83 368.47 409.76 364.15 409.94 359.77C410.13 355.32 410.33 350.88 410.53 346.43C410.72 342.06 411.1 337.65 410.92 333.27C410.75 329.07 409.84 324.86 407.31 321.42C407.16 321.21 406.81 321.42 406.96 321.63Z" fill="#86C4AB"/>
</g>
<mask id="mask21_1988_9854" style="mask-type:luminance" maskUnits="userSpaceOnUse" x="392" y="322" width="40" height="63">
<path d="M428.61 332.43C423.02 332.43 427.01 343.61 426.21 346.01C425.63 347.76 419.52 348.23 416.26 348.36C415.78 333.07 413.43 319.44 406.24 322.85C397.84 326.83 398.74 344.49 401.21 359.48C399.86 358.62 398.25 357.11 398.25 354.8C398.25 350.81 396.65 343.62 393.46 347.61C390.58 351.21 395.5 361.32 401.77 362.67C403.73 373.36 406.24 381.96 406.24 381.96L407.84 384.36H415.03C415.03 384.36 415.46 379.74 415.83 373.03C425.09 371.43 429.07 356.32 423.02 354.8C416.63 353.2 419.82 362.79 419.03 365.98C418.61 367.68 417.28 368.92 416.01 369.72C416.28 364.03 416.46 357.32 416.34 350.76C419.88 350.64 426.86 350.17 428.62 348.41C431.01 346.01 434.2 332.43 428.61 332.43Z" fill="white"/>
</mask>
<g mask="url(#mask21_1988_9854)">
<path d="M412.41 385.75C413.74 376.72 414.25 367.61 414 358.48C413.87 353.83 413.66 349.18 413.46 344.53C413.27 340.08 413.08 335.61 412.46 331.19C411.93 327.4 410.48 323.19 406.43 322C406.18 321.93 406.07 322.32 406.32 322.39C410.74 323.69 411.77 328.62 412.23 332.61C412.71 336.81 412.91 341.04 413.08 345.26C413.43 353.72 413.89 362.19 413.48 370.66C413.24 375.68 412.74 380.67 412 385.64C411.98 385.9 412.37 386.01 412.41 385.75Z" fill="#86C4AB"/>
</g>
<mask id="mask22_1988_9854" style="mask-type:luminance" maskUnits="userSpaceOnUse" x="392" y="322" width="40" height="63">
<path d="M428.61 332.43C423.02 332.43 427.01 343.61 426.21 346.01C425.63 347.76 419.52 348.23 416.26 348.36C415.78 333.07 413.43 319.44 406.24 322.85C397.84 326.83 398.74 344.49 401.21 359.48C399.86 358.62 398.25 357.11 398.25 354.8C398.25 350.81 396.65 343.62 393.46 347.61C390.58 351.21 395.5 361.32 401.77 362.67C403.73 373.36 406.24 381.96 406.24 381.96L407.84 384.36H415.03C415.03 384.36 415.46 379.74 415.83 373.03C425.09 371.43 429.07 356.32 423.02 354.8C416.63 353.2 419.82 362.79 419.03 365.98C418.61 367.68 417.28 368.92 416.01 369.72C416.28 364.03 416.46 357.32 416.34 350.76C419.88 350.64 426.86 350.17 428.62 348.41C431.01 346.01 434.2 332.43 428.61 332.43Z" fill="white"/>
</mask>
<g mask="url(#mask22_1988_9854)">
<path d="M407.88 322.31C407.34 326.43 406.75 330.55 406.25 334.68C405.75 338.85 405.86 343.06 405.93 347.25C406.08 355.67 406.62 364.07 407.5 372.45C408 377.18 408.48 381.92 408.38 386.68C408.37 386.94 408.78 386.94 408.79 386.68C408.98 378.26 407.52 369.87 406.95 361.48C406.67 357.31 406.48 353.14 406.38 348.97C406.28 344.76 406.09 340.47 406.49 336.27C406.93 331.61 407.68 326.96 408.29 322.32C408.32 322.05 407.91 322.05 407.88 322.31Z" fill="#86C4AB"/>
</g>
<mask id="mask23_1988_9854" style="mask-type:luminance" maskUnits="userSpaceOnUse" x="392" y="322" width="40" height="63">
<path d="M428.61 332.43C423.02 332.43 427.01 343.61 426.21 346.01C425.63 347.76 419.52 348.23 416.26 348.36C415.78 333.07 413.43 319.44 406.24 322.85C397.84 326.83 398.74 344.49 401.21 359.48C399.86 358.62 398.25 357.11 398.25 354.8C398.25 350.81 396.65 343.62 393.46 347.61C390.58 351.21 395.5 361.32 401.77 362.67C403.73 373.36 406.24 381.96 406.24 381.96L407.84 384.36H415.03C415.03 384.36 415.46 379.74 415.83 373.03C425.09 371.43 429.07 356.32 423.02 354.8C416.63 353.2 419.82 362.79 419.03 365.98C418.61 367.68 417.28 368.92 416.01 369.72C416.28 364.03 416.46 357.32 416.34 350.76C419.88 350.64 426.86 350.17 428.62 348.41C431.01 346.01 434.2 332.43 428.61 332.43Z" fill="white"/>
</mask>
<g mask="url(#mask23_1988_9854)">
<path d="M416.28 350.36C419.13 350.23 421.96 349.75 424.68 348.89C426.93 348.18 428.78 347.17 429.81 344.95C430.86 342.68 430.8 340.14 431.05 337.71C431.31 335.12 432.17 332.47 431.1 329.96C431 329.72 430.65 329.93 430.75 330.17C431.76 332.54 430.92 335.1 430.67 337.53C430.41 339.95 430.51 342.49 429.47 344.75C428.4 347.07 426.37 347.98 424.04 348.67C421.52 349.42 418.91 349.84 416.29 349.96C416.02 349.96 416.02 350.37 416.28 350.36Z" fill="#86C4AB"/>
</g>
<mask id="mask24_1988_9854" style="mask-type:luminance" maskUnits="userSpaceOnUse" x="392" y="322" width="40" height="63">
<path d="M428.61 332.43C423.02 332.43 427.01 343.61 426.21 346.01C425.63 347.76 419.52 348.23 416.26 348.36C415.78 333.07 413.43 319.44 406.24 322.85C397.84 326.83 398.74 344.49 401.21 359.48C399.86 358.62 398.25 357.11 398.25 354.8C398.25 350.81 396.65 343.62 393.46 347.61C390.58 351.21 395.5 361.32 401.77 362.67C403.73 373.36 406.24 381.96 406.24 381.96L407.84 384.36H415.03C415.03 384.36 415.46 379.74 415.83 373.03C425.09 371.43 429.07 356.32 423.02 354.8C416.63 353.2 419.82 362.79 419.03 365.98C418.61 367.68 417.28 368.92 416.01 369.72C416.28 364.03 416.46 357.32 416.34 350.76C419.88 350.64 426.86 350.17 428.62 348.41C431.01 346.01 434.2 332.43 428.61 332.43Z" fill="white"/>
</mask>
<g mask="url(#mask24_1988_9854)">
<path d="M429.96 330.92C427.4 332.46 427.91 335.72 427.43 338.23C427.12 339.86 426.31 341.33 425.42 342.71C424.51 344.12 423.59 345.58 422.37 346.74C422.18 346.92 422.47 347.21 422.66 347.03C423.71 346.03 424.51 344.82 425.31 343.62C426.14 342.38 426.94 341.09 427.45 339.68C428.39 337.04 427.37 332.96 430.16 331.28C430.39 331.14 430.19 330.78 429.96 330.92Z" fill="#86C4AB"/>
</g>
<mask id="mask25_1988_9854" style="mask-type:luminance" maskUnits="userSpaceOnUse" x="392" y="322" width="40" height="63">
<path d="M428.61 332.43C423.02 332.43 427.01 343.61 426.21 346.01C425.63 347.76 419.52 348.23 416.26 348.36C415.78 333.07 413.43 319.44 406.24 322.85C397.84 326.83 398.74 344.49 401.21 359.48C399.86 358.62 398.25 357.11 398.25 354.8C398.25 350.81 396.65 343.62 393.46 347.61C390.58 351.21 395.5 361.32 401.77 362.67C403.73 373.36 406.24 381.96 406.24 381.96L407.84 384.36H415.03C415.03 384.36 415.46 379.74 415.83 373.03C425.09 371.43 429.07 356.32 423.02 354.8C416.63 353.2 419.82 362.79 419.03 365.98C418.61 367.68 417.28 368.92 416.01 369.72C416.28 364.03 416.46 357.32 416.34 350.76C419.88 350.64 426.86 350.17 428.62 348.41C431.01 346.01 434.2 332.43 428.61 332.43Z" fill="white"/>
</mask>
<g mask="url(#mask25_1988_9854)">
<path d="M421.37 353.88C421.51 355.25 421.28 356.59 421.02 357.94C420.79 359.13 420.56 360.32 420.28 361.5C420.01 362.63 419.68 363.75 419.26 364.84C419.03 365.44 418.77 366.03 418.47 366.6C418.34 366.86 418.19 367.11 418.04 367.36C417.87 367.65 417.25 368.83 416.71 368.17C416.54 367.97 416.26 368.26 416.42 368.46C417.91 370.28 419.96 364.15 420.21 363.3C420.66 361.82 420.97 360.3 421.27 358.78C421.59 357.16 421.94 355.54 421.78 353.88C421.75 353.62 421.34 353.62 421.37 353.88Z" fill="#86C4AB"/>
</g>
<mask id="mask26_1988_9854" style="mask-type:luminance" maskUnits="userSpaceOnUse" x="392" y="322" width="40" height="63">
<path d="M428.61 332.43C423.02 332.43 427.01 343.61 426.21 346.01C425.63 347.76 419.52 348.23 416.26 348.36C415.78 333.07 413.43 319.44 406.24 322.85C397.84 326.83 398.74 344.49 401.21 359.48C399.86 358.62 398.25 357.11 398.25 354.8C398.25 350.81 396.65 343.62 393.46 347.61C390.58 351.21 395.5 361.32 401.77 362.67C403.73 373.36 406.24 381.96 406.24 381.96L407.84 384.36H415.03C415.03 384.36 415.46 379.74 415.83 373.03C425.09 371.43 429.07 356.32 423.02 354.8C416.63 353.2 419.82 362.79 419.03 365.98C418.61 367.68 417.28 368.92 416.01 369.72C416.28 364.03 416.46 357.32 416.34 350.76C419.88 350.64 426.86 350.17 428.62 348.41C431.01 346.01 434.2 332.43 428.61 332.43Z" fill="white"/>
</mask>
<g mask="url(#mask26_1988_9854)">
<path d="M424.04 353.6C424.31 361.05 421.5 368.41 416.32 373.78C416.14 373.97 416.43 374.26 416.61 374.07C421.86 368.62 424.72 361.16 424.45 353.6C424.43 353.34 424.03 353.33 424.04 353.6Z" fill="#86C4AB"/>
</g>
<mask id="mask27_1988_9854" style="mask-type:luminance" maskUnits="userSpaceOnUse" x="392" y="322" width="40" height="63">
<path d="M428.61 332.43C423.02 332.43 427.01 343.61 426.21 346.01C425.63 347.76 419.52 348.23 416.26 348.36C415.78 333.07 413.43 319.44 406.24 322.85C397.84 326.83 398.74 344.49 401.21 359.48C399.86 358.62 398.25 357.11 398.25 354.8C398.25 350.81 396.65 343.62 393.46 347.61C390.58 351.21 395.5 361.32 401.77 362.67C403.73 373.36 406.24 381.96 406.24 381.96L407.84 384.36H415.03C415.03 384.36 415.46 379.74 415.83 373.03C425.09 371.43 429.07 356.32 423.02 354.8C416.63 353.2 419.82 362.79 419.03 365.98C418.61 367.68 417.28 368.92 416.01 369.72C416.28 364.03 416.46 357.32 416.34 350.76C419.88 350.64 426.86 350.17 428.62 348.41C431.01 346.01 434.2 332.43 428.61 332.43Z" fill="white"/>
</mask>
<g mask="url(#mask27_1988_9854)">
<path d="M393.45 345.44C393.88 349.48 394.32 353.52 394.75 357.57C394.92 359.13 395.09 360.66 395.84 362.06C396.62 363.5 397.8 364.66 398.99 365.76C399.18 365.94 399.47 365.65 399.28 365.47C398.12 364.39 396.96 363.26 396.2 361.85C395.29 360.17 395.23 358.24 395.04 356.39C394.65 352.74 394.26 349.09 393.87 345.44C393.83 345.18 393.42 345.18 393.45 345.44Z" fill="#86C4AB"/>
</g>
<mask id="mask28_1988_9854" style="mask-type:luminance" maskUnits="userSpaceOnUse" x="392" y="322" width="40" height="63">
<path d="M428.61 332.43C423.02 332.43 427.01 343.61 426.21 346.01C425.63 347.76 419.52 348.23 416.26 348.36C415.78 333.07 413.43 319.44 406.24 322.85C397.84 326.83 398.74 344.49 401.21 359.48C399.86 358.62 398.25 357.11 398.25 354.8C398.25 350.81 396.65 343.62 393.46 347.61C390.58 351.21 395.5 361.32 401.77 362.67C403.73 373.36 406.24 381.96 406.24 381.96L407.84 384.36H415.03C415.03 384.36 415.46 379.74 415.83 373.03C425.09 371.43 429.07 356.32 423.02 354.8C416.63 353.2 419.82 362.79 419.03 365.98C418.61 367.68 417.28 368.92 416.01 369.72C416.28 364.03 416.46 357.32 416.34 350.76C419.88 350.64 426.86 350.17 428.62 348.41C431.01 346.01 434.2 332.43 428.61 332.43Z" fill="white"/>
</mask>
<g mask="url(#mask28_1988_9854)">
<path d="M395.01 343.95C395.35 346.97 395.7 350 396.39 352.97C396.93 355.31 397.52 358.13 400.16 358.85C400.41 358.92 400.52 358.53 400.27 358.46C397.56 357.71 397.1 354.4 396.6 352.04C396.04 349.37 395.72 346.66 395.42 343.95C395.38 343.69 394.98 343.69 395.01 343.95Z" fill="#86C4AB"/>
</g>
<path d="M210.23 409.89C210.23 409.89 176.3 409.89 177.56 408.01C178.82 406.13 180.07 402.98 182.59 403.61C185.1 404.24 189.5 402.98 192.01 402.98C194.52 402.98 196.41 404.86 198.29 406.12C200.17 407.38 205.2 405.49 206.46 406.12C207.72 406.75 210.23 409.89 210.23 409.89Z" fill="#724846"/>
<path d="M214 401.73C214 401.73 207.09 402.99 208.35 401.73C209.61 400.47 212.75 400.47 214 399.85C215.26 399.22 217.77 399.22 219.03 399.85C220.28 400.47 220.28 401.73 214 401.73Z" fill="#724846"/>
<path d="M176.3 399.84C175.18 399.28 173.79 397.96 175.04 397.96C176.3 397.96 176.3 397.33 178.18 397.96C180.07 398.58 177.56 400.47 176.3 399.84Z" fill="#724846"/>
<path d="M221.34 408.18C220.83 408.19 220.08 407.97 220.53 407.74C220.98 407.5 220.87 407.28 221.66 407.15C222.46 407.02 221.91 408.17 221.34 408.18Z" fill="#724846"/>
<path d="M218.19 403.78C217.68 403.79 216.93 403.57 217.38 403.34C217.83 403.1 217.72 402.88 218.51 402.75C219.32 402.62 218.76 403.77 218.19 403.78Z" fill="#724846"/>
<path d="M171.87 409.62C171.98 408.94 172.45 408.01 172.65 408.66C172.85 409.31 173.18 409.21 173.16 410.3C173.14 411.38 171.75 410.38 171.87 409.62Z" fill="#724846"/>
<path d="M184.44 395.17C184.55 394.49 185.02 393.55 185.22 394.21C185.42 394.86 185.75 394.76 185.73 395.85C185.7 396.93 184.31 395.93 184.44 395.17Z" fill="#724846"/>
<path d="M214.98 392.91C215.8 393.09 216.92 393.72 216.11 393.93C215.29 394.14 215.4 394.55 214.07 394.45C212.74 394.35 214.06 392.71 214.98 392.91Z" fill="#724846"/>
<path d="M222.17 414.29C219.75 414.98 216.52 413.66 215.26 414.92C214 416.18 213.38 416.18 212.75 417.43C212.12 418.69 229.09 417.43 229.09 417.43C229.09 417.43 226.57 413.03 222.17 414.29Z" fill="#724846"/>
<path d="M244.19 392.73C242.69 393.16 240.67 392.34 239.89 393.12C239.11 393.9 238.72 393.9 238.33 394.68C237.94 395.46 248.5 394.68 248.5 394.68C248.5 394.68 246.93 391.95 244.19 392.73Z" fill="#724846"/>
<path d="M197.66 397.96C195.78 398.59 193.89 399.22 195.15 397.96C196.41 396.7 200.18 397.96 199.55 397.96C198.92 397.96 197.66 397.96 197.66 397.96Z" fill="#724846"/>
<path d="M244.59 414.82C244.59 414.82 239.69 416.45 238.06 414.28C236.43 412.1 230.99 400.68 232.62 400.68C234.25 400.68 248.94 408.84 247.86 411.02C246.77 413.2 246.23 414.28 246.23 414.28C246.23 414.28 260.38 424.08 258.75 426.25C257.12 428.42 251.12 423.53 244.59 414.82Z" fill="#D3CFCB"/>
<path d="M247.31 419.18C247.31 419.18 249.47 417.63 250.02 417.05C250.57 416.46 260.91 425.17 259.83 426.8C258.74 428.43 252.75 426.25 247.31 419.18Z" fill="#FF5E48"/>
</g>
<defs>
<clipPath id="clip0_1988_9854">
<rect width="500" height="500" fill="white"/>
</clipPath>
</defs>
</svg>
