<svg width="469" height="462" viewBox="0 0 469 462" fill="none" xmlns="http://www.w3.org/2000/svg">
<g clip-path="url(#clip0_1986_4852)">
<path opacity="0.58" d="M230.36 420.57C345.754 420.57 439.3 327.024 439.3 211.63C439.3 96.2356 345.754 2.68994 230.36 2.68994C114.966 2.68994 21.4199 96.2356 21.4199 211.63C21.4199 327.024 114.966 420.57 230.36 420.57Z" fill="#E9D7B1"/>
<path d="M230.36 420.57C345.754 420.57 439.3 327.024 439.3 211.63C439.3 96.2356 345.754 2.68994 230.36 2.68994C114.966 2.68994 21.4199 96.2356 21.4199 211.63C21.4199 327.024 114.966 420.57 230.36 420.57Z" stroke="white" stroke-miterlimit="10"/>
<path d="M435.09 169.68C422.85 173.62 414.9 169.69 408.21 176.47C401.51 183.25 399.25 202.82 416.95 193.79C434.65 184.76 436.15 200.19 448.2 194.17C460.25 188.15 479.53 149.53 459.96 156.05C451.02 159.03 446.83 165.91 435.09 169.68Z" fill="#4A8171"/>
<path d="M360.85 126.41C343.43 123.05 331.86 131.68 338.26 145.99C344.66 160.3 363.48 167.45 375.91 171.97C388.33 176.49 399.82 174.42 395.58 162.28C391.34 150.14 383.72 151.27 376.66 141.39C369.6 131.49 367.63 127.71 360.85 126.41Z" fill="#4A8171"/>
<path d="M387.11 205.18C381.46 188.24 374.97 187.39 365.09 187.11C355.21 186.83 342.22 177.79 334.31 178.92C326.4 180.05 316.8 184 321.6 194.17C326.4 204.33 337.41 209.42 349.55 208.57C361.69 207.72 365.36 203.77 373.27 206.88C381.18 209.98 387.11 205.18 387.11 205.18Z" fill="#4A8171"/>
<path d="M401.79 259.39C408.57 243.3 415.94 245.27 425.66 243.3C435.39 241.32 447.81 237.37 454.59 243.3C461.37 249.23 461.08 257.7 445.84 256.85C430.59 256 431.16 263.06 419.86 264.76C408.56 266.46 401.79 259.39 401.79 259.39Z" fill="#4A8171"/>
<path d="M372.14 242.17C378.07 250.64 362.66 246.41 353.71 249.79C344.75 253.18 342.49 265.04 321.88 267.58C301.27 270.12 291.39 254.87 302.96 244.43C314.54 233.98 321.6 237.65 331.48 231.72C341.36 225.79 356.04 225.23 365.08 230.31C374.12 235.39 372.14 242.17 372.14 242.17Z" fill="#4A8171"/>
<path d="M370.17 274.36C352.95 272.1 347.58 268.71 342.22 274.36C336.86 280.01 327.54 279.16 327.54 284.81C327.54 290.46 340.81 294.69 348.86 292.15C356.91 289.61 361.42 288.76 370.18 287.91C378.93 287.06 385.43 280.29 382.89 278.03C380.33 275.77 370.17 274.36 370.17 274.36Z" fill="#4A8171"/>
<path d="M352.57 109.84C350.12 117.18 367.44 129.04 370.45 121.7C373.46 114.36 355.02 102.5 352.57 109.84Z" fill="#4A8171"/>
<path d="M447.82 75.5799C425.65 71.2399 408.51 84.2399 408.21 107.58C407.91 130.92 404.9 135.82 399.63 147.11C394.36 158.4 405.54 165.2 417.7 157.27C429.86 149.35 425.23 138.45 429.75 124.89C434.26 111.35 465.13 78.9699 447.82 75.5799Z" fill="#4A8171"/>
<path d="M430.31 62.5899C424.54 49.1299 398.12 67.7099 401.79 74.7499C405.46 81.7899 433.7 70.4999 430.31 62.5899Z" fill="#4A8171"/>
<path d="M427.49 100.99C397.56 165.37 384.57 241.6 390.22 300.33" stroke="#21261F" stroke-miterlimit="10" stroke-linecap="round" stroke-linejoin="round"/>
<path d="M447.06 172.33C433.51 179.86 418.57 178.34 410.92 183.62C403.27 188.9 394.75 207.09 394.75 207.09" stroke="#21261F" stroke-width="0.5" stroke-miterlimit="10" stroke-linecap="round" stroke-linejoin="round"/>
<path d="M353.71 138.45C358.59 153.51 374.97 155.01 387.11 162.54C399.25 170.07 399.34 184.11 399.34 184.11" stroke="#21261F" stroke-width="0.5" stroke-miterlimit="10" stroke-linecap="round" stroke-linejoin="round"/>
<path d="M335.76 192.19C353.51 198.4 366.81 195.75 376.53 199.25C386.25 202.75 391.08 208.98 393.75 213.15" stroke="#21261F" stroke-width="0.5" stroke-miterlimit="10" stroke-linecap="round" stroke-linejoin="round"/>
<path d="M312.29 253.75C331.21 250.36 344.88 241.04 353.72 239.07C362.55 237.09 372.15 242.18 372.15 242.18C372.15 242.18 384.91 248.1 389.26 257.42" stroke="#21261F" stroke-width="0.5" stroke-miterlimit="10" stroke-linecap="round" stroke-linejoin="round"/>
<path d="M339.39 285.37C354.92 284.81 358.59 278.31 370.17 274.36C381.75 270.41 388.93 273.23 388.93 273.23C388.88 268.73 395.3 261.94 401.8 259.39C408.29 256.85 408.29 256.28 419.31 254.87C430.32 253.46 430.04 249.79 442.75 248" stroke="#21261F" stroke-width="0.5" stroke-miterlimit="10" stroke-linecap="round" stroke-linejoin="round"/>
<path d="M390.5 224.1C374.41 223.82 369.62 230.4 380.34 232.01C391.06 233.61 394.86 231.45 403.27 234.83C411.68 238.21 426.93 234.55 432.01 231.72C437.09 228.9 442.74 222.97 430.03 219.01C417.32 215.06 390.5 224.1 390.5 224.1Z" fill="#4A8171"/>
<path d="M390.5 224.1C399.54 224.95 409.98 223.12 415.63 226.86" stroke="#21261F" stroke-width="0.5" stroke-miterlimit="10" stroke-linecap="round" stroke-linejoin="round"/>
<path d="M420.9 297.49H344.66L350.77 311.25H414.07C416.51 306.76 418.79 302.17 420.9 297.49Z" fill="#D39F3F"/>
<path d="M414.07 311.25H389.18H357.46L367.23 369.5C386.12 353.11 402.04 333.39 414.07 311.25Z" fill="#D39F3F"/>
<path d="M365.8 321.7C375.71 327.13 386.17 332.66 396.07 338.93C402.77 330.22 408.8 320.97 414.08 311.26H357.47L358.84 319.43C361.27 319.77 363.63 320.51 365.8 321.7Z" fill="#D39F3F"/>
<mask id="mask0_1986_4852" style="mask-type:luminance" maskUnits="userSpaceOnUse" x="0" y="2" width="440" height="419">
<path d="M439.3 211.63C439.3 327.02 345.75 420.57 230.36 420.57C120.54 420.57 30.51 335.85 22.07 228.2C21.64 222.73 -2.50001 157.14 1.30999 136.94C21.42 30.4099 136.6 2.68994 230.36 2.68994C345.76 2.68994 439.3 96.2399 439.3 211.63Z" fill="white"/>
</mask>
<g mask="url(#mask0_1986_4852)">
<path d="M102.22 342.88H0V357.56H102.22V342.88Z" fill="#42353B"/>
<path d="M95.82 357.56H6.96997V416.67H95.82V357.56Z" fill="#42353B"/>
<path d="M51.11 290.55H9.04004C13.18 320.67 20.53 342.88 51.11 342.88C81.7 342.88 89.04 320.67 93.18 290.55H51.11Z" fill="#EDE7E2"/>
<path d="M90.96 303.88H11.26" stroke="#D39F3F" stroke-miterlimit="10" stroke-linecap="round" stroke-linejoin="round"/>
<path d="M83.39 290.55C86.4 255.91 100.71 208.86 110.87 187.77C110.87 187.77 68.71 215.25 56.28 290.55H83.39Z" fill="#76815B"/>
<path d="M110.87 187.77C82.26 230.69 69.46 290.55 69.46 290.55" stroke="#21261F" stroke-width="0.5" stroke-miterlimit="10" stroke-linecap="round" stroke-linejoin="round"/>
<path d="M56.2901 66.9199C64.2001 148.99 51.1101 290.54 51.1101 290.54H31.5101C22.1001 229.31 33.0701 148.24 56.2901 66.9199Z" fill="#76815B"/>
<path d="M89.42 95.1599C47.63 149.75 31.51 290.55 31.51 290.55H62.31C62.31 232.19 71.35 167.06 89.42 95.1599Z" fill="#76815B"/>
<path d="M1.31006 136.95C37.4501 194.17 52.9801 290.55 52.9801 290.55H29.1701C26.4101 242.61 17.1201 194.92 1.31006 136.95Z" fill="#76815B"/>
<path d="M89.42 95.1599C61.56 164.05 47.26 290.55 47.26 290.55" stroke="#21261F" stroke-width="0.5" stroke-miterlimit="10" stroke-linecap="round" stroke-linejoin="round"/>
<path d="M56.29 66.9199C47.63 218.26 38.97 290.54 38.97 290.54" stroke="#21261F" stroke-width="0.5" stroke-miterlimit="10" stroke-linecap="round" stroke-linejoin="round"/>
<path d="M26.55 85.37C19.09 86.69 21.3 116.62 29.57 113.23C37.84 109.84 32.95 84.24 26.55 85.37Z" fill="#76815B"/>
</g>
<path d="M426.11 284.86C396.44 364.14 319.99 420.58 230.36 420.58C142.89 420.58 67.9699 366.83 36.8299 290.55C32.1699 279.13 28.4899 267.2 25.8899 254.87" stroke="white" stroke-miterlimit="10"/>
<path d="M51.47 309.47C49.14 325.98 41.07 332.82 29.26 333.35C42.44 334.95 49.84 342.91 51.47 357.23C53.1 342.91 60.51 334.95 73.68 333.35C61.87 332.82 53.81 325.97 51.47 309.47Z" fill="#D39F3F"/>
<path d="M30.13 368.06C28.54 379.32 23.04 383.99 14.98 384.35C23.97 385.44 29.01 390.87 30.13 400.64C31.24 390.87 36.29 385.45 45.28 384.35C37.22 383.99 31.72 379.32 30.13 368.06Z" fill="#EB997C"/>
<path d="M86.9601 31.0601C85.3701 42.3201 79.8701 46.9901 71.8101 47.3501C80.8001 48.4401 85.8501 53.8701 86.9601 63.6401C88.0701 53.8701 93.1201 48.4501 102.11 47.3501C94.0501 46.9801 88.5501 42.3101 86.9601 31.0601Z" fill="#4A8171"/>
<path d="M296.76 0C295.17 11.26 289.67 15.93 281.61 16.29C290.6 17.38 295.65 22.81 296.76 32.58C297.87 22.81 302.92 17.39 311.91 16.29C303.85 15.93 298.35 11.26 296.76 0Z" fill="#4A8171"/>
<path d="M406.17 364.97C404.58 376.23 399.08 380.9 391.02 381.26C400.01 382.35 405.06 387.78 406.17 397.55C407.28 387.78 412.33 382.36 421.32 381.26C413.26 380.9 407.76 376.23 406.17 364.97Z" fill="#4A8171"/>
<path d="M273.89 286.78L219.67 461.63H273.89L312.29 363.58L273.89 286.78Z" fill="#707B97"/>
<path d="M273.89 286.78L219.67 461.63H273.89L312.29 363.58L273.89 286.78Z" fill="#707B97"/>
<path d="M234.94 377.81H127.18V388.48H234.94V377.81Z" fill="#D67055"/>
<path d="M222.89 377.81C225.29 380.91 227.16 384.5 228.41 388.48H234.94V377.81H222.89Z" fill="#21261F"/>
<path d="M145.27 377.81H127.18V388.48H137.06C139.09 384.48 141.91 380.82 145.27 377.81Z" fill="#21261F"/>
<path d="M225.73 276.24H136.38V283.45H225.73V276.24Z" fill="#D67055"/>
<path d="M142.54 276.24H136.38V283.45H147.93C145.84 281.33 144.03 278.92 142.54 276.24Z" fill="#21261F"/>
<path d="M219.36 276.24C217.82 278.86 215.95 281.29 213.81 283.45H225.74V276.24H219.36Z" fill="#21261F"/>
<path d="M230.36 232.01L259.2 461.63H238.31L219.67 232.01H230.36Z" fill="#D67055"/>
<path d="M153.6 313.89C156.71 297.8 93.1799 311.63 93.1799 311.63L153.6 313.89Z" fill="#588157"/>
<path d="M146.53 306.95C142.18 309.24 137.72 311.3 133.17 313.12L153.61 313.88C154.33 310.13 151.42 308 146.53 306.95Z" fill="#21261F"/>
<path d="M131.06 232.01L102.22 461.63H123.11L141.75 232.01H131.06Z" fill="#D67055"/>
<path d="M181.06 269.28H148.24L153.9 276.24H181.06H208.21L213.88 269.28H181.06Z" fill="#EDE7E2"/>
<path d="M181.06 370.73H148.24L153.9 377.69H181.06H208.21L213.88 370.73H181.06Z" fill="#D39F3F"/>
<path d="M210.49 321.51H181.06H151.63C148.74 335.36 150.97 352.39 155.3 370.72H181.06H206.82C211.15 352.39 213.38 335.36 210.49 321.51Z" fill="#D39F3F"/>
<path d="M168.04 350.79C180.85 343.06 195.7 341.23 210.4 341.75C210.79 341.76 211.17 341.81 211.56 341.83C212.05 334.53 211.78 327.7 210.49 321.51H151.63C149.11 333.56 150.48 348.03 153.73 363.67C157.78 358.62 162.48 354.15 168.04 350.79Z" fill="#D39F3F"/>
<path d="M167.16 313.89C167.16 313.89 181.97 314.45 181.06 321.51C180.15 328.57 118.03 402.55 118.03 402.55C118.03 402.55 149.96 316.4 153.48 311.33C156.99 306.26 167.16 313.89 167.16 313.89Z" fill="#588157"/>
<path opacity="0.57" d="M167.16 313.89C156.43 339.3 118.03 402.55 118.03 402.55" stroke="#4A8171" stroke-width="0.5" stroke-miterlimit="10" stroke-linecap="round" stroke-linejoin="round"/>
<path d="M167.16 313.89C167.16 313.89 157 306.27 153.48 311.33C152.56 312.65 149.71 319.49 146 328.88C152.31 328.67 158.86 330.88 163.45 334.71C165.52 336.44 167.1 338.42 168.26 340.55C175.59 330.95 180.81 323.52 181.07 321.51C181.97 314.45 167.16 313.89 167.16 313.89Z" fill="#21261F"/>
<path d="M185.23 318.41L253.56 339.87C253.56 339.87 209.51 307.63 197.37 306.1C185.23 304.57 185.23 318.41 185.23 318.41Z" fill="#588157"/>
<path d="M201.93 307.43C200.14 306.72 198.59 306.25 197.37 306.1C185.23 304.57 185.23 318.41 185.23 318.41L215.99 328.07C210.39 321.82 205.61 314.89 201.93 307.43Z" fill="#21261F"/>
<path d="M167.16 313.89C154.45 303.44 149.94 310.78 129.04 325.75C108.14 340.72 83.5 360.26 83.5 360.26L167.16 313.89Z" fill="#588157"/>
<path d="M181.06 309.99C181.06 309.99 171.96 303.72 164.34 307.67C156.72 311.62 199.35 412.42 199.35 412.42C199.35 412.42 205.28 367.41 201.33 336.75C197.38 306.09 195.68 304.31 190.88 303.87C186.07 303.44 181.06 309.99 181.06 309.99Z" fill="#588157"/>
<path opacity="0.57" d="M181.06 309.99C188.62 344.1 199.35 412.43 199.35 412.43" stroke="#4A8171" stroke-width="0.5" stroke-miterlimit="10" stroke-linecap="round" stroke-linejoin="round"/>
<path d="M211.79 187.77C234.92 198.12 259.2 214.88 259.2 214.88C259.2 214.88 292.71 185.35 300.61 184.12C308.52 182.88 318.3 211.64 318.3 211.64C318.3 211.64 279.9 261.33 253.55 252.6C227.2 243.87 199.34 202.68 199.34 202.68L211.79 187.77Z" fill="#21261F"/>
<path d="M208.9 165.82L182.37 165.19L155.84 164.56C155.84 164.56 141.26 189.88 141.79 193.41C144.39 210.75 164.58 225.02 164.58 225.02L180.95 225.41L197.32 225.8C197.32 225.8 218.16 212.51 221.58 195.31C222.27 191.79 208.9 165.82 208.9 165.82Z" fill="#EDE7E2"/>
<path d="M179.32 77.5599C176.83 71.8799 163.72 85.1799 166.43 88.8499C169.13 92.5199 182.16 84.0499 179.32 77.5599Z" fill="#7A9954"/>
<path d="M258.83 41.6399C255.09 42.6299 257.07 54.9999 261.72 52.9299C266.37 50.8599 263.95 40.2899 258.83 41.6399Z" fill="#7A9954"/>
<path d="M255.82 140.24C252.71 143.35 263.44 150.97 265.42 147.02C267.39 143.06 258.92 137.13 255.82 140.24Z" fill="#7A9954"/>
<path d="M133.27 103.25C129.6 106.92 140.89 118.5 143.72 114.83C146.55 111.16 136.95 99.5799 133.27 103.25Z" fill="#7A9954"/>
<path d="M83.5801 175.25C83.0801 178.09 100.24 177.51 99.1101 173.84C97.9801 170.17 84.4301 170.45 83.5801 175.25Z" fill="#7A9954"/>
<path d="M199.35 165.59C203.02 147.02 214.88 142.22 227.87 145.04C240.86 147.86 234.36 176.95 240.86 190.22" stroke="#7A9954" stroke-miterlimit="10" stroke-linecap="round" stroke-linejoin="round"/>
<path d="M237.55 178.73C230.21 191.1 254.97 207.34 259.2 199.62C263.44 191.91 245.54 165.28 237.55 178.73Z" fill="#7A9954"/>
<path opacity="0.64" d="M237.55 178.73L259.2 199.63" stroke="#7A9954" stroke-width="0.5" stroke-miterlimit="10" stroke-linecap="round" stroke-linejoin="round"/>
<path d="M264.2 171.34C269.09 155.77 232.38 139.37 236.57 161.42C238.89 173.65 262.06 178.13 264.2 171.34Z" fill="#7A9954"/>
<path d="M242.93 158.51C241.27 156.37 240.2 154.03 239.61 151.59C236.96 152.96 235.54 156.05 236.57 161.43C238.03 169.15 247.8 173.77 255.34 174.43C251.12 169.18 247.06 163.83 242.93 158.51Z" fill="#21261F"/>
<path opacity="0.64" d="M264.2 171.34L236.48 155.83" stroke="#7A9954" stroke-width="0.5" stroke-miterlimit="10" stroke-linecap="round" stroke-linejoin="round"/>
<path d="M249.04 121.89C241.31 114.68 206.58 138.88 225.69 144.64C244.8 150.41 257.51 129.79 249.04 121.89Z" fill="#7A9954"/>
<path opacity="0.64" d="M249.04 121.89L225.69 144.64" stroke="#7A9954" stroke-width="0.5" stroke-miterlimit="10" stroke-linecap="round" stroke-linejoin="round"/>
<path d="M207.53 177.04C220.86 188.6 242.18 157.65 232.65 148.13C219.67 135.16 196.25 167.25 207.53 177.04Z" fill="#7A9954"/>
<path opacity="0.64" d="M207.53 177.04L227.86 145.04" stroke="#7A9954" stroke-width="0.5" stroke-miterlimit="10" stroke-linecap="round" stroke-linejoin="round"/>
<path d="M176.83 165.19C171.39 132.9 143.72 126.41 129.6 134.88C115.48 143.35 116.89 164.15 119.72 178.74C122.54 193.33 117.46 200.02 102.21 211.64" stroke="#7A9954" stroke-miterlimit="10" stroke-linecap="round" stroke-linejoin="round"/>
<path d="M136.1 141.09C134.05 152.82 175.24 163.64 170.77 148.13C166.31 132.62 138.07 129.79 136.1 141.09Z" fill="#7A9954"/>
<path opacity="0.64" d="M136.1 141.09L170.77 148.13" stroke="#7A9954" stroke-width="0.5" stroke-miterlimit="10" stroke-linecap="round" stroke-linejoin="round"/>
<path d="M112.1 115.54C105.89 127.54 129.96 141.18 138.39 131.82C146.83 122.45 118.43 103.3 112.1 115.54Z" fill="#7A9954"/>
<path opacity="0.64" d="M112.1 115.54L138.39 131.82" stroke="#7A9954" stroke-width="0.5" stroke-miterlimit="10" stroke-linecap="round" stroke-linejoin="round"/>
<path d="M119.8 147.79C105.49 153.04 119.16 184.08 129.32 179.6C146.06 172.22 135.4 142.06 119.8 147.79Z" fill="#7A9954"/>
<path opacity="0.64" d="M119.8 147.79L129.32 179.59" stroke="#7A9954" stroke-width="0.5" stroke-miterlimit="10" stroke-linecap="round" stroke-linejoin="round"/>
<path d="M119.32 192.85C119.66 181.1 87.5199 180.46 83.5699 194.94C79.6299 209.42 118.91 206.97 119.32 192.85Z" fill="#7A9954"/>
<path opacity="0.64" d="M83.5698 194.94L119.32 192.85" stroke="#7A9954" stroke-width="0.5" stroke-miterlimit="10" stroke-linecap="round" stroke-linejoin="round"/>
<path d="M105.37 209.18C89.76 203.6 72.67 237.09 89.42 240.76C106.17 244.43 122.07 215.16 105.37 209.18Z" fill="#7A9954"/>
<path d="M110.04 212.27C108.92 210.97 107.39 209.9 105.37 209.18C100.59 207.47 95.6801 209.43 91.6301 213.06C97.7601 212.63 103.9 212.36 110.04 212.27Z" fill="#21261F"/>
<path opacity="0.64" d="M105.37 209.18L85.4102 238.61" stroke="#7A9954" stroke-width="0.5" stroke-miterlimit="10" stroke-linecap="round" stroke-linejoin="round"/>
<path d="M182.36 165.19C177.04 154.64 176.47 127.82 199.34 112.01C222.21 96.2 225.03 93.37 231.81 82.65C238.59 71.92 247.06 48.49 247.06 48.49" stroke="#7A9954" stroke-miterlimit="10" stroke-linecap="round" stroke-linejoin="round"/>
<path d="M204.71 134.59C197.99 122.98 176 138.96 179.49 153.86C182.97 168.76 210.92 145.32 204.71 134.59Z" fill="#7A9954"/>
<path opacity="0.64" d="M204.71 134.59L179.49 153.86" stroke="#7A9954" stroke-width="0.5" stroke-miterlimit="10" stroke-linecap="round" stroke-linejoin="round"/>
<path d="M236.62 109.09C243.16 100.27 213.75 102.41 199.35 112.01C184.95 121.61 224.76 125.09 236.62 109.09Z" fill="#7A9954"/>
<path opacity="0.64" d="M196.26 115.77L236.62 109.09" stroke="#7A9954" stroke-width="0.5" stroke-miterlimit="10" stroke-linecap="round" stroke-linejoin="round"/>
<path d="M185.23 85.3299C171.87 90.8799 177.61 132.68 188.48 122.34C199.35 112.01 193.7 81.8199 185.23 85.3299Z" fill="#7A9954"/>
<path d="M185.89 114.79C184.7 117.32 183.06 119.43 181.14 121.17C183.04 124.16 185.58 125.11 188.48 122.35C193.89 117.2 195.21 107.13 194.12 98.7498C191.22 104.01 188.44 109.34 185.89 114.79Z" fill="#21261F"/>
<path opacity="0.64" d="M185.23 85.3298L188.48 122.35" stroke="#7A9954" stroke-width="0.5" stroke-miterlimit="10" stroke-linecap="round" stroke-linejoin="round"/>
<path d="M207.25 64.2601C193.7 67.1101 194.04 110.89 210.39 104.25C226.73 97.6101 220.8 61.4101 207.25 64.2601Z" fill="#7A9954"/>
<path opacity="0.64" d="M207.25 64.26L210.39 104.25" stroke="#7A9954" stroke-width="0.5" stroke-miterlimit="10" stroke-linecap="round" stroke-linejoin="round"/>
<path d="M247.06 45.65C227.21 42.23 220 79.1 231.82 82.64C248.76 87.72 263.44 48.48 247.06 45.65Z" fill="#7A9954"/>
<path opacity="0.64" d="M247.06 45.6499L231.82 82.6399" stroke="#7A9954" stroke-width="0.5" stroke-miterlimit="10" stroke-linecap="round" stroke-linejoin="round"/>
<path d="M172.89 164.97C169.7 156.34 158.12 152.75 145.7 164.57C133.28 176.39 130.74 193.95 134.12 206.06C137.51 218.17 148.65 222.41 152.82 232.85" stroke="#7A9954" stroke-miterlimit="10" stroke-linecap="round" stroke-linejoin="round"/>
<path d="M136.02 203.77C123.5 192.95 110.96 226.92 121.98 232.85C132.99 238.78 150.07 215.91 136.02 203.77Z" fill="#7A9954"/>
<path d="M131.48 206.81C131.69 208.33 131.93 209.85 132.18 211.37C132.27 211.94 132.38 212.61 132.47 213.2C133.27 218.39 134.5 223.56 135.65 228.72C141.64 222.26 144.46 211.07 136.01 203.76C134.28 202.26 132.55 201.63 130.88 201.65C131.05 203.38 131.25 205.1 131.48 206.81Z" fill="#21261F"/>
<path opacity="0.64" d="M136.02 203.77L121.98 232.85" stroke="#7A9954" stroke-width="0.5" stroke-miterlimit="10" stroke-linecap="round" stroke-linejoin="round"/>
<path d="M137.79 211.63C135.62 225.49 164.47 232.85 164.47 220.43C164.47 208.01 140.05 197.19 137.79 211.63Z" fill="#7A9954"/>
<path opacity="0.64" d="M137.79 211.63L164.26 222.17" stroke="#7A9954" stroke-width="0.5" stroke-miterlimit="10" stroke-linecap="round" stroke-linejoin="round"/>
<path d="M152.82 228.62C135.44 229.8 137.21 263.35 151.34 260.24C165.46 257.13 165.31 227.77 152.82 228.62Z" fill="#7A9954"/>
<path opacity="0.64" d="M152.82 228.62L148.24 260.44" stroke="#7A9954" stroke-width="0.5" stroke-miterlimit="10" stroke-linecap="round" stroke-linejoin="round"/>
<path d="M148.24 162.34C136.51 165.61 141.17 193.32 151.34 190.22C161.51 187.11 165.18 157.62 148.24 162.34Z" fill="#7A9954"/>
<path opacity="0.64" d="M148.24 162.34L151.34 190.22" stroke="#7A9954" stroke-width="0.5" stroke-miterlimit="10" stroke-linecap="round" stroke-linejoin="round"/>
<path d="M283.2 247.36C282.35 259.39 273.04 279.85 273.04 279.85L323.58 271.27L326.42 234.11L283.2 247.36Z" fill="#D3976E"/>
<path d="M305.13 178.73C288.85 182.31 273.79 204.89 272.42 218.31C271.06 231.72 279.24 238.61 279.24 238.61L277.83 255.16C296.58 252.83 317.34 247.47 339.38 240.17C342.09 233.05 343.87 222.6 344.65 208.59C344.65 208.59 365.54 214.57 364.74 202.68C363.94 190.79 365.07 170.27 343.61 167.26C322.15 164.25 305.13 178.73 305.13 178.73Z" fill="#42353B"/>
<path d="M302.94 250.59C305.77 247.79 308.49 244.88 311.06 241.82C313.18 239.3 315.13 236.68 317.12 234.06C317.15 234.02 317.18 233.99 317.21 233.95C317.38 233.68 317.61 233.32 317.92 232.86C318.82 231.48 319.7 230.09 320.56 228.68C323.94 223.15 326.97 217.42 329.7 211.55C329.74 210.09 329.76 208.63 329.73 207.17C329.68 203.64 329.45 200.12 329.1 196.61C328.78 193.31 328.33 190.02 327.83 186.75C323.81 189.34 319.78 191.92 315.8 194.58C311.33 197.58 307.05 200.76 302.8 204.06C302.76 204.1 302.73 204.13 302.69 204.17C301.57 205.23 300.44 206.27 299.35 207.36C297.56 209.17 295.89 211.07 294.28 213.03C288.82 219.69 280.19 221.54 272.33 219.73C271.67 232.19 279.24 238.6 279.24 238.6L277.83 255.15C285.86 254.16 294.25 252.61 302.94 250.59Z" fill="#21261F"/>
<path d="M357.46 192.19C348.14 176.94 340.71 179.59 340.71 179.59C346.48 195.09 344.66 208.58 344.66 208.58" stroke="#21261F" stroke-width="0.5" stroke-miterlimit="10" stroke-linecap="round" stroke-linejoin="round"/>
<path d="M211.2 198.12C202.73 188.52 189.74 179.48 183.91 175.16C178.07 170.83 176 169.32 175.63 171.02C175.25 172.71 179.45 182.69 181.68 185.14C181.68 185.14 176.95 190.22 164.9 192.29C152.85 194.36 150.22 193.98 151.72 196.05C153.23 198.12 157.74 199.63 157.74 199.63C154.74 200.46 155.58 201.88 159.53 203.77C158.99 204.86 159.72 206.13 164.47 208.01C163.27 209.28 165.52 211 174.21 212.67C181.01 213.97 190.16 212.11 193.97 210.98C197.78 209.85 206.25 202.79 206.25 202.79L211.2 198.12Z" fill="#D3976E"/>
<path d="M157.75 199.63C165.4 201.44 172.61 201.67 175.11 201.59" stroke="#D67055" stroke-width="0.5" stroke-miterlimit="10" stroke-linecap="round" stroke-linejoin="round"/>
<path d="M159.53 203.77C166.17 205.46 173.17 206.38 176.83 205.96" stroke="#D67055" stroke-width="0.5" stroke-miterlimit="10" stroke-linecap="round" stroke-linejoin="round"/>
<path d="M164.47 208.01C171.98 210.36 179.28 210.1 179.48 210.36" stroke="#D67055" stroke-width="0.5" stroke-miterlimit="10" stroke-linecap="round" stroke-linejoin="round"/>
<path d="M329.28 180.04C304.95 175.54 260.49 223.9 260.49 223.9L208.46 195.18C208.46 195.18 196.53 207.44 193.99 210.97C191.45 214.5 201.05 220.71 201.05 220.71C201.05 220.71 204.63 226.78 219.4 244.53C234.17 262.28 248.48 271.82 277 259.11C305.52 246.4 332.98 211.96 335.77 198.4C338.54 184.85 329.28 180.04 329.28 180.04Z" fill="#42353B"/>
<path d="M201.04 220.71C208.59 216.58 216.66 201.66 216.66 201.66" stroke="#21261F" stroke-width="0.5" stroke-miterlimit="10" stroke-linecap="round" stroke-linejoin="round"/>
<path d="M326.78 99.4798C340.46 113.32 382.46 86.9097 366.48 74.7497C350.5 62.5897 310.22 82.7198 326.78 99.4798Z" fill="#21261F"/>
<path d="M368.19 78.2598C363.25 60.1898 320.9 69.0798 324.43 90.8198" stroke="#21261F" stroke-miterlimit="10" stroke-linecap="round" stroke-linejoin="round"/>
<path d="M313.98 161.28C330.92 165.93 343.61 165.11 345.98 145.64C348.35 126.17 329.23 98.9199 309.46 99.4799C289.7 100.04 276.71 117.34 285.55 133.26C294.4 149.18 313.98 161.28 313.98 161.28Z" fill="#21261F"/>
<path d="M320.32 160.71C345.89 175.25 359.72 153.2 340.81 125.68" stroke="#21261F" stroke-miterlimit="10" stroke-linecap="round" stroke-linejoin="round"/>
<path d="M320.31 144.95C320.16 156.06 321.89 169.61 321.89 169.61L300.62 184.11V164.56C300.62 164.56 291.96 168.76 286.88 163.58C281.8 158.4 283.49 144.14 283.49 144.14C283.49 144.14 281.64 143.25 281.98 140.94C282.31 138.63 284.81 135.75 284.81 135.75L285.19 121.88C293.28 122.89 296.98 119.89 299.45 115.76C299.62 126.45 304.98 135.68 315.4 136.6C318.31 128.25 325.19 126.4 327.54 129.08C334.17 136.66 324.61 146.11 320.31 144.95Z" fill="#D3976E"/>
<path d="M326.86 131.56C322.77 133.55 319.43 139.84 319.43 139.84" stroke="#D67055" stroke-width="0.5" stroke-miterlimit="10" stroke-linecap="round" stroke-linejoin="round"/>
<path d="M288.78 149.94C293.65 151.25 295.27 146.8 295.27 146.8" stroke="#D67055" stroke-width="0.5" stroke-miterlimit="10" stroke-linecap="round" stroke-linejoin="round"/>
<path d="M300.62 164.56V172.65C313.1 166.62 315.4 153.37 315.4 153.37C315.4 153.37 308.47 161.13 300.62 164.56Z" fill="#21261F"/>
<path d="M293.57 134.08C293.57 133.66 293.93 133.32 294.42 133.2C294.12 132.32 293.64 131.78 293.02 132.17C291.23 133.27 292.07 138.89 293.77 138.23C294.54 137.93 294.82 136.45 294.74 135.02C294.1 135 293.57 134.59 293.57 134.08Z" fill="#21261F"/>
<path d="M261.46 276.24C281.16 262.49 304.43 254.91 330.73 252.59L327.53 271.26L391.06 461.63H320.19L280.66 337.23L265.98 283.45L261.46 276.24Z" fill="#707B97"/>
<path opacity="0.8" d="M282.92 292.9C282.92 292.9 290.26 334.18 303.53 334.62C316.8 335.06 324.7 328.85 322.44 313.88C320.18 298.91 317.08 285.36 317.08 285.36L282.92 292.9Z" fill="#707B97"/>
<path d="M265.98 283.45C285.27 277.77 307.12 271.17 327.53 271.27" stroke="#21261F" stroke-width="0.5" stroke-miterlimit="10" stroke-linecap="round" stroke-linejoin="round"/>
<path d="M265.98 283.45C259.2 303.21 251.11 308.8 250.73 305.98C250.36 303.16 265.98 283.45 265.98 283.45Z" stroke="#21261F" stroke-width="0.5" stroke-miterlimit="10" stroke-linecap="round" stroke-linejoin="round"/>
<path d="M270.31 307.13C276.91 305.37 265.98 283.45 265.98 283.45C265.98 283.45 263.91 308.84 270.31 307.13Z" stroke="#21261F" stroke-width="0.5" stroke-miterlimit="10" stroke-linecap="round" stroke-linejoin="round"/>
<path d="M314.45 333.35L357.46 461.63" stroke="#707B97" stroke-width="0.5" stroke-miterlimit="10" stroke-linecap="round" stroke-linejoin="round" stroke-dasharray="3 3"/>
</g>
<defs>
<clipPath id="clip0_1986_4852">
<rect width="468.33" height="461.88" fill="white"/>
</clipPath>
</defs>
</svg>
