<svg width="500" height="500" viewBox="0 0 500 500" fill="none" xmlns="http://www.w3.org/2000/svg">
<rect width="500" height="500" fill="#D2E1D4"/>
<path d="M246.982 101.678C254.243 82.9464 270.602 108.614 259.756 112.234C263.176 111.479 278.56 114.318 276.357 117.993C274.505 121.08 265.193 119.911 261.987 119.911C262.119 126.597 251.583 125.933 249.214 121.191C246.064 132.301 234.181 127.393 230.057 121.191C225.518 123.787 214.935 124.057 211.536 118.955C211.329 118.644 211.798 117.467 211.854 117.356C214.03 112.995 221.795 113.764 225.263 116.076C219.107 111.168 228.178 98.2513 232.288 106.482C233.035 104.633 232.295 102.605 232.606 100.722C232.924 98.7981 234.465 96.943 235.798 95.607C241.414 89.9793 244.696 97.0953 246.982 101.678Z" fill="#E8F4D3"/>
<path d="M61.3836 271.055C60.9691 270.232 61.2662 269.277 61.128 268.314C60.4096 263.4 54.9036 260.908 51.6705 265.359C46.9867 256.055 38.0888 260.811 38.7658 269.886C30.4413 265.947 21.2394 278.414 34.0751 278.372C35.9058 284.734 40.4376 280.892 43.5256 279.334C47.4358 286.056 56.0642 284.076 59.1799 277.784C63.4009 282.221 74.4956 273.388 66.6132 270.786C65.0174 270.259 62.9449 271.049 61.3836 271.055Z" fill="#E8F4D3"/>
<path d="M387.704 209.151C381.052 192.136 366.247 215.519 376.119 218.786C373.01 218.108 359.021 220.732 361.038 224.068C362.724 226.872 371.194 225.785 374.109 225.778C374.005 231.862 383.587 231.226 385.729 226.906C388.623 237.006 399.414 232.506 403.151 226.858C407.289 229.204 416.913 229.426 419.987 224.774C420.174 224.49 419.745 223.424 419.69 223.32C417.7 219.361 410.64 220.074 407.49 222.192C413.079 217.707 404.789 205.987 401.079 213.484C400.395 211.802 401.065 209.961 400.775 208.251C400.478 206.507 399.076 204.818 397.86 203.606C392.741 198.498 389.77 204.977 387.704 209.151Z" fill="#E8F4D3"/>
<path d="M345.35 115.924C342.455 108.517 336.01 118.692 340.307 120.118C338.953 119.821 332.866 120.963 333.744 122.417C334.476 123.635 338.165 123.164 339.429 123.157C339.381 125.802 343.554 125.532 344.486 123.649C345.744 128.044 350.441 126.085 352.065 123.628C353.868 124.652 358.054 124.742 359.387 122.721C359.47 122.597 359.284 122.133 359.256 122.091C358.393 120.368 355.318 120.679 353.951 121.6C356.382 119.648 352.776 114.546 351.16 117.813C350.863 117.08 351.153 116.277 351.028 115.536C350.897 114.775 350.289 114.041 349.757 113.515C347.54 111.286 346.248 114.11 345.35 115.924Z" fill="#E8F4D3"/>
<path d="M99.863 168.324C96.9684 160.918 90.5229 171.093 94.8199 172.519C93.4659 172.221 87.3796 173.364 88.257 174.817C88.9893 176.036 92.6783 175.565 93.9425 175.558C93.8942 178.202 98.0668 177.932 98.9994 176.049C100.257 180.445 104.954 178.486 106.578 176.029C108.381 177.053 112.567 177.143 113.901 175.122C113.984 174.997 113.797 174.533 113.769 174.492C112.906 172.768 109.832 173.08 108.464 174C110.896 172.048 107.289 166.947 105.673 170.214C105.376 169.48 105.666 168.677 105.542 167.937C105.41 167.175 104.802 166.441 104.27 165.915C102.053 163.686 100.761 166.511 99.863 168.324Z" fill="#E8F4D3"/>
<path d="M445.977 234.652C443.082 227.245 436.637 237.421 440.934 238.847C439.58 238.549 433.493 239.691 434.371 241.145C435.103 242.363 438.792 241.893 440.056 241.886C440.008 244.53 444.181 244.26 445.113 242.377C446.37 246.773 451.068 244.814 452.692 242.356C454.495 243.381 458.681 243.471 460.014 241.45C460.097 241.325 459.911 240.861 459.883 240.82C459.02 239.096 455.945 239.408 454.578 240.328C457.009 238.376 453.403 233.275 451.787 236.542C451.49 235.808 451.78 235.005 451.655 234.264C451.524 233.503 450.916 232.769 450.384 232.243C448.167 230.021 446.875 232.839 445.977 234.652Z" fill="#E8F4D3"/>
<path d="M327.368 321.333C336.37 314.445 330.235 300.338 338.504 292.239C344.694 286.175 352.915 289.754 360.784 286.646C367.347 284.05 369.585 271.293 376.403 267.057C383.36 262.73 389.094 265.977 396.03 264.322C402.676 262.737 405.757 255.206 412.147 252.679C416.492 250.963 421.466 252.278 426.116 251.849C430.04 251.489 436.803 249.017 438.406 248.637C429.038 255.531 433.3 267.929 425.39 275.675C421.833 279.156 416.409 279.447 412.672 281.773C410.316 283.234 408.52 285.456 406.517 287.415C400.237 293.568 400.741 304.201 393.225 309.787C387.139 314.314 379.505 313.49 375.581 317.339C373.778 319.104 372.479 322.828 370.973 324.836C363.927 334.257 359.948 331.425 352.1 330.733C346.87 330.269 332.453 322.067 328.066 323.112C327.451 323.257 327.52 321.949 327.368 321.333Z" fill="#2EC27E"/>
<path d="M431.801 252.361C423.808 258.203 415.663 263.886 407.442 269.479C408.347 265.741 410.682 260.868 413.439 257.642L412.437 256.784C409.163 260.619 406.489 266.343 405.819 270.573C396.41 276.955 386.918 283.247 377.419 289.532C378.358 283.981 381.785 276.657 383.92 270.628L382.676 270.185C380.438 276.505 376.562 284.431 375.906 290.529C364.245 298.241 352.611 305.973 341.178 313.905C342.283 308.451 346.027 300.961 349.848 296.178L348.818 295.354C344.542 300.712 340.418 309.004 339.63 314.978C338 316.113 336.356 317.235 334.739 318.377C328.833 322.551 320.287 323.333 314.097 327.189L314.788 328.31C320.57 324.711 329.171 323.922 335.492 319.457C336.964 318.419 338.456 317.401 339.941 316.37C349.779 320.917 361.219 318.619 370.58 319.45L370.697 318.135C361.295 317.304 350.421 319.332 341.254 315.463C352.874 307.385 364.721 299.514 376.597 291.658C379.339 292.405 383.194 294.066 387.049 295.174C391.014 296.316 395.049 296.932 397.999 295.098L397.301 293.976C394.938 295.444 391.256 295.015 387.408 293.907C384.078 292.952 380.749 291.588 377.999 290.73C387.339 284.555 396.665 278.367 405.929 272.089C406.012 272.158 406.109 272.206 406.213 272.227C409.266 272.906 412.409 272.462 415.456 271.943C418.503 271.424 421.446 270.829 424.071 271.057L424.188 269.742C421.287 269.486 418.247 270.123 415.235 270.642C412.561 271.099 409.922 271.424 407.442 271.071C415.919 265.305 424.326 259.456 432.575 253.427L431.801 252.361Z" fill="#26A269"/>
<path d="M322.721 294.388C326.687 286.063 316.059 278.876 318.949 270.016C321.117 263.384 328.899 262.527 333.59 257.24C337.501 252.831 333.835 243.205 337.246 237.567C340.727 231.813 346.472 231.731 351.066 227.811C355.468 224.058 354.646 217.667 358.459 213.373C361.047 210.453 365.402 209.355 368.771 207.195C371.615 205.372 375.737 200.966 376.797 200.058C372.554 208.535 381.04 215.302 378.268 223.778C377.026 227.588 373.01 229.964 371.137 233.058C369.958 235.002 369.52 237.247 368.818 239.39C366.618 246.123 371.487 253.191 368.113 260.031C365.38 265.577 359.205 268.08 357.83 272.284C357.196 274.218 357.777 277.286 357.478 279.265C356.074 288.539 351.843 288.2 345.56 290.88C341.372 292.669 326.912 292.847 324.009 295.323C323.596 295.676 323.092 294.751 322.721 294.388Z" fill="#2EC27E"/>
<path d="M373.333 205.26C369.697 212.468 365.88 219.625 361.966 226.754C361.079 223.832 360.809 219.564 361.552 216.247L360.428 216.064C359.546 220.003 359.918 224.992 361.196 228.151C356.711 236.3 352.119 244.417 347.523 252.524C345.897 248.351 345.425 241.969 344.511 236.984L343.38 237.183C344.338 242.406 344.721 249.379 346.79 253.818C341.142 263.774 335.525 273.742 330.145 283.756C328.689 279.583 328.39 272.951 329.286 268.146L328.15 267.995C327.147 273.377 327.499 280.707 329.413 285.109C328.646 286.54 327.869 287.964 327.118 289.402C324.37 294.633 318.181 298.595 315.082 303.716L316.087 304.207C318.981 299.425 325.214 295.428 328.154 289.833C328.835 288.529 329.549 287.236 330.244 285.933C339.669 285.092 347.43 278.928 354.92 275.73L354.453 274.786C346.929 277.997 339.489 283.747 330.857 284.791C336.318 274.598 342.037 264.455 347.789 254.311C350.194 253.723 353.836 253.306 357.246 252.514C360.752 251.703 364.092 250.504 365.565 248.062L364.563 247.576C363.381 249.528 360.388 250.713 356.989 251.501C354.044 252.181 350.928 252.589 348.466 253.109C352.987 245.138 357.498 237.158 361.92 229.141C362.011 229.154 362.106 229.147 362.192 229.121C364.804 228.359 367.02 226.792 369.126 225.213C371.232 223.634 373.228 222.044 375.329 221.15L374.861 220.206C372.543 221.194 370.493 222.853 368.407 224.418C366.559 225.803 364.683 227.087 362.642 227.839C366.678 220.491 370.622 213.113 374.376 205.677L373.333 205.26Z" fill="#26A269"/>
<path d="M156.958 293.437C147.965 295.414 143.391 283.416 134.123 284.227C127.183 284.836 124.584 292.235 118.38 295.609C113.207 298.425 104.681 292.662 98.4301 294.712C92.0488 296.806 90.6625 302.391 85.8131 305.98C81.1642 309.422 75.1436 307.17 70.1031 309.917C66.678 311.784 64.6241 315.776 61.7569 318.57C59.3361 320.927 54.121 323.949 53.0044 324.777C62.207 322.56 66.8586 332.368 75.7258 331.596C79.713 331.25 82.93 327.866 86.3642 326.744C88.5236 326.035 90.8026 326.113 93.048 325.918C100.089 325.301 105.857 331.65 113.272 329.911C119.28 328.499 123.114 323.046 127.516 322.661C129.541 322.484 132.391 323.745 134.38 323.903C143.71 324.636 144.347 320.434 148.373 314.914C151.06 311.233 154.515 297.168 157.578 294.899C158.007 294.581 157.222 293.883 156.958 293.437Z" fill="#2EC27E"/>
<path d="M58.8476 322.592C66.6779 320.677 74.5006 318.576 82.3171 316.375C79.6789 314.85 75.5914 313.614 72.1975 313.587L72.2748 312.447C76.3062 312.482 81.0692 313.977 83.8535 315.934C92.787 313.404 101.718 310.768 110.644 308.122C106.961 305.593 100.856 303.682 96.2244 301.662L96.6716 300.601C101.526 302.721 108.22 304.675 112.067 307.705C123.029 304.452 133.988 301.235 144.942 298.263C141.217 295.898 134.838 294.103 129.963 293.885L130.073 292.745C135.533 292.984 142.578 294.989 146.418 297.862C147.983 297.439 149.546 296.999 151.112 296.594C156.821 295.1 162.075 289.962 167.758 288.098L168.004 289.186C162.695 290.925 157.398 296.097 151.294 297.7C149.871 298.074 148.452 298.472 147.031 298.852C144.077 307.851 136.323 314.023 131.517 320.604L130.705 319.934C135.529 313.321 142.81 307.372 145.778 299.185C134.629 302.202 123.476 305.481 112.311 308.788C111.193 311.006 109.964 314.459 108.422 317.603C106.836 320.835 104.914 323.822 102.204 324.71L101.958 323.622C104.123 322.912 105.957 320.262 107.495 317.124C108.823 314.411 109.926 311.464 110.992 309.177C102.215 311.778 93.434 314.368 84.641 316.863C84.6369 316.953 84.6059 317.042 84.5591 317.125C83.2266 319.502 81.2011 321.311 79.1872 323.002C77.1732 324.694 75.1777 326.284 73.8283 328.126L73.0161 327.456C74.5044 325.418 76.5811 323.791 78.5695 322.115C80.3359 320.625 82.0085 319.087 83.1992 317.269C75.1419 319.543 67.0785 321.718 59.0005 323.691L58.8476 322.592Z" fill="#26A269"/>
<path d="M72.7203 196.269C68.732 203.207 73.9812 209.139 74.7295 209.933C74.8145 210.188 74.8824 210.414 74.9709 210.679C75.5161 212.237 76.1456 213.756 76.8218 215.22C75.1456 213.23 72.547 211.403 68.6297 211.401C70.0947 218.708 75.06 220.586 79.4111 220.197C80.185 221.522 80.8947 222.631 81.4146 223.378C81.4146 223.378 81.4182 223.388 81.4246 223.39C78.7598 221.716 74.9836 220.432 70.6371 222.166C75.1235 228.641 80.4032 229.116 84.4418 227.467C85.6249 228.978 86.9923 230.638 88.5733 232.414C88.8206 232.695 89.0608 232.958 89.3135 233.227C86.346 231.503 80.4806 229.233 74.495 233.391C80.8096 239.456 86.8497 238.143 90.8975 234.943C93.7401 237.963 96.381 240.457 98.364 242.226C100.741 244.356 101.476 244.903 101.479 244.912L102.019 245.336L102.016 245.101L102.006 244.236L101.997 243.372L102.536 243.554C102.542 243.557 101.816 243.059 99.4394 240.998C97.3939 239.216 94.6325 236.669 91.677 233.563C95.533 230.249 97.9181 224.68 93.4076 217.357C88.0266 222.398 89.0972 228.704 90.166 231.938C90.0081 231.764 89.8474 231.596 89.6895 231.421C88.0045 229.555 86.5684 227.828 85.3384 226.251C88.8418 223.455 91.09 218.445 87.2556 211.266C82.4419 215.467 83.1092 221.296 83.9634 224.452C83.463 223.781 83.0115 223.154 82.5989 222.559C82.0861 221.83 81.3183 220.734 80.4841 219.495C83.1643 216.182 84.3101 211.212 79.4044 205.912C76.9752 209.289 77.0744 212.675 77.8269 215.266C76.9531 213.754 76.1224 212.177 75.3835 210.527C75.274 210.276 75.1843 210.048 75.0812 209.799C77.4806 206.213 78.1944 201.092 72.7203 196.269Z" fill="#1C774D"/>
<path d="M134.9 259.956C138.784 221.828 117.83 202.794 87.702 194.692C78.6092 234.773 109.101 265.279 134.9 259.956Z" fill="#A3CB69"/>
<path d="M89.5726 198.775C89.9063 198.568 90.3478 198.67 90.5549 199.004C90.5549 199.004 95.7976 207.406 103.212 218.342C103.31 213.265 105.723 209.054 105.723 209.054C105.922 208.713 106.352 208.597 106.697 208.791C107.038 208.991 107.154 209.423 106.96 209.768C106.96 209.768 103.976 215.087 104.714 220.545C106.441 223.068 108.227 225.666 110.121 228.338C111.13 229.767 112.177 231.213 113.221 232.665L118.467 218.717C118.607 218.352 119.019 218.165 119.384 218.306C119.748 218.447 119.935 218.86 119.795 219.224L114.213 234.057C117.1 238.022 120.082 241.983 123.038 245.735C123.821 243.741 123.971 240.736 123.809 238.103C123.624 235.085 123.128 232.609 123.128 232.609C123.088 232.423 123.127 232.231 123.232 232.077C123.337 231.923 123.499 231.808 123.681 231.774C124.069 231.696 124.44 231.95 124.522 232.333C124.522 232.333 125.04 234.899 125.229 238.02C125.413 241.028 125.356 244.558 124.07 247.02C130.947 255.628 137.647 262.984 142.719 266.384C143.045 266.607 143.132 267.044 142.915 267.373C142.699 267.702 142.258 267.785 141.929 267.568C136.505 263.935 129.666 256.401 122.709 247.654C112.165 247.526 106.376 245.704 106.376 245.704C106 245.58 105.792 245.186 105.915 244.81C106.034 244.439 106.431 244.225 106.807 244.348C106.807 244.348 111.953 245.947 121.539 246.19C118.649 242.501 115.75 238.638 112.933 234.756L97.0329 234.258C96.6384 234.247 96.3279 233.917 96.3437 233.526C96.3538 233.131 96.683 232.82 97.0737 232.836L111.888 233.294C110.899 231.921 109.899 230.54 108.937 229.177C107.237 226.773 105.625 224.436 104.053 222.152C104.033 222.156 104.018 222.154 103.999 222.157C97.4743 221.046 93.5697 219.837 91.2736 218.884C90.1255 218.407 89.3771 217.995 88.9034 217.695C88.4336 217.39 88.1891 217.147 88.1891 217.147C87.9164 216.86 87.931 216.409 88.2175 216.136C88.5041 215.863 88.9542 215.878 89.2269 216.166C89.2269 216.166 89.2912 216.243 89.6754 216.49C90.0654 216.74 90.7375 217.117 91.8208 217.566C93.8042 218.389 97.3788 219.456 102.912 220.474C95.0168 208.881 89.324 199.778 89.324 199.778C89.1286 199.426 89.235 198.988 89.5726 198.775C89.5687 198.781 89.5687 198.781 89.5726 198.775Z" fill="#D3EAAC"/>
<path d="M126.664 251.659C123.92 289.904 99.9947 304.971 68.9123 307.667C66.8602 266.592 102.156 241.889 126.664 251.659Z" fill="#A3CB69"/>
<path d="M71.4523 303.964C71.7451 304.228 72.1925 304.204 72.4553 303.911C72.4553 303.911 79.0682 296.554 88.263 287.086C87.4884 292.106 89.1382 296.681 89.1382 296.681C89.2726 297.049 89.6792 297.241 90.0528 297.11C90.4201 296.976 90.6117 296.569 90.48 296.194C90.48 296.194 88.4564 290.43 90.1197 285.186C92.258 283.002 94.461 280.756 96.7914 278.459C98.0341 277.227 99.3131 275.982 100.596 274.745L103.367 289.407C103.441 289.794 103.813 290.047 104.199 289.974C104.585 289.9 104.838 289.527 104.764 289.141L101.822 273.551C105.355 270.149 108.968 266.774 112.532 263.597C112.962 265.7 112.594 268.687 111.977 271.255C111.276 274.194 110.36 276.549 110.36 276.549C110.292 276.723 110.297 276.921 110.371 277.097C110.446 277.273 110.592 277.405 110.766 277.473C111.133 277.618 111.544 277.435 111.688 277.068C111.688 277.068 112.64 274.63 113.364 271.588C114.062 268.655 114.617 265.169 113.777 262.517C122.035 255.243 129.906 249.175 135.49 246.712C135.853 246.553 136.012 246.132 135.854 245.768C135.695 245.405 135.274 245.244 134.911 245.403C128.94 248.029 120.904 254.252 112.538 261.652C102.125 259.935 96.1064 260.707 96.1064 260.707C95.7159 260.756 95.4447 261.12 95.4938 261.512C95.5428 261.903 95.9072 262.175 96.2977 262.126C96.2977 262.126 101.647 261.455 111.132 262.896C107.643 266.023 104.122 269.325 100.684 272.648L84.9305 270.346C84.5405 270.289 84.1807 270.562 84.1245 270.953C84.0682 271.343 84.3416 271.704 84.7316 271.761L99.4052 273.909C98.1909 275.092 96.9704 276.273 95.7896 277.449C93.7008 279.519 91.7084 281.54 89.7689 283.509C89.7499 283.501 89.7344 283.502 89.7154 283.494C83.0949 283.445 79.0393 283.948 76.6136 284.483C75.399 284.746 74.5937 285.021 74.0763 285.24C73.5588 285.46 73.2784 285.655 73.2784 285.655C72.966 285.888 72.9005 286.335 73.1313 286.655C73.3649 286.968 73.8111 287.034 74.1298 286.803C74.1298 286.803 74.2037 286.737 74.6274 286.56C75.0512 286.382 75.7802 286.127 76.9276 285.88C79.0262 285.421 82.7238 284.996 88.3618 284.963C78.5818 294.999 71.4014 302.969 71.4014 302.969C71.1351 303.253 71.1595 303.701 71.4523 303.964Z" fill="#D3EAAC"/>
<path d="M122.61 255.092C102.747 222.284 74.5926 219.761 45.7115 231.525C62.6009 269.045 105.254 274.958 122.61 255.092Z" fill="#62AA4B"/>
<path d="M49.6576 233.646C49.7988 233.278 50.2117 233.092 50.5781 233.234C50.5781 233.234 59.8153 236.774 72.3094 241.025C69.3303 236.908 68.7165 232.082 68.7165 232.082C68.6699 231.688 68.9432 231.335 69.3348 231.282C69.7264 231.229 70.0789 231.51 70.1324 231.903C70.1324 231.903 70.958 237.961 74.8331 241.875C77.7292 242.846 80.7163 243.841 83.8345 244.829C85.4991 245.36 87.2048 245.882 88.9108 246.411L84.6912 232.087C84.5831 231.711 84.7989 231.312 85.174 231.204C85.5491 231.096 85.9469 231.312 86.055 231.689L90.5399 246.922C95.2279 248.342 99.9892 249.703 104.605 250.911C104.028 248.843 102.337 246.351 100.622 244.345C98.6577 242.046 96.7716 240.367 96.7716 240.367C96.6272 240.242 96.5426 240.066 96.5336 239.879C96.5246 239.692 96.5845 239.502 96.7093 239.364C96.9715 239.067 97.4199 239.046 97.7159 239.302C97.7159 239.302 99.674 241.04 101.705 243.419C103.662 245.712 105.743 248.567 106.201 251.313C116.864 254.028 126.634 255.85 132.723 255.496C133.116 255.47 133.449 255.773 133.475 256.167C133.501 256.562 133.199 256.895 132.806 256.921C126.296 257.302 116.309 255.421 105.498 252.644C97.0191 258.925 91.3094 260.974 91.3094 260.974C90.9353 261.103 90.532 260.914 90.4032 260.539C90.2744 260.164 90.4623 259.759 90.8364 259.63C90.8364 259.63 95.8994 257.792 103.684 252.183C99.1591 250.984 94.5237 249.652 89.9404 248.255L76.9712 257.484C76.6504 257.715 76.2041 257.639 75.981 257.317C75.7511 256.995 75.8263 256.547 76.1474 256.324L88.2272 247.72C86.6126 247.221 84.9841 246.723 83.3968 246.217C80.5944 245.324 77.9028 244.433 75.2742 243.56C75.2611 243.575 75.2476 243.582 75.2345 243.597C69.3663 246.659 65.5268 248.057 63.123 248.685C61.9211 249 61.0765 249.123 60.5186 249.171C59.9605 249.211 59.6194 249.165 59.6194 249.165C59.229 249.101 58.9691 248.732 59.0331 248.34C59.0972 247.949 59.465 247.688 59.8553 247.753C59.8553 247.753 59.9533 247.776 60.4079 247.74C60.8695 247.704 61.632 247.598 62.7656 247.301C64.8416 246.758 68.3326 245.446 73.3549 242.91C60.0819 238.426 50.0632 234.598 50.0632 234.598C49.6954 234.428 49.5166 234.02 49.6576 233.646Z" fill="#86C96D"/>
<path d="M136.081 168.669C128.359 170.744 127.882 178.656 127.854 179.746C127.737 179.981 127.622 180.195 127.499 180.444C126.787 181.929 126.157 183.451 125.601 184.959C125.82 182.368 125.264 179.235 122.498 176.453C118.376 182.655 120.565 187.496 123.921 190.309C123.534 191.793 123.253 193.082 123.091 193.978C123.091 193.978 123.095 193.987 123.086 193.99C122.382 190.921 120.612 187.335 116.312 185.484C114.914 193.244 118.319 197.316 122.341 199.009C122.11 200.915 121.913 203.056 121.772 205.432C121.748 205.799 121.734 206.162 121.717 206.532C120.829 203.209 118.277 197.448 111.106 196.149C111.288 204.907 116.498 208.257 121.623 208.869C121.504 213.02 121.613 216.644 121.762 219.306C121.941 222.493 122.073 223.403 122.077 223.412L122.16 224.09L122.324 223.92L122.931 223.302L123.539 222.684L123.792 223.194C123.796 223.203 123.631 222.331 123.409 219.193C123.22 216.485 123.063 212.726 123.166 208.439C128.236 208.83 133.862 206.581 135.834 198.211C128.463 197.964 124.773 203.17 123.238 206.222C123.25 205.986 123.253 205.753 123.265 205.517C123.39 203.005 123.597 200.771 123.836 198.778C128.29 199.285 133.419 197.332 135.778 189.546C129.396 189.104 125.76 193.699 124.133 196.53C124.249 195.705 124.378 194.939 124.507 194.225C124.661 193.349 124.887 192.028 125.169 190.559C129.402 190.117 133.732 187.416 133.998 180.197C129.893 180.868 127.574 183.329 126.278 185.692C126.732 184.003 127.259 182.301 127.901 180.611C127.999 180.352 128.101 180.133 128.199 179.889C132.421 179.072 136.546 175.957 136.081 168.669Z" fill="#1C774D"/>
<path d="M93.9117 320.058C101.91 320.057 104.417 312.539 104.726 311.497C104.904 311.295 105.068 311.125 105.248 310.917C106.32 309.663 107.321 308.364 108.246 307.047C107.366 309.493 107.092 312.664 109.046 316.066C114.633 311.144 113.771 305.901 111.254 302.32C112.014 300.984 112.619 299.814 112.999 298.991L112.998 298.976C112.883 302.125 113.664 306.043 117.343 308.944C120.698 301.818 118.46 297.002 115.01 294.321C115.724 292.534 116.476 290.523 117.221 288.266C117.338 287.91 117.447 287.572 117.554 287.219C117.554 290.66 118.528 296.88 125.122 299.996C127.204 291.493 123.041 286.909 118.242 284.991C119.433 281.012 120.263 277.48 120.804 274.878C121.452 271.75 121.561 270.839 121.564 270.833L121.654 270.155L121.45 270.277L120.703 270.714L119.956 271.15L119.845 270.589C119.841 270.58 119.775 271.464 119.183 274.549C118.667 277.215 117.847 280.879 116.642 284.995C111.843 283.303 105.827 284.017 101.76 291.587C108.818 293.735 113.734 289.667 115.999 287.122C115.93 287.349 115.865 287.57 115.79 287.794C115.016 290.188 114.244 292.297 113.499 294.153C109.328 292.508 103.87 293.065 99.5782 299.971C105.627 302.049 110.329 298.559 112.637 296.245C112.304 297.013 111.99 297.721 111.684 298.373C111.304 299.18 110.747 300.394 110.095 301.74C105.887 301.068 101.012 302.558 98.8862 309.457C103.025 309.873 105.898 308.099 107.765 306.158C106.89 307.671 105.944 309.175 104.887 310.639C104.722 310.861 104.572 311.052 104.413 311.262C100.122 310.969 95.3395 312.907 93.9026 320.061L93.9117 320.058Z" fill="#1C774D"/>
<path d="M390.885 388.863C390.885 366.917 390.539 360.19 389.986 349.22C389.427 338.25 388.741 338.25 388.182 349.22C387.623 360.19 387.283 366.922 387.283 388.863H389.087H390.885Z" fill="#A9CE72"/>
<path d="M389.081 346.691C391.074 346.691 392.689 345.073 392.689 343.076C392.689 341.08 391.074 339.462 389.081 339.462C387.089 339.462 385.474 341.08 385.474 343.076C385.474 345.073 387.089 346.691 389.081 346.691Z" fill="#60B141"/>
<path d="M391 333.013C391 341.604 390.13 342.978 389.059 342.978C387.987 342.978 387.117 341.604 387.117 333.013C387.117 324.421 387.987 311.863 389.059 311.863C390.13 311.858 391 324.416 391 333.013ZM379.51 346.269C386.938 341.974 388.557 342.037 389.093 342.973C389.629 343.902 388.874 345.346 381.447 349.641C374.019 353.937 362.731 359.463 362.195 358.533C361.665 357.598 372.083 350.565 379.51 346.269ZM396.711 349.613C389.283 345.317 388.528 343.873 389.064 342.944C389.6 342.014 391.225 341.945 398.647 346.241C406.075 350.536 416.493 357.569 415.957 358.498C415.427 359.434 404.139 353.908 396.711 349.613Z" fill="#A9CE72"/>
<path d="M389.081 344.433C389.829 344.433 390.435 343.826 390.435 343.076C390.435 342.327 389.829 341.719 389.081 341.719C388.333 341.719 387.727 342.327 387.727 343.076C387.727 343.826 388.333 344.433 389.081 344.433Z" fill="#60B141"/>
<path d="M428.43 392.69C428.43 353.721 427.816 341.777 426.834 322.298C425.841 302.818 424.624 302.818 423.631 322.298C422.639 341.777 422.035 353.731 422.035 392.69H425.238H428.43Z" fill="#A9CE72"/>
<path d="M434.64 312.842C435.461 307.657 431.932 302.788 426.758 301.965C421.584 301.143 416.725 304.679 415.904 309.863C415.083 315.047 418.612 319.917 423.786 320.739C428.96 321.562 433.819 318.026 434.64 312.842Z" fill="#60B141"/>
<path d="M428.635 293.52C428.635 308.775 427.09 311.215 425.187 311.215C423.284 311.215 421.739 308.775 421.739 293.52C421.739 278.264 423.284 255.966 425.187 255.966C427.09 255.966 428.635 278.264 428.635 293.52ZM408.233 317.059C421.422 309.431 424.297 309.544 425.248 311.205C426.2 312.856 424.86 315.419 411.671 323.046C398.482 330.674 378.438 340.485 377.486 338.835C376.535 337.184 395.044 324.687 408.233 317.059ZM438.785 322.995C425.596 315.367 424.256 312.804 425.207 311.154C426.159 309.503 429.044 309.38 442.223 317.008C455.412 324.635 473.911 337.123 472.959 338.773C472.008 340.434 451.964 330.623 438.785 322.995Z" fill="#A9CE72"/>
<path d="M425.228 308.99C426.558 308.99 427.632 310.067 427.632 311.4C427.632 312.733 426.558 313.809 425.228 313.809C423.898 313.809 422.823 312.733 422.823 311.4C422.833 310.067 423.908 308.99 425.228 308.99Z" fill="#60B141"/>
<path d="M438.163 400.347H42.1855C42.1855 400.347 66.5995 380.245 87.0413 383.249C107.476 386.254 117.894 381.394 130.667 375.386C143.441 369.377 175.033 368.311 205.685 373.316C236.344 378.321 265.718 389.334 281.048 385.333C296.377 381.325 312.985 372.319 337.254 375.323C361.523 378.328 369.191 389.341 383.235 386.337C397.287 383.325 433.051 387.333 438.163 400.347Z" fill="#26A269"/>
<path d="M287.223 106.968C280.148 110.711 281.43 118.536 281.642 119.603C281.582 119.863 281.511 120.09 281.449 120.366C281.082 121.974 280.807 123.595 280.597 125.194C280.238 122.617 279.013 119.684 275.697 117.588C273.044 124.556 276.24 128.79 280.133 130.783C280.077 132.317 280.089 133.639 280.133 134.55C280.133 134.55 280.135 134.556 280.131 134.565C278.77 131.729 276.258 128.624 271.652 127.784C271.998 135.663 276.219 138.874 280.513 139.627C280.71 141.536 280.982 143.669 281.374 146.017C281.436 146.382 281.503 146.739 281.562 147.098C279.966 144.055 276.212 139.007 268.926 139.337C271.033 147.836 276.856 149.942 281.988 149.391C282.787 153.463 283.695 156.981 284.426 159.538C285.303 162.607 285.634 163.459 285.638 163.472L285.872 164.117L285.995 163.916L286.452 163.182L286.91 162.448L287.267 162.891C287.269 162.897 286.922 162.086 286.014 159.078C285.227 156.482 284.254 152.854 283.41 148.645C288.44 147.894 293.43 144.454 293.515 135.85C286.275 137.25 283.818 143.154 282.999 146.464C282.958 146.229 282.913 146.004 282.873 145.769C282.443 143.288 282.15 141.068 281.947 139.073C286.403 138.57 290.972 135.531 291.558 127.41C285.237 128.397 282.705 133.693 281.737 136.818C281.675 135.986 281.623 135.209 281.591 134.491C281.547 133.602 281.48 132.269 281.431 130.769C285.463 129.394 289.086 125.8 287.757 118.698C283.897 120.264 282.185 123.183 281.443 125.774C281.511 124.032 281.647 122.253 281.903 120.464C281.944 120.188 281.991 119.954 282.035 119.691C285.953 117.924 289.282 113.968 287.223 106.968Z" fill="#1C774D"/>
<path d="M216.264 119.509C215.266 127.459 222.401 130.88 223.397 131.323C223.572 131.52 223.719 131.705 223.911 131.911C225.018 133.133 226.183 134.286 227.369 135.373C225.053 134.193 221.951 133.52 218.339 135.041C222.519 141.208 227.814 141.003 231.68 138.947C232.906 139.868 233.989 140.618 234.759 141.099C234.761 141.106 234.768 141.104 234.768 141.104C231.669 140.597 227.688 140.885 224.353 144.179C230.995 148.404 236.043 146.78 239.123 143.687C240.798 144.62 242.704 145.615 244.846 146.641C245.182 146.8 245.509 146.954 245.843 147.106C242.442 146.678 236.152 146.868 232.246 153.033C240.406 156.166 245.471 152.598 247.965 148.073C251.754 149.751 255.154 151.017 257.663 151.879C260.682 152.914 261.57 153.138 261.577 153.136L262.238 153.311L262.145 153.094L261.803 152.296L261.461 151.499L262.029 151.457C262.038 151.461 261.171 151.281 258.188 150.307C255.61 149.46 252.084 148.185 248.159 146.472C250.433 141.918 250.477 135.849 243.489 130.857C240.479 137.6 243.895 142.992 246.137 145.566C245.924 145.469 245.712 145.379 245.496 145.275C243.219 144.213 241.234 143.179 239.481 142.206C241.628 138.262 241.761 132.776 235.456 127.646C232.637 133.4 235.51 138.512 237.519 141.084C236.797 140.659 236.141 140.257 235.527 139.869C234.775 139.397 233.639 138.686 232.388 137.868C233.576 133.775 232.715 128.74 226.143 125.768C225.213 129.827 226.61 132.906 228.302 134.999C226.914 133.942 225.54 132.815 224.225 131.581C224.024 131.393 223.857 131.215 223.665 131.03C224.497 126.829 223.176 121.83 216.264 119.509Z" fill="#1C774D"/>
<path d="M291.593 161.759C318.201 166.89 332.91 153.278 340.509 132.493C312.86 123.559 289.463 143.191 291.593 161.759Z" fill="#A3CB69"/>
<path d="M336.846 132.883C336.97 133.131 336.871 133.434 336.627 133.564C336.627 133.564 330.387 136.743 322.214 141.295C325.785 141.687 328.6 143.65 328.6 143.65C328.824 143.809 328.883 144.125 328.724 144.35C328.566 144.575 328.25 144.635 328.025 144.476C328.025 144.476 324.472 142.033 320.581 142.213C318.695 143.274 316.758 144.372 314.754 145.547C313.684 146.17 312.597 146.818 311.513 147.472L321.004 152.054C321.255 152.174 321.363 152.478 321.242 152.729C321.122 152.98 320.818 153.089 320.568 152.969L310.468 148.096C307.493 149.885 304.517 151.746 301.691 153.602C303.049 154.278 305.151 154.572 307.016 154.628C309.153 154.687 310.931 154.49 310.931 154.49C311.067 154.477 311.199 154.513 311.302 154.598C311.405 154.682 311.473 154.803 311.486 154.938C311.515 155.216 311.314 155.464 311.038 155.494C311.038 155.494 309.201 155.701 306.99 155.636C304.862 155.579 302.38 155.317 300.724 154.253C294.233 158.576 288.632 162.846 285.922 166.218C285.75 166.434 285.43 166.472 285.211 166.295C284.995 166.123 284.957 165.803 285.135 165.583C288.032 161.979 293.77 157.615 300.365 153.25C301.12 145.807 302.767 141.832 302.767 141.832C302.874 141.572 303.171 141.451 303.424 141.562C303.683 141.669 303.803 141.967 303.692 142.22C303.692 142.22 302.243 145.759 301.466 152.514C304.245 150.701 307.149 148.896 310.056 147.154L311.404 135.951C311.44 135.677 311.693 135.478 311.964 135.507C312.237 135.542 312.436 135.795 312.406 136.066L311.155 146.499C312.188 145.882 313.221 145.264 314.237 144.673C316.034 143.623 317.784 142.631 319.492 141.662C319.491 141.647 319.494 141.638 319.493 141.622C320.685 137.078 321.784 134.397 322.594 132.835C323.003 132.055 323.336 131.548 323.58 131.235C323.824 130.922 324.011 130.76 324.011 130.76C324.231 130.588 324.546 130.624 324.717 130.844C324.889 131.065 324.853 131.38 324.632 131.552C324.632 131.552 324.576 131.592 324.372 131.85C324.169 132.109 323.866 132.558 323.483 133.3C322.778 134.653 321.806 137.11 320.737 140.957C329.399 136.104 336.16 132.653 336.16 132.653C336.417 132.531 336.722 132.636 336.846 132.883Z" fill="#D3EAAC"/>
<path d="M286.148 177.185C308.863 191.973 327.602 184.907 342.451 168.514C320.193 149.809 291.153 159.177 286.148 177.185Z" fill="#A3CB69"/>
<path d="M339.276 168.374C339.298 168.65 339.092 168.893 338.817 168.922C338.817 168.922 331.843 169.514 322.563 170.65C325.723 172.359 327.591 175.24 327.591 175.24C327.74 175.471 327.676 175.786 327.444 175.935C327.212 176.084 326.898 176.02 326.749 175.788C326.749 175.788 324.377 172.185 320.705 170.885C318.559 171.157 316.353 171.443 314.055 171.777C312.83 171.95 311.579 172.14 310.33 172.338L317.398 180.162C317.585 180.367 317.571 180.69 317.365 180.877C317.159 181.064 316.837 181.05 316.65 180.844L309.127 172.522C305.699 173.058 302.244 173.66 298.929 174.314C299.932 175.453 301.769 176.518 303.476 177.272C305.433 178.133 307.153 178.62 307.153 178.62C307.284 178.659 307.392 178.743 307.456 178.86C307.52 178.977 307.538 179.114 307.499 179.245C307.422 179.513 307.142 179.668 306.874 179.591C306.874 179.591 305.096 179.09 303.072 178.196C301.123 177.341 298.923 176.162 297.789 174.553C290.151 176.11 283.359 177.955 279.582 180.056C279.342 180.192 279.031 180.107 278.895 179.86C278.759 179.619 278.845 179.308 279.092 179.172C283.129 176.925 290.084 175.045 297.833 173.488C301.329 166.877 304.349 163.815 304.349 163.815C304.546 163.615 304.867 163.615 305.059 163.813C305.259 164.01 305.258 164.331 305.06 164.524C305.06 164.524 302.388 167.255 299.129 173.221C302.385 172.589 305.753 172.012 309.1 171.494L314.559 161.623C314.694 161.376 315.004 161.294 315.244 161.423C315.484 161.559 315.573 161.868 315.444 162.108L310.364 171.301C311.553 171.119 312.741 170.937 313.904 170.772C315.963 170.476 317.957 170.217 319.904 169.964C319.909 169.95 319.915 169.942 319.92 169.927C322.731 166.167 324.757 164.098 326.094 162.955C326.766 162.387 327.265 162.043 327.609 161.845C327.953 161.647 328.186 161.568 328.186 161.568C328.455 161.491 328.733 161.643 328.809 161.912C328.885 162.181 328.733 162.459 328.464 162.535C328.464 162.535 328.397 162.551 328.111 162.714C327.825 162.876 327.377 163.179 326.743 163.721C325.581 164.709 323.758 166.619 321.322 169.78C331.168 168.549 338.728 167.901 338.728 167.901C339.011 167.885 339.254 168.091 339.276 168.374Z" fill="#D3EAAC"/>
<path opacity="0.1" d="M303.936 160.128C299.748 161.53 296.031 163.674 293.027 166.38C292.232 168.213 291.741 170.195 291.46 172.122C291.327 173.039 292.396 174.365 292.657 175.147C294.204 179.857 296.684 179.688 301.281 179.349C303.945 179.149 305.962 177.603 308.302 176.832C312.5 175.449 314.978 172.288 316.855 168.57C318.443 165.427 317.743 161.395 316.053 158.281C311.781 158.222 307.678 158.881 303.936 160.128Z" fill="black"/>
<path d="M262.108 167.285C238.953 153.172 237.227 133.197 245.593 112.699C272.082 124.705 276.186 154.977 262.108 167.285Z" fill="#A3CB69"/>
<path d="M247.09 115.504C246.832 115.604 246.702 115.894 246.795 116.155C246.795 116.155 249.275 122.71 252.262 131.582C249.354 129.467 245.947 129.026 245.947 129.026C245.674 128.993 245.417 129.187 245.383 129.46C245.349 129.734 245.543 129.99 245.816 130.024C245.816 130.024 250.093 130.608 252.854 133.361C253.536 135.416 254.231 137.533 254.924 139.752C255.297 140.933 255.666 142.145 256.028 143.358L245.913 140.361C245.646 140.281 245.361 140.434 245.281 140.7C245.202 140.967 245.353 141.252 245.62 141.332L256.382 144.524C257.38 147.852 258.33 151.232 259.174 154.51C257.713 154.096 255.957 152.898 254.539 151.683C252.916 150.289 251.732 148.945 251.732 148.945C251.641 148.844 251.519 148.783 251.385 148.776C251.252 148.769 251.12 148.812 251.019 148.904C250.811 149.089 250.792 149.409 250.977 149.617C250.977 149.617 252.198 151.007 253.88 152.448C255.494 153.838 257.509 155.315 259.451 155.642C261.348 163.213 262.62 170.145 262.357 174.465C262.338 174.741 262.549 174.984 262.831 175.001C263.107 175.019 263.35 174.807 263.367 174.525C263.648 169.907 262.338 162.813 260.393 155.141C264.846 149.124 266.304 145.072 266.304 145.072C266.399 144.807 266.261 144.518 265.999 144.429C265.734 144.335 265.445 144.474 265.357 144.736C265.357 144.736 264.047 148.331 260.073 153.856C259.236 150.642 258.301 147.351 257.322 144.104L263.867 134.903C264.026 134.676 263.972 134.359 263.752 134.198C263.525 134.04 263.208 134.094 263.048 134.314L256.948 142.88C256.599 141.727 256.25 140.575 255.896 139.453C255.272 137.466 254.644 135.553 254.031 133.686C254.042 133.675 254.046 133.666 254.057 133.655C256.235 129.49 257.226 126.765 257.679 125.063C257.901 124.21 257.996 123.611 258.026 123.215C258.056 122.818 258.026 122.573 258.026 122.573C257.979 122.297 257.722 122.113 257.446 122.16C257.171 122.207 256.986 122.465 257.033 122.741C257.033 122.741 257.048 122.809 257.025 123.137C257.001 123.465 256.923 124.002 256.707 124.809C256.318 126.285 255.383 128.758 253.584 132.325C250.438 122.901 247.754 115.795 247.754 115.795C247.646 115.532 247.355 115.402 247.09 115.504Z" fill="#D3EAAC"/>
<path d="M265.393 159.567C261.001 150.668 252.103 132.06 264.075 128.578C278.598 124.355 274.245 144.499 280.32 146.178C281.833 146.596 282.977 146.225 283.951 144.978C285.693 142.749 286.155 138.415 286.895 135.548C288.453 129.454 294.857 125.065 299.621 127.715C311.219 134.176 297.36 147.737 297.342 152.646C297.3 162.049 316.303 150.7 316.027 164.202C315.689 180.703 276.36 181.796 265.393 159.567Z" fill="#62AA4B"/>
<path d="M264.716 134.689C264.447 134.756 264.284 135.036 264.351 135.305C265.847 141.192 268.419 146.497 271.15 151.713C271.348 152.092 271.576 152.454 271.815 152.805C271.773 152.79 271.74 152.779 271.699 152.763C270.854 152.452 269.801 151.86 268.779 151.164C267.757 150.467 266.753 149.67 265.972 148.952C265.19 148.234 264.627 147.539 264.532 147.315C264.419 147.061 264.125 146.94 263.871 147.053C263.617 147.166 263.495 147.461 263.608 147.715C263.87 148.313 264.468 148.939 265.291 149.694C266.114 150.449 267.149 151.273 268.216 151.998C269.284 152.723 270.379 153.352 271.363 153.712C271.843 153.888 272.295 154.001 272.727 154.011C273.773 155.334 274.898 156.543 275.609 157.889C277.051 160.639 279.298 163.582 281.169 165.47C281.193 165.498 281.222 165.518 281.25 165.538C280.715 166.479 280.18 167.421 279.63 168.36C278.611 170.088 277.157 172.71 275.641 175.141C274.123 177.566 272.507 179.804 271.367 180.655C271.146 180.823 271.096 181.137 271.264 181.359C271.431 181.581 271.746 181.63 271.967 181.462C273.394 180.4 274.958 178.135 276.493 175.676C278.029 173.216 279.491 170.577 280.497 168.875C281.076 167.89 281.638 166.896 282.201 165.908C282.365 165.941 282.518 165.986 282.688 166.017C283.267 166.117 283.89 166.195 284.252 166.279C286.806 166.856 289.506 167.319 292.26 167.618C292.36 167.811 292.493 167.993 292.643 168.162C293.293 168.901 294.342 169.523 295.528 170.1C296.712 170.67 298.043 171.177 299.23 171.579C300.597 172.038 302.371 171.678 303.439 171.674C303.717 171.677 303.941 171.45 303.944 171.172C303.947 170.895 303.719 170.664 303.443 170.668C302.191 170.666 300.472 170.928 299.556 170.619C298.395 170.231 297.096 169.735 295.971 169.189C295.02 168.731 294.192 168.225 293.674 167.755C299.568 168.262 305.625 167.958 310.877 166.223C311.14 166.136 311.285 165.848 311.199 165.585C311.113 165.322 310.825 165.177 310.562 165.263C305.29 167.005 299.087 167.263 293.066 166.681C293.093 166.563 293.159 166.432 293.328 166.26C293.802 165.775 295.083 165.155 297.426 164.621C297.697 164.561 297.871 164.292 297.809 164.014C297.749 163.743 297.481 163.569 297.21 163.63C296.004 163.904 295.044 164.192 294.293 164.499C293.544 164.812 292.994 165.154 292.619 165.54C292.325 165.841 292.135 166.195 292.081 166.562C289.475 166.273 286.914 165.83 284.492 165.282C284.036 165.178 283.422 165.104 282.883 165.013C282.828 165.002 282.795 164.991 282.743 164.986C286.246 158.744 289.365 152.396 291.95 145.86C293.198 144.763 294.963 143.466 296.538 142.013C298.247 140.436 299.758 138.677 300.051 136.664C300.091 136.389 299.898 136.132 299.623 136.092C299.347 136.052 299.089 136.239 299.05 136.521C298.816 138.114 297.494 139.76 295.851 141.272C294.811 142.227 293.71 143.108 292.688 143.941C294.072 140.264 295.291 136.532 296.308 132.715C296.38 132.443 296.223 132.167 295.953 132.096C295.682 132.026 295.406 132.182 295.335 132.453C294.214 136.641 292.859 140.738 291.292 144.767C290.16 142.868 290.044 140.102 290.317 138.271C290.357 137.995 290.164 137.739 289.888 137.699C289.757 137.676 289.624 137.713 289.512 137.794C289.407 137.872 289.33 137.992 289.316 138.128C288.995 140.318 289.02 143.718 290.817 145.98C288.277 152.34 285.216 158.531 281.787 164.625C280.022 162.818 277.869 159.983 276.52 157.405C275.798 156.027 274.774 154.857 273.826 153.699C273.878 153.66 273.924 153.623 273.968 153.579C274.55 153.001 274.783 152.159 274.861 151.245C274.946 150.328 274.871 149.304 274.74 148.284C274.48 146.25 273.977 144.187 273.917 143.384C273.899 143.106 273.655 142.895 273.377 142.914C273.1 142.933 272.889 143.177 272.907 143.455C272.986 144.515 273.478 146.457 273.734 148.412C273.859 149.391 273.921 150.354 273.856 151.154C273.783 151.951 273.573 152.552 273.259 152.859C273.244 152.879 273.219 152.894 273.189 152.912C272.769 152.366 272.376 151.811 272.073 151.219C269.345 146.016 266.815 140.792 265.353 135.032C265.256 134.78 264.983 134.616 264.716 134.689Z" fill="#86C96D"/>
<path opacity="0.1" d="M246.587 152.776C246.587 152.776 255.325 147.325 279.981 157.415C304.637 167.506 311.007 177.371 312.191 180.113C313.375 182.854 310.782 189.692 310.782 189.692L246.587 152.776Z" fill="black"/>
<path d="M236.2 392.864C303.946 392.864 358.864 337.836 358.864 269.955C358.864 202.074 303.946 147.045 236.2 147.045C168.455 147.045 113.536 202.074 113.536 269.955C113.536 337.836 168.455 392.864 236.2 392.864Z" fill="#A9CE72"/>
<path d="M236.2 147.045C215.392 147.135 194.951 152.534 176.796 162.724C177.127 164.787 177.714 166.891 178.744 169.099C181.956 176.007 186.792 180.811 194.025 182.881C213.52 188.46 208.166 168.497 225.354 166.033C235.219 164.62 247.537 173.197 256.683 169.861C265.319 166.718 266.852 158.757 269.83 151.759C258.901 148.637 247.578 147.052 236.2 147.045ZM310.043 171.875C301.954 180.292 283.564 172.74 275.799 184.418C269.588 193.749 283.985 201.938 281.146 210.452C279.584 215.145 251.108 217.644 257.457 230.36C263.219 241.913 284.966 224.511 284.966 246.44C284.966 250.033 285.512 254.317 282.672 257.162C275.661 264.188 262.777 260.257 255.923 267.117C250.231 272.82 256.752 281.113 254.397 287.025C252.262 292.375 245.748 295.56 242.169 300.038C241.008 301.492 229.168 354.391 229.174 354.405C231.606 359.278 248.863 335.729 254.39 334.497C259.606 333.334 265.188 335.743 270.438 335.265C279.308 334.455 299.543 329.36 303.301 319.946C305.808 313.668 301.353 304.309 304.827 298.508C307.681 293.746 314.036 292.818 314.762 286.256C315.349 280.975 315.522 275.52 315.522 270.176C315.522 265.967 314.347 261.918 318.582 260.222C333.124 254.394 331.735 284.041 342.271 289.323C345.98 291.185 352.205 287.675 355.265 286.263C356.129 285.862 356.868 285.453 357.669 285.052C358.374 280.054 358.768 275.015 358.851 269.962C358.844 231.398 340.765 195.085 310.043 171.875ZM137.556 197.016C121.978 218.135 113.564 243.692 113.536 269.955C113.571 283.307 115.774 296.563 120.064 309.203C124.624 310.207 129.28 310.871 133.66 309.992C142.91 308.137 146.627 299.422 157.349 301.568C170.267 304.157 173.493 318.389 188.678 314.589C200.871 311.536 185.362 281.39 183.331 276.302C178.074 263.129 197.196 257.502 193.265 245.672C188.512 231.391 176.298 236.327 168.05 228.062C163.096 223.099 166.592 214.349 161.169 208.922C154.019 201.751 135.746 213.082 137.556 197.016Z" fill="#60B141"/>
<path d="M209.603 193.818C212.173 192.884 214.377 191.153 216.857 190.011C219.337 188.862 222.432 188.377 224.691 189.921C227.51 191.845 227.738 195.985 226.763 199.259C225.921 202.083 224.387 204.734 222.19 206.686C217.182 211.13 209.81 211.324 203.6 213.83C201.486 214.681 199.427 215.83 197.161 215.997C194.736 216.177 192.36 215.214 190.274 213.961C188.685 213.006 187.158 211.829 186.288 210.196C184.526 206.901 185.997 202.623 188.699 200.048C191.172 197.688 195.4 195.5 198.75 194.759C202.343 193.95 205.963 195.14 209.603 193.818Z" fill="#60B141"/>
<path d="M156.886 339.162C158.454 340.415 160.278 341.426 162.261 341.73C166.067 342.312 170.102 339.917 171.497 336.317C172.892 332.718 171.594 328.28 168.533 325.941C166.979 324.75 164.989 324.003 163.967 322.327C163.021 320.784 163.117 318.756 162.109 317.253C161.259 315.994 159.718 315.322 158.205 315.253C153.003 315.025 147.359 320.154 148.375 325.484C149.266 330.198 153.204 336.234 156.886 339.162Z" fill="#60B141"/>
<path d="M184.133 342.817C185.963 344.174 188.506 344.72 190.557 343.737C192.588 342.761 193.735 340.526 194.191 338.31C194.433 337.148 194.509 335.888 193.991 334.822C193.238 333.271 191.469 332.537 189.839 331.991C187.635 331.243 185.245 330.578 183.013 331.236C176.561 333.126 180.713 340.276 184.133 342.817Z" fill="#60B141"/>
<path d="M203.835 312.526C204.664 313.142 205.811 313.391 206.743 312.941C207.662 312.498 208.18 311.487 208.387 310.49C208.498 309.964 208.532 309.397 208.298 308.912C207.959 308.213 207.158 307.881 206.419 307.632C205.424 307.292 204.339 306.995 203.33 307.292C200.408 308.144 202.287 311.376 203.835 312.526Z" fill="#60B141"/>
<path d="M204.478 287.011C207.545 287.647 211.089 286.145 212.27 283.245C213.154 281.071 212.629 278.503 211.372 276.523C210.115 274.544 208.208 273.055 206.232 271.789C193.784 263.801 193.362 284.712 204.478 287.011Z" fill="#60B141"/>
<path d="M259.551 181.49C259.316 183.04 260.159 184.778 261.637 185.29C262.742 185.678 264.007 185.345 264.96 184.66C265.913 183.975 266.604 182.985 267.177 181.96C270.825 175.516 260.394 175.869 259.551 181.49Z" fill="#60B141"/>
<path d="M204.726 227.722C206.032 226.913 206.792 225.182 206.239 223.749C205.824 222.676 204.774 221.942 203.662 221.659C202.55 221.375 201.369 221.493 200.242 221.707C193.12 223.064 200.001 230.651 204.726 227.722Z" fill="#60B141"/>
<path d="M249.443 242.667C247.067 243.526 244.635 244.744 243.378 246.938C242.328 248.766 242.265 250.974 242.231 253.078C242.217 254.034 242.21 255.037 242.659 255.875C243.17 256.83 244.172 257.398 245.153 257.848C251.882 260.914 260.213 260.125 266.251 255.861C266.921 255.39 267.577 254.864 268.02 254.172C268.552 253.341 268.731 252.331 268.793 251.341C269.615 238.736 257.747 239.656 249.443 242.667Z" fill="#60B141"/>
<path d="M318.237 323.497C318.997 325.255 320.917 326.301 322.817 326.474C324.717 326.647 326.616 326.079 328.378 325.352C330.907 324.314 333.29 322.936 335.459 321.268C336.502 320.465 337.518 319.565 338.077 318.375C338.651 317.17 338.699 315.786 338.741 314.45C338.782 312.989 338.803 311.432 338.029 310.193C337.283 308.981 335.922 308.31 334.609 307.763C324.24 303.499 313.152 311.778 318.237 323.497Z" fill="#60B141"/>
<path d="M291.771 379.553C275.087 388.06 256.2 392.864 236.2 392.864C234.936 392.857 233.679 392.836 232.421 392.795C231.952 392.545 231.496 392.269 231.054 391.957C228.159 389.894 226.439 385.575 228.56 382.716C229.285 381.733 230.356 381.069 231.399 380.432C237.216 376.853 243.102 373.24 249.582 371.101C252.02 370.291 254.708 369.702 257.126 370.554C258.424 371.011 259.55 371.855 260.835 372.361C266.327 374.527 272.282 370.021 278.175 370.395C283.163 370.713 288.372 374.97 291.771 379.553Z" fill="#60B141"/>
<path opacity="0.1" d="M222.149 155.324C184.865 159.948 149.549 192.08 149.549 223.472C149.549 254.864 180.119 287.024 222.909 278.6C265.706 270.176 302.382 269.414 304.676 223.472C306.976 177.523 265.167 149.987 222.149 155.324Z" fill="white"/>
<path opacity="0.2" d="M358.864 269.955C358.864 317.793 331.59 359.25 291.771 379.553C275.087 388.06 256.2 392.864 236.2 392.864C234.936 392.857 233.679 392.836 232.421 392.795C169.127 390.69 117.55 340.436 114.061 276.669C133.674 306.697 180.934 361.389 253.485 335.265C324.288 309.764 348.163 276.281 357.158 249.548C358.291 256.29 358.864 263.115 358.864 269.955Z" fill="#A9CE72"/>
<path d="M155.959 241.532C155.959 241.532 160.822 247.216 165.147 246.406C169.472 245.596 171.365 245.596 174.605 246.136C177.845 246.676 182.977 241.802 182.977 241.802C182.977 241.802 178.653 242.072 174.874 239.906C171.088 237.739 168.656 237.739 165.416 239.366C162.17 240.986 155.959 241.532 155.959 241.532Z" fill="#986A44"/>
<path d="M168.926 239.636C170.535 230.014 162.031 229.716 156.767 223.389C155.648 222.047 153.237 218.634 153.257 214.183C155.496 216.426 162.28 218.952 164.877 221.493C166.97 223.542 167.71 227.723 167.848 227.723C167.882 227.723 167.799 226.47 167.848 226.366C168.345 225.369 168.435 224.102 168.926 223.12C172.359 216.239 166.452 210.985 174.328 203.087C174.618 202.796 175.834 201.19 176.221 201.19C176.262 201.19 175.682 204.748 175.682 204.984C175.682 211.656 178.652 213.65 175.412 220.143C174.597 221.777 172.069 223.493 171.088 224.476C170.563 225.002 170.024 227.169 170.549 226.643C176.393 220.787 183.398 226.345 190.003 225.016C190.41 224.933 193.581 222.379 193.789 222.58C194.321 223.113 190.113 228.429 189.464 229.079C185.043 233.51 174.514 231.876 173.796 232.596C171.958 234.437 171.364 235.725 171.364 239.366C171.364 239.712 172 240.356 171.903 240.446C171.274 241.069 169.257 239.802 168.926 239.636Z" fill="#3F7C25"/>
<path d="M264.468 300.488C264.468 300.488 269.331 306.171 273.656 305.361C277.98 304.551 279.873 304.551 283.113 305.091C286.353 305.631 291.486 300.758 291.486 300.758C291.486 300.758 287.162 301.028 283.383 298.861C279.597 296.695 277.165 296.695 273.925 298.321C270.685 299.948 264.468 300.488 264.468 300.488Z" fill="#986A44"/>
<path d="M280.184 298.322C278.574 288.7 287.078 288.402 292.342 282.075C293.462 280.732 295.873 277.32 295.852 272.869C293.614 275.112 286.83 277.638 284.232 280.179C282.139 282.228 281.4 286.409 281.262 286.409C281.227 286.409 281.31 285.156 281.262 285.052C280.764 284.055 280.674 282.788 280.184 281.805C276.75 274.925 282.657 269.671 274.782 261.773C274.491 261.482 273.276 259.876 272.889 259.876C272.847 259.876 273.427 263.434 273.427 263.669C273.427 270.342 270.457 272.336 273.697 278.829C274.512 280.462 277.041 282.179 278.022 283.162C278.547 283.688 279.085 285.855 278.56 285.329C272.716 279.473 265.711 285.031 259.107 283.702C258.699 283.619 255.528 281.065 255.321 281.265C254.789 281.798 258.996 287.115 259.645 287.765C264.067 292.195 274.595 290.562 275.313 291.282C277.151 293.123 277.745 294.411 277.745 298.052C277.745 298.398 277.11 299.041 277.206 299.131C277.835 299.754 279.852 298.488 280.184 298.322Z" fill="#3F7C25"/>
<path d="M25.7021 400.347H478.149C478.149 400.347 453.334 387.991 429.984 389.943C406.634 391.895 393.494 394.498 378.904 390.593C364.306 386.689 326.359 379.539 291.334 382.792C256.309 386.046 222.734 393.196 205.222 390.593C187.709 387.991 168.732 382.142 141.002 384.094C113.272 386.046 104.512 393.196 88.4573 391.244C72.4093 389.292 31.5397 391.895 25.7021 400.347Z" fill="#2EC27E"/>
<path d="M451.281 396.52C451.281 379.811 451.018 374.69 450.597 366.338C450.172 357.986 449.649 357.986 449.224 366.338C448.798 374.69 448.54 379.815 448.54 396.52H449.913H451.281Z" fill="#A9CE72"/>
<path d="M449.909 358.909C451.427 358.909 452.655 360.14 452.655 361.66C452.655 363.181 451.427 364.412 449.909 364.412C448.391 364.412 447.163 363.181 447.163 361.66C447.163 360.14 448.391 358.909 449.909 358.909Z" fill="#60B141"/>
<path d="M451.369 353.999C451.369 360.54 450.707 361.586 449.891 361.586C449.075 361.586 448.413 360.54 448.413 353.999C448.413 347.458 449.075 337.897 449.891 337.897C450.707 337.892 451.369 347.453 451.369 353.999ZM442.622 364.092C448.277 360.821 449.509 360.869 449.917 361.582C450.325 362.294 449.751 363.388 444.096 366.659C438.441 369.929 429.846 374.136 429.438 373.428C429.03 372.721 436.967 367.362 442.622 364.092ZM455.717 366.632C450.062 363.362 449.487 362.263 449.895 361.555C450.303 360.847 451.541 360.795 457.191 364.065C462.846 367.336 470.778 372.69 470.37 373.398C469.966 374.11 461.372 369.907 455.717 366.632Z" fill="#A9CE72"/>
<path d="M449.908 360.627C450.479 360.627 450.939 361.089 450.939 361.66C450.939 362.232 450.479 362.693 449.908 362.693C449.338 362.693 448.877 362.232 448.877 361.66C448.877 361.093 449.338 360.627 449.908 360.627Z" fill="#60B141"/>
<path d="M44.3158 324.052L42.9821 332.82L72.8517 368.72L76.0949 338.945L106.396 339.858L106.627 344.694C108.047 343.934 109.975 343.088 112.278 342.56C113.516 342.281 114.859 342.098 116.289 342.079C120.568 342.012 125.577 343.358 130.432 347.751C137.149 353.828 137.293 363.961 132.639 372.316C128.36 379.998 119.964 386.382 108.69 387.324L109.121 396.284L69.9828 395.102L70.9231 386.43C63.7939 376.489 40.9575 339.877 39.0385 336.801L29.4146 336.272L44.3158 324.052ZM117.258 344.838C115.704 344.79 114.236 344.973 112.902 345.28C110.119 345.915 107.97 347.069 106.78 347.809L108.555 384.507C118.87 383.613 126.373 377.825 130.202 370.941C134.395 363.423 134.155 354.866 128.561 349.809C124.56 346.184 120.683 344.944 117.258 344.838Z" fill="#006600"/>
<mask id="mask0_1998_8471" style="mask-type:luminance" maskUnits="userSpaceOnUse" x="29" y="324" width="107" height="73">
<path d="M44.3158 324.052L42.9821 332.82L72.8517 368.72L76.0949 338.945L106.396 339.858L106.627 344.694C108.047 343.934 109.975 343.088 112.278 342.56C113.516 342.281 114.859 342.098 116.289 342.079C120.568 342.012 125.577 343.358 130.432 347.751C137.149 353.828 137.293 363.961 132.639 372.316C128.36 379.998 119.964 386.382 108.69 387.324L109.121 396.284L69.9828 395.102L70.9231 386.43C63.7939 376.489 40.9575 339.877 39.0385 336.801L29.4146 336.272L44.3158 324.052ZM117.258 344.838C115.704 344.79 114.236 344.973 112.902 345.28C110.119 345.915 107.97 347.069 106.78 347.809L108.555 384.507C118.87 383.613 126.373 377.825 130.202 370.941C134.395 363.423 134.155 354.866 128.561 349.809C124.56 346.184 120.683 344.944 117.258 344.838Z" fill="white"/>
</mask>
<g mask="url(#mask0_1998_8471)">
<path d="M26.0664 328.532L39.6244 334.561C39.6244 334.561 63.8329 374.527 68.026 375.566C72.219 376.604 72.8523 368.711 72.8523 368.711L70.9237 386.42L21.8638 338.608L26.0664 328.532Z" fill="#054205"/>
</g>
<mask id="mask1_1998_8471" style="mask-type:luminance" maskUnits="userSpaceOnUse" x="29" y="324" width="107" height="73">
<path d="M44.3158 324.052L42.9821 332.82L72.8517 368.72L76.0949 338.945L106.396 339.858L106.627 344.694C108.047 343.934 109.975 343.088 112.278 342.56C113.516 342.281 114.859 342.098 116.289 342.079C120.568 342.012 125.577 343.358 130.432 347.751C137.149 353.828 137.293 363.961 132.639 372.316C128.36 379.998 119.964 386.382 108.69 387.324L109.121 396.284L69.9828 395.102L70.9231 386.43C63.7939 376.489 40.9575 339.877 39.0385 336.801L29.4146 336.272L44.3158 324.052ZM117.258 344.838C115.704 344.79 114.236 344.973 112.902 345.28C110.119 345.915 107.97 347.069 106.78 347.809L108.555 384.507C118.87 383.613 126.373 377.825 130.202 370.941C134.395 363.423 134.155 354.866 128.561 349.809C124.56 346.184 120.683 344.944 117.258 344.838Z" fill="white"/>
</mask>
<g mask="url(#mask1_1998_8471)">
<path d="M106.626 344.685L108.689 387.314L126.738 387.132L112.508 335.253L106.626 344.685Z" fill="#054205"/>
</g>
<path d="M87.3714 360.952C88.585 360.952 89.5921 362.249 90.5314 363.565C90.9109 364.098 91.375 364.83 91.7789 365.51L90.4581 366.067L94.8676 366.398L97.5128 363.085L95.8633 363.783C94.5933 361.861 93.188 360.95 92.2974 360.95H87.3714V360.952ZM83.721 376.835C83.1141 375.781 83.7303 374.26 84.3992 372.786C84.6697 372.189 85.0699 371.421 85.4569 370.73L86.5992 371.596L84.681 367.605L80.4951 366.967L81.923 368.049C80.8953 370.112 80.8126 371.788 81.2579 372.56L83.721 376.835ZM99.2714 372.061C98.6645 373.115 97.0413 373.339 95.4331 373.495C94.7811 373.559 93.9188 373.595 93.1278 373.606L93.3063 372.181L90.8151 375.841L92.3557 379.792L92.5774 378.011C94.8751 377.87 96.3631 377.106 96.8083 376.332L99.2714 372.061Z" fill="#A9CE72"/>
<path d="M82.7444 365.517L86.8589 367.285C86.8589 367.285 88.2284 364.841 89.1359 363.567C90.0753 362.249 91.0804 360.954 92.296 360.954H87.3718C86.2389 360.952 84.4108 362.503 82.7444 365.517ZM89.9794 378.567L89.4497 374.113C89.4497 374.113 86.6522 374.146 85.0966 373.996C83.4884 373.84 81.8651 373.614 81.2583 372.561L83.7214 376.835C84.2869 377.815 86.5413 378.629 89.9794 378.567ZM97.641 365.764L94.0564 368.45C94.0564 368.45 95.4842 370.861 96.1305 372.285C96.7993 373.759 97.4174 375.28 96.8087 376.334L99.2718 372.061C99.8392 371.078 99.4127 368.715 97.641 365.764Z" fill="#A9CE72"/>
<path d="M171.971 244.19C172.541 242.467 183.629 217.198 183.629 217.198C183.629 217.198 184.962 221.215 184.199 224.089C183.436 226.963 179.234 235.576 179.234 235.576C179.234 235.576 177.901 235.19 177.129 236.728C176.366 238.257 172.927 244.19 172.927 244.19" fill="#DEDDDA"/>
<path d="M178.515 244.19C177.944 242.467 166.857 217.198 166.857 217.198C166.857 217.198 165.524 221.215 166.287 224.089C167.05 226.963 171.252 235.576 171.252 235.576C171.252 235.576 172.585 235.19 173.357 236.728C174.12 238.257 177.558 244.19 177.558 244.19" fill="white"/>
<path d="M203.049 275.338L194.909 273.369C194.909 273.369 188.532 258.577 186.628 251.361C184.699 248.101 180.988 244.251 179.383 244.822C175.436 246.237 177.19 250.825 178.848 251.722C180.506 252.609 184.076 251.37 184.409 254.323C184.743 257.285 186.427 274.749 187.374 277.579C188.313 280.409 201.005 283.881 201.005 283.881L203.049 275.338Z" fill="#F4B58E"/>
<path d="M223.004 387.126C223.004 387.126 223.275 389.965 225.161 391.318C227.056 392.672 233.81 394.702 234.617 396.328C235.424 397.954 231.915 397.682 229.486 397.813C227.056 397.945 224.214 397.682 223.135 397.813C222.056 397.945 219.083 398.622 218.539 397.137C217.995 395.651 219.346 393.621 219.758 391.854C220.17 390.088 219.626 387.662 219.626 387.662L223.004 387.126Z" fill="#F4B58E"/>
<path d="M226.881 392.25C229.609 393.507 233.977 395.054 234.617 396.337C235.424 397.963 231.916 397.691 229.486 397.823C227.056 397.954 224.214 397.691 223.135 397.823C222.056 397.954 219.083 398.631 218.539 397.146C218.136 396.03 218.793 394.614 219.311 393.235C220.153 393.419 221.188 393.613 222.32 393.762C224.32 394.034 225.986 392.98 226.881 392.25Z" fill="#1B404E"/>
<path d="M171.971 241.896L166.05 255.677L168.34 256.828L174.453 242.66L171.971 241.896Z" fill="#FF5F3A"/>
<path d="M183.847 276.199L175.707 274.231C175.707 274.231 173.137 261.24 174.462 253.884C174.085 250.113 171.199 244.734 169.497 244.699C164.559 244.603 164.98 249.226 166.111 250.729C167.243 252.24 170.997 252.609 170.059 255.439C169.12 258.27 167.234 275.602 168.181 278.432C169.12 281.262 181.812 284.733 181.812 284.733L183.847 276.199Z" fill="#F4B58E"/>
<path d="M215.434 282.097C215.434 282.097 215.82 279.513 211.039 277.404C206.259 275.294 197.479 273.765 197.479 273.765C197.479 273.765 193.944 274.626 194.514 279.504C203.022 283.723 215.434 282.097 215.434 282.097Z" fill="#E5A50A"/>
<path d="M208.189 278.625C208.189 278.625 206.399 279.284 205.741 278.44C205.083 277.597 204.987 273.914 204.987 273.914L199.25 274.011C199.25 274.011 198.97 278.247 198.312 278.625C197.654 279.003 195.303 279.003 195.303 279.003C195.303 279.003 196.338 283.617 198.593 283.995C200.847 284.373 204.426 284.276 206.118 283.239C207.811 282.202 208.189 278.625 208.189 278.625Z" fill="#F4B58E"/>
<path d="M186.392 387.126C186.392 387.126 186.12 389.965 184.234 391.318C182.339 392.672 175.585 394.702 174.778 396.328C173.971 397.954 177.48 397.682 179.91 397.813C182.339 397.945 185.181 397.682 186.26 397.813C187.339 397.945 190.313 398.622 190.856 397.137C191.4 395.651 190.049 393.621 189.637 391.854C189.225 390.088 189.769 387.662 189.769 387.662L186.392 387.126Z" fill="#F4B58E"/>
<path d="M218.724 317.824C218.724 317.824 220.601 334.216 220.978 342.697C221.355 351.179 223.802 387.97 223.802 387.97C223.802 387.97 221.171 389.666 218.539 387.97C216.548 381.343 213.075 361.831 212.084 357.313C210.496 350.089 208.847 343.849 208.092 341.774C206.364 337.011 204.303 337.96 202.803 342.179C201.426 346.046 197.637 358.904 196.514 363.861C195.067 370.216 193.084 380.473 190.137 389.139C188.725 389.139 186.708 389.095 185.725 387.697C186.497 376.623 187.637 360.926 188.023 358.21C188.979 351.495 190.707 328.582 191.462 325.374C192.216 322.175 192.777 318.589 192.777 318.589L218.724 317.824Z" fill="#FF5F3A"/>
<path d="M192.146 319.635L189.505 292.564C189.067 288.047 187.655 286.913 185.304 286.157C182.953 285.401 177.874 283.898 177.874 283.898C175.032 283.986 176.059 273.817 178.181 274.477C178.181 274.477 185.918 276.182 188.225 276.56C190.532 276.937 194.61 277.966 196.724 278.344C197.356 280.321 198.47 279.776 202.663 279.838C206.908 279.908 207.294 280.04 208.04 278.625C215.153 278.133 216.776 278.783 217.846 297.847C217.802 300.483 219.355 314.739 219.451 318.51C219.557 322.271 192.146 319.635 192.146 319.635Z" fill="#FFC407"/>
<path d="M207.434 266.47C207.434 266.47 207.715 270.24 206.776 272.78C205.838 275.32 203.583 275.98 202.171 276.173C200.759 276.357 198.601 275.698 197.943 274.38C197.285 273.062 196.627 268.632 196.812 265.714C196.996 262.796 199.259 261.188 202.268 261.003C205.276 260.818 207.346 263.077 207.434 266.47Z" fill="#F4B58E"/>
<path d="M210.785 267.797C210.145 270.126 209.057 272.068 207.118 274.591C205.057 277.271 200.838 275.092 199.128 272.982C198.417 272.103 198.54 271.295 198.189 270.249C197.707 268.799 198.25 267.05 197.768 265.362C197.259 263.587 196.847 263.886 196.68 262.506C196.619 262.014 196.417 259.474 197.171 258.015C197.864 256.661 198.803 255.642 200.917 254.991C202.285 254.56 214.513 254.306 210.785 267.797Z" fill="#63452C"/>
<path d="M182.515 392.25C179.787 393.507 175.418 395.054 174.778 396.337C173.971 397.963 177.48 397.691 179.91 397.823C182.339 397.954 185.181 397.691 186.26 397.823C187.339 397.954 190.313 398.631 190.856 397.146C191.26 396.03 190.602 394.614 190.084 393.235C189.242 393.419 188.207 393.613 187.076 393.762C185.076 394.034 183.409 392.98 182.515 392.25Z" fill="#1B404E"/>
<path d="M178.515 241.896L184.435 255.677L182.146 256.828L176.032 242.66L178.515 241.896Z" fill="#FF5F3A"/>
<path d="M281.186 221.174C281.186 221.174 282.712 216.966 286.726 215.429C290.74 213.899 292.46 217.153 293.987 217.533C295.513 217.914 297.614 216.578 300.101 218.876C302.581 221.174 293.026 226.151 281.186 221.174Z" fill="#986A44"/>
<path d="M296.273 180.209C292.55 188.204 294.166 191.506 292.108 195.909C290.049 200.311 289.517 204.52 289.517 204.52C289.517 204.52 287.714 199.39 286.332 197.051C284.357 193.7 281.296 192.891 276.778 191.499C276.447 201.259 287.058 203.751 288.826 207.773C290.602 211.795 288.474 218.108 288.474 218.108C290.781 219.686 292.495 218.177 292.481 218.302C292.481 218.302 291.507 213.325 291.23 210.265C291.223 210.182 291.217 210.106 291.21 210.023C292.716 209.905 296.184 209.538 298.94 208.445C302.567 207.012 305.821 210.355 305.821 210.355C305.821 210.355 305.441 204.804 298.94 204.132C294.387 203.661 292.094 205.87 291.127 207.233C291.196 205.309 291.603 203.412 292.681 201.259C294.318 198.006 295.645 198.331 298.014 194.988C299.14 193.417 301.779 186.903 296.273 180.209Z" fill="#3F7C25"/>
<path d="M464.022 148.168C464.022 157.128 460.4 165.242 454.535 171.118C451.603 174.056 446.101 182.843 442.225 188.892H421.046C417.169 182.852 411.668 174.056 408.736 171.118C402.871 165.242 399.249 157.137 399.249 148.168C399.249 130.248 413.747 115.721 431.631 115.721C449.515 115.721 464.022 130.248 464.022 148.168Z" fill="#A3CB69"/>
<path d="M457.095 148.168C457.095 157.128 454.245 165.242 449.642 171.118C447.336 174.056 442.579 182.843 439.529 188.892H423.742C420.692 182.852 415.935 174.056 413.629 171.118C409.017 165.242 406.167 157.137 406.167 148.168C406.167 130.248 417.569 115.721 431.631 115.721C445.693 115.721 457.095 130.248 457.095 148.168Z" fill="#D5E8AA"/>
<path d="M448.217 148.168C448.217 157.128 446.365 165.242 443.36 171.118C441.862 174.056 440.074 182.843 438.086 188.892H425.177C423.189 182.852 421.409 174.056 419.902 171.118C416.897 165.242 415.045 157.137 415.045 148.168C415.045 130.248 422.471 115.721 431.631 115.721C440.791 115.721 448.217 130.248 448.217 148.168Z" fill="#A3CB69"/>
<path d="M439.348 148.168C439.348 157.128 438.485 165.242 437.087 171.118C436.388 174.056 435.562 182.843 434.636 188.892H428.635C427.709 182.852 426.883 174.056 426.184 171.118C424.786 165.242 423.924 157.137 423.924 148.168C423.924 130.248 427.374 115.721 431.631 115.721C435.889 115.721 439.348 130.248 439.348 148.168Z" fill="#D5E8AA"/>
<path d="M423.215 200.599C422.961 200.599 422.734 200.399 422.716 200.145L422.062 193.204C422.035 192.922 422.244 192.676 422.516 192.649C422.798 192.622 423.043 192.831 423.07 193.104L423.724 200.044C423.751 200.326 423.542 200.572 423.27 200.599C423.243 200.599 423.224 200.599 423.215 200.599Z" fill="#A3CB69"/>
<path d="M440.056 200.599C440.038 200.599 440.02 200.599 440.011 200.599C439.729 200.572 439.529 200.326 439.557 200.044L440.21 193.104C440.238 192.831 440.474 192.622 440.764 192.649C441.046 192.676 441.245 192.922 441.218 193.204L440.564 200.145C440.528 200.408 440.31 200.599 440.056 200.599Z" fill="#A3CB69"/>
<path d="M427.373 200.599C427.101 200.599 426.883 200.39 426.874 200.117L426.602 193.177C426.593 192.895 426.811 192.667 427.083 192.649C427.355 192.64 427.591 192.858 427.61 193.131L427.882 200.072C427.891 200.354 427.673 200.581 427.401 200.599C427.392 200.599 427.383 200.599 427.373 200.599Z" fill="#A3CB69"/>
<path d="M435.889 200.599C435.88 200.599 435.871 200.599 435.871 200.599C435.589 200.59 435.372 200.354 435.39 200.072L435.662 193.131C435.671 192.849 435.934 192.64 436.189 192.649C436.47 192.658 436.688 192.895 436.67 193.177L436.397 200.117C436.388 200.39 436.161 200.599 435.889 200.599Z" fill="#A3CB69"/>
<path d="M422.553 200.099H440.709L439.801 209.969H423.461L422.553 200.099Z" fill="#E8F4D3"/>
<path d="M420.601 188.356H442.661L441.599 193.159H421.672L420.601 188.356Z" fill="#3F7C25"/>
<path d="M458.011 271.498C460.022 273.374 459.179 275.506 459.179 275.506C459.179 275.506 455.455 271.706 450.557 273.838C453.251 275.146 458.239 279.583 458.239 279.583L453.673 281.231C453.673 281.231 457.244 281.459 457.362 282.636C457.479 283.813 458.377 284.906 458.377 284.906L459.621 281.618C459.621 281.618 462.294 280.753 462.806 279.916C463.31 279.071 465.97 278.012 467.061 279.092C466.281 277.195 463.248 276.51 462.55 277.375C462.902 274.959 461.825 272.101 458.011 271.498ZM444.319 285.142C445.68 286.409 445.107 287.848 445.107 287.848C445.107 287.848 442.585 285.273 439.269 286.72C441.093 287.606 444.464 290.603 444.464 290.603L441.376 291.718C441.376 291.718 443.794 291.877 443.87 292.666C443.953 293.462 444.561 294.203 444.561 294.203L445.404 291.981C445.404 291.981 447.214 291.399 447.559 290.825C447.904 290.257 449.701 289.537 450.44 290.264C449.908 288.984 447.863 288.52 447.386 289.101C447.621 287.481 446.896 285.55 444.319 285.142ZM458.605 294.611C458.605 294.611 456.961 292.936 454.799 293.878C455.987 294.452 458.191 296.411 458.191 296.411L456.174 297.138C456.174 297.138 457.749 297.242 457.804 297.761C457.859 298.28 458.253 298.765 458.253 298.765L458.806 297.311C458.806 297.311 459.987 296.93 460.208 296.556C460.429 296.183 461.604 295.719 462.087 296.19C461.742 295.352 460.408 295.054 460.098 295.435C460.25 294.376 459.773 293.116 458.094 292.846C458.978 293.67 458.605 294.611 458.605 294.611ZM441.535 296.889C442.419 297.719 442.053 298.654 442.053 298.654C442.053 298.654 440.409 296.979 438.247 297.92C439.435 298.495 441.639 300.454 441.639 300.454L439.621 301.18C439.621 301.18 441.196 301.284 441.252 301.796C441.307 302.316 441.701 302.8 441.701 302.8L442.253 301.347C442.253 301.347 443.435 300.966 443.656 300.592C443.877 300.218 445.051 299.754 445.535 300.225C445.189 299.388 443.856 299.09 443.545 299.464C443.69 298.418 443.214 297.159 441.535 296.889Z" fill="#E8F4D3"/>
<path d="M183.17 140.931C182.452 139.442 183.011 137.746 182.783 136.037C181.637 127.252 171.882 122.642 165.996 130.506C157.9 113.782 141.893 122.012 142.84 138.231C128.09 130.97 111.338 152.968 134.232 153.238C137.327 164.646 145.513 157.918 151.06 155.218C157.844 167.325 173.305 164.03 179.032 152.885C186.438 160.915 206.479 145.465 192.483 140.605C189.671 139.615 185.954 140.965 183.17 140.931Z" fill="#E8F4D3"/>
<path d="M195.999 142.626C191.64 151.265 184.518 151.258 178.936 146.288C178.625 151.272 170.846 157.821 162.142 157.821C153.43 157.821 151.254 147.846 151.254 147.846C151.254 147.846 146.28 153.141 141.61 154.076C136.947 155.01 135.704 151.895 142.854 147.216C134.198 150.421 127.379 147.693 123.331 145.035C121.949 149.078 124.512 153.107 134.232 153.224C137.327 164.632 145.513 157.904 151.061 155.204C157.845 167.311 173.306 164.016 179.033 152.871C185.595 159.994 202.051 148.683 195.999 142.626Z" fill="#D7E8B1"/>
<path d="M148.511 178.172C144.477 183.792 141.575 193.712 147.848 193.324C154.936 192.895 148.511 178.172 148.511 178.172Z" fill="#E8F4D3"/>
<path d="M181.692 169.339C177.657 174.96 174.756 184.879 181.029 184.492C188.117 184.056 181.692 169.339 181.692 169.339Z" fill="#E8F4D3"/>
<path d="M161.437 166.134C157.403 171.755 154.501 181.674 160.774 181.287C167.862 180.857 161.437 166.134 161.437 166.134Z" fill="#E8F4D3"/>
<path d="M165.989 189.081C163.723 192.238 162.093 197.81 165.616 197.595C169.602 197.353 165.989 189.081 165.989 189.081Z" fill="#E8F4D3"/>
<path d="M193.733 156.845C191.467 160.001 189.837 165.574 193.36 165.359C197.346 165.117 193.733 156.845 193.733 156.845Z" fill="#E8F4D3"/>
<path d="M135.599 165.075C133.334 168.231 131.703 173.804 135.226 173.589C139.213 173.347 135.599 165.075 135.599 165.075Z" fill="#E8F4D3"/>
<path d="M95.2484 155.712C92.0291 162.322 86.4403 167.002 80.0018 169.224C76.7825 170.331 67.9606 181.905 64.5133 181.718C61.066 181.531 57.5912 180.666 54.2959 179.053C50.9937 177.44 48.182 175.232 45.9092 172.623C43.6433 170.013 47.3116 155.919 46.2063 152.694C43.9887 146.242 44.2305 138.953 47.4497 132.336C53.8883 119.108 69.812 113.618 83.0138 120.077C96.2156 126.535 101.694 142.491 95.2484 155.712Z" fill="#F6D32D"/>
<path d="M46.4961 177.537C55.0555 170.061 61.6944 160.405 65.6183 149.724C66.3161 147.821 66.9378 145.876 67.2556 143.875C67.373 143.148 67.4421 142.359 67.1036 141.701C66.2539 140.026 63.6287 140.504 62.254 141.785C59.6703 144.187 59.1521 148.43 60.8723 151.517C62.5925 154.597 66.2884 156.369 69.7909 156.023C73.3004 155.684 76.492 153.372 78.1638 150.264C78.5162 149.607 78.8063 148.817 78.5092 148.132C78.1362 147.274 76.9618 147.025 76.0913 147.371C75.2209 147.717 74.5991 148.485 74.0327 149.226C66.7858 158.792 62.3507 170.47 61.4181 182.438" stroke="#E5A50A" stroke-width="3.8517" stroke-miterlimit="10"/>
<path d="M55.6688 196.306C57.0338 193.756 54.9484 189.973 51.0109 187.857C47.0734 185.742 42.775 186.094 41.41 188.645C40.045 191.195 42.1304 194.978 46.0679 197.094C50.0053 199.209 54.3038 198.857 55.6688 196.306Z" fill="#006600"/>
<path d="M45.2113 170.324L41.3564 189.284L55.8501 196.158L67.0347 180.673L45.2113 170.324Z" fill="#3F7C25"/>
<path d="M62.7239 187.997L42.2546 178.292C41.5361 177.953 41.2252 177.088 41.5637 176.368L41.9713 175.495C42.3098 174.776 43.1734 174.464 43.8918 174.803L64.3612 184.508C65.0796 184.847 65.3905 185.713 65.052 186.432L64.6444 187.305C64.3059 188.031 63.4424 188.336 62.7239 187.997Z" fill="#006600"/>
<path d="M58.6549 193.569L40.5343 184.979C39.8159 184.639 39.505 183.774 39.8435 183.054L40.2511 182.182C40.5896 181.462 41.4531 181.151 42.1716 181.49L60.2921 190.08C61.0106 190.419 61.3215 191.285 60.983 192.005L60.5754 192.877C60.2369 193.604 59.3733 193.915 58.6549 193.569Z" fill="#006600"/>
<path opacity="0.45" d="M66.7515 123.019C69.7221 122.804 72.6788 123.565 75.4698 124.604C75.9534 124.784 76.4853 125.012 76.7064 125.476C77.0518 126.203 76.4784 127.033 75.8705 127.553C72.9621 130.038 68.7825 130.218 65.2731 131.734C64.002 132.28 62.7999 133.014 61.4735 133.423C60.1471 133.824 58.6066 133.852 57.4736 133.056C57.1766 132.848 56.9071 132.571 56.8173 132.225C56.7482 131.955 56.7897 131.664 56.838 131.387C57.7569 126.597 61.964 123.358 66.7515 123.019Z" fill="#FCF7B0"/>
<path d="M51.1257 263.73C51.1257 272.4 44 278.01 44 278.01C44 278.01 52.6527 285.15 53.6707 291.78C53.6707 291.78 58.7605 280.39 63.3413 277.76C63.3413 277.75 51.1257 268.83 51.1257 263.73Z" fill="#F6D32D"/>
<path d="M74.1695 285.74C74.1695 290.2 70.5068 293.08 70.5068 293.08C70.5068 293.08 74.9579 296.75 75.4769 300.16C75.4769 300.16 78.0917 294.31 80.447 292.95C80.437 292.95 74.1695 288.37 74.1695 285.74Z" fill="#F6D32D"/>
<path d="M74.489 257C74.489 260.3 71.7744 262.43 71.7744 262.43C71.7744 262.43 75.0678 265.15 75.4571 267.67C75.4571 267.67 77.3932 263.34 79.1397 262.33C79.1397 262.33 74.489 258.94 74.489 257Z" fill="#F6D32D"/>
<path d="M63.6008 313.46C63.6008 316.76 60.8862 318.89 60.8862 318.89C60.8862 318.89 64.1796 321.61 64.5689 324.13C64.5689 324.13 66.505 319.8 68.2515 318.8C68.2515 318.79 63.6008 315.4 63.6008 313.46Z" fill="#F6D32D"/>
<path d="M455.126 210.73C455.126 219.4 448 225.01 448 225.01C448 225.01 456.653 232.15 457.671 238.78C457.671 238.78 462.76 227.39 467.341 224.76C467.331 224.75 455.126 215.83 455.126 210.73Z" fill="#F6D32D"/>
<path d="M478.16 232.75C478.16 237.21 474.497 240.09 474.497 240.09C474.497 240.09 478.948 243.76 479.467 247.17C479.467 247.17 482.082 241.32 484.437 239.96C484.437 239.95 478.16 235.37 478.16 232.75Z" fill="#F6D32D"/>
<path d="M478.489 204C478.489 207.3 475.774 209.43 475.774 209.43C475.774 209.43 479.068 212.15 479.457 214.67C479.457 214.67 481.393 210.34 483.14 209.34C483.13 209.33 478.489 205.94 478.489 204Z" fill="#F6D32D"/>
<path d="M467.601 260.46C467.601 263.76 464.886 265.89 464.886 265.89C464.886 265.89 468.18 268.61 468.569 271.13C468.569 271.13 470.505 266.8 472.251 265.79C472.241 265.79 467.601 262.4 467.601 260.46Z" fill="#F6D32D"/>
</svg>
