<svg width="541" height="734" viewBox="0 0 541 734" fill="none" xmlns="http://www.w3.org/2000/svg">
<g clip-path="url(#clip0_1987_6077)">
<path opacity="0.51" d="M266.67 1L15.1499 190.38V732.9H518.2V190.38L266.67 1Z" fill="#E9D7B1"/>
<g opacity="0.51">
<path d="M177.45 1H15.1499V112.48L177.45 1Z" fill="#E9D7B1"/>
<path d="M355.9 1H518.2V112.48L355.9 1Z" fill="#E9D7B1"/>
</g>
<path d="M518.2 732.5V190.38L266.67 1L15.1499 190.38V732.5" stroke="white" stroke-width="2" stroke-miterlimit="10" stroke-linecap="round" stroke-linejoin="round"/>
<path d="M15.1499 190.38H518.2" stroke="white" stroke-miterlimit="10" stroke-linecap="round" stroke-linejoin="round"/>
<path d="M200.38 686.21V50.9099H333.7V686.21" stroke="white" stroke-miterlimit="10" stroke-linecap="round" stroke-linejoin="round"/>
<path d="M414.22 112.48H119.13" stroke="white" stroke-miterlimit="10" stroke-linecap="round" stroke-linejoin="round"/>
<path d="M15.1499 277.14H518.2" stroke="white" stroke-miterlimit="10" stroke-linecap="round" stroke-linejoin="round"/>
<path d="M15.1499 387.1H518.2" stroke="white" stroke-miterlimit="10" stroke-linecap="round" stroke-linejoin="round"/>
<path d="M15.1499 487H518.2" stroke="white" stroke-miterlimit="10" stroke-linecap="round" stroke-linejoin="round"/>
<path d="M15.1499 586.89H518.2" stroke="white" stroke-miterlimit="10" stroke-linecap="round" stroke-linejoin="round"/>
<path d="M15.1499 686.78H518.2" stroke="white" stroke-miterlimit="10" stroke-linecap="round" stroke-linejoin="round"/>
<path d="M96.23 129.34V686.21" stroke="white" stroke-miterlimit="10" stroke-linecap="round" stroke-linejoin="round"/>
<path d="M437.12 129.34V686.21" stroke="white" stroke-miterlimit="10" stroke-linecap="round" stroke-linejoin="round"/>
<path d="M265.62 732.9C380.959 732.9 474.46 722.45 474.46 709.56C474.46 696.67 380.959 686.22 265.62 686.22C150.281 686.22 56.7803 696.67 56.7803 709.56C56.7803 722.45 150.281 732.9 265.62 732.9Z" fill="#E9D7B1"/>
<path d="M326.54 391.75C302.51 387.1 260.15 420.9 242.64 448.6C225.13 476.3 219.84 487 219.84 487C219.84 487 104.99 510.51 96.2302 519.06C87.4702 527.61 143.88 542.89 143.88 542.89C143.88 542.89 234.3 538.61 255.68 519.68C277.06 500.74 339.38 417.66 339.38 417.66L326.54 391.75Z" fill="#D3976E"/>
<path d="M186.06 488.43C200.38 501.14 213.43 537.39 213.43 537.39L141.63 552.05L88.8003 527.22V520.24C119.32 509.08 151.63 498.44 186.06 488.43Z" fill="#D39F3F"/>
<path d="M243.931 509.3C249.081 510.78 253.691 514.15 256.911 518.55C279.351 497.68 339.371 417.65 339.371 417.65L326.541 391.76C302.511 387.11 260.151 420.91 242.641 448.61C232.401 464.8 226.351 475.17 223.081 481.01C230.911 489.96 238.281 498.99 243.931 509.3Z" fill="#D67055"/>
<path d="M217.19 482.81C206.8 486.99 219.43 540.63 228.8 539.01C238.17 537.39 257.31 533.35 260.16 527.23C263.01 521.1 255.68 508.89 255.68 508.89L221.06 476.31L217.19 482.81Z" fill="#D67055"/>
<g opacity="0.64">
<path d="M217.19 482.81C206.8 486.99 219.43 540.63 228.8 539.01C238.17 537.39 257.31 533.35 260.16 527.23C263.01 521.1 255.68 508.89 255.68 508.89L221.06 476.31L217.19 482.81Z" fill="#D67055"/>
</g>
<path d="M312.7 374.77C293.97 378.14 291.52 386.07 291.52 386.07L308.53 393.77C308.53 393.77 281.68 424.59 279.64 440.88C277.6 457.17 304.96 454.7 304.96 454.7L325.32 403.48L326.95 371.7L312.7 374.77Z" fill="#D67055"/>
<path d="M303.24 391.32C284.04 409.06 278.68 434.5 277.98 446.08C277.27 457.66 286.27 441.55 286.27 441.55C292.97 423.33 299.93 405.95 308.52 393.78L303.24 391.32Z" fill="#D39F3F"/>
<path d="M117 530.97C117.92 497.06 39.6802 233.15 39.6802 233.15" stroke="#21261F" stroke-width="1.5" stroke-miterlimit="10" stroke-linecap="round" stroke-linejoin="round"/>
<path d="M195.64 175.88C162.28 223.47 106.57 433.67 125.99 527.23" stroke="#21261F" stroke-width="1.5" stroke-miterlimit="10" stroke-linecap="round" stroke-linejoin="round"/>
<path d="M347.01 233.15C214.22 309 133.58 431.79 117.08 539.01" stroke="#21261F" stroke-width="1.5" stroke-miterlimit="10" stroke-linecap="round" stroke-linejoin="round"/>
<path d="M70.51 534.64C44.74 340.36 105.09 277.14 105.09 277.14" stroke="#21261F" stroke-width="1.5" stroke-miterlimit="10" stroke-linecap="round" stroke-linejoin="round"/>
<path d="M411.16 300.96C291.28 98.44 165.9 224.69 168.34 531.84" stroke="#21261F" stroke-width="1.5" stroke-miterlimit="10" stroke-linecap="round" stroke-linejoin="round"/>
<path d="M39.6802 514.17H217.19L193.36 701.72H39.6802V514.17Z" fill="#42353B"/>
<path d="M39.6802 543.5H213.46" stroke="#EBD9A5" stroke-width="0.75" stroke-miterlimit="10" stroke-linecap="round" stroke-linejoin="round"/>
<path d="M121.05 508.88C105.58 511.01 95.1304 505.26 83.2704 505.59C71.4104 505.92 50.4204 514.17 50.4204 514.17C50.4204 514.17 52.5704 521.84 64.1104 520.24C75.6504 518.63 88.8104 514.17 88.8104 514.17L119.81 513.96L121.05 508.88Z" fill="#D39F3F"/>
<path d="M488.61 118.6L347.01 233.15" stroke="#21261F" stroke-width="0.75" stroke-miterlimit="10" stroke-linecap="round" stroke-linejoin="round"/>
<path d="M297.52 177.25C248.95 220.32 316.76 236.81 347 233.15C347 233.15 316.89 302.79 370.89 307.38C424.89 311.96 488.6 118.61 488.6 118.61C488.6 118.61 346.09 134.18 297.52 177.25ZM370.94 198.53C364.02 209.53 321.25 206.27 327.36 190.38C333.47 174.5 378.4 186.67 370.94 198.53ZM371.77 165.54C377.49 156.58 406.37 163.5 400.26 172.06C394.15 180.61 366.05 174.5 371.77 165.54ZM399.45 257.18C386.82 261.25 384.46 214.98 401.11 213.03C412.94 211.64 412.07 253.11 399.45 257.18ZM425.16 212.99C415.79 217.68 414.93 185.88 425.16 182.79C434.12 180.1 434.53 208.3 425.16 212.99Z" fill="#588157"/>
<path d="M411.16 300.96L493.67 438.42" stroke="#21261F" stroke-width="0.75" stroke-miterlimit="10" stroke-linecap="round" stroke-linejoin="round"/>
<path d="M411.16 300.96C411.16 300.96 336.29 254.65 319.52 313.79C302.11 375.19 493.67 438.42 493.67 438.42C493.67 438.42 493.67 318.37 493.67 268.89C493.67 219.41 407.49 204.74 411.16 300.96ZM449.95 264.31C460.34 266.75 452.82 319.44 437.12 311.96C424.29 305.85 439.56 261.86 449.95 264.31ZM371.01 345.72C372.71 333.05 421.85 339.45 424.93 352.89C428 366.33 369.31 358.39 371.01 345.72ZM413.29 381.6C415.73 370.6 449.33 373.66 448.72 385.27C448.12 396.89 411.17 391.16 413.29 381.6ZM457.28 352.28C446.89 348.61 460.33 320.51 470.72 325.17C481.11 329.82 467.67 355.94 457.28 352.28Z" fill="#588157"/>
<path d="M39.6802 233.15V443.92C163.19 236.81 128.43 160.76 39.6802 233.15ZM78.3402 338.88C69.6202 347.47 50.6702 316.32 64.4602 307.46C75.6802 300.24 87.0602 330.29 78.3402 338.88ZM91.3402 296.68C86.4502 303.4 51.5402 268.44 63.2402 260.64C74.2302 253.31 96.2302 289.96 91.3402 296.68Z" fill="#588157"/>
<path d="M217.19 431.09L96.23 563.05" stroke="#21261F" stroke-width="0.75" stroke-miterlimit="10" stroke-linecap="round" stroke-linejoin="round"/>
<path d="M217.19 431.09C217.19 431.09 237.96 375.19 189.39 369.69C140.82 364.19 96.2202 563.05 96.2202 563.05C96.2202 563.05 206.87 529.24 256.29 487C306.69 443.92 267.04 399.93 217.19 431.09ZM134.71 473.85C135.52 465.7 171.5 456.7 168.11 471.41C165.67 482 133.9 482 134.71 473.85ZM161.76 527.2C155.01 528.01 159.49 499.69 171.4 500.73C180.8 501.55 168.52 526.39 161.76 527.2ZM196.21 510.51C185.21 512.14 189.01 465.74 208.02 466.32C221.36 466.72 207.21 508.88 196.21 510.51Z" fill="#588157"/>
<path d="M266.67 31.71L195.64 175.88" stroke="#21261F" stroke-width="0.75" stroke-miterlimit="10" stroke-linecap="round" stroke-linejoin="round"/>
<path d="M266.67 31.71C266.67 31.71 191.59 88.24 147.52 121.43C103.45 154.61 88.4202 211.92 195.64 175.88C195.64 175.88 206.81 246.9 244.38 242.32C296.87 235.91 266.67 31.71 266.67 31.71ZM150.6 138.41C148.97 129.6 161.19 123.19 165.26 131.74C169.33 140.29 152.76 150.12 150.6 138.41ZM208.84 124C207.62 135.52 171.82 146.47 174.22 130.11C176.26 116.26 210.06 112.48 208.84 124ZM208.87 92.23C210.12 82.86 226.76 80.83 228.17 88.16C229.58 95.49 207.62 101.55 208.87 92.23ZM235.72 190.38C226.76 196.9 209.95 153.85 221.47 147.21C232.05 141.1 244.68 183.87 235.72 190.38ZM252.18 150.06C245.84 156.58 227.55 126.22 238.76 118.6C246.7 113.21 258.53 143.55 252.18 150.06Z" fill="#588157"/>
<path d="M291.28 98.44C281.2 99.97 280.89 142.73 291.28 142.43C301.66 142.12 301.36 96.91 291.28 98.44Z" fill="#588157"/>
<path d="M427.96 431.09C425.4 440.98 462.58 451.05 464 441.68C465.42 432.31 430.81 420.09 427.96 431.09Z" fill="#588157"/>
<path d="M339.37 266.14C362.28 264.92 371.79 278.66 371.77 300.96C371.75 323.26 355.57 325.16 355.57 325.16L339.37 266.14Z" fill="#D39F3F"/>
<path opacity="0.56" d="M339.37 266.14C362.28 264.92 371.79 278.66 371.77 300.96C371.75 323.26 355.57 325.16 355.57 325.16L339.37 266.14Z" fill="#D39F3F"/>
<path d="M303.33 217.27C312.75 198.12 357.13 263.23 371.77 325.17C386.41 387.11 345.28 392.29 318.4 352.63C291.52 312.98 288.1 248.21 303.33 217.27Z" fill="#D39F3F"/>
<path d="M300.96 222.75C311.88 209.53 334.88 248.01 349.26 277.14C363.64 306.27 374.6 349.61 367.67 365.51" stroke="#D39F3F" stroke-width="0.75" stroke-miterlimit="10" stroke-linecap="round" stroke-linejoin="round" stroke-dasharray="4 4"/>
<path d="M300.96 351.55C310.86 365.5 315.14 395.25 315.14 395.25L304.55 413.21L334.57 389.5L330.61 381.6L332.24 325.16L300.96 351.55Z" fill="#D3976E"/>
<path d="M300.96 351.55C310.86 365.5 315.14 395.25 315.14 395.25L304.55 413.21L334.57 389.5L330.61 381.6L332.24 325.16L300.96 351.55Z" fill="#D3976E"/>
<path d="M316.96 339.33L314.14 340.43L300.96 351.55C302.66 353.95 304.19 356.81 305.57 359.91C314.45 351.41 316.96 339.33 316.96 339.33Z" fill="#21261F"/>
<path d="M295.55 431.09C310.68 412.71 323.32 397.35 344.43 371.71L377.86 385.28L351.39 397.18L295.55 431.09Z" fill="#D67055"/>
<path d="M271.97 349.37C283.37 359.87 307.91 356.86 322.88 338.53C337.85 320.2 331.43 290.18 322.88 286.1C314.33 282.02 288.16 281.28 273.4 309.82C259.65 336.39 271.97 349.37 271.97 349.37Z" fill="#D3976E"/>
<path d="M293.55 296.99C293.4 302.64 283.16 309.51 280.72 312.72C278.28 315.93 280.72 317.91 280.72 317.91" stroke="#D67055" stroke-width="0.75" stroke-miterlimit="10" stroke-linecap="round" stroke-linejoin="round"/>
<path d="M277.97 330.04C284.69 333.34 289.58 327.23 289.58 327.23" stroke="#D67055" stroke-width="0.75" stroke-miterlimit="10" stroke-linecap="round" stroke-linejoin="round"/>
<path d="M300.15 303.93C300.54 303.33 301.37 303.18 302.17 303.47C302.56 301.94 302.36 300.74 301.13 300.71C297.56 300.63 293.58 309.4 296.63 310.02C298 310.3 299.76 308.46 300.97 306.34C300.05 305.73 299.68 304.66 300.15 303.93Z" fill="#21261F"/>
<path d="M286.56 298.13C286.95 297.53 287.78 297.38 288.58 297.66C288.97 296.13 288.77 294.93 287.54 294.9C283.97 294.82 279.99 303.59 283.04 304.21C284.41 304.49 286.17 302.65 287.38 300.53C286.46 299.93 286.09 298.85 286.56 298.13Z" fill="#21261F"/>
<path opacity="0.44" d="M288.1 321.43C295.08 321.56 303.36 318.73 300.93 314.81C299.04 311.76 292.89 314.81 292.89 314.81C292.89 314.81 292.28 309.76 289.22 310.05C285.1 310.43 286.46 318.58 288.1 321.43Z" fill="#D3976E"/>
<path opacity="0.44" d="M268.64 312.1C275.62 312.23 283.9 309.4 281.47 305.48C279.58 302.43 273.43 305.48 273.43 305.48C273.43 305.48 272.82 300.43 269.76 300.72C265.64 301.1 267 309.24 268.64 312.1Z" fill="#D3976E"/>
<path d="M321.8 333.97L317.4 336.35C320.44 342.74 327.99 343.09 331.74 342.68L331.95 335.31L321.8 333.97Z" fill="#21261F"/>
<path d="M298.95 286.22C310.66 286.6 316.97 292.78 316.97 292.78C316.97 292.78 309.74 311.95 313.1 317.76C316.46 323.56 331.83 323.26 331.85 330.59C331.87 337.92 318.77 347.93 322.2 372.73C325.63 397.53 348.14 388.29 366.77 398.07C385.4 407.84 395.58 449.42 395.58 449.42C395.58 449.42 421.38 428.34 406.04 394.44C390.7 360.53 350.68 352.29 344.57 329.07C343.32 308.93 337.21 294.18 326.96 284.03C297.38 249.83 269.15 274.68 298.95 286.22Z" fill="#42353B"/>
<path d="M291.58 289.66C274.42 280.71 277.47 249.74 313.45 272.71" stroke="#42353B" stroke-width="0.75" stroke-miterlimit="10" stroke-linecap="round" stroke-linejoin="round"/>
<path d="M349.76 342.2C361.37 352.89 402.3 361.02 414.52 401.4" stroke="#42353B" stroke-width="0.75" stroke-miterlimit="10" stroke-linecap="round" stroke-linejoin="round"/>
<path d="M315.14 330.49C312.26 341.21 340.59 342.3 340.8 333.14C341 323.97 317.38 322.14 315.14 330.49Z" fill="#D3976E"/>
<path d="M336.52 332.24C326.81 329.75 319.52 330.06 319.52 330.06" stroke="#D67055" stroke-width="0.75" stroke-miterlimit="10" stroke-linecap="round" stroke-linejoin="round"/>
<path d="M406.03 572.21C395.57 620.47 364.42 639.41 364.42 639.41H398.02L442.01 707.22C442.01 707.22 205.51 707.22 158.81 707.22C112.11 707.22 80.9401 671.79 95.3001 636.96C109.66 602.14 149.08 590.53 201.77 574.65C254.45 558.77 318.4 543.49 318.4 543.49L406.03 572.21Z" fill="#707B97"/>
<path d="M171.98 649.8L364.42 639.41" stroke="#21261F" stroke-width="0.75" stroke-miterlimit="10" stroke-linecap="round" stroke-linejoin="round"/>
<path d="M364.42 639.41C364.42 639.41 395.58 620.47 406.03 572.21L318.4 543.5C318.4 543.5 254.46 558.77 201.77 574.66C176.27 582.35 153.89 589.04 135.94 597.85C139.73 601.5 142.36 606.59 143.5 613.49C175.41 613.73 183.98 626.33 171.98 649.81L364.42 639.41Z" fill="#707B97"/>
<path d="M232.05 627.8C155.48 638.8 150.23 656.31 166.71 659.57C183.18 662.83 263.01 659.57 263.01 659.57" stroke="#707B97" stroke-width="0.75" stroke-miterlimit="10" stroke-linecap="round" stroke-linejoin="round" stroke-dasharray="4 4"/>
<path d="M102.84 683.61C84.6 639.41 135.67 611.51 187.93 596.84" stroke="#21261F" stroke-width="0.75" stroke-miterlimit="10" stroke-linecap="round" stroke-linejoin="round"/>
<path d="M401.07 514.17C401.07 514.17 421.84 486.99 406.03 457.97C390.22 428.94 383.75 390.34 342.83 391.76L316.6 413.22L304.55 482.82L307.53 510.56L298.96 550.02C298.96 550.02 308.52 566.73 333.71 590.75C349.15 605.48 364.51 614.79 377.41 620.68C383.78 611.01 388.96 595.15 393.35 575.27C394.99 594.47 392.61 615.62 391.13 626.08C403.17 630.07 410.92 630.66 410.92 630.66C410.92 630.66 411.42 617.63 410.92 580.56C410.45 546.96 401.07 514.17 401.07 514.17Z" fill="#D67055"/>
<path d="M364.42 445.4C364.73 445.98 365.05 446.57 365.35 447.17" stroke="#D67055" stroke-width="0.75" stroke-linecap="round" stroke-linejoin="round"/>
<path d="M367.08 450.74C373.78 465.22 378.59 483.71 384.37 497.07C390.89 512.14 393.74 538.21 393.74 542.89C393.74 546.47 393.5 563.46 393.39 571.29" stroke="#D67055" stroke-width="0.75" stroke-linecap="round" stroke-linejoin="round" stroke-dasharray="3.96 3.96"/>
<path d="M393.37 573.27C393.35 574.53 393.34 575.27 393.34 575.27" stroke="#D67055" stroke-width="0.75" stroke-linecap="round" stroke-linejoin="round"/>
<path d="M374.84 615.58C375.11 615.02 375.39 614.41 375.68 613.77" stroke="#D67055" stroke-width="0.75" stroke-linecap="round" stroke-linejoin="round"/>
<path d="M377.2 610.24C382.36 597.85 389.43 577.04 392.25 568.61" stroke="#D67055" stroke-width="0.75" stroke-linecap="round" stroke-linejoin="round" stroke-dasharray="3.85 3.85"/>
<path d="M392.86 566.78C393.26 565.57 393.49 564.89 393.49 564.89C393.49 564.89 393.66 565.57 393.95 566.83" stroke="#D67055" stroke-width="0.75" stroke-linecap="round" stroke-linejoin="round"/>
<path d="M394.73 570.53C396.63 580.04 399.89 600.31 398.37 621.47" stroke="#D67055" stroke-width="0.75" stroke-linecap="round" stroke-linejoin="round" stroke-dasharray="3.79 3.79"/>
<path d="M398.22 623.37C398.16 624.03 398.1 624.7 398.03 625.36" stroke="#D67055" stroke-width="0.75" stroke-linecap="round" stroke-linejoin="round"/>
<path d="M252.18 644.41C252.62 669.65 272.47 710.28 272.47 710.28H461.75H475.16L403.99 633.92C403.99 633.92 378.65 629.85 362.37 633.92C346.09 637.98 252.18 644.41 252.18 644.41Z" fill="#D39F3F"/>
<path opacity="0.56" d="M303.71 665.27C336.7 655.48 369.46 644.94 401.95 633.62C395.63 632.76 375.88 630.53 362.37 633.91C346.09 637.98 252.18 644.41 252.18 644.41C252.35 654.35 255.54 666.67 259.33 677.96C274.17 673.87 288.96 669.65 303.71 665.27Z" fill="#D39F3F"/>
<path d="M401.86 519.78C424.71 508.78 432.32 484.79 426.52 481.91C420.72 479.03 398.03 519.3 398.03 519.3L401.86 519.78Z" fill="#D39F3F"/>
<path d="M398.07 518.03C412.03 539.21 436.81 543.54 438.89 537.41C440.97 531.28 398.03 514.17 398.03 514.17L398.07 518.03Z" fill="#D39F3F"/>
<path d="M335.39 449.41C361.98 494.62 366.46 542.88 366.46 542.88C366.46 542.88 373.38 589.92 322.07 615.99C270.75 642.06 243.47 649.79 243.47 649.79C196.54 613.87 162.91 596.29 138.6 591.55C148 581.01 179.09 565.95 288.12 534.63C288.46 515.51 284.88 492.19 279.65 467.1L335.39 449.41Z" fill="#D39F3F"/>
<path d="M329.39 458.37C356.27 496.85 362.79 547.34 355.46 567.11C348.13 586.88 332.32 604.07 285.81 625.35L246.71 640.22C246.71 640.22 196.85 597.71 146.54 585.05" stroke="#D39F3F" stroke-width="0.75" stroke-miterlimit="10" stroke-linecap="round" stroke-linejoin="round" stroke-dasharray="4 4"/>
<path d="M247.73 542.88L320.12 575.26C320.12 575.26 282.55 597.86 258.42 594.5C234.29 591.14 196.58 572.4 198.48 562.52C200.38 552.66 247.73 542.88 247.73 542.88Z" fill="#D39F3F"/>
<path opacity="0.56" d="M247.73 542.88L320.12 575.26C320.12 575.26 282.55 597.86 258.42 594.5C234.29 591.14 196.58 572.4 198.48 562.52C200.38 552.66 247.73 542.88 247.73 542.88Z" fill="#D39F3F"/>
<path d="M314.32 575.26C287.13 577.09 263 584.42 263 584.42L265.39 594.81" stroke="#D39F3F" stroke-width="0.75" stroke-miterlimit="10" stroke-linecap="round" stroke-linejoin="round" stroke-dasharray="4 4"/>
<path d="M201.77 558.37C218.72 563.66 263.01 584.43 263.01 584.43" stroke="#D39F3F" stroke-width="0.75" stroke-miterlimit="10" stroke-linecap="round" stroke-linejoin="round" stroke-dasharray="4 4"/>
<path d="M401.07 514.17C370.22 542.88 313.83 544.6 288.1 531.28L279.63 537.09C279.63 537.09 291.06 551.15 333.69 549.31C376.32 547.47 403.77 521.42 403.77 521.42L401.07 514.17Z" fill="#D39F3F"/>
<path d="M401.07 514.17C370.22 542.88 313.83 544.6 288.1 531.28L279.63 537.09C279.63 537.09 291.06 551.15 333.69 549.31C376.32 547.47 403.77 521.42 403.77 521.42L401.07 514.17Z" fill="#D39F3F"/>
<path d="M161.76 381.27C157.01 373.96 139.6 366.94 130.74 360.22C121.88 353.5 119.13 345.86 115.47 345.86C111.8 345.86 110.89 347.39 110.89 347.39C106.09 345.18 102.35 344.71 101.42 348.92C101.42 348.92 92.8702 344.64 97.4502 356.25C102.03 367.86 132.58 382.28 141.44 384.69C150.29 387.1 161.76 381.27 161.76 381.27Z" fill="#D39F3F"/>
<path d="M110.891 347.39C120.051 359.81 134.721 370.6 134.721 370.6" stroke="#D39F3F" stroke-width="0.75" stroke-miterlimit="10" stroke-linecap="round" stroke-linejoin="round"/>
<path d="M101.42 348.92C107.83 360.02 121.69 370.57 125.53 371.71" stroke="#D39F3F" stroke-width="0.75" stroke-miterlimit="10" stroke-linecap="round" stroke-linejoin="round"/>
<path d="M235.31 290.98C224.62 293.27 236.94 328.39 245.9 325.16C254.86 321.94 246.72 288.54 235.31 290.98Z" fill="#588157"/>
<path d="M267.04 399.93L105.08 277.14" stroke="#21261F" stroke-width="0.75" stroke-miterlimit="10" stroke-linecap="round" stroke-linejoin="round"/>
<path d="M195.64 261.56C145.07 179.09 96.2301 206.5 105.09 277.14C105.09 277.14 31.0401 276.59 55.3001 332.43C74.5401 376.72 267.05 399.94 267.05 399.94C267.05 399.94 246.21 344.03 195.64 261.56ZM87.0601 323.36C87.4701 312.97 134.71 308.4 134.71 325.17C134.71 335.32 86.6601 333.75 87.0601 323.36ZM148.56 248.22C164.44 247.41 163.63 293.84 150.6 293.43C137.57 293.02 132.68 249.03 148.56 248.22ZM149.51 347.39C146.89 340.36 170 336.8 171.37 345.72C172.29 351.69 152.13 354.42 149.51 347.39ZM181.55 323.35C170.15 323.14 169.9 291.18 184.81 293.42C192.96 294.65 192.96 323.57 181.55 323.35ZM183.59 286.1C174.22 286.51 176.68 271.26 183.59 270.82C193.36 270.2 192.96 285.69 183.59 286.1Z" fill="#588157"/>
<path d="M347.01 394.43C316.36 390.76 257.31 463.56 257.31 463.56L277.98 511.18C277.98 511.18 331.19 473.79 351.8 445.4C372.41 417.01 347.01 394.43 347.01 394.43Z" fill="#D67055"/>
<path opacity="0.52" d="M322 458.62C303.21 463.98 282.47 465.23 266.16 453.22C260.66 459.45 257.31 463.57 257.31 463.57L277.98 511.19C277.98 511.19 330.34 474.4 351.3 446.09C342.07 451.44 332.21 455.71 322 458.62Z" fill="#D67055"/>
<path d="M182.67 460.41C191.83 472.93 220.85 505.31 220.85 505.31C220.85 505.31 232.15 509.3 243.45 486.99C254.75 464.68 252.67 455.82 252.67 455.82L221.43 428.59L182.67 460.41Z" fill="#D3976E"/>
<path d="M205.07 442.03L182.67 460.41C185.55 464.35 190.4 470.25 195.69 476.5C205.7 470.77 219.09 459.14 226.88 436.07L205.07 442.03Z" fill="#21261F"/>
<path d="M232.05 431.09C232.05 431.09 140.82 344.68 136.75 345.73C132.68 346.78 143.67 370.61 143.67 370.61C143.67 370.61 118.62 365.71 105.08 360.32C91.54 354.93 84.21 354.12 91.95 362.67C99.69 371.22 128.43 385.28 128.43 385.28C150.59 413.68 161.5 441.42 183.58 471.41C204.4 462.13 221.33 449.38 232.05 431.09Z" fill="#D39F3F"/>
<path d="M248.04 452.74C262.09 444.22 264.53 443.61 276.14 471.41C287.75 499.21 278.58 524.7 271.56 527.22C264.53 529.75 260.16 527.22 260.16 527.22C260.16 527.22 252.32 531.44 245.91 531.82C239.5 532.19 234.61 527.22 234.61 527.22C234.61 527.22 221.9 530.94 218.94 525C215.98 519.06 215.06 507.14 221.17 497.07C227.27 487 248.04 452.74 248.04 452.74Z" fill="#D67055"/>
<path d="M234.6 527.22C246.31 522.32 255.68 508.88 255.68 508.88" stroke="#D67055" stroke-width="0.75" stroke-miterlimit="10" stroke-linecap="round" stroke-linejoin="round"/>
<path d="M260.16 527.22C268.71 518.65 268.71 500.78 268.71 500.78" stroke="#D67055" stroke-width="0.75" stroke-miterlimit="10" stroke-linecap="round" stroke-linejoin="round"/>
<path d="M437.12 551.77C423.48 586.39 423.51 653.12 428.38 681.05" stroke="#21261F" stroke-miterlimit="10" stroke-linecap="round" stroke-linejoin="round"/>
<path d="M472.15 518.98C466.66 529.64 448.73 557.47 437.12 551.77C425.51 546.07 428.36 516.54 433.25 504.32C438.14 492.1 476.85 509.83 472.15 518.98Z" fill="#D67055"/>
<path d="M466.44 500.42C454.83 515.11 448.73 528.42 448.73 528.42L446.89 524.58C446.89 524.58 451.47 500.14 454.83 491.9" stroke="#21261F" stroke-miterlimit="10" stroke-linecap="round" stroke-linejoin="round"/>
<path d="M433.25 504.32C428.36 516.54 425.51 546.07 437.12 551.77C448.73 557.47 466.66 529.64 472.15 518.98C467.67 528.76 430.4 509.61 433.25 504.32Z" fill="white"/>
<path d="M472.149 518.98C472.239 518.8 472.309 518.62 472.369 518.44C472.289 518.62 472.229 518.8 472.149 518.98Z" fill="white"/>
<path d="M446.84 515.84C438.89 532.24 437.12 551.77 437.12 551.77C433 546.73 433.61 521.38 438.96 511.27" stroke="#D67055" stroke-width="0.5" stroke-miterlimit="10" stroke-linecap="round" stroke-linejoin="round"/>
<path d="M456.67 519.89C449.03 539.24 437.12 551.77 437.12 551.77C437.12 551.77 448.27 554.11 465.53 521.7" stroke="#D67055" stroke-width="0.5" stroke-miterlimit="10" stroke-linecap="round" stroke-linejoin="round"/>
<path d="M286.53 610.72C357.09 629.96 409.94 687.91 409.94 687.91" stroke="#21261F" stroke-miterlimit="10" stroke-linecap="round" stroke-linejoin="round"/>
<path d="M246.21 581.72C232.65 583.37 227.88 621.11 241.02 622.63C254.15 624.16 286.53 620.21 286.53 610.72C286.54 597.59 257.26 580.38 246.21 581.72Z" fill="#D67055"/>
<path d="M254.74 605.29C238.8 601.96 228.11 603.94 228.11 603.94" stroke="#21261F" stroke-miterlimit="10" stroke-linecap="round" stroke-linejoin="round"/>
<path d="M226.89 593.56C247.05 598.14 255.15 599.52 255.15 599.52" stroke="#21261F" stroke-miterlimit="10" stroke-linecap="round" stroke-linejoin="round"/>
<path d="M246.21 581.72C256.75 581.65 255.3 621.84 241.02 622.63C254.15 624.16 286.53 620.21 286.53 610.72C286.54 597.59 257.26 580.38 246.21 581.72Z" fill="white"/>
<path d="M252.29 589.68C267.59 592.7 283.22 602.81 285.83 607.03" stroke="#D67055" stroke-width="0.5" stroke-miterlimit="10" stroke-linecap="round" stroke-linejoin="round"/>
<path d="M253.02 600.33C270.34 606.14 286.53 610.72 286.53 610.72C286.53 610.72 271.05 617.65 250.46 613.34" stroke="#D67055" stroke-width="0.5" stroke-miterlimit="10" stroke-linecap="round" stroke-linejoin="round"/>
<path d="M468.28 661.73C468.28 661.73 460.33 581.72 448.73 581.72C437.13 581.72 428.94 655.88 428.94 655.88C428.94 655.88 378.08 588.01 366.77 574.98C355.46 561.95 357.15 614.66 386.8 669.06L403.79 691.66C403.79 691.66 365.65 675.17 314.33 664.78C263.01 654.39 256.29 664.17 271.57 669.67C286.84 675.17 348.36 701.77 366.78 712.6C385.2 723.43 424.3 709.99 424.3 709.99L468.28 661.73Z" fill="#588157"/>
<path d="M448.72 581.72C445.67 622.02 452.41 688.68 452.41 688.68L437.12 706.94C437.12 706.94 378.96 621.3 362.37 573.55" stroke="#21261F" stroke-width="0.75" stroke-miterlimit="10" stroke-linecap="round" stroke-linejoin="round"/>
<path d="M264.43 663.73C329.9 673.03 409.93 712.08 409.93 712.08" stroke="#21261F" stroke-width="0.75" stroke-miterlimit="10" stroke-linecap="round" stroke-linejoin="round"/>
<path d="M363.68 639.44C358.21 640.25 362.38 663.74 370.53 661.43C374.81 660.22 370.36 638.44 363.68 639.44Z" fill="#588157"/>
<path d="M296.81 653.59C295.18 658.27 317.38 661.74 318.19 657.26C319.01 652.77 298.44 648.9 296.81 653.59Z" fill="#588157"/>
<path d="M121.98 732.5C142.04 717.93 192.75 725.88 192.75 725.88C192.75 725.88 195.09 712.44 217.75 715.49C240.4 718.54 249.15 723.77 249.15 723.77C249.15 723.77 251.57 701.72 276.88 701.72C302.19 701.72 347.01 721.25 347.01 721.25C347.01 721.25 304.55 699 314.33 691.67C324.1 684.34 372.37 702.06 372.37 702.06C372.37 702.06 333.06 670.29 341.72 664.79C350.38 659.29 428.39 692.28 428.39 692.28C428.39 692.28 393.06 625.69 403.79 616.53C414.52 607.37 456.67 674.52 456.67 674.52C456.67 674.52 465.91 586.19 493.67 566.23V732.5H121.98Z" fill="#7A9954"/>
<g opacity="0.75">
<path d="M482.42 579.26C475.61 661.73 493.67 732.51 493.67 732.51L456.67 674.52" stroke="#7A9954" stroke-width="0.75" stroke-miterlimit="10" stroke-linecap="round" stroke-linejoin="round"/>
<path d="M428.38 692.28C445.67 708.16 493.67 732.51 493.67 732.51C464.86 709.81 434.58 666.74 403.79 616.53" stroke="#7A9954" stroke-width="0.75" stroke-miterlimit="10" stroke-linecap="round" stroke-linejoin="round"/>
<path d="M341.71 664.79C341.71 664.79 385.8 693.5 424.29 710C462.78 726.49 493.67 732.51 493.67 732.51C493.67 732.51 435.9 729.55 372.37 702.06" stroke="#7A9954" stroke-width="0.75" stroke-miterlimit="10" stroke-linecap="round" stroke-linejoin="round"/>
<path d="M314.32 691.67C371.14 725.88 493.66 732.51 493.66 732.51C493.66 732.51 406.61 732.34 347 721.26" stroke="#7A9954" stroke-width="0.75" stroke-miterlimit="10" stroke-linecap="round" stroke-linejoin="round"/>
</g>
<path d="M518.2 732.5V190.38L266.67 1L15.1499 190.38V732.5" stroke="white" stroke-width="2" stroke-miterlimit="10" stroke-linecap="round" stroke-linejoin="round"/>
<path d="M177.45 1H15.1499V112.48L177.45 1Z" stroke="white" stroke-width="2" stroke-miterlimit="10" stroke-linecap="round" stroke-linejoin="round"/>
<path d="M355.9 1H518.2V112.48L355.9 1Z" stroke="white" stroke-width="2" stroke-miterlimit="10" stroke-linecap="round" stroke-linejoin="round"/>
<path d="M518.14 463.88C515.81 480.39 507.74 487.23 495.93 487.76C509.11 489.36 516.51 497.33 518.14 511.64C519.77 497.32 527.18 489.36 540.35 487.76C528.54 487.23 520.48 480.39 518.14 463.88Z" fill="#D39F3F"/>
<path d="M70.5098 50.9102C68.1698 67.4202 60.1098 74.2702 48.2998 74.8002C61.4798 76.4002 68.8798 84.3702 70.5098 98.6802C72.1398 84.3602 79.5498 76.4002 92.7198 74.8002C80.9098 74.2702 72.8398 67.4202 70.5098 50.9102Z" fill="#D39F3F"/>
<path d="M15.15 599.18C13.56 610.44 8.05 615.1 0 615.47C8.99 616.56 14.04 621.99 15.15 631.76C16.26 621.99 21.31 616.57 30.3 615.47C22.24 615.1 16.74 610.44 15.15 599.18Z" fill="#EB997C"/>
<path d="M44.7398 111.51C43.1498 122.77 37.6498 127.44 29.5898 127.8C38.5798 128.89 43.6298 134.32 44.7398 144.09C45.8498 134.32 50.8998 128.9 59.8898 127.8C51.8298 127.43 46.3298 122.77 44.7398 111.51Z" fill="#4A8171"/>
<path d="M411.16 17.6101C409.06 32.4501 401.81 38.6101 391.19 39.0801C403.04 40.5201 409.69 47.6801 411.16 60.5501C412.63 47.6801 419.28 40.5201 431.13 39.0801C420.51 38.6101 413.25 32.4501 411.16 17.6101Z" fill="#4A8171"/>
<path d="M475.17 542.08C473.58 553.34 468.08 558.01 460.02 558.37C469.01 559.46 474.06 564.89 475.17 574.66C476.28 564.89 481.33 559.47 490.32 558.37C482.26 558 476.76 553.34 475.17 542.08Z" fill="#4A8171"/>
<path d="M351.29 78.8401C349.7 90.1001 344.2 94.7701 336.14 95.1301C345.13 96.2201 350.18 101.65 351.29 111.42C352.4 101.65 357.45 96.2301 366.44 95.1301C358.39 94.7701 352.89 90.1001 351.29 78.8401Z" fill="#4A8171"/>
</g>
<defs>
<clipPath id="clip0_1987_6077">
<rect width="540.36" height="733.5" fill="white"/>
</clipPath>
</defs>
</svg>
