<svg width="500" height="501" viewBox="0 0 500 501" fill="none" xmlns="http://www.w3.org/2000/svg">
<g clip-path="url(#clip0_1988_17787)">
<path d="M0 174.61C0.44 172.81 0.89 171.03 1.34 169.22C0.89 169.84 0.45 170.47 0 171.1V174.61Z" fill="#67A23E"/>
<path d="M320.114 174.911V39.061L219.724 39.061L219.724 174.911L320.114 174.911Z" fill="#FFF9F5"/>
<path d="M310.94 48.24H228.9V165.74H310.94V48.24Z" fill="#FEF1E8"/>
<path d="M299.92 98.1401C285.57 105.26 274.87 117.82 270.38 133C270.44 129.09 270.52 124.81 270.6 120.43V119.8C270.62 119.75 270.62 119.71 270.6 119.66C270.62 119.18 270.62 118.69 270.65 118.21C270.69 115.81 270.73 113.4 270.77 111.03C285.93 109.46 290.7 84.7901 287.88 83.6901C284.99 82.5701 282.5 92.2701 282.5 92.2701C282.5 92.2701 285.26 73.5801 282.5 73.3701C279.74 73.1601 276.78 83.6901 276.78 83.6901C276.78 83.6901 279.75 60.6701 275.98 60.8601C272.21 61.0501 268.52 78.3901 268.52 78.3901C268.52 78.3901 266.4 63.4201 262.59 64.5101C258.78 65.5901 260.9 94.2901 260.9 94.2901C260.9 94.2901 258.57 79.1001 255.67 79.9301C252.8 80.7501 250.58 111.23 269.26 111.12L268.13 127.35L267.83 131.66C263.11 117.07 252.63 105.05 238.7 98.1301C237.76 107.02 241.59 115.96 247.53 122.65C252.98 128.79 260.06 133.25 267.46 136.86L267.4 137.79L266.95 144.21L266.84 145.98L266.82 146.14L266.8 146.73L266.71 148C267.87 148 269.02 148 270.16 147.98C270.2 145.6 270.26 141.83 270.33 137.27C278.03 133.58 285.45 129.02 291.11 122.65C297.03 115.97 300.87 107.03 299.92 98.1401Z" fill="#FDE1CE"/>
<path d="M203.63 150.943V97.7534L164.32 97.7534V150.943H203.63Z" fill="#FFF9F5"/>
<path d="M200.031 101.34H167.911V147.35H200.031V101.34Z" fill="#FEF1E8"/>
<path d="M175.47 131.03C176.12 133.36 178.35 135.57 180.1 137.47C182.5 137.78 184.94 137.87 187.35 137.7C187.53 137.69 187.71 137.67 187.89 137.65C189.5 135.54 191.46 132.7 192.14 130.29C191.06 131.28 188.83 133.43 187.94 134.58C189.23 131.53 191.38 127.8 192.04 123.91C190.61 126.08 188.19 128.95 187.09 131.61C188.24 126.29 189.73 121.59 189.88 115.59C188.5 119.74 186.53 123.28 185.68 127.82C185.69 121.56 185.06 115.3 183.78 109.42C182.78 116.02 182.5 122.57 182.59 127.28C182.6 127.51 182.6 127.74 182.61 127.96C181.76 123.38 179.71 119.84 178.32 115.64C178.48 121.64 180.02 126.29 181.17 131.62C180.08 128.95 177.62 125.9 176.19 123.72C176.84 127.61 179.02 131.53 180.32 134.58C179.42 133.43 176.55 132.02 175.47 131.03Z" fill="#FDE1CE"/>
<path d="M203.63 86.7028V15.8828L151.29 15.8828V86.7028L203.63 86.7028Z" fill="#FFF9F5"/>
<path d="M198.84 20.6599H156.07V81.9199H198.84V20.6599Z" fill="#FEF1E8"/>
<path d="M159.01 66.54C160.55 65.55 161.97 64.38 163.24 63.06C161.89 65.58 161.12 68.41 160.76 71.31C161.86 69.72 162.82 68.04 163.64 66.3C162.47 70.99 162.17 75.87 162.96 80.67C164.04 73.99 165.11 67.3 166.19 60.62C166.53 59.69 166.9 58.77 167.29 57.86C165.7 63.73 165.43 69.85 166.28 75.93C168.22 69.31 168.94 62.34 168.41 55.46C169.02 54.23 169.68 53.03 170.39 51.85C169.73 56.96 169.35 62.25 169.8 67.38C171.58 62.32 171.86 56.74 170.59 51.53C170.99 50.88 171.4 50.23 171.83 49.59C171.34 55.86 171.85 61.85 172.59 68.11C173.95 61.97 173.71 55.49 171.91 49.46C172.33 48.84 172.77 48.22 173.21 47.62C172.89 53.17 173.62 58.32 175.4 63.65C175.64 61.49 175.68 59.31 175.54 57.14C175.67 56.81 175.8 56.47 175.92 56.14C176.18 57.75 176.55 59.37 177.02 61.03C177.17 58.17 177.18 55.31 177.05 52.45C177.93 48.98 178.34 45.4 178.27 41.82C179.12 40.98 180 40.18 180.9 39.4C178.02 45.56 177.32 52.43 178.9 59.1C179.78 52.36 180.65 45.61 181.53 38.87C181.87 38.59 182.2 38.32 182.55 38.04C181.47 43.85 180.94 49.38 181.08 55.35C182.97 49.72 183.6 43.67 182.91 37.76C183.39 37.39 183.87 37.03 184.35 36.68C184.34 36.78 184.33 36.88 184.32 36.98C183.29 43.21 182.78 49.18 182.52 55.53C183.49 52.59 184.14 49.54 184.5 46.47C184.67 49.47 184.95 52.47 185.3 55.49C186.3 49.01 186.35 42.38 185.47 35.88C188.06 34.11 190.8 32.56 193.63 31.27C193.39 30.69 193.23 30.36 192.99 29.78C190.13 31.06 187.4 32.62 184.83 34.42C178.91 34.9 173.1 36.62 167.88 39.44C173.67 38.28 178.72 36.93 184.15 34.91C183.44 35.43 182.74 35.96 182.05 36.51C176.2 37.49 171.08 40.03 166.04 43.31C170.62 42.71 175.08 41.25 179.14 39.04C178.87 39.29 178.61 39.55 178.35 39.8C173.42 42.26 168.81 45.48 164.6 49.02C168.15 48.07 171.51 46.39 174.42 44.15C174.17 44.46 173.92 44.78 173.67 45.1C169.22 47.77 165.52 50.91 161.61 54.39C165.54 52.8 169.13 50.37 172.08 47.32C171.46 48.23 170.88 49.15 170.32 50.1C165.95 53.51 161.92 57.14 158.11 61.2C162.13 59.39 165.74 56.65 168.6 53.29C168.25 53.99 167.93 54.7 167.61 55.41C164.39 58.92 161.59 62.49 159.01 66.54ZM176.6 46.43C176.51 45.58 176.4 44.74 176.28 43.9C176.75 43.38 177.23 42.88 177.72 42.38C177.49 42.83 177.29 43.26 177.15 43.87C176.95 44.72 176.77 45.58 176.6 46.43ZM175.3 54.66C174.96 52.13 174.37 49.64 173.52 47.23C174.26 46.25 175.04 45.3 175.85 44.38C175.42 47.29 175.31 50.08 175.53 52.87C175.45 53.46 175.37 54.06 175.3 54.66Z" fill="#FDE1CE"/>
<path d="M384.832 82.8212V12.0012L332.492 12.0012V82.8212L384.832 82.8212Z" fill="#FFF9F5"/>
<path d="M378.541 16.78H335.771V78.04H378.541V16.78Z" fill="#FEF1E8"/>
<path d="M368.91 48.42L375.84 47.78C375.13 44.22 373.23 40.4 370.67 37.74L367.86 39.74L369.76 36.87C369.69 36.81 369.62 36.74 369.55 36.68C367.42 34.88 364.89 33.5 362.02 32.79L359.32 40.98L359.96 32.4C357.83 32.13 355.53 32.23 353.07 32.79C348.07 33.94 344.57 36.4 341.15 41.03C343.87 40.36 346.87 41.3 348.91 43.21C350.95 45.13 352.06 47.93 352.14 50.73C352.22 53.53 351.32 56.31 349.85 58.69C352.14 55.02 358.54 55.04 362.05 56.37C366.15 57.92 368.48 62.53 368.46 66.91C373.85 62.46 376.43 56.86 376.2 50.77L368.91 48.42Z" fill="#FDE1CE"/>
<path d="M471.904 134.298V45.1179L405.994 45.1179V134.298H471.904Z" fill="#FFF9F5"/>
<path d="M465.881 51.1401H412.021V128.28H465.881V51.1401Z" fill="#FEF1E8"/>
<path d="M455.351 83.2402C451.691 81.8202 447.191 85.5202 441.981 94.2302C439.771 97.9302 437.891 101.78 436.711 104.34C436.861 99.2902 437.211 94.2502 437.771 89.2402C438.961 87.3602 449.981 69.6002 447.041 63.7902C446.431 62.6002 445.341 61.9502 443.791 61.8502C442.151 61.7502 440.741 62.3102 439.591 63.5302C434.241 69.2002 436.321 87.7502 436.481 89.0502C436.031 93.0702 435.721 97.1002 435.531 101.13C434.141 94.0402 431.461 83.5302 427.581 81.7502C426.601 81.3002 425.561 81.3902 424.591 82.0202C423.571 82.6702 422.961 83.6502 422.781 84.9302C421.781 91.7902 433.831 106.1 435.341 107.87C435.291 112.12 435.421 116.37 435.651 120.61C436.081 120.62 436.501 120.64 436.931 120.66C436.691 116.42 436.601 112.17 436.641 107.92C439.841 105.47 458.031 91.2302 457.211 85.4102C457.111 84.7102 456.711 83.7702 455.351 83.2402Z" fill="#FDE1CE"/>
<path d="M452.97 224.66L454.51 233.27C454.51 233.27 433.07 239.34 402.56 239.34C372.05 239.34 353.1 234.47 353.1 234.47L354.05 224.67H452.97V224.66Z" fill="#D6AB83"/>
<path d="M452.97 224.66C452.97 224.66 407.5 207.72 354.05 224.66C354.05 224.66 400.47 241.45 452.97 224.66Z" fill="#E3BF9A"/>
<path opacity="0.4" d="M393.52 223.83C393.52 229.07 415.8 228.99 424.63 227.97C431.01 227.23 429.81 220.88 414.03 220.88C398.25 220.87 393.52 223.83 393.52 223.83Z" fill="#E3BF9A"/>
<path d="M360.66 232.82L340.54 364.87L343.53 366.42L366.89 234.1L360.66 232.82Z" fill="#D6AB83"/>
<path d="M451.05 261.66L446.95 232.82L440.72 234.1L447.32 261.66H451.05Z" fill="#D6AB83"/>
<path d="M487.54 266.5L489.08 275.11C489.08 275.11 467.64 281.18 437.13 281.18C406.62 281.18 387.67 276.31 387.67 276.31L388.62 266.51H487.54V266.5Z" fill="#D6AB83"/>
<path d="M487.54 266.5C487.54 266.5 442.07 249.56 388.62 266.5C388.61 266.5 435.03 283.29 487.54 266.5Z" fill="#E3BF9A"/>
<path d="M395.22 274.66L375.1 406.71L378.09 408.26L401.46 275.93L395.22 274.66Z" fill="#D6AB83"/>
<path d="M481.52 274.66L497.65 411.3L494.66 412.85L475.29 275.93L481.52 274.66Z" fill="#D6AB83"/>
<path d="M429.8 267.15H445.53C452.99 263.12 460.2 250.88 461.69 234.73L412.98 234.61C413.84 250.84 421.04 262.63 429.8 267.15Z" fill="#FFF9F5"/>
<path d="M461.69 234.72C461.69 234.72 454.98 237.79 443.42 238.47C442.15 238.55 440.82 238.6 439.43 238.61H438.36C438.18 238.61 438 238.6 437.83 238.6C436.45 238.58 435.01 238.53 433.52 238.43C432.31 238.35 431.07 238.24 429.8 238.1C424.68 237.53 419.04 236.45 412.98 234.61C412.98 234.61 418.31 232.55 427.02 231.52C428.67 231.32 430.44 231.16 432.32 231.07C433.68 231 435.09 230.95 436.56 230.95C437.24 230.95 437.93 230.95 438.63 230.97C439.2 230.98 439.79 230.99 440.38 231.03C442.3 231.11 444.3 231.26 446.36 231.51C451.17 232.04 456.31 233.06 461.69 234.72Z" fill="#FEF1E8"/>
<path d="M441.05 219.12C441.2 206.07 439.42 193.12 435.65 179.65C432.25 192.21 430.77 205.29 431.23 218.3C429.05 214.26 426.47 210.45 423.6 206.97C423.02 215.28 424.23 223.68 427.02 231.52C427.82 233.77 428.75 235.97 429.8 238.1C431.07 238.25 432.32 238.35 433.52 238.43C435.01 238.53 436.45 238.58 437.83 238.6C438.01 238.6 438.19 238.61 438.36 238.61H439.43C440.82 238.6 442.15 238.55 443.42 238.47C444.48 236.17 445.46 233.84 446.36 231.5C451.55 218.1 454.39 204.04 454.43 189.33C448.37 198.43 443.86 208.55 441.05 219.12Z" fill="#67A23E"/>
<path d="M393.52 223.83H409.25C416.71 219.18 423.92 205.07 425.41 186.44L376.7 186.31C377.55 205.02 384.76 218.63 393.52 223.83Z" fill="#FFF9F5"/>
<path d="M425.41 186.44C425.41 186.44 422.33 188.07 416.75 189.37C415.42 189.68 413.94 189.97 412.33 190.21C411.76 190.3 411.16 190.38 410.55 190.45C410.09 190.51 409.62 190.56 409.13 190.61C407.04 190.82 404.75 190.94 402.3 190.93C401.75 190.93 401.18 190.91 400.62 190.9C399.88 190.88 399.12 190.85 398.36 190.8C394.11 190.54 389.43 189.88 384.39 188.62C381.92 188.01 379.34 187.24 376.7 186.32C376.7 186.32 379.45 185.09 384.24 183.96C387.89 183.09 392.72 182.29 398.43 182.12C398.98 182.1 399.53 182.1 400.1 182.09C400.54 182.09 400.99 182.09 401.44 182.1C404.66 182.14 408.11 182.4 411.75 182.97C411.9 182.99 412.04 183.02 412.19 183.04C412.72 183.12 413.25 183.21 413.79 183.31C415.72 183.67 417.71 184.11 419.73 184.66C421.59 185.16 423.48 185.75 425.41 186.44Z" fill="#FEF1E8"/>
<path d="M413.99 178.87C413.46 179.91 412.87 180.96 412.28 181.99C412.1 182.31 411.92 182.64 411.75 182.96C410.42 185.43 409.26 187.93 409.14 190.61C407.05 190.82 404.76 190.94 402.31 190.93C401.76 190.93 401.19 190.91 400.63 190.9C399.89 190.88 399.13 190.85 398.37 190.8C394.12 190.54 389.44 189.88 384.4 188.62C384.34 187.4 384.3 186.2 384.26 185.06C384.24 184.69 384.24 184.32 384.24 183.95C384.26 177.19 386.53 170.28 384.69 163.63C382.68 156.36 375.84 150.5 376.17 142.98C376.37 138.38 379.31 134.23 379.5 129.63C379.7 124.92 377.03 120.64 374.64 116.57C372.25 112.51 369.97 107.86 371.01 103.26C371.6 100.69 373.19 98.42 373.69 95.82C374.45 91.87 372.6 87.96 371.81 84.02C371.02 80.08 371.98 75.01 375.8 73.78C378.78 72.83 382.04 74.9 383.5 77.66C384.95 80.43 385.02 83.68 385 86.81C384.98 89.93 384.94 93.17 386.19 96.03C387.62 99.31 390.61 101.72 391.99 105.02C394.7 111.54 390.52 119.93 394.59 125.71C396.61 128.57 400.17 129.93 402.87 132.12C403.66 132.76 404.38 133.47 404.96 134.31C408.83 139.89 404.99 147.76 406.93 154.27C407.42 155.9 408.25 157.38 409.22 158.8C409.88 159.77 410.61 160.72 411.34 161.66C413.55 164.52 415.75 167.35 416.06 170.86C416.32 173.69 415.31 176.3 413.99 178.87Z" fill="#8EC73E"/>
<path d="M402.31 190.93C401.76 190.93 401.19 190.91 400.63 190.9C400.27 189.45 399.89 188 399.53 186.56C399.16 185.08 398.79 183.6 398.43 182.12C396.22 173.23 394.1 164.31 392.06 155.36L380.75 144.77C380.43 144.46 380.41 143.95 380.72 143.63C381.02 143.3 381.54 143.28 381.86 143.59L391.44 152.56C389.13 142.36 386.93 132.14 384.83 121.9C384.8 121.83 384.79 121.75 384.78 121.67C382.23 109.21 379.82 96.7399 377.61 84.2799C377.53 83.8399 377.83 83.4199 378.26 83.3399C378.7 83.2599 379.12 83.5499 379.2 83.9899C381.07 94.4899 383.07 105 385.18 115.51L385.7 107.93C385.73 107.49 386.11 107.16 386.57 107.18C387.01 107.21 387.35 107.6 387.31 108.05L386.4 121.47C390.56 141.77 395.13 162.03 400.12 182.09C400.27 182.74 400.43 183.38 400.6 184.01C401.14 186.32 401.72 188.63 402.31 190.93Z" fill="#67A23E"/>
<path d="M419.73 184.66C418.74 186.22 417.67 187.77 416.75 189.37C415.42 189.68 413.94 189.97 412.33 190.21C411.76 190.3 411.16 190.38 410.55 190.45C410.09 190.51 409.62 190.56 409.13 190.61C407.04 190.82 404.75 190.94 402.3 190.93C401.75 190.93 401.18 190.91 400.62 190.9C399.88 190.88 399.12 190.85 398.36 190.8C398.58 189.61 398.88 188.43 399.27 187.28C399.35 187.04 399.44 186.79 399.53 186.55C399.85 185.69 400.2 184.84 400.57 184C400.85 183.36 401.14 182.72 401.44 182.08C403.19 178.28 404.97 174.5 404.78 170.39C404.42 162.67 397.14 156.4 397.41 148.68C397.62 142.83 402.16 137.91 402.87 132.11C402.88 132.07 402.88 132.02 402.89 131.98C403.43 127.14 401.23 122.43 400.82 117.58C400.39 112.52 402.02 107.33 405.24 103.41C406.99 101.28 409.56 99.43 412.28 99.86C415.22 100.33 417.17 103.41 417.33 106.38C417.49 109.35 416.29 112.2 415.02 114.9C413.75 117.58 412.37 120.33 412.16 123.29C411.55 131.51 419.91 138.67 418.5 146.79C417.82 150.74 414.86 154.16 414.79 158.17C414.68 164.75 422.21 169.38 422.67 175.95C422.89 179.12 421.46 181.91 419.73 184.66Z" fill="#67A23E"/>
<path d="M414.53 140.99L409.54 148.04C409.94 152.65 410.53 157.17 411.34 161.66C411.42 162.15 411.51 162.64 411.61 163.13C411.81 164.17 412.02 165.2 412.23 166.24C413.03 170.2 413.86 174.3 413.98 178.44C413.98 178.59 413.99 178.72 413.99 178.87C414.01 180.35 413.94 181.84 413.79 183.31C413.52 185.65 413.04 187.96 412.33 190.21C411.76 190.3 411.16 190.38 410.55 190.45C411.36 188.05 411.91 185.56 412.18 183.03C412.22 182.68 412.25 182.33 412.28 181.99C412.36 180.83 412.39 179.65 412.36 178.49C412.25 174.49 411.44 170.46 410.65 166.56C410.62 166.41 410.59 166.25 410.55 166.09L403.14 155.38C402.89 155.01 402.98 154.51 403.34 154.25C403.71 154 404.21 154.09 404.47 154.46L409.78 162.15C409.58 161.03 409.39 159.92 409.21 158.79C406.82 143.58 406.79 127.95 407.53 109.57C407.55 109.13 407.93 108.79 408.37 108.79C408.81 108.81 409.16 109.19 409.15 109.63C408.62 122.72 408.49 134.4 409.32 145.52L413.2 140.05C413.46 139.68 413.96 139.6 414.32 139.86C414.7 140.13 414.79 140.63 414.53 140.99Z" fill="#438422"/>
<path d="M344.9 325.21C344.9 325.21 331.69 348.6 317.31 351.07C302.93 353.55 297.69 331.2 297.69 331.2L344.9 325.21Z" fill="#E88D6A"/>
<path d="M210.41 296.2C194.13 297.75 176.85 287.47 176.85 287.47C176.85 266.65 184.04 245.7 187.79 233.18H187.8C188.34 231.3 189.23 229.58 190.4 228.08C191.65 223.37 233.33 203.68 250.12 201.03C260.52 199.39 296.96 212 308.81 221.95C309.07 222.16 309.32 222.38 309.57 222.61C309.61 222.64 309.65 222.68 309.69 222.71L309.68 222.72C311.6 224.55 313.04 226.87 313.78 229.49H313.79C317.54 242.01 320.22 261.35 323.48 284.04C318.23 287.17 308.31 289.66 301.3 291.12C303.39 328.48 304.52 359.72 304.52 359.72C255.32 374.98 207.44 356.82 207.44 356.82L215 294.96L210.41 296.2Z" fill="#403433"/>
<path d="M178.89 308.39C176.31 300.62 182.66 278.73 182.66 278.73L219.33 288.88C219.33 288.88 183.41 321.99 178.89 308.39Z" fill="#E88D6A"/>
<path d="M239.7 205.29L235.91 168.55L263.92 182.81L263.65 184.15L262.87 202.63C262.65 207.92 262.86 213.25 257.31 214.15C250.66 215.22 240.33 211.38 239.7 205.29Z" fill="#E88D6A"/>
<path d="M263.17 195.62L263.65 184.15L263.92 182.81L235.91 168.55L237.7 185.89C242.7 193.4 252.59 195.65 263.17 195.62Z" fill="#D5614A"/>
<path d="M282.59 153.35C282.47 144.59 282.99 132 279.49 122.84C279.49 122.83 279.49 122.83 279.48 122.82C279.48 122.81 279.47 122.81 279.47 122.8C277.92 118.77 275.59 115.43 272.08 113.35C268.24 110.58 262.89 108.8 254.87 108.16C238.01 106.82 227.05 113.13 219.71 124.11C214.24 132.29 216.57 143.03 217.69 146.9C214.57 147.18 210.24 149.06 211.23 157.6C212.74 170.65 222.19 170.91 224.98 171.47C224.98 171.47 230.18 194.7 258.84 192.48C287.49 190.25 282.8 168.06 282.59 153.35Z" fill="#E88D6A"/>
<path d="M259.47 178.66C250.37 179.53 248.82 171.09 248.82 171.09" stroke="#F27153" stroke-width="0.5" stroke-miterlimit="10" stroke-linecap="round" stroke-linejoin="round"/>
<path d="M260.95 146.35C259.93 155.16 259.8 162.9 262.48 165.74C265.17 168.57 261.46 169.37 258.77 170.28" stroke="#F27153" stroke-width="0.5" stroke-miterlimit="10" stroke-linecap="round" stroke-linejoin="round"/>
<path d="M247.53 150.04C247.53 149.28 246.87 148.66 245.98 148.45C246.52 146.86 247.39 145.88 248.52 146.58C251.77 148.58 250.24 158.76 247.15 157.55C245.76 157.01 245.25 154.33 245.39 151.73C246.58 151.71 247.53 150.97 247.53 150.04Z" fill="#192119"/>
<path d="M274.02 149.92C274.02 149.17 273.38 148.55 272.51 148.33C273.05 146.8 273.91 145.9 275.01 146.57C278.26 148.57 276.73 158.75 273.64 157.54C272.23 156.99 271.72 154.24 271.89 151.6C273.07 151.59 274.02 150.84 274.02 149.92Z" fill="#192119"/>
<path d="M214.04 157.6C223 155.81 225.4 164.05 225.4 164.05" stroke="#F27153" stroke-width="0.5" stroke-miterlimit="10" stroke-linecap="round" stroke-linejoin="round"/>
<path d="M239.09 199.37C239.09 199.37 253.35 215.2 257.31 214.15C261.27 213.1 263.02 199.1 263.02 199.1C263.02 199.1 271.69 200.97 272.67 202.67C273.65 204.37 274.17 221.01 271.27 224.05C268.37 227.09 258.86 218.54 258.86 218.54C258.86 218.54 250.7 229.12 246.15 228.1C241.6 227.09 231.18 206.92 230.51 204.53C229.83 202.15 239.09 199.37 239.09 199.37Z" fill="white"/>
<path d="M282.63 315.64C282.41 315.62 277.23 315 271.97 312.71C262.33 308.5 260.28 302.2 260.26 297.66C260.21 284.56 278.18 250.6 282.91 247.76C284.2 246.99 288.11 244.64 307.2 257.67L303.55 263.02C296.45 258.18 288.61 253.97 286.04 253.57C282.28 257.84 266.68 286.51 266.72 297.64C266.76 307.16 283.19 309.2 283.36 309.22L282.63 315.64Z" fill="#67A23E"/>
<path d="M356.99 314.63C356.99 314.63 365.24 312.35 364.64 308.78C364.04 305.21 354.19 307.23 354.19 307.23L356.99 314.63Z" fill="#E88D6A"/>
<path d="M326 316.84L366.38 298.03C366.38 298.03 364.81 288.83 368.61 287.91C372.42 286.99 377.63 307.94 374.96 310.11C372.29 312.28 367.71 303.51 367.71 303.51L326 337.55V316.84Z" fill="#67A23E"/>
<path d="M306.51 247.08L269.28 325.17C269.28 325.17 293.46 340.37 329.02 342.71L336.77 256.21L306.51 247.08Z" fill="#8EC73E"/>
<path d="M306.51 247.08C306.51 247.08 317.52 260.25 336.77 256.21C336.76 256.21 322.26 244.23 306.51 247.08Z" fill="#436B22"/>
<path d="M195.29 302.49C195.29 302.49 256.37 264.97 258.86 263.36C261.35 261.75 268.32 254.78 271.26 253.68C274.2 252.58 281.04 243.71 283.6 245.57C286.17 247.43 278.49 254.72 278.49 254.72C278.49 254.72 290.16 258.54 290.43 260.33C290.71 262.12 286.26 263.17 285.55 266.5C284.84 269.83 286.26 270.74 282.98 273.59C279.7 276.43 284.02 279.53 278.92 281.65C273.83 283.77 266.46 276.16 266.46 276.16C266.46 276.16 216.24 327.95 202.83 329.71C189.42 331.47 179.38 315.01 178.9 308.38C178.41 301.75 195.29 302.49 195.29 302.49Z" fill="#E88D6A"/>
<path d="M340.09 329.87C344.54 323.44 349.13 317.11 353.68 310.75C364.14 314.62 368.86 316.23 367.13 319.43C365.21 322.97 359.1 321.8 359.1 321.8C359.1 321.8 359.65 328.15 355 327.26C350.35 326.38 353.6 327.72 348.04 331.67C343.68 334.77 342.65 331.63 340.09 329.87Z" fill="#E88D6A"/>
<path d="M363.12 314.42C353.06 308.92 339.75 307.73 347.38 316.18C347.38 316.18 333.1 314.53 342.94 321.77C342.94 321.77 325.16 316.77 342.88 332.26L363.12 314.42Z" fill="#E88D6A"/>
<path d="M217.69 146.9C221.26 145.95 227.67 163.74 227.67 163.74L231.22 161.41L227.67 146.2C227.67 146.2 233.25 142.08 232.65 131.4C232.65 131.4 251.58 142.04 260.2 133.13L248.48 129.35C248.48 129.35 285.19 128.94 290.98 144.14C290.98 144.14 297.74 128.73 286.16 123.18L296.77 125.44C296.77 125.44 288.89 101.24 269.92 106.97L286.16 98.3199C286.16 98.3199 265.95 88.1799 247.86 103.79C247.86 103.79 234.3 100.73 225.87 105.65C217.45 110.57 216.21 122.41 216.21 122.41C216.21 122.41 208.61 122.08 207.58 127.22C206.55 132.36 214.23 148 214.23 148C214.23 148 215.87 147.38 217.69 146.9Z" fill="#403433"/>
<path d="M500 500V404.65C448.96 384.19 348.74 351.08 234.39 351.08C127.12 351.08 44.71 376.55 0 394.48V500H500Z" fill="#C75E21"/>
<path d="M445.05 500L304.64 381.62L73.75 446.31L137.75 500H445.05Z" fill="#90D898"/>
<path d="M331.96 500L219.76 405.4L216.94 406.2L328.2 500H331.96Z" fill="#CAEDCE"/>
<path d="M365.32 500L244.8 398.39L241.98 399.18L361.56 500H365.32Z" fill="#CAEDCE"/>
<path d="M298.59 500L194.72 412.42L191.89 413.21L294.83 500H298.59Z" fill="#CAEDCE"/>
<path d="M398.69 500L269.85 391.37L267.02 392.16L394.93 500H398.69Z" fill="#CAEDCE"/>
<path d="M432.06 500L294.89 384.35L292.06 385.15L428.29 500H432.06Z" fill="#CAEDCE"/>
<path d="M164.37 500L93.9799 440.65L91.1499 441.44L160.61 500H164.37Z" fill="#CAEDCE"/>
<path d="M265.23 500L169.67 419.44L166.85 420.23L261.46 500H265.23Z" fill="#CAEDCE"/>
<path d="M198.12 500L119.3 433.55L116.48 434.34L194.35 500H198.12Z" fill="#CAEDCE"/>
<path d="M231.86 500L144.63 426.45L141.81 427.25L228.1 500H231.86Z" fill="#CAEDCE"/>
<path opacity="0.4" d="M314.811 483.44C314.811 501.29 384.171 502.28 411.991 498.78C432.101 496.25 428.331 474.61 378.601 474.61C328.861 474.61 314.811 483.44 314.811 483.44Z" fill="#E3BF9A"/>
<path d="M395.29 483.44H314.81L311.42 451.18H398.68L395.29 483.44Z" fill="#67A23E"/>
<path d="M395.95 477.2C395.72 477.26 395.49 477.3 395.26 477.3C393.14 477.37 390.7 475.44 390.73 473.2C390.78 470.28 394.27 469.73 396.61 470.89L395.95 477.2ZM358.66 473.16C358.71 469.03 350.78 468.08 350.71 472.48C350.67 474.72 353.12 476.65 355.24 476.58C357.01 476.52 358.64 474.96 358.66 473.16ZM318.15 473.42C318.18 471.06 315.6 469.74 313.38 469.87L314.11 476.8C314.32 476.83 314.53 476.85 314.73 476.84C316.5 476.78 318.13 475.22 318.15 473.42ZM333.26 463.46C333.22 465.7 335.67 467.63 337.79 467.56C339.56 467.5 341.19 465.94 341.22 464.14C341.26 460.02 333.33 459.07 333.26 463.46ZM385.09 465.41C383.77 466.18 382.56 467.14 381.4 468.06C379.25 469.76 377.22 471.37 374.87 471.52C371.19 471.73 368.18 469.58 364.99 467.3C363.58 466.29 362.13 465.25 360.61 464.42C352.93 460.24 347.88 464.41 343.76 468.65C340.29 472.22 337.09 471.73 332.4 469.57C331.59 469.19 330.78 468.81 329.99 468.44C324.48 465.82 319.25 463.35 312.76 463.93L313.08 466.94C318.73 466.45 323.39 468.65 328.7 471.18C329.5 471.56 330.31 471.95 331.14 472.33C336.64 474.87 341.27 475.58 345.93 470.78C350.42 466.16 353.86 464.21 359.16 467.1C360.52 467.84 361.84 468.78 363.23 469.78C366.71 472.27 370.31 474.85 375.05 474.56C378.36 474.36 380.86 472.38 383.28 470.46C384.41 469.56 385.48 468.71 386.62 468.05C389.57 466.33 393.35 466.09 396.97 467.38C396.97 467.38 396.98 467.38 396.98 467.39L397.3 464.33C393.04 462.98 388.63 463.35 385.09 465.41ZM370.88 463.46C370.84 465.7 373.29 467.63 375.41 467.56C377.18 467.5 378.81 465.94 378.84 464.14C378.88 460.02 370.95 459.07 370.88 463.46Z" fill="#438422"/>
<path d="M402.861 453.03H307.241L302.851 422.35H407.241L402.861 453.03Z" fill="#8EC73E"/>
<path d="M407.25 422.35C407.25 422.35 383.78 427.92 354.02 428.22C352.93 428.24 351.82 428.24 350.7 428.24C335.44 428.2 318.76 426.69 302.84 422.35C302.84 422.35 317.53 418.16 339.28 416.48C340.44 416.39 341.59 416.31 342.8 416.24C343.04 416.22 343.28 416.22 343.52 416.2C344.7 416.13 345.88 416.07 347.1 416.03C347.78 415.99 348.48 415.96 349.17 415.94C349.74 415.92 350.31 415.9 350.89 415.87H351.55C351.88 415.85 352.23 415.85 352.58 415.85C353.13 415.83 353.67 415.83 354.22 415.83C370.29 415.63 388.7 417.18 407.25 422.35Z" fill="#438422"/>
<path d="M355.07 365.15C355.07 365.15 354.96 371.74 354.81 380.74C354.72 386.39 354.61 393.01 354.5 399.56C354.48 400.02 354.48 400.5 354.46 400.96C354.48 401 354.48 401.05 354.46 401.09V401.7C354.37 406.68 354.29 411.55 354.22 415.83C354.13 421.16 354.07 425.59 354.02 428.23C352.93 428.25 351.82 428.25 350.7 428.25L350.79 427.03L350.81 426.46L350.83 426.31L350.94 424.61L351.38 418.43L351.47 417.14L351.49 416.79L351.56 415.87L352.08 408.36L354 380.68L355.07 365.15Z" fill="#67A23E"/>
<path d="M353.57 392.73C333.11 393.5 335.49 360.53 338.56 359.65C341.63 358.77 344.1 374.88 344.1 374.88C344.1 374.88 341.85 344.44 345.9 343.29C349.94 342.14 352.19 358.02 352.19 358.02C352.19 358.02 356.11 339.64 360.1 339.43C364.1 339.22 360.95 361.65 360.95 361.65C360.95 361.65 364.09 352.48 367.01 352.71C369.93 352.93 367.01 372.76 367.01 372.76C367.01 372.76 369.66 362.46 372.72 363.65C375.79 364.83 370.45 392.09 353.57 392.73Z" fill="#E8795A"/>
<path d="M353.35 418.43C345.55 414.79 337.97 410.28 332.26 403.83C326.54 397.39 322.85 388.79 323.76 380.22C339.01 387.8 349.97 401.74 353.35 418.43Z" fill="#67A23E"/>
<path d="M353.1 418.43C360.9 414.79 368.48 410.28 374.19 403.83C379.91 397.39 383.6 388.79 382.69 380.22C367.44 387.8 356.48 401.74 353.1 418.43Z" fill="#67A23E"/>
<path opacity="0.4" d="M434.84 491.74C434.84 501.82 474.37 500.08 490.07 498.1C501.42 496.67 499.29 484.46 471.23 484.46C443.16 484.46 434.84 491.74 434.84 491.74Z" fill="#E3BF9A"/>
<path d="M477.56 491.74H434.84L433.04 474.61H479.36L477.56 491.74Z" fill="#FA9B35"/>
<path d="M481.58 475.6H430.82L428.49 459.31H483.91L481.58 475.6Z" fill="#EA7734"/>
<path d="M428.49 459.31C428.49 459.31 455.89 451.49 483.9 459.31C483.91 459.31 454.27 466.36 428.49 459.31Z" fill="#954614"/>
<path opacity="0.4" d="M106.94 379.95C106.94 396.48 157.4 399.77 177.9 396.54C192.72 394.2 189.94 374.17 153.29 374.17C116.64 374.16 106.94 379.95 106.94 379.95Z" fill="#E3BF9A"/>
<path d="M96.8901 327.31L106.94 379.94C106.94 379.94 129.78 396.33 164.2 379.94L171.27 327.31H96.8901Z" fill="#67A23E"/>
<path d="M171.27 327.31C171.27 327.31 164.45 335.9 138.13 336.68C137.6 336.69 137.07 336.71 136.52 336.71C135.73 336.72 134.91 336.73 134.07 336.73H133.7C133.32 336.73 132.92 336.72 132.55 336.71C108.38 336.38 96.8901 327.31 96.8901 327.31C96.8901 327.31 112.34 321.62 133.82 321.42C133.9 321.41 133.99 321.41 134.07 321.41C134.9 321.4 135.73 321.4 136.56 321.41C136.95 321.42 137.35 321.43 137.75 321.43C148.06 321.66 159.55 322.78 171.27 327.31Z" fill="#436B22"/>
<path d="M112.46 276.1C105.72 272.96 101.17 265.62 101.36 258.19C108.08 261.25 113.09 268.75 112.46 276.1Z" fill="#8EC73E"/>
<path d="M121.91 268.73C117.65 273.65 116.48 281.04 119.02 287.04C123.13 281.74 124.08 275.07 121.91 268.73Z" fill="#8EC73E"/>
<path d="M122.64 293.38C119.06 289.44 113.96 286.91 108.66 286.46C109.95 289.2 111.66 291.44 114.33 292.86C117 294.29 119.65 293.84 122.64 293.38Z" fill="#8EC73E"/>
<path d="M135.6 298.13C129.22 293.9 125.09 286.46 124.89 278.81C128.36 280.38 131.02 283.64 132.7 287.05C134.37 290.47 134.74 294.42 135.6 298.13Z" fill="#8EC73E"/>
<path d="M156.91 261.53C154.06 262.01 151.37 263.43 149.36 265.51C147.35 267.59 146.04 270.33 145.67 273.2C148.91 272.75 151.87 271.89 154.07 269.47C156.26 267.06 156.76 264.79 156.91 261.53Z" fill="#8EC73E"/>
<path d="M151.69 238.84C148.82 238.91 145.99 239.96 143.77 241.78C141.55 243.6 139.96 246.17 139.32 248.96C145.06 248.09 149.88 244.36 151.69 238.84Z" fill="#8EC73E"/>
<path d="M137.87 243.34C135.52 241.89 133.64 239.69 132.57 237.15C131.5 234.6 131.26 231.72 131.87 229.03C135.76 233.21 137.76 237.63 137.87 243.34Z" fill="#8EC73E"/>
<path d="M136.19 254.5C132.58 251.37 130.69 246.37 131.34 241.64C134.86 244.79 136.51 249.78 136.19 254.5Z" fill="#8EC73E"/>
<path d="M135.29 265.48C129.19 261.27 125.18 254.16 124.72 246.76C130.87 250.87 134.82 258.1 135.29 265.48Z" fill="#8EC73E"/>
<path d="M148.07 254.74C140.74 258.74 135.75 266.72 135.36 275.06C142.35 270.24 147.25 263.19 148.07 254.74Z" fill="#8EC73E"/>
<path d="M134.73 281.86C130.77 279.71 126.77 277.54 123.36 274.61C119.94 271.67 117.11 267.87 116.13 263.47C124.29 267.01 131.64 273.51 134.73 281.86Z" fill="#8EC73E"/>
<path d="M131.11 307.39C121.83 306.83 112.87 302.19 107.07 294.93C116.61 295.88 125.3 299.78 131.11 307.39Z" fill="#8EC73E"/>
<path d="M156.36 302.26C157.12 297.54 159.39 293.08 162.75 289.69C166.11 286.29 170.54 283.98 175.25 283.16C174.84 288.01 171.85 292.56 168.21 295.79C164.57 299.02 160.97 300.69 156.36 302.26Z" fill="#8EC73E"/>
<path d="M146.02 312.07C144.7 303.62 147.32 294.64 152.97 288.22C153.77 296.91 151.65 305.41 146.02 312.07Z" fill="#8EC73E"/>
<path d="M164.28 309.34C157.09 308.24 149.47 310.37 143.89 315.04C151.11 315.68 158.92 314.22 164.28 309.34Z" fill="#8EC73E"/>
<path d="M136.13 325.12C130.95 322.43 126.75 317.9 124.46 312.54C130.26 314.79 134.32 319.17 136.13 325.12Z" fill="#8EC73E"/>
<path d="M150.55 280.91C141.77 285.64 135.95 295.4 135.94 305.37C144.04 300.11 149.35 290.48 150.55 280.91Z" fill="#8EC73E"/>
<path d="M135.1 316.1L106.14 265.59L135.69 312.63L135.1 316.1Z" fill="#438422"/>
<path d="M135.69 320.61L169.24 288.87L136.57 324.13L135.69 320.61Z" fill="#438422"/>
<path d="M135.1 279.8V282.58L150.75 269.09L135.1 279.8Z" fill="#438422"/>
<path d="M137.75 321.44L138.13 336.68C137.6 336.69 137.07 336.71 136.52 336.71C135.73 336.72 134.91 336.73 134.07 336.73H133.7L133.81 321.42L134.26 257.16L139.12 246.89L134.12 237.35L141 245.79L136.13 258.15L137.75 321.44Z" fill="#438422"/>
<path opacity="0.4" d="M34.15 460.89C13.71 460.89 3.85 463.58 0 465.04V471.14C8.28 480.75 39.45 482.43 53.02 480.04C64.38 478.04 62.25 460.89 34.15 460.89Z" fill="#E3BF9A"/>
<path d="M0 323.5V467.42H42.9L57.74 323.5H0Z" fill="white"/>
<path d="M20.6902 316.29C19.6102 316.23 18.5702 316.2 17.5302 316.19C17.4502 316.19 17.3702 316.17 17.3002 316.19C16.2202 316.17 15.1402 316.15 14.0902 316.17H13.7002C12.5402 316.19 11.4002 316.22 10.2802 316.27C6.61023 316.42 3.18023 316.73 -0.00976562 317.13V330.15C3.85023 330.62 7.65024 330.86 11.3502 330.93C12.0102 330.94 12.6702 330.95 13.3202 330.95C13.8102 330.95 14.3002 330.95 14.7802 330.93H15.0002C15.5802 330.93 16.1602 330.92 16.7502 330.9C17.3102 330.89 17.8602 330.88 18.4102 330.86C40.6702 329.99 57.7302 323.48 57.7302 323.48C44.2802 318.77 31.7402 316.76 20.6902 316.29Z" fill="#FEF1E8"/>
<path d="M13.95 318.89C13.87 317.98 13.79 317.08 13.71 316.17C11.35 289.1 6.9 265.52 0 243.57V255.8C4.98 274.28 8.34 294.09 10.29 316.27C10.71 321.04 11.07 325.93 11.36 330.94C12.02 330.95 12.68 330.96 13.33 330.96C13.82 330.96 14.31 330.96 14.79 330.95C14.54 326.86 14.27 322.84 13.95 318.89Z" fill="#8EC73E"/>
<path d="M59.06 218.3C54.02 224.13 46.71 236.12 39.54 252.81C32.3 269.67 25.2 291.32 20.7 316.28C19.83 321.03 19.07 325.89 18.42 330.86C17.87 330.88 17.32 330.89 16.77 330.91C16.19 330.93 15.61 330.94 15.02 330.94C15.68 325.94 16.45 321.01 17.31 316.18C17.42 315.59 17.53 314.98 17.64 314.39C22.42 288.59 29.96 265.59 37.91 247.71C44.21 233.56 50.78 222.62 56.47 216.06C57.1 215.34 58.17 215.27 58.89 215.89C59.59 216.51 59.67 217.6 59.06 218.3Z" fill="#67A23E"/>
<path d="M83.28 154.04L61.61 157.97L78.35 146.9C71.69 138.82 61.66 131.72 51.53 128.44L47.11 137.35L48.01 127.46C47.74 127.4 47.47 127.32 47.2 127.26C39.35 125.6 31.04 125.53 22.76 127.65L27.07 152.14L17 129.5C11.22 131.74 5.51 135.12 0.04 139.9C0.03 139.91 0.02 139.92 0 139.93V171.36C1.25 171.5 2.48 171.72 3.69 172.04C11.49 174.12 18.12 179.74 22.14 186.74C26.16 193.74 27.67 202.02 27.17 210.07C27.98 197.62 44.25 188.97 54.98 187.54C67.51 185.88 79.7 194.41 85.64 205.57C93.24 186.93 92.15 169.2 83.28 154.04Z" fill="#438422"/>
<path d="M37.5098 168.52C36.3498 172.66 35.1998 177.44 34.0298 182.77C33.7798 183.93 33.5198 185.1 33.2698 186.31C32.4898 190.05 31.7198 194.05 30.9698 198.25C30.7798 199.3 30.5798 200.38 30.3998 201.46C29.4698 206.68 28.5598 212.21 27.6798 218C23.3998 246.13 19.7098 280.21 17.6398 314.4C17.6098 315.01 17.5698 315.6 17.5298 316.2C17.2298 321.12 16.9698 326.03 16.7498 330.92C16.1698 330.94 15.5898 330.95 14.9998 330.95H14.7798C14.2998 330.97 13.8198 330.97 13.3198 330.97C13.4898 326.97 13.6898 322.93 13.9298 318.9C13.9798 318 14.0198 317.09 14.0798 316.18C16.1898 280.47 20.0698 244.76 24.5898 215.62C25.3398 210.73 26.1198 206.02 26.8998 201.54C27.1198 200.28 27.3398 199.04 27.5598 197.83C28.4198 193.03 29.3098 188.51 30.1898 184.32C30.3498 183.57 30.5098 182.83 30.6698 182.1C31.8398 176.68 33.0198 171.82 34.1998 167.61C34.4698 166.7 35.3998 166.16 36.3098 166.41C37.2298 166.67 37.7698 167.61 37.5098 168.52Z" fill="#438422"/>
<path d="M83.9702 220.3L103.33 215.01C99.5302 205.26 92.2102 195.38 83.6202 189.1L76.6402 196.18L80.5802 187.07C80.3402 186.93 80.1102 186.77 79.8802 186.63C72.9402 182.6 65.0702 179.94 56.5402 179.37L52.9902 203.98L50.4902 179.32C44.3002 179.64 37.8202 181.07 31.1302 183.9C17.5302 189.66 8.8302 198.42 1.4502 213.28C8.8302 210.02 17.8102 211.16 24.5602 215.58C31.3202 219.99 35.8602 227.4 37.4902 235.31C39.1202 243.21 37.9702 251.55 34.9802 259.05C39.6402 247.48 57.8002 244.34 68.4402 246.34C80.8602 248.67 89.7702 260.59 91.9302 273.04C104.99 257.7 109.49 240.52 105.79 223.34L83.9702 220.3Z" fill="#67A23E"/>
<path d="M2.54 166.45L0 171.6V222.01C1.91 218.09 4.32 214.59 6.76 212.06C15.52 202.95 30.37 202.02 41.97 207.03C36.28 187.71 18.93 172.77 2.54 166.45Z" fill="#8EC73E"/>
<path opacity="0.4" d="M291.31 403.54C289.9 400.55 276.58 379.4 270.72 378.65C266.95 378.16 261.34 381.55 257.84 384.02C256.94 382.69 255.87 381.31 254.76 379.96C254.74 379.94 254.73 379.92 254.71 379.9C251.8 376.39 248.61 373.16 247.28 371.92C244.22 369.07 237.89 360.15 231.92 365.33C225.95 370.51 235.63 376.51 238.69 379.36C240.02 380.59 243.52 383.55 247.35 386.27C247.37 386.29 247.4 386.3 247.42 386.31C248.88 387.35 250.39 388.34 251.83 389.2C248.95 392.25 244.91 397.21 245.32 400.65C245.95 405.93 268.98 418.67 272.26 420.04C275.54 421.41 290.18 422.97 292.04 421.35C293.92 419.74 292.72 406.53 291.31 403.54Z" fill="#E3BF9A"/>
<path d="M291.31 399.84C292.72 403.17 293.92 417.86 292.05 419.66C290.18 421.46 275.54 419.73 272.27 418.2C269 416.67 245.96 402.5 245.33 396.62C244.7 390.74 254.61 380.83 254.61 380.83C254.61 380.83 264.87 371.3 270.73 372.14C276.58 372.97 289.91 396.51 291.31 399.84Z" fill="#FFF9F5"/>
<path d="M231.93 357.3C225.96 363.06 235.64 369.75 238.7 372.92C240.03 374.29 243.53 377.58 247.36 380.61C252.37 384.57 258.52 378.64 254.71 373.52C251.8 369.61 248.61 366.02 247.28 364.64C244.23 361.47 237.9 351.54 231.93 357.3Z" fill="#4D1C21"/>
<path d="M247.36 380.61C252.37 384.57 257.92 388.08 259.83 386.24C261.84 384.3 258.52 378.64 254.71 373.52L247.36 380.61Z" fill="#FDE1CE"/>
<path opacity="0.4" d="M402.28 408.79C402.28 424.24 457.3 422.68 483.33 419.65C502.15 417.46 509.76 398.74 463.23 398.74C416.71 398.74 402.28 408.79 402.28 408.79Z" fill="#E3BF9A"/>
<path opacity="0.4" d="M429.8 267.15C429.8 272.39 452.17 272.97 461 271.94C467.38 271.2 466.18 264.85 450.4 264.85C434.63 264.85 429.8 267.15 429.8 267.15Z" fill="#E3BF9A"/>
<path d="M466.12 408.79H402.28L399.6 383.98H468.81L466.12 408.79Z" fill="#436B22"/>
<path d="M472.12 385.51H396.28L392.8 360.07H475.6L472.12 385.51Z" fill="#438422"/>
<path d="M392.8 360.07C392.8 360.07 433.74 347.85 475.6 360.07C475.6 360.07 431.33 371.08 392.8 360.07Z" fill="#436B22"/>
<path d="M413.811 346.29C415.321 351.71 420.521 356.86 424.591 361.29C430.191 362.01 435.871 362.23 441.471 361.83C441.891 361.8 442.301 361.75 442.721 361.71C446.471 356.8 451.041 350.18 452.611 344.56C450.111 346.86 444.901 351.87 442.821 354.56C445.831 347.46 450.841 338.77 452.361 329.71C449.031 334.77 443.391 341.44 440.841 347.65C443.521 335.25 446.981 324.3 447.351 310.32C444.131 319.99 439.541 328.24 437.561 338.8C437.581 324.22 436.111 309.64 433.141 295.94C430.811 311.32 430.151 326.58 430.371 337.53C430.381 338.07 430.391 338.6 430.411 339.12C428.421 328.44 423.661 320.21 420.411 310.43C420.771 324.41 424.381 335.24 427.061 347.64C424.511 341.43 418.801 334.31 415.471 329.25C416.991 338.31 422.071 347.44 425.091 354.55C423.011 351.87 416.321 348.58 413.811 346.29Z" fill="#8EC73E"/>
<path opacity="0.4" d="M500 431.36C499.52 431.35 499.07 431.34 498.58 431.34C462.15 431.34 451.43 437.65 451.43 437.65C451.43 446.3 477.62 448.94 500 448.87V431.36Z" fill="#E3BF9A"/>
<path d="M500 415.26H449.01L451.43 437.65H500V415.26Z" fill="#438422"/>
<path d="M500 393.69H442.88L446.02 416.65H500V393.69Z" fill="#67A23E"/>
<path d="M500 390C469.13 385.86 442.88 393.69 442.88 393.69C463.14 399.48 485.15 398.52 500 396.71V390Z" fill="#954614"/>
<path d="M500.001 428.04C498.751 430.72 497.491 434.29 496.411 437.66H500.001V428.04Z" fill="#436B22"/>
<path d="M480.741 437.65H491.731C490.321 431 488.101 423.55 485.311 423.75C482.581 423.96 481.321 431.15 480.741 437.65Z" fill="#436B22"/>
<path d="M466.261 437.65H478.321C476.811 430.54 474.611 422.44 472.411 422.64C470.091 422.87 467.771 431.03 466.261 437.65Z" fill="#436B22"/>
<path d="M451.431 437.65H462.791C461.101 430.5 458.461 421.46 455.931 421.91C453.431 422.35 451.871 428.78 451.021 433.83L451.431 437.65Z" fill="#436B22"/>
<path d="M467.771 390.43C467.511 392.01 467.361 393.73 467.381 395.47C472.491 395.86 477.691 395.66 482.531 395.44C487.301 395.23 492.031 394.81 496.701 394.1C496.801 393.48 496.901 392.88 497.001 392.31C498.281 385.26 499.541 377.86 497.331 371.04C496.041 367.05 493.581 363.34 493.461 359.15C493.311 354.21 496.481 349.5 495.831 344.6C495.321 340.76 492.591 337.64 491.031 334.1C489.351 330.31 489.031 325.94 490.141 321.94C491.141 318.34 493.281 314.8 492.561 311.14C492.001 308.3 489.841 306.11 488.091 303.81C485.991 301.05 485.951 299.14 485.891 295.94C485.851 293.89 484.871 291.09 482.691 290.43C479.951 289.59 477.511 292.67 477.121 295.5C476.731 298.33 477.411 301.32 476.451 304.02C475.341 307.14 472.291 309.18 470.791 312.14C468.211 317.25 471.131 321.66 472.081 326.63C472.961 331.2 473.271 337.16 472.031 341.69C470.891 345.85 468.181 349.51 467.471 353.76C466.431 360.02 469.901 366.11 470.441 372.43C470.951 378.49 468.741 384.41 467.771 390.43Z" fill="#438422"/>
<path d="M480.541 328.83C480.071 351.04 479.981 373.35 480.281 395.53C480.821 395.51 481.361 395.48 481.901 395.46C481.741 382.92 481.681 370.35 481.761 357.77L488.911 347.69C489.171 347.33 489.081 346.82 488.721 346.56C488.351 346.3 487.851 346.39 487.591 346.75L481.791 354.93C481.921 337.92 482.261 320.91 482.841 304.02C482.861 303.57 482.511 303.2 482.061 303.18C481.591 303.16 481.241 303.51 481.221 303.96C480.981 311.01 480.791 318.08 480.631 325.16L476.961 317.28C476.771 316.87 476.291 316.7 475.891 316.89C475.491 317.08 475.311 317.56 475.501 317.96L480.541 328.83Z" fill="#436B22"/>
<path d="M500 352.09C499.97 351.89 499.93 351.68 499.92 351.48C499.84 350.64 499.89 349.81 500 348.98V336.31C499.26 335.34 498.25 334.68 496.98 334.62C493.84 334.46 491.81 338.12 491.86 341.27C491.91 344.41 493.21 347.45 493.13 350.59C492.9 359.39 482.38 365.08 481.52 373.85C481.1 378.17 483.15 382.32 483.68 386.63C484.05 389.67 483.35 392.57 482.49 395.45C482.5 395.45 482.52 395.45 482.53 395.45C488.43 395.19 494.27 394.62 500 393.54V352.09Z" fill="#67A23E"/>
<path d="M490.36 394.88C490.92 394.83 491.48 394.77 492.04 394.71C492.3 393.33 492.57 391.96 492.81 390.58C492.89 390.43 492.93 390.26 492.9 390.07C494.11 383.2 495.12 376.29 495.9 369.36L499.71 365.06C500.01 364.73 499.98 364.22 499.64 363.92C499.31 363.62 498.79 363.65 498.5 363.99L496.2 366.58C496.9 359.9 497.41 353.2 497.71 346.5C497.73 346.05 497.38 345.68 496.94 345.66C496.51 345.63 496.12 345.99 496.1 346.43C495.51 359.53 494.14 372.63 492.02 385.6L489.32 371.95C489.23 371.51 488.81 371.23 488.37 371.31C487.93 371.4 487.65 371.82 487.73 372.26L491.25 390.07C490.97 391.68 490.67 393.28 490.36 394.88Z" fill="#438422"/>
<path d="M460.52 381.72C460.29 385.93 459.4 390.24 459.89 394.36C467.13 396.04 475.04 395.77 482.22 395.45C481.56 391.21 479.94 386.95 478.62 383.97C476.04 378.15 473.06 372.22 473.09 365.85C473.11 361.19 474.77 356.5 473.72 351.96C472.5 346.68 467.83 342.6 467.04 337.24C466.59 334.18 467.48 331.07 467.34 327.98C467.2 324.89 465.42 321.4 462.34 321.11C459.24 320.82 456.77 324.14 456.75 327.26C456.73 330.66 458.7 333.71 459.67 336.97C460.75 340.64 460.52 344.68 459.01 348.19C457.79 351.05 455.73 353.67 455.49 356.77C455.26 359.71 456.69 362.48 457.79 365.21C459.88 370.41 460.82 376.1 460.52 381.72Z" fill="#8EC73E"/>
<path d="M464.561 374.27C464.271 373.93 463.761 373.89 463.421 374.17C463.081 374.46 463.041 374.97 463.321 375.31L468.231 381.12C468.971 385.97 469.781 390.81 470.641 395.64C471.191 395.66 471.731 395.67 472.281 395.67C470.021 382.99 468.171 370.21 466.751 357.39C466.851 357.33 466.931 357.25 467.001 357.14L470.161 351.93C470.391 351.55 470.271 351.05 469.891 350.82C469.511 350.59 469.011 350.71 468.781 351.09L466.481 354.88C465.571 346.39 464.851 337.88 464.321 329.39C464.291 328.94 463.911 328.61 463.461 328.63C463.011 328.66 462.681 329.04 462.701 329.49C463.711 345.69 465.411 361.93 467.771 378.06L464.561 374.27Z" fill="#67A23E"/>
<path opacity="0.4" d="M66.0703 403.74C66.0703 419.73 116.17 423.28 136 420.15C150.34 417.89 147.65 398.51 112.19 398.51C76.7303 398.51 66.0703 403.74 66.0703 403.74Z" fill="#E3BF9A"/>
<path d="M119.2 403.74H66.0703L63.8403 382.45H121.44L119.2 403.74Z" fill="#FA9B35"/>
<path d="M124.2 383.67H61.0802L58.1802 363.42H127.09L124.2 383.67Z" fill="#EA7734"/>
<path d="M58.1802 363.42C58.1802 363.42 92.2502 353.7 127.09 363.42C127.09 363.42 90.2402 372.18 58.1802 363.42Z" fill="#954614"/>
<path d="M101.05 359.05C101.26 360.33 101.38 361.72 101.37 363.13C97.2299 363.45 93.0199 363.28 89.0899 363.11C85.2199 362.94 81.3899 362.6 77.6099 362.02C77.5299 361.52 77.4499 361.03 77.3699 360.57C76.3299 354.86 75.3099 348.86 77.0999 343.34C78.1499 340.11 80.1399 337.1 80.2399 333.7C80.3599 329.7 77.7999 325.88 78.3199 321.91C78.7299 318.8 80.9399 316.27 82.2099 313.41C83.5699 310.34 83.8299 306.8 82.9299 303.56C82.1199 300.64 80.3799 297.78 80.9699 294.81C81.4199 292.51 83.1699 290.73 84.5899 288.87C86.2899 286.64 86.3199 285.09 86.3699 282.49C86.3999 280.83 87.1999 278.56 88.9699 278.02C91.1899 277.34 93.1699 279.83 93.4899 282.13C93.8099 284.43 93.2599 286.85 94.0299 289.03C94.9299 291.56 97.3999 293.21 98.6099 295.61C100.7 299.75 98.3399 303.32 97.5599 307.35C96.8499 311.06 96.5999 315.88 97.5999 319.55C98.5199 322.92 100.72 325.88 101.3 329.33C102.14 334.4 99.3299 339.34 98.8999 344.46C98.4799 349.38 100.26 354.18 101.05 359.05Z" fill="#438422"/>
<path d="M90.6997 309.14C91.0797 327.14 91.1497 345.21 90.9097 363.19C90.4697 363.17 90.0297 363.15 89.5997 363.13C89.7297 352.97 89.7797 342.78 89.7097 332.59L83.9197 324.43C83.7097 324.13 83.7797 323.73 84.0797 323.52C84.3797 323.31 84.7797 323.38 84.9897 323.68L89.6897 330.31C89.5797 316.52 89.3097 302.75 88.8397 289.06C88.8297 288.7 89.1097 288.4 89.4697 288.38C89.8497 288.36 90.1297 288.65 90.1497 289.01C90.3397 294.72 90.4997 300.45 90.6297 306.19L93.5997 299.8C93.7497 299.47 94.1397 299.33 94.4697 299.48C94.7997 299.63 94.9397 300.02 94.7897 300.35L90.6997 309.14Z" fill="#436B22"/>
<path d="M89.13 363.11C89.12 363.11 89.11 363.11 89.1 363.11C83.57 362.86 78.11 362.29 72.78 361.13C72.78 360.05 72.87 358.97 73.05 357.9C73.73 353.87 75.56 349.83 74.62 345.85C73.94 342.98 71.85 340.47 71.81 337.52C71.77 333.98 74.69 331.01 75.02 327.49C75.26 324.89 74.06 322.39 73.77 319.79C73.49 317.2 74.79 313.96 77.39 313.83C79.93 313.7 81.58 316.67 81.54 319.21C81.5 321.76 80.45 324.22 80.51 326.76C80.7 333.89 89.22 338.5 89.92 345.61C90.26 349.11 88.6 352.47 88.17 355.96C87.86 358.43 88.43 360.78 89.13 363.11Z" fill="#67A23E"/>
<path d="M82.7501 362.66C82.3001 362.62 81.8401 362.57 81.3901 362.52C81.1801 361.41 80.9601 360.29 80.7601 359.17C80.6901 359.05 80.6601 358.91 80.6901 358.76C79.7101 353.19 78.8901 347.6 78.2601 341.98L75.1701 338.5C74.9301 338.23 74.9501 337.82 75.2301 337.58C75.5001 337.34 75.9101 337.36 76.1601 337.64L78.0201 339.74C77.4501 334.33 77.0401 328.9 76.7901 323.47C76.7701 323.11 77.0501 322.8 77.4201 322.79C77.7701 322.76 78.0901 323.05 78.1001 323.42C78.5801 334.04 79.6901 344.65 81.4101 355.16L83.6001 344.1C83.6701 343.75 84.0101 343.52 84.3701 343.58C84.7301 343.65 84.9601 344 84.8901 344.35L82.0401 358.78C82.2501 360.06 82.5001 361.36 82.7501 362.66Z" fill="#438422"/>
<path d="M106.93 351.99C107.11 355.4 107.84 358.89 107.44 362.23C101.57 363.59 95.1598 363.37 89.3398 363.11C89.8698 359.67 91.1898 356.22 92.2598 353.81C94.3498 349.09 96.7698 344.28 96.7398 339.12C96.7198 335.35 95.3799 331.54 96.2299 327.86C97.2099 323.58 101 320.28 101.64 315.93C102 313.45 101.29 310.93 101.4 308.43C101.51 305.92 102.96 303.1 105.45 302.86C107.96 302.63 109.96 305.32 109.98 307.84C110 310.59 108.4 313.06 107.62 315.71C106.74 318.68 106.93 321.95 108.15 324.8C109.14 327.12 110.8 329.24 111 331.75C111.19 334.13 110.02 336.37 109.14 338.59C107.44 342.83 106.68 347.44 106.93 351.99Z" fill="#8EC73E"/>
<path d="M103.65 345.96C103.88 345.68 104.3 345.65 104.57 345.88C104.85 346.11 104.88 346.53 104.65 346.8L100.67 351.51C100.07 355.44 99.4097 359.36 98.7197 363.27C98.2797 363.28 97.8296 363.29 97.3896 363.3C99.2196 353.02 100.72 342.67 101.87 332.28C101.79 332.23 101.72 332.16 101.67 332.08L99.1096 327.86C98.9196 327.55 99.0197 327.15 99.3297 326.96C99.6397 326.77 100.04 326.87 100.23 327.18L102.09 330.25C102.82 323.37 103.41 316.48 103.84 309.59C103.86 309.23 104.18 308.96 104.53 308.98C104.89 309 105.17 309.31 105.14 309.67C104.32 322.8 102.94 335.96 101.03 349.03L103.65 345.96Z" fill="#67A23E"/>
<path opacity="0.4" d="M79.9702 481.08C79.9702 495.5 120.1 498.25 136.12 495.43C147.71 493.39 145.53 475.91 116.89 475.91C88.2402 475.9 79.9702 481.08 79.9702 481.08Z" fill="#E3BF9A"/>
<path d="M79.9698 481.08H99.0498C108.1 476.19 116.85 461.34 118.66 441.74L59.5698 441.6C60.5998 461.29 69.3398 475.61 79.9698 481.08Z" fill="#FFF9F5"/>
<path d="M118.66 441.74C118.66 441.74 110.52 445.47 96.5001 446.29C94.9601 446.39 93.3501 446.45 91.6601 446.46H90.3601C90.1401 446.46 89.9301 446.45 89.7101 446.45C88.0301 446.43 86.2901 446.36 84.4801 446.24C83.0201 446.14 81.5101 446.01 79.9701 445.84C73.7601 445.15 66.9201 443.84 59.5601 441.6C59.5601 441.6 66.0301 439.1 76.5901 437.85C78.5901 437.6 80.7401 437.42 83.0201 437.3C84.6701 437.21 86.3801 437.15 88.1601 437.15C88.9801 437.15 89.8201 437.15 90.6701 437.18C91.3701 437.19 92.0801 437.21 92.8001 437.25C95.1401 437.35 97.5601 437.53 100.06 437.83C105.89 438.5 112.13 439.72 118.66 441.74Z" fill="#FEF1E8"/>
<path d="M93.6103 422.82C93.7903 406.98 91.6303 391.28 87.0603 374.93C82.9303 390.17 81.1403 406.03 81.7003 421.82C79.0503 416.91 75.9203 412.29 72.4503 408.07C71.7403 418.15 73.2203 428.34 76.6003 437.86C77.5703 440.59 78.7003 443.26 79.9803 445.85C81.5203 446.03 83.0303 446.15 84.4903 446.25C86.3003 446.37 88.0403 446.44 89.7203 446.46C89.9403 446.46 90.1503 446.47 90.3703 446.47H91.6703C93.3603 446.46 94.9703 446.4 96.5103 446.3C97.8003 443.5 98.9803 440.69 100.08 437.84C106.38 421.58 109.82 404.52 109.87 386.67C102.5 397.72 97.0303 409.99 93.6103 422.82Z" fill="#67A23E"/>
<path d="M0 470.36V481.53C0.89 482.23 1.81 482.91 2.75 483.53C1.75 479.2 1.1 474.69 0 470.36Z" fill="#8EC73E"/>
<path d="M43.1899 414.1C37.7799 415.01 32.6799 417.7 28.8699 421.66C25.0599 425.61 22.5699 430.81 21.8599 436.26C27.9999 435.4 33.6199 433.77 37.7899 429.18C41.9599 424.58 42.9099 420.29 43.1899 414.1Z" fill="#8EC73E"/>
<path d="M33.2801 371.05C27.8401 371.19 22.4601 373.18 18.2501 376.63C14.0401 380.08 11.0201 384.95 9.81006 390.26C20.7001 388.59 29.8401 381.52 33.2801 371.05Z" fill="#8EC73E"/>
<path d="M0 357.71V373.07C1.92 375.66 4.32 377.89 7.06 379.58C6.9 371.11 4.54 364.14 0 357.71Z" fill="#8EC73E"/>
<path d="M0 383.09V396.56C1.14 398.09 2.43 399.51 3.88 400.76C4.28 394.69 2.97 388.38 0 383.09Z" fill="#8EC73E"/>
<path d="M0 410.33V420C0.71 420.55 1.43 421.09 2.17 421.6C1.92 417.78 1.18 413.99 0 410.33Z" fill="#8EC73E"/>
<path d="M26.41 401.21C12.51 408.81 3.04004 423.94 2.29004 439.77C15.56 430.63 24.85 417.25 26.41 401.21Z" fill="#8EC73E"/>
<path d="M42.1401 491.37C43.5901 482.42 47.8901 473.96 54.2701 467.52C60.6401 461.08 69.0601 456.68 77.9901 455.13C77.2201 464.33 71.5301 472.97 64.6301 479.1C57.7201 485.24 50.8801 488.41 42.1401 491.37Z" fill="#8EC73E"/>
<path d="M29.2602 500C34.8702 489.34 36.8602 477.14 35.7202 464.75C27.2002 474.41 22.3302 487.15 21.9302 500H29.2602Z" fill="#8EC73E"/>
<path d="M31.1199 450.86C14.4699 459.84 3.4099 478.35 3.3999 497.27C18.7699 487.31 28.8399 469.03 31.1199 450.86Z" fill="#8EC73E"/>
<path d="M35.0599 500L66.5799 465.98L30.6099 500H35.0599Z" fill="#438422"/>
<path d="M1.81006 448.76V454.04L31.5101 428.45L1.81006 448.76Z" fill="#438422"/>
<path d="M0 438.59V500H6.12L3.78 407.69L13.02 384.24L0 368.27V368.3L9.45 386.32L0.23 405.81L0 438.59Z" fill="#438422"/>
<path opacity="0.4" d="M141.32 466.17C141.32 485.58 217.28 489.23 247.53 485.43C269.4 482.68 265.29 459.15 211.22 459.15C157.15 459.14 141.32 466.17 141.32 466.17Z" fill="#E3BF9A"/>
<path d="M226.82 466.17H141.32L137.73 439.56H230.42L226.82 466.17Z" fill="#FA9B35"/>
<path d="M234.86 441.52H133.28L128.63 408.94H239.52L234.86 441.52Z" fill="#EA7734"/>
<path d="M128.63 408.94C128.63 408.94 183.46 393.29 239.52 408.94C239.52 408.94 180.22 423.04 128.63 408.94Z" fill="#954614"/>
<path d="M37.48 -9.76585e-06C43.36 11.44 47.83 23.69 50.76 36.53C42.67 24.36 34.58 12.18 26.49 -9.76585e-06H37.48ZM11.77 -9.76585e-06C17.99 8.57999 24.84 16.7 32.3 24.22C28.43 15.86 24.36 7.81999 20.08 -9.76585e-06H11.77ZM2.47 -9.76585e-06C9.58 10.06 17.46 19.56 26.07 28.37C20.79 18.68 15.48 9.25999 10.04 -9.76585e-06H2.47ZM0 14.01C4.17 20.98 8.57 27.8 13.22 34.45C9.07 22.79 4.74 11.32 0.15 -9.76585e-06H0V14.01ZM112.68 14.88C132.71 43.15 152.75 71.41 172.78 99.68C165.57 75.86 153.18 54.11 137.21 35.2C144.93 41.35 153.15 46.88 161.77 51.7C153.58 39.18 143.63 27.89 131.74 19.38C140.55 22.56 149.73 24.74 159.04 25.79C142.5 15.74 126.02 7.35999 108.68 -9.76585e-06H92.39C105.43 31.33 123.91 60.39 146.83 85.42C137.02 55.59 121.95 28.08 101.38 4.69999C105.24 7.98999 109.01 11.38 112.68 14.88ZM77.15 49.56C74.76 32.03 70.7 15.72 64.67 -9.76585e-06H54.86C55.63 2.67999 56.45 5.33999 57.34 7.97999C55.66 5.40999 53.96 2.84999 52.25 0.28999C52.21 0.18999 52.17 0.0899902 52.13 -0.0100098H42.77C43.27 0.58999 43.75 1.19999 44.26 1.79999C50.14 15.22 56.66 28.36 63.79 41.15C62.22 32.47 60.24 24.18 57.82 16.19C59.13 17.46 60.46 18.7 61.81 19.93C66.05 30.24 71.17 40.17 77.15 49.56ZM76.85 -9.76585e-06C84.12 20.29 95.96 38.95 111.35 54.04C104.09 35.33 94.41 17.27 83.77 -9.76585e-06H76.85ZM66.67 -9.76585e-06C73.68 23.1 85.07 44.86 100.16 63.71C92.35 41.65 84.33 20.52 74.25 -9.76585e-06H66.67Z" fill="#438422"/>
<path d="M27.86 90.37C21.01 76.07 15.67 61.06 11.86 45.67C12.95 61.01 13.52 76.4 13.74 92C5.1 62.13 0.48 31.1 0 0H7.28C16.19 30.02 22.5 59.24 27.86 90.37ZM154.58 130.76C146.1 126.76 138.12 121.75 130.8 115.9C139.31 127.79 145.09 141.67 148.82 156.17C142.21 148.83 136.21 140.95 130.88 132.64C139.92 155.68 144.64 180.27 143.79 205.14C133.93 171.93 124.07 138.71 114.2 105.5C111.86 101 109.38 96.58 106.78 92.23C118.73 120.98 124.13 151.88 123.81 183.28C109.63 150.94 101.37 116.02 99.52 80.76C95.61 74.93 91.46 69.25 87.09 63.72C93.82 89.24 99.21 115.84 100.33 142.14C87.97 117.63 82.89 89.5 85.87 62.2C83.41 59.14 80.88 56.13 78.28 53.17C84.9 84.68 86.23 115.43 86.62 147.69C75.67 117.43 72.6 84.35 77.77 52.59C75.22 49.71 72.61 46.87 69.93 44.09C75.19 72.05 74.89 98.65 69.39 126.88C66.75 116.06 65.1 105.01 64.4 93.9C63.52 92.3 62.67 90.69 61.83 89.07C61.55 97.42 60.76 105.9 59.45 114.63C56.82 100.22 54.88 85.68 53.63 71.08C46.87 54.06 42.42 36.14 40.45 17.93C35.59 14.25 30.6 10.73 25.49 7.38C44.16 36.75 52.22 71.16 48.59 106.04C39.72 72.41 30.83 38.76 21.94 5.11C20.05 3.92 18.15 2.74 16.23 1.59C25.54 30.38 31.88 58.08 35.1 88.46C21.79 61.12 14.62 30.81 14.22 0.4C13.99 0.26 13.75 0.13 13.52 0H58.08C73.47 4.26 88.45 10.34 103.44 17.55C79.8 17.5 56.19 13.02 34.14 4.51C35.66 5.61 37.17 6.73 38.66 7.86C65.29 17.09 90.83 30.41 114.54 45.59C95.87 43.09 77.75 36.78 61.48 27.31C62.97 28.74 64.45 30.19 65.9 31.66C90.25 42.29 111.1 55.81 133.25 70.86C112.24 65.38 92.44 55.39 75.47 41.86C79.19 46.05 82.77 50.37 86.21 54.79C110.64 69.24 133.47 84.99 155.51 103.12C133.89 96.56 113.8 85.07 97.07 69.89C99.29 73.22 101.42 76.6 103.48 80.02C122.22 95.6 138.78 111.88 154.58 130.76ZM52.05 40.27C51.97 35.91 51.94 31.55 51.98 27.19C49.27 24.88 46.5 22.63 43.69 20.43C45.16 22.55 46.44 24.63 47.56 27.63C49.12 31.81 50.61 36.03 52.05 40.27ZM68.16 42.26C63.77 37.78 59.19 33.47 54.46 29.33C58.55 43.81 60.93 57.93 61.7 72.23C62.5 75.2 63.28 78.17 64.05 81.15C64.09 68.09 65.45 55.04 68.16 42.26Z" fill="#67A23E"/>
<path d="M46.5 54.71C29.82 50.24 14.01 42.64 0 32.56V20.86C16.35 30.93 31.9 42.45 46.5 54.71ZM0 16.06C12.66 20.54 25.78 23.72 39.09 25.47C26.3 17.14 13.41 9.75 0 3.79V16.06ZM75.24 144.33C62 123.57 47.68 105.29 31.11 87.43C29.51 83.77 27.83 80.14 26.06 76.56C40.7 93.77 59.13 107.75 79.73 117.04C60.2 96.23 39.59 77.67 17.22 60.2C14.38 55.37 11.39 50.63 8.24 45.99C23.33 61.59 41.68 74.05 61.81 82.18C41.77 64.41 22.84 48.32 0.05 34.65C0.04 34.62 0.02 34.6 0 34.58V44.24C0.31 44.64 0.62 45.04 0.93 45.44C0.61 46.36 0.31 47.28 0 48.2V94.67C2.56 79.24 3.38 63.7 2.46 47.5C4.76 50.6 6.98 53.75 9.14 56.94C-0.0699997 87.78 -1.28 120.97 5.68 152.39C9.44 120.34 12.08 89.68 9.57 57.58C11.77 60.85 13.89 64.16 15.93 67.51C9.46 94.2 10.88 122.75 19.99 148.65C22.26 122.42 20.33 95.36 16.95 69.18C20.58 75.22 23.96 81.39 27.09 87.68C24.39 122.89 28.08 158.58 37.98 192.47C42.34 161.37 40.96 130.03 32.81 99.98C34.83 104.63 36.72 109.33 38.46 114.09C43.97 148.3 49.47 182.5 54.98 216.71C59.02 192.15 57.5 167.16 51.5 143.15C55.72 152.08 60.65 160.67 66.26 168.79C64.43 153.94 60.48 139.42 53.57 126.54C60.08 133.28 67.35 139.27 75.24 144.33ZM4.08 0C12.4 2.01 20.88 3.88 29.72 5.64C26.02 3.65 22.27 1.77 18.47 0H4.08Z" fill="#8EC73E"/>
<path d="M488.17 0C484.13 10.66 478.84 20.85 472.38 30.24C474.21 20.1 476.69 10 479.64 0H488.17ZM462.38 0C452.73 21.38 446.54 44.24 443.57 67.84C456.53 46.64 466.74 23.78 473.95 0H462.38ZM460 0H433.55C429.05 3.74 424.6 7.61 420.17 11.64C429.11 8.82 437.7 4.93 445.73 0.12C435.69 10.75 428.09 23.73 422.44 37.59C429.98 31.21 436.98 24.21 443.39 16.7C431.33 38.31 423.33 62.04 420.81 86.8C433.89 57.86 446.94 28.93 460 0ZM491.56 0C489.14 12.34 487.12 24.83 485.23 37.59C491.48 25.64 496.42 13.01 500 0H491.56Z" fill="#67A23E"/>
<path d="M384.53 500C379.18 491.13 373.99 481.98 368.79 472.31C377.43 480.86 385.33 490.14 392.44 500H384.53ZM202.09 484.94C211.5 487.93 221.15 490.15 230.92 491.58C214.89 492.4 199.01 495.16 183.75 500H230.33C241.06 498.53 251.79 497.05 262.52 495.58C267.58 495.86 272.63 496.3 277.67 496.87C267.47 497.19 257.35 498.26 247.35 500H287.82C288.92 499.59 290.02 499.18 291.11 498.76C293.39 499.14 295.67 499.56 297.94 500H320C296.84 483.78 273.16 469.53 247.65 456.97C262.54 473.97 281.3 487.52 302.02 496.5C298.08 495.85 294.12 495.3 290.14 494.84C268.23 484.2 246.56 475.83 222.84 469.22C229.98 475.29 237.84 480.5 246.18 484.75C231.86 481.9 216.83 482.36 202.09 484.94ZM379.06 500C369.5 488.99 358.72 478.87 347.09 469.12C352.01 479.93 357.95 490.28 364.78 500H379.06ZM328.09 500H339.02C322.45 486.53 304.99 475.43 286.22 463.95C297.87 478.35 312.15 490.58 328.09 500ZM341.46 500H356.9C344.22 489.33 330.75 479.53 316.97 470.57C323.74 481.43 332.03 491.34 341.46 500Z" fill="#438422"/>
<path d="M500 95.55C498.69 102.17 496.92 108.7 494.68 115.07C492.41 88.84 494.34 61.78 497.72 35.6C494.09 41.64 490.71 47.81 487.58 54.1C490.28 89.31 486.59 125 476.69 158.89C472.33 127.79 473.71 96.45 481.86 66.4C479.84 71.05 477.95 75.75 476.21 80.51C470.7 114.72 465.2 148.92 459.69 183.13C455.65 158.57 457.17 133.58 463.17 109.57C458.95 118.5 454.02 127.09 448.41 135.21C450.24 120.36 454.19 105.84 461.1 92.96C454.6 99.7 447.32 105.7 439.43 110.76C452.67 90 467 71.72 483.57 53.87C485.17 50.21 486.85 46.58 488.62 43C473.98 60.21 455.55 74.19 434.95 83.48C454.47 62.67 475.09 44.12 497.46 26.64C498.29 25.22 499.15 23.81 500.01 22.41V31.94C499.59 32.61 499.16 33.27 498.75 33.95C499.21 35.86 499.62 37.78 500.01 39.71V95.55H500ZM500 10.51C483.4 21.96 468.47 34.77 452.87 48.61C470.22 41.6 486.24 31.37 500 18.69V10.51ZM495.54 0C486.1 6.69 476.95 13.76 468.17 21.14C479.25 18.17 489.95 13.81 500 8.27V0H495.54Z" fill="#8EC73E"/>
</g>
<defs>
<clipPath id="clip0_1988_17787">
<rect width="500" height="500.39" fill="white"/>
</clipPath>
</defs>
</svg>
