<svg width="467" height="464" viewBox="0 0 467 464" fill="none" xmlns="http://www.w3.org/2000/svg">
<g clip-path="url(#clip0_1986_5383)">
<path d="M-0.280029 203.34C53.21 101.53 140.77 18.71 233.52 -0.290039C97.57 -0.290039 8.81997 60.86 -0.280029 88.58" stroke="white" stroke-miterlimit="10" stroke-linecap="round" stroke-linejoin="round"/>
<path d="M72.22 283.19C79.35 237.77 130.05 68.78 233.52 -0.280029C233.52 -0.280029 169.79 212.64 164.91 467.31" stroke="white" stroke-miterlimit="10" stroke-linecap="round" stroke-linejoin="round"/>
<path d="M467.31 203.34C413.82 101.53 326.27 18.71 233.52 -0.290039C369.47 -0.290039 458.22 60.86 467.32 88.58" stroke="white" stroke-miterlimit="10" stroke-linecap="round" stroke-linejoin="round"/>
<path d="M394.81 283.19C387.68 237.77 336.98 68.78 233.51 -0.280029C233.51 -0.280029 287.87 101.53 291.83 283.19" stroke="white" stroke-miterlimit="10" stroke-linecap="round" stroke-linejoin="round"/>
<path d="M462.48 -0.290039C403.14 84.3 295.5 109.18 233.52 109.18C171.53 109.18 63.9001 84.3 4.56006 -0.290039" stroke="white" stroke-miterlimit="10" stroke-linecap="round" stroke-linejoin="round"/>
<path d="M328.27 -0.290039C303.71 34.71 259.17 45.01 233.51 45.01C207.86 45.01 163.31 34.71 138.75 -0.290039" stroke="white" stroke-miterlimit="10" stroke-linecap="round" stroke-linejoin="round"/>
<g opacity="0.46">
<path d="M467.31 141.45C440.57 113.14 422.35 145.62 426.31 164.63C426.31 164.63 414.43 147.2 399.38 154.33C384.33 161.46 388.29 193.94 388.29 193.94C388.29 193.94 382.74 159.09 363.73 155.12C344.72 151.16 332.04 169.06 332.04 169.06C332.04 169.06 323.14 159.74 310.12 157.96C297.11 156.18 295.6 169.06 295.6 169.06C280.92 160.14 268.73 162.71 261.54 188.35C255.36 177.04 246 175.62 233.51 183.97C223.05 165.05 208.53 160.6 187.87 178.09C184.42 160.4 174.25 154.73 152.86 169.06C130.91 146.28 112.26 151.14 95.18 169.06C95.24 151.6 84.34 149.99 68.25 155.91C54.58 130.33 38.78 124.07 19.93 145.61C21.63 132.1 13.61 130.5 -0.290039 136.1V467.29H467.3V141.45H467.31Z" fill="#EBD9A5"/>
<path d="M333.37 135.5C323.16 143.45 332.31 156.62 342.88 152.75C353.43 148.88 345.85 125.78 333.37 135.5Z" fill="#EBD9A5"/>
</g>
<path opacity="0.46" d="M467.31 287.44L400.17 283.48L361.35 260.5C353.43 244.88 339.4 239.32 317.78 246.24L259.16 217.72C243.93 202.06 229.72 193.1 219.55 210.82C206.31 197.21 191.89 204.28 177.15 217.07C167.2 202.82 155.39 201.2 141.92 210.82C134.77 191.01 121.93 185.51 100.73 201.09C92.76 186.31 67.72 181.26 55.79 198.69C55.6 188.83 58.62 168.03 36.57 174.16C19.93 152.87 7.99997 152.62 -0.280029 168.61V467.3H467.31V287.44Z" fill="#7A9954"/>
<path opacity="0.46" d="M314.16 449.54C319.37 413.89 286.1 414.69 286.1 414.69C290.36 396.42 286.22 384.19 262.34 386.17C261.43 352.45 245.19 343.44 217.98 352.11C206.04 305.07 184.22 291.23 152.87 309.42C148.78 279.47 128.55 271.34 99.16 275.61C87.93 249.89 70.23 238.13 37.37 259.11C23.61 246.29 10.76 243.11 -0.280029 259.11V467.3H314.72L314.16 449.54Z" fill="#7A9954"/>
<path d="M467.31 377.46H347.88V467.31H467.31V377.46Z" fill="#EBD9A5"/>
<path d="M467.31 377.46H347.88V467.31H467.31V377.46Z" fill="#E9D7B1"/>
<path d="M467.31 358.45H328.92V377.46H467.31V358.45Z" fill="#EBD9A5"/>
<path d="M342.52 309.42L344.63 321.04H436.88V309.42H342.52Z" fill="#42353B"/>
<path d="M358.36 358.45L352.73 321.04H436.88V358.45H358.36Z" fill="#42353B"/>
<path d="M396.4 339.98C409.75 344.22 423.25 347.5 436.88 350.57V321.05H352.74L354.07 329.89C368.54 331.62 382.31 335.5 396.4 339.98Z" fill="#21261F"/>
<path d="M352.73 309.42C343.22 302.73 346.57 292.97 350.41 283.19C354.25 273.4 349.21 263.3 354.49 255.56C359.77 247.81 366.81 252.39 369.63 265.77C372.45 279.15 384.77 278.09 389.7 289.36C394.63 300.63 391.11 309.43 391.11 309.43H352.73V309.42Z" fill="#4A8171"/>
<path d="M359.77 263.65L371.04 309.42" stroke="#21261F" stroke-width="0.5" stroke-miterlimit="10" stroke-linecap="round" stroke-linejoin="round"/>
<path d="M350.41 283.19L368.43 298.82L375.32 275.62" stroke="#21261F" stroke-width="0.5" stroke-miterlimit="10" stroke-linecap="round" stroke-linejoin="round"/>
<path d="M417.16 309.42C425.61 302.03 425.26 289.7 417.16 278.44C409.06 267.18 415.75 259.43 410.47 244.64C405.19 229.85 396.04 233.02 389.7 218.59C383.36 204.16 366.11 205.92 367.87 222.46C369.63 239.01 375.26 242.96 371.04 259.12C366.82 275.28 372.1 281.22 380.19 287.22C388.29 293.23 384.06 309.42 384.06 309.42H417.16Z" fill="#4A8171"/>
<path d="M378.291 220.63L402.021 309.42" stroke="#21261F" stroke-width="0.5" stroke-miterlimit="10" stroke-linecap="round" stroke-linejoin="round"/>
<path d="M398.121 229.64L390.911 267.84L372.411 251.78" stroke="#21261F" stroke-width="0.5" stroke-miterlimit="10" stroke-linecap="round" stroke-linejoin="round"/>
<path d="M412.77 263.65L399.19 298.82L380.19 287.22" stroke="#21261F" stroke-width="0.5" stroke-miterlimit="10" stroke-linecap="round" stroke-linejoin="round"/>
<path d="M407.59 283.19L417.86 358.45H467.31V283.19H407.59Z" fill="#D39F3F"/>
<path d="M408.9 292.77H467.31" stroke="#E9D7B1" stroke-width="0.5" stroke-miterlimit="10" stroke-linecap="round" stroke-linejoin="round"/>
<path d="M371.04 105.22C420.81 158.64 441.1 283.19 441.1 283.19H412.77L371.04 105.22Z" fill="#52593F"/>
<path d="M441.1 283.19C441.1 283.19 433.51 236.6 416.22 188.18C416.73 192.3 417.12 196.45 417.39 200.61C419.23 228.12 416.77 255.68 415.65 283.19H441.1Z" fill="#21261F"/>
<path d="M371.04 105.22L423.37 283.19" stroke="#52593F" stroke-width="0.5" stroke-miterlimit="10" stroke-linecap="round" stroke-linejoin="round"/>
<path d="M464.86 283.19C450.29 186.41 408.9 75.6499 408.9 75.6499L432.65 283.19H464.86Z" fill="#52593F"/>
<path d="M441.06 176.11C437.93 196.67 435.4 217.32 433.48 238.03C432.99 243.27 432.49 248.51 432.12 253.76C432.11 253.94 432.08 254.38 432.03 255.16C431.92 256.69 431.81 258.21 431.71 259.74C431.52 262.49 431.34 265.23 431.17 267.98C431.14 268.46 431.12 268.95 431.09 269.43L432.67 283.2H464.88C459.46 247.29 450.36 209.49 441.06 176.11Z" fill="#21261F"/>
<path d="M408.9 75.6499L445.32 283.19" stroke="#52593F" stroke-width="0.5" stroke-miterlimit="10" stroke-linecap="round" stroke-linejoin="round"/>
<path d="M467.31 54.45C450.08 117.9 445.32 283.19 445.32 283.19H467.31V54.45Z" fill="#52593F"/>
<path opacity="0.59" d="M445.32 415.22C427.89 389.34 400.71 384.06 385.26 395.15C369.8 406.24 369.8 403.07 335.48 406.24C301.15 409.41 308.55 425.78 298.51 438.98C288.48 452.18 280.03 433.7 261.01 433.17C242 432.64 246.75 446.88 222.99 443.72C199.23 440.56 192.36 457.46 192.36 457.46C180.06 453.89 169.26 453.6 164.9 467.3H467.31L445.32 415.22Z" fill="#4A8171"/>
<path d="M467.31 347.09C447.44 333.89 424.33 355.95 427.11 377.46C429.89 398.97 423.14 409.94 402.02 414.16C380.9 418.38 401.64 435.81 392.32 445.32C383 454.83 365.5 451.27 372.4 467.31H467.3V347.09H467.31Z" fill="#7A9954"/>
<path d="M427.11 343.92C428.27 351.54 447.17 339.17 444 333.62C440.84 328.08 426.07 337.06 427.11 343.92Z" fill="#7A9954"/>
<g opacity="0.57">
<path d="M427.7 367.03C434.92 382.08 457.98 405.21 457.98 405.21" stroke="#7A9954" stroke-width="0.5" stroke-miterlimit="10" stroke-linecap="round" stroke-linejoin="round"/>
<path d="M393.62 418.33C411.81 437.27 467.31 467.3 467.31 467.3C467.31 467.3 457.24 405.66 451.43 343.35" stroke="#7A9954" stroke-width="0.5" stroke-miterlimit="10" stroke-linecap="round" stroke-linejoin="round"/>
<path d="M371.1 459.05C409.77 461.87 441.57 452.52 441.57 452.52C441.57 452.52 432.17 425.33 423.46 402.39" stroke="#7A9954" stroke-width="0.5" stroke-miterlimit="10" stroke-linecap="round" stroke-linejoin="round"/>
</g>
<mask id="mask0_1986_5383" style="mask-type:luminance" maskUnits="userSpaceOnUse" x="-1" y="137" width="323" height="331">
<path d="M321.75 137.96H-0.280029V467.3H321.75V137.96Z" fill="white"/>
</mask>
<g mask="url(#mask0_1986_5383)">
<path d="M119.7 195.72C110.93 199.65 112.83 225.07 123.4 222.14C133.96 219.23 129.74 191.23 119.7 195.72Z" fill="#7A9954"/>
<path d="M68.2099 471C101.48 454.29 101.48 437.2 96.7299 414.06C91.9799 390.92 100.5 385.64 107.07 365.57C113.63 345.5 110.99 340.4 103.07 318.92C95.1499 297.44 97.3399 286.35 107.07 260.48C116.8 234.61 109.23 207.24 97.2599 207.03C85.2899 206.82 91.9799 249.83 68.2099 271.53C44.4499 293.22 37.0499 310.12 42.3299 332.83C47.6099 355.54 43.9099 360.29 29.6599 390.39C15.4099 420.49 32.2999 471 32.2999 471H68.2099Z" fill="#7A9954"/>
<path d="M95.8198 224.33C90.9198 259.96 77.8098 297.01 67.7298 343.44C57.6498 389.87 51.3098 471.2 51.3098 471.2" stroke="#21261F" stroke-width="0.5" stroke-miterlimit="10" stroke-linecap="round" stroke-linejoin="round"/>
<path d="M68.2097 271.53L67.7297 343.44L98.6997 302.52" stroke="#21261F" stroke-width="0.5" stroke-miterlimit="10" stroke-linecap="round" stroke-linejoin="round"/>
<path d="M43.9897 355.9L57.1297 412.45L110.77 347.76" stroke="#21261F" stroke-width="0.5" stroke-miterlimit="10" stroke-linecap="round" stroke-linejoin="round"/>
<path d="M25.2698 404.63L52.3998 458.48L96.7298 414.06" stroke="#21261F" stroke-width="0.5" stroke-miterlimit="10" stroke-linecap="round" stroke-linejoin="round"/>
<path d="M29.4499 489.25C40.7499 476.22 44.7199 467.63 36.8299 449.39C28.9399 431.15 39.1499 421.46 44.9499 397.71C50.7499 373.96 43.3399 363.46 34.8199 354.92C26.2999 346.38 44.3499 321.9 34.7199 304.73C25.0899 287.56 35.4799 280.94 33.8999 261.44C32.3199 241.94 18.5999 242.62 14.4399 225.4C10.2799 208.18 1.97992 194.15 -4.97009 210.71C-11.9201 227.27 -2.96008 240.34 -3.75008 256.07C-4.55009 271.8 -11.8401 269.53 -15.0801 286.53C-18.3201 303.52 -7.65008 307.46 -10.7501 329.73C-13.8601 352 -23.7001 359.66 -13.4501 377.35C-3.20008 395.04 -13.2701 408.56 -16.2401 428.17C-19.2101 447.77 -8.63008 448.32 -0.830084 463.28C6.96992 478.24 5.68992 489.71 5.68992 489.71L29.4499 489.25Z" fill="#7A9954"/>
<path d="M5.55981 225.63C10.9298 281.28 8.18981 425.51 20.9998 489.28" stroke="#21261F" stroke-width="0.5" stroke-miterlimit="10" stroke-linecap="round" stroke-linejoin="round"/>
<path d="M-3.76025 256.07L8.13975 272.58L18.3597 234.59" stroke="#21261F" stroke-width="0.5" stroke-miterlimit="10" stroke-linecap="round" stroke-linejoin="round"/>
<path d="M-15.7002 292.87L10.1498 343.25L31.1498 295.75" stroke="#21261F" stroke-width="0.5" stroke-miterlimit="10" stroke-linecap="round" stroke-linejoin="round"/>
<path d="M-17.1902 355.6L11.9898 394.63L34.8198 354.92" stroke="#21261F" stroke-width="0.5" stroke-miterlimit="10" stroke-linecap="round" stroke-linejoin="round"/>
<path d="M-13.9302 417.44L15.3398 446.82L40.8998 411.08" stroke="#21261F" stroke-width="0.5" stroke-miterlimit="10" stroke-linecap="round" stroke-linejoin="round"/>
<path d="M86.93 467.31C114.2 461.17 114.28 451.59 116.62 427.86C118.96 404.13 135.86 402.55 146.95 397.27C158.04 391.99 153.9 377.73 155.97 355.55C158.04 333.37 176.53 334.39 177.05 318.05C177.58 301.71 180.22 294.42 188.14 287.22C196.06 280.02 201.87 261.54 192.89 263.65C183.91 265.76 175.46 287.41 159.62 292.7C143.78 297.98 147.63 308.72 137.26 321.04C126.88 333.36 108.4 330.01 98.36 352.55C88.33 375.09 91.06 387.17 77.28 400.93C63.5 414.69 73.67 446.81 53.54 454.78C33.4 462.75 33.28 467.5 33.28 467.5L86.93 467.31Z" fill="#7A9954"/>
<path d="M189.19 275.62C146.94 320.69 90.43 433.32 67.73 467.31" stroke="#21261F" stroke-width="0.5" stroke-miterlimit="10" stroke-linecap="round" stroke-linejoin="round"/>
<path d="M159.62 292.7L145.53 335.32L177.63 309.42" stroke="#21261F" stroke-width="0.5" stroke-miterlimit="10" stroke-linecap="round" stroke-linejoin="round"/>
<path d="M121.85 331.02L112.98 389.67L155.3 367.95" stroke="#21261F" stroke-width="0.5" stroke-miterlimit="10" stroke-linecap="round" stroke-linejoin="round"/>
<path d="M88.4299 382.53V432.71L118.47 418.93" stroke="#21261F" stroke-width="0.5" stroke-miterlimit="10" stroke-linecap="round" stroke-linejoin="round"/>
<path d="M166.49 272.45C161.62 264.33 145.19 281.25 150.38 285.48C155.57 289.7 169.65 277.73 166.49 272.45Z" fill="#7A9954"/>
<path d="M129.55 467.31C151.69 464.33 156.98 455.13 164.9 440.72C172.82 426.31 189.82 431.06 197.43 418.92C205.04 406.77 206.62 396.21 215.07 386.71C223.52 377.2 209.26 376.28 193.95 389.68C178.63 403.08 168.07 388.87 148.01 405.22C127.94 421.57 122.95 426.85 105.38 434.77C87.81 442.69 77.78 467.32 77.78 467.32H129.55V467.31Z" fill="#7A9954"/>
<path d="M175.62 396.27L164.9 421.86L199.9 414.67" stroke="#21261F" stroke-width="0.5" stroke-miterlimit="10" stroke-linecap="round" stroke-linejoin="round"/>
<path d="M143.3 409.06L125.58 449.29L161.58 446.62" stroke="#21261F" stroke-width="0.5" stroke-miterlimit="10" stroke-linecap="round" stroke-linejoin="round"/>
<path d="M100.74 437.32L98.3601 467.5C98.3601 467.5 163.84 424.72 202.4 393.57" stroke="#21261F" stroke-width="0.5" stroke-miterlimit="10" stroke-linecap="round" stroke-linejoin="round"/>
</g>
<mask id="mask1_1986_5383" style="mask-type:luminance" maskUnits="userSpaceOnUse" x="-1" y="-1" width="469" height="469">
<path d="M467.31 -0.290039H-0.280029V467.3H467.31V-0.290039Z" fill="white"/>
</mask>
<g mask="url(#mask1_1986_5383)">
<path d="M-0.280039 14.3299C21.82 -9.41006 96.24 -29.5001 108.25 -22.6401C120.26 -15.7701 86.37 -11.0201 86.37 -11.0201C86.37 -11.0201 105.93 1.64994 96.86 3.76994C87.79 5.87994 70.74 2.28994 70.74 2.28994C70.74 2.28994 80.1 15.3899 70.74 18.0299C61.38 20.6699 45.76 18.0299 45.76 18.0299C45.76 18.0299 49.25 26.3099 34.7 29.6499C20.16 32.9899 10.43 33.8699 10.43 33.8699C10.43 33.8699 21.07 33.8699 18.78 39.6799C16.49 45.4899 -0.290039 48.1299 -0.290039 48.1299V14.3299H-0.280039Z" fill="#4A8171"/>
<path d="M142.45 160.11C157.33 189.36 179.51 204.85 162.61 173.87C145.71 142.89 74.47 72.8298 -0.280029 71.0698V93.2498C-0.280029 93.2498 6.13997 110.85 10.44 110.85C14.74 110.85 10.44 90.7798 10.44 90.7798C10.44 90.7798 26.84 112.61 33.82 112.61C40.8 112.61 38.17 92.5398 38.17 92.5398C38.17 92.5398 51.54 114.68 55.28 114.72C59.02 114.76 58.76 101.52 58.76 101.52C58.76 101.52 67.74 116.13 72.23 116.13C76.72 116.13 74.25 105.57 74.25 105.57C74.25 105.57 108.05 155.92 113.33 156.97C118.61 158.03 115.36 141.45 115.36 141.45C115.36 141.45 131.97 169.65 137.26 171.06C142.55 172.47 142.45 160.11 142.45 160.11Z" fill="#4A8171"/>
<path d="M-0.280039 91.0898C46.78 110.98 70.55 135.38 88.68 164.14C106.81 192.9 100.02 197.23 92.77 186.32C85.51 175.41 79.88 165.2 79.88 165.2C79.88 165.2 83.84 179.99 77.28 178.23C70.72 176.47 57.19 150.42 57.19 150.42C57.19 150.42 60.59 161.33 55.27 162.74C49.95 164.15 33.27 137.84 33.27 137.84C33.27 137.84 33.6 147.97 30.23 147.6C26.86 147.23 19.93 135.19 19.93 135.19C19.93 135.19 20.37 154.29 14.38 155.7C8.38996 157.11 -0.290039 131.02 -0.290039 131.02V91.0898H-0.280039Z" fill="#4A8171"/>
<path d="M-0.280029 56.63C46.08 38.68 79.88 34.5 118.6 42.75C157.33 51 180.56 68.6 178.45 71.07C176.34 73.53 157.21 63.68 157.21 63.68C157.21 63.68 167.53 78.11 159.79 78.82C152.04 79.52 116.61 58.76 116.61 58.76C116.61 58.76 128.46 72.84 118.25 73.54C108.04 74.24 87.27 61.57 87.27 61.57C87.27 61.57 93.82 69.67 87.2 71.78C80.58 73.89 60.87 62.27 60.87 62.27C60.87 62.27 64.47 68.61 55.28 69.31C46.08 70.01 34.72 64.73 34.72 64.73C34.72 64.73 34.47 70.36 29.19 71.07C23.91 71.77 9.82997 68.96 9.82997 68.96C9.82997 68.96 26.03 77.76 19.69 80.93C13.35 84.1 -0.260029 83.39 -0.260029 83.39V56.63H-0.280029Z" fill="#4A8171"/>
<path d="M135.05 80.9298C132.7 88.4298 154.29 96.4198 157.22 90.0798C160.15 83.7398 136.7 75.6498 135.05 80.9298Z" fill="#4A8171"/>
</g>
<path d="M277.92 175.46C333.37 145.8 311.19 94.4402 252.57 83.4602C193.95 72.4802 171.24 112.48 193.42 151.89C215.6 191.3 269.85 179.77 277.92 175.46Z" fill="#D39F3F"/>
<path d="M275.14 171.41C325.54 144.46 305.38 97.7701 252.1 87.7901C198.82 77.8101 178.18 114.16 198.34 149.98C218.5 185.81 267.81 175.33 275.14 171.41Z" stroke="#EBD9A5" stroke-width="0.5" stroke-miterlimit="10" stroke-linecap="round" stroke-linejoin="round" stroke-dasharray="3 3"/>
<path d="M197.61 158.26L242.53 144.56L185.78 131.01" stroke="#EBD9A5" stroke-width="0.5" stroke-miterlimit="10" stroke-linecap="round" stroke-linejoin="round"/>
<path d="M194 97.1501L243.32 141.45L226.69 81.6101" stroke="#EBD9A5" stroke-width="0.5" stroke-miterlimit="10" stroke-linecap="round" stroke-linejoin="round"/>
<path d="M262.51 85.8L247.44 139.02L296.64 104.71" stroke="#EBD9A5" stroke-width="0.5" stroke-miterlimit="10" stroke-linecap="round" stroke-linejoin="round"/>
<path d="M308.38 143.29L248.87 144.63L218.66 174.63" stroke="#EBD9A5" stroke-width="0.5" stroke-miterlimit="10" stroke-linecap="round" stroke-linejoin="round"/>
<path opacity="0.7" d="M309.63 129.94C275.87 114.7 228.85 115.27 221.67 130.34C214.01 146.41 290.06 166.22 290.06 166.22L294.06 164.42C306.1 153.72 310.85 141.58 309.63 129.94Z" fill="#D39F3F"/>
<path d="M316.2 158.96C314.16 149.77 297.72 152.48 287.68 151.96C277.65 151.43 268.72 140.96 258.93 131.01C249.13 121.06 235.87 116.94 224.94 124.94C214.01 132.94 217.21 142.04 221.67 145.8C226.13 149.56 227.48 153.04 227.74 154.61C228 156.18 225.91 164.63 214.15 182.06C202.39 199.49 206.27 221.93 233.51 218.5C260.75 215.07 312.5 173.35 312.5 173.35L316.2 158.96Z" fill="#42353B"/>
<path d="M286.65 162.17C281.85 161.17 277.89 158.65 275.02 155.25C270.73 157.25 266.08 157.56 261.3 156.89C254.49 155.93 248.31 152.48 242.14 149.67C241.62 149.43 241.11 149.16 240.62 148.87C238.12 150.82 235.24 152.21 232.19 152.8C234.59 160.06 232.76 168.62 227.82 174.63C227.22 175.36 226.63 176.12 226.05 176.86C225.15 178.41 224.21 179.92 223.4 181.53C222.97 182.38 222.58 183.25 222.19 184.12C221.58 186.66 221.36 187.13 221.39 186.76C221.28 187.15 221.18 187.53 221.1 187.93C220.89 188.9 220.71 189.88 220.56 190.86C220.55 190.91 220.54 190.97 220.54 191.02C220.54 191.91 220.56 192.81 220.62 193.7C220.67 194.47 220.79 195.24 220.84 196C220.84 196.05 220.85 196.08 220.85 196.13C221.13 196.86 221.46 197.58 221.67 198.16C221.75 198.3 221.82 198.44 221.91 198.58C222.17 199 222.46 199.4 222.75 199.8C223.46 200.45 224.17 201.1 224.87 201.76C225.14 201.92 225.41 202.09 225.69 202.23C226.3 202.55 226.92 202.83 227.54 203.12C229.05 203.52 230.55 203.93 232.11 204.19C232.8 204.31 233.62 204.34 234.4 204.43C236.7 204.42 238.98 204.34 241.28 204.14C247.53 203.6 253.11 206.02 257.2 210.07C283.29 196.9 312.53 173.33 312.53 173.33L315.39 162.19C306 164.11 296.31 164.19 286.65 162.17Z" fill="#21261F"/>
<path d="M201.6 198.69C203.45 180.4 216.91 180.62 225.63 163.84" stroke="#42353B" stroke-width="0.5" stroke-miterlimit="10" stroke-linecap="round" stroke-linejoin="round"/>
<path d="M250.45 161.46C256.26 166.21 258.9 177.3 258.9 177.3C258.9 177.3 249.66 181.52 243.32 182.85C236.98 184.17 263.52 202.13 263.52 202.13L280.55 203.34L290.06 179.42L262.04 144.64L252.3 154.62L250.45 161.46Z" fill="#EB997C"/>
<path d="M256.02 169.26C264.81 162.17 258.38 146.68 258.38 146.68L257.16 151.17L250.75 161.72C252.97 163.66 254.72 166.51 256.02 169.26Z" fill="#21261F"/>
<path d="M341.29 182.59C327.82 147.21 316.73 153.81 306.17 158.96C295.61 164.12 279.76 171.5 279.76 171.5L264.97 194.21L248.9 181.27C227.47 184.44 220.34 186.02 220.87 205.03C221.4 224.04 230.11 260.75 230.11 260.75C239.41 306.62 256.21 286.12 273.41 262.07L316.19 258.11C316.19 258.11 344.44 253.09 350.4 250.19C356.37 247.28 354.75 217.97 341.29 182.59Z" fill="#707B97"/>
<path d="M341.29 182.59C327.82 147.21 316.73 153.81 306.17 158.96C295.61 164.12 279.76 171.5 279.76 171.5L264.97 194.21L248.9 181.27C227.47 184.44 220.34 186.02 220.87 205.03C221.4 224.04 230.11 260.75 230.11 260.75C239.41 306.62 256.21 286.12 273.41 262.07L316.19 258.11C316.19 258.11 344.44 253.09 350.4 250.19C356.37 247.28 354.75 217.97 341.29 182.59Z" fill="#707B97"/>
<path d="M264.98 194.2L269.73 218.85" stroke="#707B97" stroke-width="0.5" stroke-miterlimit="10" stroke-linecap="round" stroke-linejoin="round"/>
<path d="M249.66 260.99C225.11 247.54 215.07 260.66 212.43 267.83C209.79 275 211.9 285.57 213.62 286.36C215.34 287.15 225.63 278.32 225.63 278.32C225.63 278.32 230.3 276.26 234.87 280.6C239.44 284.94 241.74 288.55 251.51 283.18C261.28 277.82 249.66 260.99 249.66 260.99Z" fill="#D67055"/>
<path d="M249.66 260.99C243.22 257.46 237.78 255.77 233.21 255.32C232.62 255.95 232 256.56 231.42 257.2C230.63 258.08 225.46 264.7 223.37 276.04C223.35 277.15 223.37 279.07 223.37 279.37C223.37 279.64 223.39 279.9 223.39 280.17C224.71 279.09 225.63 278.31 225.63 278.31C225.63 278.31 230.3 276.25 234.87 280.59C239.44 284.93 241.74 288.54 251.51 283.17C261.28 277.82 249.66 260.99 249.66 260.99Z" fill="#D67055"/>
<path d="M237.25 220.63L305.2 203.34L319.99 259.12L328.92 257.32C345.67 322.3 356.36 393.99 365.41 467.51L304.85 467.32L290.06 362.95L278.97 467.5H217.59L242.35 335.32L254.15 275.61L237.25 220.63Z" fill="#D39F3F"/>
<path d="M238.69 224.86L304.14 208.81" stroke="#D39F3F" stroke-width="0.5" stroke-miterlimit="10" stroke-linecap="round" stroke-linejoin="round" stroke-dasharray="3 3"/>
<path opacity="0.7" d="M245.05 321.65L242.35 335.32L217.59 467.5H278.97L290.06 362.93L283.43 315.23L245.05 321.65Z" fill="#D39F3F"/>
<path d="M283.72 337.32L260.58 467.5" stroke="#D39F3F" stroke-width="0.5" stroke-miterlimit="10" stroke-linecap="round" stroke-linejoin="round" stroke-dasharray="3 3"/>
<path d="M339.7 360.56L353.7 467.5" stroke="#D39F3F" stroke-width="0.5" stroke-miterlimit="10" stroke-linecap="round" stroke-linejoin="round" stroke-dasharray="3 3"/>
<path d="M310.13 323.66C314.16 366.37 332.84 364.26 339.7 360.56C346.57 356.86 354.49 340.23 345.51 308.01L310.13 323.66Z" fill="#D39F3F"/>
<path opacity="0.7" d="M310.13 323.66C314.16 366.37 332.84 364.26 339.7 360.56C346.57 356.86 354.49 340.23 345.51 308.01L310.13 323.66Z" fill="#D39F3F"/>
<path d="M308.11 318.93L308.81 328.48L348.55 309.42L347.36 298.82L308.11 318.93Z" fill="#EBD9A5"/>
<path d="M287.37 166.54C293.03 172.42 306.53 212.2 306.53 212.2C302.68 215.53 298.24 216.59 293.3 215.74C290.19 198.66 285.88 183.82 280.86 170.33L287.37 166.54Z" fill="#D39F3F"/>
<path d="M246.1 181.27C246.56 195.7 254.44 222.97 254.44 222.97C251.21 226.98 247.13 227.56 242.68 226.65C240.16 213.37 238.45 197.51 238.59 182.71L246.1 181.27Z" fill="#D39F3F"/>
<g opacity="0.7">
<path d="M287.37 166.54C293.03 172.42 306.53 212.2 306.53 212.2C302.68 215.53 298.24 216.59 293.3 215.74C290.19 198.66 285.88 183.82 280.86 170.33L287.37 166.54Z" fill="#D39F3F"/>
<path d="M246.1 181.27C246.56 195.7 254.44 222.97 254.44 222.97C251.21 226.98 247.13 227.56 242.68 226.65C240.16 213.37 238.45 197.51 238.59 182.71L246.1 181.27Z" fill="#D39F3F"/>
</g>
<path d="M245.31 220.17L250.75 222.38" stroke="#D39F3F" stroke-width="0.5" stroke-miterlimit="10" stroke-linecap="round" stroke-linejoin="round"/>
<path d="M248.66 218.85L246.51 223.7" stroke="#D39F3F" stroke-width="0.5" stroke-miterlimit="10" stroke-linecap="round" stroke-linejoin="round"/>
<path d="M296.25 207.65L301.03 210.95" stroke="#D39F3F" stroke-width="0.5" stroke-miterlimit="10" stroke-linecap="round" stroke-linejoin="round"/>
<path d="M300.24 206.64L297.12 211.74" stroke="#D39F3F" stroke-width="0.5" stroke-miterlimit="10" stroke-linecap="round" stroke-linejoin="round"/>
<path d="M265.84 198.69C250.01 196.47 243.32 199.75 240.07 206.52C239.73 197.81 240.07 189.1 241.1 180.4L248.91 181.26L264.98 194.2L265.84 198.69Z" fill="#707B97"/>
<path d="M265.84 198.69C270.53 191.12 288.95 188.67 296.63 193.46L283.42 169.78L277.56 171.76L264.97 194.2L265.84 198.69Z" fill="#707B97"/>
<path d="M258.38 137.57C261.42 157.24 269.6 186.42 285.05 182.85C300.5 179.29 304.05 159.99 304.05 159.99L308.39 154.84C308.39 154.84 295.22 160.27 285.18 156.31C275.14 152.35 258.38 137.57 258.38 137.57Z" fill="#42353B"/>
<path d="M298.64 171.37C293.75 184.84 280.29 190.12 272.04 181.27C263.79 172.42 260.62 146.68 260.62 146.68" stroke="#42353B" stroke-width="0.5" stroke-miterlimit="10" stroke-linecap="round" stroke-linejoin="round"/>
<path d="M222.99 136.25C236.45 143.12 246.23 128.2 246.23 128.2C246.23 128.2 246.67 133.24 250.44 136.94C251.7 138.17 255.98 136.42 257.19 138.06C262.05 144.64 263.84 165.56 247.45 168.73C231.05 171.9 221.68 145.81 221.68 145.81C223.8 143.33 224.34 140.19 222.99 136.25Z" fill="#EB997C"/>
<path d="M246.89 158.96C251.41 157.91 250.32 151.16 250.32 151.16" stroke="#D67055" stroke-width="0.5" stroke-miterlimit="10" stroke-linecap="round" stroke-linejoin="round"/>
<path d="M233.03 144.63C236.47 146.41 239.92 156.71 241.1 156.44C242.27 156.18 242.54 154.06 242.54 154.06" stroke="#D67055" stroke-width="0.5" stroke-miterlimit="10" stroke-linecap="round" stroke-linejoin="round"/>
<path d="M231.12 150.38C230.93 150.09 231.03 149.7 231.31 149.4C230.71 148.94 230.15 148.79 229.9 149.32C229.17 150.87 232.25 154.31 233.11 153.1C233.5 152.56 233.03 151.43 232.34 150.49C231.89 150.77 231.35 150.72 231.12 150.38Z" fill="#21261F"/>
<path d="M240.73 144.68C240.54 144.39 240.64 144 240.92 143.7C240.32 143.24 239.76 143.09 239.51 143.62C238.78 145.17 241.86 148.61 242.72 147.4C243.11 146.85 242.64 145.73 241.95 144.79C241.5 145.08 240.96 145.03 240.73 144.68Z" fill="#21261F"/>
<path d="M255.21 141.45C264.19 140.47 264.63 125.29 260.58 124.36C256.53 123.44 250.97 130.6 252.17 137.56C253.37 144.53 255.21 141.45 255.21 141.45Z" fill="#EB997C"/>
<path d="M260.58 127.14C256.66 131.63 255.21 139.02 255.21 139.02" stroke="#D67055" stroke-width="0.5" stroke-miterlimit="10" stroke-linecap="round" stroke-linejoin="round"/>
<path d="M308.38 234.61L278.8 242.88L290.06 262.77L316.2 258.11L308.38 234.61Z" fill="#EB997C"/>
<path d="M290.34 254.06C287.81 253.47 285.53 252.48 283.5 251.19L290.06 262.77L316.201 258.11L315.27 255.3C306.8 256.3 298.22 255.9 290.34 254.06Z" fill="#21261F"/>
<path d="M311.01 225.24C300.1 226.51 299.45 237.1 299.45 237.1L303.32 236.02C307.1 237.24 312.54 249.18 313.56 258.58L307.14 259.73C307.14 259.73 308.05 264.36 314.73 265.24C321.41 266.12 331.09 263.39 335.67 259.69C340.25 255.99 350.68 256.17 343.15 248.69C335.62 241.21 329.82 235 323.61 230.38C317.39 225.76 311.01 225.24 311.01 225.24Z" fill="#707B97"/>
<path d="M290.06 306.96C283.72 291.64 269.46 274.48 269.46 274.48C256.26 259.17 238.83 257.1 226.16 267.77C213.49 278.44 205.04 293.04 206.09 308.01C207.14 322.98 217.59 342.3 217.59 342.3C217.59 342.3 181.01 337.32 175.2 337.58C169.39 337.84 166.22 341.56 169.92 344.06C173.62 346.56 221.36 366.99 236.7 365.49C252.04 363.99 273.43 349.99 283.73 337.32C294.03 324.65 296.4 322.27 290.06 306.96ZM212.69 303.79C212.69 303.79 211.32 290.95 220.85 280.6C230.38 270.25 239.36 267.26 244.38 267.83C249.4 268.4 250.98 273.42 250.98 273.42C243.06 275.62 218.77 291.12 212.69 303.79Z" fill="#EDE7E2"/>
<path d="M168.86 341.88C169.36 345.17 175.26 340.25 174.6 338.98C173.95 337.7 168.53 339.7 168.86 341.88Z" fill="#E9D7B1"/>
<path d="M249.27 289.53C261.94 276.42 256.8 272.76 256.8 272.76L250.99 273.42C243.07 275.61 218.78 291.11 212.7 303.79C213.1 308.94 215.74 312.11 215.74 312.11C215.74 312.11 227.45 312.1 249.27 289.53Z" fill="#E9D7B1"/>
<path d="M217.59 342.3C244.38 346.83 242.76 364.35 242.76 364.35" stroke="#D39F3F" stroke-width="0.5" stroke-miterlimit="10" stroke-linecap="round" stroke-linejoin="round"/>
<path d="M211.18 318.84C228.01 323.33 258.98 294.58 266.2 278.32" stroke="#D39F3F" stroke-width="0.5" stroke-miterlimit="10" stroke-linecap="round" stroke-linejoin="round"/>
<path d="M212.69 280.2C213.61 286.37 211.98 290.18 213.22 290.76C214.45 291.34 216.3 290.32 216.3 290.32C216.3 290.32 221.76 290.06 224.31 287.24C226.86 284.42 227.3 281.61 227.3 281.61C229.18 281.18 230.54 280.08 230.94 277.74C230.94 277.74 233.46 276.24 234.7 274.13C235.93 272.02 235.91 268.02 235.18 267.77C234.44 267.53 232.68 269.2 232.68 269.2C232.68 269.2 231.1 268.14 229.86 268.76C228.63 269.38 227.4 273.25 227.4 273.25C226.14 272.85 225.03 273.06 224.2 274.48L225.47 266.82L212.69 280.2Z" fill="#D67055"/>
<path d="M224.19 274.48C223.26 281.17 218.78 287.27 216.3 290.32" stroke="#D67055" stroke-width="0.5" stroke-miterlimit="10" stroke-linecap="round" stroke-linejoin="round"/>
<path d="M227.39 273.25C227.57 278.44 227.3 281.61 227.3 281.61" stroke="#D67055" stroke-width="0.5" stroke-miterlimit="10" stroke-linecap="round" stroke-linejoin="round"/>
<path d="M232.67 269.2C231.97 274.48 230.94 277.74 230.94 277.74" stroke="#D67055" stroke-width="0.5" stroke-miterlimit="10" stroke-linecap="round" stroke-linejoin="round"/>
<path d="M285.67 239.13C301.65 252.33 304.72 266.82 304.72 266.82C304.72 266.82 280.28 275.79 264.98 276.72C248.34 277.73 246.16 275.38 246.1 273.46C243.69 273.29 243.05 272.26 243.33 270.79C241.53 270.36 240.85 269.37 241.1 267.92C246.31 266.95 250.04 265.77 250.99 264.17C249.74 262.1 246.34 261.31 242.01 261.09C238.69 257.4 269.64 242.1 285.67 239.13Z" fill="#D67055"/>
<path d="M243.32 270.8C246.75 271.18 252.69 269.53 252.69 269.53" stroke="#D67055" stroke-width="0.5" stroke-miterlimit="10" stroke-linecap="round" stroke-linejoin="round"/>
<path d="M246.1 273.47C250.99 273.43 253.56 272.77 253.56 272.77" stroke="#D67055" stroke-width="0.5" stroke-miterlimit="10" stroke-linecap="round" stroke-linejoin="round"/>
<path d="M79.7999 309.93C49.4099 367.17 55.3198 439.26 58.3798 459.45" stroke="#4A8171" stroke-miterlimit="10" stroke-linecap="round" stroke-linejoin="round"/>
<path d="M84.1899 300.78C88.0599 302.51 81.1599 313.66 78.3499 312.71C75.5499 311.76 80.3299 299.04 84.1899 300.78Z" fill="#D39F3F"/>
<path d="M84.09 318.7C88.07 320.33 82.42 332.98 77.91 330.69C73.39 328.41 79.71 316.9 84.09 318.7Z" fill="#D39F3F"/>
<path d="M68.5299 312.47C74.4999 313.54 73.6099 326.28 68.6799 325.73C63.7499 325.19 65.0899 311.86 68.5299 312.47Z" fill="#D39F3F"/>
<path d="M71.8598 334.46C75.1698 335.95 68.8498 348.83 65.0898 346.07C61.3298 343.31 67.4098 332.46 71.8598 334.46Z" fill="#D39F3F"/>
<path d="M57.9499 328.16C61.8599 326.28 63.6099 338.26 60.2799 338.49C56.9499 338.71 54.8899 329.63 57.9499 328.16Z" fill="#D39F3F"/>
<path d="M59.0498 347.24C61.8498 347.34 61.6398 356.41 58.8098 356.19C55.9798 355.96 56.2498 347.14 59.0498 347.24Z" fill="#D39F3F"/>
<path d="M74.4098 352.67C77.6498 354.21 69.7398 365.37 66.8798 362.71C64.0198 360.06 71.1698 351.13 74.4098 352.67Z" fill="#D39F3F"/>
<path d="M-0.280039 425.67C3.69996 404.91 27.9 392.22 39.36 403.97C50.82 415.72 35.06 429.76 35.06 429.76C35.06 429.76 48.36 419.75 52.54 429.76C56.36 438.9 29.55 467.09 29.55 467.09L-0.290039 467.3V425.67H-0.280039Z" fill="#4A8171"/>
<g opacity="0.6">
<path d="M39.36 403.78L-0.280029 452.34" stroke="#4A8171" stroke-width="0.5" stroke-miterlimit="10" stroke-linecap="round" stroke-linejoin="round"/>
<path d="M20.04 401.23V427.44L42.41 419.04" stroke="#4A8171" stroke-width="0.5" stroke-miterlimit="10" stroke-linecap="round" stroke-linejoin="round"/>
<path d="M35.06 429.58L8.79004 441.23V409.74" stroke="#4A8171" stroke-width="0.5" stroke-miterlimit="10" stroke-linecap="round" stroke-linejoin="round"/>
</g>
<path d="M115.41 464.15C132.32 451.54 137.77 438.07 129.74 434.63C121.72 431.19 103.66 436.85 93.91 442.33C84.17 447.82 77.29 461 77.29 461L115.41 464.15Z" fill="#4A8171"/>
<g opacity="0.55">
<path d="M129.74 434.63L92.48 461" stroke="#4A8171" stroke-width="0.5" stroke-miterlimit="10" stroke-linecap="round" stroke-linejoin="round"/>
<path d="M129.74 449.8L103.22 453.4L109.82 435.85" stroke="#4A8171" stroke-width="0.5" stroke-miterlimit="10" stroke-linecap="round" stroke-linejoin="round"/>
</g>
<path d="M102.47 360.48C62.8 391.28 56.22 457.16 56.22 457.16" stroke="#4A8171" stroke-miterlimit="10" stroke-linecap="round" stroke-linejoin="round"/>
<path d="M102.47 360.48C100.17 374.2 100.88 376.6 101.84 377.01C102.8 377.42 105.01 360.8 105.01 360.8C105.01 360.8 109.71 368.17 115.07 372.74C120.43 377.31 125.71 380.14 126.16 380.04C126.6 379.95 119.84 369.14 114.8 365.63C109.76 362.12 106.38 360.25 106.38 360.25C106.38 360.25 116.64 366 125.32 368.24C134 370.47 139.65 370.31 138.65 369.03C137.65 367.75 120.73 361.03 106.29 358.65C106.29 358.65 111.64 350.46 113.98 340.95C116.32 331.45 115.46 323.25 112.28 325.6C109.1 327.95 104.68 354.11 103.58 357.3C102.47 360.48 102.47 360.48 102.47 360.48Z" fill="#D67055"/>
<path d="M102.47 360.48C92.5699 356.51 88.2599 349.18 88.0799 340.21C87.8999 331.23 94.8299 333.37 97.5499 337.2C104.2 346.55 103.57 357.3 103.57 357.3C103.57 357.3 106.65 343.88 122.26 339.41C146.52 332.45 136.39 366.42 102.47 360.48Z" fill="#D39F3F"/>
<path d="M91.1699 333.97C99.3099 343.91 102.47 360.47 102.47 360.47C98.8599 357.13 89.7199 345.6 89.4099 335" stroke="#EDE7E2" stroke-width="0.5" stroke-miterlimit="10" stroke-linecap="round" stroke-linejoin="round"/>
<path d="M131.82 339.02C117.84 342.45 102.47 360.47 102.47 360.47C102.47 360.47 122.77 352.26 134.92 341.65" stroke="#EDE7E2" stroke-width="0.5" stroke-miterlimit="10" stroke-linecap="round" stroke-linejoin="round"/>
<path d="M135.09 347.3C119.83 359.4 102.47 360.48 102.47 360.48" stroke="#EDE7E2" stroke-width="0.5" stroke-miterlimit="10" stroke-linecap="round" stroke-linejoin="round"/>
<path d="M124.87 467.31H3.06006C6.03006 456.8 9.88006 448.17 21.9801 457.19C25.6501 446.44 29.4101 444.18 33.3001 455.59C38.8901 428.18 51.2301 425.42 55.2301 445.89C87.0401 382.1 145.22 399.14 91.0601 453.61C111.17 451.65 122.63 456.08 124.87 467.31Z" fill="#7A9954"/>
<g opacity="0.61">
<path d="M90.21 407.45L89.2 429.31L112.01 423.18" stroke="#7A9954" stroke-width="0.5" stroke-miterlimit="10" stroke-linecap="round" stroke-linejoin="round"/>
<path d="M73.53 419.47L75.14 447.82L103.22 439.4" stroke="#7A9954" stroke-width="0.5" stroke-miterlimit="10" stroke-linecap="round" stroke-linejoin="round"/>
<path d="M55.22 445.68L61.81 467.11C61.81 467.11 81.01 436.92 108.47 406.51" stroke="#7A9954" stroke-width="0.5" stroke-miterlimit="10" stroke-linecap="round" stroke-linejoin="round"/>
<path d="M91.0501 453.4L61.8101 467.11" stroke="#7A9954" stroke-width="0.5" stroke-miterlimit="10" stroke-linecap="round" stroke-linejoin="round"/>
<path d="M37.72 441.23C41.06 453.7 47.66 467.31 47.66 467.31" stroke="#7A9954" stroke-width="0.5" stroke-miterlimit="10" stroke-linecap="round" stroke-linejoin="round"/>
<path d="M21.98 457.18C25.49 462.74 33.28 467.5 33.28 467.5" stroke="#7A9954" stroke-width="0.5" stroke-miterlimit="10" stroke-linecap="round" stroke-linejoin="round"/>
</g>
<path opacity="0.78" d="M47.24 221.91C46.11 229.93 42.22 233.26 36.53 233.51C42.89 234.29 46.46 238.16 47.24 245.11C48.03 238.15 51.6 234.29 57.95 233.51C52.25 233.25 48.36 229.93 47.24 221.91Z" fill="white"/>
<path opacity="0.78" d="M380.19 46.76C379.06 54.78 375.17 58.11 369.48 58.36C375.84 59.14 379.41 63.01 380.19 69.96C380.98 63 384.55 59.13 390.9 58.36C385.21 58.1 381.32 54.78 380.19 46.76Z" fill="white"/>
<path opacity="0.78" d="M29.0099 262.93C28.2699 268.23 25.6899 270.43 21.9299 270.6C26.1299 271.12 28.4899 273.67 29.0099 278.27C29.5299 273.67 31.8899 271.11 36.0899 270.6C32.3199 270.43 29.7499 268.23 29.0099 262.93Z" fill="white"/>
<path opacity="0.78" d="M380.19 384.69C379.06 392.71 375.17 396.04 369.48 396.29C375.84 397.07 379.41 400.94 380.19 407.89C380.98 400.93 384.55 397.06 390.9 396.29C385.21 396.04 381.32 392.71 380.19 384.69Z" fill="white"/>
<path opacity="0.78" d="M125.94 284.52C124.81 292.54 120.92 295.87 115.23 296.12C121.59 296.9 125.16 300.77 125.94 307.72C126.73 300.76 130.3 296.89 136.65 296.12C130.95 295.86 127.06 292.54 125.94 284.52Z" fill="white"/>
<path opacity="0.78" d="M111.84 103.5C110.36 114.05 105.24 118.43 97.74 118.77C106.1 119.8 110.8 124.89 111.84 134.04C112.88 124.88 117.58 119.79 125.94 118.77C118.44 118.43 113.32 114.06 111.84 103.5Z" fill="white"/>
<path d="M-0.280029 -0.290039V467.31H467.31V54.45" stroke="white" stroke-miterlimit="10" stroke-linecap="round" stroke-linejoin="round"/>
</g>
<defs>
<clipPath id="clip0_1986_5383">
<rect width="467" height="464" fill="white"/>
</clipPath>
</defs>
</svg>
