<svg width="18" height="18" viewBox="0 0 18 18" fill="none" xmlns="http://www.w3.org/2000/svg">
<path fill-rule="evenodd" clip-rule="evenodd" d="M3.43097 9.11992L9.00012 14.1644L14.5693 9.11992C15.9199 7.75972 15.6253 5.73883 14.4529 4.56994C13.8775 3.99623 13.1134 3.65877 12.2663 3.71884C11.4193 3.77891 10.4134 4.2426 9.37511 5.4198C9.28019 5.52742 9.14361 5.58907 9.00012 5.58907C8.85662 5.58907 8.72005 5.52742 8.62513 5.4198C7.58693 4.24267 6.57943 3.77731 5.73011 3.71577C4.88081 3.65423 4.11489 3.99037 3.53858 4.56262C2.3655 5.72743 2.06862 7.74808 3.43097 9.11992ZM9.00012 4.35896C7.94859 3.30959 6.85163 2.79441 5.80238 2.71839C4.62769 2.63327 3.58758 3.10472 2.83398 3.85301C1.34965 5.32688 0.889979 7.99318 2.73228 9.83548C2.7381 9.8413 2.74406 9.84697 2.75017 9.8525L8.66445 15.2096C8.85496 15.3822 9.14528 15.3822 9.33579 15.2096L15.2501 9.8525C15.2562 9.84697 15.2621 9.8413 15.268 9.83548C17.1006 8.00288 16.6385 5.33688 15.1589 3.86176C14.4072 3.11226 13.3692 2.63812 12.1956 2.72135C11.1474 2.79569 10.0514 3.30987 9.00012 4.35896Z" fill="#20604F"/>
</svg>
