<svg width="18" height="18" viewBox="0 0 18 18" fill="none" xmlns="http://www.w3.org/2000/svg">
<path d="M15.2641 9.88686L14.0141 11.0192V11.0343H13.9975L9.35002 15.2438C9.1596 15.4166 8.86907 15.4166 8.67864 15.2438L4.03118 11.0343H4.01409V11.0192L2.76409 9.88686L2.74651 9.86977C0.904224 8.02749 1.3637 5.36098 2.84807 3.88735C3.60149 3.13882 4.64202 2.66762 5.81633 2.75259C6.86565 2.82876 7.96282 3.34389 9.01409 4.39321C10.0654 3.34438 11.1615 2.83022 12.2099 2.75551C13.3832 2.67251 14.4213 3.14663 15.1733 3.89614C16.6528 5.37124 17.1147 8.03725 15.2822 9.86977L15.2641 9.88686Z" fill="#20604F"/>
</svg>
