<svg width="18" height="18" viewBox="0 0 18 18" fill="none" xmlns="http://www.w3.org/2000/svg">
<path d="M3.41129 2.79032C3.2466 2.79032 3.08866 2.85575 2.9722 2.9722C2.85575 3.08865 2.79032 3.2466 2.79032 3.41129V14.5887C2.79032 14.7534 2.85575 14.9113 2.9722 15.0278C3.08866 15.1443 3.2466 15.2097 3.41129 15.2097H10.5242C10.6889 15.2097 10.8469 15.1443 10.9633 15.0278C11.0798 14.9113 11.1452 14.7534 11.1452 14.5887V12.5565C11.1452 12.3382 11.3221 12.1613 11.5403 12.1613C11.7586 12.1613 11.9355 12.3382 11.9355 12.5565V14.5887C11.9355 14.963 11.7868 15.322 11.5221 15.5866C11.2575 15.8513 10.8985 16 10.5242 16H3.41129C3.03699 16 2.67803 15.8513 2.41336 15.5866C2.14869 15.322 2 14.963 2 14.5887V3.41129C2 3.03699 2.14869 2.67803 2.41336 2.41336C2.67803 2.14869 3.037 2 3.41129 2H10.5242C10.8985 2 11.2575 2.14869 11.5221 2.41336C11.7868 2.67803 11.9355 3.03699 11.9355 3.41129V5.44355C11.9355 5.66179 11.7586 5.83871 11.5403 5.83871C11.3221 5.83871 11.1452 5.66179 11.1452 5.44355V3.41129C11.1452 3.2466 11.0798 3.08865 10.9633 2.9722C10.8469 2.85575 10.6889 2.79032 10.5242 2.79032H3.41129Z" fill="#20604F"/>
<path d="M8.09675 9.00003C8.09675 8.78179 8.27367 8.60487 8.49191 8.60487H14.6509L13.2932 7.24711C13.1388 7.09279 13.1388 6.84259 13.2932 6.68827C13.4475 6.53395 13.6977 6.53395 13.852 6.68827L15.8843 8.72052C15.9411 8.77734 15.977 8.84715 15.992 8.92039C15.9958 8.93925 15.9983 8.9586 15.9994 8.97833C16.0002 8.99372 16.0002 9.00914 15.9992 9.02452C15.9956 9.08359 15.979 9.13915 15.9523 9.18839C15.9432 9.20513 15.9329 9.22115 15.9216 9.23632C15.9089 9.25325 15.895 9.26913 15.8798 9.28381L13.852 11.3116C13.6977 11.4659 13.4475 11.4659 13.2932 11.3116C13.1388 11.1573 13.1388 10.9071 13.2932 10.7528L14.6508 9.39519H8.49191C8.27367 9.39519 8.09675 9.21827 8.09675 9.00003Z" fill="#20604F"/>
</svg>
