<svg width="100" height="30" viewBox="0 0 100 30" fill="none" xmlns="http://www.w3.org/2000/svg">
<path d="M94.0506 10.125V11.25H95.9493C95.3164 12.625 94.6835 13.75 94.1772 14.875C93.6708 15.75 93.2911 16.625 92.9113 17.25L89.9999 11.375H91.7721V10.25L82.2784 10.125V11.25H83.924L89.8734 22.875C89.7468 23.125 89.6202 23.375 89.4936 23.625C89.367 24 89.1139 24.25 88.9873 24.5C88.8607 24.75 88.6075 25 88.3544 25.125C88.1012 25.25 87.848 25.375 87.5949 25.375C87.3417 25.375 87.0885 25.25 86.962 25.125C86.7088 25 86.4556 24.875 86.2025 24.625C85.9493 24.5 85.6961 24.25 85.3164 24.125C84.9366 24 84.5569 23.875 84.1772 23.875C83.5442 23.875 83.0379 24 82.6582 24.25C82.2784 24.5 82.0253 24.75 81.8987 25.125C81.7721 25.5 81.6455 25.875 81.6455 26.25C81.6455 26.625 81.7721 27 81.8987 27.25C82.0253 27.375 82.1518 27.625 82.2784 27.75C82.405 28 82.6582 28.125 82.9113 28.25C83.1645 28.375 83.4177 28.5 83.7974 28.625C84.0506 28.75 84.4303 28.75 84.8101 28.75C85.443 28.75 86.0759 28.625 86.5822 28.25C87.0885 28 87.7215 27.625 88.1012 27.125C88.6075 26.625 88.9873 26.125 89.4936 25.625C89.8734 25.125 90.2531 24.5 90.6328 23.875C91.0126 23.25 91.2658 22.75 91.5189 22.25C91.7721 21.75 92.0253 21.25 92.2784 20.875C92.6582 20.125 93.1645 19.375 93.6708 18.375C94.5569 16.75 95.8227 14.25 97.3417 11H99.7468V10.125H94.0506Z" fill="#20604F"/>
<path d="M74.1772 21.625V22.75L83.038 23V21.875H81.0127C81.0127 21.375 81.0127 20.875 81.1393 20.5C81.1393 19.875 81.1393 19.375 81.2659 18.875C81.2659 18.25 81.2659 17.75 81.2659 17.25C81.2659 16.75 81.2659 16.125 81.1393 15.625C81.0127 15 80.8861 14.5 80.6329 13.875C80.3798 13.125 80.1266 12.5 79.7469 12.125C79.3671 11.625 78.9874 11.25 78.6076 10.875C78.2279 10.5 77.7215 10.25 77.2152 10C76.7089 9.75 76.076 9.625 75.4431 9.625C74.9367 9.625 74.557 9.875 74.0507 10C73.6709 10.25 73.2912 10.5 73.038 10.875C72.6583 11.25 72.4051 11.625 72.1519 12L72.2785 9.125L64.1772 9.375V10.5H66.8355L66.5823 21.75H65.1899V22.875H73.5443V21.75H72.0253L72.1519 15.375C72.4051 14.5 72.6583 13.75 72.9114 13.25C73.1646 12.75 73.5443 12.25 73.7975 11.875C74.0507 11.625 74.3038 11.375 74.557 11.25C74.8102 11.125 74.9367 11 75.0633 11C75.3165 11 75.5696 11.125 75.6962 11.625C75.8228 12.125 75.9494 13 75.9494 14.25C76.076 16.75 75.9494 19.375 75.8228 21.875L74.1772 21.625Z" fill="#20604F"/>
<path d="M57.0885 18.75C57.3417 18.75 57.4683 18.875 57.5949 18.875C57.7214 18.875 57.848 18.875 57.848 18.875C58.4809 18.875 59.1138 18.75 59.8733 18.625C60.5062 18.5 61.1392 18.25 61.7721 17.875C62.2784 17.625 62.7847 17.125 63.1645 16.75C63.5442 16.25 63.7974 15.75 63.7974 15.125C63.7974 14.75 63.7974 14.375 63.6708 14C63.5442 13.625 63.4176 13.125 63.2911 12.75C63.1645 12.375 62.9113 12 62.5316 11.625C62.2784 11.25 61.8987 10.875 61.5189 10.625C61.1392 10.375 60.6328 10.125 60.1265 9.875C59.6202 9.75 58.9873 9.625 58.3543 9.625C57.5949 9.625 56.9619 9.75 56.2025 10C55.5695 10.25 54.9366 10.625 54.4303 11C53.924 11.375 53.4176 11.875 53.0379 12.375C52.6581 12.875 52.2784 13.5 52.0252 14C51.7721 14.625 51.5189 15.125 51.3923 15.75C51.2657 16.25 51.1392 16.875 51.1392 17.375C51.1392 18.125 51.2657 18.875 51.5189 19.5C51.7721 20.25 52.1518 20.875 52.6581 21.5C53.1645 22.125 53.924 22.625 54.6835 23C55.5695 23.375 56.5822 23.625 57.7214 23.625C58.3543 23.625 59.1138 23.375 59.6202 23.125C60.2531 22.875 60.7594 22.5 61.2657 22.125C61.7721 21.75 62.1518 21.25 62.5316 20.625C62.9113 20.125 63.1645 19.5 63.4176 18.875L63.7974 17.875L62.6581 17.5L62.1518 18.875C61.8987 19.5 61.6455 20 61.2657 20.375C60.886 20.75 60.5062 21.125 60.2531 21.375C59.8733 21.625 59.6202 21.875 59.2404 22C58.8607 22.125 58.6075 22.125 58.4809 22.125C58.2278 22.125 57.848 22 57.5949 21.875C57.3417 21.75 57.0885 21.5 56.9619 21.125C56.7088 20.75 56.5822 20.25 56.4556 19.625C56.329 19.125 56.329 18.625 56.2025 18.125C56.329 18.125 56.329 18.25 56.4556 18.25C56.5822 18.625 56.8354 18.75 57.0885 18.75ZM59.367 13.25C59.4936 13.75 59.4936 14.375 59.4936 14.875C59.4936 15.375 59.4936 15.75 59.367 16.125C59.367 16.5 59.2404 16.75 59.1138 17C58.9873 17.25 58.8607 17.375 58.6075 17.5C58.3543 17.625 58.1012 17.75 57.848 17.75C57.848 17.75 57.7214 17.75 57.5949 17.75C57.4683 17.75 57.3417 17.75 57.0885 17.625C56.9619 17.5 56.7088 17.5 56.4556 17.25C56.2024 17.125 56.0759 17 55.8227 16.75C55.8227 15.875 55.8227 15.125 55.9493 14.375C56.0759 13.625 56.2024 13 56.329 12.375C56.4556 11.875 56.7088 11.375 56.9619 11.125C57.2151 10.875 57.3417 10.75 57.5949 10.75C57.848 10.75 58.1012 10.875 58.2278 11C58.4809 11.25 58.6075 11.5 58.7341 11.875C59.2404 12.25 59.2404 12.75 59.367 13.25Z" fill="#20604F"/>
<path d="M42.9114 18.75C43.1646 18.75 43.2911 18.875 43.4177 18.875C43.5443 18.875 43.6709 18.875 43.6709 18.875C44.3038 18.875 44.9367 18.75 45.6962 18.625C46.3291 18.5 46.962 18.25 47.5949 17.875C48.1013 17.625 48.6076 17.125 48.9873 16.75C49.3671 16.25 49.6203 15.75 49.6203 15.125C49.6203 14.75 49.6203 14.375 49.4937 14C49.3671 13.625 49.2405 13.125 49.1139 12.75C48.9873 12.375 48.7342 12 48.3544 11.625C48.1013 11.25 47.7215 10.875 47.3418 10.625C46.962 10.375 46.4557 10.125 45.9494 9.875C45.443 9.75 44.8101 9.625 44.1772 9.625C43.4177 9.625 42.7848 9.75 42.1519 10C41.519 10.25 40.8861 10.625 40.3798 11C39.6203 11.375 39.2405 11.875 38.7342 12.5C38.3544 13 37.9747 13.625 37.7215 14.125C37.4684 14.75 37.2152 15.25 37.0886 15.875C36.962 16.375 36.8354 17 36.8354 17.5C36.8354 18.25 36.962 19 37.2152 19.625C37.4684 20.375 37.8481 21 38.3544 21.625C38.8608 22.25 39.6203 22.75 40.3798 23.125C41.2658 23.5 42.2785 23.75 43.4177 23.75C44.0506 23.75 44.8101 23.5 45.3165 23.25C45.9494 23 46.4557 22.625 46.962 22.25C47.4684 21.875 47.8481 21.375 48.2279 20.75C48.6076 20.25 48.8608 19.625 49.1139 19L49.4937 18L48.3544 17.625L47.8481 19C47.5949 19.625 47.3418 20.125 46.962 20.5C46.5823 20.875 46.2025 21.25 45.9494 21.5C45.5696 21.75 45.3165 22 44.9367 22.125C44.557 22.25 44.3038 22.25 44.1772 22.25C43.9241 22.25 43.5443 22.125 43.2911 22C43.038 21.875 42.7848 21.625 42.6582 21.25C42.4051 20.875 42.2785 20.375 42.1519 19.75C42.0253 19.25 42.0253 18.75 41.8987 18.25C42.0253 18.25 42.0253 18.375 42.1519 18.375C42.5317 18.625 42.7848 18.75 42.9114 18.75ZM45.3165 13.25C45.443 13.75 45.443 14.25 45.443 14.875C45.443 15.375 45.443 15.75 45.3165 16.125C45.3165 16.5 45.1899 16.75 45.0633 17C44.9367 17.25 44.8101 17.375 44.557 17.5C44.3038 17.625 44.0506 17.75 43.7975 17.75C43.7975 17.75 43.6709 17.75 43.5443 17.75C43.4177 17.75 43.2911 17.75 43.038 17.625C42.9114 17.5 42.6582 17.5 42.4051 17.25C42.1519 17.125 42.0253 17 41.7722 16.75C41.7722 15.875 41.7722 15.125 41.8987 14.375C42.0253 13.625 42.1519 13 42.2785 12.375C42.4051 11.875 42.6582 11.375 42.9114 11.125C43.1646 10.875 43.2911 10.75 43.5443 10.75C43.7975 10.75 44.0506 10.875 44.1772 11C44.4304 11.25 44.557 11.5 44.6835 11.875C45.0633 12.25 45.1899 12.75 45.3165 13.25Z" fill="#20604F"/>
<path d="M35.3166 11C35.0634 10.75 34.8103 10.5 34.4305 10.375C34.0508 10.25 33.671 10.25 33.1647 10.25C32.7849 10.375 32.4052 10.5 32.0254 10.75C31.7723 11 31.3925 11.25 31.0128 11.625C30.8862 11.75 30.7596 11.875 30.633 12.125V10.875L24.0508 10.625V11.75L25.6963 11.875L25.5698 22.125H23.5444V23.25L33.2913 23V21.875L30.7596 22L30.633 14.625C30.8862 13.875 31.1394 13.375 31.3925 13C31.6457 12.625 32.0254 12.25 32.2786 12C32.6584 11.75 32.9115 11.625 33.1647 11.5C33.5444 11.5 33.9242 11.5 34.0508 11.625C34.1773 11.75 34.1773 11.75 34.3039 11.875C34.1773 11.875 34.0508 11.875 33.7976 11.875C33.4179 12 33.1647 12 32.9115 12.125C32.6584 12.25 32.2786 12.5 32.0254 12.75C31.6457 13.125 31.266 13.625 31.1394 14C31.0128 14.5 30.8862 14.875 30.8862 15.25C30.8862 15.75 31.0128 16.25 31.3925 16.625C31.8989 17.125 32.7849 17.25 33.5444 16.875C33.7976 16.75 34.1773 16.5 34.4305 16.125L34.9368 15.625H34.8103C34.8103 15.625 34.8103 15.5 34.9368 15.5C35.0634 15.25 35.19 15 35.3166 14.625C35.4432 14.375 35.5697 14 35.5697 13.625C35.6963 13.25 35.6963 13 35.6963 12.625C35.6963 12.25 35.6963 11.875 35.5697 11.625C35.6963 11.5 35.5697 11.25 35.3166 11Z" fill="#20604F"/>
<path d="M11.2659 14L15.3165 13.875C15.3165 14.125 15.3165 14.5 15.3165 14.75C15.3165 15.125 15.3165 15.5 15.3165 15.75C15.3165 16.625 15.3165 17.375 15.1899 18C15.0633 18.625 14.9367 19.125 14.8102 19.625C14.6836 20.125 14.4304 20.5 14.3038 20.75C14.0507 21 13.9241 21.375 13.6709 21.5C13.1646 22 12.6583 22.25 12.0254 22.25H11.7722C11.519 22.25 11.1393 22.25 10.8861 22.125C10.5064 22 10.2532 21.875 9.87346 21.625C9.49371 21.375 9.24054 21 8.8608 20.625C8.48105 20.125 8.22789 19.625 7.97472 18.875C7.72156 18.125 7.59497 17.375 7.34181 16.375C7.21523 15.375 7.08864 14.25 7.08864 12.875C7.08864 11.5 7.21523 10.375 7.34181 9.375C7.59497 8.5 7.84814 7.5 8.1013 6.75C8.35447 6 8.73421 5.375 9.11396 4.875C9.49371 4.375 9.87345 3.875 10.2532 3.625C10.6329 3.25 11.0127 3.125 11.519 2.875C11.8988 2.75 12.2785 2.625 12.6583 2.625H12.7848C13.1646 2.625 13.5443 2.75 13.7975 3C14.0507 3.25 14.3038 3.5 14.4304 3.875C14.557 4.25 14.8102 4.625 14.8102 5.125C14.9367 5.625 14.9367 6 15.0633 6.375L15.1899 7.125C15.1899 7.625 15.4431 8.125 15.5697 8.5C15.8228 8.875 16.076 9.25 16.3292 9.5C16.5823 9.75 16.9621 10 17.3418 10.125C17.7216 10.25 18.1013 10.375 18.4811 10.375C18.8608 10.375 19.114 10.25 19.4937 10.125C19.8735 10 20.1266 9.75 20.3798 9.5C20.6329 9.25 20.8861 9 21.0127 8.625C21.1393 8.25 21.2659 7.875 21.2659 7.5C21.2659 6.75 21.0127 5.875 20.6329 5.125C20.2532 4.375 19.6203 3.75 18.8608 3.125C18.1013 2.5 17.2152 2.125 16.2026 1.75C15.0633 1.625 13.9241 1.5 12.6583 1.5C12.1519 1.5 11.6456 1.5 11.0127 1.625C10.3798 1.625 9.74687 1.75 9.11396 1.875C8.48105 2 7.97472 2.25 7.34181 2.5C6.7089 2.75 6.07599 3.125 5.44308 3.5C4.81016 3.875 4.17725 4.375 3.67092 5C3.16459 5.5 2.65826 6.25 2.27852 7C1.89877 7.75 1.64561 8.625 1.39244 9.625C1.13928 10.625 1.0127 11.75 1.0127 12.875C1.0127 14.125 1.13928 15.25 1.39244 16.125C1.64561 17.125 1.89877 17.875 2.4051 18.625C2.78485 19.375 3.29118 20 3.79751 20.5C4.30383 21 4.93675 21.5 5.44308 21.875C6.07599 22.25 6.58231 22.5 7.21523 22.75C7.84814 23 8.35447 23.125 8.98738 23.25C9.49371 23.375 10.1266 23.375 10.5064 23.5C11.0127 23.5 11.3924 23.5 11.7722 23.5H12.1519C12.5317 23.5 12.9114 23.5 13.4178 23.375C13.9241 23.375 14.4304 23.25 14.9367 23C15.4431 22.875 16.076 22.625 16.5823 22.25C17.0886 22 17.595 21.625 17.9747 21.125L20 24L20.7595 13.5L23.2912 13.375V12.125L11.2659 12.75V14Z" fill="#20604F"/>
</svg>
