<svg width="18" height="18" viewBox="0 0 18 18" fill="none" xmlns="http://www.w3.org/2000/svg">
<g clip-path="url(#clip0_1_10041)">
<path fill-rule="evenodd" clip-rule="evenodd" d="M5.32129 4.82164C5.32129 2.79002 6.96824 1.14307 8.99986 1.14307C11.0315 1.14307 12.6784 2.79002 12.6784 4.82164C12.6784 6.85326 11.0315 8.50021 8.99986 8.50021C6.96824 8.50021 5.32129 6.85326 5.32129 4.82164ZM8.99986 0.143066C6.41596 0.143066 4.32129 2.23773 4.32129 4.82164C4.32129 7.40554 6.41596 9.50021 8.99986 9.50021C11.5838 9.50021 13.6784 7.40554 13.6784 4.82164C13.6784 2.23773 11.5838 0.143066 8.99986 0.143066ZM8.99992 11.061C7.12639 11.061 5.30127 11.656 3.78767 12.7601C2.27407 13.8643 1.1502 15.4205 0.578086 17.2046C0.529314 17.3566 0.556133 17.5229 0.650259 17.6519C0.744384 17.7809 0.894488 17.8572 1.0542 17.8572H16.9456C17.1053 17.8572 17.2555 17.7809 17.3496 17.6519C17.4437 17.5229 17.4705 17.3566 17.4217 17.2046C16.8496 15.4205 15.7258 13.8643 14.2122 12.7601C12.6986 11.656 10.8734 11.061 8.99992 11.061ZM4.37701 13.568C5.71947 12.5887 7.33823 12.061 8.99992 12.061C10.6616 12.061 12.2804 12.5887 13.6228 13.568C14.7772 14.4101 15.676 15.5487 16.2278 16.8572H1.77205C2.32387 15.5487 3.22265 14.4101 4.37701 13.568Z" fill="#20604F"/>
</g>
<defs>
<clipPath id="clip0_1_10041">
<rect width="18" height="18" fill="white"/>
</clipPath>
</defs>
</svg>
