<svg width="18" height="18" viewBox="0 0 18 18" fill="none" xmlns="http://www.w3.org/2000/svg">
<g clip-path="url(#clip0_1_10036)">
<path fill-rule="evenodd" clip-rule="evenodd" d="M8.99992 1.14307C6.9683 1.14307 5.32135 2.79002 5.32135 4.82164C5.32135 6.85326 6.9683 8.50021 8.99992 8.50021C11.0315 8.50021 12.6785 6.85326 12.6785 4.82164C12.6785 2.79002 11.0315 1.14307 8.99992 1.14307ZM4.32135 4.82164C4.32135 2.23773 6.41601 0.143066 8.99992 0.143066C11.5838 0.143066 13.6785 2.23773 13.6785 4.82164C13.6785 7.40554 11.5838 9.50021 8.99992 9.50021C6.41601 9.50021 4.32135 7.40554 4.32135 4.82164Z" fill="#828282"/>
<path fill-rule="evenodd" clip-rule="evenodd" d="M3.78767 12.7602C5.30127 11.6561 7.12639 11.0611 8.99992 11.0611C10.8734 11.0611 12.6986 11.6561 14.2122 12.7602C15.7258 13.8644 16.8496 15.4206 17.4217 17.2047C17.4705 17.3568 17.4437 17.523 17.3496 17.652C17.2555 17.7811 17.1053 17.8574 16.9456 17.8574H1.0542C0.894488 17.8574 0.744384 17.7811 0.650259 17.652C0.556133 17.523 0.529314 17.3568 0.578086 17.2047C1.1502 15.4206 2.27407 13.8644 3.78767 12.7602ZM8.99992 12.0611C7.33823 12.0611 5.71947 12.5888 4.37701 13.5681C3.22265 14.4102 2.32387 15.5488 1.77205 16.8574H16.2278C15.676 15.5488 14.7772 14.4102 13.6228 13.5681C12.2804 12.5888 10.6616 12.0611 8.99992 12.0611Z" fill="#828282"/>
</g>
<defs>
<clipPath id="clip0_1_10036">
<rect width="18" height="18" fill="white"/>
</clipPath>
</defs>
</svg>
