<svg width="18" height="18" viewBox="0 0 18 18" fill="none" xmlns="http://www.w3.org/2000/svg">
<path d="M4.4839 9.00008C4.4839 8.75066 4.6861 8.54846 4.93552 8.54846H13.0645C13.314 8.54846 13.5162 8.75066 13.5162 9.00008C13.5162 9.2495 13.314 9.45169 13.0645 9.45169H4.93552C4.6861 9.45169 4.4839 9.2495 4.4839 9.00008Z" fill="#20604F"/>
<path d="M4.93552 12.0324C4.6861 12.0324 4.4839 12.2346 4.4839 12.484C4.4839 12.7334 4.6861 12.9356 4.93552 12.9356H9.58068C9.8301 12.9356 10.0323 12.7334 10.0323 12.484C10.0323 12.2346 9.8301 12.0324 9.58068 12.0324H4.93552Z" fill="#20604F"/>
<path fill-rule="evenodd" clip-rule="evenodd" d="M5.96774 1.45162C5.96774 1.2022 5.76555 1 5.51613 1C5.26671 1 5.06452 1.2022 5.06452 1.45162V2.74185H2.6129C1.72212 2.74185 1 3.46398 1 4.35476V15.3871C1 16.2779 1.72212 17 2.6129 17H15.3871C16.2779 17 17 16.2779 17 15.3871V4.35476C17 3.46398 16.2779 2.74185 15.3871 2.74185H12.9354V1.45162C12.9354 1.2022 12.7332 1 12.4838 1C12.2344 1 12.0322 1.2022 12.0322 1.45162V2.74185H9.45164V1.45162C9.45164 1.2022 9.24945 1 9.00003 1C8.75061 1 8.54842 1.2022 8.54842 1.45162V2.74185H5.96774V1.45162ZM5.06452 3.64508V4.93551C5.06452 5.18493 5.26671 5.38712 5.51613 5.38712C5.76555 5.38712 5.96774 5.18493 5.96774 4.93551V3.64508H8.54842V4.93551C8.54842 5.18493 8.75061 5.38712 9.00003 5.38712C9.24945 5.38712 9.45164 5.18493 9.45164 4.93551V3.64508H12.0322V4.93551C12.0322 5.18493 12.2344 5.38712 12.4838 5.38712C12.7332 5.38712 12.9354 5.18493 12.9354 4.93551V3.64508H15.3871C15.779 3.64508 16.0968 3.96282 16.0968 4.35476V15.3871C16.0968 15.779 15.779 16.0968 15.3871 16.0968H2.6129C2.22096 16.0968 1.90323 15.779 1.90323 15.3871V4.35476C1.90323 3.96282 2.22096 3.64508 2.6129 3.64508H5.06452Z" fill="#20604F"/>
</svg>
