<svg width="18" height="18" viewBox="0 0 18 18" fill="none" xmlns="http://www.w3.org/2000/svg">
<path fill-rule="evenodd" clip-rule="evenodd" d="M4.59664 0.289513C4.7919 0.0942509 5.10849 0.0942509 5.30375 0.289513L13.2061 8.19189C13.3143 8.29513 13.4008 8.41908 13.4602 8.55639C13.5209 8.69649 13.5521 8.84754 13.5521 9.00021C13.5521 9.15288 13.5209 9.30393 13.4602 9.44403C13.4008 9.58134 13.3143 9.70529 13.2061 9.80853L5.30375 17.7109C5.10849 17.9062 4.7919 17.9062 4.59664 17.7109C4.40138 17.5156 4.40138 17.1991 4.59664 17.0038L12.5038 9.09666L12.5152 9.08563C12.5268 9.07467 12.5361 9.06144 12.5425 9.04675C12.5489 9.03205 12.5521 9.01622 12.5521 9.00021C12.5521 8.9842 12.5489 8.96836 12.5425 8.95367C12.5361 8.93898 12.5268 8.92575 12.5152 8.91479L12.5038 8.90376L4.59664 0.99662C4.40138 0.801358 4.40138 0.484775 4.59664 0.289513Z" fill="#20604F"/>
</svg>
