<svg width="90" height="90" viewBox="0 0 90 90" fill="none" xmlns="http://www.w3.org/2000/svg">
<g clip-path="url(#clip0_800_4066)">
<rect width="90" height="90" rx="45" fill="#D5E1DE"/>
<path fill-rule="evenodd" clip-rule="evenodd" d="M37.0171 28.6081C37.24 28.5865 37.4655 28.6088 37.6766 28.6733C38.5204 28.8843 39.8199 29.2525 41.1015 29.7961C42.379 30.338 43.7189 31.087 44.5371 32.0865C44.9753 32.6203 45.2222 33.1727 45.3375 33.7125C45.4936 33.541 45.6769 33.3778 45.8913 33.2265C46.77 32.6046 48.0122 32.2995 49.1585 32.1471C50.3085 31.9941 51.434 31.986 52.1586 32.0034C52.3425 31.9983 52.5287 32.0303 52.7029 32.097C52.8852 32.1668 53.0494 32.2726 53.1818 32.4058C53.3142 32.539 53.4111 32.6957 53.4646 32.8631C53.517 33.0271 53.5262 33.1968 53.4914 33.3586C53.3771 33.982 53.1559 34.9391 52.759 35.8868C52.3657 36.8259 51.7763 37.8139 50.8882 38.4342C50.6599 38.5998 50.4222 38.7318 50.1793 38.8353C54.3084 40.7808 57.1662 44.9803 57.1662 49.8473C57.1662 56.5665 51.7192 62.0136 44.9999 62.0136C38.2806 62.0136 32.8336 56.5665 32.8336 49.8473C32.8336 44.529 36.2459 40.0078 41.0006 38.3536C40.7869 38.3369 40.5675 38.3116 40.3455 38.2753C39.2107 38.0896 37.9677 37.6092 37.096 36.518C36.2663 35.5173 35.8995 34.1863 35.7439 32.9745C35.5869 31.7516 35.6362 30.5739 35.7026 29.8162C35.714 29.6179 35.7787 29.4246 35.8917 29.2515C36.0069 29.075 36.169 28.9246 36.3646 28.8127C36.5603 28.7009 36.7839 28.6307 37.0171 28.6081ZM48.4343 38.1725C47.87 38.0067 47.2887 37.8808 46.6936 37.7979C47.3235 37.0773 47.8378 36.6821 48.5007 36.1727C48.7541 35.978 49.0293 35.7667 49.3408 35.5141C49.5596 35.3367 49.5601 35.0251 49.3419 34.8182C49.1237 34.6113 48.7694 34.5874 48.5506 34.7648C48.2763 34.9872 48.021 35.1832 47.7766 35.3709C47.0929 35.8959 46.4939 36.3559 45.8005 37.1456C45.7005 36.7798 45.612 36.2936 45.6491 35.791C45.6968 35.145 45.9482 34.4957 46.6298 34.0149C47.2975 33.5423 48.3206 33.2676 49.4059 33.1233C50.4773 32.9808 51.5406 32.9732 52.2305 32.9904C52.2454 32.9908 52.2603 32.9906 52.2752 32.9899C52.2916 32.9892 52.3083 32.9919 52.3238 32.9978C52.3394 33.0038 52.3534 33.0128 52.3648 33.0242C52.3761 33.0356 52.3843 33.049 52.3889 33.0633C52.3935 33.0776 52.3942 33.0924 52.391 33.1064L52.3875 33.1235C52.2795 33.7141 52.0718 34.6103 51.7055 35.4849C51.3347 36.3703 50.8249 37.1756 50.1507 37.645L50.1422 37.6511C49.6229 38.0291 49.0284 38.1683 48.4343 38.1725ZM44.8295 37.6821C44.6331 37.6848 44.4378 37.6922 44.2438 37.7041C44.2834 37.6601 44.3204 37.6142 44.3544 37.5665L44.3615 37.556C44.4491 37.4272 44.5512 37.268 44.6568 37.0834C44.7093 37.3101 44.7692 37.5062 44.8213 37.6594L44.8248 37.6694L44.8295 37.6821ZM37.1684 29.7711C37.1883 29.7692 37.2085 29.7714 37.2272 29.7775C37.2442 29.783 37.2614 29.788 37.2788 29.7923C38.0823 29.9924 39.3101 30.3401 40.5041 30.8466C41.7136 31.3596 42.809 32.0028 43.4307 32.7624C44.0659 33.5359 44.1505 34.3681 43.9997 35.1306C43.8823 35.7239 43.625 36.2581 43.3926 36.6494C42.8422 35.5147 42.2959 34.7917 41.6723 33.9663C41.4494 33.6712 41.2166 33.363 40.9702 33.0184C40.7736 32.7434 40.3561 32.6581 40.0377 32.8278C39.7193 32.9976 39.6205 33.3582 39.8171 33.6332C40.097 34.0247 40.3478 34.3569 40.5789 34.6629C41.1978 35.4826 41.6747 36.1142 42.187 37.1937C41.7232 37.2224 41.1655 37.2183 40.5977 37.1254C39.7027 36.9789 38.8225 36.6205 38.2086 35.8499L38.2007 35.8402C37.5705 35.0822 37.2375 33.988 37.0908 32.8455C36.9459 31.7169 36.9913 30.6139 37.0546 29.8962L37.0561 29.8754C37.0569 29.8581 37.0624 29.8412 37.0723 29.8261C37.0821 29.811 37.0959 29.7982 37.1127 29.7886C37.1294 29.779 37.1485 29.7731 37.1684 29.7711Z" fill="#20604F"/>
<path d="M69 79.0001C69 87.3948 57.7086 90.2001 45.3375 90.2001C32.9663 90.2001 21 87.3948 21 79.0001C21 70.6054 32.6288 63.8001 45 63.8001C57.3712 63.8001 69 70.6054 69 79.0001Z" fill="#20604F"/>
</g>
<defs>
<clipPath id="clip0_800_4066">
<rect width="90" height="90" rx="45" fill="white"/>
</clipPath>
</defs>
</svg>
