<svg width="40" height="40" viewBox="0 0 40 40" fill="none" xmlns="http://www.w3.org/2000/svg">
<path fill-rule="evenodd" clip-rule="evenodd" d="M15.0107 1.005C15.15 0.991485 15.2909 1.00546 15.4229 1.04578C15.9503 1.1776 16.7624 1.40774 17.5635 1.74752C18.3619 2.08618 19.1993 2.55433 19.7107 3.17903C19.9846 3.51265 20.1389 3.85788 20.2109 4.19522C20.3085 4.08804 20.4231 3.98604 20.5571 3.89148C21.1062 3.50283 21.8826 3.31215 22.5991 3.21685C23.3178 3.12125 24.0213 3.11618 24.4741 3.12704C24.5891 3.12387 24.7054 3.14385 24.8143 3.18555C24.9283 3.22918 25.0309 3.29534 25.1136 3.37858C25.1964 3.46182 25.257 3.55977 25.2904 3.66436C25.3231 3.76688 25.3289 3.87292 25.3071 3.97407C25.2357 4.36368 25.0974 4.96185 24.8494 5.55416C24.6036 6.14112 24.2352 6.75864 23.6801 7.14631C23.5375 7.24983 23.3888 7.33233 23.2371 7.39701C25.8177 8.61293 27.6039 11.2376 27.6039 14.2795C27.6039 18.479 24.1995 21.8834 19.9999 21.8834C15.8004 21.8834 12.396 18.479 12.396 14.2795C12.396 10.9556 14.5287 8.12982 17.5004 7.09592C17.3668 7.08553 17.2297 7.06967 17.0909 7.04697C16.3817 6.93093 15.6048 6.63067 15.06 5.94871C14.5414 5.32323 14.3122 4.4914 14.2149 3.73399C14.1168 2.96968 14.1476 2.2336 14.1891 1.76007C14.1963 1.63613 14.2367 1.51529 14.3073 1.40713C14.3793 1.29679 14.4806 1.20279 14.6029 1.13288C14.7252 1.06297 14.8649 1.01914 15.0107 1.005ZM22.1465 6.98272C21.7938 6.87914 21.4305 6.80043 21.0585 6.74863C21.4522 6.29823 21.7736 6.05124 22.188 5.7329C22.3463 5.61122 22.5183 5.4791 22.713 5.32122C22.8498 5.21035 22.8501 5.01564 22.7137 4.88633C22.5773 4.75702 22.3559 4.74208 22.2191 4.85296C22.0477 4.99194 21.8882 5.11444 21.7354 5.23175C21.3081 5.55988 20.9337 5.84737 20.5003 6.34093C20.4378 6.1123 20.3825 5.80845 20.4057 5.49429C20.4355 5.09057 20.5926 4.68473 21.0186 4.38425C21.4359 4.08885 22.0754 3.91721 22.7537 3.82698C23.4233 3.73791 24.0879 3.73322 24.519 3.74393C24.5284 3.74416 24.5377 3.74407 24.547 3.74364C24.5572 3.74316 24.5677 3.74486 24.5774 3.74858C24.5871 3.75231 24.5959 3.75796 24.603 3.76507C24.61 3.77219 24.6152 3.78055 24.6181 3.78949C24.6209 3.79842 24.6214 3.80767 24.6194 3.81647L24.6172 3.82715C24.5497 4.19626 24.4199 4.75639 24.1909 5.30301C23.9592 5.85638 23.6406 6.35968 23.2192 6.65309L23.2139 6.65685C22.8893 6.89314 22.5177 6.98015 22.1465 6.98272ZM19.8934 6.67626C19.7707 6.67795 19.6486 6.68254 19.5274 6.68998C19.5521 6.6625 19.5752 6.63381 19.5965 6.60401L19.601 6.59743C19.6557 6.51696 19.7195 6.41745 19.7855 6.30205C19.8183 6.44372 19.8557 6.56633 19.8883 6.66204L19.8905 6.66832L19.8934 6.67626ZM15.1052 1.73189C15.1177 1.73068 15.1303 1.73205 15.142 1.73587C15.1526 1.73932 15.1634 1.74241 15.1743 1.74512C15.6765 1.87019 16.4438 2.08751 17.1901 2.40407C17.946 2.72471 18.6307 3.12667 19.0192 3.60145C19.4162 4.08489 19.469 4.60499 19.3748 5.08155C19.3015 5.45239 19.1406 5.78626 18.9954 6.03083C18.6514 5.32166 18.3099 4.86973 17.9202 4.35388C17.7809 4.16947 17.6354 3.97684 17.4814 3.76142C17.3585 3.58955 17.0976 3.53623 16.8986 3.64234C16.6996 3.74844 16.6378 3.97379 16.7607 4.14566C16.9356 4.39037 17.0924 4.59801 17.2368 4.78927C17.6236 5.30154 17.9217 5.69633 18.2418 6.37101C17.952 6.38894 17.6034 6.38635 17.2486 6.32829C16.6892 6.23677 16.139 6.01276 15.7554 5.53111L15.7505 5.52508C15.3565 5.05129 15.1484 4.36744 15.0567 3.65338C14.9662 2.94801 14.9946 2.25863 15.0342 1.81009L15.035 1.79703C15.0355 1.78622 15.039 1.77567 15.0452 1.76624C15.0513 1.75682 15.06 1.74879 15.0704 1.74282C15.0809 1.73684 15.0928 1.7331 15.1052 1.73189Z" fill="#20604F"/>
<path d="M35 32.5C35 37.7467 27.9429 39.5 20.2109 39.5C12.4789 39.5 5 37.7467 5 32.5C5 27.2533 12.268 23 20 23C27.732 23 35 27.2533 35 32.5Z" fill="#20604F"/>
</svg>
