<svg width="16" height="16" viewBox="0 0 16 16" fill="none" xmlns="http://www.w3.org/2000/svg">
<path d="M8 15C11.866 15 15 11.866 15 8C15 4.13401 11.866 1 8 1C4.13401 1 1 4.13401 1 8C1 11.866 4.13401 15 8 15Z" fill="#FFFDF6"/>
<path fill-rule="evenodd" clip-rule="evenodd" d="M8 1.5C4.41015 1.5 1.5 4.41015 1.5 8C1.5 11.5899 4.41015 14.5 8 14.5C11.5899 14.5 14.5 11.5899 14.5 8C14.5 4.41015 11.5899 1.5 8 1.5ZM0.5 8C0.5 3.85786 3.85786 0.5 8 0.5C12.1421 0.5 15.5 3.85786 15.5 8C15.5 12.1421 12.1421 15.5 8 15.5C3.85786 15.5 0.5 12.1421 0.5 8Z" fill="#20604F"/>
<path d="M10.6641 6.09792C10.8744 5.88764 10.8744 5.5467 10.6641 5.33642C10.4538 5.12614 10.1129 5.12614 9.90258 5.33642L8.00025 7.23875L6.09792 5.33642C5.88764 5.12614 5.5467 5.12614 5.33642 5.33642C5.12614 5.5467 5.12614 5.88764 5.33642 6.09792L7.23875 8.00025L5.33642 9.90258C5.12614 10.1129 5.12614 10.4538 5.33642 10.6641C5.5467 10.8744 5.88764 10.8744 6.09792 10.6641L8.00025 8.76175L9.90258 10.6641C10.1129 10.8744 10.4538 10.8744 10.6641 10.6641C10.8744 10.4538 10.8744 10.1129 10.6641 9.90258L8.76175 8.00025L10.6641 6.09792Z" fill="#20604F"/>
</svg>
