<svg width="500" height="500" viewBox="0 0 500 500" fill="none" xmlns="http://www.w3.org/2000/svg">
<rect width="500" height="500" fill="#D5E1DE"/>
<path d="M210 217.821C210 213.425 213.414 210 217.796 210H265.591C266.65 210 267.508 210.861 267.508 211.923C267.508 212.985 266.65 213.846 265.591 213.846H217.796C215.532 213.846 213.834 215.549 213.834 217.821V282.179C213.834 284.451 215.532 286.154 217.796 286.154H281.949C284.213 286.154 285.911 284.451 285.911 282.179V232.692C285.911 231.63 286.769 230.769 287.827 230.769C288.886 230.769 289.744 231.63 289.744 232.692V282.179C289.744 286.575 286.33 290 281.949 290H217.796C213.414 290 210 286.575 210 282.179V217.821Z" fill="white"/>
<path d="M279.137 210C280.196 210 281.054 210.861 281.054 211.923V218.974H288.083C289.142 218.974 290 219.835 290 220.897C290 221.96 289.142 222.821 288.083 222.821H281.054V229.615C281.054 230.677 280.196 231.538 279.137 231.538C278.079 231.538 277.22 230.677 277.22 229.615V222.821H270.192C269.133 222.821 268.275 221.96 268.275 220.897C268.275 219.835 269.133 218.974 270.192 218.974H277.22V211.923C277.22 210.861 278.079 210 279.137 210Z" fill="white"/>
<path fill-rule="evenodd" clip-rule="evenodd" d="M241.202 259.315C241.566 258.9 242.091 258.661 242.642 258.661H248.827C248.544 255.148 247.472 252.19 245.754 249.629C245.381 249.072 244.974 248.531 244.535 248.003C242.801 249.38 240.651 250.17 238.41 250.252C235.84 250.346 233.317 249.501 231.347 247.869C231.309 247.839 231.273 247.806 231.239 247.773C230.057 246.633 229.343 244.96 228.879 243.382C228.398 241.751 228.108 239.95 227.93 238.313C227.751 236.666 227.679 235.131 227.652 234.01C227.638 233.449 227.635 232.987 227.636 232.664C227.636 232.503 227.638 232.375 227.639 232.287L227.64 232.184L227.641 232.155L227.641 232.144L229.558 232.188L229.506 230.266L229.518 230.266L229.547 230.265L229.654 230.263C229.745 230.261 229.877 230.259 230.045 230.258C230.381 230.255 230.861 230.255 231.445 230.265C232.612 230.285 234.209 230.345 235.92 230.506C237.622 230.667 239.487 230.934 241.171 231.381C242.795 231.812 244.52 232.478 245.698 233.604C245.735 233.639 245.771 233.677 245.806 233.715C247.506 235.625 248.407 238.098 248.307 240.641C248.246 242.201 247.811 243.707 247.058 245.048C247.738 245.822 248.365 246.633 248.935 247.482C249.959 249.008 250.786 250.642 251.404 252.394C252.298 250.852 253.405 249.44 254.691 248.195C254.544 247.856 254.421 247.507 254.321 247.149C254.02 246.063 253.951 244.927 254.118 243.813C254.285 242.699 254.685 241.632 255.289 240.679C255.885 239.739 256.668 238.928 257.586 238.293C258.681 237.476 260.144 237.104 261.444 236.91C262.823 236.705 264.319 236.662 265.665 236.687C267.021 236.711 268.277 236.806 269.191 236.894C269.649 236.938 270.025 236.981 270.288 237.013C270.42 237.029 270.524 237.042 270.596 237.052L270.68 237.063L270.704 237.066L270.714 237.068L270.447 238.972L272.356 239.154L272.355 239.165L272.352 239.188L272.344 239.271C272.336 239.341 272.325 239.442 272.311 239.57C272.281 239.826 272.236 240.189 272.172 240.631C272.046 241.51 271.846 242.714 271.55 243.996C271.257 245.269 270.857 246.673 270.318 247.931C269.806 249.123 269.071 250.425 267.978 251.268C267.119 251.98 266.126 252.516 265.057 252.848C263.973 253.184 262.832 253.303 261.701 253.201C260.57 253.098 259.47 252.774 258.467 252.247C257.953 251.977 257.47 251.656 257.025 251.289C256.015 252.326 255.158 253.493 254.478 254.758C253.814 255.994 253.329 257.308 253.033 258.661H258.998C259.55 258.661 260.074 258.9 260.438 259.315C260.802 259.731 260.97 260.284 260.899 260.832L259.264 273.453C259.139 274.411 258.326 275.128 257.363 275.128H244.278C243.315 275.128 242.501 274.411 242.377 273.453L240.741 260.832C240.67 260.284 240.838 259.731 241.202 259.315ZM244.15 242.204C244.342 241.653 244.453 241.076 244.476 240.489C244.535 238.99 244.017 237.512 243.003 236.342C242.528 235.919 241.599 235.473 240.19 235.099C238.789 234.727 237.154 234.486 235.56 234.336C234.027 234.191 232.579 234.133 231.489 234.113C231.519 235.139 231.587 236.479 231.741 237.895C231.907 239.413 232.165 240.965 232.555 242.292C232.948 243.625 233.409 244.502 233.85 244.954C235.074 245.943 236.649 246.468 238.271 246.409C239.556 246.362 240.781 245.951 241.801 245.249C240.342 243.997 238.664 242.834 236.778 241.742C235.861 241.211 235.546 240.035 236.075 239.115C236.604 238.195 237.776 237.88 238.693 238.41C240.683 239.562 242.513 240.818 244.15 242.204ZM244.825 262.508H256.816L255.679 271.282H245.962L244.825 262.508ZM258.868 247.216C259.088 247.495 259.218 247.817 259.262 248.146C259.555 248.416 259.885 248.65 260.247 248.84C260.8 249.131 261.413 249.312 262.047 249.37C262.681 249.428 263.321 249.36 263.925 249.173C264.529 248.986 265.082 248.683 265.553 248.288C265.579 248.266 265.605 248.245 265.632 248.225C265.938 247.995 266.36 247.429 266.796 246.412C267.21 245.445 267.548 244.286 267.815 243.129C268.019 242.243 268.175 241.389 268.288 240.674C267.518 240.609 266.581 240.55 265.596 240.532C264.358 240.509 263.094 240.553 262.007 240.715C260.858 240.886 260.171 241.152 259.864 241.386C259.838 241.407 259.811 241.426 259.784 241.444C259.272 241.794 258.845 242.237 258.524 242.743C258.204 243.248 257.996 243.807 257.909 244.385C257.822 244.963 257.858 245.553 258.015 246.118C258.068 246.311 258.135 246.499 258.216 246.683C258.462 246.806 258.687 246.984 258.868 247.216Z" fill="white"/>
<path d="M272.356 239.154C272.356 239.154 272.356 239.154 270.447 238.972C270.715 237.068 270.714 237.068 270.714 237.068C271.729 237.211 272.452 238.131 272.356 239.154Z" fill="white"/>
<path d="M229.506 230.266C229.506 230.266 229.506 230.266 229.558 232.188C227.641 232.143 227.641 232.144 227.641 232.144C227.666 231.121 228.486 230.294 229.506 230.266Z" fill="white"/>
</svg>
