<svg width="18" height="18" viewBox="0 0 18 18" fill="none" xmlns="http://www.w3.org/2000/svg">
<path d="M1.05859 2.6112C1.05859 1.73858 1.7364 1.05859 2.60624 1.05859H12.0951C12.3052 1.05859 12.4756 1.22953 12.4756 1.44038C12.4756 1.65124 12.3052 1.82217 12.0951 1.82217H2.60624C2.15677 1.82217 1.81973 2.16029 1.81973 2.6112V15.3883C1.81973 15.8393 2.15677 16.1774 2.60624 16.1774H15.3426C15.792 16.1774 16.1291 15.8393 16.1291 15.3883V5.56368C16.1291 5.35283 16.2995 5.1819 16.5096 5.1819C16.7198 5.1819 16.8902 5.35283 16.8902 5.56368V15.3883C16.8902 16.261 16.2124 16.9409 15.3426 16.9409H2.60624C1.7364 16.9409 1.05859 16.261 1.05859 15.3883V2.6112Z" fill="white"/>
<path d="M14.7844 1.05859C14.9946 1.05859 15.165 1.22953 15.165 1.44038V2.84027H16.5604C16.7706 2.84027 16.9409 3.0112 16.9409 3.22206C16.9409 3.43291 16.7706 3.60384 16.5604 3.60384H15.165V4.95282C15.165 5.16368 14.9946 5.33461 14.7844 5.33461C14.5742 5.33461 14.4038 5.16368 14.4038 4.95282V3.60384H13.0084C12.7982 3.60384 12.6278 3.43291 12.6278 3.22206C12.6278 3.0112 12.7982 2.84027 13.0084 2.84027H14.4038V1.44038C14.4038 1.22953 14.5742 1.05859 14.7844 1.05859Z" fill="white"/>
<path fill-rule="evenodd" clip-rule="evenodd" d="M7.25314 10.8492C7.32539 10.7666 7.42958 10.7193 7.53906 10.7193H8.76698C8.71064 10.0218 8.49796 9.4346 8.15688 8.92618C8.08269 8.81558 8.00196 8.70804 7.9148 8.60339C7.57064 8.87665 7.14366 9.0336 6.69889 9.04986C6.18858 9.06852 5.68764 8.90079 5.29652 8.57677C5.28913 8.57066 5.28198 8.56426 5.27508 8.5576C5.0405 8.33135 4.89879 7.99919 4.80653 7.68585C4.7112 7.36208 4.65364 7.0046 4.61825 6.67957C4.58267 6.35267 4.5684 6.04782 4.56295 5.82537C4.56022 5.71384 4.55968 5.62228 4.55984 5.55812C4.55992 5.52602 4.56017 5.50073 4.56041 5.48317L4.56074 5.46274L4.56086 5.45708L4.5609 5.4549L4.94137 5.46364L4.93114 5.08199L4.93351 5.08193L4.9393 5.08179L4.9604 5.08137C4.97857 5.08104 5.00482 5.08065 5.03817 5.08039C5.10484 5.07986 5.20009 5.07985 5.31615 5.08181C5.54769 5.08574 5.8648 5.09762 6.20449 5.12974C6.54237 5.16168 6.91266 5.21454 7.24701 5.30333C7.56937 5.38895 7.91173 5.52124 8.14564 5.74459C8.15308 5.75169 8.16023 5.75909 8.16707 5.76678C8.50467 6.1459 8.6835 6.63689 8.66367 7.1417C8.65149 7.45146 8.56516 7.75035 8.41575 8.01657C8.55075 8.17035 8.67522 8.33124 8.78833 8.49985C8.99156 8.80279 9.15581 9.12723 9.27855 9.47506C9.45599 9.16892 9.67569 8.88857 9.93098 8.64149C9.90189 8.57417 9.87737 8.5048 9.85768 8.43382C9.79786 8.21815 9.78406 7.99272 9.81726 7.77146C9.85046 7.55022 9.92983 7.33854 10.0498 7.14924C10.1682 6.96257 10.3235 6.80173 10.5058 6.67558C10.7232 6.51344 11.0137 6.43944 11.2718 6.40104C11.5454 6.36034 11.8425 6.35176 12.1098 6.35665C12.379 6.36158 12.6283 6.38042 12.8097 6.39788C12.9007 6.40663 12.9753 6.41511 13.0276 6.42146C13.0538 6.42463 13.0744 6.42728 13.0887 6.42917L13.1055 6.43142L13.1101 6.43206L13.1121 6.43234L13.0592 6.81041L13.438 6.84661L13.4378 6.84864L13.4374 6.85327L13.4357 6.86967C13.4342 6.88369 13.432 6.90376 13.4291 6.92914C13.4232 6.97988 13.4142 7.05204 13.4016 7.13965C13.3766 7.31427 13.3368 7.55323 13.2781 7.80785C13.2198 8.06062 13.1405 8.33932 13.0334 8.5891C12.9319 8.82575 12.7859 9.08406 12.5688 9.25146C12.3985 9.39288 12.2012 9.49929 11.989 9.5651C11.7739 9.63183 11.5473 9.6556 11.3228 9.63518C11.0982 9.61476 10.8798 9.55051 10.6806 9.44579C10.5787 9.39219 10.4828 9.32849 10.3945 9.25577C10.1939 9.46164 10.0237 9.6933 9.88887 9.94428C9.75697 10.1898 9.66068 10.4506 9.60196 10.7193H10.7862C10.8957 10.7193 10.9998 10.7666 11.0721 10.8492C11.1444 10.9317 11.1777 11.0414 11.1636 11.1503L10.8389 13.6559C10.8142 13.8461 10.6527 13.9884 10.4615 13.9884H7.86377C7.67256 13.9884 7.51104 13.8461 7.48638 13.6559L7.16167 11.1503C7.14755 11.0414 7.18088 10.9317 7.25314 10.8492ZM7.83828 7.45203C7.87653 7.34264 7.89855 7.22805 7.90312 7.11162C7.91482 6.81396 7.81188 6.52056 7.61068 6.28828C7.51641 6.20432 7.33189 6.11576 7.05222 6.04148C6.77408 5.96761 6.44949 5.91986 6.13308 5.88994C5.82871 5.86117 5.54121 5.84974 5.32489 5.84567C5.33066 6.04944 5.34428 6.31552 5.37489 6.59667C5.4077 6.89802 5.45891 7.20609 5.53649 7.46954C5.61441 7.73418 5.70604 7.90816 5.79344 7.99804C6.03654 8.19435 6.34924 8.29856 6.67117 8.28679C6.92625 8.27747 7.16949 8.19599 7.3721 8.05664C7.08231 7.80808 6.74932 7.57707 6.37476 7.36031C6.1927 7.25495 6.13025 7.02147 6.23528 6.83883C6.3403 6.65618 6.57303 6.59353 6.75509 6.69889C7.15014 6.92751 7.51347 7.1769 7.83828 7.45203ZM7.97231 11.4829H10.3529L10.1272 13.2249H8.19807L7.97231 11.4829ZM10.7604 8.447C10.804 8.50254 10.8298 8.56644 10.8386 8.63177C10.8966 8.68535 10.9623 8.73176 11.034 8.76949C11.1439 8.82729 11.2656 8.86327 11.3915 8.87473C11.5174 8.88618 11.6443 8.87279 11.7642 8.83559C11.8842 8.7984 11.9941 8.73836 12.0876 8.65987C12.0927 8.65559 12.0979 8.65145 12.1032 8.64744C12.1639 8.60164 12.2476 8.48928 12.3342 8.28738C12.4165 8.09555 12.4836 7.86531 12.5366 7.63576C12.5772 7.45977 12.608 7.29033 12.6305 7.14835C12.4776 7.13546 12.2916 7.12369 12.0959 7.1201C11.8502 7.1156 11.5993 7.12425 11.3835 7.15636C11.1554 7.19029 11.019 7.24328 10.958 7.28973C10.9528 7.29371 10.9475 7.29755 10.9421 7.30125C10.8405 7.37071 10.7557 7.45864 10.6921 7.55903C10.6285 7.65938 10.5871 7.77034 10.5699 7.88511C10.5527 7.99986 10.5598 8.11682 10.591 8.22913C10.6016 8.26733 10.6149 8.30479 10.6308 8.34127C10.6798 8.36564 10.7243 8.40104 10.7604 8.447Z" fill="white"/>
<path d="M13.438 6.84661C13.438 6.84661 13.438 6.84648 13.0592 6.81041C13.1122 6.43236 13.1121 6.43234 13.1121 6.43234C13.3136 6.46082 13.4572 6.6434 13.438 6.84661Z" fill="white"/>
<path d="M4.93114 5.08199C4.93114 5.08199 4.93101 5.082 4.94137 5.46364C4.56091 5.45457 4.5609 5.4549 4.5609 5.4549C4.56572 5.25166 4.72857 5.08753 4.93114 5.08199Z" fill="white"/>
</svg>
