<svg width="124" height="124" viewBox="0 0 124 124" fill="none" xmlns="http://www.w3.org/2000/svg">
<g filter="url(#filter0_d_1027_4128)">
<rect width="120" height="120" transform="translate(2 2)" fill="#D5E1DE"/>
<path d="M47.8823 50.6425C47.8823 49.0912 49.0873 47.8823 50.6337 47.8823H67.5027C67.8764 47.8823 68.1793 48.1862 68.1793 48.5611C68.1793 48.9359 67.8764 49.2398 67.5027 49.2398H50.6337C49.8346 49.2398 49.2355 49.8409 49.2355 50.6425V73.3574C49.2355 74.1591 49.8346 74.7602 50.6337 74.7602H73.276C74.0751 74.7602 74.6743 74.1591 74.6743 73.3574V55.8914C74.6743 55.5165 74.9772 55.2126 75.3508 55.2126C75.7245 55.2126 76.0274 55.5165 76.0274 55.8914V73.3574C76.0274 74.9088 74.8224 76.1176 73.276 76.1176H50.6337C49.0873 76.1176 47.8823 74.9088 47.8823 73.3574V50.6425Z" fill="white"/>
<path d="M72.2838 47.8823C72.6574 47.8823 72.9603 48.1862 72.9603 48.5611V51.0497H75.4411C75.8147 51.0497 76.1176 51.3536 76.1176 51.7285C76.1176 52.1033 75.8147 52.4072 75.4411 52.4072H72.9603V54.8054C72.9603 55.1803 72.6574 55.4841 72.2838 55.4841C71.9101 55.4841 71.6072 55.1803 71.6072 54.8054V52.4072H69.1265C68.7528 52.4072 68.4499 52.1033 68.4499 51.7285C68.4499 51.3536 68.7528 51.0497 69.1265 51.0497H71.6072V48.5611C71.6072 48.1862 71.9101 47.8823 72.2838 47.8823Z" fill="white"/>
<path fill-rule="evenodd" clip-rule="evenodd" d="M58.8948 65.2878C59.0233 65.1411 59.2085 65.057 59.4032 65.057H61.5861C61.486 63.8169 61.1079 62.773 60.5015 61.8691C60.3696 61.6725 60.2261 61.4813 60.0711 61.2953C59.4593 61.7811 58.7002 62.0601 57.9095 62.089C57.0023 62.1222 56.1117 61.824 55.4164 61.248C55.4033 61.2371 55.3906 61.2257 55.3783 61.2139C54.9613 60.8117 54.7093 60.2212 54.5453 59.6641C54.3758 59.0885 54.2735 58.453 54.2106 57.8752C54.1473 57.294 54.122 56.7521 54.1123 56.3566C54.1074 56.1583 54.1065 55.9955 54.1068 55.8815C54.1069 55.8244 54.1074 55.7795 54.1078 55.7482L54.1084 55.7119L54.1086 55.7019L54.1087 55.698L54.785 55.7135L54.7669 55.035L54.7711 55.0349L54.7814 55.0347L54.8189 55.0339C54.8512 55.0333 54.8978 55.0326 54.9571 55.0322C55.0757 55.0313 55.245 55.0312 55.4513 55.0347C55.8629 55.0417 56.4267 55.0628 57.0306 55.1199C57.6313 55.1767 58.2895 55.2707 58.8839 55.4285C59.457 55.5807 60.0657 55.8159 60.4815 56.213C60.4947 56.2256 60.5075 56.2388 60.5196 56.2524C61.1198 56.9264 61.4377 57.7993 61.4025 58.6967C61.3808 59.2474 61.2273 59.7788 60.9617 60.2521C61.2017 60.5255 61.423 60.8115 61.6241 61.1112C61.9854 61.6498 62.2774 62.2266 62.4956 62.8449C62.811 62.3007 63.2016 61.8023 63.6554 61.363C63.6037 61.2433 63.5602 61.12 63.5252 60.9938C63.4188 60.6104 63.3943 60.2097 63.4533 59.8163C63.5123 59.423 63.6534 59.0467 63.8668 58.7101C64.0772 58.3783 64.3532 58.0923 64.6773 57.8681C65.0639 57.5798 65.5803 57.4483 66.0392 57.38C66.5256 57.3077 67.0537 57.2924 67.529 57.3011C68.0075 57.3099 68.4507 57.3433 68.7733 57.3744C68.935 57.3899 69.0676 57.405 69.1606 57.4163C69.2071 57.422 69.2437 57.4267 69.2692 57.43L69.299 57.434L69.3073 57.4352L69.3108 57.4357L69.2167 58.1078L69.8902 58.1721L69.8898 58.1757L69.889 58.184L69.886 58.2131C69.8834 58.238 69.8796 58.2737 69.8743 58.3189C69.8639 58.4091 69.8479 58.5373 69.8255 58.6931C69.781 59.0035 69.7103 59.4284 69.6059 59.881C69.5023 60.3304 69.3613 60.8258 69.1709 61.2699C68.9905 61.6906 68.7309 62.1498 68.345 62.4474C68.0421 62.6988 67.6915 62.888 67.3142 63.005C66.9317 63.1236 66.5289 63.1659 66.1297 63.1296C65.7306 63.0933 65.3422 62.9791 64.9882 62.7929C64.807 62.6976 64.6365 62.5844 64.4794 62.4551C64.1229 62.8211 63.8203 63.2329 63.5806 63.6791C63.3461 64.1156 63.1749 64.5792 63.0705 65.057H65.1758C65.3704 65.057 65.5557 65.1411 65.6841 65.2878C65.8126 65.4345 65.8718 65.6296 65.8467 65.8232L65.2695 70.2775C65.2256 70.6157 64.9385 70.8687 64.5985 70.8687H59.9804C59.6405 70.8687 59.3533 70.6157 59.3095 70.2775L58.7322 65.8232C58.7071 65.6296 58.7664 65.4345 58.8948 65.2878ZM59.9351 59.2484C60.0031 59.054 60.0422 58.8503 60.0504 58.6433C60.0712 58.1141 59.8882 57.5925 59.5305 57.1795C59.3629 57.0303 59.0349 56.8728 58.5377 56.7408C58.0432 56.6095 57.4661 56.5246 56.9036 56.4714C56.3625 56.4202 55.8514 56.3999 55.4668 56.3927C55.4771 56.7549 55.5013 57.228 55.5557 57.7278C55.6141 58.2635 55.7051 58.8112 55.843 59.2796C55.9816 59.75 56.1444 60.0593 56.2998 60.2191C56.732 60.5681 57.2879 60.7534 57.8602 60.7325C58.3137 60.7159 58.7461 60.571 59.1063 60.3233C58.5912 59.8814 57.9992 59.4707 57.3333 59.0854C57.0096 58.8981 56.8986 58.483 57.0853 58.1583C57.272 57.8336 57.6858 57.7222 58.0094 57.9095C58.7117 58.316 59.3577 58.7593 59.9351 59.2484ZM60.1734 66.4144H64.4056L64.0042 69.5113H60.5747L60.1734 66.4144ZM65.13 61.0173C65.2075 61.116 65.2534 61.2296 65.269 61.3458C65.3722 61.441 65.4888 61.5235 65.6164 61.5906C65.8118 61.6933 66.028 61.7573 66.2519 61.7777C66.4758 61.798 66.7013 61.7742 66.9146 61.7081C67.1278 61.642 67.3232 61.5352 67.4894 61.3957C67.4984 61.3881 67.5077 61.3807 67.5171 61.3736C67.6252 61.2922 67.774 61.0924 67.9279 60.7335C68.0741 60.3925 68.1935 59.9831 68.2876 59.5751C68.3598 59.2622 68.4146 58.961 68.4546 58.7086C68.1828 58.6856 67.8522 58.6647 67.5043 58.6583C67.0675 58.6503 66.6214 58.6657 66.2376 58.7228C65.8321 58.7831 65.5896 58.8773 65.4814 58.9599C65.4721 58.967 65.4626 58.9738 65.453 58.9804C65.2725 59.1039 65.1217 59.2602 65.0085 59.4387C64.8954 59.6171 64.822 59.8143 64.7913 60.0184C64.7607 60.2224 64.7734 60.4303 64.8288 60.6299C64.8476 60.6979 64.8713 60.7645 64.8996 60.8293C64.9867 60.8726 65.0658 60.9356 65.13 61.0173Z" fill="white"/>
<path d="M69.8902 58.1721C69.8902 58.1721 69.8902 58.1719 69.2167 58.1078C69.311 57.4357 69.3108 57.4357 69.3108 57.4357C69.669 57.4863 69.9244 57.8109 69.8902 58.1721Z" fill="white"/>
<path d="M54.7669 55.035C54.7669 55.035 54.7666 55.035 54.785 55.7135C54.1087 55.6974 54.1087 55.698 54.1087 55.698C54.1172 55.3367 54.4067 55.0449 54.7669 55.035Z" fill="white"/>
</g>
<defs>
<filter id="filter0_d_1027_4128" x="0" y="0" width="124" height="124" filterUnits="userSpaceOnUse" color-interpolation-filters="sRGB">
<feFlood flood-opacity="0" result="BackgroundImageFix"/>
<feColorMatrix in="SourceAlpha" type="matrix" values="0 0 0 0 0 0 0 0 0 0 0 0 0 0 0 0 0 0 127 0" result="hardAlpha"/>
<feOffset/>
<feGaussianBlur stdDeviation="1"/>
<feComposite in2="hardAlpha" operator="out"/>
<feColorMatrix type="matrix" values="0 0 0 0 0 0 0 0 0 0 0 0 0 0 0 0 0 0 0.2 0"/>
<feBlend mode="normal" in2="BackgroundImageFix" result="effect1_dropShadow_1027_4128"/>
<feBlend mode="normal" in="SourceGraphic" in2="effect1_dropShadow_1027_4128" result="shape"/>
</filter>
</defs>
</svg>
