<svg width="18" height="18" viewBox="0 0 18 18" fill="none" xmlns="http://www.w3.org/2000/svg">
<path fill-rule="evenodd" clip-rule="evenodd" d="M9.52271 1.19393C9.41154 1.07065 9.25139 1 9.0831 1C8.91482 1 8.75467 1.07065 8.6435 1.19393L6.66978 3.38256L5.74357 1.54753C5.66516 1.39219 5.51879 1.27992 5.34558 1.24226C5.17237 1.20461 4.99101 1.24563 4.85244 1.35381C4.23768 1.83373 3.71137 2.34011 3.31071 2.99174C3.303 3.00428 3.29578 3.0171 3.28908 3.03018C2.89094 3.80721 2.75879 4.58288 2.75879 5.22859C2.75879 6.4906 3.15163 7.68699 4.23242 8.61751C4.37386 8.75439 4.52367 8.88183 4.68086 9H3.34438C3.17161 9 3.00765 9.07445 2.89639 9.20343C2.78512 9.33241 2.73791 9.50275 2.76737 9.66888L3.82143 15.6117C3.83117 15.6667 3.84911 15.7199 3.87467 15.7698L3.88196 15.7841C3.99826 16.0112 4.15108 16.3096 4.45283 16.6041C4.49734 16.6475 4.54873 16.6836 4.60502 16.7111L4.62008 16.7184C4.85818 16.8347 5.19658 17 5.68672 17H9.66871C9.99212 17 10.2543 16.7442 10.2543 16.4286C10.2543 16.113 9.99212 15.8571 9.66871 15.8571H5.68672C5.51318 15.8571 5.39563 15.8157 5.2205 15.7331C5.1141 15.615 5.04379 15.4931 4.96062 15.3333L4.04002 10.1429H7.90709L7.91195 10.1429L8.9965 10.1429C9.48655 10.1429 9.97826 10.2062 10.2834 10.206L10.319 10.206C10.3367 10.206 10.3544 10.2052 10.372 10.2036C10.6376 10.1801 10.9004 10.1429 11.0935 10.1429H14.1393L14.0089 10.9702C13.9597 11.2822 14.1789 11.5739 14.4986 11.6219C14.8182 11.6699 15.1172 11.4559 15.1664 11.144L15.4006 9.65831C15.4266 9.49353 15.3776 9.32589 15.2663 9.19935C15.1551 9.07281 14.9927 9 14.8219 9H13.6315C13.736 8.91499 13.8369 8.82561 13.9338 8.7318C15.0146 7.80128 15.4074 6.60489 15.4074 5.34288C15.4074 4.60927 15.2848 3.8152 14.8672 3.12522C14.4642 2.34719 13.9282 1.83344 13.3138 1.35381C13.1748 1.24527 12.9927 1.20435 12.819 1.24263C12.6453 1.28091 12.4989 1.39422 12.4212 1.55053L11.5052 3.3923L9.52271 1.19393ZM12.1098 4.79418C12.1721 4.72136 12.2132 4.63642 12.2325 4.54759L13.1385 2.72574C13.4168 2.99872 13.6426 3.29052 13.8296 3.65557C13.8363 3.66865 13.8435 3.68147 13.8512 3.69402C14.127 4.14245 14.2363 4.71186 14.2363 5.34288C14.2363 6.3609 13.9299 7.21656 13.148 7.88426C13.1382 7.89261 13.1287 7.90127 13.1195 7.91024C12.575 8.44156 11.8315 8.81182 10.9708 9H10.0182L12.1098 4.79418ZM10.9507 4.50734L9.0831 2.43641L7.22962 4.49171L9.10785 8.21289L10.9507 4.50734ZM5.92465 4.49281C5.93943 4.62071 5.99829 4.74415 6.09967 4.83957L8.19846 8.99772C8.11643 8.9994 8.03227 8.9999 7.94722 9H7.93889C6.76355 8.89099 5.74262 8.47502 5.04674 7.79596C5.03755 7.78699 5.02805 7.77832 5.01827 7.76997C4.23628 7.10227 3.92996 6.24661 3.92996 5.22859C3.92996 4.73693 4.02981 4.14881 4.3266 3.56095C4.5158 3.25736 4.74702 2.98533 5.02914 2.71862L5.92465 4.49281Z" fill="white"/>
<path d="M13.5405 11.9714C13.5405 11.6558 13.2784 11.4 12.9549 11.4C12.6315 11.4 12.3694 11.6558 12.3694 11.9714V13.6857H10.4955C10.1721 13.6857 9.90989 13.9416 9.90989 14.2571C9.90989 14.5727 10.1721 14.8286 10.4955 14.8286H12.3694V16.4286C12.3694 16.7442 12.6315 17 12.9549 17C13.2784 17 13.5405 16.7442 13.5405 16.4286V14.8286H15.4144C15.7378 14.8286 16 14.5727 16 14.2571C16 13.9416 15.7378 13.6857 15.4144 13.6857H13.5405V11.9714Z" fill="white"/>
</svg>
