<svg width="18" height="18" viewBox="0 0 18 18" fill="none" xmlns="http://www.w3.org/2000/svg">
<g clip-path="url(#clip0_1_10037)">
<path fill-rule="evenodd" clip-rule="evenodd" d="M7.50084 3.05265C7.63617 2.98864 7.79306 2.98864 7.9284 3.05265C8.68898 3.41238 9.39494 4.1608 9.90389 4.95789C10.4118 5.75333 10.786 6.69534 10.786 7.50077C10.786 8.97878 9.65501 10.1677 8.2146 10.3942V11.27H9.5514C9.69482 11.27 9.83133 11.3316 9.92624 11.4391C10.0212 11.5466 10.0653 11.6897 10.0475 11.832L9.68019 14.7708C9.64892 15.021 9.43622 15.2088 9.18406 15.2088H6.24528C5.99312 15.2088 5.78042 15.021 5.74914 14.7708L5.38179 11.832C5.36401 11.6897 5.40818 11.5466 5.50309 11.4391C5.59801 11.3316 5.73452 11.27 5.87793 11.27H7.2146V10.3942C5.77421 10.1677 4.64319 8.97877 4.64319 7.50077C4.64319 6.69534 5.01743 5.75333 5.52534 4.95789C6.0343 4.1608 6.74026 3.41238 7.50084 3.05265ZM9.78605 7.50077C9.78605 8.38807 9.13211 9.16617 8.2146 9.37706V8.46387C8.2146 8.18773 7.99074 7.96387 7.7146 7.96387C7.43846 7.96387 7.2146 8.18773 7.2146 8.46387V9.37705C6.29711 9.16615 5.64319 8.38806 5.64319 7.50077C5.64319 6.96281 5.9118 6.2108 6.36818 5.49606C6.76245 4.87858 7.25001 4.36245 7.71462 4.07387C8.17923 4.36245 8.66679 4.87858 9.06106 5.49606C9.51743 6.2108 9.78605 6.96281 9.78605 7.50077ZM6.68667 14.2088L6.44432 12.27H8.98501L8.74266 14.2088H6.68667Z" fill="#20604F"/>
<path fill-rule="evenodd" clip-rule="evenodd" d="M15.9288 13.3575V16.0716C15.9288 17.0579 15.1293 17.8574 14.1431 17.8574H1.92878C0.942558 17.8574 0.143066 17.0579 0.143066 16.0716V1.92878C0.143066 0.942558 0.942559 0.143066 1.92878 0.143066H14.1431C15.1293 0.143066 15.9288 0.942558 15.9288 1.92878V4.64317H17.3573C17.6334 4.64317 17.8573 4.86703 17.8573 5.14317C17.8573 5.41931 17.6334 5.64317 17.3573 5.64317H15.9288V8.50035H17.3573C17.6334 8.50035 17.8573 8.72421 17.8573 9.00035C17.8573 9.27649 17.6334 9.50035 17.3573 9.50035H15.9288V12.3575H17.3573C17.6334 12.3575 17.8573 12.5814 17.8573 12.8575C17.8573 13.1337 17.6334 13.3575 17.3573 13.3575H15.9288ZM14.1431 1.14307C14.577 1.14307 14.9288 1.49484 14.9288 1.92878V4.64317H13.5002C13.224 4.64317 13.0002 4.86703 13.0002 5.14317C13.0002 5.41931 13.224 5.64317 13.5002 5.64317H14.9288V8.50035H13.5002C13.224 8.50035 13.0002 8.72421 13.0002 9.00035C13.0002 9.27649 13.224 9.50035 13.5002 9.50035H14.9288V12.3575H13.5002C13.224 12.3575 13.0002 12.5814 13.0002 12.8575C13.0002 13.1337 13.224 13.3575 13.5002 13.3575H14.9288V16.0716C14.9288 16.5056 14.577 16.8574 14.1431 16.8574H1.92878C1.49484 16.8574 1.14307 16.5056 1.14307 16.0716L1.14307 1.92878C1.14307 1.49484 1.49484 1.14307 1.92878 1.14307L14.1431 1.14307Z" fill="#20604F"/>
</g>
<defs>
<clipPath id="clip0_1_10037">
<rect width="18" height="18" fill="white"/>
</clipPath>
</defs>
</svg>
