<svg width="18" height="18" viewBox="0 0 18 18" fill="none" xmlns="http://www.w3.org/2000/svg">
<g clip-path="url(#clip0_1_10032)">
<g clip-path="url(#clip1_1_10032)">
<path fill-rule="evenodd" clip-rule="evenodd" d="M14.1426 1.14258C14.5765 1.14258 14.9283 1.49435 14.9283 1.92829V4.64258H13.4997C13.2236 4.64258 12.9997 4.86644 12.9997 5.14258C12.9997 5.41872 13.2236 5.64258 13.4997 5.64258H14.9283V8.49976H13.4997C13.2236 8.49976 12.9997 8.72361 12.9997 8.99976C12.9997 9.2759 13.2236 9.49976 13.4997 9.49976H14.9283V12.3569H13.4997C13.2236 12.3569 12.9997 12.5808 12.9997 12.8569C12.9997 13.1331 13.2236 13.3569 13.4997 13.3569H14.9283V16.0711C14.9283 16.5051 14.5765 16.8569 14.1426 16.8569H1.92829C1.49435 16.8569 1.14258 16.5051 1.14258 16.0711L1.14258 1.92829C1.14258 1.49435 1.49436 1.14258 1.92829 1.14258L14.1426 1.14258ZM15.9283 13.3569V16.0711C15.9283 17.0574 15.1288 17.8569 14.1426 17.8569H1.92829C0.94207 17.8569 0.142578 17.0574 0.142578 16.0711V1.92829C0.142578 0.94207 0.942071 0.142578 1.92829 0.142578H14.1426C15.1288 0.142578 15.9283 0.94207 15.9283 1.92829V4.64258H17.3569C17.633 4.64258 17.8569 4.86644 17.8569 5.14258C17.8569 5.41872 17.633 5.64258 17.3569 5.64258H15.9283V8.49976H17.3569C17.633 8.49976 17.8569 8.72361 17.8569 8.99976C17.8569 9.2759 17.633 9.49976 17.3569 9.49976H15.9283V12.3569H17.3569C17.633 12.3569 17.8569 12.5808 17.8569 12.8569C17.8569 13.1331 17.633 13.3569 17.3569 13.3569H15.9283Z" fill="#828282"/>
<path fill-rule="evenodd" clip-rule="evenodd" d="M7.50071 3.0524C7.63605 2.98839 7.79294 2.98839 7.92828 3.0524C8.68886 3.41214 9.39481 4.16056 9.90377 4.95764C10.4117 5.75309 10.7859 6.6951 10.7859 7.50053C10.7859 8.97854 9.65488 10.1674 8.21448 10.394V11.2695H9.55116C9.69457 11.2695 9.83108 11.3311 9.926 11.4386C10.0209 11.5461 10.0651 11.6892 10.0473 11.8315L9.67995 14.7703C9.64867 15.0205 9.43597 15.2083 9.18381 15.2083H6.24504C5.99287 15.2083 5.78017 15.0205 5.7489 14.7703L5.38155 11.8315C5.36376 11.6892 5.40794 11.5461 5.50285 11.4386C5.59776 11.3311 5.73427 11.2695 5.87769 11.2695H7.21448V10.394C5.77409 10.1674 4.64307 8.97852 4.64307 7.50053C4.64307 6.6951 5.01731 5.75309 5.52522 4.95764C6.03418 4.16056 6.74013 3.41214 7.50071 3.0524ZM9.78592 7.50053C9.78592 8.38783 9.13199 9.16592 8.21448 9.37681V8.46338C8.21448 8.18724 7.99062 7.96338 7.71448 7.96338C7.43834 7.96338 7.21448 8.18724 7.21448 8.46338V9.3768C6.29698 9.1659 5.64307 8.38782 5.64307 7.50053C5.64307 6.96257 5.91168 6.21056 6.36806 5.49581C6.76233 4.87834 7.24989 4.3622 7.71449 4.07362C8.1791 4.3622 8.66666 4.87834 9.06093 5.49581C9.51731 6.21056 9.78592 6.96257 9.78592 7.50053ZM6.68643 14.2083L6.44408 12.2695H8.98477L8.74242 14.2083H6.68643Z" fill="#828282"/>
</g>
</g>
<defs>
<clipPath id="clip0_1_10032">
<rect width="18" height="18" fill="white"/>
</clipPath>
<clipPath id="clip1_1_10032">
<rect width="18" height="18" fill="white"/>
</clipPath>
</defs>
</svg>
