<svg width="18" height="18" viewBox="0 0 18 18" fill="none" xmlns="http://www.w3.org/2000/svg">
<g clip-path="url(#clip0_1_10038)">
<path d="M1.92885 17.3574L16.0717 17.3574C16.7818 17.3574 17.3574 16.7818 17.3574 16.0717L17.3574 1.92885C17.3574 1.21877 16.7818 0.643137 16.0717 0.643137L1.92885 0.643137C1.21877 0.643137 0.643137 1.21877 0.643137 1.92885L0.643137 16.0717C0.643137 16.7818 1.21877 17.3574 1.92885 17.3574Z" stroke="#20604F" stroke-linecap="round" stroke-linejoin="round"/>
<path d="M12.8574 8.35732C12.8574 9.3803 12.451 10.3614 11.7276 11.0847C11.0043 11.8081 10.0232 12.2145 9.00021 12.2145C7.97723 12.2145 6.99615 11.8081 6.2728 11.0847C5.54944 10.3614 5.14307 9.3803 5.14307 8.35732V5.54161C5.14285 5.43236 5.17048 5.32485 5.22334 5.22924C5.27621 5.13364 5.35257 5.05308 5.44521 4.99518C5.53785 4.93727 5.64373 4.90394 5.75283 4.89831C5.86194 4.89269 5.97068 4.91496 6.06878 4.96303L9.00021 6.42875L11.9316 4.96303C12.0297 4.91496 12.1385 4.89269 12.2476 4.89831C12.3567 4.90394 12.4626 4.93727 12.5552 4.99518C12.6479 5.05308 12.7242 5.13364 12.7771 5.22924C12.8299 5.32485 12.8576 5.43236 12.8574 5.54161V8.35732Z" stroke="#20604F" stroke-linecap="round" stroke-linejoin="round"/>
<path d="M9 12.2144V17.3572" stroke="#20604F" stroke-linecap="round" stroke-linejoin="round"/>
<path d="M9 17.3574L12.2143 14.1431" stroke="#20604F" stroke-linecap="round" stroke-linejoin="round"/>
<path d="M9.00042 17.3574L5.78613 14.1431" stroke="#20604F" stroke-linecap="round" stroke-linejoin="round"/>
</g>
<defs>
<clipPath id="clip0_1_10038">
<rect width="18" height="18" fill="white"/>
</clipPath>
</defs>
</svg>
