<svg width="18" height="18" viewBox="0 0 18 18" fill="none" xmlns="http://www.w3.org/2000/svg">
<path fill-rule="evenodd" clip-rule="evenodd" d="M14.1508 1C13.938 1 13.7272 1.04214 13.5308 1.12399C13.3347 1.20566 13.1568 1.32524 13.0071 1.47588L6.35658 8.1032C6.28951 8.17004 6.24515 8.25627 6.22979 8.3497L5.64939 11.8785C5.62559 12.0232 5.67356 12.1705 5.77804 12.2734C5.88251 12.3763 6.03047 12.4221 6.1748 12.3961L9.6572 11.7693C9.7481 11.7529 9.8318 11.709 9.89699 11.6436L16.5233 4.99408L16.5243 4.99313C16.6749 4.84345 16.7945 4.66548 16.8762 4.46943C16.9581 4.27297 17.0002 4.06224 17.0002 3.84941C17.0002 3.63657 16.9581 3.42585 16.8762 3.22938C16.7945 3.03322 16.6748 2.85515 16.524 2.70542L16.5233 2.70473L15.2955 1.47689L15.2948 1.47619C15.145 1.32541 14.967 1.20571 14.7708 1.12399C14.5743 1.04214 14.3636 1 14.1508 1ZM13.878 1.9574C13.9644 1.92139 14.0571 1.90285 14.1508 1.90285C14.2444 1.90285 14.3372 1.92139 14.4236 1.9574C14.51 1.99342 14.5885 2.04619 14.6544 2.11268L14.6558 2.11399L15.8862 3.34444L15.8875 3.34575C15.954 3.41169 16.0068 3.49015 16.0428 3.57659C16.0788 3.66304 16.0973 3.75576 16.0973 3.84941C16.0973 3.94305 16.0788 4.03577 16.0428 4.12222C16.0068 4.20866 15.954 4.28712 15.8875 4.35306L15.8856 4.35493L9.35762 10.9058L6.64401 11.3943L7.09703 8.63993L13.6453 2.11455L13.6471 2.11268C13.7131 2.04619 13.7915 1.99342 13.878 1.9574Z" fill="#20604F"/>
<path d="M2.11062 3.85856C2.24365 3.72553 2.42409 3.65079 2.61222 3.65079H6.09463C6.34394 3.65079 6.54605 3.44868 6.54605 3.19936C6.54605 2.95005 6.34394 2.74794 6.09463 2.74794H2.61222C2.18464 2.74794 1.77456 2.9178 1.47221 3.22015C1.16986 3.5225 1 3.93258 1 4.36017V15.3878C1 15.8154 1.16986 16.2254 1.47221 16.5278C1.77456 16.8301 2.18464 17 2.61222 17H13.6398C14.0674 17 14.4775 16.8301 14.7799 16.5278C15.0822 16.2254 15.2521 15.8154 15.2521 15.3878V11.9054C15.2521 11.6561 15.05 11.454 14.8006 11.454C14.5513 11.454 14.3492 11.6561 14.3492 11.9054V15.3878C14.3492 15.5759 14.2745 15.7564 14.1414 15.8894C14.0084 16.0224 13.828 16.0972 13.6398 16.0972H2.61222C2.42409 16.0972 2.24365 16.0224 2.11062 15.8894C1.97758 15.7564 1.90285 15.5759 1.90285 15.3878V4.36017C1.90285 4.17203 1.97758 3.99159 2.11062 3.85856Z" fill="#20604F"/>
</svg>
