<svg width="18" height="18" viewBox="0 0 18 18" fill="none" xmlns="http://www.w3.org/2000/svg">
<path fill-rule="evenodd" clip-rule="evenodd" d="M13.4037 0.289513C13.599 0.484775 13.599 0.801358 13.4037 0.99662L5.49661 8.90376L5.48522 8.91479C5.47355 8.92575 5.46424 8.93898 5.45788 8.95367C5.45152 8.96836 5.44824 8.9842 5.44824 9.00021C5.44824 9.01622 5.45152 9.03206 5.45788 9.04675C5.46424 9.06144 5.47355 9.07467 5.48522 9.08563L5.49661 9.09666L13.4037 17.0038C13.599 17.1991 13.599 17.5156 13.4037 17.7109C13.2085 17.9062 12.8919 17.9062 12.6966 17.7109L4.79428 9.80855C4.68605 9.7053 4.59963 9.58135 4.54019 9.44403C4.47953 9.30392 4.44824 9.15288 4.44824 9.00021C4.44824 8.84754 4.47953 8.69649 4.54019 8.55639C4.59963 8.41907 4.68605 8.29512 4.79427 8.19188L12.6966 0.289513C12.8919 0.0942509 13.2085 0.0942509 13.4037 0.289513Z" fill="#20604F"/>
</svg>
