<svg width="18" height="18" viewBox="0 0 18 18" fill="none" xmlns="http://www.w3.org/2000/svg">
<path fill-rule="evenodd" clip-rule="evenodd" d="M6.71425 2.14286C5.60968 2.14286 4.71425 3.03829 4.71425 4.14286C4.71425 5.24743 5.60968 6.14286 6.71425 6.14286C7.81882 6.14286 8.71425 5.24743 8.71425 4.14286C8.71425 3.03829 7.81882 2.14286 6.71425 2.14286ZM3.5714 4.14286C3.5714 2.40711 4.9785 1 6.71425 1C8.45001 1 9.85711 2.40711 9.85711 4.14286C9.85711 5.87861 8.45001 7.28571 6.71425 7.28571C4.9785 7.28571 3.5714 5.87861 3.5714 4.14286ZM8.74783 9.51276C8.05277 9.17095 7.28241 9.01088 6.50872 9.04751C5.73502 9.08414 4.98323 9.31626 4.32357 9.72221C3.66391 10.1282 3.1179 10.6947 2.73654 11.3688C2.35565 12.0422 2.15142 12.801 2.14286 13.5745V14.7143H5C5.31559 14.7143 5.57143 14.9701 5.57143 15.2857C5.57143 15.6013 5.31559 15.8571 5 15.8571H1.57143C1.25584 15.8571 1 15.6013 1 15.2857V13.5654C1.01011 12.5978 1.26534 11.6485 1.7418 10.8062C2.21826 9.96386 2.90043 9.25607 3.7246 8.74889C4.54877 8.24171 5.48804 7.95169 6.45467 7.90593C7.42131 7.86017 8.38377 8.06015 9.25217 8.4872C9.53537 8.62647 9.65205 8.96895 9.51278 9.25215C9.37351 9.53535 9.03103 9.65203 8.74783 9.51276ZM14.7298 8.2073C14.6226 8.10006 14.4771 8.03985 14.3255 8.03993C14.1738 8.04001 14.0284 8.10038 13.9213 8.20773L8.54984 13.5906C8.46238 13.6782 8.40576 13.7919 8.38849 13.9145L8.04563 16.3488C8.02066 16.5261 8.0802 16.7048 8.20648 16.8316C8.33276 16.9585 8.5112 17.0189 8.68856 16.9947L11.1228 16.6633C11.2466 16.6464 11.3615 16.5895 11.4498 16.5011L16.8327 11.1183C17.0558 10.8951 17.0558 10.5333 16.8327 10.3102L14.7298 8.2073ZM9.49357 14.2628L14.3262 9.41991L15.6205 10.7142L10.7779 15.5568L9.28264 15.7604L9.49357 14.2628Z" fill="#828282"/>
</svg>
