<svg width="139" height="139" viewBox="0 0 139 139" fill="none" xmlns="http://www.w3.org/2000/svg">
<g clip-path="url(#clip0_1432_5291)">
<path d="M51.326 116.652C48.4146 101.265 29.5132 90.1174 19.8211 100.051C10.1291 109.984 23.4566 121.864 23.4566 121.864C23.4566 121.864 12.5502 118.711 8.67339 121.864C4.79657 125.016 15.2202 138.178 15.2202 138.178H53.7547L51.3335 116.652H51.326Z" fill="#41947C"/>
<path d="M116.998 135.674C131.299 125.009 135.9 113.62 129.119 110.716C122.339 107.812 107.065 112.594 98.8287 117.233C90.5923 121.864 84.7695 133.011 84.7695 133.011L116.998 135.674Z" fill="#41947C"/>
<g style="mix-blend-mode:multiply" opacity="0.55">
<path d="M19.8202 100.051L48.8964 135.674" stroke="#41947C" stroke-width="0.377123" stroke-linecap="round" stroke-linejoin="round"/>
<path d="M36.1497 97.8938V120.061L17.2332 112.956" stroke="#41947C" stroke-width="0.377123" stroke-linecap="round" stroke-linejoin="round"/>
<path d="M23.4558 121.864L45.6608 131.714V105.089" stroke="#41947C" stroke-width="0.377123" stroke-linecap="round" stroke-linejoin="round"/>
<path d="M129.118 110.716L97.613 133.012" stroke="#41947C" stroke-width="0.377123" stroke-linecap="round" stroke-linejoin="round"/>
<path d="M129.118 123.538L106.687 126.585L112.269 111.749" stroke="#41947C" stroke-width="0.377123" stroke-linecap="round" stroke-linejoin="round"/>
</g>
<path d="M94.838 45.7678C64.7662 75.7491 66.1088 131.714 66.1088 131.714" stroke="#41947C" stroke-width="0.754246" stroke-linecap="round" stroke-linejoin="round"/>
<path d="M94.8382 45.7677C94.3404 57.5189 95.1927 59.4573 96.0374 59.7062C96.8822 59.9476 97.0104 45.7677 97.0104 45.7677C97.0104 45.7677 101.717 51.4623 106.695 54.7357C111.673 58.0091 116.395 59.8344 116.764 59.7062C117.126 59.5855 110.33 51.2209 105.729 48.7998C101.129 46.3787 98.1041 45.1643 98.1041 45.1643C98.1041 45.1643 107.313 48.9205 114.826 49.8935C122.338 50.8664 127.067 50.1348 126.094 49.1694C125.121 48.2039 110.217 44.3196 97.8627 43.8369C97.8627 43.8369 101.498 36.4075 102.464 28.1862C103.429 19.965 101.86 13.1843 99.4315 15.4847C97.0104 17.7852 96.0224 40.2014 95.434 42.9921L94.8382 45.7753V45.7677Z" fill="#4C5772"/>
<g style="mix-blend-mode:multiply">
<path d="M94.8378 45.7678C86.1112 43.4673 81.7365 37.7728 80.6504 30.2605C79.5568 22.7482 85.5983 23.8192 88.2834 26.7457C94.8378 33.8959 95.4337 42.9846 95.4337 42.9846C95.4337 42.9846 96.6178 31.3994 109.244 26.0216C128.877 17.657 123.922 47.2235 94.8378 45.7753V45.7678Z" fill="#EBB042"/>
</g>
<path d="M82.589 24.7091C90.4558 32.1988 94.8305 45.7677 94.8305 45.7677C91.4514 43.3465 82.5815 34.6199 81.2163 25.75" stroke="#EDE7E2" stroke-width="0.377123" stroke-linecap="round" stroke-linejoin="round"/>
<path d="M117.224 24.7091C105.85 29.046 94.8376 45.7677 94.8376 45.7677C94.8376 45.7677 111.016 36.762 120.105 26.5947" stroke="#EDE7E2" stroke-width="0.377123" stroke-linecap="round" stroke-linejoin="round"/>
<path d="M120.837 31.3087C109.297 43.0523 94.8376 45.7676 94.8376 45.7676" stroke="#EDE7E2" stroke-width="0.377123" stroke-linecap="round" stroke-linejoin="round"/>
<g style="mix-blend-mode:multiply">
<path d="M68.7723 128.162C72.1664 120.167 70.7107 95.201 64.6541 92.0558C58.5975 88.903 53.0237 85.9841 50.595 76.4203C48.1739 66.8564 48.6038 63.945 36.1512 56.4327C23.6986 48.9205 27.8168 45.285 19.8217 37.5313C11.8192 29.7701 0.188721 23.2308 0.188721 23.2308C0.188721 23.2308 9.63942 35.8343 11.0951 45.0436C12.5508 54.253 10.6124 65.4535 14.9719 70.5145C19.3315 75.5755 26.6024 79.8973 27.8168 89.8534C29.0311 99.8094 33.8734 104.569 40.4202 108.974C46.9671 113.378 41.2197 117.255 45.6698 123.319C50.1123 129.376 68.7799 128.169 68.7799 128.169L68.7723 128.162Z" fill="#946241"/>
</g>
<g style="mix-blend-mode:multiply">
<path d="M15.6959 24.1963C13.7575 26.6174 20.5457 33.8883 23.4496 30.7431C26.3534 27.5979 17.6343 21.7751 15.6959 24.1963Z" fill="#41947C"/>
</g>
<path d="M0.188721 23.2308C27.0927 54.4943 56.6516 103.641 66.1098 128.267" stroke="#2F392B" stroke-width="0.377123" stroke-linecap="round" stroke-linejoin="round"/>
<g style="mix-blend-mode:multiply">
<path d="M48.8987 14.7456C45.5046 30.2529 49.3814 37.7652 51.5612 44.0707C53.7409 50.3686 48.6498 56.6741 53.7409 64.1864C58.8321 71.6987 59.0885 74.2255 58.8396 88.7145C58.5907 103.204 59.8051 109.69 67.5587 117.233C75.3124 124.775 74.8297 133.011 74.8297 133.011C74.8297 133.011 86.7015 126.223 87.9158 112.654C89.1302 99.0854 89.6129 91.8145 84.7631 82.8465C79.9133 73.8785 81.6103 67.3392 77.7335 62.0067C73.8567 56.6741 68.7278 57.8885 68.1395 51.1003C67.5512 44.3121 61.0119 43.3466 57.3764 36.0757C53.7409 28.8048 48.8911 14.7456 48.8911 14.7456H48.8987Z" fill="#41947C"/>
</g>
<path d="M48.8979 14.7456C53.7478 43.8293 61.69 57.1569 70.5599 79.4524C79.4298 101.748 76.7673 129.617 76.7673 129.617" stroke="#2F392B" stroke-width="0.377123" stroke-linecap="round" stroke-linejoin="round"/>
<g style="mix-blend-mode:multiply">
<path d="M57.3836 23.2309C55.0153 24.2491 58.8393 34.3787 61.9845 33.1643C65.1297 31.95 60.7702 21.7752 57.3836 23.2309Z" fill="#41947C"/>
</g>
<g style="mix-blend-mode:multiply">
<path d="M138.811 43.8293C134.21 50.6176 129.36 48.1889 125.242 53.7628C121.124 59.3366 122.579 62.4894 115.55 64.4278C108.52 66.3662 101.008 67.4372 97.1312 75.749C93.2543 84.0608 85.7194 84.1061 80.6509 91.3318C75.5823 98.5574 75.3184 117.233 75.3184 117.233L90.8257 111.206L110.459 103.935C110.459 103.935 111.432 91.3318 117.247 87.6963C123.062 84.0608 126.215 75.8773 126.215 70.5146C126.215 65.1519 132.762 59.3366 135.907 54.9771C139.06 50.6176 138.818 43.8293 138.818 43.8293H138.811Z" fill="#8E5E3E"/>
</g>
<path d="M138.811 43.8293C127.06 61.886 86.4661 101.295 73.5006 126.118" stroke="#2F392B" stroke-width="0.377123" stroke-linecap="round" stroke-linejoin="round"/>
<path d="M124.995 138.178H22.0023C24.514 129.293 27.7648 121.992 37.9999 129.617C41.1074 120.529 44.2827 118.62 47.5713 128.26C52.3004 105.082 62.7316 102.744 66.1182 120.053C93.0221 66.1173 142.214 80.5235 96.4087 126.578C113.424 124.926 123.109 128.682 125.002 138.17L124.995 138.178Z" fill="#729843"/>
<g style="mix-blend-mode:multiply" opacity="0.61">
<path d="M95.6855 87.7264L94.8407 106.221L114.127 101.031" stroke="#729843" stroke-width="0.377123" stroke-linecap="round" stroke-linejoin="round"/>
<path d="M81.5884 97.8937L82.946 121.864L106.69 114.744" stroke="#729843" stroke-width="0.377123" stroke-linecap="round" stroke-linejoin="round"/>
<path d="M66.1115 120.061L71.6853 138.178C71.6853 138.178 87.9242 112.654 111.14 86.9344" stroke="#729843" stroke-width="0.377123" stroke-linecap="round" stroke-linejoin="round"/>
<path d="M96.4019 126.585L71.6853 138.178" stroke="#729843" stroke-width="0.377123" stroke-linecap="round" stroke-linejoin="round"/>
</g>
<path d="M55.6524 60.2711C55.6318 59.1181 55 57.4999 56.3641 57.282C57.7282 57.064 58.3751 58.2768 59 58.5C59.9778 58.8492 59.7564 59.074 60.3417 59.9152C61.8284 62.0524 62.9807 64.4874 62.6112 67.1666C62.3055 69.3828 59.3023 70.0662 58.167 68.0681C57.4859 66.8694 58.988 65.5408 59.4323 64.5412C59.8795 63.5349 58.9609 62.6454 58.088 62.3745C56.9608 62.0247 55.6773 61.6651 55.6524 60.2711Z" fill="#8E5E3E" fill-opacity="0.73"/>
<path d="M103.3 113.48C102.704 113.564 101.931 114.28 101.675 112.936C101.419 111.591 101.98 110.881 102.031 110.248C102.109 109.256 102.249 109.464 102.624 108.836C103.577 107.241 104.72 105.962 106.148 106.183C107.33 106.366 107.998 109.315 107.081 110.554C106.53 111.296 105.684 109.875 105.119 109.488C104.55 109.098 104.185 110.06 104.136 110.943C104.072 112.083 104.02 113.379 103.3 113.48Z" fill="#8E5E3E" fill-opacity="0.73"/>
<path d="M19.2997 112.48C18.7039 112.564 17.9306 113.28 17.6748 111.936C17.4189 110.591 17.9803 109.881 18.0306 109.248C18.1094 108.256 18.2492 108.464 18.6243 107.836C19.5773 106.241 20.7197 104.962 22.1481 105.183C23.3297 105.366 23.9985 108.316 23.0809 109.554C22.5304 110.296 23.065 111.387 22.5 111C21.9312 110.61 21.5491 111.053 21.5 111.936C21.4365 113.076 20.0203 112.379 19.2997 112.48Z" fill="#8E5E3E" fill-opacity="0.73"/>
</g>
<defs>
<clipPath id="clip0_1432_5291">
<rect width="139" height="138.366" fill="white"/>
</clipPath>
</defs>
</svg>
