<svg width="189" height="226" viewBox="0 0 189 226" fill="none" xmlns="http://www.w3.org/2000/svg">
<g clip-path="url(#clip0_1986_4649)">
<path d="M102.46 27.2001C45.6799 17.4501 68.6699 71.4201 86.2499 105.41C100.32 132.62 104.57 152.7 102.86 176.37" stroke="#21261F" stroke-miterlimit="10" stroke-linecap="round" stroke-linejoin="round"/>
<path d="M152.54 85.3001C104.7 69.9401 108.17 148.17 110.14 172.6" stroke="#21261F" stroke-miterlimit="10" stroke-linecap="round" stroke-linejoin="round"/>
<path d="M68.6799 112.79C84.3599 114.87 95.9199 185.38 95.9199 185.38" stroke="#21261F" stroke-miterlimit="10" stroke-linecap="round" stroke-linejoin="round"/>
<path d="M45.6899 57.99C72.9499 63.68 75.3399 94.64 69.7499 143.09C64.1599 191.54 83.2499 193.98 83.2499 193.98" stroke="#21261F" stroke-miterlimit="10" stroke-linecap="round" stroke-linejoin="round"/>
<path d="M151.68 162.89H14.5299V225.27H151.68V162.89Z" fill="#D39F3F"/>
<path d="M14.5299 199.33C29.9599 206.35 40.8799 208.33 55.8899 202.12C70.8999 195.91 78.2399 197.52 90.9499 204.06C103.66 210.59 135.35 212.92 151.69 199.34" stroke="#D39F3F" stroke-width="0.5" stroke-miterlimit="10" stroke-linecap="round" stroke-linejoin="round"/>
<path d="M92.0699 194.08C103.08 204.94 148.54 205.24 141.48 194.08" stroke="#D39F3F" stroke-width="0.5" stroke-miterlimit="10" stroke-linecap="round" stroke-linejoin="round"/>
<path d="M14.5299 206.91C26.5699 216.79 46.3299 215.84 61.8599 209.26C77.3899 202.68 97.4399 212.84 112.12 225.27" stroke="#D39F3F" stroke-width="0.5" stroke-miterlimit="10" stroke-linecap="round" stroke-linejoin="round"/>
<path d="M151.68 206.91C137.53 213.97 115.22 215.66 120.87 225.26" stroke="#D39F3F" stroke-width="0.5" stroke-miterlimit="10" stroke-linecap="round" stroke-linejoin="round"/>
<path d="M128.77 225.27C127.64 219.06 151.41 218.78 151.41 218.78" stroke="#D39F3F" stroke-width="0.5" stroke-miterlimit="10" stroke-linecap="round" stroke-linejoin="round"/>
<path d="M14.5299 216.09C24.8699 222.44 32.9399 226.03 52.7699 220.71C72.5899 215.39 88.1199 213.98 99.6999 225.27" stroke="#D39F3F" stroke-width="0.5" stroke-miterlimit="10" stroke-linecap="round" stroke-linejoin="round"/>
<path d="M90.0899 225.27C77.6699 217.93 64.4399 225.27 64.4399 225.27" stroke="#D39F3F" stroke-width="0.5" stroke-miterlimit="10" stroke-linecap="round" stroke-linejoin="round"/>
<path d="M23.7399 194.08C32.4899 202.96 59.8799 198.18 51.1299 194.08" stroke="#D39F3F" stroke-width="0.5" stroke-miterlimit="10" stroke-linecap="round" stroke-linejoin="round"/>
<path d="M14.5299 172.18C25.4399 180.65 43.3299 174.7 57.1099 168.79C70.8899 162.88 93.4799 165.1 110.14 172.59C126.8 180.08 151.68 172.46 151.68 172.46" stroke="#D39F3F" stroke-width="0.5" stroke-miterlimit="10" stroke-linecap="round" stroke-linejoin="round"/>
<path d="M112.12 162.89C108.17 167.11 139.01 174.21 151.68 162.89" stroke="#D39F3F" stroke-width="0.5" stroke-miterlimit="10" stroke-linecap="round" stroke-linejoin="round"/>
<path d="M21.3199 162.89C19.2199 169.93 29.4699 174.49 57.3799 162.89" stroke="#D39F3F" stroke-width="0.5" stroke-miterlimit="10" stroke-linecap="round" stroke-linejoin="round"/>
<path d="M14.5299 187.15C26.5699 180.66 41.8099 194.08 41.8099 194.08" stroke="#D39F3F" stroke-width="0.5" stroke-miterlimit="10" stroke-linecap="round" stroke-linejoin="round"/>
<path d="M14.5299 180.77C43.5099 178.68 51.3899 194.21 80.0599 188.57C108.73 182.92 115.43 180.88 128.74 180.77C142.05 180.66 151.68 188.57 151.68 188.57" stroke="#D39F3F" stroke-width="0.5" stroke-miterlimit="10" stroke-linecap="round" stroke-linejoin="round"/>
<path d="M47.8999 177.55C43.8899 179.59 61.8999 185.85 77.2699 182.83C92.6399 179.81 110.43 177.55 97.4399 173.03C84.4399 168.51 54.5499 174.16 47.8999 177.55Z" stroke="#D39F3F" stroke-width="0.5" stroke-miterlimit="10" stroke-linecap="round" stroke-linejoin="round"/>
<path d="M62.8399 177.54C51.7799 182.71 96.8699 175.57 90.0999 175.29C83.3199 175.01 67.7299 175.25 62.8399 177.54Z" stroke="#D39F3F" stroke-width="0.5" stroke-miterlimit="10" stroke-linecap="round" stroke-linejoin="round"/>
<path d="M100.82 194.08C94.8899 190.26 117.68 185.3 128.73 185.38C139.78 185.46 147.12 194.08 147.12 194.08" stroke="#D39F3F" stroke-width="0.5" stroke-miterlimit="10" stroke-linecap="round" stroke-linejoin="round"/>
<path d="M14.5299 194.08H151.68" stroke="#21261F" stroke-width="0.5" stroke-miterlimit="10" stroke-linecap="round" stroke-linejoin="round"/>
<path d="M180.38 114.88C172.27 112.02 173.94 105.57 179.66 105.81C182.55 105.93 185.38 107.94 187.47 109.89C186.75 104.89 185.44 100.18 183.62 96.07C181.54 95.55 178.91 95.03 176.04 94.83C169.39 94.35 162.71 91.49 165.81 90.06C167.83 89.13 174.18 88.7 179.99 89.64C173.64 80.76 163.97 77.39 152.52 85.29C129.07 81.23 125.73 106.52 125.73 106.52L127.4 111.53C132.41 98.65 145.77 93.16 146.73 97.93C147.61 102.31 132.01 106.1 128.15 120.53C129.04 123.13 130.62 126.12 133.37 129.24C133.37 129.24 140.53 108.9 145.54 111.05C150.03 112.97 139.59 122.95 137.97 134.1C140.43 136.48 142.63 138.27 144.99 140.02C144.99 140.02 147.45 114.95 155.08 121.24C160.7 125.86 157.4 140.2 155.27 147.46C155.52 147.65 155.77 147.84 156.03 148.04C161.9 152.51 170.3 153.31 177.02 148.52C172.23 136.01 169.56 127.34 174.4 128C177.83 128.47 180.95 136.68 182.71 142.31C184.79 138.96 186.4 134.65 187.29 129.25C187.83 125.93 188.1 122.58 188.11 119.27C186.49 117.83 184.01 116.16 180.38 114.88ZM149.31 108.2C147.52 105.34 151.28 100.15 153.43 102.47C155.57 104.8 151.1 111.07 149.31 108.2Z" fill="#588157"/>
<path d="M152.54 85.2999C169.65 113.22 168.07 151.78 168.07 151.78" stroke="#21261F" stroke-width="0.5" stroke-miterlimit="10" stroke-linecap="round" stroke-linejoin="round"/>
<path d="M59.15 88.6601C59.94 84.3401 60.18 80.2301 59.79 76.6601C57.64 56.7901 31.87 53.5601 31.87 53.5601C22.87 51.4201 16.06 58.1101 11.7 68.3501C14.94 66.1901 18.38 64.5301 18.51 67.1601C18.66 70.2901 13.14 74.2501 8.32997 78.8701C6.99997 84.6301 6.23997 90.8201 6.08997 96.8601C8.71997 91.8901 11.79 86.8401 13.27 87.2101C15.21 87.6901 10.05 99.7501 6.50997 107.5C6.93997 111.47 7.68997 115.19 8.75997 118.46C10.89 113.26 14.44 105.39 15.9 107.01C17.44 108.72 13.1 116.4 10.87 123.48C13.25 127.93 16.54 130.8 20.79 131.14C22.9 131.31 24.95 131.17 26.94 130.78C29.58 123.03 30.29 107.44 34.03 103.9C37.81 100.32 38.27 116.98 36.8 126.56C39.82 124.53 42.61 121.92 45.14 118.93C44.48 111.59 43.28 95.5601 45.49 95.5601C47.63 95.5601 50.31 104.93 51.52 109.63C53.41 106.25 55.02 102.69 56.31 99.1101C53.8 94.0201 49.34 84.2901 50.74 82.2001C51.81 80.5801 55.84 84.7301 59.15 88.6601ZM16.14 83.2701C15.25 79.5101 20.79 75.2201 22.4 77.7201C24.01 80.2301 17.03 87.0301 16.14 83.2701Z" fill="#588157"/>
<path d="M45.69 57.99C29.38 73.78 19.86 120.75 19.34 130.91" stroke="#21261F" stroke-width="0.5" stroke-miterlimit="10" stroke-linecap="round" stroke-linejoin="round"/>
<path d="M163.59 58.63C164.58 57.78 173.77 62.16 180.19 67.49C180.16 64.77 179.9 61.92 179.37 58.98C175.17 56.55 163.42 49.68 156.22 44.7C147.33 38.56 148.97 32.46 156.19 35.13C161.01 36.91 170.19 43.27 175.76 47.3C174.36 44.15 172.58 40.97 170.35 37.82C155.15 16.39 130.45 7.20001 116.73 11.72C103.01 16.24 102.46 27.2 102.46 27.2C77.2 25.87 68.88 51.82 87.04 72.02C90.53 75.9 94.22 79.14 97.98 81.87C89.36 67.17 90.02 52.4 94.06 51.39C98.93 50.17 98.33 61.21 99.15 66.71C100.43 75.37 102.2 81.66 104.37 85.98C108.5 88.33 112.64 90.14 116.61 91.53C113.72 87.28 109.11 79.26 108.88 71.12C108.54 59.22 112.67 54.98 116.41 62.9C119.58 69.62 120.41 84.94 126.08 94.21C131.57 95.42 136.36 95.91 139.86 96.16C139.86 96.16 131.22 89.87 130.04 76.35C128.86 62.83 133.6 60.07 138.02 71.87C141.49 81.15 145.6 91.79 150.06 96.6C151.98 96.61 153.94 96.58 155.88 96.48C153.88 94.32 149.05 88.49 147.86 81.43C146.35 72.48 162.16 95.83 162.18 95.86C167.96 94.97 172.88 93.15 175.02 89.7C175.81 88.42 176.62 86.76 177.36 84.78C177.36 84.78 176.72 76.1 173.06 70.34C169.39 64.55 162.32 59.74 163.59 58.63ZM111.48 54.88C105.72 55.18 106.37 39.5 109.48 39.43C114.51 39.31 117.24 54.58 111.48 54.88ZM130.8 58.94C126.92 59.65 126.23 49.25 129.31 49.84C132.39 50.44 134.68 58.23 130.8 58.94ZM145.21 34.82C144.17 39.29 125.22 33.38 126.26 28.91C127.3 24.45 146.25 30.35 145.21 34.82Z" fill="#588157"/>
<path d="M102.46 27.2C142.67 43.49 166 76.8699 173.24 91.6799" stroke="#21261F" stroke-width="0.5" stroke-miterlimit="10" stroke-linecap="round" stroke-linejoin="round"/>
<path d="M101.84 116.84C85.8499 104.19 68.6799 112.78 68.6799 112.78C59.8499 95.84 46.2499 92.7401 32.1799 108.72C27.0999 114.49 24.0499 121.77 22.5299 129.44C29.3199 120.53 41.1799 113.48 43.1599 116.83C45.2199 120.34 28.1799 130.46 21.3899 139.3C21.1999 144.03 21.5099 148.71 22.1899 153.1C23.6899 150.22 27.3499 144.67 34.8099 140.54C45.3099 134.73 44.3499 143.55 34.8099 149.76C29.6299 153.13 25.7899 156.03 23.3599 158.91C24.1399 162.02 25.0999 164.9 26.2199 167.41C26.7599 168.62 27.3199 169.75 27.8899 170.81C27.9399 170.64 32.9099 154.54 35.0499 157.15C36.7199 159.19 31.9099 167.71 30.1199 174.43C34.5299 180.66 40.0299 183.37 47.1899 182.72C45.5899 177.82 43.2699 168.95 45.7899 164.77C48.6899 159.95 51.2699 174.06 51.6399 181.95C53.6299 181.45 55.7299 180.75 57.9499 179.82C59.6699 179.11 61.2899 178.34 62.8499 177.53C60.2899 172.81 55.7299 163.03 57.4799 155.9C59.8699 146.18 64.0299 148.68 64.4499 155.9C64.7499 161.04 65.7999 170.12 67.4999 174.85C71.1399 172.55 74.3599 170.04 77.3699 167.46C77.0699 163.83 76.2099 156.2 73.9299 150.23C70.8299 142.12 72.9799 132.81 77.5099 133.77C81.3499 134.58 83.9799 150.24 82.3899 162.99C85.6099 160.06 88.7299 157.16 92.0599 154.53C102.38 146.38 115.18 127.39 101.84 116.84ZM47.9199 113.5C48.3999 109.92 58.8999 111.11 59.3699 113.5C59.8499 115.89 47.2899 118.25 47.9199 113.5ZM59.3799 145.47C54.3799 146.9 55.0499 141.12 59.3799 140.55C64.1699 139.92 64.3799 144.04 59.3799 145.47Z" fill="#588157"/>
<path d="M68.6799 112.79C49.1199 137.6 38.8999 159.52 36.8499 180.77" stroke="#21261F" stroke-width="0.5" stroke-miterlimit="10" stroke-linecap="round" stroke-linejoin="round"/>
<path d="M143.87 125.99C142.6 134.96 138.22 138.69 131.79 138.97C138.95 139.84 142.98 144.17 143.87 151.95C144.76 144.17 148.78 139.84 155.95 138.97C149.53 138.69 145.14 134.96 143.87 125.99Z" fill="#EB997C"/>
<path opacity="0.84" d="M14.53 0C13 10.8 7.72 15.27 0 15.62C8.62 16.67 13.46 21.88 14.53 31.24C15.6 21.88 20.44 16.67 29.06 15.62C21.33 15.27 16.05 10.8 14.53 0Z" fill="#D39F3F"/>
</g>
<defs>
<clipPath id="clip0_1986_4649">
<rect width="188.13" height="225.52" fill="white"/>
</clipPath>
</defs>
</svg>
