<svg width="154" height="119" viewBox="0 0 154 119" fill="none" xmlns="http://www.w3.org/2000/svg">
<g clip-path="url(#clip0_1432_5339)">
<path d="M124.25 19.5339C113.894 24.1677 102.198 38.5337 102.198 38.5337C102.198 38.5337 141.773 78.7807 151.47 72.7319C161.265 66.6206 124.25 19.5339 124.25 19.5339Z" fill="#2F392B"/>
<path d="M92.1255 0C98.5143 2.8302 118.527 29.28 122.987 35.7659C127.447 42.2518 115.981 37.3614 115.981 37.3614C115.981 37.3614 94.7476 17.4113 89.2468 10.1277C83.7459 2.84407 92.1186 0 92.1186 0L92.1255 0Z" fill="#EBB042"/>
<g style="mix-blend-mode:multiply" opacity="0.51">
<path d="M89.6772 1.35266C101.386 8.42815 109.35 25.1665 117.965 34.4132C126.581 43.6599 110.148 30.2442 103.523 21.2958C96.9053 12.3543 87.5406 4.32853 87.5406 4.32853" stroke="#EBB042" stroke-width="0.346838" stroke-miterlimit="10"/>
</g>
<path d="M139.49 59.0942C137.236 63.4783 111.591 35.4191 111.591 35.4191L119.79 28.4546C119.79 28.4546 141.495 55.1888 139.483 59.1012L139.49 59.0942Z" fill="#58414C"/>
<path d="M3.48084 60.5648C9.80022 45.297 24.0136 28.184 24.0136 28.184C37.1726 12.9162 54.5492 10.856 67.188 21.497C79.8267 32.131 88.241 46.6913 87.1936 61.6192C86.1461 76.5401 75.7341 95.8035 75.7341 95.8035C75.7341 95.8035 112.208 90.8368 118 91.1004C123.792 91.364 126.948 95.0682 123.265 97.5585C119.581 100.049 71.9882 120.415 56.6927 118.924C41.3971 117.425 20.0735 103.476 9.80715 90.8368C-0.466176 78.198 -2.83161 75.8326 3.48084 60.5648ZM80.6175 57.4086C80.6175 57.4086 81.991 44.6102 72.4807 34.2953C62.9774 23.9734 54.029 20.9975 49.0276 21.5663C44.0262 22.1352 42.4446 27.1366 42.4446 27.1366C50.3386 29.3216 74.5617 44.7767 80.6175 57.4086Z" fill="#6F7FAA"/>
<g style="mix-blend-mode:multiply">
<path d="M42.4453 27.1296C42.4453 27.1296 44.0268 22.1282 49.0282 21.5594C50.5751 21.386 52.4966 21.5455 54.6956 22.1629C42.4453 17.7858 36.6531 26.4706 36.6531 26.4706L47.2732 33.9762L49.5901 30.2928C46.6697 28.7181 44.1725 27.6082 42.4453 27.1296Z" fill="#6F7FAA"/>
</g>
<path d="M124.312 95.3803C123.812 98.6613 117.937 93.7501 118.589 92.4876C119.241 91.2182 124.645 93.2091 124.312 95.3803Z" fill="#2F392B"/>
<path d="M75.7346 95.8035C49.0281 100.312 50.6374 117.786 50.6374 117.786" stroke="#2F392B" stroke-width="0.346838" stroke-linecap="round" stroke-linejoin="round"/>
<path d="M44.1584 43.1883C32.1647 29.5298 36.6528 26.4707 36.6528 26.4707L42.445 27.1297C50.339 29.3148 74.5621 44.7699 80.6179 57.4017C80.2225 62.5349 77.5935 65.6911 77.5935 65.6911C77.5935 65.6911 63.9281 65.6911 44.1584 43.1813V43.1883Z" fill="#2F392B"/>
<path d="M82.1231 72.4127C65.35 76.8869 34.4676 48.2243 27.2672 32.02" stroke="#2F392B" stroke-width="0.346838" stroke-linecap="round" stroke-linejoin="round"/>
<g style="mix-blend-mode:multiply">
<path d="M4.20227 83.7683C5.68674 85.7938 7.55272 88.0691 9.80717 90.8369C20.0736 103.476 41.3971 117.425 56.6927 118.924C68.3048 120.061 98.5213 108.595 114.018 101.922C67.5556 111.037 38.0051 108.213 4.20227 83.7683Z" fill="#6F7FAA"/>
</g>
<g style="mix-blend-mode:multiply" opacity="0.84">
<path d="M11.5565 36.9591C10.7865 42.4461 8.12278 44.7213 4.23126 44.8948C8.58061 45.4289 11.0223 48.0718 11.5565 52.8304C12.0975 48.0718 14.5393 45.4289 18.8817 44.8948C14.9832 44.7213 12.3265 42.4461 11.5565 36.9591Z" fill="#729843"/>
</g>
<g style="mix-blend-mode:multiply" opacity="0.84">
<path d="M110.114 55.2097C109.004 63.1107 105.175 66.3848 99.563 66.6345C105.82 67.4045 109.337 71.2128 110.114 78.0594C110.891 71.2059 114.408 67.3976 120.665 66.6345C115.053 66.3779 111.224 63.1037 110.114 55.2097Z" fill="#EBB042"/>
</g>
<g style="mix-blend-mode:multiply">
<path d="M17.7504 8.04663C16.7515 15.1776 13.2901 18.1327 8.22626 18.3616C13.8728 19.0553 17.0498 22.489 17.7504 28.6765C18.451 22.4959 21.6211 19.0553 27.2746 18.3616C22.2108 18.1327 18.7562 15.1776 17.7504 8.04663Z" fill="#6F7FAA"/>
</g>
</g>
<defs>
<clipPath id="clip0_1432_5339">
<rect width="153.122" height="119" fill="white"/>
</clipPath>
</defs>
</svg>
