<svg width="306" height="355" viewBox="0 0 306 355" fill="none" xmlns="http://www.w3.org/2000/svg">
<g clip-path="url(#clip0_1997_4824)">
<path d="M272.447 231.26C272.447 233.77 254.587 235.8 232.567 235.8C210.537 235.8 192.687 233.77 192.687 231.26C192.687 228.75 210.547 226.72 232.567 226.72C254.587 226.72 272.447 228.75 272.447 231.26Z" fill="#4B342C"/>
<path d="M234.817 148.1C231.077 146.11 228.967 140.56 226.857 137.8C223.867 133.88 220.427 130.01 215.997 126.55C211.277 122.86 206.007 120.12 199.847 117.79C195.107 116 190.467 115.46 185.527 114.31C190.577 122.2 194.867 131.68 207.017 136.76C211.917 138.81 216.887 140.81 221.647 142.99C224.847 144.45 230.807 145.7 234.817 148.1Z" fill="#B2B988"/>
<path d="M231.407 107.2C231.077 102.77 233.487 97.82 234.397 93.51C235.307 89.19 237.117 84.87 239.677 81.29C244.367 74.73 250.247 69.21 257.537 65.78C255.007 69.29 255.217 73.83 253.897 77.76C252.717 81.27 251.147 84.77 249.177 87.88C245.987 92.89 241.767 96.7 237.777 101.18C235.697 103.49 233.347 105.03 231.407 107.2Z" fill="#B2B988"/>
<path d="M161.577 186.58C170.917 188.64 179.577 183.56 187.907 179.81C193.327 177.37 198.987 174.3 205.007 173.84C214.967 173.08 223.407 181.97 227.617 190.11C229.007 192.81 230.187 195.91 231.827 198.43C224.267 195.56 217.417 199.9 209.647 198.25C203.887 197.02 198.517 194.92 192.947 193.23C187.357 191.54 181.827 192 175.967 191.93C172.577 191.89 169.697 191.12 166.767 189.47C165.517 188.78 163.127 188.02 161.577 186.58Z" fill="#B2B988"/>
<path d="M231.757 206.3C237.857 201.84 244.367 200.28 251.177 198.15C255.997 196.64 259.857 192.8 263.877 189.49C268.197 185.93 272.577 182.25 277.307 179.51C279.157 178.44 281.697 177.84 282.897 175.65C281.367 180.14 279.187 184.57 277.337 188.75C275.187 193.59 273.817 198.17 270.747 201.99C267.097 206.54 264.267 208.58 258.857 208.78C253.027 209 247.137 209.19 241.297 209.27C237.457 209.32 234.037 207.67 231.757 206.3Z" fill="#B2B988"/>
<path d="M235.707 125.18C231.477 116.95 234.187 98.73 239.377 90.88C242.787 85.72 255.677 78.39 262.337 80.15C264.817 99.74 247.007 114.5 235.707 125.18Z" fill="#9FA76A"/>
<path d="M259.927 81.4501C257.857 83.8701 254.927 85.2201 252.837 87.6701C251.457 89.2801 250.457 90.6101 249.677 91.7501C245.467 97.8801 240.657 104.89 237.687 114.64C236.517 118.49 235.547 123.06 235.137 125C234.597 127.54 234.207 129.67 233.947 131.2" stroke="#B2B988" stroke-miterlimit="10"/>
<path d="M253.577 86.74C253.697 84.89 254.127 83.27 255.177 81.74" stroke="#B2B988" stroke-miterlimit="10"/>
<path d="M247.307 95.3101C247.077 94.3101 247.317 92.8601 247.427 91.8401C247.617 90.0501 248.347 88.3101 248.857 86.5801" stroke="#B2B988" stroke-miterlimit="10"/>
<path d="M242.917 102.02C241.427 98.78 240.867 93.99 242.137 90.64" stroke="#B2B988" stroke-miterlimit="10"/>
<path d="M239.597 108.73C238.927 107.38 238.907 105.61 238.447 104.16C237.977 102.66 237.697 101.32 237.687 99.75" stroke="#B2B988" stroke-miterlimit="10"/>
<path d="M242.847 102.3C244.127 101.66 245.797 101.49 247.157 101.06C248.977 100.49 250.737 100.13 252.597 99.75" stroke="#B2B988" stroke-miterlimit="10"/>
<path d="M247.587 94.53C250.357 93.31 253.737 93.68 256.697 93.61" stroke="#B2B988" stroke-miterlimit="10"/>
<path d="M254.087 86.41C255.007 86.82 256.027 86.72 257.007 86.78C258.147 86.85 259.267 87.02 260.377 87.33" stroke="#B2B988" stroke-miterlimit="10"/>
<path d="M239.317 110.07C240.317 109.45 241.437 108.91 242.557 108.55C244.707 107.86 247.007 107.24 249.207 106.75" stroke="#B2B988" stroke-miterlimit="10"/>
<path d="M231.937 114.31C227.057 110.4 223.477 105.67 218.187 102.15C213.997 99.37 210.837 97.61 208.157 93.37C205.237 88.74 202.117 79.73 204.657 74.75C211.157 77 220.437 82.78 224.017 88.33C228.987 96.03 228.087 105.11 231.937 114.31Z" fill="#9FA76A"/>
<path d="M205.817 77.55C207.237 83.02 211.177 87.1101 214.637 91.3601C216.567 93.7401 218.547 95.9701 220.567 98.2401C222.087 99.9601 223.627 101.63 225.137 103.34C227.307 105.82 230.887 108.55 231.897 111.72" stroke="#B2B988" stroke-miterlimit="10"/>
<path d="M212.247 88.1701C211.897 86.5001 212.857 83.8701 213.497 82.3101" stroke="#B2B988" stroke-miterlimit="10"/>
<path d="M218.107 95.28C218.097 92.4 218.587 89.94 219.437 87.23" stroke="#B2B988" stroke-miterlimit="10"/>
<path d="M223.027 100.44C222.827 97.88 224.037 95.6 224.047 93.1" stroke="#B2B988" stroke-miterlimit="10"/>
<path d="M217.867 95.13C216.557 95.83 215.037 96.06 213.567 96.07" stroke="#B2B988" stroke-miterlimit="10"/>
<path d="M211.547 88.0199C210.367 88.1999 208.767 88.5799 207.637 87.9399" stroke="#B2B988" stroke-miterlimit="10"/>
<path d="M225.757 174.5C210.217 165.35 194.967 158.22 192.037 140.2C190.497 130.74 191.497 117.26 196.227 108.95C206.277 113.64 220.897 128.51 224.717 138.54C226.917 144.31 227.827 151.4 227.347 157.47C226.927 162.9 223.707 168.13 225.757 174.5Z" fill="#9FA76A"/>
<path d="M197.967 116.18C200.167 129.99 205.597 145.62 213.507 157.15C217.587 163.1 222.307 168.85 225.887 175.07C228.197 179.09 230.437 182.54 233.147 186.29" stroke="#B2B988" stroke-miterlimit="10"/>
<path d="M218.247 164.11C219.947 159.64 221.117 154.79 222.397 150.18" stroke="#B2B988" stroke-miterlimit="10"/>
<path d="M210.427 152.26C212.847 147.58 216.287 143.36 217.267 138.09" stroke="#B2B988" stroke-miterlimit="10"/>
<path d="M204.807 140.66C205.477 136.72 207.717 132.36 210.667 129.67" stroke="#B2B988" stroke-miterlimit="10"/>
<path d="M200.487 127.05C201.857 123.62 203.617 121.08 205.907 118.18" stroke="#B2B988" stroke-miterlimit="10"/>
<path d="M193.567 124.04C196.007 124.48 197.897 125.69 200.047 126.9" stroke="#B2B988" stroke-miterlimit="10"/>
<path d="M195.957 137.51C198.037 138 200.127 138.39 202.147 139.07C202.987 139.35 203.797 139.57 204.487 140.11" stroke="#B2B988" stroke-miterlimit="10"/>
<path d="M200.267 150.79C203.557 151.82 206.907 152.15 210.277 152.12" stroke="#B2B988" stroke-miterlimit="10"/>
<path d="M217.987 163.54C216.477 164.25 214.997 164.53 213.317 164.28" stroke="#B2B988" stroke-miterlimit="10"/>
<path d="M220.547 216.39C205.447 214.12 193.197 215.42 183.897 202.6C176.277 192.1 167.457 173.46 166.187 160.88C181.887 160.55 200.537 174.44 211.177 183.93C221.957 193.55 218.917 202.01 220.547 216.39Z" fill="#9FA76A"/>
<path d="M168.607 163.1C172.707 170.95 180.737 175.3 188.067 179.48C195.397 183.66 200.137 190.64 206.047 196.32C209.267 199.4 212.037 203.29 214.687 206.86C215.877 208.46 216.887 210.11 217.917 211.83C218.327 212.51 218.917 213.13 219.287 213.81C219.717 214.6 219.747 215.51 220.187 216.3C221.157 218.04 222.877 219.59 224.537 220.65C226.197 221.71 228.007 223.19 229.887 223.88" stroke="#B2B988" stroke-miterlimit="10"/>
<path d="M211.687 203.07C212.207 198.05 212.347 192.62 211.607 187.62" stroke="#B2B988" stroke-miterlimit="10"/>
<path d="M202.517 192.54C203.027 191.19 203.157 189.67 203.327 188.24C203.597 185.92 203.997 183.13 203.617 180.82" stroke="#B2B988" stroke-miterlimit="10"/>
<path d="M192.847 182.7C192.847 180.94 192.817 179.19 192.717 177.43C192.627 175.7 192.807 173.43 192.077 171.83" stroke="#B2B988" stroke-miterlimit="10"/>
<path d="M181.807 175.99C181.817 173.08 181.777 169.79 180.957 166.99" stroke="#B2B988" stroke-miterlimit="10"/>
<path d="M193.017 182.87C188.937 184.77 184.577 183.89 180.197 183.46" stroke="#B2B988" stroke-miterlimit="10"/>
<path d="M202.607 193.22C200.797 193.25 199.037 193.61 197.237 193.77C193.427 194.11 189.607 194.35 185.797 194.66" stroke="#B2B988" stroke-miterlimit="10"/>
<path d="M211.437 202.9C209.867 204.45 207.177 203.85 205.577 204.94" stroke="#B2B988" stroke-miterlimit="10"/>
<path d="M218.447 215.82C212.927 212.08 196.777 201.63 181.037 198.75C174.947 197.64 171.237 198.08 168.747 198.65C163.107 199.93 159.247 202.81 153.987 206.74C150.007 209.71 144.907 214.1 145.457 214.94C145.977 215.74 150.557 211.74 157.297 211.32C163.637 210.93 165.957 213.96 173.727 216.63C181.307 219.24 188.437 220.25 196.227 218.57C203.237 217.07 211.087 216.03 218.447 215.82Z" fill="#9FA76A"/>
<path d="M144.727 215.38C148.687 210.64 152.637 207.48 155.487 205.49C160.317 202.13 165.427 198.58 172.447 198.24C175.357 198.1 178.097 198.53 181.457 199.06C185.167 199.65 187.647 200.34 190.907 201.21C204.447 204.83 203.797 204.05 206.517 205.17C210.167 206.67 215.437 209.76 220.607 216.83" stroke="#B2B988" stroke-miterlimit="10"/>
<path d="M160.257 202.46C158.627 204.66 156.957 206.62 156.467 209.36" stroke="#B2B988" stroke-miterlimit="10"/>
<path d="M177.507 198.74C174.327 201.68 172.817 205.44 171.427 209.46" stroke="#B2B988" stroke-miterlimit="10"/>
<path d="M193.067 202.04C189.087 204.41 185.827 209.6 184.097 213.69" stroke="#B2B988" stroke-miterlimit="10"/>
<path d="M208.947 206.78C204.177 208.53 200.407 212.9 197.197 216.68" stroke="#B2B988" stroke-miterlimit="10"/>
<path d="M233.097 252.55C227.727 228 229.437 202.72 231.097 178.28C232.557 156.7 234.077 134.38 230.617 112.92C230.107 109.75 229.357 106.56 228.637 103.48C226.887 95.99 225.067 88.24 226.567 80.23L229.877 80.75C228.487 88.18 230.157 95.3 231.917 102.84C232.647 105.97 233.407 109.2 233.937 112.48C237.437 134.26 235.917 156.74 234.447 178.48C232.807 202.73 231.107 227.8 236.387 251.95L233.097 252.55Z" fill="#9FA76A"/>
<path d="M230.327 228.07C231.757 214.44 242.697 196.73 256.217 190.32C269.087 184.22 283.887 188.56 297.307 190.36C303.397 191.18 306.527 190.18 305.717 196.61C305.067 201.81 299.857 206.1 295.927 209.39C286.797 217.04 276.377 222.18 265.217 226.95C254.687 231.46 246.127 231.27 230.327 228.07Z" fill="#9FA76A"/>
<path d="M301.527 194.43C293.657 200.85 282.407 200.75 272.867 202.78C260.047 205.5 247.707 210.88 237.377 218.94C235.697 220.25 231.327 224.4 231.597 226.76" stroke="#B2B988" stroke-miterlimit="10"/>
<path d="M238.327 218.29C242.937 219.77 245.877 223.7 250.207 225.82" stroke="#B2B988" stroke-miterlimit="10"/>
<path d="M253.147 209.36C254.847 210.82 256.897 211.81 258.627 213.26C261.067 215.31 263.107 216.19 266.077 217.12" stroke="#B2B988" stroke-miterlimit="10"/>
<path d="M270.437 203.36C272.277 204.68 273.377 207.13 275.187 208.62C276.357 209.58 277.627 210.35 278.897 211.17C280.857 212.44 282.717 213.16 284.787 214.18" stroke="#B2B988" stroke-miterlimit="10"/>
<path d="M289.607 199.83C292.907 201.81 296.027 203.09 299.837 203.83" stroke="#B2B988" stroke-miterlimit="10"/>
<path d="M238.557 218.12C238.957 216.65 239.627 215.31 239.947 213.81C240.427 211.56 240.897 208.93 240.817 206.63" stroke="#B2B988" stroke-miterlimit="10"/>
<path d="M252.827 209.42C253.567 207.67 253.767 205.76 254.487 203.98C255.917 200.43 257.057 196.83 259.437 193.77" stroke="#B2B988" stroke-miterlimit="10"/>
<path d="M270.217 203.85C271.297 202.13 272.717 200.67 273.777 198.94C275.427 196.23 276.407 193.49 279.357 191.94" stroke="#B2B988" stroke-miterlimit="10"/>
<path d="M289.877 200.02C290.217 198.69 291.227 197.47 291.727 196.18C292.457 194.31 293.377 192.4 293.877 190.45" stroke="#B2B988" stroke-miterlimit="10"/>
<path d="M230.967 185.25C232.827 172.04 235.767 158.56 245.077 147.97C251.707 140.43 267.157 133.39 278.197 134.15C284.157 134.56 283.727 135.06 282.447 141.36C281.517 145.96 279.717 149.91 277.257 154.05C272.687 161.75 266.697 168.51 259.677 174.22C252.257 180.27 243.037 182.36 230.967 185.25Z" fill="#9FA76A"/>
<path d="M232.847 185.59C232.767 182.64 234.707 180.07 236.097 177.63C238.317 173.73 240.887 170.42 243.997 167.18C246.907 164.15 249.907 161.41 252.997 158.59C256.637 155.27 260.657 152.47 264.337 149.23C268.627 145.44 273.367 142.15 278.057 138.86" stroke="#B2B988" stroke-miterlimit="10"/>
<path d="M238.247 173.88C240.117 173.94 241.547 174.09 243.317 174.42C246.097 174.94 248.537 175.11 251.417 174.93" stroke="#B2B988" stroke-miterlimit="10"/>
<path d="M245.597 165.33C247.207 165.09 248.727 164.85 250.357 164.89C253.227 164.95 256.047 165.58 258.937 165.42" stroke="#B2B988" stroke-miterlimit="10"/>
<path d="M256.537 155.76C260.317 154.37 264.897 155.83 268.507 157.04" stroke="#B2B988" stroke-miterlimit="10"/>
<path d="M265.937 147.72C269.547 146.53 274.137 146.35 277.817 147.12" stroke="#B2B988" stroke-miterlimit="10"/>
<path d="M238.127 174.32C238.427 170.79 239.317 167.28 239.527 163.75" stroke="#B2B988" stroke-miterlimit="10"/>
<path d="M245.637 165.28C245.927 163.09 246.267 160.94 246.727 158.78C247.027 157.38 247.317 155.97 247.617 154.57C247.877 153.36 248.477 152.21 248.697 151.02" stroke="#B2B988" stroke-miterlimit="10"/>
<path d="M255.957 155.98C257.797 151.87 257.957 147.83 258.757 143.5" stroke="#B2B988" stroke-miterlimit="10"/>
<path d="M266.907 147.45C266.577 145.97 267.447 143.63 267.747 142.18C268.097 140.52 268.487 138.97 268.437 137.26" stroke="#B2B988" stroke-miterlimit="10"/>
<path d="M228.127 92.6C224.737 84.2 218.637 77.69 218.007 68.33C217.637 62.86 218.317 55.87 220.977 51C222.077 57.45 228.267 62.72 229.517 69.55C230.817 76.6 229.387 83.63 228.127 92.6Z" fill="#9FA76A"/>
<path d="M221.007 59.29C221.757 63.03 223.027 66.67 224.087 70.32C225.157 74 225.387 77.78 226.017 81.55" stroke="#B2B988" stroke-miterlimit="10"/>
<path d="M225.607 76.7799C226.747 74.5699 228.327 72.5899 228.737 70.0699" stroke="#B2B988" stroke-miterlimit="10"/>
<path d="M222.857 66.24C223.897 65.27 225.137 63.37 225.097 61.89" stroke="#B2B988" stroke-miterlimit="10"/>
<path d="M219.347 65.02C219.957 65.34 220.637 65.6 221.307 65.72C221.737 65.8 222.207 65.72 222.607 65.91" stroke="#B2B988" stroke-miterlimit="10"/>
<path d="M220.497 73.4C222.177 74.35 223.707 75.54 225.417 76.4" stroke="#B2B988" stroke-miterlimit="10"/>
<path d="M254.027 122.2C256.087 121.88 257.797 122.21 259.837 122.09C261.757 121.98 263.687 121.67 265.597 121.38" stroke="#B2B988" stroke-miterlimit="10"/>
<path d="M241.897 130.55C248.247 119.2 255.317 104.97 269.337 100.6C275.457 98.6901 282.747 97.0901 289.277 97.6201C292.187 97.8501 295.057 98.9001 297.807 99.2901C295.787 101.93 291.247 102.78 288.147 104.1C283.887 105.92 281.617 108.41 278.967 111.79C272.677 119.82 265.897 125.8 255.617 128.92C251.587 130.15 244.337 130.79 241.897 130.55Z" fill="#9FA76A"/>
<path d="M293.197 99.8C286.897 101.24 280.827 102.69 274.767 104.98C271.517 106.21 268.997 108.65 266.287 110.72C264.007 112.46 262.027 114.44 260.007 116.46C254.207 122.25 248.227 127.56 240.977 131.29C239.637 131.98 238.437 132.7 237.017 133.2C236.247 133.47 234.657 133.66 234.447 134.51" stroke="#B2B988" stroke-miterlimit="10"/>
<path d="M262.257 114.49C264.487 113.59 266.417 113.68 268.787 114.02C271.107 114.35 273.337 114.4 275.677 114.35" stroke="#B2B988" stroke-miterlimit="10"/>
<path d="M273.087 105.96C274.277 105.7 275.397 105.45 276.627 105.56C278.047 105.69 279.167 106.33 280.437 106.93" stroke="#B2B988" stroke-miterlimit="10"/>
<path d="M254.177 121.53C254.127 119.96 254.687 118.38 254.877 116.82C255.087 115.12 254.797 113.16 255.287 111.52" stroke="#B2B988" stroke-miterlimit="10"/>
<path d="M262.187 114.11C262.627 112.8 263.137 111.69 263.417 110.32C263.607 109.41 263.777 108.44 264.197 107.6C264.577 106.84 265.207 106.4 265.667 105.73" stroke="#B2B988" stroke-miterlimit="10"/>
<path d="M274.047 105.44C273.577 104.5 275.117 102.81 275.637 102.1C276.877 100.41 278.467 100.3 280.277 99.5801" stroke="#B2B988" stroke-miterlimit="10"/>
<path d="M272.127 231.83C269.667 234.07 252.897 235.8 232.567 235.8C212.237 235.8 195.467 234.07 193.007 231.83C192.797 232.02 192.687 232.21 192.687 232.4V278.71C192.687 289.75 199.517 299.12 208.797 300.93C215.967 302.32 224.157 303.27 233.187 303.22C241.747 303.18 249.537 302.25 256.407 300.92C265.667 299.12 272.457 289.73 272.457 278.71V232.4C272.447 232.21 272.327 232.02 272.127 231.83Z" fill="#E1CC82"/>
<path d="M57.9772 84.37C58.0972 84.48 58.4572 84.84 58.4072 85.26C58.3772 85.51 58.2072 85.75 57.9372 85.94C57.3072 86.37 56.4272 86.16 55.9472 85.57C55.5272 85.06 55.1172 84.5501 54.6972 84.0401C54.2772 83.1901 53.7272 82.78 53.4072 82.58C51.9872 81.71 49.8872 82.0401 48.1672 83.4301C42.9272 87.4001 0.39724 123.85 0.39724 123.85C0.39724 123.85 -0.342761 125.38 0.197239 126.05L69.4972 210.01C73.3872 210.4 75.5872 210.62 79.4672 211.02C97.2272 196.67 114.997 182.32 132.757 167.97C133.447 167.41 133.537 166.4 132.957 165.73C109.587 138.51 86.2172 111.3 62.8472 84.0801C62.4672 83.6301 61.8672 83.4401 61.2872 83.5801C60.1872 83.8401 59.0772 84.1 57.9772 84.37Z" fill="#034059"/>
<path d="M54.4272 83.64C65.5572 97.4 77.0372 111.32 88.8972 125.35C100.767 139.4 112.567 153.05 124.287 166.33C107.497 180.27 90.7072 194.21 73.9072 208.14C76.7772 207.66 79.6472 207.18 82.5072 206.7C98.4272 193.25 114.337 179.8 130.257 166.34C106.787 138.83 83.3172 111.32 59.8472 83.8C58.0372 83.75 56.2372 83.7 54.4272 83.64Z" fill="#F9F5E6"/>
<path d="M14.7473 135.02C14.7773 136.02 15.1973 136.9 15.8973 137.19C17.0073 137.66 18.3773 136.48 18.8773 135.37C19.4273 134.13 19.0673 132.59 18.2473 131.74C17.4273 130.88 15.6473 130.2 15.0773 129.99C12.6973 129.1 15.0773 128.62 14.1373 127.06C13.4473 125.92 10.9673 126.1 9.9873 125.38C11.1473 125.15 12.4973 124.77 13.6073 124.36C14.9773 123.85 14.4473 122.02 15.6973 121.67C16.0673 121.57 16.8873 122.16 17.3973 122.11C18.1073 122.03 18.8573 121.4 19.3673 120.93C20.3373 120.03 21.0673 118.57 20.3673 117.23C20.2973 117.09 20.0173 116.51 19.3973 116.28C18.6773 116.02 17.7873 116.34 17.1173 117.08" stroke="#F9F5E6" stroke-miterlimit="10"/>
<path d="M10.0973 125.47C9.29732 124.94 8.10732 123.77 7.16732 123.6C6.22732 123.44 4.64732 124.48 4.91732 125.53C5.32732 127.11 9.14732 125.49 10.0973 125.47Z" stroke="#F9F5E6" stroke-miterlimit="10"/>
<path d="M13.8173 129.09C12.8073 129 11.6773 129.39 10.9873 130.17C10.5173 130.69 10.1573 131.65 10.8473 132.16C11.7273 132.82 12.8473 131.79 13.2173 131.04C13.4873 130.48 13.5773 129.75 13.8173 129.09Z" stroke="#F9F5E6" stroke-miterlimit="10"/>
<path d="M15.0673 121.94C14.1273 121.52 12.3173 120.73 12.6373 119.36C12.8473 118.47 13.9473 118.49 14.5273 118.98C15.4273 119.75 15.2473 120.88 15.0673 121.94Z" stroke="#F9F5E6" stroke-miterlimit="10"/>
<path d="M56.6472 100.95C57.5972 101.26 58.3172 101.91 58.4172 102.66C58.5572 103.85 57.0472 104.84 55.8372 105.01C54.4972 105.2 53.1172 104.42 52.5272 103.4C51.9372 102.37 51.7772 100.48 51.7272 99.8599C51.5372 97.3299 50.4172 99.4799 49.1772 98.1399C48.2672 97.1599 49.1372 94.8299 48.7172 93.6899C48.1672 94.7399 47.4372 95.9299 46.7272 96.8799C45.8572 98.0499 44.2472 97.0299 43.5672 98.1399C43.3672 98.4699 43.7072 99.4299 43.5172 99.8999C43.2472 100.56 42.4272 101.11 41.8372 101.47C40.7072 102.15 39.0972 102.44 38.0072 101.4C37.8872 101.29 37.4072 100.86 37.3672 100.2C37.3172 99.4399 37.8672 98.6699 38.7772 98.2399" stroke="#F9F5E6" stroke-miterlimit="10"/>
<path d="M48.7771 93.82C48.4871 92.9 47.6971 91.43 47.8071 90.49C47.9071 89.54 49.3471 88.32 50.2871 88.87C51.6771 89.7 49.0571 92.91 48.7771 93.82Z" stroke="#F9F5E6" stroke-miterlimit="10"/>
<path d="M51.217 98.4C51.417 97.41 52.107 96.43 53.047 95.98C53.677 95.68 54.697 95.6 54.997 96.4C55.377 97.43 54.087 98.21 53.257 98.36C52.637 98.47 51.907 98.35 51.217 98.4Z" stroke="#F9F5E6" stroke-miterlimit="10"/>
<path d="M43.9973 97.61C43.8573 96.59 43.6073 94.63 42.1973 94.56C41.2873 94.51 40.9973 95.58 41.3073 96.27C41.7973 97.34 42.9273 97.48 43.9973 97.61Z" stroke="#F9F5E6" stroke-miterlimit="10"/>
<path d="M106.257 156.15C106.187 155.15 105.717 154.3 105.007 154.04C103.877 153.62 102.557 154.87 102.117 156C101.627 157.26 102.057 158.78 102.917 159.59C103.777 160.41 105.587 161 106.167 161.19C108.587 161.96 106.227 162.56 107.247 164.08C107.987 165.19 110.457 164.89 111.467 165.56C110.317 165.85 108.987 166.29 107.897 166.75C106.547 167.32 107.177 169.12 105.937 169.53C105.577 169.65 104.717 169.09 104.217 169.17C103.507 169.28 102.787 169.95 102.297 170.44C101.367 171.38 100.707 172.88 101.477 174.18C101.557 174.32 101.857 174.89 102.487 175.08C103.217 175.3 104.097 174.95 104.727 174.17" stroke="#F9F5E6" stroke-miterlimit="10"/>
<path d="M111.347 165.46C112.177 165.95 113.417 167.06 114.367 167.18C115.307 167.3 116.837 166.19 116.517 165.15C116.037 163.6 112.297 165.4 111.347 165.46Z" stroke="#F9F5E6" stroke-miterlimit="10"/>
<path d="M107.467 162.02C108.477 162.06 109.587 161.62 110.247 160.81C110.687 160.27 111.007 159.3 110.287 158.82C109.377 158.21 108.307 159.28 107.977 160.05C107.727 160.62 107.677 161.36 107.467 162.02Z" stroke="#F9F5E6" stroke-miterlimit="10"/>
<path d="M106.557 169.22C107.517 169.6 109.357 170.3 109.107 171.68C108.937 172.58 107.837 172.61 107.237 172.15C106.307 171.43 106.427 170.3 106.557 169.22Z" stroke="#F9F5E6" stroke-miterlimit="10"/>
<path d="M63.7773 190.76C62.8073 190.5 62.0573 189.88 61.9373 189.14C61.7373 187.95 63.2074 186.89 64.4074 186.67C65.7374 186.42 67.1474 187.13 67.7874 188.13C68.4274 189.13 68.6774 191.01 68.7474 191.62C69.0574 194.14 70.0773 191.94 71.3773 193.22C72.3273 194.16 71.5674 196.53 72.0474 197.64C72.5474 196.57 73.2273 195.34 73.8773 194.36C74.6873 193.15 76.3474 194.09 76.9774 192.96C77.1674 192.62 76.7773 191.68 76.9473 191.2C77.1873 190.52 77.9773 189.94 78.5573 189.56C79.6573 188.82 81.2474 188.46 82.3874 189.45C82.5074 189.56 83.0074 189.96 83.0774 190.61C83.1574 191.37 82.6473 192.17 81.7673 192.64" stroke="#F9F5E6" stroke-miterlimit="10"/>
<path d="M71.9774 197.5C72.3074 198.41 73.1674 199.83 73.1074 200.78C73.0474 201.73 71.6674 203.02 70.7074 202.51C69.2674 201.76 71.7374 198.43 71.9774 197.5Z" stroke="#F9F5E6" stroke-miterlimit="10"/>
<path d="M69.3174 193.05C69.1674 194.05 68.5274 195.06 67.6074 195.55C66.9874 195.88 65.9774 196.01 65.6374 195.22C65.2074 194.21 66.4574 193.36 67.2774 193.18C67.8974 193.04 68.6274 193.13 69.3174 193.05Z" stroke="#F9F5E6" stroke-miterlimit="10"/>
<path d="M76.5674 193.5C76.7574 194.51 77.0974 196.46 78.5074 196.46C79.4174 196.46 79.6574 195.39 79.3174 194.71C78.7874 193.66 77.6474 193.58 76.5674 193.5Z" stroke="#F9F5E6" stroke-miterlimit="10"/>
<path d="M35.8271 145.67C39.9771 150.44 44.1271 155.21 48.2771 159.98C57.6971 151.85 67.1271 143.73 76.5471 135.6C72.5471 130.85 68.5571 126.1 64.5571 121.35C54.9771 129.46 45.3971 137.57 35.8271 145.67Z" stroke="#F9F5E6" stroke-miterlimit="10"/>
<path d="M42.4773 146.6L64.8373 127.69" stroke="#F9F5E6" stroke-miterlimit="10"/>
<path d="M50.3472 148.22L64.1072 136.34" stroke="#F9F5E6" stroke-miterlimit="10"/>
<path d="M16.8473 126.9C20.7273 130.08 22.7573 129.71 27.4473 133.14C30.7273 135.54 32.9473 138.07 34.2673 139.75C34.1873 137.26 32.6073 135.22 32.2673 132.81C34.1673 133 36.6973 134.58 38.5073 135.36C34.7373 130.5 30.9373 127.67 28.0773 125.96C23.0073 122.93 17.5773 121.44 15.7773 117.27C15.4373 116.49 14.5873 114.51 15.2473 112.28C15.5673 111.22 16.1273 110.44 16.5373 109.97C15.0473 110.48 11.0173 112.09 10.1173 115.45C8.81734 120.32 15.0073 125.39 16.8473 126.9Z" fill="#F2B2AB"/>
<path d="M101.457 96.0601L141.027 150.32C142.317 152.57 144.617 153.8 146.817 153.49C147.057 153.46 149.357 153.09 150.117 151.41C151.237 148.94 148.287 145.38 147.187 144.05C142.437 138.26 127.067 118.92 105.957 92.4801C104.907 91.6201 103.407 91.5601 102.337 92.3401C101.197 93.1601 100.807 94.7501 101.457 96.0601Z" fill="#F2B2AB"/>
<path d="M101.457 96.0601L95.0273 83.9801L105.957 92.4701C105.447 92.5301 104.487 92.7101 103.507 93.3801C102.157 94.3101 101.627 95.5901 101.457 96.0601Z" fill="#F9F5E6"/>
<path d="M145.947 146.66C148.177 145.77 149.307 143.34 149.257 141.03C149.187 138.26 147.477 135.97 145.637 134.03C143.427 131.71 141.187 129.43 139.127 126.97C138.047 125.67 136.947 124.36 135.977 122.98C135.077 121.7 134.197 120.18 134.727 118.6C135.247 117.07 132.857 116.32 132.347 117.84C131.437 120.52 132.877 122.99 134.447 125.1C136.307 127.6 138.337 129.99 140.457 132.28C142.347 134.32 144.757 136.21 146.077 138.7C147.097 140.63 147.107 143.54 144.777 144.47C143.287 145.04 144.467 147.25 145.947 146.66Z" fill="#F2B2AB"/>
<path d="M143.677 151.6C145.687 152.41 146.957 152.18 148.337 150.6" stroke="#F9F5E6" stroke-miterlimit="10"/>
<path d="M148.377 149.54C148.297 148.38 148.257 147.54 147.567 146.61" stroke="#F9F5E6" stroke-miterlimit="10"/>
<path d="M147.887 144.87C148.237 144.22 148.697 143.17 148.757 141.85C148.777 141.35 148.787 139.82 147.227 137.1C146.437 135.72 145.027 133.66 142.627 131.64" stroke="#F9F5E6" stroke-miterlimit="10"/>
<path d="M135.807 123.04C136.747 124.89 138.137 126.45 139.577 127.96" stroke="#F9F5E6" stroke-miterlimit="10"/>
<path d="M97.4174 88.4101L99.0374 87.0901L95.0374 83.9901L97.4174 88.4101Z" fill="#034059"/>
</g>
<defs>
<clipPath id="clip0_1997_4824">
<rect width="305.84" height="354.27" fill="white"/>
</clipPath>
</defs>
</svg>
