<svg width="751" height="528" viewBox="0 0 751 528" fill="none" xmlns="http://www.w3.org/2000/svg">
<path d="M0.5 0.5L159.54 120.94H375.5" stroke="white" stroke-miterlimit="10" stroke-linecap="round" stroke-linejoin="round"/>
<path d="M0.5 240.38L94.32 191.25V500.5" stroke="white" stroke-miterlimit="10" stroke-linecap="round" stroke-linejoin="round"/>
<path d="M375.5 191.25H94.3199L159.54 120.94L375.5 191.25Z" stroke="white" stroke-miterlimit="10" stroke-linecap="round" stroke-linejoin="round"/>
<path d="M335.7 191.25V408.09H415.3V191.25" stroke="white" stroke-miterlimit="10" stroke-linecap="round" stroke-linejoin="round"/>
<path d="M168.86 500.5V191.25L159.54 120.94L267.97 191.25V500.5" stroke="white" stroke-miterlimit="10" stroke-linecap="round" stroke-linejoin="round"/>
<path d="M750.5 0.5L591.46 120.94H375.5" stroke="white" stroke-miterlimit="10" stroke-linecap="round" stroke-linejoin="round"/>
<path d="M750.5 240.38L656.68 191.25V500.5" stroke="white" stroke-miterlimit="10" stroke-linecap="round" stroke-linejoin="round"/>
<path d="M375.5 191.25H656.68L591.46 120.94L375.5 191.25Z" stroke="white" stroke-miterlimit="10" stroke-linecap="round" stroke-linejoin="round"/>
<path d="M582.14 500.5V191.25L591.46 120.94L483.03 191.25V500.5" stroke="white" stroke-miterlimit="10" stroke-linecap="round" stroke-linejoin="round"/>
<path d="M335.7 274.26H415.3" stroke="white" stroke-miterlimit="10" stroke-linecap="round" stroke-linejoin="round"/>
<path d="M375.5 274.26V408.09" stroke="white" stroke-miterlimit="10" stroke-linecap="round" stroke-linejoin="round"/>
<path d="M222.16 356.16C214.63 341.48 215.01 315.88 227.43 297.81C239.85 279.74 229.69 270.8 235.34 251.17C240.99 231.54 254.92 225.15 255.29 204.82C255.67 184.49 279.42 164.04 279.42 164.04C279.42 164.04 266.21 189.39 270.73 211.97C275.25 234.56 275.25 250.75 268.85 268.06C262.45 285.37 270.73 284.89 269.98 311.49C269.23 338.09 257.84 361.43 257.84 361.43L222.16 356.16Z" fill="#7A9954"/>
<path d="M279.41 164.04C266.48 178.13 257.83 205.01 257.83 234.37C257.83 263.73 249.64 272.21 246.25 300.44C242.86 328.68 243.43 341.95 243.43 341.95" stroke="#21261F" stroke-width="0.5" stroke-miterlimit="10" stroke-linecap="round" stroke-linejoin="round"/>
<path d="M207.82 324.9C216.48 309.46 218.74 293.65 211.21 274.26C203.68 254.87 215.16 248.1 213.75 227.39C212.34 206.68 209.27 205.37 211.79 194.07C214.31 182.78 218.83 174.87 218.83 174.87C218.83 174.87 201.61 186.73 200.76 200C199.91 213.27 197.94 218.64 190.03 233.04C182.12 247.44 172.24 257.89 175.91 285.84C179.58 313.79 173.09 330.45 173.09 330.45L207.82 324.9Z" fill="#7A9954"/>
<path d="M218.84 174.87C203.52 191.25 204.44 208.19 205.57 223.43C206.7 238.68 192.58 251.67 192.58 282.72" stroke="#21261F" stroke-width="0.5" stroke-miterlimit="10" stroke-linecap="round" stroke-linejoin="round"/>
<path d="M103.01 286.54C110.36 270.44 111.3 254.5 102.2 235.8C93.0901 217.1 103.97 209.4 100.85 188.88C97.7301 168.36 94.5701 167.3 96.1401 155.84C97.7201 144.38 101.57 136.12 101.57 136.12C101.57 136.12 85.3901 149.36 85.6401 162.66C85.8901 175.96 84.3701 181.46 77.6801 196.47C70.9901 211.47 62.0101 222.7 67.9801 250.26C73.9501 277.81 68.8601 294.95 68.8601 294.95L103.01 286.54Z" fill="#7A9954"/>
<path d="M101.57 136.12C87.6601 153.71 89.9801 170.51 92.3601 185.62C94.7501 200.72 81.7501 214.83 84.3201 245.79" stroke="#21261F" stroke-width="0.5" stroke-miterlimit="10" stroke-linecap="round" stroke-linejoin="round"/>
<path d="M189.31 302.4C179.21 287.15 188.81 266.26 185.42 250.45C182.03 234.64 174.69 231.25 176.38 213.18C178.07 195.11 167.34 190.03 163.11 174.78C158.87 159.53 163.11 147.67 163.11 147.67C163.11 147.67 150.97 163.76 152.38 178.16C153.79 192.56 161.47 195.1 152.27 210.35C143.07 225.6 151.03 241.69 152.27 250.44C153.51 259.19 140.24 272.28 144.38 293.36C148.52 314.44 158.31 329.22 158.31 329.22L189.31 302.4Z" fill="#7A9954"/>
<path d="M163.12 147.67C156.06 171.95 156.06 179.11 163.12 200.38C170.18 221.65 162.73 227.86 166.45 260.05" stroke="#21261F" stroke-width="0.5" stroke-miterlimit="10" stroke-linecap="round" stroke-linejoin="round"/>
<path d="M243.81 330.45C253.22 325.27 259.25 312.1 257.36 292.9C255.48 273.7 263.38 265.14 276.56 252.66C289.74 240.19 281.08 226.64 290.11 213.84C299.15 201.04 309.69 203.3 311.57 184.85C313.45 166.4 335.29 151.34 335.29 151.34C335.29 151.34 322.87 166.02 324.37 184.09C325.88 202.16 327.88 208.18 317.84 227.38C307.8 246.58 309.31 256.37 310.44 274.25C311.57 292.13 314.58 301.17 299.15 318.86C283.71 336.55 288.99 349.73 284.47 370.06C279.95 390.39 256.23 396.79 256.23 396.79L243.81 330.45Z" fill="#7A9954"/>
<path d="M335.29 151.34C318.74 167.71 320.94 183.34 311.64 209.32C302.35 235.3 296.7 231.34 293.88 257.88C291.06 284.42 276.62 284.42 271.7 305.88C266.78 327.34 270.69 336.86 261.65 345.87" stroke="#21261F" stroke-width="0.5" stroke-miterlimit="10" stroke-linecap="round" stroke-linejoin="round"/>
<path d="M32.16 297.26C38.2 288.38 37.6 273.9 27.22 257.64C16.84 241.38 20 230.16 26.1 213.07C32.19 195.98 18.33 187.83 20.58 172.32C22.83 156.81 33.25 154.05 26.57 136.75C19.89 119.45 32.52 96.13 32.52 96.13C32.52 96.13 28.1 114.85 37.64 130.27C47.17 145.69 51.69 150.16 51.45 171.82C51.21 193.48 56.99 201.53 66.1 216.95C75.21 232.38 81.99 239.07 76.26 261.83C70.52 284.6 81.19 293.95 86.38 314.12C91.57 334.29 73.33 350.74 73.33 350.74L32.16 297.26Z" fill="#7A9954"/>
<path d="M32.52 96.14C25.19 118.23 34.23 131.17 37.72 158.54C41.21 185.91 34.39 184.94 43.9 209.88C53.41 234.82 40.55 241.36 45.89 262.72C51.23 284.08 59.04 290.79 55.06 302.92" stroke="#21261F" stroke-width="0.5" stroke-miterlimit="10" stroke-linecap="round" stroke-linejoin="round"/>
<path d="M295.59 380.41C303.5 376.65 312.28 366.1 316.3 354.81C320.32 343.52 321.19 323.19 330.23 309.63C339.27 296.08 347.17 288.92 347.55 271.23C347.93 253.54 347.55 250.9 353.57 238.1C359.59 225.3 360.12 209.49 360.12 209.49C360.12 209.49 351.69 217.77 347.17 233.96C342.65 250.15 333.32 250.89 323.45 265.58C313.58 280.27 320.06 280.26 302.37 299.09C284.68 317.91 295.75 328.45 274.17 349.54C252.59 370.63 295.59 380.41 295.59 380.41Z" fill="#7A9954"/>
<path d="M360.11 209.49C353.38 218.87 346.41 253.35 337.75 271.42C329.09 289.49 311.59 293.44 307.63 318.86C303.68 344.27 286.92 367.24 286.92 367.24" stroke="#21261F" stroke-width="0.5" stroke-miterlimit="10" stroke-linecap="round" stroke-linejoin="round"/>
<path d="M412.25 215.81C394.45 214.06 385.71 220.61 392.49 235.29C399.27 249.97 400.7 259.13 401.24 265.3C402.55 280.09 410.7 284.42 419.1 289.5C427.5 294.58 415.07 302 425.8 310.71C436.53 319.42 450.08 322.25 450.65 336.37C451.21 350.49 459.97 362.35 471.5 363.48C483.03 364.61 500.9 349.36 497.52 336.37C494.13 323.38 485.14 300.51 478.32 298.39C471.5 296.27 457.99 292.32 451.21 274.25C444.43 256.18 430.32 259.57 425.8 242.63C421.28 225.7 420.73 216.65 412.25 215.81Z" fill="#4A8171"/>
<path d="M402.75 215.76C401.33 231.53 407.35 252.02 420.53 265.31C433.71 278.59 445.75 287.14 451.02 304.99C456.29 322.84 475.48 330.54 479.26 339.58" stroke="#21261F" stroke-width="0.5" stroke-miterlimit="10" stroke-linecap="round" stroke-linejoin="round"/>
<path d="M700 129.64C688.46 114.78 677.14 112.84 670.83 128.63C664.51 144.42 658.55 152.14 654.23 157.02C643.88 168.72 646.47 178.07 648.66 188.16C650.85 198.25 636.2 194.12 637.3 208.62C638.4 223.12 646.04 235.51 635.67 246.15C625.29 256.79 622.57 272.05 630.04 281.68C637.52 291.31 662.09 293.94 669.56 281.96C677.03 269.98 688 246.57 684.69 239.83C681.38 233.09 674.63 219.91 683.53 201.67C692.44 183.43 679.64 175.09 689.31 159.39C698.98 143.69 705.5 136.72 700 129.64Z" fill="#4A8171"/>
<path d="M693.18 122.35C680.1 132.67 668.81 152.08 668.18 171.75C667.56 191.42 669.74 206.8 659.91 223.74C650.08 240.68 658.08 260.9 653.9 270.32" stroke="#21261F" stroke-width="0.5" stroke-miterlimit="10" stroke-linecap="round" stroke-linejoin="round"/>
<path d="M464.2 339.2C457.42 329.79 460.44 321.51 447.26 316.24C434.08 310.97 423.25 309.09 415.3 301.93C407.35 294.78 399.07 293.65 394.55 296.28C390.03 298.92 388.15 310.42 400.57 317.09C412.99 323.76 403.96 336.75 417.13 341.17C430.31 345.59 432.19 341.08 441.22 355.38C450.26 369.69 467.57 358.39 467.57 357.26C467.59 356.14 464.2 339.2 464.2 339.2Z" fill="#4A8171"/>
<path d="M457.42 351.06C457.42 351.06 450.64 336.38 429.35 326.78C408.05 317.18 402.83 311.34 394.55 296.29" stroke="#21261F" stroke-width="0.5" stroke-miterlimit="10" stroke-linecap="round" stroke-linejoin="round"/>
<path d="M428.62 179.95C412.6 185.17 419.58 202.54 429.18 211.57C438.78 220.61 438.78 233.03 447.82 248.6C452.51 256.68 461.94 253.36 463.63 267.48C465.32 281.6 462.98 291.2 471.5 296.28C480.01 301.36 475.32 310.4 483.03 330.44C490.74 350.49 509.94 351.05 509.94 351.05L543.26 324.51C543.26 324.51 552.86 298.53 541 278.77C529.14 259.01 507.12 258.44 499.78 242.06C492.44 225.68 483.4 228.6 468.16 219.52C452.91 210.45 442.55 175.42 428.62 179.95Z" fill="#4A8171"/>
<path d="M424.12 182.11C427.31 195.39 440.49 212.42 449.9 219.53C459.31 226.64 470.23 235.77 475.12 252.66C480.01 269.55 489.05 281.6 500.72 292.9C512.39 304.19 516.09 326.03 516.09 326.03" stroke="#21261F" stroke-width="0.5" stroke-miterlimit="10" stroke-linecap="round" stroke-linejoin="round"/>
<path d="M573.27 322.26C570.45 305.32 582.87 293.46 578.92 278.21C574.97 262.96 561.41 264.74 555.77 248.61C550.12 232.47 560.29 227.96 546.73 215.81C533.18 203.67 528.66 205.36 521.88 185.03C515.1 164.7 501.38 160.75 496.1 169.22C490.82 177.69 503.24 194.07 500.98 209.31C498.72 224.56 494.77 233.92 502.11 243.64C509.45 253.36 519.62 263.52 517.92 277.64C516.23 291.76 523.57 295.62 531.47 304.98C539.38 314.34 534.52 323.94 537.23 333.54C539.94 343.14 560.83 347.45 560.83 347.45L576.05 334.67L573.27 322.26Z" fill="#4A8171"/>
<path d="M499.91 165.78C508.89 176.19 518.31 197.27 519.81 211.96C521.32 226.64 527.57 242.92 537.24 252.67C546.91 262.41 551.83 272.61 550.31 294.99C548.79 317.37 561.59 330.45 561.59 330.45" stroke="#21261F" stroke-width="0.5" stroke-miterlimit="10" stroke-linecap="round" stroke-linejoin="round"/>
<path d="M621.42 264.52C611.82 249.84 618.6 234.03 609 222.17C599.4 210.31 597.71 207.49 595.45 193.09C593.19 178.69 584.72 169.09 578.51 173.61C572.3 178.13 566.09 191.68 573.99 206.08C581.9 220.48 576.81 232.34 574.55 245.89C572.29 259.44 592.29 277.51 595.84 285.42C599.4 293.33 590.93 313.45 598.27 323.15C605.61 332.85 629.89 295.02 629.89 295.02L621.42 264.52Z" fill="#4A8171"/>
<path d="M578.5 173.6C578.31 186.96 583.96 206.92 591.49 216.33C599.02 225.74 587.62 240.05 594.88 261.51C602.14 282.97 609.94 282.59 614.46 303.3" stroke="#21261F" stroke-width="0.5" stroke-miterlimit="10" stroke-linecap="round" stroke-linejoin="round"/>
<path d="M707.29 255.43C708.05 237.9 722.77 229.01 721.88 213.77C720.99 198.54 721.26 195.26 727.82 182.24C734.38 169.22 733.09 156.48 725.41 156.53C717.73 156.58 704.78 163.97 702.81 180.28C700.84 196.59 689.8 203.26 680.06 212.96C670.32 222.66 676.04 248.99 674.32 257.49C672.6 265.99 653.99 277.4 654.3 289.56C654.61 301.72 699.67 301.05 699.67 301.05C705.17 294.28 710.47 286.93 707.29 255.43Z" fill="#4A8171"/>
<path d="M725.41 156.54C717.47 167.29 710.43 186.79 711.06 198.83C711.69 210.87 694.09 215.85 687.48 237.51C680.87 259.18 687.43 263.42 679.03 282.88" stroke="#21261F" stroke-width="0.5" stroke-miterlimit="10" stroke-linecap="round" stroke-linejoin="round"/>
<path d="M415.3 408.09C412.81 385.5 418.46 378.8 432.01 373.12C445.56 367.44 438.68 350.03 450.65 336.38C462.61 322.72 478.42 333.56 486.84 323.67C495.26 313.79 488.83 300.3 514.92 289.54C541 278.78 567.21 305.38 580.08 289.54C592.95 273.7 609.41 258.16 633.05 254.07C656.68 249.98 678.79 260.71 692.34 274.26C705.89 287.81 727.9 292.94 750.5 277.67V500.5H471.5L415.3 408.09Z" fill="#7A9954"/>
<path d="M703.59 269.18C703.49 276.53 734.88 282.17 735.82 269.18C736.77 256.19 703.73 258.45 703.59 269.18Z" fill="#7A9954"/>
<path opacity="0.5" d="M750.5 357.27C736.39 330.16 712.23 309.18 675.18 326.02C638.13 342.87 643.79 329.78 608.53 326.02C573.27 322.26 556.81 347.48 551.91 368.18C547.02 388.89 524.14 380.23 497.93 384.37C471.72 388.51 469.84 409.22 473.98 425.41C478.12 441.6 462.69 442.73 457.42 447.25C452.15 451.77 450.78 466.45 450.78 466.45L471.49 500.51H750.49V357.27H750.5Z" fill="#4A8171"/>
<path d="M335.7 408.09C335.7 408.09 340.11 383.81 316.32 369.13C292.53 354.45 299.34 345.21 287.28 319.05C275.22 292.89 249.72 297.11 232.67 294.98C215.62 292.85 206.16 267.04 182.43 256.25C158.7 245.46 146.84 255.18 133.85 256.25C120.86 257.32 99.97 239.47 74.56 248.11C49.15 256.75 46.32 277.71 37.85 289.54C29.38 301.37 0.5 304.99 0.5 304.99V500.5H279.5L335.7 408.09Z" fill="#4A8171"/>
<path d="M10.1899 282.73C5.23994 298.22 41.8599 286.12 38.2499 275.39C34.6499 264.66 12.8399 274.45 10.1899 282.73Z" fill="#4A8171"/>
<path d="M223.92 274.26C220.04 286.95 254.13 289.51 255.26 282.73C256.39 275.95 227.03 264.1 223.92 274.26Z" fill="#4A8171"/>
<path opacity="0.5" d="M307.6 454.3C309.47 438.03 300.44 409.01 267.97 410.25C235.5 411.49 247.36 381.99 224.77 362.58C202.18 343.16 183.55 351.63 176.21 356.15C168.87 360.67 142.89 364.06 125.95 333.56C109.01 303.07 74 329.23 61.57 339.58C49.15 349.93 30.35 318.31 0.5 334.12V500.5H279.5L307.6 454.3Z" fill="#7A9954"/>
<path d="M533.45 378.31C569.93 425.61 575.31 480.5 575.31 480.5" stroke="#21261F" stroke-miterlimit="10" stroke-linecap="round" stroke-linejoin="round"/>
<path d="M540.7 356.09C556.07 363.61 541.57 408.31 523.84 396.01C506.12 383.71 522.75 347.3 540.7 356.09Z" fill="#D39F3F"/>
<g opacity="0.61">
<path d="M537.25 354.93C536.46 363.23 534.13 370.4 530.24 376.43L520.11 365.68" stroke="#D39F3F" stroke-width="0.5" stroke-miterlimit="10" stroke-linecap="round" stroke-linejoin="round"/>
<path d="M517.88 388.63L530.24 376.44C534.37 383.12 537.03 389.42 537.25 395.13" stroke="#D39F3F" stroke-width="0.5" stroke-miterlimit="10" stroke-linecap="round" stroke-linejoin="round"/>
<path d="M546.93 371.85C541.91 375.55 536.27 376.77 530.24 376.43" stroke="#D39F3F" stroke-width="0.5" stroke-miterlimit="10" stroke-linecap="round" stroke-linejoin="round"/>
</g>
<path d="M531.09 372.07C534.37 373.66 531.49 379.88 529.18 379.04C526.88 378.19 527.81 370.47 531.09 372.07Z" fill="white"/>
<path d="M680.1 336.06C643.62 383.36 638.24 438.26 638.24 438.26" stroke="#21261F" stroke-miterlimit="10" stroke-linecap="round" stroke-linejoin="round"/>
<path d="M672.85 313.84C657.48 321.36 671.98 366.06 689.71 353.76C707.44 341.46 690.8 305.06 672.85 313.84Z" fill="#D67055"/>
<g opacity="0.7">
<path d="M667.34 336.06C673.23 336.58 678.4 336.04 683.31 333.23C677.96 327.82 674.71 321.22 672.85 313.83" stroke="#D67055" stroke-width="0.5" stroke-miterlimit="10" stroke-linecap="round" stroke-linejoin="round"/>
<path d="M694.23 324.95L683.32 333.24C684.73 339.25 688.59 344.47 694.23 349.12" stroke="#D67055" stroke-width="0.5" stroke-miterlimit="10" stroke-linecap="round" stroke-linejoin="round"/>
<path d="M679.01 354.73C679.03 347.56 680.47 340.4 683.32 333.23" stroke="#D67055" stroke-width="0.5" stroke-miterlimit="10" stroke-linecap="round" stroke-linejoin="round"/>
</g>
<path d="M682.47 329.82C679.19 331.41 682.07 337.63 684.38 336.79C686.68 335.95 685.74 328.23 682.47 329.82Z" fill="white"/>
<path d="M415.3 408.09H375.5H335.7L279.5 500.5H375.5H471.5L415.3 408.09Z" fill="#42353B"/>
<path d="M341.94 408.09C335.81 399.39 336.49 397.93 330.89 401.03C325.28 404.14 264.86 500.49 264.86 500.49H283.21L341.94 408.09Z" fill="#D39F3F"/>
<path d="M405.03 408.09C411.16 399.39 410.48 397.93 416.08 401.03C421.69 404.14 482.11 500.49 482.11 500.49H463.76L405.03 408.09Z" fill="#D39F3F"/>
<path d="M585.04 350.43C575.44 412.4 587.53 460.26 587.53 460.26" stroke="#21261F" stroke-miterlimit="10" stroke-linecap="round" stroke-linejoin="round"/>
<path opacity="0.64" d="M585.04 350.43C664.61 337.96 664.48 291.55 654.33 296.46C654.85 275.45 646.06 264.46 627.93 263.52C619.83 254.36 609.61 250.35 595.27 256.41C582.62 249.07 570.67 251.07 559.6 264.8C548.88 264.43 542.97 273.62 540.91 290.47C523.43 295.9 539.2 334.87 585.04 350.43Z" fill="#588157"/>
<path d="M540.92 290.47C543.65 310.76 575.72 346.3 585.05 350.42C585.05 350.42 559.77 314.09 559.61 264.8" stroke="#21261F" stroke-width="0.5" stroke-miterlimit="10" stroke-linecap="round" stroke-linejoin="round"/>
<path d="M595.27 256.41C581.85 306.56 585.04 350.43 585.04 350.43C585.04 350.43 622.32 302.46 627.93 263.52" stroke="#21261F" stroke-width="0.5" stroke-miterlimit="10" stroke-linecap="round" stroke-linejoin="round"/>
<path d="M654.33 296.46C641.66 324.63 585.04 350.43 585.04 350.43" stroke="#21261F" stroke-width="0.5" stroke-miterlimit="10" stroke-linecap="round" stroke-linejoin="round"/>
<path d="M477.59 421.54C516.82 448.55 527.05 484.39 527.05 484.39" stroke="#21261F" stroke-miterlimit="10" stroke-linecap="round" stroke-linejoin="round"/>
<path opacity="0.64" d="M477.59 421.54C492.2 402.45 502.69 351.05 491.67 333.67C480.65 316.29 462.44 323.48 462.44 323.48C450.01 320.07 442.76 325.71 437.79 335.32C422.11 333.31 403.54 344.19 402.57 366.53C394.51 370.95 391.74 381.02 392.88 395.28C385.65 407.43 385.76 418.53 395.58 428.25C396.43 439.22 402.32 446.56 416.77 447.71C423.74 461.02 439.82 459.23 477.59 421.54Z" fill="#588157"/>
<path d="M462.44 323.48C483.08 362.58 477.59 421.54 477.59 421.54C477.59 421.54 461.8 357.53 437.79 335.32" stroke="#21261F" stroke-width="0.5" stroke-miterlimit="10" stroke-linecap="round" stroke-linejoin="round"/>
<path d="M402.57 366.53C446.82 393.73 477.59 421.53 477.59 421.53C477.59 421.53 425.38 417.92 392.88 395.27" stroke="#21261F" stroke-width="0.5" stroke-miterlimit="10" stroke-linecap="round" stroke-linejoin="round"/>
<path d="M416.77 447.72C446.26 443.42 477.58 421.54 477.58 421.54C477.58 421.54 436.44 438.93 395.57 428.26" stroke="#21261F" stroke-width="0.5" stroke-miterlimit="10" stroke-linecap="round" stroke-linejoin="round"/>
<path d="M112.93 345.85C125.18 403.7 115.34 448.92 115.34 448.92" stroke="#21261F" stroke-miterlimit="10" stroke-linecap="round" stroke-linejoin="round"/>
<path opacity="0.64" d="M112.93 345.85C142.5 338.25 183 287.45 161.65 266.37C159.48 251.09 151.75 243.69 139.5 242.7C131.27 230.26 120.43 227.5 107.33 233.13C92.36 226.27 82.68 232.5 74.65 242.85C63.48 242.2 55.38 248.32 50.81 262.27C39.27 267.59 34.1 278.02 38.27 295.89C38.27 295.89 26.6 310.64 51.42 327.55C76.23 344.45 112.93 345.85 112.93 345.85Z" fill="#588157"/>
<path d="M161.65 266.37C156.27 307.78 112.93 345.85 112.93 345.85C112.93 345.85 138.53 289.54 139.5 242.7" stroke="#21261F" stroke-width="0.5" stroke-miterlimit="10" stroke-linecap="round" stroke-linejoin="round"/>
<path d="M107.33 233.12C121.19 276.52 112.93 345.84 112.93 345.84C112.93 345.84 83.23 281.33 74.65 242.84" stroke="#21261F" stroke-width="0.5" stroke-miterlimit="10" stroke-linecap="round" stroke-linejoin="round"/>
<path d="M38.26 295.88C68.32 336.33 112.93 345.84 112.93 345.84C102.44 339.48 58 297.4 50.8 262.26" stroke="#21261F" stroke-width="0.5" stroke-miterlimit="10" stroke-linecap="round" stroke-linejoin="round"/>
<path d="M202.93 415.26C175.68 445.75 168.86 480.94 168.86 480.94" stroke="#21261F" stroke-miterlimit="10" stroke-linecap="round" stroke-linejoin="round"/>
<path opacity="0.64" d="M202.93 415.26C228.16 426.45 266.93 417.2 279.5 409.87C292.9 402.06 294.3 377.27 289.55 371.39C288.95 355.78 284.18 342.24 267.97 334.4C259.64 318.82 244.36 314.11 223.92 317.46C211.11 311.12 199.44 311.71 189.76 324.24C189.76 324.24 167.67 320.57 168.27 350.22C168.86 379.86 202.93 415.26 202.93 415.26Z" fill="#588157"/>
<path d="M289.55 371.39C262.32 395.11 202.93 415.26 202.93 415.26C202.93 415.26 255.89 366.26 267.97 334.4" stroke="#21261F" stroke-width="0.5" stroke-miterlimit="10" stroke-linecap="round" stroke-linejoin="round"/>
<path d="M223.92 317.46C206.41 358.12 202.93 415.26 202.93 415.26C202.93 415.26 183.55 357.27 189.76 324.24" stroke="#21261F" stroke-width="0.5" stroke-miterlimit="10" stroke-linecap="round" stroke-linejoin="round"/>
<path d="M58.31 338.46C41.03 395.64 55.52 448.86 55.52 448.86" stroke="#21261F" stroke-miterlimit="10" stroke-linecap="round" stroke-linejoin="round"/>
<path d="M43.63 320.26C31.94 332.76 61.39 369.38 73.58 351.58C85.77 333.78 57.28 305.67 43.63 320.26Z" fill="#D39F3F"/>
<g opacity="0.64">
<path d="M51.36 316.29C50.83 320.75 59.37 334.4 59.37 334.4L71.09 327.02" stroke="#D39F3F" stroke-width="0.5" stroke-miterlimit="10" stroke-linecap="round" stroke-linejoin="round"/>
<path d="M76.09 345.87L59.37 334.4C59.37 334.4 57.05 345.31 64.39 356.37" stroke="#D39F3F" stroke-width="0.5" stroke-miterlimit="10" stroke-linecap="round" stroke-linejoin="round"/>
<path d="M45.1 340.95C50.65 335.25 59.37 334.4 59.37 334.4" stroke="#D39F3F" stroke-width="0.5" stroke-miterlimit="10" stroke-linecap="round" stroke-linejoin="round"/>
</g>
<path d="M58.2999 331.78C55.8099 334.44 60.7099 339.22 62.5599 337.62C64.4099 336.01 60.7899 329.13 58.2999 331.78Z" fill="white"/>
<path d="M171.88 395.73C135.4 443.03 130.02 497.92 130.02 497.92" stroke="#21261F" stroke-miterlimit="10" stroke-linecap="round" stroke-linejoin="round"/>
<path d="M164.64 373.51C149.27 381.03 163.77 425.73 181.5 413.43C199.22 401.13 182.58 364.72 164.64 373.51Z" fill="#D67055"/>
<g opacity="0.64">
<path d="M171.88 372.27C170.74 378.35 175.1 393.65 175.1 393.65L187.8 389.27" stroke="#D67055" stroke-width="0.5" stroke-miterlimit="10" stroke-linecap="round" stroke-linejoin="round"/>
<path d="M158.15 387.95C163.78 392.84 175.1 393.65 175.1 393.65L168.86 413.17" stroke="#D67055" stroke-width="0.5" stroke-miterlimit="10" stroke-linecap="round" stroke-linejoin="round"/>
<path d="M187.28 406.46L175.1 393.66" stroke="#D67055" stroke-width="0.5" stroke-miterlimit="10" stroke-linecap="round" stroke-linejoin="round"/>
</g>
<path d="M174.25 389.49C170.97 391.08 173.85 397.3 176.16 396.46C178.46 395.62 177.52 387.9 174.25 389.49Z" fill="white"/>
<path d="M299.81 500.5C302.11 486.02 305.12 471.72 289.69 468.33C274.25 464.94 257.78 472.35 252.04 460.18C246.3 448 240.37 428.85 226.82 428.45C213.27 428.05 212.14 450.64 194.82 448.38C177.5 446.12 176.94 415.28 162.07 415.26C147.2 415.25 128.94 425.96 126.31 454.3C123.67 482.64 132.51 500.5 132.51 500.5H299.81Z" fill="#4A8171"/>
<path d="M0.5 404.56C11.31 388.33 48.58 386.28 68.91 415.26C89.24 444.23 101.79 435.2 135.33 437.46C168.87 439.72 185.81 486.18 184.11 500.5H0.5V404.56Z" fill="#7A9954"/>
<path d="M81.9 408.09C72.67 413.18 94.13 437.83 111.07 428.42C128.01 419.01 94.89 400.93 81.9 408.09Z" fill="#7A9954"/>
<path d="M444.07 500.5C447.83 481.51 460.82 465.69 486.23 470.78C511.64 475.86 527.85 465.83 537.25 444.31C546.65 422.78 555.87 413.75 577.52 412.05C599.17 410.36 621.19 427.3 637 417.7C652.81 408.1 683.71 393.98 686.33 431.25C688.95 468.52 681.61 500.5 681.61 500.5H444.07Z" fill="#7A9954"/>
<path d="M750.5 369.13C712.11 351.06 668.06 365.39 645.47 415.26C622.88 465.13 580.01 446.19 564.46 460.18C548.91 474.17 561.61 500.5 561.61 500.5H750.51V369.13H750.5Z" fill="#4A8171"/>
<mask id="mask0_1998_5167" style="mask-type:luminance" maskUnits="userSpaceOnUse" x="0" y="296" width="751" height="205">
<path d="M750.5 296.28H0.5V500.5H750.5V296.28Z" fill="white"/>
</mask>
<g mask="url(#mask0_1998_5167)">
<path d="M91.6 506.89C91.6 506.89 65.05 510.85 58.91 497.63C52.76 484.42 56.29 481.34 39.99 468.99C23.69 456.63 27.52 444.05 19.71 428.42C11.9 412.79 0.62999 403.15 9.03999 401.56C17.45 399.97 32.02 407.96 43.44 418.83C54.86 429.7 62.07 433.08 70.57 435.37C79.07 437.66 85.92 449.51 84 462.25C82.09 474.99 95.8 478.8 98.16 488.43C100.52 498.06 91.6 506.89 91.6 506.89Z" fill="#4A8171"/>
<path d="M6.13 403.62C61.23 446.15 91.59 506.89 91.59 506.89" stroke="#21261F" stroke-width="0.5" stroke-miterlimit="10" stroke-linecap="round" stroke-linejoin="round"/>
<path d="M89.91 476.96C91.14 485.74 86.5 497.61 86.5 497.61C86.5 497.61 64.56 490.45 52.6 481.74" stroke="#21261F" stroke-width="0.5" stroke-miterlimit="10" stroke-linecap="round" stroke-linejoin="round"/>
<path d="M61.78 432.24C71.66 460.57 72.23 475.09 72.23 475.09C72.23 475.09 41.98 460.13 25.88 447.24" stroke="#21261F" stroke-width="0.5" stroke-miterlimit="10" stroke-linecap="round" stroke-linejoin="round"/>
<path d="M23.74 404.84C29.36 412.77 37.02 431.57 37.02 431.57C37.02 431.57 28.46 433.97 19.7 428.41" stroke="#21261F" stroke-width="0.5" stroke-miterlimit="10" stroke-linecap="round" stroke-linejoin="round"/>
<path d="M121.26 512.53C134.26 506.02 146.19 489.39 139.89 478.56C133.58 467.73 131.7 461.76 140 449.76C148.31 437.76 139 434.69 140.85 421.77C142.7 408.85 153.66 388.11 141.49 382.53C129.33 376.95 115.6 395.5 110.31 412.6C105.02 429.7 86.74 435.14 87.02 447.87C87.3 460.6 96.5 461.45 96.96 470.33C97.43 479.2 88.64 481.58 90.73 493.13C92.83 504.69 121.26 512.53 121.26 512.53Z" fill="#4A8171"/>
<path d="M141.49 382.53C99.52 466.83 121.26 512.53 121.26 512.53" stroke="#21261F" stroke-width="0.5" stroke-miterlimit="10" stroke-linecap="round" stroke-linejoin="round"/>
<path d="M115.21 400.84C114.76 420.09 120.08 440.77 120.08 440.77C120.08 440.77 131.69 423.36 143.29 411.52" stroke="#21261F" stroke-width="0.5" stroke-miterlimit="10" stroke-linecap="round" stroke-linejoin="round"/>
<path d="M142.39 445.54C124.62 465 115.64 477.89 115.64 477.89C115.64 477.89 98.09 461.88 87.48 444.22" stroke="#21261F" stroke-width="0.5" stroke-miterlimit="10" stroke-linecap="round" stroke-linejoin="round"/>
<path d="M117.94 506.08C125.55 513.34 144.87 519.01 152.29 514.85C159.71 510.69 163.15 502.91 171.08 502.19C179.01 501.47 187.91 499.83 190.61 487.16C193.32 474.48 191.03 470.15 200.85 465.33C210.66 460.51 207.15 452.35 213.87 444.25C220.6 436.15 221.11 425.11 208.57 430.86C196.03 436.61 187.54 432.78 179.08 437.02C170.62 441.27 172.96 450.5 163.71 454.4C154.46 458.3 142.7 458.54 140.79 469.52C138.88 480.5 139.31 490.72 131.49 492.62C120.89 495.21 117.94 506.08 117.94 506.08Z" fill="#4A8171"/>
<path d="M218.12 431.32C190.04 449.01 186.49 454.37 166.4 476.44C146.32 498.51 126.97 506.69 117.94 506.08" stroke="#21261F" stroke-width="0.5" stroke-miterlimit="10" stroke-linecap="round" stroke-linejoin="round"/>
<path d="M185.79 435.04C176.19 448.97 172.68 469.52 172.68 469.52C172.68 469.52 197.43 461.7 208.34 456.57" stroke="#21261F" stroke-width="0.5" stroke-miterlimit="10" stroke-linecap="round" stroke-linejoin="round"/>
<path d="M155.28 457.25C149.72 475.15 148.73 492.73 148.73 492.73C148.73 492.73 179.41 488.46 190.61 487.16" stroke="#21261F" stroke-width="0.5" stroke-miterlimit="10" stroke-linecap="round" stroke-linejoin="round"/>
<path d="M220.78 511.25C220.78 511.25 255.36 446.79 286.87 421.79" stroke="#21261F" stroke-miterlimit="10" stroke-linecap="round" stroke-linejoin="round"/>
<path d="M299.72 412.16C296.29 408.21 287.55 417 289.82 418.95C292.09 420.9 301.91 414.68 299.72 412.16Z" fill="#D39F3F"/>
<path d="M283.1 414.57C280.18 412.7 272.47 422.42 275.38 424.28C278.3 426.15 286.02 416.44 283.1 414.57Z" fill="#D39F3F"/>
<path d="M288.45 428C287.1 425.72 275.58 432.21 278.39 435.27C281.2 438.32 290.17 430.89 288.45 428Z" fill="#D39F3F"/>
<path d="M266.31 420.54C263.71 418.97 259.97 427.9 262.41 428.31C264.84 428.72 268.34 421.76 266.31 420.54Z" fill="#D39F3F"/>
<path d="M268.93 430.68C266.27 428.5 257.14 442.1 260.51 443.81C263.89 445.52 273.24 434.21 268.93 430.68Z" fill="#D39F3F"/>
<path d="M273.9 444.62C270.39 440.91 259.13 452.23 262.74 454.74C266.34 457.26 276.81 447.7 273.9 444.62Z" fill="#D39F3F"/>
<path d="M253.56 445.66C248.06 443.79 246.42 452.9 249.78 453.49C253.13 454.08 256.72 446.74 253.56 445.66Z" fill="#D39F3F"/>
<path d="M660.69 510.35C663.22 487.16 647.79 491.43 636.05 483.88C624.31 476.33 624.74 466.1 610.75 466.28C596.76 466.46 590.45 466.43 580.64 457.87C570.83 449.31 563.76 455.36 550.67 458.9C537.58 462.44 529.36 470.08 539.3 475.12C549.23 480.16 562.67 476.57 565.26 481.75C567.86 486.93 565.65 499.21 579.7 497.27C593.75 495.33 602.58 491.44 607.11 495.61C611.64 499.78 615.72 505.42 625.56 503.47C635.4 501.52 647.11 502.41 652.79 504.99C658.47 507.57 660.69 510.35 660.69 510.35Z" fill="#4A8171"/>
<path d="M534.92 470.17C580.27 468.43 646.45 485.33 660.69 510.34" stroke="#21261F" stroke-width="0.5" stroke-miterlimit="10" stroke-linecap="round" stroke-linejoin="round"/>
<path d="M559.92 455.88C580.11 463.2 606.79 479.45 606.79 479.45C606.79 479.45 591.75 479.91 567.33 489.66" stroke="#21261F" stroke-width="0.5" stroke-miterlimit="10" stroke-linecap="round" stroke-linejoin="round"/>
<path d="M614.81 466.57C624.65 476.27 636.96 490.89 636.96 490.89C636.96 490.89 621.53 491.5 607.12 495.6" stroke="#21261F" stroke-width="0.5" stroke-miterlimit="10" stroke-linecap="round" stroke-linejoin="round"/>
<path d="M669.84 505.49C682.84 498.98 694.77 482.35 688.47 471.52C682.16 460.69 680.28 454.72 688.58 442.72C696.89 430.72 687.58 427.65 689.43 414.73C691.28 401.81 702.24 381.07 690.07 375.49C677.91 369.91 664.18 388.46 658.89 405.56C653.6 422.66 635.32 428.1 635.6 440.83C635.88 453.56 645.08 454.41 645.54 463.29C646.01 472.16 637.22 474.54 639.31 486.09C641.41 497.65 669.84 505.49 669.84 505.49Z" fill="#4A8171"/>
<path d="M690.07 375.5C648.1 459.8 669.84 505.5 669.84 505.5" stroke="#21261F" stroke-width="0.5" stroke-miterlimit="10" stroke-linecap="round" stroke-linejoin="round"/>
<path d="M663.79 393.8C663.34 413.05 668.66 433.73 668.66 433.73C668.66 433.73 680.27 416.32 691.87 404.48" stroke="#21261F" stroke-width="0.5" stroke-miterlimit="10" stroke-linecap="round" stroke-linejoin="round"/>
<path d="M690.97 438.51C673.2 457.97 664.22 470.86 664.22 470.86C664.22 470.86 646.67 454.85 636.06 437.19" stroke="#21261F" stroke-width="0.5" stroke-miterlimit="10" stroke-linecap="round" stroke-linejoin="round"/>
<path d="M669.84 505.49C679.56 509.51 699.62 507.82 705.04 501.26C710.46 494.7 710.86 486.2 717.99 482.67C725.12 479.13 732.83 474.39 730.77 461.59C728.71 448.79 725.02 445.57 732.43 437.53C739.84 429.49 733.61 423.15 736.96 413.17C740.3 403.19 736.8 392.71 727.18 402.6C717.56 412.49 708.26 411.99 701.91 419C695.56 426.01 701.08 433.78 693.86 440.76C686.64 447.74 675.76 452.21 677.95 463.14C680.14 474.07 684.23 483.45 677.63 488.04C668.67 494.29 669.84 505.49 669.84 505.49Z" fill="#4A8171"/>
<path d="M736.25 399.59C716.46 426.23 715.08 432.51 704.33 460.35C693.58 488.18 678.49 502.81 669.85 505.5" stroke="#21261F" stroke-width="0.5" stroke-miterlimit="10" stroke-linecap="round" stroke-linejoin="round"/>
<path d="M707.44 414.74C703.52 431.2 707.67 451.63 707.67 451.63C707.67 451.63 727.93 435.39 736.24 426.67" stroke="#21261F" stroke-width="0.5" stroke-miterlimit="10" stroke-linecap="round" stroke-linejoin="round"/>
<path d="M687.02 446.47C688.3 465.17 693.73 481.92 693.73 481.92C693.73 481.92 720.79 466.86 730.77 461.59" stroke="#21261F" stroke-width="0.5" stroke-miterlimit="10" stroke-linecap="round" stroke-linejoin="round"/>
<path d="M542.83 456.67C544.51 460.47 557.29 453.67 556.7 450.53C556.12 447.39 541.15 452.88 542.83 456.67Z" fill="#4A8171"/>
<path d="M476.37 459.86C522.23 485.03 545.8 527.21 545.8 527.21" stroke="#21261F" stroke-miterlimit="10" stroke-linecap="round" stroke-linejoin="round"/>
<path d="M482.07 440.97C495.57 447.48 483.12 486.71 467.53 476.03C451.94 465.35 466.31 433.38 482.07 440.97Z" fill="#D67055"/>
<g opacity="0.62">
<path d="M475.05 439.82L473.02 457.8C477.81 457.34 482.73 455.33 487.78 451.62" stroke="#D67055" stroke-width="0.5" stroke-miterlimit="10" stroke-linecap="round" stroke-linejoin="round"/>
<path d="M478.25 475.99C479.11 471.09 477.37 465.02 473.01 457.8L462.47 470.05" stroke="#D67055" stroke-width="0.5" stroke-miterlimit="10" stroke-linecap="round" stroke-linejoin="round"/>
<path d="M462.47 453.7L473.01 457.8" stroke="#D67055" stroke-width="0.5" stroke-miterlimit="10" stroke-linecap="round" stroke-linejoin="round"/>
</g>
<path d="M473.74 455.02C476.62 456.4 474.13 461.86 472.11 461.13C470.09 460.41 470.86 453.64 473.74 455.02Z" fill="white"/>
<path d="M647.87 506.1C647.87 506.1 626.28 436.21 600.14 405.63" stroke="#21261F" stroke-miterlimit="10" stroke-linecap="round" stroke-linejoin="round"/>
<path d="M589.38 393.72C593.5 390.5 602.6 403.92 600.15 405.63C594.78 409.37 586.75 395.77 589.38 393.72Z" fill="#D67055"/>
<path d="M605.23 399.26C608.45 397.98 614.16 409 610.94 410.27C607.72 411.55 602.01 400.54 605.23 399.26Z" fill="#D67055"/>
<path d="M625.56 438.36C628.78 437.08 632.95 446.21 629.73 447.48C626.51 448.76 622.34 439.64 625.56 438.36Z" fill="#D67055"/>
<path d="M597.41 411.42C599.17 409.44 609.24 418.02 605.89 420.48C602.54 422.94 595.17 413.93 597.41 411.42Z" fill="#D67055"/>
<path d="M598.88 422.69C601.73 421.65 603.69 431.13 601.22 431.07C598.75 431.01 596.66 423.5 598.88 422.69Z" fill="#D67055"/>
<path d="M611.79 416.51C614.82 414.88 621.18 429.98 617.53 431.01C613.89 432.05 606.88 419.15 611.79 416.51Z" fill="#D67055"/>
<path d="M608.51 430.52C612.66 427.55 621.55 440.82 617.53 442.59C613.5 444.38 605.05 432.99 608.51 430.52Z" fill="#D67055"/>
<path d="M625.15 425.23C630.91 424.45 630.77 433.7 627.36 433.64C623.95 433.56 621.83 425.67 625.15 425.23Z" fill="#D67055"/>
</g>
<path d="M170.68 0.5V34.26L141.24 75.08" stroke="white" stroke-miterlimit="10" stroke-linecap="round" stroke-linejoin="round"/>
<path d="M200.11 75.08L170.68 34.26" stroke="white" stroke-miterlimit="10" stroke-linecap="round" stroke-linejoin="round"/>
<path d="M200.11 75.0801H170.68H141.25C138.36 88.9301 140.59 105.96 144.92 124.29C153.04 136.12 184.56 138.86 196.44 124.29C200.76 105.96 203 88.9301 200.11 75.0801Z" fill="#D39F3F"/>
<path d="M141.24 75.0801L170.33 134.21L200.11 75.0801" stroke="white" stroke-miterlimit="10" stroke-linecap="round" stroke-linejoin="round"/>
<path d="M143.22 67.46C146.33 51.37 82.8 65.2 82.8 65.2L143.22 67.46Z" fill="#588157"/>
<path d="M156.77 67.46C156.77 67.46 171.58 68.02 170.67 75.08C169.76 82.14 107.64 156.12 107.64 156.12C107.64 156.12 139.57 69.97 143.09 64.9C146.61 59.83 156.77 67.46 156.77 67.46Z" fill="#588157"/>
<path d="M156.77 67.4601C146.04 92.8701 107.64 156.12 107.64 156.12" stroke="#21261F" stroke-width="0.5" stroke-miterlimit="10" stroke-linecap="round" stroke-linejoin="round"/>
<path d="M174.84 71.98L243.17 93.44C243.17 93.44 199.12 61.2 186.98 59.67C174.84 58.14 174.84 71.98 174.84 71.98Z" fill="#588157"/>
<path d="M156.77 67.4601C144.06 57.0101 139.55 64.3501 118.65 79.3201C97.75 94.2901 73.11 113.83 73.11 113.83L156.77 67.4601Z" fill="#588157"/>
<path d="M170.68 63.56C170.68 63.56 161.58 57.29 153.96 61.24C146.33 65.2 188.96 166 188.96 166C188.96 166 194.89 120.99 190.94 90.33C186.99 59.67 185.29 57.89 180.49 57.45C175.69 57.01 170.68 63.56 170.68 63.56Z" fill="#588157"/>
<path d="M170.68 63.5601C178.23 97.6701 188.96 166 188.96 166" stroke="#21261F" stroke-width="0.5" stroke-miterlimit="10" stroke-linecap="round" stroke-linejoin="round"/>
<path d="M587.18 0.5V63.51L557.75 104.33" stroke="white" stroke-miterlimit="10" stroke-linecap="round" stroke-linejoin="round"/>
<path d="M616.61 104.33L587.18 63.51" stroke="white" stroke-miterlimit="10" stroke-linecap="round" stroke-linejoin="round"/>
<path d="M550.98 103.77H587.09H623.2C629.39 123.44 624.82 138.32 604.49 146.15C592.44 149.25 580.85 149.13 569.68 146.15C549.36 138.32 544.79 123.44 550.98 103.77Z" fill="#D39F3F"/>
<path d="M557.75 104.33L587.18 148.42L616.61 104.33" stroke="white" stroke-miterlimit="10" stroke-linecap="round" stroke-linejoin="round"/>
<path d="M607.14 103.77C611.61 95.98 619.31 95.54 623.98 95.29" stroke="#21261F" stroke-width="0.5" stroke-miterlimit="10" stroke-linecap="round" stroke-linejoin="round"/>
<path d="M624.56 78.8201C599.89 83.0201 594.53 103.77 594.53 103.77" stroke="#21261F" stroke-width="0.5" stroke-miterlimit="10" stroke-linecap="round" stroke-linejoin="round"/>
<path d="M598.29 51.41C583.06 67.96 587.8 103.77 587.8 103.77" stroke="#21261F" stroke-width="0.5" stroke-miterlimit="10" stroke-linecap="round" stroke-linejoin="round"/>
<path d="M556.88 64.7201C581.31 79.4301 583.23 103.77 583.23 103.77" stroke="#21261F" stroke-width="0.5" stroke-miterlimit="10" stroke-linecap="round" stroke-linejoin="round"/>
<path d="M565.99 92.48C574.31 92.48 578.38 103.77 578.38 103.77" stroke="#21261F" stroke-width="0.5" stroke-miterlimit="10" stroke-linecap="round" stroke-linejoin="round"/>
<path d="M615.54 79.46C621.55 57.99 658.09 73.83 654.15 90.02C650.21 106.22 610.02 99.19 615.54 79.46Z" fill="#588157"/>
<path opacity="0.49" d="M624.56 78.82C625.26 77.77 628.32 77.86 627.97 79.78C627.62 81.71 623.86 79.87 624.56 78.82Z" fill="#588157"/>
<path d="M605.82 44.76C630.48 48.03 607.5 74.22 587.09 72.34C566.68 70.46 572.2 40.29 605.82 44.76Z" fill="#588157"/>
<path opacity="0.49" d="M600.74 48.2601C603.7 49.3301 600.3 52.2901 598.29 51.4101C596.28 50.5401 597.59 47.1201 600.74 48.2601Z" fill="#588157"/>
<path d="M566.44 86.38C587.72 86.27 584.03 127.15 564.33 124.44C544.62 121.72 543.86 86.49 566.44 86.38Z" fill="#588157"/>
<path opacity="0.49" d="M565.99 92.4799C570.1 92.6199 568.99 96.6299 566.44 96.4399C563.89 96.2399 563.45 92.3899 565.99 92.4799Z" fill="#588157"/>
<path d="M625.77 88.8501C643.91 89.6801 660.21 124.6 644.18 129.07C628.15 133.54 596.07 87.5001 625.77 88.8501Z" fill="#588157"/>
<path opacity="0.49" d="M624.95 94.8001C627.04 94.2401 629.25 98.1801 626.82 99.0101C624.38 99.8301 621.36 95.7601 624.95 94.8001Z" fill="#588157"/>
<path d="M654.45 104.82C660.27 101.37 666.24 113.58 660.46 114.45C654.68 115.33 650.02 107.45 654.45 104.82Z" fill="#588157"/>
<path d="M561.43 61.75C575.09 68.14 558.1 81.8 542.56 85.21C527.02 88.62 513.89 84.92 532.28 69.05C550.66 53.17 561.43 61.75 561.43 61.75Z" fill="#588157"/>
<path opacity="0.49" d="M556.88 64.7199C558.89 66.2099 554.87 67.87 553.38 66.73C551.89 65.6 554.87 63.2299 556.88 64.7199Z" fill="#588157"/>
<path d="M546.46 51.57C550.64 55.59 539.5 58.68 538.06 55.79C536.61 52.9 543.44 48.67 546.46 51.57Z" fill="#588157"/>
<path d="M549.71 180.24C548.14 191.36 542.7 195.97 534.74 196.33C543.62 197.41 548.61 202.77 549.71 212.42C550.81 202.77 555.8 197.41 564.68 196.33C556.72 195.97 551.28 191.36 549.71 180.24Z" fill="#EB997C"/>
<path d="M462.26 175.47C461.31 182.19 458.03 184.97 453.22 185.19C458.58 185.84 461.59 189.08 462.26 194.91C462.92 189.08 465.94 185.85 471.3 185.19C466.49 184.97 463.21 182.18 462.26 175.47Z" fill="#D39F3F"/>
<path d="M165.89 165.75C164.94 172.47 161.66 175.25 156.85 175.47C162.21 176.12 165.22 179.36 165.89 185.19C166.55 179.36 169.57 176.13 174.93 175.47C170.12 175.25 166.84 172.47 165.89 165.75Z" fill="#4A8171"/>
<path d="M66.0299 67.59C64.4399 78.85 58.9399 83.52 50.8799 83.88C59.8699 84.97 64.9099 90.4 66.0299 100.17C67.1399 90.4 72.1899 84.98 81.1799 83.88C73.1199 83.51 67.6199 78.84 66.0299 67.59Z" fill="#D39F3F"/>
<path d="M717.13 67.74C715.54 79 710.04 83.67 701.98 84.03C710.97 85.12 716.02 90.55 717.13 100.32C718.24 90.55 723.29 85.13 732.28 84.03C724.22 83.66 718.72 78.99 717.13 67.74Z" fill="#4A8171"/>
<path d="M677.14 44.99C675.97 53.24 671.94 56.66 666.04 56.92C672.62 57.72 676.32 61.7 677.14 68.86C677.96 61.7 681.66 57.73 688.24 56.92C682.34 56.66 678.31 53.24 677.14 44.99Z" fill="#D39F3F"/>
<path d="M124.24 149.37C122.62 160.81 117.03 165.55 108.85 165.92C117.98 167.03 123.11 172.55 124.24 182.47C125.37 172.55 130.5 167.03 139.63 165.92C131.45 165.55 125.86 160.81 124.24 149.37Z" fill="#EB997C"/>
<path opacity="0.66" d="M319.92 398.64C318.7 407.27 314.48 410.85 308.31 411.13C315.2 411.97 319.07 416.13 319.92 423.62C320.77 416.13 324.64 411.97 331.53 411.13C325.36 410.85 321.14 407.27 319.92 398.64Z" fill="white"/>
<path opacity="0.66" d="M710.14 363.95C708.92 372.58 704.7 376.16 698.53 376.44C705.42 377.28 709.29 381.44 710.14 388.93C710.99 381.44 714.86 377.28 721.75 376.44C715.57 376.16 711.36 372.58 710.14 363.95Z" fill="white"/>
<path opacity="0.66" d="M185.89 277.58C184.84 285.03 181.2 288.12 175.87 288.36C181.82 289.08 185.16 292.68 185.89 299.14C186.63 292.68 189.97 289.08 195.91 288.36C190.59 288.12 186.95 285.03 185.89 277.58Z" fill="white"/>
<path opacity="0.66" d="M526.49 426.41C525.44 433.86 521.8 436.95 516.47 437.19C522.42 437.91 525.76 441.51 526.49 447.97C527.23 441.51 530.57 437.91 536.51 437.19C531.18 436.95 527.54 433.86 526.49 426.41Z" fill="white"/>
<path opacity="0.66" d="M25.8799 350.36C24.2299 362.02 18.5299 366.86 10.1899 367.23C19.4999 368.36 24.7299 373.99 25.8799 384.1C27.0299 373.99 32.2599 368.36 41.5699 367.23C33.2299 366.86 27.5299 362.02 25.8799 350.36Z" fill="white"/>
<path opacity="0.66" d="M526.77 306.57C525.12 318.23 519.42 323.07 511.08 323.44C520.39 324.57 525.62 330.2 526.77 340.31C527.92 330.2 533.15 324.57 542.46 323.44C534.12 323.07 528.42 318.23 526.77 306.57Z" fill="white"/>
</svg>
