<svg width="219" height="216" viewBox="0 0 219 216" fill="none" xmlns="http://www.w3.org/2000/svg">
<g clip-path="url(#clip0_1986_4692)">
<path d="M166.68 146.27C166.81 146.64 166.94 147 167.06 147.38C169.02 148.53 170.9 149.81 172.67 151.22C174.45 151.14 176.24 151.08 178.02 151V145.7C174.24 145.86 170.46 146.04 166.68 146.27Z" fill="#EBD9A5"/>
<path d="M178.02 60.9299H45.9501V199.47H178.02V60.9299Z" fill="#EDE7E2"/>
<path opacity="0.53" d="M47.2401 81.0699C68.2101 70.5799 91.6601 67.0899 114.95 68.7299C136.56 70.2499 158.88 74.3999 178.02 85.0999V60.9299H45.9501V81.7499C46.3801 81.5299 46.8101 81.2899 47.2401 81.0699Z" fill="#EBD9A5"/>
<path d="M111.99 84.5599C149.71 84.5599 159.72 118.81 159.72 133.24C159.72 147.67 159.72 199.47 159.72 199.47H112.04L111.99 84.5599Z" fill="#7A9954"/>
<path d="M111.99 84.5599C74.2701 84.5599 64.2601 118.81 64.2601 133.24C64.2601 147.67 64.2601 199.47 64.2601 199.47H111.94L111.99 84.5599Z" fill="#7A9954"/>
<g opacity="0.48">
<path d="M82.6001 184.52C81.6901 180.89 70.7901 188.46 70.7901 188.46C70.7901 188.46 94.7201 162.41 91.9901 156.96C89.2601 151.51 78.5001 159.38 78.5001 159.38C78.5001 159.38 93.8101 141.2 92.2901 136.96C90.7801 132.72 78.5001 140.29 78.5001 140.29C78.5001 140.29 93.7401 118.28 91.0801 113.34C88.4201 108.4 77.1501 118.79 77.1501 118.79C81.3401 107.78 82.8101 101.32 72.9301 105.07C66.5201 115.07 64.2601 126.39 64.2601 133.24C64.2601 147.67 64.2601 199.47 64.2601 199.47H73.5201C73.5101 199.47 83.5101 188.16 82.6001 184.52Z" fill="#588157"/>
<path d="M127.64 86.84C122.87 87.8 122.79 91.68 128.82 96.67C128.82 96.67 119.26 96.67 120.77 100C122.28 103.33 141.97 113.33 141.97 113.33C141.97 113.33 123.87 106.98 122.89 113.33C121.9 119.68 141.97 128.74 141.97 128.74C141.97 128.74 129.39 126.66 131.29 132.11C133.19 137.56 141.97 146.04 141.97 146.04C141.97 146.04 125.92 139.68 126.22 144.53C126.52 149.38 145.59 168.76 145.59 168.76C145.59 168.76 137.43 163.61 134.4 166.64C131.37 169.67 145.59 191.78 145.59 191.78C145.59 191.78 132.02 182.69 128.82 186.02C125.62 189.35 123.19 199.45 123.19 199.45H159.72C159.72 199.45 159.72 147.66 159.72 133.22C159.72 121.05 152.58 94.73 127.64 86.84Z" fill="#588157"/>
</g>
<path d="M159.79 177.06C147.93 151.37 122.52 145.61 122.8 151.74C123.08 157.86 146.61 182.15 146.61 182.15C146.61 182.15 115.46 162.95 111.22 168.6C106.98 174.25 140.16 190.34 140.16 190.34C140.16 190.34 123.78 184.13 119.76 187.8C115.74 191.47 140.16 199.48 140.16 199.48H159.72L159.79 177.06Z" fill="#4A8171"/>
<path d="M106.13 199.47C104.73 190.05 86.3801 194.57 86.3801 194.57C86.3801 194.57 100.77 183.56 96.2601 178.19C91.7501 172.83 77.0701 188.83 77.0701 188.83C77.0701 188.83 85.6001 168.87 78.5101 166.61C71.4201 164.35 64.5301 177.06 64.5301 177.06L64.2601 199.47H106.13Z" fill="#4A8171"/>
<path d="M111.99 84.5599C74.2701 84.5599 64.2601 118.81 64.2601 133.24C64.2601 147.67 64.2601 199.47 64.2601 199.47H111.94L111.99 84.5599Z" stroke="white" stroke-width="0.5" stroke-miterlimit="10" stroke-linecap="round" stroke-linejoin="round"/>
<path d="M111.99 84.5599C149.71 84.5599 159.72 118.81 159.72 133.24C159.72 147.67 159.72 199.47 159.72 199.47H112.04L111.99 84.5599Z" stroke="white" stroke-width="0.5" stroke-miterlimit="10" stroke-linecap="round" stroke-linejoin="round"/>
<path d="M64.5302 128.75H159.52" stroke="white" stroke-width="0.5" stroke-miterlimit="10" stroke-linecap="round" stroke-linejoin="round"/>
<path d="M78.5001 97.9399L112.05 128.75" stroke="white" stroke-width="0.5" stroke-miterlimit="10" stroke-linecap="round" stroke-linejoin="round"/>
<path d="M145.59 97.9399L112.05 128.75" stroke="white" stroke-width="0.5" stroke-miterlimit="10" stroke-linecap="round" stroke-linejoin="round"/>
<path d="M108.76 146.76H106.13V162.71H108.76V146.76Z" fill="white"/>
<path d="M117.61 146.76H114.98V162.71H117.61V146.76Z" fill="white"/>
<path d="M164.12 14.69C132.33 -1.65999 111.99 2.50001 111.99 2.50001C111.99 2.50001 91.6401 -1.65999 59.8501 14.69C20.6101 34.88 22.8501 63.44 22.8501 63.44H111.98H201.11C201.12 63.44 203.36 34.87 164.12 14.69Z" fill="#EDE7E2"/>
<path d="M111.85 51.2C127.97 42.31 111.99 19.29 111.99 19.29L111.85 51.2Z" fill="#7A9954"/>
<path d="M111.85 51.2C95.73 42.31 111.99 19.29 111.99 19.29L111.85 51.2Z" fill="#7A9954"/>
<path d="M120.85 53.3C117.73 35.16 145.69 33.28 145.69 33.28L120.85 53.3Z" fill="#7A9954"/>
<path d="M120.85 53.3C137.86 60.35 145.69 33.28 145.69 33.28L120.85 53.3Z" fill="#7A9954"/>
<path d="M102.12 53.3C105.24 35.16 77.28 33.28 77.28 33.28L102.12 53.3Z" fill="#7A9954"/>
<path d="M102.12 53.3C85.11 60.35 77.28 33.28 77.28 33.28L102.12 53.3Z" fill="#7A9954"/>
<path d="M111.85 51.2C127.97 42.31 111.99 19.29 111.99 19.29L111.85 51.2Z" stroke="white" stroke-width="0.5" stroke-miterlimit="10" stroke-linecap="round" stroke-linejoin="round"/>
<path d="M111.85 51.2C95.73 42.31 111.99 19.29 111.99 19.29L111.85 51.2Z" stroke="white" stroke-width="0.5" stroke-miterlimit="10" stroke-linecap="round" stroke-linejoin="round"/>
<path d="M120.85 53.3C117.73 35.16 145.69 33.28 145.69 33.28L120.85 53.3Z" stroke="white" stroke-width="0.5" stroke-miterlimit="10" stroke-linecap="round" stroke-linejoin="round"/>
<path d="M120.85 53.3C137.86 60.35 145.69 33.28 145.69 33.28L120.85 53.3Z" stroke="white" stroke-width="0.5" stroke-miterlimit="10" stroke-linecap="round" stroke-linejoin="round"/>
<path d="M102.12 53.3C105.24 35.16 77.28 33.28 77.28 33.28L102.12 53.3Z" stroke="white" stroke-width="0.5" stroke-miterlimit="10" stroke-linecap="round" stroke-linejoin="round"/>
<path d="M102.12 53.3C85.11 60.35 77.28 33.28 77.28 33.28L102.12 53.3Z" stroke="white" stroke-width="0.5" stroke-miterlimit="10" stroke-linecap="round" stroke-linejoin="round"/>
<g opacity="0.53">
<path d="M126.37 57.4701C141.65 57.4701 148.3 35.0601 148.58 34.1101C148.58 34.1001 148.58 34.0901 148.59 34.0801C148.61 33.9901 148.63 33.9001 148.64 33.8101C148.65 33.7401 148.67 33.6801 148.68 33.6101C148.69 33.5301 148.69 33.4501 148.69 33.3701C148.69 33.2901 148.7 33.2101 148.7 33.1301C148.7 33.0601 148.68 32.9901 148.68 32.9201C148.67 32.8301 148.66 32.7401 148.65 32.6601C148.64 32.6001 148.61 32.5401 148.6 32.4701C148.58 32.3801 148.55 32.2901 148.52 32.2001C148.52 32.1901 148.51 32.1801 148.51 32.1701C148.48 32.1001 148.45 32.0401 148.42 31.9801C148.39 31.9101 148.36 31.8501 148.32 31.7801C148.27 31.7001 148.22 31.6301 148.17 31.5501C148.13 31.5001 148.1 31.4501 148.07 31.4001C147.99 31.3001 147.91 31.2101 147.82 31.1201C147.8 31.1001 147.78 31.0801 147.76 31.0601C147.65 30.9501 147.52 30.8601 147.39 30.7701L147.38 30.7601C147.32 30.7201 147.27 30.7001 147.21 30.6601C147.14 30.6201 147.08 30.5801 147.01 30.5501C146.93 30.5101 146.85 30.4901 146.78 30.4601C146.72 30.4401 146.66 30.4101 146.6 30.3901C146.51 30.3601 146.42 30.3501 146.33 30.3301C146.28 30.3201 146.22 30.3001 146.17 30.2901C146.03 30.2701 145.89 30.2601 145.74 30.2601C145.73 30.2601 145.73 30.2601 145.72 30.2601C145.65 30.2601 145.59 30.2601 145.52 30.2701C144.85 30.3101 129.73 31.4301 122.06 39.5501C122.37 29.0801 114.84 18.0901 114.48 17.5701C114.48 17.5601 114.47 17.5601 114.46 17.5501C114.34 17.3701 114.19 17.2201 114.03 17.0701C113.99 17.0401 113.95 17.0001 113.92 16.9701C113.76 16.8401 113.6 16.7201 113.42 16.6301C113.41 16.6201 113.4 16.6201 113.39 16.6101C113.24 16.5401 113.09 16.4701 112.93 16.4201C112.89 16.4101 112.84 16.4001 112.79 16.3901C112.74 16.3801 112.69 16.3701 112.64 16.3601C112.43 16.3101 112.22 16.2801 112.01 16.2801C111.8 16.2801 111.59 16.3101 111.38 16.3501C111.33 16.3601 111.29 16.3701 111.24 16.3801C111.2 16.3901 111.16 16.4001 111.11 16.4101C110.95 16.4601 110.79 16.5301 110.64 16.6001C110.63 16.6101 110.61 16.6201 110.6 16.6201C110.42 16.7101 110.26 16.8301 110.11 16.9501C110.07 16.9801 110.04 17.0101 110 17.0401C109.84 17.1801 109.69 17.3401 109.57 17.5101C109.57 17.5201 109.56 17.5201 109.55 17.5301C109.17 18.0601 101.05 29.7201 101.79 40.4701C94.4401 31.4901 78.1901 30.2901 77.4901 30.2501C77.4201 30.2501 77.3601 30.2401 77.2901 30.2401C77.2801 30.2401 77.2801 30.2401 77.2701 30.2401C77.1301 30.2401 76.9901 30.2501 76.8501 30.2701C76.7901 30.2801 76.7401 30.3001 76.6801 30.3101C76.5901 30.3301 76.5001 30.3401 76.4201 30.3701C76.3601 30.3901 76.3001 30.4201 76.2301 30.4401C76.1501 30.4701 76.0801 30.4901 76.0001 30.5301C75.9301 30.5601 75.8601 30.6101 75.7901 30.6501C75.7301 30.6801 75.6801 30.7101 75.6201 30.7401L75.6101 30.7501C75.4801 30.8401 75.3601 30.9301 75.2501 31.0401C75.2301 31.0601 75.2101 31.0801 75.1901 31.1001C75.1001 31.1901 75.0101 31.2801 74.9401 31.3801C74.9001 31.4301 74.8701 31.4801 74.8301 31.5301C74.7801 31.6001 74.7201 31.6801 74.6801 31.7601C74.6401 31.8201 74.6201 31.8901 74.5801 31.9601C74.5501 32.0201 74.5101 32.0801 74.4901 32.1501C74.4901 32.1601 74.4801 32.1701 74.4801 32.1801C74.4501 32.2701 74.4201 32.3601 74.4001 32.4501C74.3801 32.5101 74.3601 32.5701 74.3501 32.6401C74.3301 32.7301 74.3301 32.8201 74.3201 32.9001C74.3101 32.9701 74.3001 33.0401 74.3001 33.1001C74.3001 33.1801 74.3001 33.2601 74.3101 33.3401C74.3101 33.4201 74.3101 33.5001 74.3201 33.5701C74.3301 33.6401 74.3501 33.7101 74.3601 33.7701C74.3801 33.8601 74.3901 33.9501 74.4101 34.0401C74.4101 34.0501 74.4101 34.0601 74.4201 34.0701C74.7001 35.0201 81.3501 57.4301 96.6301 57.4301H33.3101C33.3101 57.4301 57.7201 12.6101 112.05 12.6101C166.38 12.6101 190.85 57.4301 190.85 57.4301H126.37" fill="#EBD9A5"/>
</g>
<path d="M61.23 206.11L54.63 70.4999H19.09L12.49 206.11H61.23Z" fill="#D67055"/>
<g opacity="0.42">
<path d="M53.83 206.11C53.83 206.11 52.01 77.3698 45.95 76.7598C39.89 76.1498 42.01 206.11 42.01 206.11H53.83Z" fill="#D67055"/>
<path d="M21.14 206.11C21.14 206.11 22.96 77.3698 29.02 76.7598C35.08 76.1498 32.96 206.11 32.96 206.11H21.14Z" fill="#D67055"/>
</g>
<path d="M171.97 16.2099C145.43 -1.31007 111.99 0.0199348 111.99 0.0199348C111.99 0.0199348 78.54 -1.31007 52 16.2099C19.89 37.4099 5.66003 63.4399 5.66003 63.4399H22.85C22.85 63.4399 42.28 7.61993 111.98 7.61993C181.68 7.61993 201.11 63.4399 201.11 63.4399H218.3C218.31 63.4399 204.09 37.4099 171.97 16.2099Z" fill="#42353B"/>
<path d="M36.8601 63.4399H14.2401L19.0901 70.4999H36.8601H54.6301L59.4801 63.4399H36.8601Z" fill="#42353B"/>
<path d="M36.8601 215.8H5.84009L12.4901 206.11H36.8601H61.2301L67.8801 215.8H36.8601Z" fill="#42353B"/>
<path d="M187.29 63.4399H209.91L205.06 70.4999H187.29H169.52L164.67 63.4399H187.29Z" fill="#42353B"/>
<path d="M187.29 215.8H218.31L211.66 206.11H187.29H162.92L156.27 215.8H187.29Z" fill="#42353B"/>
<path d="M162.92 206.11L169.52 70.4999H205.06L211.66 206.11H162.92Z" fill="#D67055"/>
<g opacity="0.42">
<path d="M170.33 206.11C170.33 206.11 172.15 77.3698 178.21 76.7598C184.27 76.1498 182.15 206.11 182.15 206.11H170.33Z" fill="#D67055"/>
<path d="M203.02 206.11C203.02 206.11 201.2 77.3698 195.14 76.7598C189.08 76.1498 191.2 206.11 191.2 206.11H203.02Z" fill="#D67055"/>
</g>
<path d="M205.03 6.31982C203.76 15.2798 199.39 18.9998 192.97 19.2798C200.12 20.1498 204.14 24.4698 205.03 32.2398C205.92 24.4698 209.93 20.1498 217.09 19.2798C210.68 18.9998 206.3 15.2798 205.03 6.31982Z" fill="#4A8171"/>
<path d="M12.06 141.51C10.79 150.47 6.42 154.19 0 154.47C7.15 155.34 11.17 159.66 12.06 167.43C12.95 159.66 16.96 155.34 24.12 154.47C17.7 154.18 13.32 150.47 12.06 141.51Z" fill="#D39F3F"/>
</g>
<defs>
<clipPath id="clip0_1986_4692">
<rect width="218.31" height="215.8" fill="white"/>
</clipPath>
</defs>
</svg>
