<svg width="468" height="440" viewBox="0 0 468 440" fill="none" xmlns="http://www.w3.org/2000/svg">
<g clip-path="url(#clip0_1998_4978)">
<path d="M274.805 230.151C327.455 177.501 327.455 92.1384 274.805 39.4884C222.155 -13.1616 136.793 -13.1616 84.143 39.4884C31.493 92.1383 31.493 177.501 84.143 230.151C136.793 282.801 222.155 282.801 274.805 230.151Z" fill="#F4D8B0"/>
<path d="M365.94 409.11C415.32 409.11 455.35 369.08 455.35 319.7C455.35 270.32 415.32 230.29 365.94 230.29C316.56 230.29 276.53 270.32 276.53 319.7C276.53 369.08 316.56 409.11 365.94 409.11Z" fill="#F4D8B0"/>
<path d="M214.28 439.35C246.5 439.35 272.62 411.784 272.62 377.78C272.62 343.776 246.5 316.21 214.28 316.21C182.06 316.21 155.94 343.776 155.94 377.78C155.94 411.784 182.06 439.35 214.28 439.35Z" fill="#F4D8B0"/>
<path d="M427.72 135.58H256.95C256.95 135.58 246.33 152.6 239.2 200.74L269.16 203.65V301.1H333.18H351.49H415.51V203.65L427.72 135.58Z" fill="#FFAD80"/>
<path opacity="0.4" d="M396.5 251.09C377.21 246.4 359.27 234.42 351.05 215.88C344.17 200.38 344.55 182.8 350.97 167.36C343.91 170.36 336.44 172.5 328.9 173.65C319.66 175.05 309.7 175.19 300.89 171.62C291.94 167.99 285.18 160.73 281.78 151.72C278.54 143.13 278.58 133.65 279.77 124.64L256.94 135.57C256.94 135.57 246.32 152.59 239.19 200.73L269.15 203.64V301.09H415.5V253.43C409.1 253.38 402.7 252.6 396.5 251.09Z" fill="#FFAD80"/>
<path d="M325.25 148.71H123.09C123.09 148.71 110.52 168.86 102.08 225.85L137.55 344.65H213.33H235H310.78L346.25 225.85C337.82 168.86 325.25 148.71 325.25 148.71Z" fill="#A4C842"/>
<path opacity="0.4" d="M302.95 285C292.96 289.3 282.34 291.42 271.5 291.94C260.35 292.47 248.87 291.37 238.28 287.67C227.69 283.97 218.28 277.69 211.47 268.71C204.44 259.44 200.19 248.25 199.39 236.64C198.26 220.35 204.06 204.37 213.92 191.54C208.47 193.38 202.74 194.38 197.01 194.53C186.57 194.8 175.89 192.2 166.98 186.68C157.81 181 150.9 172.3 147.54 162.04C144.92 154.04 145.05 145.51 146.83 137.33L123.08 148.71C123.08 148.71 110.51 168.86 102.07 225.85L137.54 344.65H310.77V281.03C308.26 282.49 305.66 283.83 302.95 285Z" fill="#A4C842"/>
<path d="M163.68 248.49H284.64C289.26 246.97 292.6 242.63 292.6 237.5V178.58C292.6 172.19 287.42 167 281.02 167H167.3C160.91 167 155.72 172.18 155.72 178.58V237.5C155.73 242.63 159.06 246.97 163.68 248.49Z" fill="#FFF7C8"/>
<path d="M269.76 248.49C270.24 247.87 270.72 247.24 271.22 246.64C274.63 242.51 278.7 238.92 283.76 237C287.04 235.76 290.52 235.12 293.81 233.9C296.82 232.78 299.51 231.07 301.61 228.61C303.54 226.37 304.8 223.66 305.41 220.78C305.97 218.14 305.98 215.42 305.96 212.73C305.95 210.05 305.88 207.35 306.29 204.7C306.71 201.97 307.77 199.54 309.49 197.38C313.08 192.88 318.32 189.67 319.94 183.83C321.51 178.17 319.93 172.29 318.08 166.91C316.99 163.76 315.79 160.63 315.07 157.36C314.71 155.71 314.46 154.02 314.45 152.33C314.44 150.69 314.64 149.07 314.78 147.44C315.05 144.35 314.89 141.37 313.73 138.47C312.66 135.8 310.9 133.42 308.69 131.59C307.62 130.7 306.39 130.01 305.11 129.46C304.55 129.22 304.22 129.81 304.41 130.25C304.38 130.32 304.36 130.4 304.38 130.49C304.96 133 304.97 135.66 304.1 138.11C303.68 139.3 303.07 140.4 302.28 141.38C301.35 142.54 300.14 143.43 298.92 144.27C296.66 145.82 294.46 147.32 293.17 149.82C292.2 151.7 291.86 153.85 291.76 155.94C291.57 160.25 292.47 164.72 291.42 168.96C290.83 171.35 289.48 173.39 287.61 174.97C285.58 176.69 283.18 177.88 280.82 179.07C278.33 180.32 275.79 181.56 273.57 183.26C271.42 184.9 269.6 187 268.26 189.35C266.94 191.66 266.03 194.19 265.65 196.83C265.24 199.64 265.57 202.46 265.54 205.28C265.52 206.63 265.44 208 265.09 209.31C264.72 210.72 264.04 212 263.18 213.17C261.51 215.45 259.34 217.31 257.55 219.49C254.03 223.79 251.85 229.19 251.34 234.72C250.91 239.39 251.84 243.94 252.75 248.49H269.76Z" fill="#1A4943"/>
<path d="M263.11 248.49C276.59 223.48 289.74 199.03 302.39 175.17C302.52 174.93 302.43 174.62 302.18 174.49C301.94 174.36 301.63 174.45 301.5 174.7C288.78 198.7 275.54 223.31 261.97 248.48H263.11V248.49Z" fill="#A4C842"/>
<path d="M84.3398 35.28C79.0398 38.02 75.2198 43.26 74.2798 49.13C71.0098 47.1 66.4498 48.03 63.2898 49.91C59.7498 52.01 57.2198 55.62 56.1698 59.57C55.6798 61.44 55.5698 63.4 55.8398 65.31C51.9698 65.1 48.0598 65.28 44.3598 66.5C40.3398 67.83 36.7698 70.48 34.7798 74.26C34.5398 74.71 34.8598 75.26 35.2698 75.46C36.5898 76.07 42.9598 79.52 44.5998 80.39C45.6898 81.04 46.7598 81.7 47.8198 82.38C49.8198 83.67 51.7498 85.04 53.6698 86.44C54.5498 87.08 55.4298 87.74 56.2898 88.41C59.0398 90.66 61.6998 93.03 64.3498 95.39C68.1298 98.75 71.9598 102.09 76.1198 104.99C80.4598 108.02 85.2598 110.74 90.4498 111.95C95.4698 113.13 100.95 112.5 105.54 110.13C109.99 107.83 113.48 103.97 115.26 99.28C117.13 94.33 116.8 89.02 114.77 84.17C112.51 78.75 108.59 74.31 104.62 70.09C102.49 67.83 100.35 65.59 98.3698 63.19C96.3698 60.77 94.5198 58.22 92.8398 55.57C89.8298 50.82 87.0798 45.61 86.0098 40.05C85.7498 38.71 85.5998 37.36 85.5498 36C85.5398 35.47 84.8298 35.03 84.3398 35.28Z" fill="#1A4943"/>
<path d="M81.6799 61.04C81.6799 61.04 66.7899 58.7 64.2399 75.97C64.2399 75.97 39.3099 65.93 32.3899 74.57C32.4999 74.77 32.6599 74.93 32.8499 75.02C34.2399 75.67 40.9399 79.3 42.6699 80.21C43.8099 80.89 44.9499 81.59 46.0599 82.31C48.1599 83.67 50.1999 85.11 52.2199 86.58C53.1499 87.26 54.0699 87.95 54.9799 88.65C57.8699 91.02 60.6699 93.52 63.4599 95.99C67.4399 99.53 71.4699 103.04 75.8399 106.09C80.4099 109.28 85.4499 112.14 90.9199 113.42C96.1999 114.66 101.97 113.99 106.8 111.5C111.48 109.08 115.16 105.02 117.02 100.09C118.99 94.88 118.64 89.29 116.51 84.19C114.13 78.49 110.01 73.82 105.83 69.37C103.59 66.99 101.33 64.63 99.2499 62.11C97.1499 59.56 95.1999 56.88 93.4399 54.09C90.2799 49.1 87.3799 43.61 86.2499 37.76C85.9799 36.35 85.8199 34.93 85.7699 33.5C85.7699 33.52 76.6799 43.35 81.6799 61.04Z" fill="#FFAD80"/>
<path d="M112.66 104.57C112.59 104.57 112.52 104.56 112.46 104.53C112.21 104.42 112.09 104.12 112.21 103.87C118.23 90.31 94.8598 69.44 94.6298 69.23C94.4198 69.05 94.3998 68.73 94.5898 68.52C94.7698 68.31 95.0898 68.29 95.2998 68.48C96.2898 69.35 119.45 90.04 113.14 104.27C113.04 104.46 112.85 104.57 112.66 104.57Z" fill="#FFF7C8"/>
<path d="M111.16 105.7C111.02 105.7 110.89 105.65 110.79 105.54L87.0798 79.71C86.8898 79.51 86.9098 79.19 87.1098 79C87.3098 78.81 87.6298 78.83 87.8198 79.03L111.53 104.86C111.72 105.06 111.7 105.38 111.5 105.57C111.4 105.66 111.28 105.7 111.16 105.7Z" fill="#FFF7C8"/>
<path d="M105.45 108.69C103.87 108.69 101.93 108.58 99.8899 108.28C93.4299 107.32 84.4399 104.34 78.3099 95.55C78.1499 95.32 78.2099 95.01 78.4299 94.85C78.6599 94.69 78.9699 94.75 79.1299 94.97C89.5199 109.85 108.18 107.56 108.76 107.45C108.97 107.35 109.22 107.41 109.37 107.59C109.54 107.81 109.5 108.12 109.29 108.29C109.04 108.49 107.57 108.69 105.45 108.69Z" fill="#FFF7C8"/>
<path d="M158.1 165.77C158.26 165.48 158.39 165.18 158.52 164.88C158.66 164.58 158.78 164.28 158.84 163.97C158.84 163.96 158.84 163.96 158.84 163.95C159.86 161.99 160.46 159.83 160.96 157.75C161.59 155.14 162.04 152.51 162.83 149.93C163.61 147.4 164.76 144.96 166.66 143C167.89 141.73 169.31 140.68 170.54 139.42C171.67 138.26 172.55 136.93 173.05 135.41C173.5 134.02 173.58 132.58 173.34 131.22C173.12 129.97 172.64 128.81 172.16 127.66C171.68 126.52 171.18 125.38 170.89 124.16C170.6 122.9 170.63 121.62 171.01 120.32C171.8 117.59 173.54 115.05 173.23 112.19C172.92 109.42 171.19 107.27 169.42 105.39C168.38 104.29 167.3 103.22 166.41 101.99C165.96 101.37 165.55 100.7 165.25 99.98C164.95 99.28 164.76 98.54 164.53 97.82C164.1 96.44 163.51 95.2 162.48 94.23C161.54 93.33 160.34 92.71 159.04 92.42C158.41 92.28 157.75 92.26 157.09 92.31C156.8 92.33 156.76 92.66 156.92 92.8C156.92 92.84 156.92 92.87 156.95 92.91C157.65 93.85 158.13 94.99 158.17 96.22C158.19 96.82 158.12 97.43 157.95 98.02C157.74 98.73 157.37 99.38 156.98 100.01C156.26 101.18 155.55 102.31 155.43 103.67C155.33 104.69 155.56 105.68 155.89 106.6C156.57 108.48 157.76 110.19 158.04 112.23C158.2 113.38 157.97 114.55 157.42 115.65C156.83 116.84 155.98 117.89 155.15 118.92C154.27 120.01 153.37 121.11 152.69 122.34C152.03 123.52 151.6 124.83 151.42 126.13C151.24 127.41 151.29 128.7 151.59 129.91C151.91 131.2 152.55 132.33 153.03 133.54C153.26 134.12 153.46 134.73 153.54 135.36C153.62 136.05 153.55 136.74 153.38 137.44C153.05 138.79 152.42 140.07 152.02 141.4C151.23 144.02 151.22 146.82 151.97 149.29C152.84 152.13 154.76 154.31 156.29 156.74C157.54 158.74 158.57 161.2 158.13 163.77C157.93 164.17 157.72 164.57 157.5 164.96C157.36 165.21 157.51 165.38 157.71 165.41C157.69 165.46 157.67 165.51 157.65 165.56C157.5 165.89 157.93 166.08 158.1 165.77Z" fill="#106939"/>
<path d="M163.262 112.38L157.611 163.72L158.605 163.829L164.256 112.489L163.262 112.38Z" fill="#1A4943"/>
<path d="M161.22 166.76C160.99 166.52 160.75 166.3 160.51 166.08C160.27 165.86 160.02 165.65 159.74 165.49C159.73 165.49 159.73 165.48 159.72 165.48C158.18 163.91 156.31 162.66 154.49 161.53C152.21 160.12 149.84 158.87 147.64 157.31C145.48 155.79 143.52 153.92 142.25 151.51C141.43 149.95 140.87 148.27 140.06 146.71C139.31 145.28 138.32 144.02 137.03 143.08C135.85 142.22 134.51 141.69 133.14 141.5C131.88 141.32 130.63 141.41 129.39 141.51C128.16 141.61 126.92 141.74 125.67 141.63C124.38 141.52 123.18 141.09 122.05 140.32C119.71 138.72 117.83 136.27 115.02 135.68C112.3 135.11 109.71 136.09 107.37 137.18C106 137.82 104.65 138.52 103.2 138.98C102.47 139.21 101.71 139.39 100.93 139.46C100.18 139.52 99.41 139.48 98.65 139.47C97.21 139.45 95.85 139.63 94.6 140.3C93.45 140.92 92.49 141.86 91.81 143.01C91.48 143.57 91.25 144.19 91.1 144.83C91.03 145.11 91.33 145.25 91.52 145.15C91.55 145.16 91.59 145.17 91.63 145.15C92.74 144.78 93.97 144.68 95.16 145.02C95.74 145.18 96.29 145.44 96.81 145.79C97.42 146.21 97.92 146.76 98.4 147.33C99.29 148.38 100.15 149.4 101.39 149.95C102.33 150.36 103.34 150.45 104.31 150.42C106.31 150.36 108.3 149.76 110.33 150.13C111.48 150.34 112.52 150.92 113.39 151.78C114.34 152.71 115.07 153.85 115.79 154.96C116.55 156.14 117.32 157.33 118.27 158.36C119.19 159.35 120.3 160.17 121.48 160.75C122.65 161.32 123.88 161.67 125.12 161.77C126.44 161.87 127.72 161.61 129.02 161.53C129.64 161.49 130.28 161.49 130.91 161.61C131.59 161.74 132.23 162.03 132.83 162.41C134.01 163.15 135.03 164.14 136.17 164.94C138.42 166.51 141.07 167.39 143.65 167.44C146.62 167.5 149.29 166.35 152.07 165.66C154.36 165.09 157.02 164.88 159.32 166.1C159.64 166.42 159.95 166.74 160.26 167.07C160.45 167.28 160.67 167.19 160.76 167.01C160.8 167.05 160.84 167.08 160.88 167.12C161.14 167.36 161.46 167.01 161.22 166.76Z" fill="#106939"/>
<path d="M112.509 144.325L112.096 145.236L159.144 166.552L159.557 165.641L112.509 144.325Z" fill="#1A4943"/>
<path d="M146.29 146.57C161.18 169.45 177.45 205.19 173.49 248.49H176.51C180.46 204.42 163.9 168.1 148.75 144.84C131.28 118.03 111.81 102.31 111.62 102.15L109.75 104.49C109.94 104.65 129.08 120.13 146.29 146.57Z" fill="#106939"/>
<path d="M113.52 108.03C113.52 108.03 101.09 120.24 78.72 113.94C78.72 113.94 86.9 100.05 110.09 103.66C110.09 103.66 104.75 83.51 115.83 76.54C115.83 76.53 123.31 95.08 113.52 108.03Z" fill="#106939"/>
<path d="M311.04 41.92C311.03 42.9 310.94 43.87 310.77 44.84C310.08 48.86 308.18 52.64 306.08 56.1C304.91 58.03 303.62 59.89 302.22 61.66C300.83 63.41 299.32 65.05 297.83 66.71C295.04 69.81 292.29 73.06 290.74 76.98C289.36 80.49 289.19 84.32 290.61 87.85C291.95 91.2 294.52 93.92 297.75 95.51C301.08 97.15 305.03 97.52 308.63 96.6C312.34 95.65 315.75 93.63 318.83 91.38C321.78 89.23 324.48 86.78 327.15 84.31C329.02 82.58 330.9 80.83 332.84 79.18C333.45 78.69 334.07 78.2 334.7 77.73C336.06 76.7 337.43 75.68 338.85 74.73C339.6 74.22 340.37 73.73 341.14 73.25C342.31 72.6 346.84 70.03 347.78 69.57C348.08 69.42 348.29 69.02 348.12 68.7C346.64 66.01 344.03 64.16 341.12 63.26C338.44 62.43 335.62 62.37 332.85 62.57C333.02 61.19 332.91 59.78 332.53 58.45C331.72 55.63 329.85 53.06 327.27 51.61C324.97 50.31 321.67 49.71 319.36 51.21C318.6 47 315.78 43.29 311.93 41.4C311.55 41.2 311.05 41.53 311.04 41.92Z" fill="#1A4943"/>
<path d="M314.2 59.86C314.2 59.86 324.87 57.96 326.95 70.34C326.95 70.34 344.72 62.76 349.82 68.87C349.74 69.01 349.63 69.14 349.49 69.2C348.5 69.68 343.73 72.39 342.51 73.07C341.7 73.58 340.89 74.09 340.1 74.63C338.61 75.64 337.17 76.7 335.73 77.79C335.07 78.29 334.42 78.8 333.78 79.32C331.74 81.07 329.76 82.9 327.79 84.72C324.98 87.32 322.13 89.9 319.04 92.16C315.8 94.52 312.22 96.65 308.31 97.65C304.53 98.62 300.38 98.22 296.87 96.5C293.47 94.83 290.77 91.96 289.35 88.44C287.86 84.73 288.03 80.7 289.49 77C291.12 72.87 294.01 69.45 296.95 66.19C298.52 64.45 300.11 62.72 301.57 60.88C303.05 59.02 304.4 57.06 305.63 55.03C307.83 51.39 309.83 47.41 310.56 43.18C310.74 42.17 310.83 41.14 310.84 40.11C310.85 40.13 317.54 47.07 314.2 59.86Z" fill="#FBB613"/>
<path d="M292.55 91.75C292.36 91.75 292.18 91.64 292.1 91.46C287.31 81.23 303.73 65.95 304.43 65.31C304.63 65.13 304.95 65.14 305.14 65.34C305.33 65.54 305.31 65.86 305.11 66.05C304.94 66.2 288.52 81.48 293 91.04C293.12 91.29 293.01 91.59 292.76 91.71C292.69 91.73 292.62 91.75 292.55 91.75Z" fill="#FFF7C8"/>
<path d="M293.65 92.54C293.53 92.54 293.41 92.5 293.32 92.41C293.11 92.23 293.09 91.91 293.28 91.7L309.95 72.78C310.13 72.57 310.45 72.55 310.66 72.74C310.87 72.92 310.89 73.24 310.7 73.45L294.03 92.37C293.92 92.48 293.78 92.54 293.65 92.54Z" fill="#FFF7C8"/>
<path d="M297.3 94.61C296.04 94.61 295.15 94.5 294.95 94.35C294.73 94.18 294.69 93.87 294.85 93.65C294.99 93.47 295.24 93.41 295.44 93.49C295.93 93.57 309.24 94.85 316.4 84.14C316.55 83.91 316.86 83.85 317.09 84C317.32 84.15 317.38 84.46 317.23 84.69C312.91 91.15 306.45 93.44 301.78 94.22C300.13 94.51 298.53 94.61 297.3 94.61Z" fill="#FFF7C8"/>
<path d="M261.1 136.12C261.08 136.08 261.07 136.05 261.05 136.01C261.19 135.99 261.3 135.86 261.19 135.68C261.03 135.4 260.87 135.12 260.72 134.83C260.36 132.99 261.07 131.21 261.94 129.75C263 127.98 264.35 126.38 264.93 124.33C265.44 122.54 265.39 120.53 264.78 118.66C264.47 117.71 264 116.8 263.74 115.83C263.61 115.33 263.54 114.83 263.6 114.34C263.65 113.88 263.78 113.44 263.94 113.02C264.27 112.14 264.72 111.32 264.93 110.39C265.13 109.51 265.14 108.59 265 107.67C264.85 106.74 264.52 105.8 264.03 104.96C263.52 104.09 262.86 103.31 262.21 102.54C261.6 101.81 260.97 101.07 260.53 100.22C260.12 99.4399 259.94 98.5999 260.04 97.7699C260.22 96.2899 261.05 95.0499 261.51 93.6899C261.73 93.0299 261.88 92.3099 261.8 91.5799C261.69 90.6099 261.17 89.7999 260.63 88.9699C260.34 88.5199 260.06 88.0599 259.9 87.5499C259.77 87.1199 259.7 86.6899 259.71 86.2599C259.73 85.3699 260.05 84.5499 260.54 83.8599C260.56 83.8299 260.56 83.8099 260.56 83.7799C260.67 83.6699 260.64 83.4399 260.43 83.4299C259.95 83.3999 259.48 83.4199 259.03 83.5299C258.1 83.7499 257.25 84.2199 256.58 84.8799C255.86 85.5999 255.45 86.4999 255.16 87.4899C255.01 88.0199 254.88 88.5499 254.67 89.0499C254.46 89.5699 254.18 90.0499 253.86 90.5099C253.24 91.4099 252.47 92.1899 251.74 92.9999C250.5 94.3799 249.28 95.9499 249.1 97.9499C248.91 100.01 250.21 101.81 250.81 103.76C251.1 104.69 251.15 105.61 250.95 106.52C250.76 107.41 250.42 108.23 250.09 109.06C249.76 109.89 249.44 110.73 249.29 111.64C249.14 112.63 249.21 113.66 249.56 114.65C249.94 115.73 250.59 116.68 251.42 117.49C252.33 118.38 253.36 119.11 254.26 120.01C255.65 121.39 256.52 123.13 257.11 124.94C257.72 126.78 258.08 128.67 258.57 130.54C258.96 132.03 259.43 133.57 260.18 134.96C260.18 134.97 260.18 134.97 260.18 134.98C260.23 135.2 260.32 135.42 260.43 135.63C260.53 135.84 260.63 136.06 260.75 136.26C260.91 136.48 261.21 136.34 261.1 136.12Z" fill="#106939"/>
<path d="M256.451 97.9328L255.459 98.0614L260.236 134.893L261.227 134.765L256.451 97.9328Z" fill="#1A4943"/>
<path d="M258.79 137.28C258.82 137.25 258.85 137.23 258.88 137.2C258.95 137.33 259.1 137.39 259.24 137.24C259.45 137 259.67 136.76 259.9 136.53C261.54 135.62 263.45 135.73 265.1 136.11C267.11 136.56 269.05 137.36 271.18 137.27C273.04 137.19 274.93 136.52 276.52 135.36C277.33 134.77 278.05 134.04 278.88 133.49C279.31 133.21 279.77 132.99 280.25 132.89C280.7 132.79 281.16 132.79 281.61 132.8C282.55 132.84 283.47 133.01 284.42 132.92C285.31 132.83 286.2 132.56 287.03 132.14C287.87 131.71 288.65 131.11 289.3 130.38C289.97 129.63 290.5 128.75 291.03 127.9C291.54 127.09 292.04 126.26 292.71 125.58C293.32 124.95 294.06 124.51 294.88 124.35C296.34 124.06 297.78 124.46 299.21 124.47C299.91 124.48 300.64 124.39 301.31 124.09C302.2 123.68 302.8 122.94 303.42 122.17C303.76 121.75 304.11 121.35 304.54 121.04C304.9 120.78 305.3 120.59 305.71 120.46C306.56 120.2 307.45 120.25 308.25 120.5C308.28 120.51 308.31 120.51 308.33 120.5C308.47 120.57 308.68 120.47 308.63 120.27C308.51 119.81 308.34 119.36 308.09 118.97C307.59 118.16 306.88 117.49 306.05 117.07C305.14 116.6 304.16 116.49 303.13 116.53C302.58 116.55 302.03 116.59 301.49 116.56C300.93 116.52 300.38 116.41 299.85 116.25C298.8 115.94 297.82 115.45 296.83 115.01C295.13 114.26 293.26 113.59 291.31 114.04C289.3 114.5 287.98 116.29 286.32 117.48C285.52 118.05 284.66 118.38 283.74 118.48C282.84 118.58 281.95 118.5 281.06 118.45C280.17 118.4 279.27 118.35 278.37 118.5C277.38 118.66 276.43 119.06 275.59 119.69C274.68 120.39 273.98 121.3 273.47 122.34C272.91 123.48 272.53 124.69 271.96 125.83C271.08 127.58 269.7 128.95 268.17 130.08C266.61 131.23 264.93 132.17 263.31 133.21C262.02 134.04 260.69 134.97 259.61 136.12C259.61 136.12 259.6 136.12 259.6 136.13C259.4 136.25 259.23 136.4 259.06 136.57C258.89 136.73 258.72 136.89 258.56 137.07C258.38 137.21 258.62 137.45 258.79 137.28Z" fill="#106939"/>
<path d="M293.195 120.057L259.676 136.053L260.107 136.956L293.626 120.96L293.195 120.057Z" fill="#1A4943"/>
<path d="M249.22 202.38C243.33 167.82 255.55 138.98 266.84 120.86C279.05 101.27 292.44 90 293 89.53L294.92 91.83C294.78 91.94 281.28 103.32 269.33 122.53C258.34 140.19 246.45 168.28 252.17 201.87L249.22 202.38Z" fill="#106939"/>
<path d="M291.99 94.1C291.99 94.1 301.1 102.7 317.09 97.84C317.09 97.84 311 87.97 294.39 90.9C294.39 90.9 297.93 76.33 289.87 71.49C289.87 71.49 284.77 84.94 291.99 94.1Z" fill="#106939"/>
<path d="M294.64 138.92C269.76 154.76 258.75 191.61 261.85 248.5H264.85C261.78 192.7 272.32 156.7 296.24 141.46C329.1 120.53 376.69 146.83 377.17 147.1L378.64 144.49C376.63 143.35 329.03 117.02 294.64 138.92Z" fill="#106939"/>
<path d="M451.44 165.41C450.09 165.53 448.73 165.55 447.37 165.46C441.71 165.08 436.2 163.01 431.12 160.62C428.28 159.28 425.52 157.77 422.87 156.09C420.25 154.43 417.76 152.57 415.25 150.75C410.56 147.34 405.67 144.01 400.01 142.44C394.95 141.04 389.64 141.37 384.96 143.84C380.53 146.19 377.13 150.13 375.41 154.83C373.63 159.68 373.69 165.19 375.48 170.03C377.33 175.03 380.63 179.45 384.18 183.38C387.58 187.14 391.36 190.52 395.17 193.86C397.84 196.2 400.52 198.54 403.1 200.98C403.87 201.75 404.63 202.54 405.38 203.33C407 205.06 408.61 206.81 410.14 208.63C410.95 209.6 411.74 210.58 412.52 211.58C413.59 213.1 417.81 218.99 418.58 220.22C418.82 220.61 419.41 220.85 419.83 220.56C423.34 218.12 425.52 214.24 426.34 210.09C427.09 206.27 426.78 202.36 426.09 198.55C428.02 198.58 429.95 198.23 431.74 197.51C435.53 195.98 438.8 193.02 440.44 189.24C441.9 185.87 442.26 181.22 439.84 178.24C445.55 176.57 450.28 172.14 452.33 166.53C452.51 166.02 451.98 165.36 451.44 165.41Z" fill="#1A4943"/>
<path d="M427.09 172.39C427.09 172.39 431.27 186.87 414.45 191.55C414.45 191.55 427.52 215.03 419.81 222.97C419.6 222.88 419.41 222.75 419.3 222.57C418.49 221.27 414.05 215.07 412.93 213.47C412.11 212.42 411.28 211.38 410.42 210.37C408.81 208.45 407.12 206.61 405.41 204.79C404.62 203.95 403.82 203.13 403.01 202.31C400.3 199.74 397.47 197.27 394.67 194.82C390.66 191.31 386.68 187.75 383.1 183.79C379.37 179.66 375.9 175.01 373.95 169.75C372.06 164.66 372 158.86 373.87 153.76C375.68 148.81 379.25 144.66 383.92 142.19C388.84 139.59 394.43 139.24 399.76 140.71C405.71 142.36 410.86 145.87 415.79 149.46C418.43 151.38 421.05 153.33 423.81 155.08C426.6 156.85 429.5 158.44 432.49 159.85C437.84 162.37 443.64 164.55 449.59 164.95C451.02 165.04 452.45 165.03 453.87 164.9C453.89 164.89 445.27 175.14 427.09 172.39Z" fill="#FBB613"/>
<path d="M417.68 160.69C417.56 160.69 417.44 160.65 417.35 160.56C417.11 160.35 393.49 139.77 380.79 147.43C380.55 147.57 380.25 147.5 380.1 147.26C379.96 147.02 380.03 146.72 380.27 146.57C393.6 138.53 417.02 158.93 418.01 159.8C418.22 159.98 418.24 160.3 418.05 160.51C417.96 160.63 417.82 160.69 417.68 160.69Z" fill="#FFF7C8"/>
<path d="M408.18 169.45C408.08 169.45 407.98 169.42 407.89 169.36L379.3 149.06C379.07 148.9 379.02 148.59 379.18 148.36C379.34 148.13 379.65 148.08 379.88 148.24L408.47 168.54C408.7 168.7 408.75 169.01 408.59 169.24C408.49 169.37 408.34 169.45 408.18 169.45Z" fill="#FFF7C8"/>
<path d="M393.51 180.09C393.43 180.09 393.35 180.07 393.28 180.03C383.8 175.04 379.71 166.5 377.96 160.21C376.66 155.56 376.48 151.35 376.76 150.89C376.9 150.65 377.21 150.58 377.45 150.72C377.65 150.84 377.74 151.09 377.67 151.31C377.64 151.89 377.69 170.7 393.75 179.15C393.99 179.28 394.09 179.58 393.96 179.82C393.86 180 393.68 180.09 393.51 180.09Z" fill="#FFF7C8"/>
<path d="M326.35 131.76C326.4 131.73 326.44 131.71 326.49 131.68C326.54 131.87 326.74 132 326.97 131.83C327.33 131.56 327.7 131.31 328.07 131.06C330.56 130.3 333.13 131.02 335.27 132.01C337.87 133.22 340.28 134.86 343.2 135.36C345.75 135.8 348.52 135.44 351.02 134.33C352.29 133.76 353.48 132.98 354.78 132.48C355.45 132.22 356.13 132.07 356.82 132.06C357.46 132.06 358.09 132.18 358.69 132.34C359.95 132.67 361.15 133.17 362.47 133.32C363.71 133.46 364.99 133.35 366.24 133.02C367.51 132.68 368.75 132.09 369.84 131.29C370.97 130.46 371.95 129.43 372.92 128.42C373.84 127.46 374.78 126.49 375.88 125.76C376.9 125.08 378.03 124.7 379.2 124.72C381.27 124.75 383.11 125.72 385.06 126.15C386.01 126.36 387.02 126.46 388.02 126.24C389.35 125.94 390.39 125.11 391.46 124.24C392.04 123.77 392.64 123.32 393.31 123.03C393.88 122.78 394.47 122.63 395.07 122.58C396.3 122.47 397.49 122.81 398.51 123.38C398.55 123.4 398.59 123.4 398.62 123.4C398.78 123.54 399.1 123.46 399.09 123.17C399.06 122.51 398.96 121.85 398.74 121.24C398.29 119.99 397.53 118.88 396.52 118.05C395.42 117.15 394.12 116.72 392.7 116.46C391.95 116.33 391.19 116.22 390.47 116.02C389.72 115.81 389.01 115.49 388.33 115.12C387 114.39 385.8 113.45 384.58 112.55C382.49 111.03 380.14 109.58 377.35 109.62C374.48 109.66 372.17 111.71 369.56 112.83C368.31 113.37 367.05 113.56 365.76 113.43C364.51 113.3 363.32 112.94 362.13 112.61C360.94 112.28 359.72 111.95 358.45 111.88C357.06 111.81 355.65 112.07 354.33 112.69C352.89 113.37 351.67 114.41 350.67 115.68C349.57 117.06 348.71 118.6 347.6 119.98C345.9 122.1 343.61 123.56 341.2 124.64C338.74 125.75 336.18 126.53 333.67 127.47C331.67 128.23 329.6 129.1 327.79 130.35C327.78 130.35 327.78 130.35 327.77 130.36C327.47 130.46 327.18 130.62 326.91 130.8C326.63 130.97 326.35 131.14 326.08 131.33C325.81 131.54 326.06 131.94 326.35 131.76Z" fill="#106939"/>
<path d="M378.188 118.622L327.943 130.579L328.175 131.551L378.42 119.594L378.188 118.622Z" fill="#1A4943"/>
<path d="M327.62 130.76C327.66 130.79 327.7 130.83 327.74 130.87C327.57 130.98 327.51 131.21 327.74 131.37C328.11 131.63 328.46 131.9 328.82 132.18C330.32 134.31 330.44 136.98 330.16 139.32C329.82 142.17 329.01 144.96 329.44 147.9C329.82 150.46 331.02 152.98 332.86 155.01C333.79 156.04 334.91 156.93 335.79 158.01C336.24 158.56 336.6 159.16 336.82 159.82C337.02 160.43 337.1 161.06 337.14 161.69C337.22 162.99 337.12 164.29 337.39 165.59C337.64 166.81 338.14 167.99 338.85 169.08C339.57 170.18 340.52 171.18 341.62 171.96C342.76 172.78 344.04 173.38 345.3 174C346.5 174.58 347.71 175.16 348.75 175.99C349.71 176.75 350.43 177.71 350.77 178.82C351.39 180.79 351.04 182.84 351.23 184.83C351.32 185.8 351.54 186.79 352.06 187.67C352.75 188.84 353.87 189.57 355.03 190.31C355.65 190.71 356.27 191.14 356.76 191.69C357.17 192.15 357.5 192.67 357.73 193.23C358.21 194.37 358.27 195.6 358.04 196.75C358.03 196.79 358.04 196.83 358.06 196.86C357.98 197.06 358.15 197.34 358.43 197.23C359.05 197 359.64 196.69 360.15 196.3C361.2 195.49 362.02 194.41 362.49 193.2C363 191.88 363.01 190.5 362.81 189.08C362.7 188.33 362.57 187.57 362.54 186.82C362.51 186.04 362.59 185.26 362.73 184.51C363.01 183.01 363.53 181.59 364 180.15C364.79 177.69 365.44 175 364.54 172.37C363.61 169.65 360.94 168.1 359.06 165.97C358.16 164.95 357.58 163.81 357.31 162.55C357.05 161.32 357.02 160.08 356.96 158.84C356.91 157.6 356.84 156.35 356.5 155.12C356.13 153.78 355.45 152.52 354.44 151.45C353.34 150.29 351.98 149.46 350.46 148.9C348.81 148.29 347.07 147.95 345.42 147.32C342.87 146.36 340.78 144.64 339 142.69C337.18 140.7 335.64 138.51 333.96 136.42C332.62 134.75 331.15 133.06 329.39 131.73C329.39 131.72 329.38 131.72 329.38 131.71C329.19 131.45 328.95 131.23 328.7 131.02C328.45 130.81 328.2 130.59 327.94 130.4C327.66 130.18 327.36 130.53 327.62 130.76Z" fill="#106939"/>
<path d="M329.26 131.916L328.408 132.44L355.426 176.461L356.278 175.938L329.26 131.916Z" fill="#1A4943"/>
<path d="M376.5 146.66C376.5 146.66 365.93 160.52 374.98 181.92C374.98 181.92 387.74 172.07 381.27 149.51C381.27 149.51 401.93 152.29 407.46 140.44C407.46 140.44 388.12 135.33 376.5 146.66Z" fill="#106939"/>
<path d="M244.62 214.21C244.93 214.01 245.21 213.79 245.5 213.57C245.79 213.35 246.07 213.12 246.3 212.84C246.31 212.83 246.31 212.83 246.31 212.82C248.34 211.47 250.07 209.64 251.66 207.83C253.65 205.56 255.49 203.15 257.63 201.01C259.72 198.92 262.15 197.15 265.04 196.36C266.91 195.85 268.86 195.68 270.73 195.18C272.45 194.72 274.01 193.92 275.3 192.68C276.48 191.55 277.31 190.12 277.8 188.57C278.24 187.15 278.39 185.65 278.53 184.17C278.66 182.7 278.77 181.21 279.14 179.77C279.52 178.29 280.23 177.01 281.29 175.91C283.5 173.62 286.56 172.13 287.75 169C288.91 165.97 288.35 162.65 287.61 159.59C287.18 157.8 286.68 156.01 286.46 154.18C286.35 153.25 286.3 152.31 286.38 151.38C286.46 150.48 286.65 149.59 286.82 148.71C287.13 147.03 287.2 145.38 286.71 143.72C286.26 142.2 285.42 140.79 284.3 139.67C283.76 139.12 283.12 138.68 282.44 138.31C282.14 138.15 281.93 138.46 282.01 138.71C281.99 138.75 281.98 138.79 281.98 138.84C282.17 140.25 282.03 141.72 281.43 143.02C281.14 143.65 280.74 144.23 280.26 144.73C279.68 145.32 278.98 145.75 278.26 146.14C276.93 146.87 275.65 147.59 274.81 148.89C274.18 149.87 273.88 151.04 273.72 152.18C273.39 154.54 273.65 157.05 272.85 159.33C272.4 160.62 271.55 161.66 270.44 162.44C269.23 163.28 267.85 163.81 266.49 164.34C265.05 164.9 263.59 165.45 262.28 166.26C261.01 167.05 259.9 168.11 259.04 169.33C258.19 170.53 257.56 171.88 257.21 173.31C256.84 174.83 256.87 176.41 256.71 177.96C256.63 178.7 256.51 179.45 256.25 180.15C255.97 180.91 255.53 181.57 255 182.18C253.96 183.35 252.67 184.26 251.57 185.36C249.41 187.54 247.92 190.4 247.36 193.42C246.71 196.88 247.44 200.35 247.65 203.82C247.82 206.66 247.53 209.85 245.74 212.19C245.33 212.47 244.92 212.75 244.5 213.01C244.23 213.17 244.29 213.45 244.47 213.61C244.42 213.65 244.38 213.69 244.33 213.72C243.98 213.95 244.3 214.42 244.62 214.21Z" fill="#106939"/>
<path d="M277.905 162.925L245.273 211.923L246.105 212.477L278.737 163.479L277.905 162.925Z" fill="#1A4943"/>
<path d="M109.54 160.92C109.59 160.98 109.65 161.03 109.75 161.04C112.27 161.54 114.71 162.62 116.58 164.41C117.49 165.28 118.25 166.29 118.82 167.41C119.5 168.74 119.82 170.2 120.08 171.66C120.56 174.36 121.04 176.98 122.79 179.18C124.11 180.83 125.92 182.03 127.79 182.97C131.64 184.91 136.09 185.92 139.53 188.62C141.47 190.14 142.77 192.2 143.45 194.56C144.18 197.12 144.29 199.79 144.4 202.44C144.52 205.23 144.61 208.05 145.24 210.77C145.85 213.4 147.03 215.93 148.61 218.11C150.18 220.27 152.11 222.13 154.36 223.56C156.75 225.08 159.47 225.94 162.02 227.13C163.24 227.7 164.46 228.34 165.51 229.2C166.64 230.12 167.53 231.26 168.25 232.52C169.65 234.98 170.45 237.72 171.71 240.24C173.25 243.34 175.41 246.15 177.98 248.48H207.51C205.6 245.34 203.69 242.21 202.07 238.91C199.71 234.11 198.09 228.92 198.42 223.52C198.63 220.02 199.48 216.59 199.71 213.08C199.92 209.87 199.46 206.72 198.09 203.8C196.83 201.12 194.89 198.86 192.5 197.13C190.32 195.54 187.84 194.41 185.39 193.33C182.94 192.25 180.45 191.2 178.2 189.73C175.89 188.23 174.1 186.26 172.84 183.8C170.21 178.68 169.43 172.58 164.77 168.71C160.25 164.96 154.24 163.99 148.57 163.47C145.25 163.17 141.9 162.98 138.63 162.3C136.98 161.95 135.34 161.49 133.79 160.81C132.29 160.15 130.89 159.3 129.46 158.5C126.76 156.99 123.97 155.91 120.85 155.78C117.98 155.67 115.09 156.29 112.51 157.55C111.26 158.16 110.12 158.99 109.1 159.94C108.66 160.36 109.06 160.91 109.54 160.92Z" fill="#1A4943"/>
<path d="M173.02 212.98C182.11 224.57 191.48 236.52 200.38 248.5H201.62C192.58 236.31 183.05 224.16 173.81 212.37C165.85 202.23 157.63 191.74 149.69 181.2C149.52 180.98 149.21 180.94 148.99 181.1C148.77 181.27 148.73 181.58 148.89 181.8C156.83 192.34 165.06 202.83 173.02 212.98Z" fill="#A4C842"/>
<path d="M214.6 147.07C216.17 148.59 217.42 150.49 217.93 152.63C218.18 153.67 218.26 154.74 218.15 155.81C218.02 157.07 217.58 158.27 217.09 159.43C216.19 161.58 215.32 163.68 215.56 166.06C215.74 167.85 216.49 169.54 217.39 171.08C219.25 174.24 221.97 177.02 223.19 180.53C223.88 182.51 223.86 184.59 223.25 186.59C222.6 188.76 221.44 190.72 220.3 192.66C219.1 194.71 217.86 196.77 217.06 199.01C216.29 201.18 215.96 203.52 216.09 205.82C216.22 208.08 216.74 210.31 217.69 212.37C218.7 214.56 220.25 216.43 221.53 218.45C222.14 219.42 222.72 220.44 223.08 221.54C223.47 222.72 223.58 223.95 223.51 225.18C223.38 227.58 222.69 229.91 222.42 232.3C221.9 237 222.85 241.87 225.05 246.05C225.5 246.9 226.01 247.7 226.55 248.48H244.48C244.55 247.43 244.63 246.39 244.75 245.35C245.27 240.82 246.51 236.37 249.23 232.65C251 230.24 253.18 228.18 254.96 225.78C256.59 223.58 257.71 221.12 258.08 218.39C258.41 215.9 258.06 213.38 257.16 211.04C256.33 208.9 255.08 206.95 253.82 205.04C252.57 203.14 251.27 201.24 250.34 199.15C249.38 197.01 249.01 194.78 249.23 192.44C249.71 187.56 251.96 182.84 250.41 177.93C248.91 173.17 245.05 169.7 241.24 166.71C239 164.96 236.69 163.29 234.67 161.29C233.65 160.28 232.69 159.19 231.89 157.99C231.12 156.83 230.51 155.57 229.86 154.35C228.62 152.02 227.13 149.96 224.95 148.43C222.95 147.02 220.59 146.14 218.16 145.85C216.98 145.71 215.79 145.78 214.62 145.99C214.11 146.08 214.15 146.65 214.48 146.88C214.52 146.95 214.54 147.01 214.6 147.07Z" fill="#1A4943"/>
<path d="M238.85 248.49H239.85C239.04 234.26 237.65 219.6 236.29 205.37C235.48 196.95 234.65 188.24 233.97 179.89C233.95 179.62 233.7 179.41 233.43 179.43C233.15 179.45 232.95 179.69 232.97 179.97C233.65 188.33 234.48 197.04 235.29 205.46C236.65 219.66 238.04 234.3 238.85 248.49Z" fill="#A4C842"/>
<path d="M190.27 159.6C190.28 159.66 190.31 159.71 190.36 159.75C191.78 160.88 192.94 162.39 193.51 164.22C193.78 165.11 193.92 166.05 193.89 167.01C193.86 168.15 193.56 169.27 193.22 170.37C192.6 172.41 192 174.39 192.34 176.47C192.6 178.03 193.34 179.43 194.19 180.67C195.95 183.22 198.41 185.3 199.65 188.25C200.35 189.91 200.46 191.76 200.08 193.62C199.66 195.64 198.81 197.54 197.97 199.42C197.09 201.4 196.18 203.41 195.64 205.51C195.12 207.54 194.99 209.67 195.24 211.69C195.49 213.68 196.07 215.59 196.99 217.28C197.97 219.08 199.39 220.52 200.59 222.15C201.17 222.93 201.71 223.75 202.08 224.68C202.48 225.67 202.65 226.75 202.67 227.85C202.71 230 202.27 232.17 202.2 234.32C202.05 238.56 203.15 242.76 205.26 246.16C205.78 246.99 206.36 247.75 206.98 248.47H221.82C221.75 246.58 221.71 244.69 221.78 242.78C221.94 238.69 222.71 234.56 224.77 230.88C226.11 228.49 227.82 226.36 229.17 223.98C230.41 221.8 231.2 219.45 231.34 216.99C231.47 214.73 231.02 212.55 230.11 210.59C229.28 208.8 228.11 207.25 226.93 205.73C225.76 204.21 224.55 202.71 223.64 200.99C222.7 199.22 222.25 197.29 222.3 195.19C222.4 190.8 224.01 186.29 222.4 182.14C220.84 178.12 217.39 175.58 213.99 173.46C212 172.22 209.96 171.05 208.13 169.56C207.21 168.81 206.33 167.97 205.59 167.02C204.87 166.1 204.28 165.07 203.66 164.07C202.48 162.18 201.09 160.56 199.17 159.5C197.4 158.53 195.36 158.07 193.3 158.16C192.3 158.2 191.3 158.43 190.33 158.78C189.91 158.94 189.98 159.45 190.27 159.6Z" fill="#106939"/>
<path d="M218.16 248.49L208.75 186.22L207.76 186.37L217.15 248.49H218.16Z" fill="#1A4943"/>
<path d="M433.4 231.33L429.64 244.63L436.21 299.16L467.6 295.38L461.03 240.85L453.89 228.86L433.4 231.33ZM444.91 235.83C444.19 236.74 442.87 236.89 441.97 236.17C441.06 235.45 440.91 234.13 441.63 233.23C442.35 232.32 443.67 232.17 444.57 232.89C445.48 233.61 445.63 234.92 444.91 235.83Z" fill="#106939"/>
<path d="M452.13 244.2C452.13 244.2 430.47 247.87 438.52 271.62C438.52 271.62 456.65 270.17 452.13 244.2Z" fill="#FFF4CA"/>
<path d="M452.13 244.2L441.65 264.04" stroke="#106939" stroke-miterlimit="10" stroke-linecap="round" stroke-linejoin="round"/>
<path d="M460.95 282.61C460.95 282.61 453.76 267.3 437.81 278.17C437.81 278.17 442.62 291.32 460.95 282.61Z" fill="#FFF4CA"/>
<path d="M460.95 282.61L444.07 278.93" stroke="#106939" stroke-miterlimit="10" stroke-linecap="round" stroke-linejoin="round"/>
<path d="M415.95 191.8L437.95 237.25" stroke="#1A4943" stroke-miterlimit="10" stroke-linecap="round" stroke-linejoin="round"/>
<path d="M159.03 337.4C159.03 337.4 114.18 311.91 102.56 309.33C90.94 306.74 0 305.13 0 305.13V358.37L75.13 355.47C75.13 355.47 135.31 407.26 139.67 405.81C144.03 404.36 146.93 396.77 135.8 387.09C135.8 387.09 152.1 377.89 153.23 377.41C154.36 376.93 172.59 366.44 172.59 366.44C172.59 366.44 173.4 353.86 154.52 362.57L167.75 348.88C167.75 348.88 159.87 331.36 135.8 358.69C135.8 358.69 115.15 355.03 114.5 341.78H131.82C131.82 341.78 157.58 350.79 159.03 337.4Z" fill="#C19759"/>
<path d="M154.51 362.56L147.61 369.46C141.67 375.4 133.07 377.86 124.88 375.94L94.27 357.2" stroke="#1A4943" stroke-miterlimit="10" stroke-linecap="round" stroke-linejoin="round"/>
<path d="M110.78 376.58C111.26 378.03 122.62 394.47 135.8 387.09" stroke="#1A4943" stroke-miterlimit="10" stroke-linecap="round" stroke-linejoin="round"/>
<path d="M143.41 328.75L141.62 332.31C140.71 334.11 141.58 336.3 143.47 337C147.45 338.47 153.5 340.52 154.51 339.77C156.04 338.64 157.06 336.28 157.06 336.28L143.41 328.75Z" fill="#FFF7C8"/>
<path d="M158.06 358.9L151.44 351.66C151.44 351.66 159.41 344.39 166.47 350.2L158.06 358.9Z" fill="#FFF7C8"/>
<path d="M169.96 367.95C169.96 367.95 165.77 359.31 155.56 367.95L158.96 374.23L169.96 367.95Z" fill="#FFF7C8"/>
<path d="M132.56 392.42L126.78 397.83C130.51 400.63 133.7 402.88 136 404.28C140.18 397.97 132.56 392.42 132.56 392.42Z" fill="#FFF7C8"/>
</g>
<defs>
<clipPath id="clip0_1998_4978">
<rect width="467.61" height="439.35" fill="white"/>
</clipPath>
</defs>
</svg>
