<svg width="145" height="153" viewBox="0 0 145 153" fill="none" xmlns="http://www.w3.org/2000/svg">
<g clip-path="url(#clip0_1432_5120)">
<path d="M79.764 85.0098H22.3262C22.3262 85.0098 23.8572 102.729 41.045 118.924C58.2392 135.119 79.764 133.21 79.764 133.21C79.764 133.21 101.289 135.119 118.483 118.924C135.677 102.729 137.202 85.0098 137.202 85.0098H79.764Z" fill="#AFD3E3"/>
<g style="mix-blend-mode:multiply">
<path d="M56.9643 85.0098C57.7266 111.941 79.7639 133.21 79.7639 133.21C60.0264 130.538 40.1545 108.123 38.3735 85.0098" stroke="#EDE7E2" stroke-width="0.320309" stroke-linecap="round" stroke-linejoin="round"/>
<path d="M72.2557 85.0098C71.487 107.098 79.7638 133.21 79.7638 133.21" stroke="#EDE7E2" stroke-width="0.320309" stroke-linecap="round" stroke-linejoin="round"/>
<path d="M102.564 85.0098C101.801 111.941 79.7639 133.21 79.7639 133.21C99.5014 130.538 119.373 108.123 121.154 85.0098" stroke="#EDE7E2" stroke-width="0.320309" stroke-linecap="round" stroke-linejoin="round"/>
<path d="M87.272 85.0098C88.0407 107.098 79.7639 133.21 79.7639 133.21" stroke="#EDE7E2" stroke-width="0.320309" stroke-linecap="round" stroke-linejoin="round"/>
</g>
<path d="M92.6406 67.1108C125.075 53.9077 122.372 33.8691 122.372 33.8691H37.1567C37.1567 33.8691 34.4597 53.9077 66.8877 67.1108C86.9135 75.2595 65.677 91.9476 65.677 91.9476H93.8578C93.8578 91.9476 72.6213 75.2659 92.647 67.1108H92.6406Z" fill="#AFD3E3"/>
<g style="mix-blend-mode:multiply">
<path d="M47.7333 33.8691C47.7333 47.2388 58.0472 56.7904 67.791 62.9083C77.5348 69.0198 78.8737 76.2781 73.3324 89.0776" stroke="#EDE7E2" stroke-width="0.320309" stroke-linecap="round" stroke-linejoin="round"/>
<path d="M59.0662 33.8691C60.9111 51.0633 72.5768 56.6047 76.5807 67.681C80.5845 78.7636 75.9785 90.7944 75.9785 90.7944" stroke="#EDE7E2" stroke-width="0.320309" stroke-linecap="round" stroke-linejoin="round"/>
<path d="M111.404 33.8691C111.404 47.2388 101.09 56.7904 91.3464 62.9083C81.6026 69.0198 80.2637 76.2781 85.8051 89.0776" stroke="#EDE7E2" stroke-width="0.320309" stroke-linecap="round" stroke-linejoin="round"/>
<path d="M100.066 33.8691C98.2207 51.0633 86.555 56.6047 82.5512 67.681C78.5473 78.7636 83.1533 90.7944 83.1533 90.7944" stroke="#EDE7E2" stroke-width="0.320309" stroke-linecap="round" stroke-linejoin="round"/>
<path d="M85.3697 33.8691C85.1775 48.0076 79.7643 73.9846 79.7643 73.9846" stroke="#EDE7E2" stroke-width="0.320309" stroke-linecap="round" stroke-linejoin="round"/>
<path d="M74.1588 33.8691C74.351 48.0076 79.7642 73.9846 79.7642 73.9846" stroke="#EDE7E2" stroke-width="0.320309" stroke-linecap="round" stroke-linejoin="round"/>
</g>
<path d="M79.7638 30.4291C87.5722 30.4291 93.9022 24.6699 93.9022 17.5655C93.9022 10.4611 87.5722 4.7019 79.7638 4.7019C71.9554 4.7019 65.6254 10.4611 65.6254 17.5655C65.6254 24.6699 71.9554 30.4291 79.7638 30.4291Z" fill="#6F7FAA"/>
<g style="mix-blend-mode:multiply">
<path d="M90.4686 18.5072C82.9605 23.6129 72.6145 23.8948 65.6766 18.5905C66.2532 25.2144 72.3391 30.4291 79.7638 30.4291C87.573 30.4291 93.9023 24.6699 93.9023 17.5655C93.9023 17.0209 93.8638 16.4828 93.787 15.9575C92.7107 16.88 91.6089 17.732 90.475 18.5072H90.4686Z" fill="#6F7FAA"/>
</g>
<path d="M79.7641 133.203C65.8819 133.203 53.0824 152.691 53.0824 152.691H106.446C106.446 152.691 93.6463 133.203 79.7641 133.203Z" fill="#6F7FAA"/>
<g style="mix-blend-mode:multiply">
<path d="M79.7644 133.203C75.6901 133.203 71.7119 134.888 68.1244 137.259C75.8631 142.973 94.0694 145.529 101.52 146.355C96.5358 140.667 88.3615 133.203 79.7708 133.203H79.7644Z" fill="#6F7FAA"/>
</g>
<path d="M79.7636 25.0798H61.2946C62.3452 29.3015 64.6001 32.9979 68.9371 35.7782H90.59C94.927 32.9979 97.182 29.3015 98.2326 25.0798H79.7636Z" fill="#AFD3E3"/>
<path opacity="0.62" d="M39.3276 33.8691L33.4083 85.0097H53.844L53.0817 33.8691H39.3276Z" fill="#6F7FAA"/>
<g style="mix-blend-mode:screen">
<path d="M44.6764 33.8691L42.5751 85.0097" stroke="#6F7FAA" stroke-width="0.320309" stroke-linecap="round" stroke-linejoin="round"/>
<path d="M50.2173 33.8691V85.0097" stroke="#6F7FAA" stroke-width="0.320309" stroke-linecap="round" stroke-linejoin="round"/>
</g>
<g style="mix-blend-mode:screen" opacity="0.63">
<path d="M50.2182 62.3317C47.5341 67.0723 45.1958 68.0588 43.543 61.4733C43.543 61.4733 38.8152 69.1607 35.3815 67.9435L34.7601 73.3055C36.682 73.9525 39.4174 71.3452 43.4597 63.5104C44.9395 72.7545 47.297 71.595 50.2182 63.6962C51.3585 68.5585 52.4796 70.0383 53.5238 63.5168L53.5046 62.3381C52.5373 65.8999 51.429 65.6117 50.2118 62.3381L50.2182 62.3317Z" fill="#6F7FAA"/>
</g>
<g style="mix-blend-mode:screen" opacity="0.63">
<path d="M45.8745 51.7488C45.8745 53.645 45.1378 55.1825 44.2217 55.1825C43.3056 55.1825 42.5689 53.645 42.5689 51.7488C42.5689 49.8525 43.3056 48.3151 44.2217 48.3151C45.1378 48.3151 45.8745 49.8525 45.8745 51.7488Z" fill="#6F7FAA"/>
</g>
<path opacity="0.62" d="M95.6821 33.8689L98.2318 85.0094H62.1586V33.8689H95.6821Z" fill="#6F7FAA"/>
<g style="mix-blend-mode:screen">
<path d="M67.7897 33.8689L68.6417 85.0094" stroke="#6F7FAA" stroke-width="0.320309" stroke-linecap="round" stroke-linejoin="round"/>
<path d="M76.5856 33.8689L76.9635 85.0094" stroke="#6F7FAA" stroke-width="0.320309" stroke-linecap="round" stroke-linejoin="round"/>
<path d="M90.4934 33.8689L92.4345 85.0094" stroke="#6F7FAA" stroke-width="0.320309" stroke-linecap="round" stroke-linejoin="round"/>
<path d="M82.562 33.8689L84.2148 85.0094" stroke="#6F7FAA" stroke-width="0.320309" stroke-linecap="round" stroke-linejoin="round"/>
</g>
<g style="mix-blend-mode:screen" opacity="0.63">
<path d="M97.0853 62.0947C95.6503 65.5924 93.69 65.5284 91.339 62.9018C88.6676 67.0018 86.0154 66.9698 83.3889 62.62C80.9097 67.4182 78.6804 66.6366 76.5855 62.9018C74.0423 67.1299 71.1723 67.7513 67.7898 62.9018C66.3164 66.3099 64.6444 67.9691 62.1588 62.3317V63.709C63.7475 74.5227 65.836 72.8186 68.2191 63.8692C70.9353 71.2939 73.7988 70.7494 76.7713 64.1382C78.6355 72.0755 80.9225 69.9102 83.3889 63.5937C84.9328 70.711 87.6618 70.5957 91.4607 63.9525C93.8182 70.3779 95.6952 69.9294 97.1237 62.8954L97.0853 62.0883V62.0947Z" fill="#6F7FAA"/>
</g>
<g style="mix-blend-mode:screen" opacity="0.63">
<path d="M78.2191 48.1803C78.2191 50.2559 77.5144 51.9343 76.6496 51.9343C75.7848 51.9343 75.0801 50.2559 75.0801 48.1803C75.0801 46.1047 75.7848 44.4263 76.6496 44.4263C77.5144 44.4263 78.2191 46.1047 78.2191 48.1803Z" fill="#6F7FAA"/>
</g>
<g style="mix-blend-mode:screen" opacity="0.63">
<path d="M93.7158 76.092C93.7158 77.5783 93.2097 78.789 92.5883 78.789C91.9669 78.789 91.4608 77.5847 91.4608 76.092C91.4608 74.5994 91.9669 73.395 92.5883 73.395C93.2097 73.395 93.7158 74.5994 93.7158 76.092Z" fill="#6F7FAA"/>
</g>
<path opacity="0.62" d="M122.371 33.8691L130.071 85.0097H108.482V33.8691H122.371Z" fill="#6F7FAA"/>
<g style="mix-blend-mode:screen">
<path d="M120.328 33.8691L125.677 85.0097" stroke="#6F7FAA" stroke-width="0.320309" stroke-linecap="round" stroke-linejoin="round"/>
<path d="M114.402 33.8691L115.549 85.0097" stroke="#6F7FAA" stroke-width="0.320309" stroke-linecap="round" stroke-linejoin="round"/>
</g>
<g style="mix-blend-mode:screen" opacity="0.63">
<path d="M108.482 60.9993C109.975 69.9552 112.051 71.0634 115.004 60.6149C118.284 69.0583 121 69.4619 122.954 58.9814C125.145 63.4977 126.266 64.2665 126.701 62.6137L126.112 58.6931C125.196 59.8846 124.043 60.0448 122.595 58.0012C120.763 62.0948 118.245 62.6585 114.985 59.4362C112.896 63.7347 110.712 62.793 108.489 59.686V60.9993H108.482Z" fill="#6F7FAA"/>
</g>
<g style="mix-blend-mode:screen" opacity="0.63">
<path d="M126.682 73.882C126.926 75.7462 126.413 77.3478 125.529 77.4631C124.645 77.5784 123.729 76.1626 123.485 74.2984C123.242 72.4342 123.754 70.8327 124.639 70.7174C125.523 70.6021 126.439 72.0178 126.682 73.882Z" fill="#6F7FAA"/>
</g>
<g style="mix-blend-mode:multiply">
<path d="M58.7578 33.4017C55.369 13.2863 38.1299 9.23763 29.3343 14.5163C20.5386 19.795 21.4162 32.7483 23.1779 41.8387C24.9396 50.929 21.7686 55.0931 12.2746 62.332" stroke="#729843" stroke-width="0.640618" stroke-linecap="round" stroke-linejoin="round"/>
<path d="M33.3764 18.3857C32.0952 25.6951 57.7583 32.4344 54.9781 22.7739C52.1978 13.1134 34.6064 11.3517 33.3764 18.3857Z" fill="#729843"/>
<g style="mix-blend-mode:multiply" opacity="0.64">
<path d="M33.376 18.3857L54.9777 22.7676" stroke="#2F392B" stroke-width="0.320309" stroke-linecap="round" stroke-linejoin="round"/>
</g>
<path d="M18.4239 2.46631C14.5546 9.94232 29.5451 18.4369 34.8045 12.6073C40.0576 6.77767 22.3701 -5.15704 18.4239 2.46631Z" fill="#729843"/>
<g style="mix-blend-mode:multiply" opacity="0.64">
<path d="M18.424 2.46631L34.8046 12.6073" stroke="#2F392B" stroke-width="0.320309" stroke-linecap="round" stroke-linejoin="round"/>
</g>
<path d="M23.2227 22.5559C14.3053 25.8231 22.8256 45.1634 29.1549 42.3703C39.5777 37.777 32.9409 18.9877 23.2227 22.5559Z" fill="#729843"/>
<g style="mix-blend-mode:multiply" opacity="0.64">
<path d="M23.2226 22.5559L29.1547 42.3702" stroke="#2F392B" stroke-width="0.320309" stroke-linecap="round" stroke-linejoin="round"/>
</g>
<path d="M22.9215 50.6344C23.1329 43.3121 3.10715 42.9149 0.653582 51.9348C-1.79998 60.9547 22.6716 59.4301 22.9215 50.6344Z" fill="#729843"/>
<g style="mix-blend-mode:multiply" opacity="0.64">
<path d="M0.653564 51.9284L22.9214 50.6344" stroke="#2F392B" stroke-width="0.320309" stroke-linecap="round" stroke-linejoin="round"/>
</g>
<path d="M14.2348 60.8074C4.51025 57.3288 -6.13682 78.1938 4.29885 80.4808C14.7345 82.7678 24.6449 64.5358 14.2348 60.8074Z" fill="#729843"/>
<g style="mix-blend-mode:multiply" opacity="0.64">
<path d="M14.2353 60.8074L1.8009 79.1355" stroke="#2F392B" stroke-width="0.320309" stroke-linecap="round" stroke-linejoin="round"/>
</g>
</g>
<g style="mix-blend-mode:multiply">
<path d="M102.928 84.587C104.914 79.2122 112.127 76.9701 119.866 84.3372C127.604 91.6979 129.187 102.64 127.079 110.186C124.972 117.733 118.034 120.372 115.433 126.881" stroke="#729843" stroke-width="0.640618" stroke-linecap="round" stroke-linejoin="round"/>
<path d="M127.694 109.315C131.275 99.6479 148.322 114.427 144.094 120.974C139.866 127.515 123.677 120.16 127.694 109.315Z" fill="#729843"/>
<g style="mix-blend-mode:multiply" opacity="0.64">
<path d="M127.694 109.315L144.088 120.974" stroke="#2F392B" stroke-width="0.320309" stroke-linecap="round" stroke-linejoin="round"/>
</g>
<path d="M124.786 113.658C126.137 122.294 108.162 126.874 108.162 119.136C108.162 111.397 123.376 104.658 124.786 113.658Z" fill="#729843"/>
<g style="mix-blend-mode:multiply" opacity="0.64">
<path d="M124.785 113.658L108.302 120.225" stroke="#2F392B" stroke-width="0.320309" stroke-linecap="round" stroke-linejoin="round"/>
</g>
<path d="M115.427 124.241C126.253 124.978 125.151 145.875 116.349 143.94C107.547 142.006 107.65 123.71 115.427 124.241Z" fill="#729843"/>
<g style="mix-blend-mode:multiply" opacity="0.64">
<path d="M115.427 124.241L118.284 144.068" stroke="#2F392B" stroke-width="0.320309" stroke-linecap="round" stroke-linejoin="round"/>
</g>
<path d="M118.284 82.9534C125.593 84.9906 122.691 102.255 116.356 100.321C110.02 98.3859 107.733 80.013 118.284 82.9534Z" fill="#729843"/>
<g style="mix-blend-mode:multiply" opacity="0.64">
<path d="M118.284 82.9535L116.349 100.321" stroke="#2F392B" stroke-width="0.320309" stroke-linecap="round" stroke-linejoin="round"/>
</g>
</g>
<g style="mix-blend-mode:multiply">
<path d="M56.965 85.0099C48.0027 80.8394 41.0968 87.0214 39.2006 95.4007C37.6695 102.172 50.6613 107.963 54.2615 114.786" stroke="#729843" stroke-width="0.640618" stroke-linecap="round" stroke-linejoin="round"/>
<path d="M50.4308 109.859C57.9068 110.57 57.1381 126.016 52.5833 125.426C48.0221 124.837 42.295 109.091 50.4308 109.859Z" fill="#729843"/>
<g style="mix-blend-mode:multiply" opacity="0.64">
<path d="M50.4309 109.859L52.5834 125.426" stroke="#2F392B" stroke-width="0.320309" stroke-linecap="round" stroke-linejoin="round"/>
</g>
<path d="M39.1111 118.822C31.0393 116.093 35.4212 95.5609 43.4353 104.113C47.8812 108.86 42.6345 120.013 39.1111 118.822Z" fill="#729843"/>
<g style="mix-blend-mode:multiply" opacity="0.64">
<path d="M39.111 118.822L41.0969 102.358" stroke="#2F392B" stroke-width="0.320309" stroke-linecap="round" stroke-linejoin="round"/>
</g>
<path d="M22.9166 97.2072C22.2504 91.7235 43.1473 84.523 39.7008 94.3629C36.2479 104.196 23.6469 103.216 22.9166 97.2072Z" fill="#729843"/>
<g style="mix-blend-mode:multiply" opacity="0.64">
<path d="M22.9166 97.2071L39.7008 94.3628" stroke="#2F392B" stroke-width="0.320309" stroke-linecap="round" stroke-linejoin="round"/>
</g>
<path d="M58.9578 96.6755C59.733 105.862 40.1173 105.324 39.0282 98.3731C37.5484 88.9048 58.298 88.9048 58.9578 96.6755Z" fill="#729843"/>
<g style="mix-blend-mode:multiply" opacity="0.64">
<path d="M58.9577 96.6755L39.201 95.4006" stroke="#2F392B" stroke-width="0.320309" stroke-linecap="round" stroke-linejoin="round"/>
</g>
</g>
<g style="mix-blend-mode:multiply" opacity="0.84">
<path d="M32.3389 61.4224C31.6919 66.0284 29.4561 67.9374 26.189 68.0848C29.8405 68.5332 31.8905 70.7498 32.3389 74.7472C32.7937 70.7562 34.8437 68.5332 38.4888 68.0848C35.2153 67.9374 32.9859 66.0284 32.3389 61.4224Z" fill="#EBB042"/>
</g>
<g style="mix-blend-mode:multiply" opacity="0.84">
<path d="M130.853 11.0762C130.225 15.5605 128.047 17.4247 124.864 17.5656C128.419 18.0013 130.418 20.1665 130.853 24.0551C131.295 20.1665 133.288 18.0013 136.843 17.5656C133.659 17.4183 131.481 15.5605 130.853 11.0762Z" fill="#6F7FAA"/>
</g>
<g style="mix-blend-mode:multiply">
<path d="M22.9027 118.931C22.134 124.427 19.469 126.701 15.5612 126.881C19.9174 127.412 22.3582 130.064 22.9027 134.831C23.4408 130.064 25.888 127.412 30.2442 126.881C26.3428 126.701 23.6778 124.427 22.9027 118.931Z" fill="#41947C"/>
</g>
</g>
<defs>
<clipPath id="clip0_1432_5120">
<rect width="144.76" height="152.691" fill="white"/>
</clipPath>
</defs>
</svg>
