<svg width="179" height="194" viewBox="0 0 179 194" fill="none" xmlns="http://www.w3.org/2000/svg">
<g clip-path="url(#clip0_1986_4814)">
<path d="M91.51 152.18C85.26 142.01 96.18 95.11 117.64 77.15C139.1 59.19 155.66 66.28 152.65 87.77C149.64 109.26 111.61 150.3 104.09 152.18C96.56 154.06 91.51 152.18 91.51 152.18Z" fill="#7A9954"/>
<path d="M146.03 68.4C134.96 79.52 103.33 127.11 97.3099 153.01" stroke="#21261F" stroke-width="0.5" stroke-miterlimit="10" stroke-linecap="round" stroke-linejoin="round"/>
<path d="M98.99 155.86C100.62 128.86 135.23 111.69 152.17 102.01C169.11 92.33 178.15 87.03 178.15 87.03C178.15 87.03 177.82 109.54 153.3 125.95C128.78 142.37 102.83 155.85 102.83 155.85H98.99V155.86Z" fill="#7A9954"/>
<path d="M0.0800074 123.21C-1.42999 131.49 18.9 136.89 43.75 140.21C68.6 143.54 92.34 155.86 92.34 155.86H98.99C93.24 137.69 87.66 119.47 0.0800074 123.21Z" fill="#7A9954"/>
<path d="M97.31 155.09C111.33 152.83 92.13 94.8499 46.57 85.0599C1.01996 75.2699 14.97 111.42 33.41 118.57C51.85 125.72 84.72 155.09 91.02 155.09C97.31 155.09 97.31 155.09 97.31 155.09Z" fill="#7A9954"/>
<path d="M16.9099 90.6799C65.0199 107.28 85.5499 134.76 97.3099 155.09" stroke="#21261F" stroke-width="0.5" stroke-miterlimit="10" stroke-linecap="round" stroke-linejoin="round"/>
<path d="M9.98001 68.75C10.24 76.53 34.56 75.34 33.88 68.41C33.21 61.47 9.73001 60.97 9.98001 68.75Z" fill="#7A9954"/>
<path d="M87.9201 47.7C112.64 105.17 102.84 155.86 102.84 155.86H98.9901C103.16 125.55 99.6401 81.65 85.2001 48.86L87.9201 47.7Z" fill="#7A9954"/>
<path d="M82.2801 38.97C81.1201 22.86 94.1201 16.65 96.6401 19.17C99.1601 21.69 97.0601 42.27 90.6401 44.98C84.2201 47.7 91.9801 49.44 91.9801 49.44C91.9801 49.44 101.55 56.23 99.5801 67.1C97.6101 77.97 85.2401 73.89 82.2101 68.65C79.1801 63.41 79.3701 59.14 79.3701 59.14C79.3701 59.14 71.8001 64 64.6201 61.29C57.4401 58.57 48.9001 52.27 57.0501 46.3C65.2001 40.33 81.5001 42.83 81.5001 42.83L82.2801 38.97Z" fill="#D67055"/>
<path d="M96.9501 72.29C98.9701 64.78 92.0001 49.06 87.9201 47.7C83.8401 46.34 95.3201 59.24 90.6501 73.85" stroke="#D67055" stroke-width="0.5" stroke-miterlimit="10" stroke-linecap="round" stroke-linejoin="round"/>
<path d="M84.59 71.26C84.22 63.62 85.19 48.87 85.19 48.87C85.19 48.87 76.27 58.82 62.39 60.35" stroke="#D67055" stroke-width="0.5" stroke-miterlimit="10" stroke-linecap="round" stroke-linejoin="round"/>
<path d="M57.21 57.17C61.51 51.39 77.03 47.51 82.47 47.61C87.91 47.71 69.66 43.05 54.52 48.87" stroke="#D67055" stroke-width="0.5" stroke-miterlimit="10" stroke-linecap="round" stroke-linejoin="round"/>
<path d="M87.0201 38.39C85.6701 24.93 74.5101 14.32 65.5901 15.49C56.6601 16.65 59.6801 38 78.2301 46.3C78.2301 46.3 67.0301 61.14 76.7901 65.56C86.5501 69.98 87.9201 50.8 87.9201 50.8C87.9201 50.8 96.4501 54.49 108.1 48.87C119.75 43.24 120.91 38.97 116.06 32.95C111.21 26.93 101.48 27.15 97.3201 29.95C93.1501 32.76 87.0201 38.39 87.0201 38.39Z" fill="#707B97"/>
<path d="M70.5302 15.9401C75.1002 31.5901 85.1902 43.4301 85.1902 43.4301C90.8202 36.2501 107.12 31.7801 117.34 34.7401" stroke="white" stroke-width="0.5" stroke-miterlimit="10" stroke-linecap="round" stroke-linejoin="round"/>
<path d="M118.75 39.16C109.26 40.32 103.82 44.16 95.8702 45.93C87.9202 47.7 85.2001 45.93 85.2001 45.93C85.2001 45.93 65.6802 33.13 60.7802 22.27" stroke="white" stroke-width="0.5" stroke-miterlimit="10" stroke-linecap="round" stroke-linejoin="round"/>
<path d="M85.1901 41.68C91.3401 43.35 84.4801 62.83 78.6601 60.72C72.8301 58.62 79.9501 40.26 85.1901 41.68Z" fill="#21261F"/>
<path d="M28.12 151.45H161.6C162.32 154.39 161.6 157.33 159.45 160.28H30.59C28.12 157.33 27.3 154.39 28.12 151.45Z" fill="#D67055"/>
<path d="M94.84 160.28H30.59C31.41 186.07 36.5 193.2 94.85 193.2C153.2 193.2 158.29 186.07 159.11 160.28H94.84Z" fill="#42353B"/>
<path d="M149.11 173.38C152.04 173.54 154.81 174.05 157.37 174.89C158.52 170.86 158.92 166.04 159.1 160.28H30.59C30.66 162.43 30.76 164.44 30.91 166.34C70.34 167.47 109.81 171.28 149.11 173.38Z" fill="#21261F"/>
<path opacity="0.84" d="M12.15 0C10.98 8.26 6.95004 11.69 1.04004 11.95C7.63004 12.75 11.34 16.74 12.16 23.9C12.98 16.73 16.68 12.75 23.28 11.95C17.36 11.69 13.32 8.26 12.15 0Z" fill="#D39F3F"/>
<path d="M150.9 21.75C149.63 30.71 145.26 34.43 138.84 34.71C145.99 35.58 150.01 39.9 150.9 47.67C151.79 39.9 155.8 35.58 162.96 34.71C156.55 34.43 152.17 30.71 150.9 21.75Z" fill="#4A8171"/>
</g>
<defs>
<clipPath id="clip0_1986_4814">
<rect width="178.15" height="193.2" fill="white"/>
</clipPath>
</defs>
</svg>
