<svg width="160" height="126" viewBox="0 0 160 126" fill="none" xmlns="http://www.w3.org/2000/svg">
<g clip-path="url(#clip0_1432_4943)">
<path d="M0.000610352 74.4783L1.44841 82.4347H64.6326V74.4783H0.000610352Z" fill="#58414C"/>
<path d="M10.8522 108.059L6.99573 82.4346H64.6321V108.059H10.8522Z" fill="#58414C"/>
<path d="M36.9062 95.4071C46.0478 98.3091 55.2983 100.564 64.6321 102.659V82.4346H6.99573L7.90541 88.4884C17.8286 89.68 27.2521 92.3385 36.9062 95.4071Z" fill="#2F392B"/>
<g style="mix-blend-mode:multiply">
<path d="M6.99621 74.4782C0.487537 69.8977 2.77454 63.2097 5.40748 56.5088C8.04042 49.808 4.58109 42.8829 8.20058 37.5786C11.8201 32.2743 16.6439 35.4069 18.5722 44.5741C20.5004 53.7414 28.9438 53.0175 32.3198 60.7305C35.6959 68.4435 33.2872 74.4782 33.2872 74.4782H6.99621Z" fill="#41947C"/>
</g>
<path d="M11.8201 43.1199L19.5331 74.4781" stroke="#2F392B" stroke-width="0.320309" stroke-linecap="round" stroke-linejoin="round"/>
<path d="M5.40759 56.5024L17.7459 67.2136L22.4672 51.3198" stroke="#2F392B" stroke-width="0.320309" stroke-linecap="round" stroke-linejoin="round"/>
<g style="mix-blend-mode:multiply">
<path d="M70.1482 62.1078C73.678 54.9713 68.4698 50.1923 62.9541 45.5606C57.4384 40.9289 57.1693 33.1967 51.455 30.2691C45.7407 27.335 43.0052 32.3959 45.6894 41.371C48.3736 50.346 40.6093 53.7413 41.3332 62.1334C42.0571 70.5255 47.0539 74.6703 47.0539 74.6703L70.1482 62.1078Z" fill="#41947C"/>
</g>
<path d="M50.9296 36.8738L59.1295 68.0975" stroke="#2F392B" stroke-width="0.320309" stroke-linecap="round" stroke-linejoin="round"/>
<path d="M62.9539 45.5669L57.2332 60.8713L45.4907 49.1608" stroke="#2F392B" stroke-width="0.320309" stroke-linecap="round" stroke-linejoin="round"/>
<g style="mix-blend-mode:multiply">
<path d="M51.1281 74.4782C56.9193 69.411 56.6759 60.974 51.1281 53.2546C45.5804 45.5351 50.1608 40.2308 46.5477 30.1026C42.9282 19.9745 36.6566 22.1462 32.3196 12.255C27.9762 2.36388 16.1632 3.57464 17.3676 14.9072C18.5719 26.2397 22.4349 28.9495 19.5393 40.0194C16.6437 51.0829 20.2632 55.1572 25.8109 59.27C31.3587 63.3827 28.4631 74.4782 28.4631 74.4782H51.1346H51.1281Z" fill="#41947C"/>
</g>
<path d="M24.5036 13.6516L40.7561 74.4783" stroke="#2F392B" stroke-width="0.320309" stroke-linecap="round" stroke-linejoin="round"/>
<path d="M38.0846 19.8271L33.1455 45.99L20.4741 34.997" stroke="#2F392B" stroke-width="0.320309" stroke-linecap="round" stroke-linejoin="round"/>
<path d="M48.1233 43.1201L38.8152 67.2138L25.8042 59.2637" stroke="#2F392B" stroke-width="0.320309" stroke-linecap="round" stroke-linejoin="round"/>
<path d="M142.685 17.963C147.028 12.8957 143.165 8.07185 138.828 10.0065C131.73 -4.05504 123.338 -0.960858 114.709 5.18267C112.326 1.98598 110.109 2.90847 107.957 5.18267C103.876 1.08271 99.9621 0.33319 96.381 6.38703C93.2548 2.02442 90.0325 2.40239 86.7333 6.86749C86.7333 6.86749 66.477 -9.53233 67.9248 22.3C69.3726 54.1323 142.691 17.9566 142.691 17.9566L142.685 17.963Z" fill="#58414C"/>
<path d="M60.263 22.6651C79.9812 17.4184 144.588 16.1564 144.588 16.1564C144.588 16.1564 150.161 16.0027 150.34 17.7067C150.52 19.4108 148.713 21.5825 148.713 21.5825C148.713 21.5825 152.691 21.0379 152.147 22.6651C151.602 24.2923 149.616 26.0988 149.616 26.0988C149.616 26.0988 154.261 45.2149 154.498 72.2233C154.735 99.2318 149.431 122.39 149.431 122.39L116.631 125.766C116.631 125.766 44.0361 122.871 39.9362 118.534C35.8362 114.19 25.9451 100.686 44.76 74.6384C63.5686 48.5909 66.4641 30.0194 66.4641 30.0194L60.2566 22.6651H60.263Z" fill="#EBB042"/>
<g style="mix-blend-mode:multiply">
<path d="M66.4764 30.0195C107.508 17.5659 148.533 20.8074 149.622 26.0989" stroke="#EBB042" stroke-width="0.320309" stroke-linecap="round" stroke-linejoin="round"/>
</g>
<g style="mix-blend-mode:multiply">
<path d="M147.265 30.0195C139.546 60.167 133.274 83.3189 122.185 99.9622C111.09 116.605 116.637 125.766 116.637 125.766" stroke="#EBB042" stroke-width="0.320309" stroke-linecap="round" stroke-linejoin="round"/>
</g>
<g style="mix-blend-mode:multiply">
<path d="M38.014 113.71C38.014 113.71 96.6177 120.942 117.361 120.218C138.104 119.494 150.519 116.99 150.519 116.99" stroke="#EBB042" stroke-width="0.320309" stroke-linecap="round" stroke-linejoin="round"/>
</g>
<path d="M49.109 98.5143L101.441 103.095C101.441 103.095 104.574 90.3144 111.332 82.1145C118.084 73.9146 121.46 65.7147 121.46 65.7147L67.8471 62.582C67.8471 62.582 64.644 71.7108 59.4806 77.8992C49.109 90.3208 49.109 98.5207 49.109 98.5207V98.5143Z" fill="#EDE7E2"/>
<path d="M71.1785 85.3688C77.2067 84.5232 79.9805 70.7755 75.6372 70.4168C71.2938 70.0581 67.1938 84.2862 68.0394 87.2971C68.885 90.3144 76.5981 94.1709 81.6654 94.1709C86.7327 94.1709 88.7762 96.5796 94.2663 94.1709C99.7564 91.7622 103.856 72.7038 100.48 71.8646C97.1043 71.0254 91.0761 86.3362 92.2804 91.397C93.4848 96.4643 88.5392 92.9089 88.5392 92.9089C88.5392 92.9089 86.88 92.3644 84.8172 92.3644C82.7544 92.3644 85.2849 88.9883 85.2849 88.9883C85.2849 88.9883 88.6609 86.3362 89.8653 77.8928C91.0696 69.4495 87.6936 67.5212 84.1958 73.7929C80.698 80.0645 80.2432 87.784 81.8576 89.5905C83.4719 91.397 81.4219 92.3644 81.4219 92.3644L78.0843 92.1209L70.8133 86.9383L71.1721 85.3688H71.1785Z" fill="#729843"/>
<path d="M101.441 103.095C101.441 103.095 103.248 95.7469 107.059 88.6168C100.288 86.6694 94.0742 91.3715 94.0742 91.3715C94.0742 91.3715 93.1645 87.0345 89.0005 86.4964C84.8364 85.9583 79.9613 91.3971 79.9613 91.3971C79.9613 91.3971 79.2246 84.0428 69.8204 82.8513C60.4097 81.6597 54.8171 89.4496 54.8171 89.4496C54.8171 89.4496 54.3879 87.8161 53.459 86.3939C49.1028 93.9211 49.1028 98.5208 49.1028 98.5208L101.435 103.101L101.441 103.095Z" fill="#58414C"/>
<g style="mix-blend-mode:multiply" opacity="0.84">
<path d="M49.1098 6.323C48.3988 11.3903 45.9388 13.4915 42.3449 13.6517C46.3616 14.1449 48.6166 16.5857 49.1098 20.9803C49.6095 16.5857 51.8645 14.1449 55.8748 13.6517C52.2745 13.4915 49.8209 11.3903 49.1098 6.323Z" fill="#6F7FAA"/>
</g>
<g style="mix-blend-mode:multiply" opacity="0.84">
<path d="M120.218 33.9082C119.193 41.2048 115.657 44.2286 110.474 44.4592C116.253 45.1703 119.501 48.6873 120.218 55.0102C120.936 48.6809 124.184 45.1639 129.962 44.4592C124.779 44.2222 121.243 41.1984 120.218 33.9082Z" fill="#EBB042"/>
</g>
<g style="mix-blend-mode:multiply">
<path d="M151.929 85.6699C151.16 91.1664 148.495 93.4406 144.587 93.62C148.944 94.1517 151.384 96.8039 151.929 101.57C152.467 96.8039 154.914 94.1517 159.27 93.62C155.369 93.4406 152.704 91.1664 151.929 85.6699Z" fill="#F79370"/>
</g>
</g>
<defs>
<clipPath id="clip0_1432_4943">
<rect width="159.264" height="125.926" fill="white"/>
</clipPath>
</defs>
</svg>
