<svg width="750" height="500" viewBox="0 0 750 500" fill="none" xmlns="http://www.w3.org/2000/svg">
<g clip-path="url(#clip0_1987_5785)">
<path d="M0 138.796H750L375 0L0 138.796Z" stroke="white" stroke-miterlimit="10" stroke-linecap="round" stroke-linejoin="round"/>
<path d="M0 61.996L375 0L166.666 138.796" stroke="white" stroke-miterlimit="10" stroke-linecap="round" stroke-linejoin="round"/>
<path d="M294.289 138.796L375 0V138.796" stroke="white" stroke-miterlimit="10" stroke-linecap="round" stroke-linejoin="round"/>
<path d="M750 61.996L375 0L583.334 138.796" stroke="white" stroke-miterlimit="10" stroke-linecap="round" stroke-linejoin="round"/>
<path d="M375 0L455.71 138.796" stroke="white" stroke-miterlimit="10" stroke-linecap="round" stroke-linejoin="round"/>
<path d="M468.219 500L455.71 138.796" stroke="white" stroke-miterlimit="10" stroke-linecap="round" stroke-linejoin="round"/>
<path d="M642.148 500L583.334 138.796" stroke="white" stroke-miterlimit="10" stroke-linecap="round" stroke-linejoin="round"/>
<path d="M281.781 500L294.289 138.796" stroke="white" stroke-miterlimit="10" stroke-linecap="round" stroke-linejoin="round"/>
<path d="M107.852 500L166.666 138.796" stroke="white" stroke-miterlimit="10" stroke-linecap="round" stroke-linejoin="round"/>
<path d="M218.619 113.448C129.96 135.407 81.239 151.784 0 236.489" stroke="black" stroke-width="0.5" stroke-miterlimit="10" stroke-linecap="round" stroke-linejoin="round"/>
<path d="M151.984 113.52C137.302 125.807 114.521 147.432 114.521 147.432L137.26 146.137" stroke="black" stroke-width="0.5" stroke-miterlimit="10" stroke-linecap="round" stroke-linejoin="round"/>
<path d="M90.996 128.066C59.937 161.948 52.176 187.664 52.176 187.664C52.176 187.664 94.192 165.584 133.253 162.355" stroke="black" stroke-width="0.5" stroke-miterlimit="10" stroke-linecap="round" stroke-linejoin="round"/>
<path d="M33.226 163.289C20.972 179.455 18.868 217.476 18.868 217.476C18.868 217.476 55.983 209.949 82.525 197.525" stroke="black" stroke-width="0.5" stroke-miterlimit="10" stroke-linecap="round" stroke-linejoin="round"/>
<path d="M0 209.384C6.855 172.113 70.102 135.972 90.996 128.066C111.89 120.16 111.89 120.16 111.89 120.16C111.89 120.16 90.996 141.054 96.643 141.054C102.29 141.054 119.231 121.854 130.525 116.772C141.819 111.69 169.49 113.948 183.607 113.948C197.725 113.948 217.489 110.689 218.619 113.448C219.748 116.207 201.113 122.419 195.466 127.501C189.819 132.583 187.5 133.713 187.5 133.713C187.5 133.713 141.17 143.313 137.259 146.136C133.348 148.96 150.29 148.395 150.29 148.395C150.29 148.395 135.043 161.948 122.619 169.854C110.195 177.76 101.16 182.842 101.16 182.842C101.16 182.842 73.49 188.489 66.148 193.571C58.807 198.653 82.525 197.524 82.525 197.524C82.525 197.524 73.49 210.512 64.454 216.159C55.419 221.806 31.136 230.841 27.184 237.618C23.231 244.395 0 275.454 0 275.454V209.384Z" fill="#4A8171"/>
<path d="M142.384 95.8779C138.996 102.655 163.843 105.478 166.666 99.8309C169.49 94.1839 145.772 89.1019 142.384 95.8779Z" fill="#4A8171"/>
<path d="M0 222.372C16.455 203.737 1.772 212.621 26.055 188.979C50.338 165.337 55.42 157.996 62.761 146.137C70.102 134.278 78.008 124.678 74.055 122.984C70.102 121.29 50.816 119.988 58.211 117.251C65.606 114.514 87.604 99.8319 87.604 99.8319C87.604 99.8319 113.019 78.9379 118.102 73.8549C123.184 68.7729 129.396 58.6079 129.396 58.6079C129.396 58.6079 104.38 64.8199 107.853 61.9959C111.326 59.1719 135.524 51.8309 137.26 49.0079C138.996 46.1839 151.985 26.4199 151.985 26.4199C151.985 26.4199 126.054 30.5119 107.853 38.8439C89.653 47.1749 82.448 48.4439 75.993 55.7849C69.538 63.1259 60.503 84.0199 56.55 83.4549C52.597 82.8899 59.938 65.3849 59.938 65.3849C59.938 65.3849 39.044 85.7139 31.138 100.961C23.232 116.208 22.668 106.043 19.279 124.396C15.89 142.748 9.114 148.96 9.114 148.96C9.114 148.96 10.808 160.819 8.549 165.336C6.29 169.854 2.337 154.042 2.337 154.042L0 157.431V222.372Z" fill="#4A8171"/>
<path d="M151.984 26.4189C90.996 60.3009 66.408 78.3719 56.853 99.8309C47.298 121.29 34.525 132.915 27.184 147.432C19.843 161.948 0 209.384 0 209.384" stroke="black" stroke-width="0.5" stroke-miterlimit="10" stroke-linecap="round" stroke-linejoin="round"/>
<path d="M31.137 100.96C19.278 124.395 18.869 165.42 18.869 165.42C18.869 165.42 54.29 135.407 74.055 122.983" stroke="black" stroke-width="0.5" stroke-miterlimit="10" stroke-linecap="round" stroke-linejoin="round"/>
<path d="M59.937 65.3839C44.125 87.9719 36.175 133.19 36.175 133.19" stroke="black" stroke-width="0.5" stroke-miterlimit="10" stroke-linecap="round" stroke-linejoin="round"/>
<path d="M56.853 99.831C83.655 90.796 118.102 73.854 118.102 73.854" stroke="black" stroke-width="0.5" stroke-miterlimit="10" stroke-linecap="round" stroke-linejoin="round"/>
<path d="M107.852 38.8429C97.207 46.7489 82.525 69.3979 82.525 69.3979C82.525 69.3979 109.631 70.4669 129.395 58.6079" stroke="black" stroke-width="0.5" stroke-miterlimit="10" stroke-linecap="round" stroke-linejoin="round"/>
<path d="M7.64398 191.313C28.314 182.278 50.634 163.289 50.634 163.289" stroke="black" stroke-width="0.5" stroke-miterlimit="10" stroke-linecap="round" stroke-linejoin="round"/>
<path d="M52.176 48.4429C48.206 42.0969 27.975 66.0709 33.227 69.3979C38.478 72.7249 55.708 54.0899 52.176 48.4429Z" fill="#4A8171"/>
<path d="M0 304.292C15.325 283.963 26.619 283.398 41.866 282.269C57.113 281.14 67.278 266.937 81.395 261.333C95.513 255.728 115.277 250.081 119.23 246.128C123.183 242.175 98.901 251.775 102.854 246.128C106.807 240.481 126.38 234.33 140.689 228.057C154.998 221.784 174.007 206.034 175.136 202.645C176.265 199.257 163.842 199.821 145.771 202.645C127.7 205.469 122.618 208.857 114.712 213.939C106.806 219.021 91.559 230.315 93.818 223.539C96.077 216.763 103.418 209.421 103.418 209.421C103.418 209.421 78.571 212.245 61.63 221.845C44.689 231.445 26.618 226.363 18.148 234.268C9.678 242.174 0 266.456 0 266.456V304.292Z" fill="#4A8171"/>
<path d="M175.137 202.645C118.667 221.845 100.596 231.445 65.02 247.821C29.443 264.198 17.992 262.504 0 281.703" stroke="black" stroke-width="0.5" stroke-miterlimit="10" stroke-linecap="round" stroke-linejoin="round"/>
<path d="M103.419 209.421C64.454 227.492 45.418 256.145 45.418 256.145C45.418 256.145 71.567 255.552 100.199 254.51" stroke="black" stroke-width="0.5" stroke-miterlimit="10" stroke-linecap="round" stroke-linejoin="round"/>
<path d="M35.744 228.807C17.019 248.95 9.599 272.876 9.599 272.876C9.599 272.876 35.133 277.797 56.853 276.927" stroke="black" stroke-width="0.5" stroke-miterlimit="10" stroke-linecap="round" stroke-linejoin="round"/>
<path d="M145.772 202.645C109.631 221.845 95.5 233.704 95.5 233.704C95.5 233.704 132.784 226.462 151.984 221.895" stroke="black" stroke-width="0.5" stroke-miterlimit="10" stroke-linecap="round" stroke-linejoin="round"/>
<path d="M142.067 245.562C144.907 248.731 166.101 238.074 163.278 232.783C160.454 227.492 137.259 240.198 142.067 245.562Z" fill="#4A8171"/>
<path d="M750 112.34C738.43 82.3249 701.159 83.5769 677.442 69.3979C653.724 55.2199 629.16 45.0549 608.83 47.5959C588.501 50.1369 567.952 40.8859 562.5 54.1329C557.048 67.3799 583.418 75.2659 599.512 86.8429C615.606 98.4189 632.547 105.751 652.03 113.521C671.512 121.29 675.748 126.655 691.842 138.796C707.936 150.937 719.795 148.7 729.96 157.865C740.124 167.031 750 187.664 750 187.664V112.34Z" fill="#4A8171"/>
<path d="M562.5 54.1329C635.936 77.2429 709.9 97.8549 750 138.796" stroke="black" stroke-width="0.5" stroke-miterlimit="10" stroke-linecap="round" stroke-linejoin="round"/>
<path d="M595.887 47.9409C618.43 61.4309 638.028 78.3569 638.028 78.3569C638.028 78.3569 595.543 75.7969 570.378 69.3979" stroke="black" stroke-width="0.5" stroke-miterlimit="10" stroke-linecap="round" stroke-linejoin="round"/>
<path d="M624.819 47.9409C666.43 74.4189 676.007 92.7679 676.007 92.7679C676.007 92.7679 648.275 97.0989 612.741 95.3589" stroke="black" stroke-width="0.5" stroke-miterlimit="10" stroke-linecap="round" stroke-linejoin="round"/>
<path d="M698.638 78.356C729.112 108.301 737.885 127.82 737.885 127.82C737.885 127.82 710.458 131.527 677.715 127.82" stroke="black" stroke-width="0.5" stroke-miterlimit="10" stroke-linecap="round" stroke-linejoin="round"/>
<path d="M665.301 43.9249C662.145 46.4049 693.485 66.8219 700.313 60.8659C707.14 54.9099 673.206 37.7129 665.301 43.9249Z" fill="#4A8171"/>
<path d="M750 275.454V206.842C750 206.842 735.042 191.377 718.947 174.968C702.853 158.559 690.147 160.254 675.747 154.324C661.347 148.395 654.571 131.191 630.006 130.475C605.441 129.759 573.253 132.301 572.406 142.465C571.559 152.63 597.818 161.947 616.453 167.03C635.088 172.112 648.728 184.253 655.885 198.089C663.041 211.924 674.053 216.813 692.688 227.498C711.323 238.183 723.182 237.336 730.806 253.43C738.43 269.525 750 275.454 750 275.454Z" fill="#4A8171"/>
<path d="M593.583 117.228C596.406 125.807 624.642 125.025 622.948 117.228C621.254 109.431 590.759 108.648 593.583 117.228Z" fill="#4A8171"/>
<path d="M600.721 131.325C635.936 144.443 649.487 160.136 649.487 160.136C649.487 160.136 625.552 161.94 604.203 163.356" stroke="black" stroke-width="0.5" stroke-miterlimit="10" stroke-linecap="round" stroke-linejoin="round"/>
<path d="M659.184 142.466C675.748 154.325 686.76 187.664 686.76 187.664C686.76 187.664 662.897 181.528 642.148 180.696" stroke="black" stroke-width="0.5" stroke-miterlimit="10" stroke-linecap="round" stroke-linejoin="round"/>
<path d="M701.214 162.446C713.865 184.537 722.315 215.427 722.315 215.427C722.315 215.427 683.627 212.902 661.193 206.061" stroke="black" stroke-width="0.5" stroke-miterlimit="10" stroke-linecap="round" stroke-linejoin="round"/>
<path d="M737.885 194.36C743.795 207.689 750 234.809 750 234.809C750 234.809 725.724 219.549 686.759 187.664C647.794 155.779 638.477 148.396 572.406 142.466" stroke="black" stroke-width="0.5" stroke-miterlimit="10" stroke-linecap="round" stroke-linejoin="round"/>
<path d="M707.79 234.809C726.289 234.796 750 234.809 750 234.809" stroke="black" stroke-width="0.5" stroke-miterlimit="10" stroke-linecap="round" stroke-linejoin="round"/>
<path d="M750 329.666C737.583 323.737 714.712 303.69 712.171 292.96C709.63 282.231 697.771 274.607 679.983 266.137C662.195 257.666 650.901 244.678 642.148 230.843C633.395 217.008 613.066 207.21 605.442 193.897C597.818 180.584 598.863 168.507 612.741 174.969C626.619 181.431 641.952 196.96 655.886 198.09C669.819 199.219 693.241 206.319 704.548 222.372C715.856 238.426 742.935 244.96 750.001 256.819L750 329.666Z" fill="#4A8171"/>
<path d="M602.013 174.969C638.477 212.772 673.206 227.087 702.006 250C730.806 272.913 750 299.172 750 299.172" stroke="black" stroke-width="0.5" stroke-miterlimit="10" stroke-linecap="round" stroke-linejoin="round"/>
<path d="M605.442 193.897C617.301 200.913 633.461 202.909 633.461 202.909L629.564 185.336" stroke="black" stroke-width="0.5" stroke-miterlimit="10" stroke-linecap="round" stroke-linejoin="round"/>
<path d="M633.461 220.798C660.218 228.583 677.714 232.854 677.714 232.854L665.078 199.482" stroke="black" stroke-width="0.5" stroke-miterlimit="10" stroke-linecap="round" stroke-linejoin="round"/>
<path d="M661.203 253.777C694.665 260.771 716.626 262.582 716.626 262.582L704.547 222.371" stroke="black" stroke-width="0.5" stroke-miterlimit="10" stroke-linecap="round" stroke-linejoin="round"/>
<path d="M707.79 284.436C732.5 291.831 743.817 291.346 743.817 291.346L736.217 262.583L731.184 242.478" stroke="black" stroke-width="0.5" stroke-miterlimit="10" stroke-linecap="round" stroke-linejoin="round"/>
<path d="M623.512 239.501C614.583 245.784 632.027 261.408 636.993 254.501C641.959 247.595 628.595 235.925 623.512 239.501Z" fill="#4A8171"/>
<path d="M750 334.183H0V500H750V334.183Z" fill="#707B97"/>
<path d="M352.415 366.748C354.68 346.604 330.387 327.336 298.156 323.713C265.926 320.09 237.962 333.484 235.697 353.628C233.433 373.773 257.725 393.04 289.956 396.663C322.187 400.286 350.151 386.893 352.415 366.748Z" fill="#7A9954"/>
<path d="M175.61 357.453C177.403 341.496 158.16 326.234 132.628 323.364C107.097 320.494 84.9455 331.103 83.1518 347.06C81.3581 363.017 100.601 378.28 126.133 381.15C151.664 384.019 173.816 373.41 175.61 357.453Z" fill="#7A9954"/>
<path d="M502.232 389.002C527.671 385.389 546.464 369.572 544.206 353.673C541.948 337.773 519.495 327.813 494.056 331.425C468.617 335.038 449.825 350.855 452.083 366.755C454.341 382.654 476.793 392.614 502.232 389.002Z" fill="#7A9954"/>
<path d="M480.363 355.969C484.435 340.436 467.589 322.562 442.736 316.046C417.882 309.53 394.433 316.84 390.361 332.373C386.289 347.906 403.135 365.781 427.988 372.296C452.841 378.812 476.29 371.502 480.363 355.969Z" fill="#7A9954"/>
<path d="M439.266 397.856C414.139 376.456 409.006 344.766 409.006 344.766C450.629 333.573 470.282 314.157 467.134 286.207H375H282.866C279.718 314.157 299.371 333.574 340.994 344.766C340.994 344.766 335.861 376.456 310.734 397.856C285.606 419.256 288.567 500 288.567 500H461.432C461.432 500 464.393 419.256 439.266 397.856Z" fill="white"/>
<path opacity="0.23" d="M310.734 397.856C307.456 400.648 304.66 404.457 302.268 408.958L448.881 411.237C446.251 405.736 443.084 401.107 439.266 397.855C414.139 376.455 409.006 344.765 409.006 344.765C438.963 336.709 457.538 324.393 464.424 307.702C436.163 338.811 313.165 341.71 283.711 301.899C288.442 321.564 307.668 335.803 340.995 344.764C340.995 344.764 335.861 376.455 310.734 397.856Z" fill="#707B97"/>
<path opacity="0.62" d="M439.266 397.856C439.117 397.729 438.977 397.597 438.829 397.469C397.908 398.468 356.975 398.593 316.049 396.997C314.673 396.943 313.338 396.845 312.03 396.708C311.599 397.091 311.177 397.479 310.734 397.856C285.606 419.256 288.567 500 288.567 500H461.432C461.432 500 464.393 419.256 439.266 397.856Z" fill="#707B97"/>
<path d="M315.348 286.206C319.613 329.009 356.581 344.765 356.581 344.765" stroke="#EDE7E2" stroke-width="0.5" stroke-miterlimit="10" stroke-linecap="round" stroke-linejoin="round"/>
<path d="M435.353 286.206C431.088 329.009 394.12 344.765 394.12 344.765" stroke="#EDE7E2" stroke-width="0.5" stroke-miterlimit="10" stroke-linecap="round" stroke-linejoin="round"/>
<path d="M349.106 286.206C350.972 329.009 367.141 344.765 367.141 344.765" stroke="#EDE7E2" stroke-width="0.5" stroke-miterlimit="10" stroke-linecap="round" stroke-linejoin="round"/>
<path d="M401.594 286.206C399.728 329.009 383.56 344.765 383.56 344.765" stroke="#EDE7E2" stroke-width="0.5" stroke-miterlimit="10" stroke-linecap="round" stroke-linejoin="round"/>
<path d="M393.831 181.293C395.697 170.903 388.786 160.968 378.396 159.102C368.006 157.237 358.071 164.148 356.206 174.538C354.34 184.928 361.251 194.863 371.641 196.728C382.031 198.594 391.966 191.683 393.831 181.293Z" fill="#707B97"/>
<path d="M369.413 187.774C365.282 187.774 361.351 187.169 357.709 186.025C360.761 192.523 367.345 197.033 374.999 197.033C385.555 197.033 394.112 188.476 394.112 177.92C394.112 176.844 394.002 175.797 393.831 174.77C387.898 182.419 378.931 187.774 369.413 187.774Z" fill="#707B97"/>
<path d="M375 197.033H350.751L364.62 221.959L375 225.068L385.379 221.959L399.249 197.033H375Z" fill="white"/>
<path d="M375 212.31H306.184C306.184 212.31 309.596 235.976 331.777 245.241C353.957 254.506 363.251 263.309 356.329 286.206C349.407 309.103 375 301.696 375 301.696C375 301.696 400.593 309.103 393.671 286.206C386.75 263.309 396.043 254.505 418.223 245.241C440.403 235.976 443.816 212.31 443.816 212.31H375Z" fill="white"/>
<path opacity="0.56" d="M412.266 212.31L426.249 286.206H459.664L443.816 212.31H412.266Z" fill="#707B97"/>
<g opacity="0.65">
<path d="M419.846 212.31L434.497 286.206" stroke="#EDE7E2" stroke-width="0.5" stroke-miterlimit="10" stroke-linecap="round" stroke-linejoin="round"/>
<path d="M433.414 212.173L449.602 285.501" stroke="#EDE7E2" stroke-width="0.5" stroke-miterlimit="10" stroke-linecap="round" stroke-linejoin="round"/>
</g>
<path opacity="0.4" d="M426.249 286.206H459.663L454.963 264.29C452.483 264.806 448.276 260.87 442.272 252.301C437.928 269.717 433.128 267.703 428.046 253.672C426.955 264.707 425.317 269.981 423.175 269.962L426.249 286.206Z" fill="#707B97"/>
<path opacity="0.56" d="M362.268 212.173L360.135 286.206H414.733L405.863 212.173H362.268Z" fill="#707B97"/>
<g opacity="0.65">
<path d="M370.798 212.31L375 286.206" stroke="#EDE7E2" stroke-width="0.5" stroke-miterlimit="10" stroke-linecap="round" stroke-linejoin="round"/>
<path d="M387.434 212.173L393.671 286.206" stroke="#EDE7E2" stroke-width="0.5" stroke-miterlimit="10" stroke-linecap="round" stroke-linejoin="round"/>
<path d="M398.181 212.31L407.908 285.501" stroke="#EDE7E2" stroke-width="0.5" stroke-miterlimit="10" stroke-linecap="round" stroke-linejoin="round"/>
</g>
<path opacity="0.4" d="M412.265 265.606C410.353 265.758 407.382 261.106 403.496 252.301C401.351 277.001 396.875 274.041 391.103 255.716C384.696 267.121 378.711 265.169 373.073 252.301C369.098 265.904 365.081 266.683 361.023 255.41L360.136 286.206H414.734L412.265 265.606Z" fill="#707B97"/>
<path opacity="0.56" d="M306.184 212.31L295.726 286.206H340.11V212.31H306.184Z" fill="#707B97"/>
<g opacity="0.65">
<path d="M308.523 286.206L315.348 212.31" stroke="#EDE7E2" stroke-width="0.5" stroke-miterlimit="10" stroke-linecap="round" stroke-linejoin="round"/>
<path d="M328.809 212.31L326.011 285.501" stroke="#EDE7E2" stroke-width="0.5" stroke-miterlimit="10" stroke-linecap="round" stroke-linejoin="round"/>
</g>
<path opacity="0.4" d="M295.726 286.206H340.109V253.054C337.031 274.166 332.23 266.915 327.164 255.318C317.161 274.446 313.539 267.41 311.511 253.834C311.511 253.834 304.666 260.452 299.149 262.009L295.726 286.206Z" fill="#707B97"/>
<mask id="mask0_1987_5785" style="mask-type:luminance" maskUnits="userSpaceOnUse" x="0" y="147" width="750" height="353">
<path d="M750 147.432H0V500H750V147.432Z" fill="white"/>
</mask>
<g mask="url(#mask0_1987_5785)">
<path d="M266.622 466.703C272.799 447.396 252.764 423.733 221.873 413.85C190.982 403.967 160.932 411.607 154.755 430.914C148.578 450.221 168.613 473.884 199.504 483.767C230.395 493.65 260.445 486.011 266.622 466.703Z" fill="#7A9954"/>
<path d="M79.2006 427.793C111.315 423.232 135.038 403.264 132.187 383.193C129.337 363.121 100.993 350.547 68.8789 355.107C36.7649 359.668 13.0419 379.636 15.8922 399.707C18.7425 419.779 47.0866 432.353 79.2006 427.793Z" fill="#7A9954"/>
<path d="M640.326 458.305C672.19 452.243 694.95 431.184 691.161 411.268C687.372 391.353 658.47 380.123 626.605 386.185C594.741 392.247 571.982 413.306 575.77 433.221C579.559 453.137 608.462 464.367 640.326 458.305Z" fill="#7A9954"/>
<path d="M568.63 536.09C600.495 530.028 623.254 508.969 619.465 489.054C615.677 469.138 586.774 457.908 554.91 463.97C523.045 470.032 500.286 491.091 504.075 511.007C507.864 530.922 536.766 542.152 568.63 536.09Z" fill="#7A9954"/>
<path d="M551.679 469.367C583.544 463.305 606.303 442.246 602.514 422.331C598.725 402.415 569.823 391.185 537.959 397.247C506.094 403.309 483.335 424.368 487.124 444.284C490.912 464.199 519.815 475.429 551.679 469.367Z" fill="#7A9954"/>
<path d="M774.97 363.691C777.234 343.546 752.942 324.279 720.711 320.656C688.48 317.033 660.516 330.426 658.252 350.571C655.988 370.715 680.28 389.982 712.511 393.605C744.742 397.228 772.706 383.835 774.97 363.691Z" fill="#7A9954"/>
<path d="M128.734 488.273C130.528 472.316 111.284 457.054 85.7529 454.184C60.2214 451.314 38.0699 461.923 36.2762 477.88C34.4825 493.837 53.7258 509.1 79.2573 511.97C104.789 514.84 126.94 504.23 128.734 488.273Z" fill="#7A9954"/>
<path d="M491.864 486.805C498.041 467.498 478.006 443.834 447.115 433.951C416.224 424.068 386.174 431.708 379.997 451.015C373.82 470.323 393.855 493.986 424.746 503.869C455.638 513.752 485.687 506.112 491.864 486.805Z" fill="#7A9954"/>
<path d="M283.242 521.609C308.681 517.996 327.473 502.179 325.215 486.28C322.957 470.38 300.504 460.42 275.065 464.032C249.626 467.645 230.834 483.462 233.092 499.362C235.35 515.261 257.802 525.221 283.242 521.609Z" fill="#7A9954"/>
<path d="M180.579 517.29C206.018 513.677 224.81 497.86 222.552 481.961C220.294 466.061 197.842 456.101 172.403 459.714C146.964 463.326 128.171 479.143 130.429 495.043C132.687 510.942 155.14 520.902 180.579 517.29Z" fill="#7A9954"/>
<path d="M311.182 455.804C336.621 452.192 355.413 436.374 353.155 420.475C350.897 404.576 328.445 394.615 303.006 398.228C277.567 401.84 258.775 417.658 261.032 433.557C263.29 449.456 285.743 459.417 311.182 455.804Z" fill="#7A9954"/>
<path d="M353.894 426.893C372.479 426.893 387.546 417.477 387.546 405.861C387.546 394.245 372.479 384.829 353.894 384.829C335.308 384.829 320.242 394.245 320.242 405.861C320.242 417.477 335.308 426.893 353.894 426.893Z" fill="#7A9954"/>
<path d="M691.471 379.082C693.977 363.221 675.437 347.112 650.06 343.101C624.682 339.091 602.078 348.697 599.571 364.558C597.064 380.418 615.605 396.527 640.982 400.538C666.359 404.549 688.964 394.943 691.471 379.082Z" fill="#7A9954"/>
<path d="M793.143 488.947C795.649 473.086 777.109 456.977 751.732 452.966C726.354 448.956 703.75 458.562 701.243 474.423C698.736 490.283 717.277 506.392 742.654 510.403C768.031 514.414 790.636 504.808 793.143 488.947Z" fill="#7A9954"/>
</g>
<path d="M651.748 273.195C641.301 288.724 639.325 340.113 666.995 341.524C694.665 342.936 686.319 295.817 677.714 283.924C668.295 270.905 647.795 255.972 651.748 273.195Z" fill="#EB997C"/>
<path d="M660.685 317.507C655.813 318.96 650.903 319.405 646.108 319.005C648.754 331.175 655.161 340.921 666.994 341.525C687.408 342.567 688.217 317.194 683.783 299.039C678.512 307.573 670.298 314.64 660.685 317.507Z" fill="#EB997C"/>
<path opacity="0.68" d="M651.748 273.195C653.725 292.96 659.372 333.901 667.56 337.854C675.748 341.807 680.529 332.772 677.715 313.854C674.901 294.936 652.962 265.706 652.962 265.706" stroke="#EB997C" stroke-width="0.5" stroke-miterlimit="10" stroke-linecap="round" stroke-linejoin="round"/>
<path d="M672.265 344.913C689.771 336.442 687.888 316.741 687.136 305.98C686.383 295.219 669.337 319.125 666.807 326.654C664.277 334.183 666.995 341.525 666.995 341.525C666.995 341.525 656.83 329.346 647.795 324.989C638.76 320.631 639.701 325.902 639.701 325.902C639.701 325.902 644.866 338.599 654.948 342.843C665.03 347.087 672.265 344.913 672.265 344.913Z" fill="#7A9954"/>
<path d="M672.265 344.913C681.112 379.925 670.435 406.193 670.435 406.193" stroke="#76815B" stroke-miterlimit="10" stroke-linecap="round" stroke-linejoin="round"/>
<path d="M707.79 381.353C674.831 380.024 640.005 422.842 605.442 435.265C570.879 447.688 543.889 485.675 578.336 499.999H707.79C707.79 499.999 745.489 461.829 737.583 419.464C729.677 377.101 707.79 381.353 707.79 381.353Z" fill="#7A9954"/>
<g opacity="0.59">
<path d="M676.006 390.994C679.041 418.889 658.335 450.136 658.335 450.136C658.335 450.136 655.23 421.769 644.547 412.235" stroke="#7A9954" stroke-width="0.5" stroke-miterlimit="10" stroke-linecap="round" stroke-linejoin="round"/>
<path d="M602.013 436.594C630.854 454.654 658.336 450.136 658.336 450.136C658.336 450.136 626.011 479.205 564.997 469" stroke="#7A9954" stroke-width="0.5" stroke-miterlimit="10" stroke-linecap="round" stroke-linejoin="round"/>
<path d="M727.821 392.785C717.442 430.559 658.336 450.135 658.336 450.135C658.336 450.135 702.506 465.597 737.08 446.384" stroke="#7A9954" stroke-width="0.5" stroke-miterlimit="10" stroke-linecap="round" stroke-linejoin="round"/>
<path d="M614.289 500C642.901 486.654 658.336 450.136 658.336 450.136C658.336 450.136 678.473 470.052 676.31 500" stroke="#7A9954" stroke-width="0.5" stroke-miterlimit="10" stroke-linecap="round" stroke-linejoin="round"/>
</g>
<path d="M662.429 446.62C663.369 447.945 662.299 450.32 660.038 451.924C657.777 453.528 655.182 453.754 654.242 452.429C653.302 451.104 654.372 448.729 656.633 447.125C658.894 445.521 661.489 445.295 662.429 446.62Z" fill="#52593F"/>
<path d="M211.862 303.732C196.895 320.363 196.562 343.645 196.562 343.645" stroke="#76815B" stroke-miterlimit="10" stroke-linecap="round" stroke-linejoin="round"/>
<path d="M220.399 320.784C212.638 317.147 210.253 305.617 210.253 305.617C210.253 305.617 204.405 314.708 189.784 311.16L214.19 299.851L220.399 320.784Z" fill="#7A9954"/>
<path d="M217.294 303.732C233.038 308.943 266.964 293.199 266.964 293.199C253.161 289.125 236.046 291.729 217.294 297.634C223.448 286.103 227.562 268.768 230.377 247.743C220.793 262.072 213.373 278.391 208.647 297.191L217.294 303.732Z" fill="#D39F3F"/>
<path d="M231.007 304.368C234.503 299.201 239.143 294.762 244.45 291.634C235.969 292.483 226.846 294.626 217.295 297.634C222.132 288.572 225.703 275.914 228.379 260.709C225.604 263.578 222.438 266.051 219.01 267.979C214.788 277.009 211.284 286.701 208.647 297.19L217.295 303.731C221.061 304.978 225.872 305.018 231.007 304.368Z" fill="#D39F3F"/>
<path d="M216.186 301.65C246.564 300.32 261 263.855 262.208 253.261C262.208 253.261 231.042 261.072 216.186 280.141C201.329 299.211 216.186 301.65 216.186 301.65Z" fill="#EB997C"/>
<path opacity="0.68" d="M262.208 253.261C241.021 283.911 215.354 300.818 215.354 300.818" stroke="#EB997C" stroke-width="0.5" stroke-miterlimit="10" stroke-linecap="round" stroke-linejoin="round"/>
<path d="M260.09 311.603C252.107 301.846 214.744 301.826 214.744 301.826C214.744 301.826 215.742 307.168 233.038 311.603C250.334 316.038 260.09 311.603 260.09 311.603Z" fill="white"/>
<path d="M161.208 277.456C198.086 277.456 214.606 301.827 214.606 301.827C190.989 302.603 173.344 294.024 161.208 277.456Z" fill="#D39F3F"/>
<path d="M209.605 296.132C208.689 296.259 207.757 296.375 206.796 296.477C195.89 297.631 185.371 295.027 175.278 291.334C185.84 298.697 198.893 302.344 214.606 301.827C214.606 301.827 212.977 299.426 209.605 296.132Z" fill="#D39F3F"/>
<path d="M217.295 297.634C227.495 275.238 207.982 234.438 185.364 234.66C185.364 234.66 176.273 261.269 188.912 281.447C201.551 301.625 214.776 301.827 214.776 301.827L217.295 297.634Z" fill="white"/>
<path opacity="0.43" d="M214.458 284.201C202.732 284.201 192.371 280.066 184.87 272.866C185.865 275.79 187.178 278.68 188.912 281.447C201.551 301.625 214.776 301.827 214.776 301.827L217.294 297.634C219.183 293.487 220.048 288.707 220.068 283.675C218.226 284.017 216.351 284.201 214.458 284.201Z" fill="#EB997C"/>
<path opacity="0.67" d="M214.776 301.827C205.567 287.871 199.112 262.156 185.364 234.66" stroke="#EB997C" stroke-width="0.5" stroke-miterlimit="10" stroke-linecap="round" stroke-linejoin="round"/>
<path d="M0 366.371C49.772 376.536 83.138 351.124 92.714 342.653C102.29 334.182 101.725 321.759 74.055 311.029C46.385 300.299 26.463 276.019 0 284.489V366.371Z" fill="#7A9954"/>
<path d="M60.784 291.333C55.102 295.117 71.529 306.011 75.992 301.65C80.455 297.289 67.466 286.883 60.784 291.333Z" fill="#7A9954"/>
<g opacity="0.59">
<path d="M90.11 319.398C66.148 321.76 36.949 320.631 36.949 320.631C58.243 339.078 92.714 342.654 92.714 342.654" stroke="#7A9954" stroke-width="0.5" stroke-miterlimit="10" stroke-linecap="round" stroke-linejoin="round"/>
<path d="M47.256 296.782C39.043 307.078 36.949 320.63 36.949 320.63C36.949 320.63 17.127 312.165 16.435 283.128" stroke="#7A9954" stroke-width="0.5" stroke-miterlimit="10" stroke-linecap="round" stroke-linejoin="round"/>
<path d="M0 307.875C19.843 319.125 36.949 320.631 36.949 320.631C36.949 320.631 36.655 342.421 52.719 364.467" stroke="#7A9954" stroke-width="0.5" stroke-miterlimit="10" stroke-linecap="round" stroke-linejoin="round"/>
<path d="M0 330.064C11.184 324.396 36.949 320.631 36.949 320.631C36.949 320.631 10.431 334.184 7.644 367.674" stroke="#7A9954" stroke-width="0.5" stroke-miterlimit="10" stroke-linecap="round" stroke-linejoin="round"/>
</g>
<path d="M41.633 322.434C41.049 323.95 38.479 324.372 35.892 323.376C33.305 322.38 31.681 320.343 32.265 318.827C32.849 317.311 35.419 316.889 38.006 317.885C40.593 318.881 42.217 320.917 41.633 322.434Z" fill="#52593F"/>
<path d="M389.725 500C437.725 477.618 437.725 440.913 416.266 430.183C394.807 419.454 373.948 434.367 338.919 434.534C303.89 434.701 272.327 441.695 266.65 466.716C260.973 491.736 294.29 500 294.29 500H389.725Z" fill="#7A9954"/>
<path d="M435.965 477.408C430.498 473.167 410.627 491.547 419.846 493.806C429.066 496.065 442.487 482.469 435.965 477.408Z" fill="#7A9954"/>
<g opacity="0.59">
<path d="M389.408 427.097C375.607 447.407 344.034 459.83 344.034 459.83C344.034 459.83 351.039 450.196 354.147 433.554" stroke="#7A9954" stroke-width="0.5" stroke-miterlimit="10" stroke-linecap="round" stroke-linejoin="round"/>
<path d="M305.624 437.445C316.878 457.854 344.034 459.83 344.034 459.83C344.034 459.83 303.985 472.253 269.067 459.83" stroke="#7A9954" stroke-width="0.5" stroke-miterlimit="10" stroke-linecap="round" stroke-linejoin="round"/>
<path d="M284.294 496.185C311.795 491.735 344.033 459.83 344.033 459.83C344.033 459.83 348.007 478.748 344.033 500" stroke="#7A9954" stroke-width="0.5" stroke-miterlimit="10" stroke-linecap="round" stroke-linejoin="round"/>
<path d="M427.853 442.319C399.325 458.7 344.034 459.83 344.034 459.83C344.034 459.83 382.287 481.762 415.23 483.078" stroke="#7A9954" stroke-width="0.5" stroke-miterlimit="10" stroke-linecap="round" stroke-linejoin="round"/>
</g>
<path d="M348.903 459.29C349.296 460.866 347.435 462.689 344.746 463.36C342.057 464.031 339.557 463.298 339.164 461.721C338.77 460.145 340.632 458.322 343.321 457.651C346.01 456.979 348.51 457.713 348.903 459.29Z" fill="#52593F"/>
<path d="M429.398 447.141C427.795 439.71 423.131 433.616 416.266 430.183C399.962 422.031 383.998 428.678 361.909 432.417C371.197 448.373 413.247 453.725 429.398 447.141Z" fill="#21261F"/>
<path d="M417.689 366.234C389.221 366.896 378.204 350.153 356.326 361.929C334.448 373.704 326.978 429.198 404.349 436.668C481.72 444.138 495.059 372.104 474.249 362.499C453.44 352.894 440.633 365.701 417.689 366.234Z" fill="#7A9954"/>
<g opacity="0.59">
<path d="M367.099 358.102C375.714 378.862 410.575 389.89 410.575 389.89C410.575 389.89 366.218 397.088 342.152 383.173" stroke="#7A9954" stroke-width="0.5" stroke-miterlimit="10" stroke-linecap="round" stroke-linejoin="round"/>
<path d="M356.907 420.424C385.674 422.617 410.575 389.89 410.575 389.89C410.575 389.89 411.642 420.838 404.35 436.668" stroke="#7A9954" stroke-width="0.5" stroke-miterlimit="10" stroke-linecap="round" stroke-linejoin="round"/>
<path d="M456.093 426.645C431.918 422.261 410.575 389.89 410.575 389.89C410.575 389.89 450.808 403.067 481.027 394.522" stroke="#7A9954" stroke-width="0.5" stroke-miterlimit="10" stroke-linecap="round" stroke-linejoin="round"/>
<path d="M477.031 364.325C461.444 377.084 410.575 389.89 410.575 389.89C410.575 389.89 424.986 381.091 432.187 364.325" stroke="#7A9954" stroke-width="0.5" stroke-miterlimit="10" stroke-linecap="round" stroke-linejoin="round"/>
<path d="M399.781 364.325C402.037 378.151 410.574 389.89 410.574 389.89" stroke="#7A9954" stroke-width="0.5" stroke-miterlimit="10" stroke-linecap="round" stroke-linejoin="round"/>
</g>
<path d="M415.367 389.683C415.434 391.217 413.367 392.553 410.75 392.667C408.133 392.781 405.958 391.631 405.891 390.097C405.824 388.563 407.891 387.227 410.508 387.113C413.125 386.999 415.3 388.149 415.367 389.683Z" fill="#52593F"/>
<path d="M227.245 329.44C194.349 330.619 182.633 309.779 157.222 314.861C131.81 319.943 117.545 359.443 154.325 397.011C191.105 434.579 259.999 438.532 293.316 414.249C326.633 389.966 335.684 325.552 227.245 329.44Z" fill="#7A9954"/>
<g opacity="0.59">
<path d="M147.363 318.889C162.492 344.225 220.518 362.294 220.518 362.294C220.518 362.294 168.629 373.443 134.502 365.611" stroke="#7A9954" stroke-width="0.5" stroke-miterlimit="10" stroke-linecap="round" stroke-linejoin="round"/>
<path d="M165.386 406.639C194.492 405.213 220.518 362.294 220.518 362.294C220.518 362.294 223.482 386.647 223.858 428.683" stroke="#7A9954" stroke-width="0.5" stroke-miterlimit="10" stroke-linecap="round" stroke-linejoin="round"/>
<path d="M293.315 414.249C259.621 415.378 220.517 362.295 220.517 362.295C220.517 362.295 274.619 380.364 313.802 362.295" stroke="#7A9954" stroke-width="0.5" stroke-miterlimit="10" stroke-linecap="round" stroke-linejoin="round"/>
<path d="M281.015 335.066C258.116 351.755 220.518 362.295 220.518 362.295L234.398 329.441" stroke="#7A9954" stroke-width="0.5" stroke-miterlimit="10" stroke-linecap="round" stroke-linejoin="round"/>
<path d="M182.804 317.917C188.845 330.296 220.518 362.294 220.518 362.294" stroke="#7A9954" stroke-width="0.5" stroke-miterlimit="10" stroke-linecap="round" stroke-linejoin="round"/>
</g>
<path d="M225.893 364.098C225.309 365.614 222.739 366.036 220.152 365.04C217.565 364.044 215.941 362.007 216.525 360.491C217.109 358.975 219.679 358.553 222.266 359.549C224.853 360.545 226.477 362.581 225.893 364.098Z" fill="#52593F"/>
<path d="M227.245 329.44C203.969 330.275 191.295 320.092 176.872 315.862C169.006 317.792 166.667 319.398 166.667 319.398C174.342 322.831 179.178 323.88 188.691 324.584C184.381 327.513 182.201 331.219 181.067 334.749C191.777 336.758 201.629 336.463 209.584 331.078C222.56 335.312 236.953 336.85 252.22 336.725L241.488 329.33C236.981 329.229 232.24 329.261 227.245 329.44Z" fill="#21261F"/>
<path d="M555.652 283.031C566.469 275.859 570.589 262.309 562.529 251.586C554.469 240.863 529.846 235.767 528.387 237.182C526.929 238.597 526.929 238.597 526.929 238.597C526.929 238.597 518.432 240.446 526.052 258.467C533.672 276.49 555.652 283.031 555.652 283.031Z" fill="white"/>
<path opacity="0.54" d="M561.424 262.656C559.671 263.151 554.316 264.24 552.499 264.38C552.156 264.406 551.818 264.422 551.474 264.436C549.144 264.528 544.37 264.125 542.091 263.713C541.719 263.646 541.377 263.55 541.013 263.457C538.473 262.807 534.268 261.303 531.896 260.191C529.98 259.292 528.303 257.911 526.587 256.714C526.024 256.322 525.468 255.946 524.916 255.571C525.248 256.489 525.621 257.449 526.051 258.468C533.671 276.49 555.651 283.031 555.651 283.031C563.62 277.748 567.946 269.003 566.454 260.478C564.747 261.344 562.745 262.283 561.424 262.656Z" fill="#EB997C"/>
<path opacity="0.67" d="M555.652 283.031C562.918 266.989 550.332 249.208 526.929 238.598" stroke="#EB997C" stroke-width="0.5" stroke-miterlimit="10" stroke-linecap="round" stroke-linejoin="round"/>
<path opacity="0.67" d="M524.313 240.562C529.111 259.018 550.22 280.918 550.22 280.918" stroke="#EB997C" stroke-width="0.5" stroke-miterlimit="10" stroke-linecap="round" stroke-linejoin="round"/>
<path d="M555.652 283.031C567.349 282.41 571.236 267.942 569.809 262.571C568.382 257.201 566.805 254.501 566.805 254.501L554.51 280.324C554.51 280.324 536.571 275.127 527.021 275.843C517.471 276.559 526.49 281.566 538.46 284.328C550.429 287.092 555.652 283.031 555.652 283.031Z" fill="#7A9954"/>
<path d="M555.652 283.031C570.92 302.905 574.519 324.068 574.519 324.068" stroke="#76815B" stroke-miterlimit="10" stroke-linecap="round" stroke-linejoin="round"/>
<path d="M513.817 294.089C486.197 302.643 478.662 353.383 513.817 378.23C548.972 403.077 596.947 415.793 623.218 383.741C649.489 351.689 640.454 317.806 598.101 308.207C555.748 298.607 535.697 287.313 513.817 294.089Z" fill="#7A9954"/>
<path d="M636.993 381.234C632.596 378.804 618.168 393.735 625.452 397.465C632.736 401.195 645.48 385.923 636.993 381.234Z" fill="#7A9954"/>
<g opacity="0.59">
<path d="M540.535 293.334C546.148 323.642 564.087 339.291 564.087 339.291L572.406 301.633" stroke="#7A9954" stroke-width="0.5" stroke-miterlimit="10" stroke-linecap="round" stroke-linejoin="round"/>
<path d="M498.141 305.979C513.395 334.183 564.088 339.29 564.088 339.29C564.088 339.29 536.364 365.729 499.917 364.279" stroke="#7A9954" stroke-width="0.5" stroke-miterlimit="10" stroke-linecap="round" stroke-linejoin="round"/>
<path d="M550.9 397.465C555.788 381.086 564.087 339.291 564.087 339.291C564.087 339.291 582.634 382.185 610.32 395.078" stroke="#7A9954" stroke-width="0.5" stroke-miterlimit="10" stroke-linecap="round" stroke-linejoin="round"/>
<path d="M636.993 357.101C600.945 359.907 564.087 339.291 564.087 339.291C564.087 339.291 605.784 342.987 625.848 321.456" stroke="#7A9954" stroke-width="0.5" stroke-miterlimit="10" stroke-linecap="round" stroke-linejoin="round"/>
</g>
<path d="M568.771 341.213C568.187 342.729 565.617 343.151 563.03 342.155C560.443 341.159 558.819 339.122 559.403 337.606C559.987 336.09 562.557 335.668 565.144 336.664C567.731 337.66 569.355 339.697 568.771 341.213Z" fill="#52593F"/>
<path d="M528.346 292.034C518.198 299.32 520.111 302.402 528.454 302.839C535.848 303.227 550.945 300.314 557.204 297.351C546.124 294.29 536.967 292.134 528.346 292.034Z" fill="#21261F"/>
<path d="M528.018 450.619C553.851 438.491 543.721 383.786 533.352 371.182C533.352 371.182 517.645 380.075 510.422 411.011C503.201 441.946 528.018 450.619 528.018 450.619Z" fill="#EB997C"/>
<path d="M509.289 418.074C507.074 443.278 528.019 450.619 528.019 450.619C541.685 444.203 545.285 425.872 544.111 408.161C536.203 418.509 521.62 421.253 509.289 418.074Z" fill="#EB997C"/>
<path opacity="0.68" d="M533.353 371.182C536.6 411.852 528.018 450.619 528.018 450.619C518.151 419.481 518.321 392.359 533.353 371.182Z" stroke="#EB997C" stroke-width="0.5" stroke-miterlimit="10" stroke-linecap="round" stroke-linejoin="round"/>
<path d="M521.678 451.66C531.434 429.946 560.694 410.47 574.816 405.861C563.65 433.108 545.937 448.375 521.678 451.66Z" fill="white"/>
<path opacity="0.43" d="M549.415 427.049C546.319 427.728 543.243 427.975 540.186 427.807C532.402 434.897 525.523 443.102 521.678 451.661C540.854 449.064 555.936 438.973 566.931 421.403C561.508 424.386 555.644 426.433 549.415 427.049Z" fill="#EB997C"/>
<path d="M460.824 411.423C499.888 409.585 528.018 450.618 528.018 450.618C528.018 450.618 535.984 456.876 514.033 454.759C492.082 452.643 460.824 411.423 460.824 411.423Z" fill="#D39F3F"/>
<path d="M508.433 429.802C501.504 432.287 493.875 432.641 487.052 430.105C481.524 428.051 476.093 425.818 470.791 423.372C481.804 435.722 499.857 453.392 514.032 454.759C535.983 456.876 528.017 450.618 528.017 450.618C528.017 450.618 520.733 439.996 508.433 429.802Z" fill="#D39F3F"/>
<path d="M521.678 451.66C508.697 433.604 450.566 444.297 450.566 444.297C450.566 444.297 486.505 462.24 505.905 460.149C525.305 458.059 521.678 451.66 521.678 451.66Z" fill="#EB997C"/>
<path d="M506.158 443.131C495.465 449.288 482.749 452.6 470.317 452.765C481.847 457.078 496.02 461.214 505.904 460.149C525.304 458.059 521.678 451.66 521.678 451.66C518.593 447.369 512.956 444.704 506.158 443.131Z" fill="#EB997C"/>
<path d="M528.018 450.619C539.474 432.841 519.231 408.983 484.975 392.005C484.975 392.005 481.594 433.202 503.082 448.194C517.625 458.341 528.018 450.619 528.018 450.619Z" fill="white"/>
<path opacity="0.67" d="M484.975 392.005C514.084 414.14 522.568 439.891 528.018 450.619C513.312 448.52 498.786 437.628 484.975 392.005Z" stroke="#EB997C" stroke-width="0.5" stroke-miterlimit="10" stroke-linecap="round" stroke-linejoin="round"/>
<path d="M514.253 466.723C525.69 461.263 528.231 454.817 528.231 454.817C528.231 454.817 533.031 457.628 541.783 455.856C551.337 453.922 555.345 447.586 555.345 447.586C555.345 447.586 548.089 443.144 531.55 448.996C515.012 454.849 514.253 466.723 514.253 466.723Z" fill="#7A9954"/>
<path d="M528.231 454.816C540.535 475.068 531.236 500 531.236 500" stroke="#76815B" stroke-miterlimit="10" stroke-linecap="round" stroke-linejoin="round"/>
<path d="M26.619 500C87.042 472.123 78.007 404.207 62.195 391.431C46.383 378.655 22.101 397.431 -0.000976562 396.866V500H26.619Z" fill="#7A9954"/>
<g opacity="0.59">
<path d="M52.719 387.276C48.078 398.936 26.36 422.277 0 426.304" stroke="#7A9954" stroke-width="0.5" stroke-miterlimit="10" stroke-linecap="round" stroke-linejoin="round"/>
<path d="M73.898 426.985C47.702 441.854 0 434.701 0 434.701" stroke="#7A9954" stroke-width="0.5" stroke-miterlimit="10" stroke-linecap="round" stroke-linejoin="round"/>
<path d="M55.339 478.886C28.878 482.136 0 451.398 0 451.398" stroke="#7A9954" stroke-width="0.5" stroke-miterlimit="10" stroke-linecap="round" stroke-linejoin="round"/>
</g>
<path d="M48.275 461.086C49.513 466.425 54.584 472.976 57.885 475.769C61.479 471.137 64.38 466.277 66.669 461.318C61.639 461.151 53.965 459.212 48.275 461.086Z" fill="#21261F"/>
<path d="M132.652 500C117.254 493.43 118.102 472.254 118.102 472.254" stroke="#76815B" stroke-miterlimit="10" stroke-linecap="round" stroke-linejoin="round"/>
<path d="M116.242 465.352C154.525 459.266 170.337 411.35 166.666 406.79C162.995 402.23 138.85 430.808 130.17 443.484C121.49 456.16 125.16 443.484 125.16 443.484C125.16 443.484 95.795 391.218 85.913 393.477C76.031 395.736 91.545 436.963 100.031 448.818C108.517 460.673 116.242 465.352 116.242 465.352Z" fill="#D39F3F"/>
<path d="M146.697 429.805C144.296 430.317 141.983 430.691 139.72 430.9C135.894 435.605 132.482 440.11 130.17 443.485C121.49 456.16 125.16 443.485 125.16 443.485C125.16 443.485 118.384 431.426 110.248 419.144C109.226 417.83 108.295 416.442 107.455 415.003C106.611 413.776 105.76 412.561 104.907 411.369C102.849 414.303 101.128 427.183 98.322 429.381C95.516 431.578 92.714 428.685 88.324 424.244C91.926 434.232 96.565 443.977 100.031 448.82C108.516 460.675 116.242 465.353 116.242 465.353C141.94 461.267 157.512 438.335 163.863 422.319C158.529 425.866 152.642 428.537 146.697 429.805Z" fill="#D39F3F"/>
<path d="M124.956 457.571C139.842 442.324 146.901 396.301 146.901 396.301L124.956 457.571Z" fill="white"/>
<path d="M120.091 468.543C120.078 453.618 86.761 419.811 60.784 417.091C64.831 451.398 89.764 471.966 120.091 468.543Z" fill="white"/>
<path opacity="0.43" d="M82.879 455.252C79.782 453.966 76.882 452.295 74.151 450.352C85.12 463.783 101.597 470.63 120.09 468.543C120.087 465.357 118.557 461.308 115.915 456.887C104.67 460.83 93.737 459.763 82.879 455.252Z" fill="#EB997C"/>
<path opacity="0.67" d="M118.816 467.305C107.528 468.261 75.897 448.567 60.785 417.092C84.417 435.537 103.762 452.276 118.816 467.305Z" stroke="#EB997C" stroke-width="0.5" stroke-miterlimit="10" stroke-linecap="round" stroke-linejoin="round"/>
<path d="M120.091 468.543C149.161 470.841 177.114 450.892 185.584 426.985C155.353 428.559 132.933 441.551 120.091 468.543Z" fill="white"/>
<path opacity="0.43" d="M132.972 454.669C131.733 454.295 130.539 453.888 129.38 453.449C125.879 457.889 122.773 462.907 120.091 468.544C136.698 469.857 152.934 463.902 165.388 454.104C154.846 457.332 143.506 457.849 132.972 454.669Z" fill="#EB997C"/>
<path opacity="0.67" d="M185.584 426.985C161.396 435.454 120.091 468.543 120.091 468.543C142.141 463.908 163.992 450.892 185.584 426.985Z" stroke="#EB997C" stroke-width="0.5" stroke-miterlimit="10" stroke-linecap="round" stroke-linejoin="round"/>
<path d="M120.091 468.543C155.09 457.006 123.184 371.736 123.184 371.736C101.526 410.248 94.44 444.35 120.091 468.543Z" fill="#EB997C"/>
<path opacity="0.68" d="M123.184 371.736C111.702 405.524 112.643 454.842 120.091 468.543C129.406 447.758 129.724 414.5 123.184 371.736Z" stroke="#EB997C" stroke-width="0.5" stroke-miterlimit="10" stroke-linecap="round" stroke-linejoin="round"/>
<path d="M98.322 479.915C107.655 481.854 118.102 472.254 118.102 472.254C118.102 472.254 128.267 481.035 141.255 480.174C141.255 480.174 129.695 467.72 118.816 467.305C107.937 466.889 98.322 479.915 98.322 479.915Z" fill="#7A9954"/>
<path d="M546.554 183.39C544.981 194.512 539.547 199.124 531.589 199.482C540.467 200.562 545.455 205.926 546.554 215.574C547.653 205.926 552.642 200.562 561.519 199.482C553.561 199.125 548.127 194.513 546.554 183.39Z" fill="#EB997C"/>
<path d="M470.792 241.704C469.842 248.42 466.561 251.204 461.756 251.42C467.116 252.072 470.128 255.311 470.792 261.136C471.456 255.311 474.468 252.072 479.828 251.42C475.023 251.204 471.742 248.419 470.792 241.704Z" fill="#D39F3F"/>
<path d="M165.386 165.252C164.436 171.968 161.155 174.753 156.35 174.968C161.71 175.62 164.722 178.859 165.386 184.684C166.05 178.859 169.062 175.62 174.422 174.968C169.617 174.753 166.335 171.968 165.386 165.252Z" fill="#707B97"/>
<path d="M98.322 275.045C96.73 286.303 91.229 290.971 83.174 291.333C92.16 292.427 97.209 297.856 98.322 307.621C99.435 297.856 104.484 292.426 113.47 291.333C105.415 290.971 99.914 286.303 98.322 275.045Z" fill="#D39F3F"/>
<path d="M686.759 136.081C685.167 147.339 679.666 152.007 671.611 152.369C680.597 153.463 685.646 158.892 686.759 168.657C687.872 158.892 692.921 153.462 701.907 152.369C693.852 152.007 688.352 147.339 686.759 136.081Z" fill="#707B97"/>
<path d="M608.21 273.357C607.043 281.606 603.013 285.027 597.111 285.292C603.695 286.093 607.395 290.072 608.21 297.227C609.025 290.072 612.725 286.093 619.309 285.292C613.407 285.027 609.376 281.606 608.21 273.357Z" fill="#D39F3F"/>
<path d="M123.742 148.874C122.124 160.311 116.537 165.053 108.354 165.421C117.482 166.532 122.612 172.048 123.742 181.968C124.872 172.048 130.001 166.532 139.13 165.421C130.947 165.053 125.359 160.311 123.742 148.874Z" fill="#EB997C"/>
<path opacity="0.66" d="M317.918 424.402C316.698 433.031 312.481 436.61 306.307 436.887C313.195 437.725 317.065 441.887 317.918 449.372C318.771 441.887 322.641 437.725 329.529 436.887C323.355 436.609 319.139 433.031 317.918 424.402Z" fill="white"/>
<path opacity="0.66" d="M716.626 368.749C715.406 377.378 711.189 380.957 705.015 381.234C711.903 382.072 715.773 386.234 716.626 393.719C717.479 386.234 721.349 382.072 728.237 381.234C722.063 380.957 717.847 377.379 716.626 368.749Z" fill="white"/>
<path opacity="0.66" d="M252.219 405.847C250.57 417.508 244.872 422.343 236.529 422.718C245.836 423.851 251.066 429.475 252.219 439.589C253.371 429.474 258.601 423.851 267.909 422.718C259.566 422.343 253.868 417.508 252.219 405.847Z" fill="white"/>
<path opacity="0.66" d="M42.505 347.595C40.856 359.256 35.158 364.091 26.815 364.466C36.122 365.599 41.352 371.223 42.505 381.337C43.657 371.222 48.887 365.599 58.195 364.466C49.852 364.092 44.154 359.257 42.505 347.595Z" fill="white"/>
</g>
<defs>
<clipPath id="clip0_1987_5785">
<rect width="750" height="500" fill="white"/>
</clipPath>
</defs>
</svg>
