<svg width="14" height="14" viewBox="0 0 14 14" fill="none" xmlns="http://www.w3.org/2000/svg">
<g clip-path="url(#clip0_2006_37333)">
<path d="M1.36632 1.31849C1.09959 1.38996 0.941296 1.66413 1.01277 1.93086C1.08424 2.1976 1.35841 2.35589 1.62514 2.28442L3.87415 1.6818L2.10276 4.74993C1.53414 5.73481 1.27034 6.86619 1.34471 8.001C1.41909 9.13581 1.82831 10.2231 2.52062 11.1253C3.21293 12.0275 4.15724 12.7042 5.23413 13.0698C6.31102 13.4353 7.47212 13.4733 8.57061 13.179C9.66911 12.8847 10.6556 12.2712 11.4055 11.4162C12.1553 10.5611 12.6348 9.50297 12.7832 8.37546C12.9317 7.24795 12.7424 6.10174 12.2394 5.08177C11.7364 4.06181 10.9423 3.21391 9.9574 2.64529C9.71826 2.50722 9.41246 2.58916 9.27439 2.8283C9.13632 3.06745 9.21826 3.37324 9.4574 3.51131C10.271 3.98104 10.927 4.68149 11.3425 5.52406C11.7581 6.36664 11.9144 7.31351 11.7918 8.24493C11.6691 9.17636 11.2731 10.0505 10.6536 10.7568C10.0342 11.4632 9.21924 11.9699 8.31179 12.2131C7.40434 12.4562 6.44517 12.4248 5.55557 12.1229C4.66596 11.8209 3.88588 11.2619 3.31398 10.5166C2.74207 9.77123 2.40402 8.87305 2.34257 7.9356C2.28113 6.99815 2.49905 6.06353 2.96878 5.24993L4.74023 2.18169L5.34289 4.43086C5.41436 4.6976 5.68853 4.85589 5.95527 4.78442C6.222 4.71295 6.38029 4.43878 6.30882 4.17204L5.39376 0.75698C5.37899 0.701879 5.35558 0.651406 5.32537 0.60663C5.28421 0.545529 5.22886 0.492616 5.16077 0.453301C5.03841 0.382659 4.89861 0.369609 4.77275 0.405739L1.36632 1.31849Z" fill="white"/>
</g>
<defs>
<clipPath id="clip0_2006_37333">
<rect width="14" height="14" fill="white"/>
</clipPath>
</defs>
</svg>
