<svg width="18" height="18" viewBox="0 0 18 18" fill="none" xmlns="http://www.w3.org/2000/svg">
<g clip-path="url(#clip0_1_10029)">
<path fill-rule="evenodd" clip-rule="evenodd" d="M17.0034 17.711C17.1986 17.9062 17.5152 17.9062 17.7105 17.711C17.9057 17.5157 17.9057 17.1991 17.7105 17.0039L14.5081 13.8015C15.7918 12.3521 16.5711 10.4457 16.5711 8.35735C16.5711 3.82073 12.8935 0.143067 8.35686 0.143066C3.82024 0.143066 0.142578 3.82073 0.142578 8.35735C0.142578 12.894 3.82024 16.5716 8.35686 16.5716C10.4453 16.5716 12.3516 15.7923 13.801 14.5086L17.0034 17.711ZM13.5051 13.4112C13.4876 13.4246 13.4708 13.4393 13.4548 13.4553C13.4388 13.4713 13.4241 13.4881 13.4107 13.5056C12.1091 14.7835 10.325 15.5716 8.35686 15.5716C4.37252 15.5716 1.14258 12.3417 1.14258 8.35735C1.14258 4.37301 4.37252 1.14307 8.35686 1.14307C12.3412 1.14307 15.5711 4.37301 15.5711 8.35735C15.5711 10.3255 14.783 12.1096 13.5051 13.4112Z" fill="white"/>
</g>
<defs>
<clipPath id="clip0_1_10029">
<rect width="18" height="18" fill="white" transform="translate(18) rotate(90)"/>
</clipPath>
</defs>
</svg>
