<svg width="46" height="46" viewBox="0 0 46 46" fill="none" xmlns="http://www.w3.org/2000/svg">
<circle cx="23" cy="23" r="22.5" fill="#FFE812" stroke="#DDDDDD"/>
<path d="M23 9C14.7157 9 8 14.7382 8 21.8163C8 26.3924 10.8076 30.4079 15.031 32.6753C14.8012 33.534 13.5545 38.1994 13.5048 38.566C13.5048 38.566 13.475 38.8413 13.6395 38.9463C13.8042 39.0514 13.9977 38.9698 13.9977 38.9698C14.4696 38.8984 19.4702 35.0919 20.3358 34.431C21.2005 34.5636 22.0908 34.6326 23 34.6326C31.2843 34.6326 38 28.8947 38 21.8163C38 14.7382 31.2843 9 23 9Z" fill="#381F1F"/>
<path fill-rule="evenodd" clip-rule="evenodd" d="M16.3583 25.4286C15.9467 25.4286 15.6119 25.1176 15.6119 24.7351V20.4219H14.4473C14.0434 20.4219 13.7148 20.1028 13.7148 19.7109C13.7148 19.3189 14.0435 19 14.4473 19H18.2694C18.6733 19 19.0018 19.3189 19.0018 19.7109C19.0018 20.1028 18.6732 20.4219 18.2694 20.4219H17.1048V24.7351C17.1048 25.1176 16.77 25.4286 16.3583 25.4286ZM22.9033 25.4191C22.592 25.4191 22.354 25.2962 22.2822 25.0985L21.9126 24.1573L19.6365 24.1571L19.2667 25.0989C19.1952 25.2963 18.9572 25.4191 18.646 25.4191C18.4822 25.4193 18.3203 25.3851 18.1715 25.3189C17.9657 25.2266 17.7679 24.9727 17.9945 24.2879L19.7799 19.7167C19.9058 19.3691 20.2877 19.0109 20.774 19.0001C21.2615 19.0108 21.6434 19.3691 21.7695 19.7174L23.5542 24.2866C23.7813 24.9729 23.5835 25.227 23.3777 25.319C23.2288 25.3851 23.067 25.4192 22.9033 25.4191ZM20.7745 20.811L21.5201 22.8712H20.029L20.7745 20.811ZM24.7554 25.3227C24.3608 25.3227 24.0401 25.024 24.0401 24.6571V19.7261C24.0401 19.3256 24.3819 19 24.802 19C25.2221 19 25.564 19.3256 25.564 19.7261V23.9915H27.15C27.5446 23.9915 27.8654 24.2902 27.8654 24.6571C27.8654 25.024 27.5446 25.3227 27.15 25.3227H24.7554ZM28.1557 24.6931C28.1557 25.0935 28.4905 25.4191 28.9021 25.4191C29.1001 25.4188 29.2899 25.3422 29.4298 25.2061C29.5698 25.0699 29.6485 24.8853 29.6488 24.6927V23.1086L29.9078 22.8566L31.6582 25.1127C31.7275 25.2028 31.8175 25.2757 31.9211 25.3259C32.0246 25.376 32.1388 25.4018 32.2544 25.4014C32.4166 25.4017 32.5744 25.3502 32.7035 25.2547C32.7819 25.1976 32.8479 25.1258 32.8976 25.0436C32.9472 24.9614 32.9798 24.8704 32.993 24.776C33.007 24.6815 33.0015 24.5854 32.9768 24.493C32.9523 24.4007 32.9091 24.314 32.8497 24.238L31.0124 21.8704L32.7134 20.2161C32.8303 20.1023 32.8889 19.9453 32.8781 19.774C32.8674 19.6043 32.7894 19.4409 32.6587 19.3138C32.5184 19.1775 32.3313 19.0993 32.145 19.0993C31.9853 19.0993 31.8381 19.1567 31.731 19.2609L29.6485 21.2866V19.7261C29.6485 19.3256 29.3138 19 28.9021 19C28.4905 19 28.1557 19.3256 28.1557 19.7261V24.6931Z" fill="#FFE812"/>
</svg>
