<svg width="46" height="46" viewBox="0 0 46 46" fill="none" xmlns="http://www.w3.org/2000/svg">
<circle cx="23" cy="23" r="22.5" fill="#333333" stroke="#DDDDDD"/>
<path d="M23 8C14.7125 8 8 14.8868 8 23.3808C8 30.1779 12.2975 35.9419 18.2563 37.9734C19.0063 38.1183 19.2812 37.6427 19.2812 37.2339C19.2812 36.8686 19.2688 35.9009 19.2625 34.6191C15.09 35.5471 14.21 32.5555 14.21 32.5555C13.5275 30.7803 12.5412 30.3061 12.5412 30.3061C11.1825 29.3525 12.6462 29.3717 12.6462 29.3717C14.1525 29.4794 14.9437 30.9559 14.9437 30.9559C16.2812 33.3079 18.455 32.6286 19.3125 32.2351C19.4475 31.2405 19.8338 30.5624 20.2625 30.1779C16.9313 29.7934 13.43 28.4706 13.43 22.5772C13.43 20.8981 14.0113 19.5267 14.9738 18.45C14.805 18.0616 14.2987 16.4979 15.105 14.3792C15.105 14.3792 16.3612 13.9665 19.23 15.9557C20.43 15.6135 21.705 15.4443 22.98 15.4366C24.255 15.4443 25.53 15.6135 26.73 15.9557C29.58 13.9665 30.8362 14.3792 30.8362 14.3792C31.6425 16.4979 31.1362 18.0616 30.9862 18.45C31.9425 19.5267 32.5238 20.8981 32.5238 22.5772C32.5238 28.486 29.0175 29.787 25.68 30.1651C26.205 30.6265 26.6925 31.5699 26.6925 33.0105C26.6925 35.069 26.6737 36.7224 26.6737 37.2223C26.6737 37.6261 26.9363 38.1067 27.705 37.9529C33.7062 35.9355 38 30.1676 38 23.3808C38 14.8868 31.2838 8 23 8Z" fill="white"/>
</svg>
