<svg width="18" height="18" viewBox="0 0 18 18" fill="none" xmlns="http://www.w3.org/2000/svg">
<path fill-rule="evenodd" clip-rule="evenodd" d="M6.63818 2.79474C6.63818 1.49045 7.69553 0.433105 8.99982 0.433105C10.3041 0.433105 11.3615 1.49045 11.3615 2.79474C11.3615 4.09904 10.3041 5.15638 8.99982 5.15638C7.69553 5.15638 6.63818 4.09904 6.63818 2.79474ZM8.99982 1.43311C8.24781 1.43311 7.63818 2.04273 7.63818 2.79474C7.63818 3.54676 8.24781 4.15638 8.99982 4.15638C9.75184 4.15638 10.3615 3.54676 10.3615 2.79474C10.3615 2.04273 9.75184 1.43311 8.99982 1.43311Z" fill="#828282"/>
<path fill-rule="evenodd" clip-rule="evenodd" d="M6.63818 9.00031C6.63818 7.69601 7.69553 6.63867 8.99982 6.63867C10.3041 6.63867 11.3615 7.69601 11.3615 9.00031C11.3615 10.3046 10.3041 11.3619 8.99982 11.3619C7.69553 11.3619 6.63818 10.3046 6.63818 9.00031ZM8.99982 7.63867C8.24781 7.63867 7.63818 8.2483 7.63818 9.00031C7.63818 9.75232 8.24781 10.3619 8.99982 10.3619C9.75184 10.3619 10.3615 9.75232 10.3615 9.00031C10.3615 8.2483 9.75184 7.63867 8.99982 7.63867Z" fill="#828282"/>
<path fill-rule="evenodd" clip-rule="evenodd" d="M8.99982 12.8442C7.69553 12.8442 6.63818 13.9016 6.63818 15.2059C6.63818 16.5102 7.69553 17.5675 8.99982 17.5675C10.3041 17.5675 11.3615 16.5102 11.3615 15.2059C11.3615 13.9016 10.3041 12.8442 8.99982 12.8442ZM7.63818 15.2059C7.63818 14.4539 8.24781 13.8442 8.99982 13.8442C9.75184 13.8442 10.3615 14.4539 10.3615 15.2059C10.3615 15.9579 9.75184 16.5675 8.99982 16.5675C8.24781 16.5675 7.63818 15.9579 7.63818 15.2059Z" fill="#828282"/>
</svg>
