<svg width="18" height="18" viewBox="0 0 18 18" fill="none" xmlns="http://www.w3.org/2000/svg">
<path fill-rule="evenodd" clip-rule="evenodd" d="M2.20117 9C2.20117 8.84634 2.25778 8.6981 2.36011 8.58357C2.93494 7.96528 3.86911 7.06284 5.03131 6.31725C6.19802 5.56877 7.56065 5 8.99977 5C10.4389 5 11.8015 5.56877 12.9682 6.31725C14.1304 7.06284 15.0646 7.96529 15.6394 8.58358C15.7418 8.69811 15.7984 8.84634 15.7984 9C15.7984 9.15366 15.7418 9.3019 15.6394 9.41643C15.0646 10.0347 14.1304 10.9372 12.9682 11.6828C11.8015 12.4312 10.4389 13 8.99977 13C7.56065 13 6.19802 12.4312 5.03131 11.6828C3.86911 10.9372 2.93494 10.0347 2.36011 9.41643C2.25778 9.3019 2.20117 9.15366 2.20117 9ZM8.99977 4C7.30014 4 5.74902 4.66873 4.49135 5.47556C3.23107 6.28407 2.2314 7.25302 1.62473 7.9059L1.6247 7.90587L1.61984 7.91125C1.35035 8.20985 1.20117 8.59778 1.20117 9C1.20117 9.40223 1.35035 9.79016 1.61984 10.0888L1.6198 10.0888L1.62473 10.0941C2.2314 10.747 3.23107 11.7159 4.49135 12.5244C5.74902 13.3313 7.30014 14 8.99977 14C10.6994 14 12.2505 13.3313 13.5082 12.5244C14.7685 11.7159 15.7681 10.747 16.3748 10.0941L16.3748 10.0941L16.3797 10.0888C16.6492 9.79016 16.7984 9.40223 16.7984 9C16.7984 8.59778 16.6492 8.20985 16.3797 7.91125L16.3797 7.91122L16.3748 7.9059C15.7681 7.25302 14.7685 6.28407 13.5082 5.47556C12.2505 4.66873 10.6994 4 8.99977 4ZM7.24988 9C7.24988 8.0335 8.03338 7.25 8.99988 7.25C9.96638 7.25 10.7499 8.0335 10.7499 9C10.7499 9.9665 9.96638 10.75 8.99988 10.75C8.03338 10.75 7.24988 9.9665 7.24988 9ZM8.99988 6.25C7.4811 6.25 6.24988 7.48122 6.24988 9C6.24988 10.5188 7.4811 11.75 8.99988 11.75C10.5187 11.75 11.7499 10.5188 11.7499 9C11.7499 7.48122 10.5187 6.25 8.99988 6.25Z" fill="#20604F"/>
</svg>
